<svg
  xmlns="http://www.w3.org/2000/svg"
  width="10"
  height="24"
  viewBox="0 0 10 24"
  fill="currentColor"
  aria-hidden="true"
>
  <rect x="2.5" y="2"  width="2" height="2" rx="0" />
  <rect x="2.5" y="5"  width="2" height="2" rx="0" />
  <rect x="2.5" y="8"  width="2" height="2" rx="0" />
  <rect x="2.5" y="11" width="2" height="2" rx="0" />
  <rect x="2.5" y="14" width="2" height="2" rx="0" />
  <rect x="2.5" y="17" width="2" height="2" rx="0" />
  <rect x="2.5" y="20" width="2" height="2" rx="0" />
  <rect x="5.5" y="2"  width="2" height="2" rx="0" />
  <rect x="5.5" y="5"  width="2" height="2" rx="0" />
  <rect x="5.5" y="8"  width="2" height="2" rx="0" />
  <rect x="5.5" y="11" width="2" height="2" rx="0" />
  <rect x="5.5" y="14" width="2" height="2" rx="0" />
  <rect x="5.5" y="17" width="2" height="2" rx="0" />
  <rect x="5.5" y="20" width="2" height="2" rx="0" />
</svg>
