<svg xmlns="http://www.w3.org/2000/svg" width="14" height="15" viewBox="0 0 14 15" fill="none">
  <path d="M1.16699 5.75L2.91699 7.5L1.16699 9.25M5.25033 2.25H11.667C11.9892 2.25 12.2503 2.51117 12.2503 2.83333V5.75C12.2503 6.07217 11.9892 6.33333 11.667 6.33333H5.25033C4.92816 6.33333 4.66699 6.07217 4.66699 5.75V2.83333C4.66699 2.51117 4.92816 2.25 5.25033 2.25ZM5.25033 8.66667H11.667C11.9892 8.66667 12.2503 8.92783 12.2503 9.25V12.1667C12.2503 12.4888 11.9892 12.75 11.667 12.75H5.25033C4.92816 12.75 4.66699 12.4888 4.66699 12.1667V9.25C4.66699 8.92783 4.92816 8.66667 5.25033 8.66667Z" stroke="#E7E7E7" stroke-width="1.5" stroke-linecap="round" stroke-linejoin="round"/>
</svg>