<svg xmlns="http://www.w3.org/2000/svg" width="14" height="15" viewBox="0 0 14 15" fill="none">
  <g clip-path="url(#clip0_549_11747)">
    <path d="M12.25 3.4165C12.25 4.383 9.89949 5.1665 7 5.1665C4.1005 5.1665 1.75 4.383 1.75 3.4165M12.25 3.4165C12.25 2.45001 9.89949 1.6665 7 1.6665C4.1005 1.6665 1.75 2.45001 1.75 3.4165M12.25 3.4165V11.5832C12.25 12.0473 11.6969 12.4924 10.7123 12.8206C9.72774 13.1488 8.39239 13.3332 7 13.3332C5.60761 13.3332 4.27226 13.1488 3.28769 12.8206C2.30312 12.4924 1.75 12.0473 1.75 11.5832V3.4165M1.75 7.49984C1.75 7.96397 2.30312 8.40909 3.28769 8.73727C4.27226 9.06546 5.60761 9.24984 7 9.24984C8.39239 9.24984 9.72774 9.06546 10.7123 8.73727C11.6969 8.40909 12.25 7.96397 12.25 7.49984" stroke="#E7E7E7" stroke-width="1.5" stroke-linecap="round" stroke-linejoin="round"/>
  </g>
  <defs>
    <clipPath id="clip0_549_11747">
      <rect width="14" height="14" fill="white" transform="translate(0 0.5)"/>
    </clipPath>
  </defs>
</svg>