<svg xmlns="http://www.w3.org/2000/svg" width="16" height="16" viewBox="0 0 16 16" fill="none">
  <path d="M8 2C11.314 2 14 2.895 14 4V12C14 13.105 11.314 14 8 14C4.686 14 2 13.105 2 12V4C2 2.895 4.686 2 8 2Z" stroke="currentColor" stroke-width="1.5" fill="none"/>
  <ellipse cx="8" cy="4" rx="6" ry="2" stroke="currentColor" stroke-width="1.5" fill="none"/>
  <path d="M2 8C2 9.105 4.686 10 8 10C11.314 10 14 9.105 14 8" stroke="currentColor" stroke-width="1.5" fill="none"/>
  <path d="M2 6C2 7.105 4.686 8 8 8C11.314 8 14 7.105 14 6" stroke="currentColor" stroke-width="1.5" fill="none"/>
</svg>