<svg xmlns="http://www.w3.org/2000/svg" width="20" height="20" viewBox="0 0 20 20" fill="none">
  <mask id="mask0_457_5331" style="mask-type:alpha" maskUnits="userSpaceOnUse" x="0" y="0" width="20" height="20">
    <rect y="20" width="20" height="20" transform="rotate(-90 0 20)" fill="#D9D9D9"/>
  </mask>
  <g mask="url(#mask0_457_5331)">
    <path d="M18.3327 9.99992C18.3327 11.1527 18.1139 12.236 17.6764 13.2499C17.2389 14.2638 16.6452 15.1458 15.8952 15.8958C15.1452 16.6458 14.2632 17.2395 13.2493 17.677C12.2355 18.1145 11.1521 18.3333 9.99935 18.3333C8.44379 18.3333 7.00977 17.9409 5.69727 17.1562C4.38477 16.3714 3.3674 15.3055 2.64518 13.9583C2.53407 13.7499 2.52018 13.5312 2.60352 13.302C2.68685 13.0728 2.83963 12.9096 3.06185 12.8124C3.27018 12.7291 3.48199 12.7291 3.69727 12.8124C3.91254 12.8958 4.07574 13.0346 4.18685 13.2291C4.77018 14.2708 5.57921 15.1041 6.61393 15.7291C7.64865 16.3541 8.77713 16.6666 9.99935 16.6666C11.8605 16.6666 13.4368 16.0208 14.7285 14.7291C16.0202 13.4374 16.666 11.861 16.666 9.99992C16.666 8.13881 16.0202 6.56242 14.7285 5.27075C13.4368 3.97908 11.8605 3.33325 9.99935 3.33325C8.77713 3.33325 7.64865 3.64575 6.61393 4.27075C5.57921 4.89575 4.77018 5.72909 4.18685 6.77075C4.07574 6.9652 3.91254 7.10409 3.69727 7.18742C3.48199 7.27075 3.27018 7.27075 3.06185 7.18742C2.83963 7.10409 2.6799 6.95478 2.58268 6.7395C2.48546 6.52422 2.4924 6.31936 2.60352 6.12492C3.31185 4.76381 4.32574 3.68047 5.64518 2.87492C6.96463 2.06936 8.41601 1.66659 9.99935 1.66659C11.1521 1.66659 12.2355 1.88534 13.2493 2.32284C14.2632 2.76034 15.1452 3.35408 15.8952 4.10408C16.6452 4.85408 17.2389 5.73603 17.6764 6.74992C18.1139 7.76381 18.3327 8.84714 18.3327 9.99992ZM10.1452 10.8333L2.49935 10.8333C2.26324 10.8333 2.06532 10.7534 1.9056 10.5937C1.74588 10.4339 1.66602 10.236 1.66602 9.99992C1.66602 9.76381 1.74588 9.56589 1.9056 9.40617C2.06532 9.24645 2.26324 9.16659 2.49935 9.16659L10.1452 9.16659L8.58268 7.58325C8.4299 7.43047 8.35004 7.2395 8.3431 7.01033C8.33615 6.78117 8.41602 6.58325 8.58268 6.41658C8.73546 6.26381 8.9299 6.18742 9.16602 6.18742C9.40213 6.18742 9.59657 6.26381 9.74935 6.41658L12.7493 9.41659C12.916 9.58325 12.9993 9.7777 12.9993 9.99992C12.9993 10.2221 12.916 10.4166 12.7493 10.5833L9.74935 13.5833C9.59657 13.736 9.4056 13.8159 9.17643 13.8228C8.94726 13.8298 8.74935 13.7499 8.58268 13.5833C8.4299 13.4305 8.35352 13.236 8.35352 12.9999C8.35352 12.7638 8.4299 12.5694 8.58268 12.4166L10.1452 10.8333Z" fill="#3B82F6"/>
  </g>
</svg>