<svg xmlns="http://www.w3.org/2000/svg" width="14" height="15" viewBox="0 0 14 15" fill="none">
  <path d="M4.66667 2.25H4.08333C3.77391 2.25 3.47717 2.37292 3.25838 2.59171C3.03958 2.8105 2.91667 3.10725 2.91667 3.41667V6.33333C2.91667 6.64275 2.79375 6.9395 2.57496 7.15829C2.35617 7.37708 2.05942 7.5 1.75 7.5C2.05942 7.5 2.35617 7.62292 2.57496 7.84171C2.79375 8.0605 2.91667 8.35725 2.91667 8.66667V11.5833C2.91667 12.225 3.44167 12.75 4.08333 12.75H4.66667M9.33333 12.75H9.91667C10.2261 12.75 10.5228 12.6271 10.7416 12.4083C10.9604 12.1895 11.0833 11.8928 11.0833 11.5833V8.66667C11.0833 8.025 11.6083 7.5 12.25 7.5C11.9406 7.5 11.6438 7.37708 11.425 7.15829C11.2062 6.9395 11.0833 6.64275 11.0833 6.33333V3.41667C11.0833 3.10725 10.9604 2.8105 10.7416 2.59171C10.5228 2.37292 10.2261 2.25 9.91667 2.25H9.33333" stroke="#E7E7E7" stroke-width="1.5" stroke-linecap="round" stroke-linejoin="round"/>
</svg>