<svg width="1280" height="640" viewBox="0 0 1280 640" fill="none" xmlns="http://www.w3.org/2000/svg">
    <g>
        <path d="M89.856 272.16Q64.8 272.16 47.808 264.384Q30.816 256.608 21.744 244.368Q12.672 232.128 12.096 218.592Q12.096 216.288 13.968 214.416Q15.84 212.544 18.432 212.544L33.12 212.544Q36.576 212.544 38.304 214.272Q40.032 216 40.608 218.304Q42.336 225.216 47.808 231.984Q53.28 238.752 63.504 243.216Q73.728 247.68 89.856 247.68Q114.624 247.68 126.288 238.896Q137.952 230.112 137.952 215.424Q137.952 205.344 131.76 199.152Q125.568 192.96 112.896 188.064Q100.224 183.168 80.064 177.408Q59.04 171.36 45.216 164.16Q31.392 156.96 24.624 146.304Q17.856 135.648 17.856 119.232Q17.856 103.68 26.208 91.44Q34.56 79.2 50.4 72Q66.24 64.8 88.416 64.8Q106.272 64.8 119.664 69.552Q133.056 74.304 141.984 82.224Q150.912 90.144 155.52 99.216Q160.128 108.288 160.416 116.928Q160.416 118.944 158.976 120.816Q157.536 122.688 154.368 122.688L139.104 122.688Q137.088 122.688 134.928 121.536Q132.768 120.384 131.616 117.216Q129.888 105.408 118.368 97.344Q106.848 89.28 88.416 89.28Q69.696 89.28 58.032 96.48Q46.368 103.68 46.368 118.944Q46.368 128.736 51.84 135.216Q57.312 141.696 69.12 146.592Q80.928 151.488 99.936 156.96Q122.976 163.296 137.664 170.352Q152.352 177.408 159.408 187.92Q166.464 198.432 166.464 214.848Q166.464 232.992 156.96 245.808Q147.456 258.624 130.32 265.392Q113.184 272.16 89.856 272.16ZM258.912 269.28Q242.784 269.28 232.704 263.088Q222.624 256.896 218.016 245.52Q213.408 234.144 213.408 218.592L213.408 142.56L190.944 142.56Q188.064 142.56 186.192 140.688Q184.32 138.816 184.32 135.936L184.32 126.144Q184.32 123.264 186.192 121.392Q188.064 119.52 190.944 119.52L213.408 119.52L213.408 71.424Q213.408 68.544 215.28 66.672Q217.152 64.8 220.032 64.8L233.568 64.8Q236.448 64.8 238.32 66.672Q240.192 68.544 240.192 71.424L240.192 119.52L275.904 119.52Q279.072 119.52 280.8 121.392Q282.528 123.264 282.528 126.144L282.528 135.936Q282.528 138.816 280.8 140.688Q279.072 142.56 275.904 142.56L240.192 142.56L240.192 216.576Q240.192 230.112 244.8 237.888Q249.408 245.664 261.216 245.664L278.784 245.664Q281.664 245.664 283.536 247.536Q285.408 249.408 285.408 252.288L285.408 262.656Q285.408 265.536 283.536 267.408C282.288 268.656 280.704 269.28 278.784 269.28L258.912 269.28ZM354.816 272.16Q340.416 272.16 328.608 266.4Q316.8 260.64 309.6 250.848Q302.4 241.056 302.4 228.672Q302.4 208.8 318.528 196.992Q334.656 185.184 360.576 181.44L403.488 175.392L403.488 167.04Q403.488 153.216 395.568 145.44Q387.648 137.664 369.792 137.664Q357.12 137.664 349.056 142.848Q340.992 148.032 337.824 156.096Q336.096 160.416 331.776 160.416L318.816 160.416Q315.648 160.416 314.064 158.544Q312.48 156.672 312.48 154.08Q312.48 149.76 315.792 143.424Q319.104 137.088 326.016 131.04Q332.928 124.992 343.728 120.816Q354.528 116.64 370.08 116.64Q387.36 116.64 399.168 121.104Q410.976 125.568 417.744 133.056Q424.512 140.544 427.536 150.048Q430.56 159.552 430.56 169.344L430.56 262.656Q430.56 265.536 428.688 267.408C427.44 268.656 425.856 269.28 423.936 269.28L410.688 269.28C408.576 269.28 406.944 268.656 405.792 267.408Q404.064 265.536 404.064 262.656L404.064 250.272Q400.32 255.456 393.984 260.496Q387.648 265.536 378.144 268.848Q368.64 272.16 354.816 272.16ZM360.864 250.56Q372.672 250.56 382.464 245.52Q392.256 240.48 397.872 229.824Q403.488 219.168 403.488 203.04L403.488 194.976L370.08 199.872Q349.632 202.752 339.264 209.52Q328.896 216.288 328.896 226.656Q328.896 234.72 333.648 240.048Q338.4 245.376 345.744 247.968Q353.088 250.56 360.864 250.56ZM478.656 269.28C476.736 269.28 475.152 268.656 473.904 267.408Q472.032 265.536 472.032 262.656L472.032 126.432Q472.032 123.552 473.904 121.536Q475.776 119.52 478.656 119.52L491.904 119.52Q494.784 119.52 496.8 121.536Q498.816 123.552 498.816 126.432L498.816 139.104Q504.576 129.312 514.656 124.416Q524.736 119.52 539.136 119.52L550.368 119.52Q553.248 119.52 555.12 121.392Q556.992 123.264 556.992 126.144L556.992 137.952Q556.992 140.832 555.12 142.56Q553.248 144.288 550.368 144.288L533.088 144.288Q517.536 144.288 508.608 153.36Q499.68 162.432 499.68 177.984L499.68 262.656Q499.68 265.536 497.664 267.408C496.32 268.656 494.688 269.28 492.768 269.28L478.656 269.28Z"
              fill="#4051B5" transform="translate(502 0)"/>
        <path d="M97.632 272.16Q72.864 272.16 55.296 263.664Q37.728 255.168 28.224 237.456Q18.72 219.744 17.568 192.96Q17.28 180.288 17.28 168.624Q17.28 156.96 17.568 144.288Q18.72 117.792 28.656 100.08Q38.592 82.368 56.304 73.584Q74.016 64.8 97.632 64.8Q120.96 64.8 138.672 73.584Q156.384 82.368 166.464 100.08Q176.544 117.792 177.408 144.288Q177.984 156.96 177.984 168.624Q177.984 180.288 177.408 192.96Q176.544 219.744 166.896 237.456Q157.248 255.168 139.68 263.664Q122.112 272.16 97.632 272.16ZM97.632 247.68Q119.52 247.68 133.488 234.432Q147.456 221.184 148.608 191.52Q149.184 178.56 149.184 168.336Q149.184 158.112 148.608 145.44Q148.032 125.568 141.264 113.184Q134.496 100.8 123.264 95.04Q112.032 89.28 97.632 89.28Q83.232 89.28 72 95.04Q60.768 100.8 54 113.184Q47.232 125.568 46.368 145.44Q46.08 158.112 46.08 168.336Q46.08 178.56 46.368 191.52Q47.52 221.184 61.632 234.432Q75.744 247.68 97.632 247.68ZM223.2 324Q220.32 324 218.448 322.128Q216.576 320.256 216.576 317.376L216.576 126.144Q216.576 123.264 218.448 121.392Q220.32 119.52 223.2 119.52L236.448 119.52Q239.328 119.52 241.2 121.392Q243.072 123.264 243.072 126.144L243.072 138.816Q249.984 129.312 261.504 122.976Q273.024 116.64 290.304 116.64Q306.432 116.64 317.808 122.112Q329.184 127.584 336.528 137.088Q343.872 146.592 347.616 158.688Q351.36 170.784 351.936 184.608Q352.224 189.216 352.224 194.4Q352.224 199.584 351.936 204.192Q351.36 217.728 347.616 229.968Q343.872 242.208 336.528 251.568Q329.184 260.928 317.808 266.544Q306.432 272.16 290.304 272.16Q273.6 272.16 262.224 265.968Q250.848 259.776 243.648 250.56L243.648 317.376Q243.648 320.256 241.92 322.128Q240.192 324 237.312 324L223.2 324ZM284.256 248.832Q299.232 248.832 307.728 242.352Q316.224 235.872 319.968 225.36Q323.712 214.848 324.288 202.752Q324.576 194.4 324.288 186.048Q323.712 173.952 319.968 163.44Q316.224 152.928 307.728 146.448Q299.232 139.968 284.256 139.968Q270.144 139.968 261.36 146.592Q252.576 153.216 248.4 163.44Q244.224 173.664 243.648 184.32Q243.36 188.928 243.36 195.264Q243.36 201.6 243.648 206.496Q243.936 216.576 248.4 226.368Q252.864 236.16 261.792 242.496Q270.72 248.832 284.256 248.832ZM447.84 272.16Q417.888 272.16 400.32 253.872Q382.752 235.584 381.024 203.904Q380.736 200.16 380.736 194.256Q380.736 188.352 381.024 184.608Q382.176 164.16 390.528 148.752Q398.88 133.344 413.424 124.992Q427.968 116.64 447.552 116.64Q469.44 116.64 484.272 125.856Q499.104 135.072 506.88 152.064Q514.656 169.056 514.656 191.808L514.656 196.704Q514.656 199.872 512.784 201.6Q510.912 203.328 508.032 203.328L408.384 203.328Q408.384 203.616 408.384 204.48Q408.384 205.344 408.384 205.92Q408.96 217.728 413.568 227.952Q418.176 238.176 426.96 244.512Q435.744 250.848 447.552 250.848Q457.92 250.848 464.832 247.68Q471.744 244.512 476.064 240.624Q480.384 236.736 481.824 234.432Q484.416 230.976 485.856 230.256Q487.296 229.536 490.464 229.536L504.576 229.536Q507.168 229.536 509.04 231.12Q510.912 232.704 510.624 235.584Q510.336 239.904 506.016 246.096Q501.696 252.288 493.776 258.336Q485.856 264.384 474.192 268.272Q462.528 272.16 447.84 272.16ZM408.384 183.456L487.296 183.456L487.296 182.592Q487.296 169.632 482.544 159.552Q477.792 149.472 468.864 143.568Q459.936 137.664 447.552 137.664Q435.168 137.664 426.384 143.568Q417.6 149.472 412.992 159.552Q408.384 169.632 408.384 182.592L408.384 183.456ZM555.84 269.28C553.92 269.28 552.336 268.656 551.088 267.408Q549.216 265.536 549.216 262.656L549.216 126.144Q549.216 123.264 551.088 121.392Q552.96 119.52 555.84 119.52L569.376 119.52Q572.256 119.52 574.128 121.392Q576 123.264 576 126.144L576 138.816Q583.488 129.024 594.864 122.832Q606.24 116.64 624.096 116.64Q642.816 116.64 655.92 124.848Q669.024 133.056 675.792 147.6Q682.56 162.144 682.56 181.44L682.56 262.656Q682.56 265.536 680.688 267.408C679.44 268.656 677.856 269.28 675.936 269.28L661.536 269.28C659.616 269.28 658.032 268.656 656.784 267.408Q654.912 265.536 654.912 262.656L654.912 182.88Q654.912 162.72 645.12 151.344Q635.328 139.968 616.32 139.968Q598.464 139.968 587.664 151.344Q576.864 162.72 576.864 182.88L576.864 262.656Q576.864 265.536 574.992 267.408C573.744 268.656 572.16 269.28 570.24 269.28L555.84 269.28ZM713.952 269.28C712.416 269.28 711.072 268.704 709.92 267.552Q708.192 265.824 708.192 263.52Q708.192 262.08 708.48 260.352L779.904 74.016Q781.056 71.136 783.072 69.408Q785.088 67.68 789.12 67.68L808.704 67.68Q812.736 67.68 814.752 69.408Q816.768 71.136 817.92 74.016L889.056 260.352Q889.632 262.08 889.632 263.52Q889.632 265.824 887.904 267.552C886.752 268.704 885.408 269.28 883.872 269.28L869.184 269.28C866.88 269.28 865.2 268.704 864.144 267.552Q862.56 265.824 861.984 264.384L846.144 223.488L751.68 223.488L735.84 264.384Q735.552 265.824 733.824 267.552C732.672 268.704 730.944 269.28 728.64 269.28L713.952 269.28ZM760.032 198.72L837.792 198.72L798.912 96.48L760.032 198.72ZM927.072 269.28C924.96 269.28 923.328 268.656 922.176 267.408Q920.448 265.536 920.448 262.656L920.448 74.592Q920.448 71.424 922.176 69.552Q923.904 67.68 927.072 67.68L1000.22 67.68Q1021.54 67.68 1037.23 74.592Q1052.93 81.504 1061.57 95.184Q1070.21 108.864 1070.21 129.312Q1070.21 149.76 1061.57 163.296Q1052.93 176.832 1037.23 183.744Q1021.54 190.656 1000.22 190.656L949.248 190.656L949.248 262.656Q949.248 265.536 947.376 267.408C946.128 268.656 944.448 269.28 942.336 269.28L927.072 269.28ZM948.96 166.464L998.784 166.464Q1020.1 166.464 1030.75 156.96Q1041.41 147.456 1041.41 129.312Q1041.41 111.456 1031.04 101.664Q1020.67 91.872 998.784 91.872L948.96 91.872L948.96 166.464ZM1111.97 269.28C1109.86 269.28 1108.22 268.656 1107.07 267.408Q1105.34 265.536 1105.34 262.656L1105.34 74.304Q1105.34 71.424 1107.07 69.552Q1108.8 67.68 1111.97 67.68L1127.23 67.68Q1130.4 67.68 1132.13 69.552Q1133.86 71.424 1133.86 74.304L1133.86 262.656Q1133.86 265.536 1132.13 267.408C1130.98 268.656 1129.34 269.28 1127.23 269.28L1111.97 269.28Z"
              fill="#4051B5" transform="translate(60 292)"/>
    </g>
    <style>
        @keyframes foot {
            0% {
            d: path('M122.164 0C140.973 0 159.782 76.2229 159.782 76.2229C159.782 76.2229 238.087 70.5573 243.899 88.4459C249.712 106.334 194.656 112 183.031 147.777C171.407 183.554 202.217 229.444 187 240.5C171.783 251.556 159.782 192 122.164 192C84.5455 192 52.7169 235.556 37.5 224.5C22.2831 213.444 72.9208 183.554 61.2961 147.777C49.6714 112 -5.38397 106.334 0.428406 88.4459C6.24072 70.5573 84.5455 76.2229 84.5455 76.2229C84.5455 76.2229 103.355 0 122.164 0Z');
            }

            50% {
            d: path('M122.164 0C140.973 0 159.782 76.223 159.782 76.223C159.782 76.223 238.087 70.5573 243.899 88.4459C249.711 106.334 194.656 112 183.031 147.777C171.407 183.554 212.617 220.499 197.4 231.554C182.183 242.61 159.782 192 122.164 192C84.5454 192 62.144 242.61 46.9271 231.554C31.7102 220.499 72.9208 183.554 61.296 147.777C49.6714 112 -5.38397 106.334 0.428406 88.4459C6.24072 70.5573 84.5454 76.2229 84.5454 76.2229C84.5454 76.2229 103.355 0 122.164 0Z');
            }

            100% {
            d: path('M122.164 0C140.973 0 159.782 76.2229 159.782 76.2229C159.782 76.2229 238.087 70.5573 243.899 88.4459C249.712 106.334 194.656 112 183.031 147.777C171.407 183.554 202.217 229.444 187 240.5C171.783 251.556 159.782 192 122.164 192C84.5455 192 52.7169 235.556 37.5 224.5C22.2831 213.444 72.9208 183.554 61.2961 147.777C49.6714 112 -5.38397 106.334 0.428406 88.4459C6.24072 70.5573 84.5455 76.2229 84.5455 76.2229C84.5455 76.2229 103.355 0 122.164 0Z');
            }
        }

        #foot {
            fill-rule: evenodd;
            transform: translate(215px, 61px);
            animation: foot 5s ease-in-out infinite;
            transform-box: view-box;
        }
    </style>

    <path id="foot" fill="#4051b5"/>

    <g transform="translate(22 6)">
        <ellipse id="eye-white" fill="#c5c5c5" ry="5" rx="12" cy="125" cx="315"/>
        <ellipse id="eye-black" fill="#151515" ry="5" rx="5" cy="125" cx="315"/>
        <ellipse id="eye-stroke" fill="none" stroke="black" stroke-width="1" ry="5" rx="12" cy="125" cx="315"
                 opacity="0.5" style="filter: blur(1px)"/>
        <ellipse id="eye-hl" fill="#ffffff" ry="2.4" rx="1.2" cy="124" cx="316" transform="rotate(-45)"
                 style="transform-box:fill-box;transform-origin:center;filter: blur(0.6px)"/>
    </g>

</svg>