<svg width="256" height="256" xmlns="http://www.w3.org/2000/svg">
    <path stroke="null" transform="translate(5 10)" fill="#4051b5"
          d="M122.164 0C140.973 0 159.782 76.2229 159.782 76.2229C159.782 76.2229 238.087 70.5573 243.899 88.4459C249.712 106.334 194.656 112 183.031 147.777C171.407 183.554 202.217 229.444 187 240.5C171.783 251.556 159.782 192 122.164 192C84.5455 192 52.7169 235.556 37.5 224.5C22.2831 213.444 72.9208 183.554 61.2961 147.777C49.6714 112 -5.38397 106.334 0.428406 88.4459C6.24072 70.5573 84.5455 76.2229 84.5455 76.2229C84.5455 76.2229 103.355 0 122.164 0Z"/>
</svg>