<svg class="svg-logo" version="1.1" x="0px" y="0px" width="289.33px" height="50px" viewBox="0 0 289.33 50" xml:space="preserve">
    <g transform="translate(-542.891 -136.655)">
        <g transform="translate(542.891 136.655)">
            <radialGradient id="Path_37_2_" cx="996.2683" cy="-807.4243" r="0.91" gradientTransform="matrix(44.1896 0 0 -44.203 -44001.2148 -35630.6328)" gradientUnits="userSpaceOnUse">
                <stop offset="0" style="stop-color:#FEE96A"></stop>
                <stop offset="1" style="stop-color:#D32527"></stop>
            </radialGradient>
            <path fill="url(#Path_37_2_)" d="M46.13,17.46c0.1,0.15,0.19,0.3,0.28,0.45c2.88,4.89,1.26,11.18-3.61,14.08 c-0.06,0.03-0.12,0.07-0.18,0.1c-0.19,0.11-0.38,0.2-0.56,0.29l-0.06,0.03c-0.01,0-0.02,0-0.03,0.01 c-0.31,0.14-0.62,0.27-0.93,0.38h-0.01c-0.29,0.1-0.58,0.19-0.88,0.26c-0.04,0.01-0.09,0.02-0.13,0.03 c-0.26,0.06-0.52,0.11-0.79,0.15c-0.06,0.01-0.13,0.02-0.19,0.03c-0.32,0.04-0.64,0.08-0.96,0.09c-0.87,0.04-1.75-0.03-2.6-0.21 c-0.03-0.01-0.07-0.02-0.1-0.02c4.42-0.03,8.11-3.37,8.59-7.76c0.05-0.07,0.11-0.15,0.16-0.23c0.08-0.12,0.16-0.24,0.24-0.36 c0.03-0.04,0.06-0.08,0.08-0.12c0.01-0.02,0.02-0.04,0.03-0.06C45.82,22.49,46.4,19.97,46.13,17.46z M40.28,9.98 c4.82,2.99,6.32,9.31,3.36,14.15c-0.03,0.05-0.07,0.11-0.11,0.16c-0.11,0.17-0.23,0.34-0.35,0.51c-0.02,0.02-0.04,0.05-0.06,0.07 c-0.01,0.01-0.01,0.01-0.02,0.02c-0.2,0.27-0.42,0.53-0.65,0.77l-0.01,0.01c-0.21,0.22-0.42,0.43-0.65,0.64 c-0.03,0.03-0.07,0.06-0.1,0.1c-0.2,0.18-0.41,0.34-0.62,0.5c-0.05,0.04-0.1,0.08-0.15,0.12c-0.26,0.19-0.53,0.37-0.81,0.53 c-0.25,0.15-0.51,0.28-0.77,0.41c-0.55,0.26-1.12,0.48-1.71,0.64c1.35-0.72,2.48-1.78,3.28-3.08c1.44-2.34,1.7-5.23,0.69-7.79 v-0.04c0.04-0.24,0.06-0.48,0.08-0.71c0-0.03,0.01-0.06,0.01-0.09s0-0.05,0-0.08c0.18-2.51-0.49-5.01-1.89-7.09 C39.97,9.8,40.13,9.89,40.28,9.98L40.28,9.98z M30.62,5.8c0.18,0,0.36,0.01,0.54,0.02c5.66,0.4,9.93,5.29,9.57,10.95 c0,0.07-0.01,0.14-0.02,0.21c-0.02,0.2-0.04,0.4-0.07,0.6c0,0.03-0.01,0.06-0.02,0.09c0,0.01-0.01,0.02-0.01,0.03 c-0.06,0.33-0.13,0.66-0.21,0.99v0.01c-0.08,0.3-0.17,0.59-0.28,0.87c-0.02,0.04-0.03,0.09-0.05,0.13 c-0.1,0.25-0.2,0.49-0.32,0.74c-0.03,0.06-0.05,0.12-0.08,0.18c-0.14,0.29-0.3,0.57-0.47,0.84c-0.15,0.25-0.32,0.49-0.49,0.72 c-0.37,0.5-0.79,0.96-1.24,1.38c0.87-1.27,1.38-2.75,1.49-4.28c0.18-2.75-0.94-5.42-3.02-7.21C35.03,9.38,33.13,7.14,30.62,5.8 L30.62,5.8z M36.54,16.53c0.02-0.25,0.02-0.49,0.02-0.74c0-0.1,0-0.2,0-0.29c0-0.14-0.01-0.28-0.02-0.41s-0.02-0.26-0.03-0.4 c-0.01-0.07-0.02-0.14-0.02-0.21c-0.02-0.16-0.03-0.32-0.06-0.47c2.58,3.4,1.92,8.25-1.48,10.83c-0.84,0.64-1.8,1.1-2.83,1.35 c-0.91,0.15-1.83,0.18-2.75,0.08C33.45,24.68,36.24,20.88,36.54,16.53L36.54,16.53z M29.66,27.37c0.21,0.01,0.41,0.02,0.61,0.02 l0,0c0.06,0,0.12,0.01,0.18,0.01c4.84-0.01,9.14-3.11,10.68-7.69c0.69,4.21-2.17,8.18-6.38,8.87c-1.04,0.17-2.11,0.13-3.13-0.13 c-0.81-0.27-1.58-0.64-2.3-1.11C29.44,27.34,29.55,27.36,29.66,27.37L29.66,27.37z M28.91,28.35c0.18,0.11,0.36,0.21,0.54,0.31 c1.65,0.9,3.5,1.38,5.38,1.38c2.9,0,5.69-1.11,7.79-3.1c-1.36,4.04-5.74,6.21-9.79,4.85c-1-0.34-1.91-0.87-2.7-1.58 c-0.59-0.62-1.1-1.3-1.52-2.04C28.73,28.22,28.82,28.29,28.91,28.35L28.91,28.35z M37.54,34.43c1.03,0,2.06-0.14,3.05-0.42 c-3.07,2.94-7.95,2.84-10.89-0.24c-0.65-0.68-1.17-1.47-1.53-2.33l0,0c-0.05-0.11-0.1-0.22-0.15-0.33 c-0.24-0.83-0.37-1.68-0.39-2.54c0.05,0.1,0.1,0.2,0.16,0.3c0.1,0.17,0.21,0.34,0.32,0.5c0.05,0.08,0.11,0.15,0.16,0.23l0,0 C30.39,32.63,33.85,34.43,37.54,34.43L37.54,34.43z M27.4,32.56c0.02,0.04,0.03,0.08,0.05,0.12c1.43,3.4,4.44,5.88,8.04,6.64 c-4.11,1.16-8.38-1.22-9.54-5.33c-0.51-1.79-0.35-3.71,0.44-5.39c0.05-0.11,0.11-0.21,0.16-0.32c0,0.18,0,0.35,0.01,0.53 C26.63,30.1,26.91,31.36,27.4,32.56L27.4,32.56z M23.08,22.62c0.09-0.42,0.11-2.44-1.09-2.91c-0.7-0.25-1.47,0.11-1.72,0.81 c-0.07,0.2-0.09,0.4-0.07,0.61l0.02,0.17l-0.75-0.77c-1.14-1.94,1.34-2.82,1.34-2.82c0-3.02,5.5-0.1,8.61-1.45 c-0.1,1.22-3.22,1.57-3.22,1.57c0.59,0,2.14,0.35,2.87-0.21c0,0.81-0.01,1.5-2.3,1.58c1.39,1.33,1.6,4.98-0.12,7.07 c-2.26,3.04-2.84,7-1.54,10.55c0.2,0.54,0.44,1.06,0.72,1.56l-0.03,0.16l0,0l-0.21,1.09l0,0l-0.24,1.21l-0.09,0.49l0,0l-1.19,6.12 l-1.24-6.66l-0.21-1.15l0,0l-0.01-0.03l0,0l-0.06-0.31l-0.15-0.81l-0.59-3.19l0,0l-0.45-2.44c-0.54-2.14-0.49-4.38,0.12-6.49l0,0 c0.06-0.2,0.12-0.4,0.19-0.59c0.08-0.23,0.16-0.45,0.25-0.67c0.04-0.11,0.09-0.21,0.14-0.32c0.13-0.29,0.26-0.58,0.42-0.87 l0.59-1.16C23.06,22.7,23.07,22.66,23.08,22.62 M22,17.3c-0.36,0.2-0.28,0.47-0.28,0.47c0.35,0.16,2.17-0.19,2.22-0.57 C23.3,17.06,22.63,17.09,22,17.3L22,17.3z M21.04,36.6c-1.89,2.66-5.25,3.85-8.39,2.95c3.4-0.72,6.29-2.97,7.81-6.1L21.04,36.6z M20.08,31.42c-1.53,3.98-6,5.96-9.98,4.43c-0.95-0.37-1.82-0.91-2.55-1.61c4.69,1.32,9.71-0.51,12.43-4.56 C19.98,30.26,20.01,30.84,20.08,31.42z M19.51,28.39c-0.42,0.74-0.93,1.43-1.52,2.05c-3.17,2.85-8.06,2.59-10.91-0.59 c-0.7-0.78-1.23-1.69-1.57-2.69c2.11,1.99,4.89,3.1,7.79,3.1c1.88,0,3.73-0.48,5.38-1.38c0.18-0.1,0.36-0.2,0.54-0.31 C19.33,28.52,19.42,28.45,19.51,28.39L19.51,28.39z M16.51,28.67c-4.14,1.04-8.33-1.48-9.37-5.61c-0.26-1.02-0.3-2.08-0.13-3.12 c1.54,4.59,5.83,7.68,10.67,7.69c0.27,0,0.53-0.01,0.8-0.03c0.11-0.01,0.22-0.02,0.33-0.03C18.1,28.03,17.32,28.4,16.51,28.67 L16.51,28.67z M18.77,26.49c-0.92,0.1-1.84,0.07-2.76-0.08c-4.14-1.02-6.67-5.21-5.65-9.36c0.25-1.02,0.71-1.98,1.35-2.82 c-0.02,0.15-0.04,0.31-0.06,0.46c-0.01,0.07-0.02,0.15-0.03,0.22c-0.01,0.13-0.02,0.26-0.03,0.39s-0.01,0.28-0.02,0.42 c0,0.1-0.01,0.19-0.01,0.29c0,0.25,0.01,0.5,0.03,0.74C11.9,21.12,14.7,24.91,18.77,26.49L18.77,26.49z M16.98,6.05 c0.18-0.01,0.36-0.02,0.54-0.02c-2.5,1.34-4.4,3.58-5.32,6.26c-3.37,2.88-4.03,7.83-1.54,11.49c-0.45-0.42-0.87-0.88-1.24-1.38 c-0.17-0.23-0.34-0.47-0.49-0.72c-0.17-0.27-0.32-0.56-0.47-0.84c-0.03-0.06-0.05-0.12-0.08-0.18c-0.11-0.24-0.22-0.48-0.32-0.73 c-0.02-0.04-0.03-0.09-0.05-0.13c-0.1-0.28-0.2-0.57-0.28-0.86v-0.02c-0.09-0.32-0.16-0.65-0.21-0.98c0-0.01-0.01-0.02-0.01-0.02 c-0.01-0.03-0.01-0.06-0.02-0.09c-0.03-0.2-0.05-0.4-0.07-0.61c-0.01-0.07-0.02-0.13-0.02-0.2C7.06,11.34,11.33,6.45,16.98,6.05 L16.98,6.05z M7.86,10.21c0.15-0.09,0.3-0.18,0.46-0.27c-1.41,2.09-2.08,4.59-1.89,7.1c0,0.03,0,0.05,0,0.08s0.01,0.06,0.01,0.09 c0.02,0.25,0.05,0.49,0.09,0.73v0.02c-1.64,4.11,0.08,8.79,3.98,10.88c-0.59-0.16-1.17-0.37-1.72-0.64 c-0.26-0.13-0.52-0.26-0.77-0.41C8,27.79,7.99,27.77,7.97,27.77c-0.26-0.16-0.51-0.32-0.76-0.5c-0.05-0.04-0.1-0.08-0.16-0.12 c-0.21-0.16-0.42-0.32-0.62-0.5l-0.1-0.09c-0.22-0.2-0.44-0.42-0.65-0.64L5.68,25.9c-0.23-0.25-0.44-0.51-0.65-0.78 c-0.01-0.01-0.01-0.01-0.02-0.02s-0.03-0.04-0.04-0.05c-0.12-0.17-0.24-0.34-0.36-0.52c-0.04-0.06-0.08-0.11-0.11-0.17 C1.54,19.52,3.05,13.2,7.86,10.21L7.86,10.21z M1.74,18.15c0.09-0.15,0.18-0.3,0.28-0.46c-0.27,2.5,0.3,5.02,1.63,7.16 c0.02,0.02,0.03,0.05,0.04,0.07c0.03,0.05,0.07,0.1,0.1,0.15c0.07,0.11,0.14,0.22,0.22,0.33c0.05,0.08,0.11,0.16,0.16,0.24 c0.48,4.39,4.17,7.72,8.58,7.76c-0.03,0.01-0.07,0.02-0.1,0.03c-0.85,0.18-1.72,0.25-2.59,0.21c-0.32-0.01-0.64-0.05-0.96-0.09 c-0.06-0.01-0.12-0.02-0.19-0.03c-0.27-0.04-0.53-0.09-0.79-0.16C8.09,33.33,8.05,33.32,8,33.31c-0.3-0.08-0.59-0.16-0.88-0.26 l0,0c-0.32-0.11-0.63-0.24-0.94-0.39c-0.01,0-0.02-0.01-0.03-0.01L6.1,32.62c-0.19-0.09-0.38-0.19-0.56-0.29 c-0.06-0.03-0.12-0.07-0.18-0.1C0.49,29.33-1.13,23.04,1.74,18.15L1.74,18.15z M0.01,28.02c0.01-0.18,0.02-0.36,0.04-0.54 c0.92,2.34,2.61,4.3,4.78,5.57L4.9,33.1c0.05,0.03,0.1,0.05,0.15,0.08c0.12,0.07,0.24,0.13,0.36,0.2 c0.08,0.04,0.16,0.09,0.25,0.13c1.54,2.27,4.06,3.69,6.8,3.83c0.14,0.01,0.28,0.01,0.41,0.01c1.39,0,2.75-0.33,3.99-0.97 c-0.47,0.4-0.97,0.75-1.5,1.05c-0.25,0.14-0.51,0.28-0.77,0.4C14.3,37.97,14,38.09,13.7,38.2c-0.06,0.02-0.13,0.04-0.19,0.06 c-0.25,0.08-0.5,0.16-0.76,0.23c-0.05,0.01-0.09,0.02-0.14,0.03c-0.29,0.07-0.59,0.13-0.89,0.17H11.7c-0.33,0.05-0.67,0.08-1,0.1 c-0.01,0-0.02,0-0.03,0l-0.1,0.01c-0.2,0-0.39,0.01-0.59,0c-0.07,0-0.14,0-0.22,0C4.11,38.49-0.25,33.68,0.01,28.02z M16.79,42.53 c-5.16,2.41-11.29,0.19-13.71-4.96c-0.08-0.16-0.15-0.33-0.22-0.49c1.91,1.64,4.32,2.59,6.84,2.71h0.07c0.1,0,0.2,0,0.29,0.01 c0.07,0,0.14,0,0.2,0h0.04c0.1,0,0.21-0.01,0.31-0.01c1.27,0.68,2.69,1.04,4.13,1.04c2.5,0.01,4.88-1.07,6.52-2.95l0.08,0.43 C20.31,40.14,18.72,41.62,16.79,42.53L16.79,42.53z M17.78,45.59c0.77-2.81,2.05-3.83,3.95-5.31l0.16,0.86l-2.59,5.49 C18.84,46.22,18.33,45.87,17.78,45.59L17.78,45.59z M19.81,47.09l0.29,0.14l2.09-4.43l1.34,7.18c-1.16-0.53-2.19-1.29-3.03-2.24 C20.27,47.52,20.04,47.3,19.81,47.09L19.81,47.09z M27.64,47.74c-0.85,0.97-1.9,1.74-3.08,2.26l1.4-7.18l2.08,4.41l0.29-0.14 C28.1,47.3,27.87,47.52,27.64,47.74L27.64,47.74z M28.84,46.63l-2.57-5.44l0.17-0.88c1.88,1.46,3.15,2.5,3.91,5.29 C29.81,45.87,29.3,46.22,28.84,46.63L28.84,46.63z M45.05,37.33c-2.42,5.15-8.55,7.37-13.7,4.96c-1.88-0.88-3.45-2.31-4.49-4.1 c-0.28-0.47-0.51-0.96-0.71-1.46c-0.02-0.04-0.04-0.08-0.05-0.12c1.59,2.48,4.34,3.98,7.29,3.97c1.44,0,2.86-0.36,4.13-1.04 c0.1,0,0.21,0.01,0.31,0.01h0.04c0.08,0,0.16,0,0.23-0.01s0.18,0,0.27-0.01h0.06c2.52-0.11,4.93-1.06,6.84-2.71 C45.21,37.01,45.13,37.17,45.05,37.33L45.05,37.33z M38.37,38.57c-0.07,0-0.14,0-0.21,0c-0.2,0.01-0.4,0-0.6,0 c-0.03,0-0.06,0-0.09-0.01c-0.01,0-0.02,0-0.03,0c-0.34-0.02-0.67-0.05-1-0.1h-0.02c-0.3-0.04-0.6-0.1-0.89-0.17 c-0.05-0.01-0.09-0.02-0.14-0.03c-0.26-0.06-0.51-0.14-0.76-0.23c-0.06-0.02-0.13-0.04-0.19-0.06c-0.3-0.11-0.6-0.23-0.89-0.36 c-0.27-0.12-0.52-0.26-0.77-0.4c-0.53-0.31-1.03-0.66-1.5-1.05c1.23,0.64,2.6,0.97,3.99,0.97c0.14,0,0.28,0,0.41-0.01 c2.74-0.14,5.26-1.56,6.8-3.83c0.08-0.04,0.16-0.08,0.24-0.13c0.13-0.07,0.25-0.13,0.38-0.21c0.04-0.03,0.09-0.05,0.14-0.07 c0.01-0.01,0.03-0.02,0.04-0.03c2.18-1.27,3.88-3.24,4.81-5.59c0.02,0.18,0.03,0.36,0.04,0.53 C48.38,33.46,44.03,38.26,38.37,38.57L38.37,38.57z"></path>
            <path fill="#D32527" d="M23.96,0c0.89,1.84,0.7,3.49-1.44,5.8l-0.47-1.62c-1,0.93-1.66,2.16-1.89,3.5 c0,0.02,0,0.03-0.01,0.05c-0.01,0.12-0.02,0.25-0.02,0.38v0.06c0,1.46,0.84,2.8,2.15,3.43c-1.63-3.75,1.66-4.86,1.66-4.86 c-2.29,2.88,0.79,5.01,1.74,2.18c0,0,0.31,2.16-0.08,2.68c1.32-0.64,2.15-1.97,2.15-3.43C27.68,5.04,26.3,2.08,23.96,0z"></path>
        </g>
        <g transform="translate(601.704 155.846)">
            <g transform="translate(0)">
                <path fill="#D32527" d="M15.47,9.93c-6.95,0-11.63-0.38-13.3-0.95C0.74,8.48-0.16,7.05,0,5.54 C-0.09,3.59,1.2,1.85,3.08,1.36C5.16,0.6,8.5,0,14.11,0c4.52,0.02,9.04,0.43,13.49,1.24l-0.53,3.22 c-4.28-0.73-8.62-1.1-12.97-1.12c-4.28,0-6.95,0.24-8.38,0.69C4.85,4.32,4.59,4.7,4.59,5.33c0,0.57,0.29,0.96,1.12,1.15 c2.55,0.26,5.12,0.35,7.69,0.26c3.44,0,9.22,0.02,12.3,0.76c2.43,0.57,3.25,1.96,3.25,3.77c0,2.08-0.6,3.32-2.29,4.13 c-2.2,1.05-6.95,1.5-11.58,1.5c-4.93,0.04-9.85-0.39-14.69-1.31l0.45-3.2c4.71,0.75,9.46,1.14,14.23,1.17 c4.32,0,6.71-0.22,8.19-0.69c0.69-0.13,1.16-0.76,1.1-1.46c0-0.62-0.29-1.07-1.41-1.24C20.46,9.95,17.97,9.87,15.47,9.93z"></path>
                <path fill="#D32527" d="M41.91,2.29C44.21,0.95,48.21,0,53.76,0s9.55,0.96,11.84,2.29c2.1,1.22,3.32,3.01,3.32,6.16 c0,3.2-1.17,4.92-3.32,6.16c-2.29,1.34-6.28,2.29-11.84,2.29s-9.55-0.96-11.84-2.29c-2.17-1.24-3.32-2.96-3.32-6.16 C38.6,5.3,39.81,3.51,41.91,2.29z M45.28,11.99c1.53,0.79,4.78,1.22,8.48,1.22s6.92-0.43,8.48-1.22c1.37-0.62,2.21-2.03,2.1-3.53 c0.1-1.48-0.72-2.87-2.08-3.49c-1.53-0.79-4.73-1.27-8.5-1.27s-6.97,0.48-8.5,1.27c-1.35,0.61-2.18,2-2.08,3.49 C43.07,9.96,43.91,11.37,45.28,11.99L45.28,11.99z"></path>
                <path fill="#D32527" d="M84.02,12.87h18.94v3.7H79.48V0.33h4.54V12.87z"></path>
                <path fill="#D32527" d="M135.41,13.59H119.7l-2.7,2.99h-5.54v-0.21l14.47-16.02h3.25l14.47,16.02v0.21h-5.54 L135.41,13.59z M122.35,10.65h10.43l-2.32-2.58c-1.39-1.53-2.86-3.34-2.86-3.34h-0.1c0,0-1.43,1.81-2.82,3.34L122.35,10.65z"></path>
                <path fill="#D32527" d="M167.92,9.93c-6.95,0-11.63-0.38-13.3-0.95c-1.44-0.5-2.34-1.93-2.17-3.44 c-0.09-1.95,1.19-3.69,3.08-4.18C157.6,0.6,160.94,0,166.56,0c4.52,0.02,9.04,0.43,13.49,1.24l-0.53,3.22 c-4.28-0.73-8.62-1.1-12.97-1.12c-4.28,0-6.95,0.24-8.38,0.69c-0.88,0.29-1.15,0.67-1.15,1.29c0,0.57,0.29,0.96,1.12,1.15 c2.55,0.26,5.12,0.35,7.69,0.26c3.44,0,9.22,0.02,12.3,0.76c2.43,0.57,3.25,1.96,3.25,3.77c0,2.08-0.6,3.32-2.29,4.13 c-2.2,1.05-6.95,1.5-11.58,1.5c-4.93,0.04-9.85-0.4-14.69-1.31l0.45-3.2c4.71,0.75,9.46,1.14,14.23,1.17 c4.32,0,6.71-0.22,8.19-0.69c0.69-0.13,1.16-0.76,1.1-1.46c0-0.62-0.29-1.07-1.41-1.24C172.91,9.95,170.41,9.87,167.92,9.93z"></path>
            </g>
            <g transform="translate(190.082 0.334)">
                <path class="svg-logo__ai" fill="#112635" d="M23.95,13.25H8.24l-2.7,2.99H0v-0.21L14.47,0h3.25l14.47,16.02v0.21h-5.54L23.95,13.25z M10.89,10.32h10.43l-2.32-2.58c-1.39-1.53-2.87-3.34-2.87-3.34h-0.1c0,0-1.43,1.82-2.82,3.34L10.89,10.32z"></path>
                <path class="svg-logo__ai" fill="#112635" d="M40.44,16.24H35.9V0h4.54V16.24z"></path>
            </g>
        </g>
    </g>
</svg>