<?xml version="1.0" encoding="UTF-8" standalone="no"?>
<!-- Created with Inkscape (http://www.inkscape.org/) -->

<svg
   width="190"
   height="100"
   viewBox="0 0 50.270831 26.458334"
   version="1.1"
   id="svg5"
   inkscape:version="1.1.2 (0a00cf5339, 2022-02-04)"
   sodipodi:docname="synodal-logo.svg"
   inkscape:export-filename="/home/luc/work/ss/docs/dl/logo.png"
   inkscape:export-xdpi="96"
   inkscape:export-ydpi="96"
   xmlns:inkscape="http://www.inkscape.org/namespaces/inkscape"
   xmlns:sodipodi="http://sodipodi.sourceforge.net/DTD/sodipodi-0.dtd"
   xmlns="http://www.w3.org/2000/svg"
   xmlns:svg="http://www.w3.org/2000/svg"
   xmlns:rdf="http://www.w3.org/1999/02/22-rdf-syntax-ns#"
   xmlns:cc="http://creativecommons.org/ns#">
  <sodipodi:namedview
     id="namedview7"
     pagecolor="#ffffff"
     bordercolor="#666666"
     borderopacity="1.0"
     inkscape:pageshadow="2"
     inkscape:pageopacity="0.0"
     inkscape:pagecheckerboard="0"
     inkscape:document-units="px"
     showgrid="false"
     units="px"
     width="200px"
     inkscape:zoom="4.2675"
     inkscape:cx="139.30873"
     inkscape:cy="56.590509"
     inkscape:window-width="1850"
     inkscape:window-height="1009"
     inkscape:window-x="0"
     inkscape:window-y="0"
     inkscape:window-maximized="1"
     inkscape:current-layer="layer1" />
  <defs
     id="defs2">
    <rect
       x="100.23624"
       y="8.9702263"
       width="93.501617"
       height="78.755981"
       id="rect20449" />
    <marker
       inkscape:stockid="DistanceStart"
       orient="auto"
       refY="0"
       refX="0"
       id="DistanceStart"
       style="overflow:visible"
       inkscape:isstock="true">
      <g
         id="g2300">
        <path
           id="path2306"
           d="M 0,0 H 2"
           style="fill:none;stroke:context-fill;stroke-width:1.15;stroke-linecap:square" />
        <path
           id="path2302"
           d="M 0,0 13,4 9,0 13,-4 Z"
           style="fill:context-stroke;fill-rule:evenodd;stroke:none" />
        <path
           id="path2304"
           d="M 0,-4 V 40"
           style="fill:none;stroke:context-stroke;stroke-width:1;stroke-linecap:square" />
      </g>
    </marker>
    <linearGradient
       id="linearGradient4676"
       inkscape:swatch="gradient">
      <stop
         style="stop-color:#000000;stop-opacity:1;"
         offset="0"
         id="stop4672" />
      <stop
         style="stop-color:#000000;stop-opacity:0;"
         offset="1"
         id="stop4674" />
    </linearGradient>
  </defs>
  <g
     inkscape:groupmode="layer"
     id="layer2"
     inkscape:label="Layer 2"
     style="display:inline">
    <ellipse
       style="fill:#ffffff;fill-rule:evenodd;stroke-width:0.264583"
       id="path3643"
       cx="17.526947"
       cy="8.4456768"
       rx="2.6463661"
       ry="2.6029541" />
    <path
       style="fill:#b3b3b3;stroke:#000000;stroke-width:0.00234329;stroke-linejoin:round;stroke-miterlimit:4;stroke-dasharray:0, 0.0257762;stroke-dashoffset:0.0234329;stroke-opacity:1"
       d="m 76.129216,33.714118 c 0.231897,-1.10057 0.130907,-3.315131 -0.20437,-4.481546 -0.774688,-2.695099 -2.840975,-5.073883 -5.457385,-6.282739 -2.635945,-1.217881 -6.12884,-1.165351 -8.72989,0.13129 -2.686411,1.339195 -4.586157,3.700165 -5.268995,6.548213 -0.242733,1.012417 -0.312672,3.263945 -0.126288,4.065502 l 0.09768,0.420085 -14.482435,0.07781 c -7.965338,0.0428 -18.44992,0.07783 -23.299071,0.07786 l -8.8166372,5.2e-5 V 23.022847 11.775044 H 48.271822 86.701816 v 11.287524 11.287525 l -3.358253,0.07744 c -1.847039,0.04259 -4.263368,0.07744 -5.369619,0.07744 h -2.011366 z"
       id="path4153"
       transform="scale(0.26458333)" />
    <path
       style="fill:#b3b3b3;stroke:#000000;stroke-width:0.00234329;stroke-linejoin:round;stroke-miterlimit:4;stroke-dasharray:0, 0.0257762;stroke-dashoffset:0.0234329;stroke-opacity:1"
       d="m 76.475265,34.526963 -0.443306,-0.0366 0.09181,-0.432059 c 0.05049,-0.237634 0.09033,-1.249283 0.08852,-2.248112 -0.0028,-1.563484 -0.04108,-1.93785 -0.274992,-2.691831 -0.847165,-2.730663 -2.893109,-5.056047 -5.480774,-6.229351 -2.579067,-1.169404 -6.229517,-1.112559 -8.719909,0.135788 -2.785596,1.396323 -4.862298,4.053385 -5.374136,6.876007 -0.136781,0.754294 -0.182683,3.61054 -0.06304,3.922334 0.06396,0.166677 -0.560197,0.191973 -6.292312,0.255016 -3.499823,0.03849 -13.968763,0.09638 -23.26431,0.12865 L 9.8418278,34.26547 V 23.020257 11.775044 H 48.271822 86.701816 v 11.230132 11.230132 l -1.142355,0.07565 c -0.628295,0.04161 -2.434095,0.07967 -4.012888,0.08459 -1.578793,0.0049 -3.265964,0.04473 -3.749268,0.08848 -0.483304,0.04374 -1.078222,0.06307 -1.32204,0.04294 z"
       id="path4192"
       transform="scale(0.26458333)" />
  </g>
  <g
     inkscape:label="Layer 1"
     inkscape:groupmode="layer"
     id="layer1"
     style="display:inline">
    <path
       style="fill:none;stroke:#000000;stroke-width:0.132292;stroke-linecap:butt;stroke-linejoin:miter;stroke-miterlimit:4;stroke-dasharray:none;stroke-opacity:1"
       d="M 17.177709,9.1215315 C 9.6064837,11.408423 3.0363945,13.480597 8.1043985,13.757567 c 3.2436615,0.382438 8.6637955,-0.03295 9.7309845,1.147315 0.991145,2.072723 -9.9342205,4.144865 -15.3084197,7.786605"
       id="path410"
       sodipodi:nodetypes="cccc" />
    <path
       style="fill:none;stroke:#000000;stroke-width:0.132292;stroke-linecap:butt;stroke-linejoin:miter;stroke-miterlimit:4;stroke-dasharray:none;stroke-opacity:1"
       d="m 19.13998,9.2346362 c -7.321797,2.2582068 -10.4934039,3.5971728 -6.208446,3.5413158 7.000177,0.211893 9.844465,0.61411 9.901361,2.181328 -0.0029,2.535177 -4.812979,4.099665 -10.187178,7.741405"
       id="path410-6"
       sodipodi:nodetypes="cccc" />
    <rect
       style="display:inline;fill:none;fill-opacity:1;fill-rule:evenodd;stroke:#000000;stroke-width:0.132292;stroke-linecap:butt;stroke-linejoin:round;stroke-miterlimit:4;stroke-dasharray:none;stroke-opacity:1;paint-order:normal"
       id="rect3751"
       width="20.495895"
       height="19.646467"
       x="2.5269632"
       y="3.0450201" />
    <path
       style="fill:#000000;fill-opacity:1;stroke:#000000;stroke-width:0.162382;stroke-linecap:butt;stroke-linejoin:round;stroke-miterlimit:4;stroke-dasharray:none;stroke-opacity:1;paint-order:normal"
       d=""
       id="path6577"
       transform="scale(0.26458333)" />
    <path
       style="fill:#000000;fill-opacity:1;stroke:#000000;stroke-width:0.162382;stroke-linecap:butt;stroke-linejoin:round;stroke-miterlimit:4;stroke-dasharray:none;stroke-opacity:1;paint-order:normal"
       d=""
       id="path6616"
       transform="scale(0.26458333)" />
    <path
       style="fill:#000000;fill-opacity:1;stroke:#000000;stroke-width:0.162382;stroke-linecap:butt;stroke-linejoin:round;stroke-miterlimit:4;stroke-dasharray:none;stroke-opacity:1;paint-order:normal"
       d=""
       id="path6655"
       transform="scale(0.26458333)" />
    <text
       xml:space="preserve"
       transform="matrix(0.26458333,0,0,0.26458333,-1.8624552,1.3399301)"
       id="text20447"
       style="font-style:normal;font-weight:normal;font-size:13.3333px;line-height:0;font-family:sans-serif;white-space:pre;shape-inside:url(#rect20449);fill:#000000;fill-opacity:1;stroke:none"
       inkscape:export-filename="/home/luc/work/ss/docs/dl/text20447.png"
       inkscape:export-xdpi="96"
       inkscape:export-ydpi="96"><tspan
         x="100.23633"
         y="20.980732"
         id="tspan936"><tspan
           style="font-weight:bold;-inkscape-font-specification:'sans-serif Bold'"
           id="tspan932">synodalsoft</tspan><tspan
           style="font-weight:bold;line-height:1.25;font-family:'Liberation Sans';-inkscape-font-specification:'Liberation Sans, Normal'"
           id="tspan934">
</tspan></tspan><tspan
         x="100.23633"
         y="37.647356"
         id="tspan940"><tspan
           style="font-weight:bold;line-height:1.25;font-family:'Liberation Sans';-inkscape-font-specification:'Liberation Sans, Normal'"
           id="tspan938">
</tspan></tspan><tspan
         x="100.23633"
         y="50.408144"
         id="tspan944"><tspan
           style="font-size:10.6667px;line-height:1;-inkscape-font-specification:sans-serif"
           id="tspan942">make software
</tspan></tspan><tspan
         x="100.23633"
         y="61.074842"
         id="tspan950"><tspan
           style="font-size:10.6667px;line-height:1;-inkscape-font-specification:sans-serif"
           id="tspan946">together</tspan><tspan
           style="font-size:10.6667px;line-height:1;-inkscape-font-specification:sans-serif"
           id="tspan948">
</tspan></tspan><tspan
         x="100.23633"
         y="71.741544"
         id="tspan954"><tspan
           style="font-size:10.6667px;line-height:1;-inkscape-font-specification:sans-serif"
           id="tspan952">step by step</tspan></tspan></text>
    <path
       style="fill:none;stroke:#000000;stroke-width:0.132292;stroke-linecap:butt;stroke-linejoin:miter;stroke-miterlimit:4;stroke-dasharray:none;stroke-opacity:1"
       d="M 17.177709,9.1215315 2.5266424,9.1434516"
       id="path8706"
       sodipodi:nodetypes="cc" />
    <path
       style="fill:#000000;stroke:#000000;stroke-width:0.132292;stroke-linecap:butt;stroke-linejoin:miter;stroke-miterlimit:4;stroke-dasharray:none;stroke-opacity:1"
       d="m 19.13998,9.2346361 3.870977,-0.058904"
       id="path8708"
       sodipodi:nodetypes="cc" />
    <path
       style="fill:#ffffff;stroke:#000000;stroke-width:0.000828479;stroke-linejoin:round;stroke-miterlimit:4;stroke-dasharray:0, 0.00911327;stroke-dashoffset:0.00828479;stroke-opacity:1"
       d=""
       id="path1886"
       transform="scale(0.26458333)" />
    <path
       style="fill:#ffffff;stroke:#000000;stroke-width:0.000828479;stroke-linejoin:round;stroke-miterlimit:4;stroke-dasharray:0, 0.00911327;stroke-dashoffset:0.00828479;stroke-opacity:1"
       d=""
       id="path2003"
       transform="scale(0.26458333)" />
    <path
       style="fill:#b3b3b3;stroke:#000000;stroke-width:0.000414239;stroke-linejoin:round;stroke-miterlimit:4;stroke-dasharray:0, 0.00455663;stroke-dashoffset:0.00414239;stroke-opacity:1"
       d=""
       id="path2348"
       transform="scale(0.26458333)" />
    <path
       style="fill:#b3b3b3;stroke:#000000;stroke-width:0.000414239;stroke-linejoin:round;stroke-miterlimit:4;stroke-dasharray:0, 0.00455663;stroke-dashoffset:0.00414239;stroke-opacity:1"
       d=""
       id="path2426"
       transform="scale(0.26458333)" />
    <path
       style="fill:#b3b3b3;stroke:#000000;stroke-width:0.000414239;stroke-linejoin:round;stroke-miterlimit:4;stroke-dasharray:0, 0.00455663;stroke-dashoffset:0.00414239;stroke-opacity:1"
       d=""
       id="path2504"
       transform="scale(0.26458333)" />
    <path
       style="fill:#b3b3b3;stroke:#000000;stroke-width:0.000414239;stroke-linejoin:round;stroke-miterlimit:4;stroke-dasharray:0, 0.00455663;stroke-dashoffset:0.00414239;stroke-opacity:1"
       d=""
       id="path2543"
       transform="scale(0.26458333)" />
    <path
       style="fill:#b3b3b3;stroke:#000000;stroke-width:0.000414239;stroke-linejoin:round;stroke-miterlimit:4;stroke-dasharray:0, 0.00455663;stroke-dashoffset:0.00414239;stroke-opacity:1"
       d=""
       id="path2582"
       transform="scale(0.26458333)" />
    <path
       style="fill:#b3b3b3;stroke:#000000;stroke-width:0.00020712;stroke-linejoin:round;stroke-miterlimit:4;stroke-dasharray:0, 0.00227832;stroke-dashoffset:0.0020712;stroke-opacity:1"
       d=""
       id="path2621"
       transform="scale(0.26458333)" />
    <path
       style="fill:#b3b3b3;stroke:#000000;stroke-width:0.00020712;stroke-linejoin:round;stroke-miterlimit:4;stroke-dasharray:0, 0.00227832;stroke-dashoffset:0.0020712;stroke-opacity:1"
       d=""
       id="path2660"
       transform="scale(0.26458333)" />
    <path
       style="fill:#000000;stroke:#000000;stroke-width:0.00234329;stroke-linejoin:round;stroke-miterlimit:4;stroke-dasharray:0, 0.0257762;stroke-dashoffset:0.0234329;stroke-opacity:1"
       d="M 9.8418278,59.988284 V 34.856473 l 19.0099592,-1e-4 c 10.455477,-5.6e-5 22.3843,-0.02792 26.508494,-0.06193 l 7.498536,-0.06183 -2.870533,0.889609 c -14.42234,4.469637 -20.669218,6.503763 -25.530362,8.31327 -6.244377,2.3244 -9.613859,4.029972 -10.602003,5.366547 -0.336273,0.454845 -0.322285,1.155744 0.03056,1.531332 0.602946,0.641808 2.402569,1.113443 5.170343,1.355017 6.609266,0.57686 7.869403,0.648854 15.524312,0.886932 10.648719,0.331192 14.393415,0.62783 17.984768,1.424678 2.738974,0.607722 4.442886,1.478397 4.69013,2.39659 0.436156,1.619759 -1.45078,3.488688 -5.788067,5.732828 -3.487411,1.804412 -6.801509,3.157566 -18.351389,7.492922 -10.993799,4.126627 -15.25615,5.836121 -20.764612,8.328029 -4.099422,1.854488 -8.873553,4.376699 -11.430398,6.038767 -0.533852,0.347029 -0.9951878,0.630961 -1.0251906,0.630961 -0.030003,0 -0.054551,-11.309315 -0.054551,-25.13181 z"
       id="path4541"
       transform="scale(0.26458333)" />
    <path
       style="fill:#000000;stroke:#000000;stroke-width:0.00234329;stroke-linejoin:round;stroke-miterlimit:4;stroke-dasharray:0, 0.0257762;stroke-dashoffset:0.0234329;stroke-opacity:1"
       d="M 49.191355,85.260404 C 51.240044,83.779384 58.45752,79.39211 65.905097,75.100651 75.956295,69.308929 78.667262,67.570606 81.735564,64.94985 84.927426,62.223559 86.574932,59.415647 86.582618,56.688821 86.595209,52.221091 81.258322,50.036544 67.603984,48.9203 62.519965,48.504681 55.955557,48.182337 48.388987,47.976752 43.678692,47.848773 42.663542,47.72246 42.03858,47.186585 c -0.182312,-0.156324 -0.183662,-0.194673 -0.01586,-0.450767 0.231938,-0.353983 1.458239,-1.1676 2.682677,-1.779884 3.778369,-1.889386 12.558389,-5.020769 24.657463,-8.794053 l 2.989102,-0.932198 4.275104,-0.07021 c 2.351307,-0.03862 5.580025,-0.100595 7.174928,-0.137735 l 2.899824,-0.06753 V 60.2129 85.471588 l -18.892794,-0.0061 C 50.007421,85.459688 48.93212,85.447858 49.191357,85.26045 Z"
       id="path4580"
       transform="scale(0.26458333)" />
  </g>
  <metadata
     id="metadata9">
    <rdf:RDF>
      <cc:License
         rdf:about="http://creativecommons.org/licenses/by-sa/4.0/">
        <cc:permits
           rdf:resource="http://creativecommons.org/ns#Reproduction" />
        <cc:permits
           rdf:resource="http://creativecommons.org/ns#Distribution" />
        <cc:requires
           rdf:resource="http://creativecommons.org/ns#Notice" />
        <cc:requires
           rdf:resource="http://creativecommons.org/ns#Attribution" />
        <cc:permits
           rdf:resource="http://creativecommons.org/ns#DerivativeWorks" />
        <cc:requires
           rdf:resource="http://creativecommons.org/ns#ShareAlike" />
      </cc:License>
      <cc:Work
         rdf:about="">
        <cc:license
           rdf:resource="http://creativecommons.org/licenses/by-sa/4.0/" />
      </cc:Work>
    </rdf:RDF>
  </metadata>
</svg>
