<?xml version="1.0" encoding="UTF-8" standalone="no"?>
<!-- Created with Inkscape (http://www.inkscape.org/) -->

<svg
   width="190"
   height="100"
   viewBox="0 0 50.270831 26.458335"
   version="1.1"
   id="svg5"
   inkscape:version="1.1.2 (0a00cf5339, 2022-02-04)"
   sodipodi:docname="synodal-logo-2.svg"
   inkscape:export-filename="/home/luc/work/lino/lino/sphinxcontrib/logo/static/synodal-logo.png"
   inkscape:export-xdpi="96"
   inkscape:export-ydpi="96"
   xmlns:inkscape="http://www.inkscape.org/namespaces/inkscape"
   xmlns:sodipodi="http://sodipodi.sourceforge.net/DTD/sodipodi-0.dtd"
   xmlns="http://www.w3.org/2000/svg"
   xmlns:svg="http://www.w3.org/2000/svg"
   xmlns:rdf="http://www.w3.org/1999/02/22-rdf-syntax-ns#"
   xmlns:cc="http://creativecommons.org/ns#">
  <sodipodi:namedview
     id="namedview7"
     pagecolor="#ffffff"
     bordercolor="#666666"
     borderopacity="1.0"
     inkscape:pageshadow="2"
     inkscape:pageopacity="0.0"
     inkscape:pagecheckerboard="0"
     inkscape:document-units="px"
     showgrid="false"
     units="px"
     width="200px"
     inkscape:zoom="2.13375"
     inkscape:cx="74.516696"
     inkscape:cy="56.473345"
     inkscape:window-width="1850"
     inkscape:window-height="1009"
     inkscape:window-x="0"
     inkscape:window-y="0"
     inkscape:window-maximized="1"
     inkscape:current-layer="layer1" />
  <defs
     id="defs2">
    <rect
       x="5.4737844"
       y="9.5040646"
       width="77.971222"
       height="23.552834"
       id="rect46198" />
    <rect
       x="10.49081"
       y="11.00432"
       width="80.654106"
       height="20.45804"
       id="rect37174" />
    <rect
       x="100.23624"
       y="8.9702263"
       width="93.501617"
       height="78.755981"
       id="rect20449" />
    <marker
       inkscape:stockid="DistanceStart"
       orient="auto"
       refY="0"
       refX="0"
       id="DistanceStart"
       style="overflow:visible"
       inkscape:isstock="true">
      <g
         id="g2300">
        <path
           id="path2306"
           d="M 0,0 H 2"
           style="fill:none;stroke:context-fill;stroke-width:1.15;stroke-linecap:square" />
        <path
           id="path2302"
           d="M 0,0 13,4 9,0 13,-4 Z"
           style="fill:context-stroke;fill-rule:evenodd;stroke:none" />
        <path
           id="path2304"
           d="M 0,-4 V 40"
           style="fill:none;stroke:context-stroke;stroke-width:1;stroke-linecap:square" />
      </g>
    </marker>
    <linearGradient
       id="linearGradient4676"
       inkscape:swatch="gradient">
      <stop
         style="stop-color:#000000;stop-opacity:1;"
         offset="0"
         id="stop4672" />
      <stop
         style="stop-color:#000000;stop-opacity:0;"
         offset="1"
         id="stop4674" />
    </linearGradient>
  </defs>
  <g
     inkscape:groupmode="layer"
     id="layer2"
     inkscape:label="Layer 2"
     style="display:inline">
    <ellipse
       style="fill:#ffffff;fill-rule:evenodd;stroke-width:0.29171"
       id="path3643"
       cx="43.102154"
       cy="9.9617214"
       rx="2.917695"
       ry="2.8698318" />
    <path
       style="fill:#b3b3b3;stroke:#000000;stroke-width:0.000683564;stroke-linejoin:round;stroke-miterlimit:4;stroke-dasharray:0, 0.0075192;stroke-dashoffset:0.00683564;stroke-opacity:1"
       d="m 45.985893,10.484889 c 0.06765,-0.321047 0.03819,-0.9670572 -0.05962,-1.3073152 C 45.700292,8.391387 45.097534,7.6974689 44.334298,7.3448332 43.565365,6.9895648 42.54645,7.004887 41.787696,7.3831357 41.004042,7.7737919 40.449865,8.4625114 40.250673,9.293319 c -0.07083,0.2953316 -0.0912,0.952127 -0.03684,1.185949 l 0.02849,0.12254 -4.224683,0.02271 c -2.323575,0.01253 -5.38204,0.02271 -6.796589,0.02271 l -2.571909,1.6e-5 V 7.3661458 4.0850403 h 11.210454 11.210442 v 3.2926903 3.2926934 l -0.979639,0.02259 c -0.538801,0.01241 -1.243671,0.02259 -1.566376,0.02259 h -0.586739 z"
       id="path4153" />
    <path
       style="fill:#b3b3b3;stroke:#000000;stroke-width:0.000683564;stroke-linejoin:round;stroke-miterlimit:4;stroke-dasharray:0, 0.0075192;stroke-dashoffset:0.00683564;stroke-opacity:1"
       d="m 46.086841,10.722007 -0.129326,-0.01064 0.02677,-0.126041 c 0.01467,-0.06931 0.02634,-0.364428 0.02583,-0.6557974 -8.16e-4,-0.4560835 -0.012,-0.5652903 -0.08022,-0.7852342 C 45.682777,8.34773 45.085953,7.6693903 44.331101,7.3271257 43.578762,6.985998 42.513886,7.0025797 41.787409,7.3667273 c -0.812585,0.407322 -1.418383,1.1824164 -1.56769,2.0058035 -0.0399,0.2200355 -0.05328,1.0532352 -0.0184,1.1441902 0.01866,0.04863 -0.163413,0.05599 -1.835537,0.07442 -1.020936,0.01126 -4.074838,0.0281 -6.786449,0.03752 l -4.9302,0.01704 V 7.3652414 4.0848943 h 11.210454 11.210444 v 3.275949 3.2759507 l -0.333239,0.02206 c -0.183282,0.01225 -0.710052,0.02325 -1.170603,0.02468 -0.46055,0.0015 -0.952717,0.0132 -1.093703,0.02581 -0.140995,0.01266 -0.314526,0.0184 -0.385652,0.01253 z"
       id="path4192" />
  </g>
  <g
     inkscape:label="Layer 1"
     inkscape:groupmode="layer"
     id="layer1"
     style="display:inline">
    <path
       style="fill:none;stroke:#000000;stroke-width:0.145856;stroke-linecap:butt;stroke-linejoin:miter;stroke-miterlimit:4;stroke-dasharray:none;stroke-opacity:1"
       d="m 42.717103,10.706873 c -8.347494,2.521361 -15.591207,4.805994 -10.003585,5.111362 3.576228,0.421648 9.552084,-0.03632 10.728688,1.264947 1.092768,2.285236 -10.952763,4.569832 -16.877972,8.584956"
       id="path410"
       sodipodi:nodetypes="cccc" />
    <path
       style="fill:none;stroke:#000000;stroke-width:0.145856;stroke-linecap:butt;stroke-linejoin:miter;stroke-miterlimit:4;stroke-dasharray:none;stroke-opacity:1"
       d="m 44.880564,10.831572 c -8.072492,2.48974 -11.569282,3.965986 -6.844991,3.904404 7.717895,0.233619 10.853806,0.677073 10.916535,2.404977 -0.0032,2.795104 -5.306445,4.519996 -11.231657,8.53512"
       id="path410-6"
       sodipodi:nodetypes="cccc" />
    <rect
       style="display:inline;fill:none;fill-opacity:1;fill-rule:evenodd;stroke:#000000;stroke-width:0.145856;stroke-linecap:butt;stroke-linejoin:round;stroke-miterlimit:4;stroke-dasharray:none;stroke-opacity:1;paint-order:normal"
       id="rect3751"
       width="22.597315"
       height="21.660797"
       x="26.564234"
       y="4.0073481" />
    <path
       style="fill:#000000;fill-opacity:1;stroke:#000000;stroke-width:0.162382;stroke-linecap:butt;stroke-linejoin:round;stroke-miterlimit:4;stroke-dasharray:none;stroke-opacity:1;paint-order:normal"
       d=""
       id="path6577"
       transform="scale(0.26458333)" />
    <path
       style="fill:#000000;fill-opacity:1;stroke:#000000;stroke-width:0.162382;stroke-linecap:butt;stroke-linejoin:round;stroke-miterlimit:4;stroke-dasharray:none;stroke-opacity:1;paint-order:normal"
       d=""
       id="path6616"
       transform="scale(0.26458333)" />
    <path
       style="fill:#000000;fill-opacity:1;stroke:#000000;stroke-width:0.162382;stroke-linecap:butt;stroke-linejoin:round;stroke-miterlimit:4;stroke-dasharray:none;stroke-opacity:1;paint-order:normal"
       d=""
       id="path6655"
       transform="scale(0.26458333)" />
    <text
       xml:space="preserve"
       transform="matrix(0.29832152,0,0,0.31949129,-28.534748,7.9917486)"
       id="text20447"
       style="font-style:normal;font-weight:normal;font-size:13.3333px;line-height:0;font-family:sans-serif;white-space:pre;shape-inside:url(#rect20449);fill:#000000;fill-opacity:1;stroke:none"
       inkscape:export-filename="/home/luc/work/ss/docs/dl/text20447.png"
       inkscape:export-xdpi="96"
       inkscape:export-ydpi="96"><tspan
         x="100.23633"
         y="17.935011"
         id="tspan124"><tspan
           style="font-size:11.5556px;line-height:1;font-family:'Liberation Sans';-inkscape-font-specification:'Liberation Sans, Normal'"
           id="tspan122">make
</tspan></tspan><tspan
         x="100.23633"
         y="29.49061"
         id="tspan128"><tspan
           style="font-size:11.5556px;line-height:1;font-family:'Liberation Sans';-inkscape-font-specification:'Liberation Sans, Normal'"
           id="tspan126">software
</tspan></tspan><tspan
         x="100.23633"
         y="41.046209"
         id="tspan132"><tspan
           style="font-size:11.5556px;line-height:1;font-family:'Liberation Sans';-inkscape-font-specification:'Liberation Sans, Normal'"
           id="tspan130">together
</tspan></tspan><tspan
         x="100.23633"
         y="52.601809"
         id="tspan136"><tspan
           style="font-size:11.5556px;line-height:1;font-family:'Liberation Sans';-inkscape-font-specification:'Liberation Sans, Normal'"
           id="tspan134">stepwise</tspan></tspan></text>
    <path
       style="fill:none;stroke:#000000;stroke-width:0.145856;stroke-linecap:butt;stroke-linejoin:miter;stroke-miterlimit:4;stroke-dasharray:none;stroke-opacity:1"
       d="m 42.717103,10.706873 -16.153222,0.02415"
       id="path8706"
       sodipodi:nodetypes="cc" />
    <path
       style="fill:#000000;stroke:#000000;stroke-width:0.145856;stroke-linecap:butt;stroke-linejoin:miter;stroke-miterlimit:4;stroke-dasharray:none;stroke-opacity:1"
       d="m 44.880564,10.831572 4.267865,-0.06495"
       id="path8708"
       sodipodi:nodetypes="cc" />
    <path
       style="fill:#ffffff;stroke:#000000;stroke-width:0.000828479;stroke-linejoin:round;stroke-miterlimit:4;stroke-dasharray:0, 0.00911327;stroke-dashoffset:0.00828479;stroke-opacity:1"
       d=""
       id="path1886"
       transform="scale(0.26458333)" />
    <path
       style="fill:#ffffff;stroke:#000000;stroke-width:0.000828479;stroke-linejoin:round;stroke-miterlimit:4;stroke-dasharray:0, 0.00911327;stroke-dashoffset:0.00828479;stroke-opacity:1"
       d=""
       id="path2003"
       transform="scale(0.26458333)" />
    <path
       style="fill:#b3b3b3;stroke:#000000;stroke-width:0.000414239;stroke-linejoin:round;stroke-miterlimit:4;stroke-dasharray:0, 0.00455663;stroke-dashoffset:0.00414239;stroke-opacity:1"
       d=""
       id="path2348"
       transform="scale(0.26458333)" />
    <path
       style="fill:#b3b3b3;stroke:#000000;stroke-width:0.000414239;stroke-linejoin:round;stroke-miterlimit:4;stroke-dasharray:0, 0.00455663;stroke-dashoffset:0.00414239;stroke-opacity:1"
       d=""
       id="path2426"
       transform="scale(0.26458333)" />
    <path
       style="fill:#b3b3b3;stroke:#000000;stroke-width:0.000414239;stroke-linejoin:round;stroke-miterlimit:4;stroke-dasharray:0, 0.00455663;stroke-dashoffset:0.00414239;stroke-opacity:1"
       d=""
       id="path2504"
       transform="scale(0.26458333)" />
    <path
       style="fill:#b3b3b3;stroke:#000000;stroke-width:0.000414239;stroke-linejoin:round;stroke-miterlimit:4;stroke-dasharray:0, 0.00455663;stroke-dashoffset:0.00414239;stroke-opacity:1"
       d=""
       id="path2543"
       transform="scale(0.26458333)" />
    <path
       style="fill:#b3b3b3;stroke:#000000;stroke-width:0.000414239;stroke-linejoin:round;stroke-miterlimit:4;stroke-dasharray:0, 0.00455663;stroke-dashoffset:0.00414239;stroke-opacity:1"
       d=""
       id="path2582"
       transform="scale(0.26458333)" />
    <path
       style="fill:#b3b3b3;stroke:#000000;stroke-width:0.00020712;stroke-linejoin:round;stroke-miterlimit:4;stroke-dasharray:0, 0.00227832;stroke-dashoffset:0.0020712;stroke-opacity:1"
       d=""
       id="path2621"
       transform="scale(0.26458333)" />
    <path
       style="fill:#b3b3b3;stroke:#000000;stroke-width:0.00020712;stroke-linejoin:round;stroke-miterlimit:4;stroke-dasharray:0, 0.00227832;stroke-dashoffset:0.0020712;stroke-opacity:1"
       d=""
       id="path2660"
       transform="scale(0.26458333)" />
    <path
       style="fill:#000000;stroke:#000000;stroke-width:0.000683564;stroke-linejoin:round;stroke-miterlimit:4;stroke-dasharray:0, 0.0075192;stroke-dashoffset:0.00683564;stroke-opacity:1"
       d="m 26.649152,18.149347 v -7.331219 l 5.545408,-3e-5 c 3.049975,-1.5e-5 6.529741,-0.0082 7.732814,-0.01806 l 2.187403,-0.01805 -0.837367,0.259508 c -4.20715,1.303843 -6.029431,1.897221 -7.44748,2.425073 -1.82155,0.678054 -2.804466,1.175586 -3.092718,1.565482 -0.0981,0.13269 -0.09401,0.337141 0.0088,0.446704 0.175883,0.187221 0.700855,0.324805 1.508244,0.395272 1.927993,0.168273 2.295588,0.189279 4.52861,0.258727 3.106345,0.09662 4.198714,0.183148 5.246349,0.415595 0.798989,0.177276 1.29604,0.431265 1.368163,0.699111 0.127227,0.4725 -0.42321,1.017688 -1.688441,1.672326 -1.017317,0.526369 -1.984076,0.921098 -5.353299,2.185768 -3.207009,1.203781 -4.450383,1.702457 -6.057262,2.429375 -1.195845,0.540972 -2.58851,1.27673 -3.334369,1.761575 -0.155731,0.101225 -0.290307,0.184056 -0.299059,0.184056 -0.0087,0 -0.01591,-3.29905 -0.01591,-7.331218 z"
       id="path4541" />
    <path
       style="fill:#000000;stroke:#000000;stroke-width:0.000683564;stroke-linejoin:round;stroke-miterlimit:4;stroke-dasharray:0, 0.0075192;stroke-dashoffset:0.00683564;stroke-opacity:1"
       d="m 38.12783,25.521496 c 0.597626,-0.43203 2.703041,-1.711845 4.87558,-2.963709 2.93204,-1.689507 3.722859,-2.196597 4.617915,-2.961096 0.931102,-0.795291 1.411699,-1.614389 1.413939,-2.409832 0.0037,-1.303285 -1.553154,-1.940543 -5.536269,-2.266162 -1.483066,-0.121242 -3.397974,-0.215272 -5.605225,-0.275243 -1.374041,-0.03731 -1.670172,-0.07418 -1.85248,-0.230502 -0.05317,-0.0456 -0.05358,-0.05678 -0.0047,-0.131488 0.06767,-0.103266 0.425384,-0.3406 0.782565,-0.519211 1.102191,-0.551155 3.66342,-1.464611 7.192847,-2.565318 l 0.871953,-0.271934 1.247094,-0.02048 c 0.685903,-0.01126 1.627753,-0.02934 2.093004,-0.04017 l 0.845911,-0.01971 v 7.368232 7.368231 l -5.511231,-0.0019 c -5.19292,-0.0017 -5.506596,-0.0052 -5.430975,-0.05982 z"
       id="path4580" />
    <text
       xml:space="preserve"
       transform="scale(0.26458333)"
       id="text37172"
       style="font-size:13.3333px;line-height:1.25;font-family:'Liberation Sans';-inkscape-font-specification:'Liberation Sans, Normal';white-space:pre;shape-inside:url(#rect37174)" />
    <text
       xml:space="preserve"
       transform="scale(0.26458333)"
       id="text46196"
       style="font-size:13.3333px;line-height:1.25;font-family:'Liberation Sans';-inkscape-font-specification:'Liberation Sans, Normal';white-space:pre;shape-inside:url(#rect46198)" />
    <text
       xml:space="preserve"
       style="font-size:4.21556px;line-height:1.25;font-family:'Liberation Sans';-inkscape-font-specification:'Liberation Sans, Normal';stroke-width:0.316166"
       x="0.93202955"
       y="4.720798"
       id="text47326"><tspan
         sodipodi:role="line"
         id="tspan47324"
         style="font-style:normal;font-variant:normal;font-weight:bold;font-stretch:normal;font-size:4.21556px;font-family:'Liberation Sans';-inkscape-font-specification:'Liberation Sans, Bold';font-variant-ligatures:normal;font-variant-caps:normal;font-variant-numeric:normal;font-variant-east-asian:normal;fill:#ff0000;stroke-width:0.316166"
         x="0.93202955"
         y="4.720798">Synodalsoft</tspan></text>
  </g>
  <metadata
     id="metadata9">
    <rdf:RDF>
      <cc:License
         rdf:about="http://creativecommons.org/licenses/by-sa/4.0/">
        <cc:permits
           rdf:resource="http://creativecommons.org/ns#Reproduction" />
        <cc:permits
           rdf:resource="http://creativecommons.org/ns#Distribution" />
        <cc:requires
           rdf:resource="http://creativecommons.org/ns#Notice" />
        <cc:requires
           rdf:resource="http://creativecommons.org/ns#Attribution" />
        <cc:permits
           rdf:resource="http://creativecommons.org/ns#DerivativeWorks" />
        <cc:requires
           rdf:resource="http://creativecommons.org/ns#ShareAlike" />
      </cc:License>
      <cc:Work
         rdf:about="">
        <cc:license
           rdf:resource="http://creativecommons.org/licenses/by-sa/4.0/" />
      </cc:Work>
    </rdf:RDF>
  </metadata>
</svg>
