<?xml version="1.0" encoding="UTF-8"?>
<svg width="300mm" height="100mm" version="1.1" viewBox="0 0 300 100" xmlns="http://www.w3.org/2000/svg">
    <g stroke-linecap="square">
        <path transform="scale(.99868 1.00132)" d="m32.2591 59.9972-14.221-20.2282h-4.71991v19.37h-6.00716v-40.5789h13.2403q3.98434 0 7.17181 1.22595 3.18747 1.16465 5.0264 3.49396 1.90022 2.26801 1.90022 5.63937 0 4.35212-3.31006 6.92662-3.31006 2.5132-8.39776 3.43266l16.4277 19.8604zm-18.9409-22.0671h3.92304q4.47472 0 6.80402-1.28725 2.3906-1.28725 3.31006-3.24877 0.919462-2.02282 0.919462-4.16823 0-0.306487-0.183892-1.34854-0.122595-1.10336-0.73557-2.4519-0.612975-1.40984-2.02282-2.63579-1.34854-1.28725-3.80044-1.96152-1.77763 0-4.22953 0.306488-2.3906 0.306487-3.98434 0.73557zm42.4792 21.9445q-3.80044 0-6.86532-1.59374-3.00358-1.59374-4.71991-4.65861t-1.71633-7.4783q0-5.08769 1.96152-8.52035t5.14899-5.14899q3.18747-1.77763 6.80402-1.77763 2.88098 0 5.21029 1.53244 2.3906 1.47114 3.80044 4.47472 1.47114 2.94228 1.47114 7.3557h-19.5539q0 4.7812 1.47114 7.53959 1.53244 2.69709 3.92304 3.80044 2.4519 1.10336 5.08769 1.10336 2.3906 0 4.22953-0.49038 1.83892-0.49038 3.37136-1.16465v2.14541q-1.90022 1.10336-4.35212 2.02282-2.4519 0.858165-5.27159 0.858165zm-8.21386-17.6537h14.3436q-0.183893-2.75839-1.22595-4.47472-0.980761-1.71633-2.3906-2.5745-1.34854-0.919463-2.75839-1.22595-1.34854-0.367785-2.26801-0.367785-2.08412 0.98076-3.67785 3.31006-1.53244 2.26801-2.02282 5.33288zm26.6644 29.9132v-32.4264q0-2.14541-0.612975-3.43266-0.551677-1.34854-1.28725-2.08412-0.73557-0.796868-1.28725-1.16465l3.18747-2.3293 5.21029 4.65861q2.26801-2.14541 4.22953-3.37136 2.02282-1.28725 4.71991-1.28725 1.40984 0 3.12617 0.674273 1.77763 0.612975 3.43266 2.26801 1.71633 1.59374 2.75839 4.53602 1.10336 2.94228 1.10336 7.53959 0 2.26801-0.73557 4.7812-0.674273 2.5132-2.08412 4.71991-1.40984 2.20671-3.49396 3.61655-2.08412 1.34854-4.8425 1.34854-1.77763 0-3.86174-0.674273-2.02282-0.674272-4.35212-2.20671v14.834zm11.7691-14.8953q3.43266-0.0613 5.33288-3.06488 1.90022-3.00358 1.90022-7.72348 0-5.27158-1.59374-8.70424t-3.86174-4.16823q-1.77763 0.183892-3.31006 0.98076-1.53244 0.796867-2.69709 1.77763-1.10336 0.919463-1.71633 1.71633-0.612975 0.796868-0.612975 1.04206v16.4277q3.61655 1.71633 6.55883 1.71633zm28.3194 2.63579q-3.43266 0-6.25235-1.59374-2.81968-1.59374-4.47471-4.65861-1.65504-3.12617-1.65504-7.53959 0-4.35212 1.34855-7.2944 1.40984-2.94228 3.61655-4.71991 2.26801-1.77763 4.8425-2.5745 2.5745-0.796868 4.9651-0.796868 3.49396 0 6.31364 1.59374 2.81969 1.59374 4.47472 4.65861t1.65503 7.53959q0 4.35212-1.40984 7.2944t-3.67785 4.71991q-2.20671 1.77763-4.7812 2.5745-2.5745 0.796867-4.9651 0.796867zm1.16465-2.08412q2.14541 0 3.67785-1.16465 1.53244-1.16465 2.4519-3.00358 0.98076-1.90022 1.40984-4.04564 0.49038-2.14541 0.49038-4.16823 0-3.37136-0.85816-6.12975-0.79687-2.81968-2.75839-4.53602-1.90022-1.71633-5.27158-1.71633-3.67785 1.40984-5.39418 4.9038-1.71633 3.49396-1.71633 7.4783 0 3.24877 0.79686 6.12975 0.79687 2.81968 2.5132 4.53602 1.77763 1.71633 4.65861 1.71633zm19.37 1.34854v-27.7065h3.55526l1.40984 5.14899q0.79687-1.34854 2.20671-2.69709 1.47114-1.34854 3.31006-2.3293 1.90023-1.04206 3.86175-1.34854l0.61297 4.22953q-1.59373 0-3.43266 0.674272-1.83892 0.674273-3.55525 1.71633-1.65504 1.04206-2.81969 2.14541v20.1669zm27.0936 0.73557q-2.51319 0-4.22952-1.47114t-1.71633-4.9651v-19.7991l-4.9651-0.98076v-1.22595h4.9651v-2.20671l5.14899-3.73915v5.94586h7.2944v2.20671h-7.2944v20.1056q0 1.71633 0.67427 2.69709 0.73557 0.98076 2.69709 0.98076 0.85816 0 1.90022-0.24519 1.04206-0.306487 2.02282-0.674272v1.71633q-1.34855 0.612975-3.06488 1.10336-1.65503 0.551677-3.43266 0.551677z" fill="#4584b6" stroke="#000" stroke-linejoin="round" stroke-width="1.23472" style="paint-order:stroke markers fill" aria-label="Report"/>
        <path transform="scale(.99868 1.00132)" d="m195.546 61.7136q-4.41342 0-8.45905-1.16465-4.04564-1.22595-7.23311-3.67785-3.12617-2.5132-4.9651-6.25234-1.83892-3.73915-1.83892-8.82684 0-5.88456 2.08411-10.0528 2.14542-4.22953 5.63937-6.86532 3.49396-2.69709 7.66219-3.92304 4.16823-1.28725 8.21387-1.28725 1.90022 0 3.98433 0.306488 2.08412 0.306487 3.86175 0.73557 1.77762 0.429082 2.75838 0.796867l-0.61297 4.16823q-3.31007-1.40984-6.55883-2.4519-3.18747-1.04206-7.17181-1.04206-6.49754 1.47114-9.9302 6.43624-3.43266 4.9038-3.43266 12.1982 0 6.12975 2.20671 10.3593 2.26801 4.16823 6.12975 6.31364 3.86175 2.08412 8.82684 2.08412 3.24877 0 6.43624-0.796867 3.18747-0.858165 5.08769-2.5132v3.37136q-1.83892 0.73557-4.10693 1.22595-2.26801 0.429082-4.53601 0.612975-2.20671 0.24519-4.04564 0.24519zm18.4506-0.73557v-27.7065h3.55525l1.40984 5.14899q0.79687-1.34854 2.20671-2.69709 1.47114-1.34854 3.31007-2.3293 1.90022-1.04206 3.86174-1.34854l0.61298 4.22953q-1.59374 0-3.43266 0.674272-1.83893 0.674273-3.55526 1.71633-1.65503 1.04206-2.81968 2.14541v20.1669zm38.0658 0.796867-4.9651-4.47472q-2.20671 2.02282-4.35212 3.24877-2.08411 1.16465-4.59731 1.16465t-4.53602-1.65503q-2.02281-1.65503-2.02281-4.71991 0-2.3906 1.59373-3.98434 1.59374-1.65503 4.04564-2.63579t5.08769-1.47114 4.71991-0.612975v-5.76196q0-5.08769-5.88456-5.08769-1.53244 0-3.55526 0.367785-1.96152 0.306487-4.41342 1.10336l-0.55168-1.53244q0.67428-0.551677 2.26801-1.28725 1.59374-0.73557 3.67785-1.28725 2.08412-0.612975 4.22953-0.612975 3.49396 0 5.39418 1.04206 1.90022 0.98076 2.69709 2.5745 0.79687 1.53244 0.98076 3.24877 0.18389 1.65503 0.18389 3.00358v10.4206q0 2.08412 0.55168 3.43266 0.61297 1.34854 1.34854 2.08412 0.79687 0.73557 1.28725 1.10336zm-11.5852-2.88098q1.47114-0.306488 2.94228-1.16465 1.53244-0.919462 2.5745-1.83892 1.04206-0.98076 1.04206-1.40984v-6.31364q-4.59732 0.306488-7.3557 2.02282-2.69709 1.65503-2.69709 3.55526 0 1.90022 0.98076 3.31006 1.04205 1.34854 2.51319 1.83892zm22.6188 2.08412v-25.4998l-5.0264-0.98076v-1.22595h5.0877q0.24519-4.16823 1.65503-7.4783 1.47114-3.37136 3.98434-5.27158 2.57449-1.96152 6.19104-1.96152 1.10336 0 2.32931 0.24519 1.22595 0.183893 2.3293 0.49038l-0.61297 3.98434q-0.91946-0.49038-2.26801-0.919463-1.28725-0.429082-2.5132-0.674272-1.16465-0.24519-1.90022-0.24519-1.16465 0.612975-1.96152 2.08412-0.73557 1.40984-1.22595 3.24877-0.42908 1.77763-0.67427 3.55526-0.18389 1.71633-0.24519 2.94228h7.417v2.20671h-7.417v25.4998zm25.6224 0.73557q-2.51319 0-4.22952-1.47114t-1.71633-4.9651v-19.7991l-4.9651-0.98076v-1.22595h4.9651v-2.20671l5.14899-3.73915v5.94586h7.2944v2.20671h-7.2944v20.1056q0 1.71633 0.67427 2.69709 0.73557 0.98076 2.69709 0.98076 0.85816 0 1.90022-0.24519 1.04206-0.306488 2.02282-0.674273v1.71633q-1.34855 0.612975-3.06488 1.10336-1.65503 0.551678-3.43266 0.551678z" fill="#ffde57" stroke="#000" stroke-linejoin="round" stroke-width="1.23472" style="paint-order:stroke markers fill" aria-label="Craft"/>
        <path d="m28.0728 80.3368c1.51523-0.03271 3.03196-0.04093 4.5457-0.09814 8.308-0.313947 18.6696-0.905403 26.5973-1.38054 7.83249-0.469433 15.6663-0.927687 23.4915-1.47226 10.1337-0.705216 20.2558-1.52106 30.3842-2.27702 12.0585-0.900029 24.1176-1.79398 36.1765-2.69098 38.2272-2.65005 49.2025-3.51623 87.9531-5.76418 14.138-0.820158 28.2864-1.52245 42.4296-2.28368l-0.0594 0.05172c-14.1432 0.761242-28.2915 1.46355-42.4296 2.28372-38.7503 2.24798-49.726 3.11419-87.953 5.76425-25.2612 1.87906-41.9828 3.05507-66.7548 5.1377-8.10008 0.680989-16.1912 1.43755-24.2856 2.16583-11.0052 0.990173-22.016 1.95724-33.0012 3.10508z" fill="#44b78b" stroke="#44b78b" stroke-width="2.82223" style="paint-order:stroke markers fill"/>
    </g>
</svg>
