<?xml version="1.0" encoding="UTF-8" standalone="no"?><!DOCTYPE svg PUBLIC "-//W3C//DTD SVG 1.1//EN" "http://www.w3.org/Graphics/SVG/1.1/DTD/svg11.dtd"><svg width="100%" height="100%" viewBox="0 0 4961 4961" version="1.1" xmlns="http://www.w3.org/2000/svg" xmlns:xlink="http://www.w3.org/1999/xlink" xml:space="preserve" xmlns:serif="http://www.serif.com/" style="fill-rule:evenodd;clip-rule:evenodd;stroke-linejoin:round;stroke-miterlimit:2;"><path d="M482.806,4635.603c-16.534,-0.002 -32.656,-5.206 -46.071,-14.872c-31.645,-22.901 -41.746,-66.035 -23.56,-100.605l663.894,-2300.893c10.528,-19.969 29.154,-34.474 51.093,-39.789c21.955,-5.252 45.14,-0.875 63.671,12.018l1190.937,833.621l977.659,-2662.807c15.25,-24.707 41.915,-38.851 71.925,-37.103c28.941,1.863 54.603,19.565 66.623,45.959l1050.491,4138.413c16.873,37.132 2.244,81.541 -33.395,101.375c-35.657,19.785 -81.084,8.774 -103.725,-25.141l-1039.789,-3136.145l-909.119,2119.076c-23.725,25.472 -61.657,32.328 -92.799,16.775l-1095.209,-792.164l-735.782,1818.08c-14.863,15.453 -35.402,24.199 -56.843,24.203Z" style="fill:#6c6c6c;fill-rule:nonzero;"/><path d="M1741.139,4603.252l-135.672,32.351l-29.629,-91.66c-44.704,32.351 -88.888,55.715 -132.553,70.093c-43.664,14.378 -92.527,21.567 -146.588,21.567c-57.18,0 -108.381,-10.334 -153.605,-31.003c-45.224,-20.668 -80.311,-48.751 -105.262,-84.247c-24.951,-35.496 -37.427,-75.71 -37.427,-120.641c0,-42.236 11.956,-80.877 35.867,-115.923c23.911,-35.047 57.699,-62.679 101.364,-82.899c43.664,-20.219 94.086,-30.329 151.266,-30.329c35.347,0 67.056,2.471 95.126,7.414c28.07,4.942 56.66,14.603 85.769,28.981c-19.753,-55.715 -48.603,-97.052 -86.549,-124.011c-37.946,-26.959 -89.668,-40.438 -155.165,-40.438c-58.219,0 -110.201,15.726 -155.944,47.178l-12.476,0l46.783,-128.055c43.664,-17.973 93.047,-26.959 148.147,-26.959c90.448,0 165.041,20.668 223.78,62.005c58.739,41.337 100.584,101.545 125.535,180.625l137.231,425.95Zm-422.609,-75.485c81.091,0 156.464,-27.408 226.119,-82.225l-37.427,-118.619c-28.07,-19.77 -56.66,-33.923 -85.769,-42.46c-29.11,-8.537 -60.818,-12.805 -95.126,-12.805c-53.021,0 -95.906,11.682 -128.654,35.047c-32.748,23.364 -49.122,54.367 -49.122,93.008c0,38.641 15.594,69.644 46.783,93.008c31.189,23.364 72.254,35.047 123.196,35.047Z" style="fill-rule:nonzero;"/><path d="M2053.028,4635.603c-84.21,0 -154.385,-20.219 -210.525,-60.657l0,-128.055l12.476,0c24.951,25.162 54.321,44.931 88.109,59.31c33.788,14.378 70.435,21.567 109.941,21.567c38.466,0 67.576,-7.863 87.329,-23.589c19.753,-15.726 29.629,-37.068 29.629,-64.027c0,-24.263 -11.696,-44.257 -35.087,-59.984c-23.392,-15.726 -60.039,-34.822 -109.941,-57.288c-43.664,-19.77 -79.272,-37.518 -106.822,-53.244c-27.55,-15.726 -50.942,-35.721 -70.175,-59.984c-19.233,-24.263 -28.85,-53.019 -28.85,-86.268c0,-34.148 10.656,-65.6 31.969,-94.356c21.312,-28.756 52.501,-51.671 93.567,-68.745c41.065,-17.074 89.668,-25.611 145.808,-25.611c37.427,0 73.294,4.268 107.602,12.805c34.308,8.537 61.858,19.995 82.65,34.373l0,128.055l-12.476,0c-20.793,-22.466 -47.043,-39.315 -78.752,-50.548c-31.709,-11.233 -64.717,-16.849 -99.025,-16.849c-37.427,0 -67.316,7.414 -89.668,22.241c-22.352,14.827 -33.528,34.373 -33.528,58.636c0,22.466 11.696,41.786 35.087,57.962c23.392,16.175 59.519,35.047 108.381,56.614c44.704,20.668 80.571,38.866 107.602,54.592c27.03,15.726 50.422,35.945 70.175,60.657c19.753,24.712 29.629,53.693 29.629,86.942c0,56.614 -23.652,103.342 -70.955,140.186c-47.303,36.844 -112.02,55.266 -194.151,55.266Z" style="fill-rule:nonzero;"/><path d="M2661.21,4635.603c-84.21,0 -154.385,-20.219 -210.525,-60.657l0,-128.055l12.476,0c24.951,25.162 54.321,44.931 88.109,59.31c33.788,14.378 70.435,21.567 109.941,21.567c38.466,0 67.576,-7.863 87.329,-23.589c19.753,-15.726 29.629,-37.068 29.629,-64.027c0,-24.263 -11.696,-44.257 -35.087,-59.984c-23.392,-15.726 -60.039,-34.822 -109.941,-57.288c-43.664,-19.77 -79.272,-37.518 -106.822,-53.244c-27.55,-15.726 -50.942,-35.721 -70.175,-59.984c-19.233,-24.263 -28.85,-53.019 -28.85,-86.268c0,-34.148 10.656,-65.6 31.969,-94.356c21.312,-28.756 52.501,-51.671 93.567,-68.745c41.065,-17.074 89.668,-25.611 145.808,-25.611c37.427,0 73.294,4.268 107.602,12.805c34.308,8.537 61.858,19.995 82.65,34.373l0,128.055l-12.476,0c-20.793,-22.466 -47.043,-39.315 -78.752,-50.548c-31.709,-11.233 -64.717,-16.849 -99.025,-16.849c-37.427,0 -67.316,7.414 -89.668,22.241c-22.352,14.827 -33.528,34.373 -33.528,58.636c0,22.466 11.696,41.786 35.087,57.962c23.392,16.175 59.519,35.047 108.381,56.614c44.704,20.668 80.571,38.866 107.602,54.592c27.03,15.726 50.422,35.945 70.175,60.657c19.753,24.712 29.629,53.693 29.629,86.942c0,56.614 -23.652,103.342 -70.955,140.186c-47.303,36.844 -112.02,55.266 -194.151,55.266Z" style="fill-rule:nonzero;"/><rect x="3097.854" y="3948.151" width="145.028" height="673.972" style="fill-rule:nonzero;"/><path d="M3812.079,3638.124c29.11,0 56.66,2.921 82.65,8.762c25.991,5.841 47.823,14.153 65.497,24.937l0,121.315l-12.476,0c-31.189,-26.959 -71.215,-40.438 -120.077,-40.438c-48.863,0 -87.069,12.805 -114.619,38.416c-27.55,25.611 -41.325,59.984 -41.325,103.118l0,53.918l233.916,0l0,110.531l-233.916,0l0,563.441l-148.147,0l0,-563.441l-140.35,0l0,-110.531l140.35,0l0,-47.178c0,-79.079 26.511,-142.657 79.532,-190.734c53.021,-48.077 122.676,-72.115 208.965,-72.115Z" style="fill-rule:nonzero;"/></svg>