<?xml version="1.0" encoding="UTF-8" standalone="no"?>
<!-- Created with Inkscape (http://www.inkscape.org/) -->

<svg
   version="1.1"
   id="svg1"
   width="1365.3333"
   height="682.66669"
   viewBox="0 0 1365.3333 682.66669"
   sodipodi:docname="DictDBLogo.svg"
   inkscape:version="1.4 (e7c3feb100, 2024-10-09)"
   inkscape:export-filename="DictDBLogo.png"
   inkscape:export-xdpi="56.25"
   inkscape:export-ydpi="56.25"
   xmlns:inkscape="http://www.inkscape.org/namespaces/inkscape"
   xmlns:sodipodi="http://sodipodi.sourceforge.net/DTD/sodipodi-0.dtd"
   xmlns="http://www.w3.org/2000/svg"
   xmlns:svg="http://www.w3.org/2000/svg"
   xmlns:rdf="http://www.w3.org/1999/02/22-rdf-syntax-ns#"
   xmlns:cc="http://creativecommons.org/ns#"
   xmlns:dc="http://purl.org/dc/elements/1.1/">
  <title
     id="title1">DictDB Logo</title>
  <defs
     id="defs1" />
  <sodipodi:namedview
     id="namedview1"
     pagecolor="#ffffff"
     bordercolor="#000000"
     borderopacity="0.25"
     inkscape:showpageshadow="2"
     inkscape:pageopacity="0.0"
     inkscape:pagecheckerboard="0"
     inkscape:deskcolor="#d1d1d1"
     inkscape:zoom="0.59179686"
     inkscape:cx="756.17164"
     inkscape:cy="380.19803"
     inkscape:window-width="1920"
     inkscape:window-height="1011"
     inkscape:window-x="0"
     inkscape:window-y="32"
     inkscape:window-maximized="1"
     inkscape:current-layer="g41"
     inkscape:export-bgcolor="#ffffff00" />
  <g
     inkscape:groupmode="layer"
     inkscape:label="Image"
     id="g1">
    <g
       id="g41"
       inkscape:label="DictDB">
      <path
         id="path39"
         style="fill:#5c6bc0;fill-opacity:1"
         d="m 345.33331,325.84578 c -17.43556,-1.57544 -45.10732,-6.28108 -58.02618,-9.86746 -17.24614,-4.78767 -38.71462,-15.0378 -47.68627,-22.7678 -10.54027,-9.08154 -12.1358,-13.47596 -12.71767,-35.02727 -0.7227,-26.7669 1.90119,-33.55307 17.50935,-45.28438 57.93264,-43.54301 206.20772,-41.06546 252.70308,4.22244 10.7564,10.47707 11.44585,12.54914 11.98899,36.03207 0.58442,25.26819 -0.49056,28.85533 -11.77932,39.30674 -16.87423,15.62256 -43.59703,25.82648 -80.91885,30.89833 -15.22349,2.06879 -58.81973,3.59452 -71.07313,2.48733 z m -2,153.24054 c -37.03602,-3.23202 -71.91477,-12.91953 -93.53419,-25.97894 -9.80112,-5.92047 -19.85862,-16.703 -21.67206,-23.23439 -0.79504,-2.86347 -1.44888,-15.25235 -1.45297,-27.53084 l -0.007,-22.32453 6.23561,4.75975 c 40.31491,30.77307 141.82639,42.06544 214.22106,23.83044 22.17503,-5.58552 42.9373,-13.98383 55.20998,-22.33236 l 7,-4.76177 v 23.95266 c 0,17.19267 -0.51235,25.1789 -1.81543,28.29761 -0.99849,2.38972 -5.43747,7.62045 -9.86441,11.62384 -23.84507,21.56373 -74.85944,35.04496 -130.12809,34.38809 -10.3723,-0.12328 -21.25872,-0.43358 -24.19206,-0.68956 z m 3.33334,-76.55512 c -37.15467,-2.18148 -69.03189,-9.943 -93.02879,-22.65081 -12.63644,-6.69175 -19.12293,-12.00995 -23.08551,-18.92752 -3.04761,-5.32027 -3.24234,-6.997 -3.65683,-31.48632 l -0.4378,-25.86679 6.69167,4.80748 c 19.31584,13.87705 50.95866,24.70749 87.02076,29.78473 20.38257,2.8697 74.07259,3.28549 93.16316,0.72148 40.19159,-5.39802 74.92048,-17.07796 90.5448,-30.45179 l 5.45519,-4.66945 -0.007,23.77057 c -0.004,13.07381 -0.60974,25.93887 -1.34588,28.58902 -1.62617,5.85429 -12.2478,16.23818 -22.64669,22.13979 -31.39491,17.81736 -85.86833,27.33958 -138.66665,24.23961 z"
         inkscape:label="database" />
      <path
         id="path29"
         style="fill:#607d8b;fill-opacity:1"
         d="m 874.5452,378.80483 c -15.84136,-5.06836 -25.91717,-15.26666 -30.72637,-31.09992 -2.29577,-7.55831 -2.67869,-11.68587 -2.23392,-24.08006 0.46304,-12.90357 1.03607,-15.99162 4.17182,-22.48199 4.22787,-8.75084 13.14157,-17.49686 22.00899,-21.595 5.24555,-2.42426 8.66592,-2.88119 21.56756,-2.88119 13.19002,0 16.28989,0.43287 22.17658,3.09676 11.78024,5.33089 16.65393,12.53536 18.42501,27.23658 l 0.92362,7.66667 h -11.93765 -11.93765 l -1.50535,-5.97826 c -1.98905,-7.89924 -6.25906,-10.70247 -16.21531,-10.64521 -14.64273,0.0842 -18.92233,6.18052 -19.62561,27.9568 -0.42782,13.24707 -0.17507,15.24637 2.61134,20.65591 4.35896,8.46245 10.67905,12.41031 18.6759,11.66592 8.26962,-0.76978 12.66179,-3.83267 14.31832,-9.98493 l 1.34723,-5.00357 h 12.78236 12.78236 l -0.89184,6.66667 c -2.22177,16.60812 -9.83385,25.05858 -26.59598,29.52521 -9.11279,2.4283 -21.18227,2.13964 -30.12141,-0.72039 z m -201.88926,-1.80482 c -0.40048,-1.65 -0.56191,-32.7 -0.35873,-69 l 0.36942,-66 28.52939,-0.36042 c 25.28322,-0.31941 29.6564,-0.0512 38.4343,2.35695 22.34289,6.12968 37.60983,21.98301 43.75158,45.432 3.05982,11.68229 2.07143,35.86445 -1.92634,47.1305 -7.99823,22.53967 -25.06673,36.68885 -50.01748,41.46272 -6.74138,1.28984 -18.64146,1.97825 -34.19668,1.97825 -23.63627,0 -23.86405,-0.0278 -24.58546,-3 z m 59.60156,-25.23469 c 7.5447,-2.26045 16.1644,-10.42189 19.76592,-18.71508 2.29205,-5.27789 3.21798,-10.42573 3.68327,-20.47773 1.05659,-22.82625 -4.70836,-35.61905 -19.2596,-42.73831 -6.63381,-3.24562 -9.71327,-3.86305 -21.43041,-4.29679 l -13.68339,-0.50652 v 44.15123 44.15122 h 12.84531 c 7.06492,0 15.20042,-0.70561 18.0789,-1.56802 z m 68.35051,26.56275 c -0.35287,-0.91957 -0.48404,-23.86957 -0.29149,-51 l 0.3501,-49.32806 h 12.66666 12.66667 l 0.34994,49.1767 c 0.2504,35.18757 -0.0805,49.69537 -1.16326,51 -2.03985,2.45788 -23.64248,2.59091 -24.57862,0.15136 z m 173.03149,0.41181 c -6.8109,-1.1081 -12.01748,-4.72992 -15.63956,-10.87924 -2.41319,-4.09696 -2.73003,-7.63236 -3.33333,-37.19396 l -0.66667,-32.66667 h -8.33576 -8.33576 l 0.002,-10.33333 0.002,-10.33334 h 8.61475 8.61476 l 0.38524,-11.66667 0.38525,-11.66666 12.21674,-0.38183 12.21674,-0.38182 0.88154,4.01362 c 0.48485,2.2075 0.71968,7.47932 0.52186,11.71516 l -0.35969,7.70153 12.2614,0.38337 12.26139,0.38337 v 9.89993 9.89993 l -12.33332,0.38337 c -6.78333,0.21085 -12.18333,0.83337 -12,1.38337 0.18333,0.55 0.33333,12.58532 0.33333,26.74516 0,31.19109 -0.25109,30.59413 13.18798,31.3535 l 9.47861,0.5356 v 9.58287 c 0,5.67557 -0.6523,10.23525 -1.6,11.18287 -1.7368,1.73686 -18.92533,1.93999 -28.76036,0.33987 z m 46.3274,-2.16 c -1.409,-3.70609 -1.8382,-127.10352 -0.4599,-132.24654 0.8011,-2.98939 0.9022,-3 28.5828,-3 30.615,0 37.7663,0.99281 50.5401,7.01646 22.6127,10.66328 36.1763,36.99937 34.201,66.40674 -1.3716,20.41932 -9.5826,39.03198 -21.6345,49.04107 -14.5954,12.12156 -31.1783,16.2024 -65.8399,16.2024 h -24.0892 z m 63.4369,-26.86592 c 12.047,-6.31644 18.2563,-17.04776 19.9559,-34.48892 1.0295,-10.56433 -0.9944,-23.97497 -4.7205,-31.27878 -2.9878,-5.85648 -10.6897,-12.86167 -17.209,-15.65224 -2.8355,-1.21374 -10.5651,-2.2949 -19.0969,-2.67114 l -14.3334,-0.63207 v 44.31517 44.31517 l 15,-0.53692 c 11.995,-0.42936 16.0826,-1.10454 20.4039,-3.37027 z m 64.692,27.79859 c -1.0079,-1.88328 -1.348,-23.09505 -1.1084,-69.11488 l 0.3459,-66.39766 h 35.3333 35.3333 l 7.476,3.50559 c 7.457,3.49669 11.9537,8.13825 16.6255,17.16107 3.624,6.99912 3.4232,22.96554 -0.3789,30.12625 -3.1884,6.00491 -10.5798,13.11977 -15.1301,14.56398 -2.6029,0.82612 -2.2901,1.20571 2.9124,3.53375 12.4109,5.55379 18.9042,16.24818 18.9259,31.17079 0.025,17.16744 -7.2359,27.83645 -23.352,34.31295 -6.4424,2.58898 -10.1556,2.89015 -41.3037,3.35005 -33.3351,0.49219 -34.2628,0.43468 -35.6792,-2.21189 z m 61.7231,-24.6843 c 13.4747,-5.6301 13.9501,-24.05272 0.7962,-30.85488 -2.723,-1.40808 -8.2273,-1.97336 -19.2156,-1.97336 h -15.3996 v 17.33333 17.33334 h 14.7095 c 9.4843,0 16.2725,-0.65307 19.1095,-1.83843 z m -2.5196,-57.39481 c 6.6479,-2.77764 9.1682,-7.43166 8.3931,-15.49863 -1.1721,-12.19829 -7.711,-15.91442 -28.0258,-15.92737 l -11.6667,-0.007 v 17.53376 17.53376 l 13.4032,-0.87836 c 7.3717,-0.4831 15.425,-1.72317 17.8962,-2.75573 z M 807.33329,264.0613 c -9.70014,-4.01224 -12.54086,-16.53826 -5.43312,-23.95714 11.87897,-12.39898 31.44121,-0.9555 26.08909,15.26156 -2.61762,7.93148 -12.47297,12.0803 -20.65597,8.69558 z"
         inkscape:label="text" />
      <path
         id="path1"
         style="fill:#5c6bc0;fill-opacity:1"
         d="m 186.34679,539.25623 c -10.63847,-2.5785 -17.6355,-6.43252 -25.94354,-14.28992 -7.49389,-7.08742 -13.67986,-16.69837 -16.49832,-25.63296 -1.20533,-3.82092 -1.9199,-23.86044 -2.51986,-70.66667 -0.76713,-59.84931 -1.0534,-65.94602 -3.41041,-72.6325 -3.42436,-9.71435 -9.95436,-16.06275 -19.64873,-19.1023 l -7.65927,-2.40147 v -13.93187 c 0,-12.37459 0.26081,-13.93332 2.33333,-13.94489 4.32091,-0.0241 15.74662,-6.23808 19.35495,-10.52634 7.76899,-9.23293 8.07329,-12.07721 8.92913,-83.46064 0.75027,-62.57902 0.90284,-65.62815 3.61892,-72.32653 4.53045,-11.17293 9.26146,-18.33748 16.07593,-24.34509 13.62717,-12.01366 22.90111,-14.62462 52.02107,-14.64589 l 21.66666,-0.0158 v 16 16 l -17,0.007 c -9.35,0.004 -19.17057,0.61037 -21.8235,1.34728 -7.59992,2.11105 -13.5889,6.83018 -16.84316,13.2719 -2.97465,5.88824 -3.0002,6.43465 -3.02315,64.65591 -0.026,65.99042 -0.47057,70.32172 -8.85515,86.27761 -2.75743,5.24741 -7.76663,12.22751 -11.13155,15.51134 l -6.11804,5.97059 6.14005,6.30376 c 6.25875,6.42562 14.36717,20.38161 17.42272,29.98752 1.22753,3.85906 1.90868,23.23679 2.46413,70.10082 l 0.76766,64.76748 3.33333,4.92194 c 1.93295,2.85416 6.10405,6.31277 9.92846,8.23252 6.10296,3.06352 8.01833,3.31058 25.66666,3.31058 h 19.07154 v 16.66666 16.66667 l -20.33333,-0.11108 c -12.42689,-0.0679 -23.30921,-0.83237 -27.98653,-1.96604 z M 505.3333,524.81201 v -16.52135 l 19.8945,-0.48523 c 19.59876,-0.47801 19.98029,-0.54485 25.66666,-4.49649 3.37149,-2.34295 7.01989,-6.47814 8.77217,-9.94261 2.97476,-5.88144 3.0002,-6.42546 3.02315,-64.64884 0.0256,-64.92784 0.54931,-70.43967 8.16653,-85.9505 2.31376,-4.71149 7.34463,-11.80592 11.17969,-15.7654 l 6.97283,-7.19906 -6.40095,-6.40095 c -6.77751,-6.77752 -12.75501,-17.30263 -16.69796,-29.40157 -2.11087,-6.4772 -2.4786,-14.7272 -3.14991,-70.66667 -0.5513,-45.93891 -1.2038,-64.10706 -2.37576,-66.15048 -2.73224,-4.7639 -10.71789,-10.96514 -16.0145,-12.43602 -2.77005,-0.76925 -12.68645,-1.40198 -22.03645,-1.40607 l -17,-0.007 V 117.2066 101.07944 l 24.33334,0.46049 c 24.07825,0.45568 24.4259,0.50437 33.1645,4.64478 14.82151,7.02255 25.16274,18.25684 30.84149,33.50495 2.71436,7.28837 2.8852,10.65351 3.67101,72.31078 0.72237,56.67929 1.11415,65.55067 3.17185,71.82365 3.1952,9.74065 10.26494,17.05588 19.50286,20.18008 l 7.31495,2.47387 0.377,14.7612 c 0.37259,14.58863 0.34142,14.76135 -2.66667,14.77423 -4.95787,0.0212 -16.43246,6.04908 -19.3519,10.16599 -1.49027,2.10154 -3.81453,6.82098 -5.16503,10.48765 -2.21417,6.0116 -2.53217,13.02083 -3.23628,71.33333 -0.69048,57.18287 -1.05705,65.50805 -3.16756,71.93693 -5.08261,15.48231 -16.15033,28.07495 -30.63083,34.85119 -11.11194,5.19991 -19.40362,6.54522 -40.34071,6.54522 H 505.3333 Z"
         inkscape:label="brackets" />
    </g>
  </g>
  <metadata
     id="metadata1">
    <rdf:RDF>
      <cc:Work
         rdf:about="">
        <dc:creator>
          <cc:Agent>
            <dc:title>Manoah Bernier</dc:title>
          </cc:Agent>
        </dc:creator>
        <dc:title>DictDB Logo</dc:title>
        <dc:date>March 29 2025</dc:date>
      </cc:Work>
    </rdf:RDF>
  </metadata>
</svg>
