<?xml version="1.0" standalone="no"?><!DOCTYPE svg PUBLIC "-//W3C//DTD SVG 1.1//EN" "http://www.w3.org/Graphics/SVG/1.1/DTD/svg11.dtd"><svg t="1769412556021" class="icon" viewBox="0 0 1024 1024" version="1.1" xmlns="http://www.w3.org/2000/svg" p-id="5147" xmlns:xlink="http://www.w3.org/1999/xlink" width="200" height="200"><path d="M24.856135 296.081347L490.69745 507.422478a51.196979 51.196979 0 0 0 42.595887 0l465.841316-211.341131c33.073249-15.000715 33.073249-65.020164 0-80.020879L533.293337 4.668141a51.196979 51.196979 0 0 0-42.595887 0l-465.892512 211.289933c-33.073249 15.051912-33.073249 65.020164 0 80.072076z m974.278518 176.578382l-116.217144-52.681692-323.20653 146.525755a114.732431 114.732431 0 0 1-95.43117 0L141.022081 419.978037 24.804938 472.659729c-33.073249 15.000715-33.073249 65.020164 0 79.969682l465.892512 211.18754c13.618397 6.143638 28.97749 6.143638 42.595887 0l465.841316-211.18754c33.073249-15.000715 33.073249-65.020164 0-79.969682z m0 255.575321l-115.705174-52.476904-323.7185 146.730543a114.732431 114.732431 0 0 1-95.43117 0l-323.667304-146.730543-115.75637 52.476904c-33.124446 15.000715-33.124446 65.020164 0 79.969682l465.841315 211.18754c13.618397 6.143638 28.97749 6.143638 42.595887 0l465.841316-211.18754c33.073249-15.000715 33.073249-65.020164 0-79.969682z" fill="#03CDC1" p-id="5148"></path></svg>