<svg xmlns="http://www.w3.org/2000/svg" width="80px" height="80px" viewBox="0 0 80 80">
  <metadata>
    <rdf:RDF xmlns:rdf="www.w3.org" xmlns:dc="purl.org">
      <dc:title>Steam Editor Tools</dc:title>
	  <dc:creator>Yuchen Jin (cainmagi)</dc:creator>
      <dc:description>The logo of Steam Editor Tools.</dc:description>
      <!-- Other metadata fields -->
    </rdf:RDF>
    <rdf:RDF xmlns:rdf="http://www.w3.org/1999/02/22-rdf-syntax-ns#" xmlns:schema="http://schema.org/">
      <rdf:Description rdfabout="author">
        <schema:copyrightHolder>Yuchen Jin (cainmagi @ GitHub)</schema:copyrightHolder>
        <schema:copyrightYear>2026</schema:copyrightYear>
        <schema:license rdfresource="https://github.com/cainmagi/steam-editor-tools/blob/main/LICENSE"/>
      </rdf:Description>
    </rdf:RDF>
  </metadata>
  <defs>
    <g id="small-cog">
      <path d="M 68.365 59.889 C 66.109 59.889 64.7 57.447 65.827 55.494 C 66.955 53.541 69.774 53.541 70.902 55.494 C 71.159 55.939 71.295 56.445 71.295 56.959 C 71.295 58.577 69.983 59.889 68.365 59.889 M 68.365 55.529 C 67.264 55.529 66.576 56.721 67.126 57.674 C 67.677 58.627 69.053 58.627 69.603 57.674 C 69.729 57.457 69.795 57.21 69.795 56.959 C 69.795 56.169 69.155 55.529 68.365 55.529" style="stroke-width: 1; fill: rgba(0, 0, 0, 0.9);"></path>
      <path d="M 68.425 65.709 C 67.195 65.704 66.204 64.699 66.215 63.469 C 66.207 63.285 66.094 63.122 65.925 63.049 C 65.737 62.963 65.516 62.998 65.365 63.139 C 64.95 63.551 64.39 63.784 63.805 63.789 C 63.216 63.793 62.649 63.567 62.225 63.159 C 61.357 62.292 61.357 60.886 62.225 60.019 C 62.369 59.888 62.423 59.685 62.365 59.499 C 62.266 59.327 62.083 59.221 61.885 59.219 C 60.662 59.214 59.662 58.241 59.625 57.019 C 59.63 55.793 60.629 54.804 61.855 54.809 C 62.039 54.801 62.202 54.688 62.275 54.519 C 62.361 54.331 62.325 54.11 62.185 53.959 C 61.773 53.544 61.539 52.984 61.535 52.399 C 61.524 51.809 61.751 51.24 62.165 50.819 C 63.032 49.952 64.438 49.952 65.305 50.819 C 65.451 50.958 65.66 51.011 65.855 50.959 C 66.033 50.862 66.149 50.681 66.165 50.479 C 66.164 49.252 67.138 48.247 68.365 48.209 C 69.591 48.22 70.576 49.223 70.565 50.449 C 70.572 50.635 70.679 50.803 70.845 50.889 C 71.025 50.955 71.227 50.912 71.365 50.779 C 71.78 50.367 72.34 50.134 72.925 50.129 C 73.516 50.111 74.088 50.339 74.505 50.759 C 75.372 51.626 75.372 53.032 74.505 53.899 C 74.376 54.051 74.334 54.259 74.395 54.449 C 74.492 54.627 74.673 54.743 74.875 54.759 C 76.09 54.775 77.077 55.744 77.115 56.959 C 77.104 58.185 76.101 59.17 74.875 59.159 C 74.688 59.167 74.521 59.274 74.435 59.439 C 74.369 59.619 74.411 59.821 74.545 59.959 C 74.957 60.374 75.19 60.934 75.195 61.519 C 75.205 62.109 74.978 62.678 74.565 63.099 C 73.698 63.966 72.292 63.966 71.425 63.099 C 71.287 62.966 71.085 62.923 70.905 62.989 C 70.733 63.088 70.627 63.271 70.625 63.469 C 70.609 64.684 69.639 65.672 68.425 65.709 M 65.715 61.499 C 65.98 61.495 66.243 61.55 66.485 61.659 C 67.214 61.963 67.697 62.669 67.715 63.459 C 67.709 63.86 68.024 64.193 68.425 64.209 C 68.825 64.177 69.131 63.84 69.125 63.439 C 69.13 62.647 69.588 61.928 70.305 61.589 C 71.052 61.278 71.912 61.448 72.485 62.019 C 72.87 62.404 73.527 62.228 73.668 61.702 C 73.733 61.458 73.663 61.198 73.485 61.019 C 72.917 60.444 72.752 59.584 73.065 58.839 C 73.387 58.122 74.099 57.661 74.885 57.659 C 75.28 57.665 75.609 57.354 75.625 56.959 C 75.598 56.557 75.258 56.247 74.855 56.259 C 74.056 56.237 73.339 55.765 73.005 55.039 C 72.699 54.285 72.868 53.422 73.435 52.839 C 73.82 52.454 73.644 51.797 73.118 51.656 C 72.874 51.591 72.613 51.66 72.435 51.839 C 71.307 52.887 69.467 52.32 69.124 50.82 C 69.095 50.695 69.079 50.567 69.075 50.439 C 69.081 50.043 68.77 49.715 68.375 49.699 C 67.972 49.726 67.663 50.066 67.675 50.469 C 67.653 51.268 67.18 51.985 66.455 52.319 C 65.701 52.625 64.838 52.456 64.255 51.889 C 63.87 51.504 63.213 51.68 63.072 52.206 C 63.006 52.45 63.076 52.71 63.255 52.889 C 63.819 53.466 63.981 54.326 63.665 55.069 C 63.361 55.799 62.655 56.281 61.865 56.299 C 61.464 56.293 61.131 56.608 61.115 57.009 C 61.146 57.409 61.484 57.716 61.885 57.709 C 62.677 57.714 63.396 58.173 63.735 58.889 C 64.045 59.636 63.876 60.496 63.305 61.069 C 62.92 61.454 63.096 62.111 63.622 62.252 C 63.866 62.317 64.126 62.248 64.305 62.069 C 64.685 61.706 65.189 61.502 65.715 61.499 M 73.715 59.139" style="stroke-width: 1; fill: rgba(0, 0, 0, 0.9);"></path>
    </g>
  </defs>
  <path d="M 13.066 62.901 C 13.313 62.654 13.2 62.231 12.861 62.141 C 12.705 62.098 12.538 62.143 12.422 62.257 L 11.133 63.546 C 10.601 64.08 10.599 64.945 11.133 65.479 L 11.263 65.607 L 8.339 66.65 C 7.63 66.904 7.09 67.492 6.901 68.222 L 5.326 74.255 C 5.253 74.535 5.281 74.826 5.396 75.081 L 9.932 70.545 C 9.75 69.867 10.37 69.247 11.048 69.429 C 11.724 69.61 11.952 70.457 11.455 70.953 C 11.226 71.184 10.892 71.273 10.576 71.188 L 6.044 75.72 C 6.296 75.827 6.579 75.852 6.852 75.781 L 12.886 74.207 C 13.617 74.017 14.203 73.478 14.457 72.77 L 15.501 69.845 L 15.642 69.988 C 16.176 70.52 17.042 70.52 17.574 69.988 L 18.863 68.699 C 19.111 68.451 18.996 68.027 18.658 67.938 C 18.501 67.894 18.334 67.939 18.22 68.055 L 16.931 69.344 C 16.753 69.52 16.464 69.52 16.287 69.344 L 11.778 64.835 C 11.6 64.656 11.6 64.368 11.777 64.19 L 13.066 62.901 Z" style="transform-origin: 10.841px 70.28px;"></path>
  <path d="M 28.254 59.367 C 28.245 59.201 28.114 59.064 27.947 59.047 L 27.111 58.909 C 27.033 58.897 26.972 58.833 26.963 58.757 C 26.948 58.654 26.929 58.548 26.908 58.444 C 26.893 58.368 26.927 58.292 26.993 58.253 L 27.737 57.841 C 27.889 57.765 27.962 57.582 27.902 57.424 L 27.774 57.066 C 27.713 56.905 27.543 56.813 27.376 56.854 L 26.544 57.017 C 26.464 57.032 26.388 56.992 26.352 56.926 C 26.303 56.835 26.25 56.741 26.195 56.649 C 26.155 56.583 26.161 56.497 26.209 56.437 L 26.766 55.796 C 26.881 55.671 26.887 55.48 26.777 55.347 L 26.535 55.055 C 26.425 54.925 26.234 54.894 26.091 54.992 L 25.359 55.429 C 25.295 55.471 25.21 55.462 25.153 55.407 C 25.07 55.337 24.989 55.271 24.913 55.207 C 24.849 55.158 24.828 55.076 24.855 55.004 L 25.159 54.208 C 25.226 54.049 25.164 53.867 25.016 53.779 L 24.688 53.588 C 24.539 53.503 24.351 53.542 24.248 53.679 L 23.712 54.35 C 23.673 54.411 23.597 54.435 23.53 54.408 C 23.512 54.399 23.342 54.329 23.212 54.286 C 23.139 54.263 23.088 54.192 23.09 54.116 L 23.102 53.264 C 23.111 53.093 22.99 52.942 22.823 52.908 L 22.449 52.843 C 22.28 52.813 22.115 52.914 22.064 53.078 L 21.788 53.888 C 21.76 53.961 21.69 54.01 21.611 54.007 L 21.293 54.007 C 21.217 54.01 21.146 53.961 21.123 53.886 L 20.842 53.08 C 20.794 52.917 20.63 52.817 20.46 52.843 L 20.083 52.91 C 19.917 52.942 19.798 53.093 19.807 53.264 L 19.819 54.116 C 19.819 54.196 19.768 54.265 19.694 54.29 C 19.618 54.318 19.455 54.38 19.381 54.408 C 19.315 54.429 19.245 54.405 19.188 54.339 L 18.656 53.685 C 18.555 53.545 18.368 53.506 18.219 53.591 L 17.89 53.782 C 17.738 53.867 17.678 54.053 17.747 54.21 L 18.049 55.006 C 18.076 55.08 18.055 55.161 17.994 55.21 C 17.915 55.273 17.832 55.34 17.754 55.413 C 17.696 55.464 17.611 55.474 17.544 55.434 L 16.824 54.988 C 16.682 54.894 16.49 54.921 16.378 55.052 L 16.138 55.34 C 16.026 55.474 16.032 55.666 16.15 55.79 L 16.707 56.431 C 16.758 56.492 16.764 56.576 16.721 56.644 C 16.666 56.732 16.612 56.826 16.564 56.916 C 16.527 56.987 16.451 57.026 16.371 57.011 L 15.54 56.85 C 15.372 56.808 15.202 56.902 15.142 57.063 L 15.014 57.418 C 14.953 57.579 15.023 57.758 15.175 57.837 L 15.92 58.251 C 15.989 58.287 16.026 58.366 16.007 58.444 L 15.998 58.484 C 15.982 58.575 15.965 58.663 15.952 58.755 C 15.941 58.831 15.88 58.891 15.807 58.907 L 14.965 59.04 C 14.795 59.061 14.668 59.206 14.668 59.377 L 14.668 59.754 C 14.668 59.926 14.795 60.073 14.965 60.091 L 15.807 60.225 C 15.883 60.237 15.941 60.301 15.952 60.379 C 15.968 60.479 15.982 60.586 16.007 60.69 C 16.023 60.766 15.989 60.842 15.922 60.881 L 15.179 61.293 C 15.027 61.373 14.956 61.551 15.014 61.712 L 15.145 62.068 C 15.206 62.229 15.376 62.32 15.543 62.28 L 16.378 62.119 C 16.451 62.105 16.53 62.14 16.566 62.211 C 16.615 62.301 16.67 62.396 16.725 62.487 C 16.764 62.554 16.758 62.639 16.709 62.697 L 16.153 63.341 C 16.035 63.465 16.028 63.657 16.138 63.79 L 16.381 64.079 C 16.49 64.213 16.682 64.239 16.824 64.146 L 17.554 63.705 C 17.62 63.666 17.705 63.675 17.763 63.726 C 17.842 63.799 17.924 63.866 18.003 63.93 C 18.064 63.979 18.085 64.061 18.06 64.133 L 17.757 64.929 C 17.69 65.088 17.747 65.27 17.897 65.357 L 18.228 65.546 C 18.377 65.634 18.564 65.592 18.668 65.454 L 19.206 64.789 C 19.254 64.735 19.324 64.708 19.379 64.729 C 19.491 64.777 19.567 64.805 19.703 64.851 C 19.777 64.872 19.825 64.941 19.825 65.021 L 19.813 65.87 C 19.802 66.041 19.922 66.193 20.092 66.227 L 20.467 66.289 C 20.636 66.321 20.797 66.22 20.849 66.056 L 21.128 65.249 C 21.153 65.173 21.226 65.127 21.302 65.129 L 21.62 65.129 C 21.699 65.127 21.769 65.175 21.793 65.249 L 22.069 66.052 C 22.115 66.199 22.246 66.296 22.398 66.296 C 22.416 66.296 22.435 66.296 22.455 66.289 L 22.829 66.227 C 22.999 66.195 23.118 66.043 23.109 65.874 L 23.097 65.021 C 23.097 64.941 23.145 64.874 23.217 64.851 C 23.342 64.807 23.431 64.771 23.509 64.745 L 23.528 64.735 C 23.631 64.701 23.68 64.745 23.707 64.777 L 24.253 65.452 C 24.357 65.588 24.545 65.628 24.694 65.543 L 25.022 65.355 C 25.171 65.267 25.231 65.084 25.164 64.927 L 24.861 64.13 C 24.834 64.057 24.855 63.976 24.916 63.928 C 24.998 63.863 25.079 63.797 25.159 63.723 C 25.217 63.672 25.302 63.663 25.365 63.705 L 26.1 64.142 C 26.243 64.234 26.432 64.206 26.544 64.075 L 26.784 63.784 C 26.896 63.654 26.89 63.463 26.772 63.337 L 26.216 62.694 C 26.165 62.637 26.158 62.548 26.2 62.485 C 26.255 62.396 26.31 62.301 26.358 62.207 C 26.395 62.138 26.471 62.101 26.55 62.117 L 27.382 62.278 C 27.548 62.317 27.719 62.226 27.776 62.064 L 27.907 61.71 C 27.965 61.549 27.895 61.369 27.744 61.291 L 27 60.877 C 26.929 60.838 26.896 60.759 26.915 60.683 L 26.92 60.644 C 26.938 60.552 26.954 60.467 26.968 60.373 C 26.978 60.297 27.039 60.237 27.115 60.221 L 27.953 60.087 C 28.123 60.067 28.254 59.924 28.254 59.751 L 28.254 59.367 Z M 19.029 62.439 C 18.854 62.743 18.431 62.788 18.198 62.527 C 16.672 60.842 16.679 58.272 18.21 56.594 C 18.447 56.331 18.868 56.376 19.045 56.683 L 20.536 59.307 C 20.628 59.468 20.628 59.662 20.536 59.82 L 19.029 62.439 Z M 21.459 63.979 C 21.15 63.981 20.84 63.948 20.536 63.882 C 20.196 63.806 20.025 63.42 20.202 63.118 L 21.705 60.506 C 21.797 60.345 21.967 60.246 22.152 60.246 L 25.162 60.246 C 25.509 60.246 25.76 60.586 25.654 60.918 C 25.083 62.69 23.422 63.979 21.459 63.979 M 21.705 58.626 L 20.221 56.009 C 20.046 55.708 20.217 55.322 20.557 55.25 C 20.856 55.186 21.155 55.156 21.459 55.156 C 23.422 55.156 25.083 56.443 25.654 58.217 C 25.757 58.55 25.509 58.888 25.162 58.888 L 22.154 58.888 C 21.97 58.888 21.797 58.787 21.705 58.626" style="stroke-width: 1;"></path>
  <use href="#small-cog" transform="translate(68.37 56.959) matrix(0.290287, -0.139002, 0.138999, 0.290287, -43.55383, 11.049114) translate(-68.37 -56.959)"/>
  <use href="#small-cog" transform="translate(68.37 56.959) matrix(0.264672, -0.183131, 0.183127, 0.264672, -52.630967, -4.492847) translate(-68.37 -56.959)"/>
  <path d="M 21.234 47.558 L 20.639 47.451 C 20.584 47.316 20.515 47.188 20.432 47.069 L 20.653 46.511 C 20.671 46.468 20.658 46.418 20.621 46.389 L 20.165 46.025 C 20.128 45.995 20.078 45.992 20.04 46.019 L 19.548 46.358 C 19.412 46.301 19.269 46.257 19.124 46.231 L 18.889 45.683 C 18.869 45.641 18.825 45.618 18.78 45.624 L 18.199 45.689 C 18.155 45.694 18.117 45.728 18.108 45.773 L 18 46.359 C 17.863 46.417 17.733 46.49 17.612 46.576 L 17.066 46.356 C 17.022 46.339 16.974 46.351 16.944 46.388 L 16.573 46.842 C 16.545 46.879 16.541 46.928 16.568 46.968 L 16.905 47.451 C 16.846 47.588 16.804 47.73 16.778 47.877 L 16.229 48.112 C 16.187 48.13 16.162 48.173 16.167 48.22 L 16.232 48.799 C 16.238 48.845 16.271 48.883 16.316 48.891 L 16.907 48.998 C 16.965 49.133 17.038 49.26 17.123 49.379 L 16.902 49.949 C 16.885 49.992 16.899 50.041 16.935 50.07 L 17.391 50.434 C 17.426 50.464 17.479 50.465 17.516 50.438 L 18.014 50.096 C 18.148 50.15 18.286 50.189 18.427 50.213 L 18.664 50.773 C 18.682 50.815 18.727 50.84 18.771 50.835 L 19.352 50.77 C 19.397 50.765 19.434 50.731 19.443 50.685 L 19.55 50.086 C 19.68 50.032 19.806 49.962 19.922 49.881 L 20.488 50.105 C 20.53 50.123 20.581 50.11 20.608 50.074 L 20.972 49.617 C 21.002 49.581 21.005 49.53 20.978 49.492 L 20.634 48.992 C 20.688 48.86 20.727 48.722 20.752 48.58 L 21.312 48.346 C 21.354 48.326 21.379 48.283 21.374 48.237 L 21.308 47.652 C 21.304 47.608 21.276 47.571 21.234 47.558 M 18.885 49.172 C 18.158 49.254 17.616 48.519 17.908 47.85 C 18.201 47.179 19.109 47.077 19.543 47.666 C 19.641 47.799 19.703 47.958 19.721 48.122 C 19.779 48.644 19.404 49.114 18.885 49.172" class="clr-i-solid clr-i-solid-path-1" style="stroke-width: 1; fill: rgba(0, 0, 0, 0.9); transform-origin: 18.771px 48.23px;"></path>
  <use href="#small-cog" transform="translate(68.37 56.959) matrix(0.313189, 0.074163, -0.07416, 0.31319, -44.643651, -7.459295) translate(-68.37 -56.959)"/>
  <path d="M 28.979 56.561 C 28.863 56.676 28.696 56.72 28.541 56.677 C 28.201 56.587 28.088 56.164 28.335 55.917 L 57.029 27.223 L 57.673 27.867 Z M 27.365 46.852 C 27.249 46.967 27.082 47.011 26.927 46.968 C 26.587 46.878 26.474 46.455 26.721 46.208 C 26.848 46.081 40.577 32.352 51.368 21.562 L 52.012 22.206 Z" style="stroke-width: 1;"></path>
  <path d="M 51.401 20.517 C 51.154 20.27 50.731 20.383 50.641 20.722 C 50.598 20.878 50.642 21.045 50.757 21.161 L 57.847 28.251 C 58.134 28.674 58.973 28.318 58.49 27.607 L 51.401 20.517 Z" style="stroke-width: 1; transform-origin: 54.607px 24.454px;"></path>
  <path d="M 66.948 18.767 C 67.055 17.851 67.485 17.648 67.699 17.823 C 68.824 18.769 69.12 19.846 68.991 21.133 C 68.867 22.373 68.063 23.881 66.613 25.719 C 65.177 27.541 63.047 29.793 60.183 32.65 C 58.752 34.078 57.132 35.661 55.318 37.422 C 54.411 38.303 53.455 39.228 52.45 40.201 C 51.947 40.688 51.432 41.186 50.904 41.697 C 50.64 41.952 50.373 42.211 50.103 42.473 C 49.833 42.735 49.283 43.267 49.283 43.267 C 49.085 43.459 48.768 43.454 48.576 43.256 C 48.384 43.058 48.389 42.741 48.587 42.549 C 48.587 42.549 49.137 42.016 49.407 41.755 C 49.677 41.493 49.944 41.235 50.208 40.979 C 50.736 40.468 51.251 39.97 51.754 39.483 C 52.759 38.51 53.714 37.585 54.621 36.705 C 56.433 34.945 58.048 33.366 59.476 31.942 C 62.33 29.095 64.418 26.886 65.827 25.1 C 67.222 23.33 67.89 22.083 67.995 21.033 C 68.095 20.03 67.953 19.57 66.948 18.767 Z" style=""></path>
  <path d="M 50.984 20.783 L 67.418 4.601 C 68.641 3.316 70.066 2.704 71.327 2.699 C 72.601 2.694 73.873 3.289 74.731 4.167 C 75.587 5.043 76.181 6.345 76.212 7.671 C 76.243 8.985 75.694 10.506 74.503 11.827 L 58.275 28.128 L 57.566 27.422 L 57.569 27.419 L 51.687 21.494 L 51.685 21.496 Z" style=""></path>
  <path style="fill: none; stroke: rgb(0, 0, 0);" d="M 7.251 75.138 C 7.251 75.138 32.053 76.451 49.853 69.74 C 67.653 63.029 46.789 61.278 39.786 59.819 C 32.783 58.36 36.284 54.713 54.084 55.442"></path>
</svg>