<svg xmlns="http://www.w3.org/2000/svg" width="411198.69" height="90639.715" viewBox="0 0 108.79632 23.981758">
  <path fill="#B35F1F" d="M85.117 8.838v2.04c0 .18-.292.272-.636.272-.316-1.63-1.198-2.245-2.218-2.245-.954 0-1.36.61-1.36 1.245 0 2.133 4.625 1.902 4.625 5.168 0 2.312-1.768 3.537-3.947 3.537-2.087 0-3.127-.523-3.127-1v-2.06c0-.25.297-.318.635-.318.318 1.61 1.2 2.358 2.65 2.358 1.02 0 1.544-.57 1.544-1.246 0-2.492-4.65-1.995-4.65-5.373 0-1.79 1.405-3.332 3.742-3.332 1.61 0 2.743.476 2.743.953zM94.365 7.885c2.994 0 4.558 2.29 4.558 4.83 0 3.47-2.38 6.145-5.916 6.145-.728 0-1.472-.112-2.292-.364v4.214c0 .318.046.57.43.57h1.36v.702H86.68v-.703h.954c.364 0 .477-.252.477-.57V10.832c0-.338-.066-.523-.45-.61l-.59-.138c-.25-.067-.384-.14-.384-.385 0-.093.02-.16.092-.206 1.88-.27 2.994-.953 3.537-1.656.113 0 .41.02.41.14v1.516c1.082-1.087 2.307-1.61 3.64-1.61zm-3.65 6.895c0 2.04.723 3.08 2.338 3.08 2.132 0 3.2-1.973 3.2-4.126 0-2.404-1.226-4.1-3.333-4.1-1.226 0-2.2.542-2.2 1.244v3.902zM101.112 23.92c-.205 0-.272-.25-.272-.523 0-.292.067-.61.272-.61h4.465V1.112h-4.465c-.205 0-.272-.292-.272-.61 0-.25.067-.497.272-.497h7.684v23.92h-7.684z"/>
  <g fill="#B35F1F">
    <path d="M67.79 0h7.684c.18 0 .25.25.25.497 0 .318-.065.61-.25.61h-4.486v21.675h4.486c.18 0 .25.318.25.61 0 .272-.065.523-.25.523H67.79z"/>
  </g>
  <g fill="#B35F1F" letter-spacing="0" word-spacing="0" text-anchor="end" stroke-width=".265">
    <path d="M6.223 12.61l3.895-6.14.72 6.14zm4.678.782l.445 4.064c.064.53-.21.677-.423.677H9.737v.657h4.93v-.657h-.76c-.15 0-.276-.148-.318-.38-.382-2.16-1.63-11.854-1.78-13.865h-1.184c-2.773 4.424-7.05 10.647-9.187 13.61-.297.424-.593.635-.805.635H0v.657h4.445v-.657H3.47c-.4 0-.57-.275-.19-.89l2.456-3.85zM17.615 16.948c0-.487 1.185-4.53 1.883-6.858h2.816c.127 0 .19-.36.19-.677 0-.212-.02-.402-.127-.402l-2.625.212c.212-.783.72-2.56.72-2.73 0-.19-.254-.275-.593-.275-.445 0-1.1.232-1.165.508-.254.93-.444 1.65-.656 2.624l-1.483.105c-.105.02-.17.19-.17.38 0 .128.043.255.15.255h1.29c-.698 2.858-2.01 7.26-2.01 8.255 0 .487.17.783.698.783 1.228 0 4.255-3.344 4.255-4.064 0-.148-.233-.296-.318-.296-.063 0-.106.02-.127.063-1.037 1.44-2.074 2.35-2.498 2.35-.127 0-.232-.063-.232-.232zM23.98 13.794c2.837-.063 5.652-1.29 5.652-3.598 0-.762-.424-1.185-1.334-1.185-2.984 0-6.477 4.043-6.477 7.663 0 1.418.7 2.455 2.097 2.455 2.773 0 4.19-2.667 4.19-2.963 0-.17-.17-.36-.317-.36-.042 0-.106.02-.148.064-.89 1.078-2.053 1.734-2.88 1.734-.888 0-1.353-.38-1.353-1.503 0-.824.295-1.713.57-2.306zm.212-.53c1.016-1.99 3.048-3.364 4.022-3.364.254 0 .402.105.402.338 0 .805-2.096 2.54-4.424 3.027zM35.303 2.407c0-.127-.084-.233-.296-.233-.804.465-2.053.825-2.984.91-.106 0-.17.19-.17.36 0 .084.02.17.064.17l.656.126c.402.064.508.275.508.53 0 .57-3.534 12.636-3.534 14.075 0 .487.19.783.72.783 1.227 0 4.233-3.344 4.233-4.064 0-.148-.213-.296-.297-.296-.064 0-.106.02-.127.063-1.037 1.44-2.075 2.35-2.498 2.35-.127 0-.233-.063-.233-.232 0-.593 3.958-13.99 3.958-14.54zM39.41 9.01c-1.27 0-3.83 2.33-3.83 2.837 0 .127.168.275.295.275.042 0 .063 0 .127-.042.508-.55 1.44-1.355 1.884-1.355.19 0 .233.148.233.296 0 .763-2.9 5.738-2.9 7.22 0 .613.232.888.718.888 1.228 0 3.62-2.138 3.62-2.857 0-.105-.148-.232-.296-.232-.022 0-.085.042-.127.085-.318.402-1.397 1.333-1.82 1.333-.128 0-.255-.063-.255-.233 0-.846 3.09-6.053 3.09-7.387 0-.593-.275-.825-.74-.825zm.423-4.466c-.593 0-1.122.508-1.122 1.08 0 .593.53 1.122 1.123 1.122.614 0 1.08-.53 1.08-1.122 0-.572-.466-1.08-1.08-1.08zM43.12 13.794c2.837-.063 5.653-1.29 5.653-3.598 0-.762-.424-1.185-1.334-1.185-2.985 0-6.478 4.043-6.478 7.663 0 1.418.7 2.455 2.096 2.455 2.772 0 4.19-2.667 4.19-2.963 0-.17-.17-.36-.317-.36-.04 0-.105.02-.147.064-.89 1.078-2.053 1.734-2.88 1.734-.888 0-1.353-.38-1.353-1.503 0-.824.296-1.713.57-2.306zm.213-.53c1.016-1.99 3.048-3.364 4.02-3.364.255 0 .404.105.404.338 0 .805-2.096 2.54-4.424 3.027zM52.052 14.28c.678-1.756 1.313-3.534 1.313-4.444 0-.614-.275-.825-.72-.825-1.228 0-3.683 2.583-3.683 3.133 0 .127.19.275.318.275.063 0 .105-.02.148-.063.36-.53 1.608-1.63 2.01-1.63.212 0 .276.148.276.296 0 .573-.762 3.24-1.44 5.293-.38 1.164-.677 2.096-.677 2.307 0 .36.53.508.804.508.298 0 .298-.21.552-.804 1.48-3.408 4.043-7.6 4.762-7.6.593 0 .085 1.017 1.016 1.017.572 0 1.06-.592 1.06-1.396 0-.825-.298-1.333-1.144-1.333-1.207 0-2.392 1.355-4.382 5.335zM60.778 16.08c0-2.307-1.312-3.64-1.312-5.164 0-.466.254-.826.698-.826.995 0 .72 1.1 1.588 1.1.55 0 .846-.296.846-.846 0-.804-.57-1.333-1.65-1.333-1.25 0-2.858.995-2.858 3.218 0 1.736 1.122 3.048 1.122 4.72 0 .826-.34 1.25-.974 1.25-1.29 0-.825-1.525-1.82-1.525-.614 0-.847.38-.847.868 0 1.038.91 1.588 2.075 1.588 1.715 0 3.133-1.016 3.133-3.048z"/>
  </g>
</svg>
