
<svg style="position:absolute;width:0;height:0" xmlns="http://www.w3.org/2000/svg" overflow="hidden"><defs><symbol id="icon-logo" viewBox="0 0 165 42"><g id="Top-Navigation" stroke="none" stroke-width="1" fill="none" fill-rule="evenodd"><g id="Top-Navigation---options" transform="translate(-65 -512)"><g id="Components/global/header/desktop-2" transform="translate(32 496)"><g id="logo/horizontal/color/light-bg" transform="translate(33 16)"><path d="M21.158 0H16.57a1.98 1.98 0 00-1.846 1.269L.137 38.995C-.369 40.294.59 41.7 1.977 41.7h10.045c.815 0 1.55-.508 1.841-1.269l11.465-29.638L21.158 0z" id="Fill-5" fill="#BBBDBF"/><path d="M50.456 41.699H40.411a1.977 1.977 0 01-1.84-1.269l-8.12-20.989-4.233-10.948L22.935 0h12.928c.818 0 1.553.501 1.85 1.268l7.024 18.173 7.56 19.554c.506 1.3-.454 2.704-1.84 2.704" id="Fill-7" fill="#0056A5"/><path d="M30.34 30.466a4.48 4.48 0 01-4.47 4.486 4.479 4.479 0 01-4.471-4.486 4.479 4.479 0 014.47-4.487 4.48 4.48 0 014.472 4.487" id="Fill-9" fill="#404042"/><path d="M73.827 15.857h-.057l-2.616 7.21H76.5l-2.673-7.21zm-3.91 10.45l-1.063 2.862h-5.98l6.47-16.64h8.738l6.554 16.64h-5.864l-1.122-2.862h-7.732z" id="Fill-11" fill="#404042"/><path d="M96.91 19.052c6.382.355 7.963.976 7.963 4.792 0 2.751.144 5.458-9.342 5.458-5.49 0-9.14-.088-9.14-5.546h5.518c0 1.73.805 1.908 3.622 1.908 2.702 0 3.593-.133 3.593-1.531 0-1.443-.316-1.42-3.019-1.553l-1.264-.067c-5.318-.289-8.423-.266-8.423-5.037 0-4.77 3.479-5.08 9.113-5.08 4.714 0 8.738.066 8.738 4.659v.688H98.75c0-1.709-.92-1.709-3.219-1.709-3.104 0-3.363.488-3.363 1.42 0 1.332.833 1.375 2.357 1.465l2.386.133z" id="Fill-13" fill="#404042"/><path id="Fill-15" fill="#404042" d="M118.666 29.17h-5.749V16.39h-5.519v-3.861h17.075v3.86h-5.807z"/><path id="Fill-17" fill="#404042" d="M133.524 19.207h9.198v3.084h-9.198v3.24h10.002v3.638h-15.751v-16.64h15.55v3.638h-9.801z"/><path d="M164.731 22.868v.488c0 1.82-.029 3.462-1.982 4.726-1.956 1.243-4.342 1.22-6.842 1.22-5.865 0-10.147-.222-10.147-6.3v-4.305c0-5.503 3.823-6.302 10.147-6.302 5.922 0 8.68.466 8.795 5.458v.644h-5.92v-.644c-.202-1.486-1.553-1.597-3.507-1.597-3.278 0-3.594.777-3.594 3.15v2.597c0 2.484.144 3.439 3.594 3.439 2.386 0 3.534-.133 3.534-2.086v-.488h5.922z" id="Fill-19" fill="#404042"/></g></g></g></g></symbol><symbol id="icon-calculator" viewBox="0 0 18 22.1"><g id="Product-Detail-Page---Calculator-CTA"><g id="Specification-Table-_x2B_-Model-Dropdown-Design-DP" transform="translate(-793 -862)"><g id="Quick-Links" transform="translate(128 836)"><g id="CTA" transform="translate(648 15)"><g id="icon-calculator" transform="translate(17 11)"><defs><filter id="Adobe_OpacityMaskFilter" filterUnits="userSpaceOnUse" x="0" y="0" width="18" height="22.1"><feColorMatrix values="1 0 0 0 0 0 1 0 0 0 0 0 1 0 0 0 0 0 1 0"/></filter></defs><mask maskUnits="userSpaceOnUse" x="0" y="0" width="18" height="22.1" id="mask-2_1_"><g class="st0"><path id="path-1_1_" class="st1" d="M0 0h18v22.1H0z"/></g></mask><path id="Fill-1" class="st2" d="M16.1 11.5c0 .2-.2.3-.3.3h-3.2c-.2 0-.3-.2-.3-.3V9.8c0-.2.2-.3.3-.3h3.2c.2 0 .3.2.3.3v1.7zm0 7.6c0 .2-.2.3-.3.3h-3.2c-.2 0-.3-.2-.3-.3v-5.5c0-.2.2-.3.3-.3h3.2c.2 0 .3.2.3.3v5.5zM11 11.5c0 .2-.2.3-.3.3H7.5c-.2 0-.3-.2-.3-.3V9.8c0-.2.2-.3.3-.3h3.2c.2 0 .3.2.3.3v1.7zm0 3.8c0 .2-.2.3-.3.3H7.5c-.2 0-.3-.2-.3-.3v-1.8c0-.2.2-.3.3-.3h3.2c.2 0 .3.2.3.3v1.8zm0 3.8c0 .2-.2.3-.3.3H7.5c-.2 0-.3-.2-.3-.3v-1.8c0-.2.2-.3.3-.3h3.2c.2 0 .3.2.3.3v1.8zm-5.3-7.6c0 .2-.2.3-.3.3H2.2c-.2 0-.3-.2-.3-.3V9.8c0-.2.2-.3.3-.3h3.2c.2 0 .3.2.3.3v1.7zm0 3.8c0 .2-.2.3-.3.3H2.2c-.2 0-.3-.2-.3-.3v-1.8c0-.2.2-.3.3-.3h3.2c.2 0 .3.2.3.3v1.8zm0 3.8c0 .2-.2.3-.3.3H2.2c-.2 0-.3-.2-.3-.3v-1.8c0-.2.1-.3.3-.3h3.2c.2 0 .3.2.3.3v1.8zM3 3.7c0-.5.4-.8.8-.8h10.3c.5 0 .8.4.8.8v2.6c0 .5-.4.8-.8.8H3.9c-.5.1-.9-.3-.9-.8V3.7zM15.9 0H2.1C1 0 0 1 0 2.1v17.8C0 21.1 1 22 2.1 22h13.7c1.2 0 2.1-1 2.1-2.1V2.1C18 1 17 0 15.9 0z"/></g></g></g></g></g></symbol><symbol id="icon-calendar2" viewBox="0 0 15 16"><g id="Events-and-News-Modules" stroke="none" stroke-width="1" fill="none" fill-rule="evenodd"><g transform="translate(-164 -254)" fill="#0058A5" id="Events"><g id="Card" transform="translate(0 96)"><g id="Link" transform="translate(164 156)"><path d="M7.194 14.815h4.01v-4.01h-4.01v4.01zm-5.582 1.573h11.165V7.621H1.612v8.767zM10.379 2h1.611v1.612h.787c.425 0 .8.163 1.124.487.324.325.487.699.487 1.124v11.165c0 .426-.163.8-.487 1.124-.325.325-.699.488-1.124.488H1.612c-.45 0-.832-.163-1.144-.488A1.574 1.574 0 010 16.388V5.223c0-.425.157-.8.468-1.124a1.527 1.527 0 011.144-.487h.786V2H4.01v1.612h6.369V2z" id="icon/calendar"/></g></g></g></g></symbol><symbol id="icon-link" viewBox="0 0 32 32"><path d="M13.757 19.868a1.62 1.62 0 01-1.149-.476c-2.973-2.973-2.973-7.81 0-10.783l6-6C20.048 1.169 21.963.376 24 .376s3.951.793 5.392 2.233c2.973 2.973 2.973 7.81 0 10.783l-2.743 2.743a1.624 1.624 0 11-2.298-2.298l2.743-2.743a4.38 4.38 0 000-6.187c-.826-.826-1.925-1.281-3.094-1.281s-2.267.455-3.094 1.281l-6 6a4.38 4.38 0 000 6.187 1.624 1.624 0 01-1.149 2.774z"/><path d="M8 31.625a7.575 7.575 0 01-5.392-2.233c-2.973-2.973-2.973-7.81 0-10.783l2.743-2.743a1.624 1.624 0 112.298 2.298l-2.743 2.743a4.38 4.38 0 000 6.187c.826.826 1.925 1.281 3.094 1.281s2.267-.455 3.094-1.281l6-6a4.38 4.38 0 000-6.187 1.624 1.624 0 112.298-2.298c2.973 2.973 2.973 7.81 0 10.783l-6 6A7.575 7.575 0 018 31.625z"/></symbol><symbol id="icon-logo-stacked"><g id="Components_x2F_global_x2F_header_x2F_desktop-3" transform="translate(-33 -21)"><g id="logo_x2F_horizontal_x2F_color_x2F_light-bg" transform="translate(33 21)"><path id="Fill-5" fill="#bbbdbf" d="M110.4 0h-11c-2 0-3.7 1.2-4.4 3.1L59.8 93.9c-1.2 3.1 1.1 6.5 4.4 6.5h24.2c2 0 3.7-1.2 4.4-3.1L120.4 26l-10-26z"/><path id="Fill-7" fill="#0056a5" d="M180.9 100.4h-24.2c-2 0-3.7-1.2-4.4-3.1l-19.5-50.5-10.2-26.4L114.7 0h31.1c2 0 3.7 1.2 4.5 3.1l16.9 43.8L185.4 94c1.2 3-1.2 6.4-4.5 6.4"/><path id="Fill-9" fill="#404042" d="M132.5 73.3c0 6-4.8 10.8-10.8 10.8-5.9 0-10.8-4.8-10.8-10.8 0-6 4.8-10.8 10.8-10.8 6 0 10.8 4.9 10.8 10.8"/><path id="Fill-11" fill="#404042" d="M26.2 119.6h-.1l-6.3 17.3h12.8l-6.4-17.3zm-9.3 25.1l-2.5 6.9H0l15.5-39.8h20.9l15.7 39.8H38l-2.7-6.9H16.9z"/><path id="Fill-13" fill="#404042" d="M81.5 127.3c15.3.9 19.1 2.3 19.1 11.5 0 6.6.3 13.1-22.4 13.1-13.1 0-21.9-.2-21.9-13.3h13.2c0 4.1 1.9 4.6 8.7 4.6 6.5 0 8.6-.3 8.6-3.7 0-3.5-.8-3.4-7.2-3.7l-3-.2c-12.7-.7-20.2-.6-20.2-12.1s8.3-12.2 21.8-12.2c11.3 0 20.9.2 20.9 11.2v1.6H85.9c0-4.1-2.2-4.1-7.7-4.1-7.4 0-8.1 1.2-8.1 3.4 0 3.2 2 3.3 5.6 3.5l5.8.4z"/><path id="Fill-15" fill="#404042" d="M133.5 151.5h-13.7v-30.6h-13.2v-9.2h40.8v9.2h-13.9z"/><path id="Fill-17" fill="#404042" d="M169.1 127.7h22v7.3h-22v7.8H193v8.7h-37.7v-39.8h37.3v8.7h-23.5z"/><path id="Fill-19" fill="#404042" d="M243.8 136.4v1.2c0 4.4-.1 8.3-4.7 11.3-4.7 3-10.4 2.9-16.4 2.9-14 0-24.3-.5-24.3-15.1v-10.3c0-13.2 9.2-15.1 24.3-15.1 14.2 0 20.8 1.1 21.1 13.1v1.5h-14.2v-1.5c-.5-3.6-3.7-3.8-8.4-3.8-7.8 0-8.6 1.9-8.6 7.5v6.2c0 5.9.3 8.2 8.6 8.2 5.7 0 8.5-.3 8.5-5v-1.2h14.1z"/></g></g></symbol><symbol id="icon-booth" viewBox="0 0 20 20"><path d="M18 9.87V20H2V9.87a4.231 4.231 0 003.023-.391l-.022.011V14h10V9.5c.576.31 1.261.492 1.988.492.359 0 .708-.045 1.042-.128l-.029.006zM3 0h4l-.67 6.03A3.434 3.434 0 013.004 9H3C1.34 9 .42 7.73.95 6.15L3 0zm5 0h4l.7 6.3c.17 1.5-.91 2.7-2.42 2.7h-.56l-.062.001a2.38 2.38 0 01-2.357-2.713l-.001.013.7-6.3zm5 0h4l2.05 6.15C19.58 7.73 18.65 9 17 9a3.421 3.421 0 01-3.328-2.952l-.002-.018L13 0z"/></symbol><symbol id="icon-folder" viewBox="0 0 16 12.4"><g id="Page-1"><g id="events---d" transform="translate(-649 -371)"><g id="event-info-card" transform="translate(130 199)"><g id="Icons_x2F_calendar-Copy-2" transform="translate(519 170)"><g id="Shape"><path id="path-1_1_" d="M15.8 7.6c-.2-.4-.7-.6-1.1-.6h-1.2V4.8c0-.5-.4-1-1-1H6.7l-1-1.5c-.3-.1-.6-.3-.9-.3H1c-.6 0-1 .4-1 1v10.5c0 .5.5 1 1 1h11.8c.2 0 .3-.1.4-.3l2.6-5.3c.3-.4.2-.9 0-1.3zM1 2.9h3.9l1 1.5c.2.2.5.4.8.4h5.9V7H4.1c-.6 0-1.1.3-1.3.8L.9 11.9l.1-9c-.1.1 0 0 0 0zm14 5.5l-2.5 5H1.2l2.5-5.3c0-.1.2-.1.4-.1h10.6c.1 0 .2 0 .3.1.1.1.1.2 0 .3z"/></g></g></g></g></g></symbol><symbol id="icon-calendar" viewBox="0 0 16 16"><g id="Page-1"><g id="events---d" transform="translate(-649 -318)"><g id="event-info-card" transform="translate(130 199)"><g id="Icons_x2F_calendar" transform="translate(519 119)"><g id="Shape"><path id="path-1_1_" d="M13.9 1.3h-1.4V.5c0-.3-.2-.5-.5-.5s-.5.2-.5.5v.8h-7V.5C4.5.2 4.3 0 4 0s-.5.2-.5.5v.8H2.1c-1.2 0-2.1.9-2.1 2v10.6C0 15.1.9 16 2.1 16H14c1.1 0 2.1-.9 2.1-2.1V3.3c-.1-1.1-1-2-2.2-2zm-11.8 1h1.4v.5c0 .2.2.5.5.5s.5-.3.5-.5v-.5h7v.5c0 .3.2.5.5.5s.5-.2.5-.5v-.5h1.4c.6 0 1.1.5 1.1 1.1v1.2H1V3.3c0-.6.5-1 1.1-1zM13.9 15H2.1c-.6 0-1.1-.5-1.1-1.1V5.5h14v8.4c0 .6-.5 1.1-1.1 1.1z"/></g></g></g></g></g></symbol><symbol id="icon-map2" viewBox="0 0 32 32"><path d="M21 6L11 2 0 6v24l11-4 10 4 11-4V2L21 6zm-9-1.446l8 3.2v19.692l-8-3.2V4.554zM2 7.401l8-2.909v19.744l-8 2.909V7.401zm28 17.198l-8 2.909V7.764l8-2.909v19.744z"/></symbol><symbol id="search-plus" viewBox="0 0 50 51"><g id="Page-1" stroke="none" stroke-width="1" fill="none" fill-rule="evenodd"><g id="Product-Detail-v5---d" transform="translate(-696 -3670)" fill="#F5F5F5" fill-rule="nonzero"><g id="Media-Gallery" transform="translate(61 3408)"><path d="M683.535 311.889l1.104-1.104a1.173 1.173 0 000-1.66l-12.598-12.598a1.2 1.2 0 00-.83-.341h-.83a20.224 20.224 0 005.244-13.623 20.267 20.267 0 00-20.049-20.313c-11.426-.146-20.722 9.15-20.576 20.576a20.267 20.267 0 0020.312 20.049 20.22 20.22 0 0013.623-5.244v.83c0 .312.118.605.342.83l12.598 12.598a1.173 1.173 0 001.66 0zm-28.223-12.139c-9.501 0-17.187-7.686-17.187-17.187 0-9.502 7.686-17.188 17.187-17.188 9.502 0 17.188 7.686 17.188 17.188 0 9.501-7.686 17.187-17.188 17.187zm.372-6.25c.644 0 1.171-.527 1.171-1.172v-8.203h8.204c.644 0 1.171-.527 1.171-1.172v-.781c0-.645-.527-1.172-1.171-1.172h-8.204v-8.203c0-.645-.527-1.172-1.171-1.172h-.782c-.644 0-1.172.527-1.172 1.172V281h-8.203c-.644 0-1.172.527-1.172 1.172v.781c0 .645.528 1.172 1.172 1.172h8.203v8.203c0 .645.528 1.172 1.172 1.172h.782zm27.851 18.389l1.104-1.104a1.173 1.173 0 000-1.66l-12.598-12.598a1.2 1.2 0 00-.83-.341h-.83a20.224 20.224 0 005.244-13.623 20.267 20.267 0 00-20.049-20.313c-11.426-.146-20.722 9.15-20.576 20.576a20.267 20.267 0 0020.312 20.049 20.22 20.22 0 0013.623-5.244v.83c0 .312.118.605.342.83l12.598 12.598a1.173 1.173 0 001.66 0zm-28.223-12.139c-9.501 0-17.187-7.686-17.187-17.187 0-9.502 7.686-17.188 17.187-17.188 9.502 0 17.188 7.686 17.188 17.188 0 9.501-7.686 17.187-17.188 17.187zm.372-6.25c.644 0 1.171-.527 1.171-1.172v-8.203h8.204c.644 0 1.171-.527 1.171-1.172v-.781c0-.645-.527-1.172-1.171-1.172h-8.204v-8.203c0-.645-.527-1.172-1.171-1.172h-.782c-.644 0-1.172.527-1.172 1.172V281h-8.203c-.644 0-1.172.527-1.172 1.172v.781c0 .645.528 1.172 1.172 1.172h8.203v8.203c0 .645.528 1.172 1.172 1.172h.782z" id="ssearch-plus"/></g></g></g></symbol><symbol id="icon-info" viewBox="0 0 26 26"><path d="M13 0C5.8 0 0 5.8 0 13s5.8 13 13 13 13-5.8 13-13S20.2 0 13 0zm-2 6.5c0-.8.7-1.5 1.5-1.5h1c.8 0 1.5.7 1.5 1.5v1c0 .8-.7 1.5-1.5 1.5h-1c-.8 0-1.5-.7-1.5-1.5v-1zM17 21H9v-2h2v-6H9v-2h6v8h2v2z"/></symbol><symbol id="icon-video-button" viewBox="0 0 125 80"><path d="M0 0h125v80H0z"/><path class="st0" fill="#fff" d="M53 22v36l26-18z"/></symbol><symbol id="icon-pin" viewBox="0 0 22 32"><g id="locator-v2---d" transform="translate(-851 -549)"><g id="body" transform="translate(130 274)"><g id="map" transform="translate(598 105)"><g id="icon_x2F_pin" transform="translate(118 170)"><g id="Shape"><path id="path-1_1_" d="M16 0C10.1 0 5.3 4.8 5.3 10.7c0 1.8.4 3.5 1.3 5.1l8.8 15.9c.1.2.3.3.6.3s.5-.1.6-.3l8.8-15.9c.8-1.5 1.3-3.3 1.3-5.1C26.7 4.8 21.9 0 16 0zm0 16c-2.9 0-5.3-2.4-5.3-5.3s2.4-5.3 5.3-5.3 5.3 2.4 5.3 5.3S18.9 16 16 16z"/></g></g></g></g></g></symbol><symbol id="icon-mail" viewBox="0 0 24 24"><g id="Product-Detail-v5---d" transform="translate(-1110 -5779)"><g id="Share" transform="translate(976 5758)"><g id="share-icons" transform="translate(1 56)"><g id="mail" transform="translate(168)"><g id="Icons_x2F_mail" transform="translate(10 8)"><g id="Shape"><path id="path-3_1_" d="M-23.1-39h-19.8c-1.2 0-2.1.9-2.1 2.1v12.7c0 1.2 1 2.1 2.1 2.1h19.8c1.2 0 2.1-.9 2.1-2.1v-12.7c0-1.1-.9-2.1-2.1-2.1zm-.3 1.4l-8.1 8.1c-.4.4-.9.6-1.5.6s-1.1-.2-1.5-.6l-8.1-8.1h19.2zm-20.2 13.1v-12.1l6.1 6-6.1 6.1zm1 1l6.1-6 1 1c.7.7 1.5 1 2.5 1s1.8-.4 2.5-1l1-1 6.1 6h-19.2zm20.2-1l-6.1-6 6.1-6v12z"/></g></g></g></g></g></g></symbol><symbol id="icon-download" viewBox="0 0 15 16"><g id="Product-Detail-v5---d" transform="translate(-801 -2010)"><g id="Downloads" transform="translate(128 1871)"><g id="Components_x2F_content_x2F_download-item-Copy-2" transform="translate(601.333 91)"><g id="Group-3" transform="translate(13 11)"><g id="Group-2" transform="translate(59)"><g id="Group" transform="translate(0 34)"><g id="icon_x2F_download" transform="translate(0 3.5)"><g id="Combined-Shape"><path id="path-1_1_" d="M1.7 10.5v3h11v-3h2v4c0 .6-.4 1-1 1H.7c-.6 0-1-.4-1-1v-4h2zm6.5-11c.3 0 .5.2.5.5v6.5h2c.2 0 .4.1.5.3 0 .2 0 .4-.2.5l-3.5 4c-.1.1-.2.2-.4.2s-.3-.1-.4-.2l-3.5-4c0-.1-.1-.3 0-.5s.3-.3.5-.3h2V0c0-.3.2-.5.5-.5h2z"/></g></g></g></g></g></g></g></g></symbol><symbol id="icon-logo-only" viewBox="0 0 52.4 41.7"><g id="Components_x2F_global_x2F_header_x2F_desktop-3" transform="translate(-33 -21)"><g id="logo_x2F_horizontal_x2F_color_x2F_light-bg" transform="translate(33 21)"><path id="Fill-5" class="st0" fill="#005198" d="M21.2 0h-4.6c-.8 0-1.5.5-1.8 1.3L.1 39c-.5 1.3.5 2.7 1.8 2.7h10c.8 0 1.5-.5 1.8-1.3l11.5-29.6-4-10.8z"/><path id="Fill-7" class="st1" fill="#004480" d="M50.5 41.7h-10c-.8 0-1.5-.5-1.8-1.3l-8.1-21-4.4-10.9L22.9 0h12.9c.8 0 1.6.5 1.9 1.3l7 18.2L52.3 39c.5 1.3-.5 2.7-1.8 2.7"/><path id="Fill-9" class="st2" fill="#004693" d="M30.3 30.5c0 2.5-2 4.5-4.5 4.5s-4.5-2-4.5-4.5 2-4.5 4.5-4.5 4.5 2 4.5 4.5"/></g></g></symbol><symbol id="icon-instagram" viewBox="0 0 20 20"><path d="M17 1H3c-1.1 0-2 .9-2 2v14c0 1.101.9 2 2 2h14c1.1 0 2-.899 2-2V3c0-1.1-.9-2-2-2zM9.984 15.523a5.539 5.539 0 005.538-5.539c0-.338-.043-.664-.103-.984H17v7.216a.69.69 0 01-.693.69H3.693a.69.69 0 01-.693-.69V9h1.549c-.061.32-.104.646-.104.984a5.54 5.54 0 005.539 5.539zM6.523 9.984a3.461 3.461 0 013.462-3.461 3.461 3.461 0 110 6.923 3.461 3.461 0 01-3.462-3.462zM16.307 6h-1.615A.694.694 0 0114 5.308V3.691c0-.382.31-.691.691-.691h1.615c.384 0 .694.309.694.691v1.616c0 .381-.31.693-.693.693z"/></symbol><symbol id="icon-search" viewBox="0 0 20 20"><path d="M12.9 14.32a7.947 7.947 0 01-4.908 1.682 8 8 0 116.305-3.075l.013-.018 5.35 5.33-1.42 1.42-5.33-5.34zM8 14A6 6 0 108 2a6 6 0 100 12z"/></symbol><symbol id="icon-location" viewBox="0 0 16 28"><path d="M12 10c0-2.203-1.797-4-4-4s-4 1.797-4 4 1.797 4 4 4 4-1.797 4-4zm4 0c0 .953-.109 1.937-.516 2.797L9.796 24.891C9.468 25.579 8.749 26 7.999 26s-1.469-.422-1.781-1.109L.515 12.797C.109 11.938-.001 10.953-.001 10c0-4.422 3.578-8 8-8s8 3.578 8 8z"/></symbol><symbol id="icon-phone" viewBox="0 0 32 32"><path d="M22 20c-2 2-2 4-4 4s-4-2-6-4-4-4-4-6 2-2 4-4-4-8-6-8-6 6-6 6c0 4 4.109 12.109 8 16s12 8 16 8c0 0 6-4 6-6s-6-8-8-6z"/></symbol><symbol id="icon-language" viewBox="0 0 32 32"><path d="M15 2C6.716 2 0 8.716 0 17s6.716 15 15 15c8.284 0 15-6.716 15-15S23.284 2 15 2zm8.487 20c.268-1.264.437-2.606.492-4h3.983a12.866 12.866 0 01-.959 4h-3.516zM6.513 12a23.855 23.855 0 00-.492 4H2.038c.104-1.381.426-2.722.959-4h3.516zm14.926 0c.3 1.28.481 2.62.54 4H16v-4h5.439zM16 10V4.146c.456.133.908.355 1.351.668.831.586 1.625 1.488 2.298 2.609.465.775.867 1.638 1.203 2.578H16zm-5.649-2.578c.673-1.121 1.467-2.023 2.298-2.609A4.557 4.557 0 0114 4.145v5.854H9.148c.336-.94.738-1.803 1.203-2.578zM14 12v4H8.021c.059-1.38.24-2.72.54-4H14zM2.997 22a12.894 12.894 0 01-.959-4h3.983c.055 1.394.224 2.736.492 4H2.997zm5.024-4H14v4H8.561c-.3-1.28-.481-2.62-.54-4zM14 24v5.854a4.557 4.557 0 01-1.351-.668c-.831-.586-1.625-1.488-2.298-2.609a14.478 14.478 0 01-1.203-2.578H14zm5.649 2.578c-.673 1.121-1.467 2.023-2.298 2.609a4.581 4.581 0 01-1.351.668v-5.854h4.852a14.51 14.51 0 01-1.203 2.578zM16 22v-4h5.979c-.059 1.38-.24 2.72-.54 4H16zm7.98-6a23.855 23.855 0 00-.492-4h3.516c.533 1.278.855 2.619.959 4H23.98zm1.978-6h-2.997c-.582-1.836-1.387-3.447-2.354-4.732a12.974 12.974 0 013.585 2.54A13.07 13.07 0 0125.958 10zM5.808 7.808a12.974 12.974 0 013.585-2.54C8.426 6.553 7.622 8.164 7.039 10H4.042a12.97 12.97 0 011.766-2.192zM4.042 24h2.997c.583 1.836 1.387 3.447 2.354 4.732a12.974 12.974 0 01-3.585-2.54A13.07 13.07 0 014.042 24zm20.15 2.192a12.974 12.974 0 01-3.585 2.54c.967-1.285 1.771-2.896 2.354-4.732h2.997a12.97 12.97 0 01-1.766 2.192z"/></symbol><symbol id="icon-facebook" viewBox="0 0 32 32"><path d="M19 6h5V0h-5c-3.86 0-7 3.14-7 7v3H8v6h4v16h6V16h5l1-6h-6V7c0-.542.458-1 1-1z"/></symbol><symbol id="icon-twitter" viewBox="0 0 32 32"><path d="M32 7.075a12.941 12.941 0 01-3.769 1.031 6.601 6.601 0 002.887-3.631 13.21 13.21 0 01-4.169 1.594A6.565 6.565 0 0022.155 4a6.563 6.563 0 00-6.563 6.563c0 .512.056 1.012.169 1.494A18.635 18.635 0 012.23 5.195a6.56 6.56 0 00-.887 3.3 6.557 6.557 0 002.919 5.463 6.565 6.565 0 01-2.975-.819v.081a6.565 6.565 0 005.269 6.437 6.574 6.574 0 01-2.968.112 6.588 6.588 0 006.131 4.563 13.17 13.17 0 01-9.725 2.719 18.568 18.568 0 0010.069 2.95c12.075 0 18.681-10.006 18.681-18.681 0-.287-.006-.569-.019-.85A13.216 13.216 0 0032 7.076z"/></symbol><symbol id="icon-youtube" viewBox="0 0 32 32"><path d="M31.681 9.6s-.313-2.206-1.275-3.175C29.187 5.15 27.825 5.144 27.2 5.069c-4.475-.325-11.194-.325-11.194-.325h-.012s-6.719 0-11.194.325c-.625.075-1.987.081-3.206 1.356C.631 7.394.325 9.6.325 9.6s-.319 2.588-.319 5.181v2.425c0 2.587.319 5.181.319 5.181s.313 2.206 1.269 3.175c1.219 1.275 2.819 1.231 3.531 1.369 2.563.244 10.881.319 10.881.319s6.725-.012 11.2-.331c.625-.075 1.988-.081 3.206-1.356.962-.969 1.275-3.175 1.275-3.175s.319-2.587.319-5.181v-2.425c-.006-2.588-.325-5.181-.325-5.181zM12.694 20.15v-8.994l8.644 4.513-8.644 4.481z"/></symbol><symbol id="icon-linkedin" viewBox="0 0 32 32"><path d="M12 12h5.535v2.837h.079c.77-1.381 2.655-2.837 5.464-2.837C28.92 12 30 15.637 30 20.367V30h-5.769v-8.54c0-2.037-.042-4.657-3.001-4.657-3.005 0-3.463 2.218-3.463 4.509V30H12V12zM2 12h6v18H2V12zm6-5a3 3 0 11-6 0 3 3 0 016 0z"/></symbol><symbol id="icon-arrow-left" viewBox="0 0 50 49"><g id="Page-1"><g id="Product-Detail-v5---d" transform="translate(-61 -2457)"><g id="Features" transform="translate(61 2225)"><path d="M25 280.469c13.379 0 24.219-10.84 24.219-24.219 0-13.379-10.84-24.219-24.22-24.219-13.378 0-24.218 10.84-24.218 24.219 0 13.379 10.84 24.219 24.219 24.219zm-1.523-9.61L10.517 257.9a2.334 2.334 0 010-3.31l12.96-12.95a2.334 2.334 0 013.31 0l1.074 1.065a2.346 2.346 0 01-.039 3.35l-7.373 7.07h17.832a2.338 2.338 0 012.344 2.344v1.562a2.338 2.338 0 01-2.344 2.344H20.45l7.373 7.07c.947.909.967 2.422.04 3.35l-1.075 1.064a2.334 2.334 0 01-3.31 0zM25 280.47c13.379 0 24.219-10.84 24.219-24.219 0-13.379-10.84-24.219-24.22-24.219-13.378 0-24.218 10.84-24.218 24.219 0 13.379 10.84 24.219 24.219 24.219zm-1.523-9.61l-12.96-12.96a2.334 2.334 0 010-3.31l12.96-12.95a2.334 2.334 0 013.31 0l1.074 1.065a2.346 2.346 0 01-.039 3.35l-7.373 7.07h17.832a2.338 2.338 0 012.344 2.344v1.562a2.338 2.338 0 01-2.344 2.344H20.45l7.373 7.07c.947.909.967 2.422.04 3.35l-1.075 1.064a2.334 2.334 0 01-3.31 0z" id="aarrow-circle-left"/></g></g></g></symbol><symbol id="icon-arrow-right" viewBox="0 0 50 49"><g id="Page-1"><g id="Product-Detail-v5---d" transform="translate(-1326 -2454)"><g id="Features" transform="translate(61 2225)"><path d="M1290 277.469c13.379 0 24.219-10.84 24.219-24.219 0-13.379-10.84-24.219-24.22-24.219-13.378 0-24.218 10.84-24.218 24.219 0 13.379 10.84 24.219 24.219 24.219zm-1.787-9.61l-1.074-1.064a2.346 2.346 0 01.039-3.35l7.373-7.07h-17.832a2.338 2.338 0 01-2.344-2.344v-1.562a2.338 2.338 0 012.344-2.344h17.832l-7.373-7.07a2.358 2.358 0 01-.04-3.36l1.075-1.064a2.334 2.334 0 013.31 0l12.96 12.969a2.334 2.334 0 010 3.31l-12.96 12.95a2.334 2.334 0 01-3.31 0zm1.787 9.61c13.379 0 24.219-10.84 24.219-24.219 0-13.379-10.84-24.219-24.22-24.219-13.378 0-24.218 10.84-24.218 24.219 0 13.379 10.84 24.219 24.219 24.219zm-1.787-9.61l-1.074-1.064a2.346 2.346 0 01.039-3.35l7.373-7.07h-17.832a2.338 2.338 0 01-2.344-2.344v-1.562a2.338 2.338 0 012.344-2.344h17.832l-7.373-7.07a2.358 2.358 0 01-.04-3.36l1.075-1.064a2.334 2.334 0 013.31 0l12.96 12.969a2.334 2.334 0 010 3.31l-12.96 12.95a2.334 2.334 0 01-3.31 0z" id="aarrow-circle-right"/></g></g></g></symbol></defs></svg>