<svg xmlns="http://www.w3.org/2000/svg" viewBox="-175 -175 350 350"  xmlns:bx="https://boxy-svg.com">
  <defs>
    <symbol id="pin" viewBox="0 0 200 200" bx:pinned="true">
      <path d="M 100 0 C 100 24.745 100 55.2 100 100 C 55.2 100 30.483 100 0 100 C -55.228 100 -100 55.228 -100 0 C -100 -55.228 -55.228 -100 0 -100 C 55.228 -100 100 -55.228 100 0 Z M 0 -50 C -27.5 -50 -50 -27.5 -50 0 C -50 27.5 -27.5 50 0 50 C 27.5 50 25 50 50 50 C 50 25 50.019 24.239 50 0 C 50 -27.5 27.5 -50 0 -50 Z" transform="matrix(1, 0, 0, 1, 100.00000000000006, 100)"></path>
    </symbol>
  </defs>
  <rect id="bg" fill='black' width="100%" height="100%" style="transform-origin: 0px 0px;" x="-50%" y="-50%"></rect>
  <g>
  <use id="magenta" href="#pin" width="200" height="200" transform="matrix(0, -1.000007, 0.999993, 0, -175.000705, -49.999299)" style="fill: rgb(255, 0, 255); transform-box: fill-box; transform-origin: 50% 50%; mix-blend-mode: screen;"></use>
  <use id="cyan" href="#pin" width="200" height="200" transform="matrix(0.707107, 0.707111, -0.707102, 0.707107, -100.000009, -165.578189)" style="fill: rgb(0, 255, 255); transform-box: fill-box; transform-origin: 50% 50%; mix-blend-mode: screen;"></use>
  <use id="yellow" href="#pin" width="200" height="200" transform="matrix(-1, 0, 0, -1, -25, -50.000001)" style="fill: rgb(255, 255, 0); transform-box: fill-box; transform-origin: 50% 50%; mix-blend-mode: screen;"></use>
  <rect x="-74.78" y="-50" width="150" height="50" style="fill: rgb(255, 255, 255); mix-blend-mode: screen;"></rect>
  </g>
</svg>