<svg xmlns="http://www.w3.org/2000/svg" viewBox="-300 -300 600 600" preserveAspectRatio="xMidYMid slice" xmlns:bx="https://boxy-svg.com">
  <defs>
    <filter id="f1" primitiveUnits="objectBoundingBox" color-interpolation-filters="sRGB">
      <feFlood in="SourceGraphic" x="0.70" y="0.1" width="0.15" height="0.25" />
      <feComposite operator="in" in="SourceGraphic"/>
      <feColorMatrix type="saturate" values="0"/>
      <feComposite operator="over" in2="SourceGraphic"/>
    </filter>
    <filter id="f2" primitiveUnits="objectBoundingBox" color-interpolation-filters="sRGB">
      <feFlood in="SourceGraphic" x="0.25" y="0.4" width="0.25" height="0.35" />
      <feComposite operator="in" in="SourceGraphic"/>
      <feColorMatrix type="saturate" values="0"/>
      <feComposite operator="over" in2="SourceGraphic"/>
    </filter>
    <filter id="glow" x="-200%" y="-200%" width="400%" height="400%">
        <feGaussianBlur stdDeviation="60" result="coloredBlur"/>
        <feMerge>
            <feMergeNode in="coloredBlur"/>
            <feMergeNode in="SourceGraphic"/>
        </feMerge>
    </filter>
    <symbol id="pin" viewBox="0 0 200 200" bx:pinned="true">
      <path d="M 100 0 C 100 24.745 100 55.2 100 100 C 55.2 100 30.483 100 0 100 C -55.228 100 -100 55.228 -100 0 C -100 -55.228 -55.228 -100 0 -100 C 55.228 -100 100 -55.228 100 0 Z M 0 -50 C -27.5 -50 -50 -27.5 -50 0 C -50 27.5 -27.5 50 0 50 C 27.5 50 25 50 50 50 C 50 25 50.019 24.239 50 0 C 50 -27.5 27.5 -50 0 -50 Z" transform="matrix(1, 0, 0, 1, 100.00000000000006, 100)"></path>
    </symbol>
  </defs>
  <rect id="bg" class='bg' fill='#22222200' width="100%" height="100%" style="transform-origin: 0px 0px;" x="-50%" y="-50%"></rect>
  <g class='tgzr_logo_container'>
  <rect id='trick' class='trick' x="-74.78" y="-50" width="150" height="50"></rect>
  <use id="magenta" class="pin" href="#pin" width="200" height="200" transform="matrix(0, -1.000007, 0.999993, 0, -175.000705, -49.999299)" ></use>
  <use id="cyan" class="pin" href="#pin" width="200" height="200" transform="matrix(0.707107, 0.707111, -0.707102, 0.707107, -100.000009, -165.578189)" ></use>
  <use id="yellow" class="pin" href="#pin" width="200" height="200" transform="matrix(-1, 0, 0, -1, -25, -50.000001)" ></use>
  <use id="magenta_glow" filter='url(#glow)' class="pin glow" href="#pin" width="200" height="200" transform="matrix(0, -1.000007, 0.999993, 0, -175.000705, -49.999299)" ></use>
  <use id="cyan_glow" filter='url(#glow)' class="pin glow" href="#pin" width="200" height="200" transform="matrix(0.707107, 0.707111, -0.707102, 0.707107, -100.000009, -165.578189)" ></use>
  <use id="yellow_glow" filter='url(#glow)' class="pin glow" href="#pin" width="200" height="200" transform="matrix(-1, 0, 0, -1, -25, -50.000001)" ></use>
  </g>
</svg>