<svg xmlns="http://www.w3.org/2000/svg" viewBox="0 0 1200 1200">
  <path
    fill="#e00000"
    stroke="#000"
    stroke-width="20"
    stroke-linecap="square"
    stroke-linejoin="round"
    d="M 431.8,154.51667 C 644.6768,68.500527 584.88112,81.047831 698.49999,42.333336 804.46858,18.001446 792.14968,181.27767 867.88952,172.89837 968.47273,161.77058 1108.149,-0.98715275 1128.4379,87.996693 1177.6114,303.66477 956.64967,504.15975 960.9666,662.51666 c 2.42,107.72968 250.5353,210.41971 186.2667,364.06664 -75.6254,147.966 -374.97117,147.6506 -565.14998,103.7167 -141.65418,-55.7786 -64.90934,-196.81997 -149.53991,-240.77246 -99.24146,-51.5406 -294.69609,38.88224 -326.71008,16.40578 -107.5441055,-72.47543 126.81131,-294.86939 158.75,-406.4 C 298.22312,347.08545 64.902669,245.73009 88.899999,135.46666 161.84387,-29.886139 255.41111,212.59174 431.8,154.51667 Z"/>
  <path
    fill="#1448ff"
    stroke="#000"
    stroke-width="13.919"
    stroke-linecap="square"
    stroke-linejoin="round"
    d="m 499.12999,292.64783 c 148.15349,-59.8637 106.53816,-51.1313 185.61222,-78.07499 75.40888,-19.77975 65.17636,96.69954 117.88814,90.86789 70.00176,-7.74449 167.21075,-121.01717 181.33095,-59.08808 34.2228,150.09612 -119.55753,289.63237 -116.55314,399.84226 1.68429,74.97542 174.36234,146.44346 129.63404,253.37542 C 944.40999,1002.5486 736.07762,1002.3291 603.721,971.7529 505.13552,932.93323 558.54677,834.77427 499.64738,804.18514 430.5794,768.31501 294.55102,831.24558 272.27061,815.60289 197.42433,765.16297 360.52606,610.38593 382.75408,532.76522 406.16599,426.66777 243.78455,356.12861 260.4857,279.3898 c 50.76593,-115.07874 115.88489,53.67588 238.64429,13.25803 z"/>
  <path
    fill="#9b49ff"
    stroke="#000"
    stroke-width="9.10841"
    stroke-linecap="square"
    stroke-linejoin="round"
    d="m 553.38946,397.38037 c 96.94835,-39.17348 69.7162,-33.45919 121.46051,-51.09054 52.11609,-17.41086 42.64996,63.27803 77.14337,59.46193 45.8076,-5.06783 109.419,-79.19095 118.65894,-38.66593 22.39464,98.21956 -78.23579,189.52898 -76.26978,261.64788 1.10216,49.06224 114.09883,95.82934 84.82963,165.80323 -34.44135,67.38669 -170.76941,67.24305 -257.38064,47.23467 C 557.31935,816.36888 592.27048,752.13584 553.72803,732.119 508.53148,708.64638 419.51754,749.82675 404.93774,739.59052 355.96,706.58376 462.69014,605.30111 477.23566,554.50784 492.55589,485.08003 386.29709,438.92078 397.22595,388.70461 c 33.2201,-75.30497 75.83249,35.1243 156.16351,8.67576 z"/>
  <path
    fill="#ff79f7"
    stroke="#000"
    stroke-width="5.60616"
    stroke-linecap="square"
    stroke-linejoin="round"
    d="m 592.30615,476.17589 c 59.671,-24.11099 42.90981,-20.59389 74.75806,-31.44585 36.3104,-19.34392 26.25074,38.94716 47.48118,36.59838 28.19424,-3.11921 67.3466,-48.74145 73.03371,-23.7986 13.78374,60.45343 -48.15356,116.65371 -46.94349,161.04237 0.67837,30.19745 70.227,58.98226 52.21202,102.05067 -21.1984,41.47602 -105.10733,41.38761 -158.41591,29.0726 -39.70675,-15.6352 -18.19459,-55.17016 -41.91718,-67.49038 -27.81815,-14.44723 -82.60558,10.89899 -91.57934,4.59866 -30.14544,-20.31542 35.54618,-82.65415 44.49884,-113.91704 9.42949,-42.73231 -55.97203,-71.14299 -49.24539,-102.05068 20.44673,-46.34966 46.67434,21.61875 96.1175,5.33987 z"/>
</svg>
