<svg width="800" height="300" viewBox="0 0 800 300" fill="none" xmlns="http://www.w3.org/2000/svg">
  <!-- Background gradient -->
  <defs>
    <linearGradient id="bgGradientDark" x1="0%" y1="0%" x2="100%" y2="100%">
      <stop offset="0%" style="stop-color:#1E1B4B;stop-opacity:1" />
      <stop offset="100%" style="stop-color:#312E81;stop-opacity:1" />
    </linearGradient>
    <linearGradient id="accentGradientDark" x1="0%" y1="0%" x2="100%" y2="0%">
      <stop offset="0%" style="stop-color:#818CF8" />
      <stop offset="100%" style="stop-color:#A78BFA" />
    </linearGradient>
  </defs>

  <rect width="800" height="300" rx="16" fill="url(#bgGradientDark)"/>

  <!-- Decorative circles -->
  <circle cx="650" cy="80" r="60" fill="#4338CA" opacity="0.3"/>
  <circle cx="720" cy="180" r="40" fill="#4F46E5" opacity="0.3"/>
  <circle cx="100" cy="220" r="50" fill="#4338CA" opacity="0.3"/>

  <!-- Code window mockup -->
  <rect x="60" y="50" width="380" height="200" rx="8" fill="#1F2937" filter="drop-shadow(0 4px 6px rgba(0,0,0,0.3))"/>
  <rect x="60" y="50" width="380" height="28" rx="8" fill="#374151"/>
  <circle cx="78" cy="64" r="5" fill="#EF4444"/>
  <circle cx="94" cy="64" r="5" fill="#F59E0B"/>
  <circle cx="110" cy="64" r="5" fill="#10B981"/>

  <!-- Code lines -->
  <text x="76" y="102" font-family="monospace" font-size="11" fill="#818CF8">@eval</text>
  <text x="76" y="118" font-family="monospace" font-size="11" fill="#E5E7EB">async def </text>
  <text x="142" y="118" font-family="monospace" font-size="11" fill="#A78BFA">test_agent</text>
  <text x="210" y="118" font-family="monospace" font-size="11" fill="#E5E7EB">(ctx):</text>
  <text x="92" y="138" font-family="monospace" font-size="11" fill="#E5E7EB">ctx.input = </text>
  <text x="175" y="138" font-family="monospace" font-size="11" fill="#34D399">"Hello"</text>
  <text x="92" y="158" font-family="monospace" font-size="11" fill="#E5E7EB">ctx.output = </text>
  <text x="175" y="158" font-family="monospace" font-size="11" fill="#818CF8">await</text>
  <text x="210" y="158" font-family="monospace" font-size="11" fill="#E5E7EB"> agent()</text>
  <text x="92" y="178" font-family="monospace" font-size="11" fill="#818CF8">assert</text>
  <text x="132" y="178" font-family="monospace" font-size="11" fill="#E5E7EB">ctx.output,</text>
  <text x="200" y="178" font-family="monospace" font-size="11" fill="#34D399">"should work"</text>

  <!-- Results panel -->
  <rect x="480" y="80" width="260" height="150" rx="8" fill="#1F2937" filter="drop-shadow(0 4px 6px rgba(0,0,0,0.3))"/>
  <rect x="480" y="80" width="260" height="28" rx="8" fill="#374151"/>
  <text x="500" y="99" font-family="system-ui" font-size="12" font-weight="600" fill="#E5E7EB">Results</text>

  <!-- Result rows -->
  <circle cx="510" cy="128" r="8" fill="#10B981"/>
  <path d="M506 128L509 131L514 126" stroke="white" stroke-width="1.5" stroke-linecap="round"/>
  <text x="528" y="132" font-family="system-ui" font-size="11" fill="#E5E7EB">test_agent</text>
  <text x="660" y="132" font-family="monospace" font-size="10" fill="#9CA3AF">0.23s</text>

  <circle cx="510" cy="156" r="8" fill="#10B981"/>
  <path d="M506 156L509 159L514 154" stroke="white" stroke-width="1.5" stroke-linecap="round"/>
  <text x="528" y="160" font-family="system-ui" font-size="11" fill="#E5E7EB">test_greeting</text>
  <text x="660" y="160" font-family="monospace" font-size="10" fill="#9CA3AF">0.18s</text>

  <circle cx="510" cy="184" r="8" fill="#10B981"/>
  <path d="M506 184L509 187L514 182" stroke="white" stroke-width="1.5" stroke-linecap="round"/>
  <text x="528" y="188" font-family="system-ui" font-size="11" fill="#E5E7EB">test_refund</text>
  <text x="660" y="188" font-family="monospace" font-size="10" fill="#9CA3AF">0.31s</text>

  <!-- Summary bar -->
  <rect x="500" y="202" width="220" height="16" rx="4" fill="#374151"/>
  <rect x="500" y="202" width="220" height="16" rx="4" fill="url(#accentGradientDark)"/>
  <text x="580" y="213" font-family="system-ui" font-size="9" font-weight="600" fill="white" text-anchor="middle">3/3 passed</text>
</svg>
