<?xml version="1.0" encoding="UTF-8" standalone="no"?>
<svg
   id="Layer_1"
   data-name="Layer 1"
   viewBox="0 0 460.57 104.67"
   version="1.1"
   sodipodi:docname="logo-wide.svg"
   inkscape:version="1.2.1 (9c6d41e, 2022-07-14)"
   xmlns:inkscape="http://www.inkscape.org/namespaces/inkscape"
   xmlns:sodipodi="http://sodipodi.sourceforge.net/DTD/sodipodi-0.dtd"
   xmlns="http://www.w3.org/2000/svg"
   xmlns:svg="http://www.w3.org/2000/svg"
   xmlns:rdf="http://www.w3.org/1999/02/22-rdf-syntax-ns#"
   xmlns:cc="http://creativecommons.org/ns#"
   xmlns:dc="http://purl.org/dc/elements/1.1/">
  <sodipodi:namedview
     id="namedview5464"
     pagecolor="#ffffff"
     bordercolor="#000000"
     borderopacity="0.25"
     inkscape:showpageshadow="2"
     inkscape:pageopacity="0.0"
     inkscape:pagecheckerboard="0"
     inkscape:deskcolor="#d1d1d1"
     showgrid="false"
     inkscape:zoom="2.2547053"
     inkscape:cx="199.80438"
     inkscape:cy="52.556758"
     inkscape:window-width="1920"
     inkscape:window-height="1547"
     inkscape:window-x="1080"
     inkscape:window-y="25"
     inkscape:window-maximized="0"
     inkscape:current-layer="Layer_1" />
  <defs
     id="defs5451">
    <rect
       x="0"
       y="120.19309"
       width="213"
       height="74.510846"
       id="rect6676" />
    <style
       id="style5449">.cls-1{fill:#616161;}.cls-2{fill:#f37726;}</style>
    <rect
       x="0"
       y="120.19309"
       width="213"
       height="74.510846"
       id="rect7339" />
  </defs>
  <title
     id="title5453">logo-wide</title>
  <path
     class="cls-2"
     d="M255.8,104.69q-10.41-2.94-14.82-9.35a26.7,26.7,0,0,1-4.4-15.48V68.92q0-6-2.74-9.31t-8.37-3.34V48.42q5.66,0,8.37-3.28t2.74-9.33v-11A26.67,26.67,0,0,1,241,9.31Q245.39,2.93,255.8,0l2.12,6.25a13.4,13.4,0,0,0-8.34,6.7,25.71,25.71,0,0,0-2.49,11.88v11a20.94,20.94,0,0,1-2.25,9.89,15.59,15.59,0,0,1-6.76,6.66,16,16,0,0,1,6.76,6.77,20.78,20.78,0,0,1,2.25,9.79V79.86a25.3,25.3,0,0,0,2.49,11.81,13.71,13.71,0,0,0,8.34,6.71Z"
     id="path5457" />
  <path
     class="cls-2"
     d="M430.26,104.67l-2.14-6.31a13.72,13.72,0,0,0,8.26-6.7,25.07,25.07,0,0,0,2.52-11.81V68.91a20.07,20.07,0,0,1,2.4-10,15.7,15.7,0,0,1,7.43-6.57,15.15,15.15,0,0,1-7.43-6.46,20.25,20.25,0,0,1-2.4-10.09v-11a25.44,25.44,0,0,0-2.52-11.87,13.45,13.45,0,0,0-8.26-6.7L430.26,0Q440.61,2.92,445,9.3a26.66,26.66,0,0,1,4.4,15.51v11q0,6,2.72,9.33c1.83,2.18,4.64,3.28,8.44,3.28v7.84q-5.7,0-8.44,3.35t-2.72,9.31V79.85A26.7,26.7,0,0,1,445,95.33Q440.62,101.73,430.26,104.67Z"
     id="path5459" />
  <metadata
     id="metadata5466">
    <rdf:RDF>
      <cc:Work
         rdf:about="">
        <dc:title>logo-wide</dc:title>
      </cc:Work>
    </rdf:RDF>
  </metadata>
  <text
     xml:space="preserve"
     id="text6674"
     style="font-weight:bold;font-size:64px;line-height:0;font-family:'Gill Sans';-inkscape-font-specification:'Gill Sans Bold';text-align:center;white-space:pre;shape-inside:url(#rect6676);fill:#616161;fill-opacity:1;stroke-width:3.77953;stroke-linecap:square;stroke-linejoin:bevel;stroke-miterlimit:0"
     transform="matrix(1.3721774,0,0,1.3721774,-33.896532,-154.2387)"><tspan
       x="34.96875"
       y="170.76165"
       id="tspan8185"><tspan
         style="font-weight:normal;line-height:1;font-family:'DIN Alternate';-inkscape-font-specification:'DIN Alternate'"
         id="tspan8183">Majis</tspan></tspan></text>
  <text
     xml:space="preserve"
     id="text7337"
     style="font-weight:bold;font-size:64px;line-height:0;font-family:'Gill Sans';-inkscape-font-specification:'Gill Sans Bold';text-align:center;white-space:pre;shape-inside:url(#rect7339);fill:#616161;fill-opacity:1;stroke-width:3.77953;stroke-linecap:square;stroke-linejoin:bevel;stroke-miterlimit:0"
     transform="matrix(1.3302139,0,0,1.3302139,201.18594,-142.10923)"><tspan
       x="49.65625"
       y="170.76165"
       id="tspan8189"><tspan
         style="line-height:1;font-family:'DIN Alternate';-inkscape-font-specification:'DIN Alternate Bold'"
         id="tspan8187">OPS</tspan></tspan></text>
</svg>
