<?xml version="1.0" encoding="UTF-8" standalone="no"?>
<!-- Created with Inkscape (http://www.inkscape.org/) -->

<svg
   width="256"
   height="256"
   viewBox="0 0 67.733332 67.733333"
   version="1.1"
   id="svg5"
   inkscape:version="1.2.1 (9c6d41e, 2022-07-14)"
   sodipodi:docname="logo-square.svg"
   xmlns:inkscape="http://www.inkscape.org/namespaces/inkscape"
   xmlns:sodipodi="http://sodipodi.sourceforge.net/DTD/sodipodi-0.dtd"
   xmlns="http://www.w3.org/2000/svg"
   xmlns:svg="http://www.w3.org/2000/svg">
  <sodipodi:namedview
     id="namedview7"
     pagecolor="#ffffff"
     bordercolor="#000000"
     borderopacity="0.25"
     inkscape:showpageshadow="2"
     inkscape:pageopacity="0.0"
     inkscape:pagecheckerboard="0"
     inkscape:deskcolor="#d1d1d1"
     inkscape:document-units="mm"
     showgrid="false"
     inkscape:zoom="3.0870608"
     inkscape:cx="107.22173"
     inkscape:cy="163.10012"
     inkscape:window-width="1920"
     inkscape:window-height="1547"
     inkscape:window-x="1080"
     inkscape:window-y="25"
     inkscape:window-maximized="0"
     inkscape:current-layer="layer1" />
  <defs
     id="defs2" />
  <g
     inkscape:label="Layer 1"
     inkscape:groupmode="layer"
     id="layer1">
    <circle
       style="fill:#fff8dd;stroke:#000000;stroke-width:1;stroke-linecap:square;stroke-linejoin:bevel;stroke-miterlimit:0;stroke-dasharray:none;fill-opacity:1"
       id="path788"
       cx="33.866665"
       cy="33.866665"
       r="33.277832" />
    <path
       id="circle1330"
       style="fill:#ffe7a9;stroke:#000000;stroke-width:1;stroke-linecap:square;stroke-linejoin:bevel;stroke-miterlimit:0;stroke-dasharray:none;fill-opacity:1"
       d="M 33.866667 0.58859456 A 33.277832 33.277832 0 0 0 7.0667521 14.177429 L 60.691903 14.177429 A 33.277832 33.277832 0 0 0 33.866667 0.58859456 z M 4.4048991 18.442285 A 33.277832 33.277832 0 0 0 0.58859456 33.866667 A 33.277832 33.277832 0 0 0 7.0290283 53.504228 L 60.704305 53.504228 A 33.277832 33.277832 0 0 0 67.144739 33.866667 A 33.277832 33.277832 0 0 0 63.351689 18.442285 L 4.4048991 18.442285 z M 10.74043 57.7696 A 33.277832 33.277832 0 0 0 33.866667 67.144739 A 33.277832 33.277832 0 0 0 56.992904 57.7696 L 10.74043 57.7696 z " />
    <circle
       style="fill:#c87137;stroke:#000000;stroke-width:1;stroke-linecap:square;stroke-linejoin:bevel;stroke-miterlimit:0;stroke-dasharray:none"
       id="circle1264"
       cx="12.1153"
       cy="38.979359"
       r="5.0510473" />
    <circle
       style="fill:#ac9393;stroke:#000000;stroke-width:1.10496;stroke-linecap:square;stroke-linejoin:bevel;stroke-miterlimit:0;stroke-dasharray:none"
       id="circle1266"
       cx="56.49197"
       cy="39.561985"
       r="5.5811944" />
    <circle
       style="fill:#ffcc00;stroke:#000000;stroke-width:1;stroke-linecap:square;stroke-linejoin:bevel;stroke-miterlimit:0;stroke-dasharray:none"
       id="circle1268"
       cx="29.011452"
       cy="40.344391"
       r="3.1955333" />
    <circle
       style="fill:#918a6f;stroke:#000000;stroke-width:1;stroke-linecap:square;stroke-linejoin:bevel;stroke-miterlimit:0;stroke-dasharray:none"
       id="circle1270"
       cx="40.95528"
       cy="33.42831"
       r="3.5489643" />
    <path
       style="fill:#ff8080;fill-opacity:0.400602;stroke:none;stroke-width:0.5;stroke-linecap:square;stroke-linejoin:round;stroke-miterlimit:0;stroke-dasharray:none"
       d="M 16.826915,42.484073 35.460045,54.724026 52.102011,31.663027 33.468881,19.423073 Z"
       id="path6779" />
    <path
       id="path6781"
       style="fill:#fff8dd;fill-opacity:1;stroke:#ff0000;stroke-width:0.5;stroke-linecap:butt;stroke-linejoin:miter;stroke-miterlimit:0;stroke-dasharray:none"
       d="m 33.468881,19.423073 18.63313,12.239953"
       sodipodi:nodetypes="cc" />
  </g>
</svg>
