<svg width="19" height="18" viewBox="0 0 19 18" fill="none" xmlns="http://www.w3.org/2000/svg">
<rect x="0.815918" width="18" height="18" rx="4" fill="#F5F5F9"/>
<path d="M11.7749 9.9895C12.724 9.98968 13.4937 10.7591 13.4937 11.7083V13.6663H12.8062V11.7083C12.8062 11.1388 12.3443 10.6772 11.7749 10.677H7.85791C7.28837 10.677 6.82666 11.1387 6.82666 11.7083V13.6663H6.13916V11.7083C6.13916 10.759 6.90867 9.9895 7.85791 9.9895H11.7749ZM9.81689 4.33325C11.2895 4.33343 12.4829 5.52759 12.4829 7.00024C12.4827 8.47275 11.2894 9.66608 9.81689 9.66626C8.34424 9.66626 7.15008 8.47285 7.1499 7.00024C7.1499 5.52748 8.34414 4.33325 9.81689 4.33325ZM9.81689 5.02075C8.72383 5.02075 7.8374 5.90718 7.8374 7.00024C7.83758 8.09316 8.72394 8.97876 9.81689 8.97876C10.9097 8.97858 11.7952 8.09305 11.7954 7.00024C11.7954 5.90729 10.9098 5.02093 9.81689 5.02075Z" fill="black"/>
</svg>
