<svg width="19" height="19" viewBox="0 0 19 19" fill="none" xmlns="http://www.w3.org/2000/svg">
<rect x="1.03809" y="1.26636" width="17" height="17" rx="3.5" fill="#333333" stroke="url(#paint0_linear_4193_235604)"/>
<g clip-path="url(#clip0_4193_235604)">
<path d="M12.7793 4.5813C13.4951 4.5813 14.076 5.16146 14.0762 5.8772C14.0762 6.59312 13.4952 7.17407 12.7793 7.17407C12.223 7.17391 11.7502 6.82258 11.5664 6.33032L10.1504 6.802C10.1737 6.92236 10.1865 7.0469 10.1865 7.17407C10.1865 7.38859 10.1501 7.59439 10.0859 7.78735L11.7666 8.90747C12.1416 8.63326 12.6033 8.47095 13.1035 8.47095C14.3562 8.47097 15.3718 9.48588 15.3721 10.7385C15.3721 11.9914 14.3564 13.0071 13.1035 13.0071C12.1732 13.0071 11.3744 12.4471 11.0244 11.6458L10.1084 12.1038C10.1572 12.2889 10.1865 12.4824 10.1865 12.6829C10.1865 13.9357 9.17082 14.9514 7.91797 14.9514C6.6651 14.9514 5.64941 13.9357 5.64941 12.6829C5.64951 12.2102 5.79463 11.7717 6.04199 11.4084L5.56543 10.9319C5.39468 11.0147 5.20348 11.0627 5.00098 11.0627C4.28532 11.0625 3.70521 10.4825 3.70508 9.76685C3.70508 9.05105 4.28523 8.47019 5.00098 8.46997C5.29059 8.46997 5.55764 8.56631 5.77344 8.72681L6.48828 8.01099C6.367 7.75738 6.29791 7.47393 6.29785 7.17407C6.29785 6.10022 7.16835 5.22979 8.24219 5.22974C8.95198 5.22974 9.57068 5.61098 9.91016 6.17896L11.5049 5.64771C11.6134 5.04167 12.1421 4.58149 12.7793 4.5813ZM7.91797 11.0813C7.03344 11.0813 6.31665 11.7984 6.31641 12.6829C6.31641 13.5675 7.03329 14.2854 7.91797 14.2854C8.80263 14.2854 9.51953 13.5675 9.51953 12.6829C9.51929 11.7984 8.80248 11.0813 7.91797 11.0813ZM13.1035 9.13696C12.219 9.13696 11.5022 9.85405 11.502 10.7385C11.502 11.6232 12.2188 12.3411 13.1035 12.3411C13.9882 12.341 14.7051 11.6232 14.7051 10.7385C14.7048 9.85407 13.988 9.13698 13.1035 9.13696ZM9.76758 8.37622C9.50333 8.71094 9.13244 8.95532 8.70508 9.05981V10.5579C9.18102 10.7342 9.58074 11.0643 9.84473 11.4895L10.8486 10.9875C10.8397 10.9059 10.835 10.8225 10.835 10.7385C10.8351 10.2316 11.0031 9.76463 11.2842 9.38696L9.76758 8.37622ZM6.19141 9.25122C6.2599 9.40915 6.29785 9.58373 6.29785 9.76685C6.2978 10.0375 6.21418 10.2885 6.07227 10.4963L6.49414 10.9172C6.88343 10.603 7.37872 10.4153 7.91797 10.4153C7.9583 10.4153 7.99827 10.4181 8.03809 10.4202V9.10669C7.58932 9.05983 7.18598 8.86107 6.88086 8.56177L6.19141 9.25122ZM5.00098 9.13696C4.65342 9.13718 4.37207 9.41924 4.37207 9.76685C4.37221 10.1143 4.65351 10.3955 5.00098 10.3958C5.34863 10.3958 5.63072 10.1145 5.63086 9.76685C5.63086 9.41911 5.34871 9.13696 5.00098 9.13696ZM8.24219 5.89575C7.53654 5.89581 6.96484 6.46841 6.96484 7.17407C6.96505 7.87956 7.53667 8.45136 8.24219 8.45142C8.94776 8.45142 9.5203 7.87959 9.52051 7.17407C9.52051 6.46838 8.94788 5.89575 8.24219 5.89575ZM12.7793 5.24829C12.4319 5.24851 12.1506 5.52978 12.1504 5.8772C12.1504 6.2248 12.4317 6.50687 12.7793 6.50708C13.127 6.50708 13.4092 6.22493 13.4092 5.8772C13.409 5.52965 13.1269 5.24829 12.7793 5.24829Z" fill="url(#paint1_linear_4193_235604)"/>
</g>
<defs>
<linearGradient id="paint0_linear_4193_235604" x1="0.538086" y1="12.9971" x2="17.7281" y2="12.9971" gradientUnits="userSpaceOnUse">
<stop stop-color="#FFD5F8"/>
<stop offset="1" stop-color="#BFCBFF"/>
</linearGradient>
<linearGradient id="paint1_linear_4193_235604" x1="3.70508" y1="11.6277" x2="14.8471" y2="11.6277" gradientUnits="userSpaceOnUse">
<stop stop-color="#FFD5F8"/>
<stop offset="1" stop-color="#BFCBFF"/>
</linearGradient>
<clipPath id="clip0_4193_235604">
<rect width="12" height="12" fill="white" transform="translate(3.53809 3.76636)"/>
</clipPath>
</defs>
</svg>
