<svg width="19" height="18" viewBox="0 0 19 18" fill="none" xmlns="http://www.w3.org/2000/svg">
<rect x="1.03809" y="0.5" width="17" height="17" rx="3.5" fill="#333333" stroke="url(#paint0_linear_4193_235598)"/>
<g clip-path="url(#clip0_4193_235598)">
<path d="M6.20508 4.33301C5.46881 4.33301 4.87225 4.92979 4.87207 5.66602V13.666L6.53809 11.5127H12.8721C13.6083 11.5125 14.2051 10.915 14.2051 10.1787V5.66602C14.2049 4.92989 13.6082 4.33318 12.8721 4.33301H6.20508ZM12.8721 5C13.24 5.00018 13.5379 5.29808 13.5381 5.66602V10.1787C13.5381 10.5468 13.2401 10.8455 12.8721 10.8457H6.21094L5.53809 11.7158V5.66602C5.53826 5.29798 5.837 5 6.20508 5H12.8721ZM9.20508 7.65332H7.87207V8.32031H9.20508V9.65332L9.87207 9.6543V8.32031H11.2051V7.65332H9.87207V6.32031H9.20508V7.65332Z" fill="url(#paint1_linear_4193_235598)"/>
</g>
<defs>
<linearGradient id="paint0_linear_4193_235598" x1="0.538086" y1="12.2308" x2="17.7281" y2="12.2308" gradientUnits="userSpaceOnUse">
<stop stop-color="#FFD5F8"/>
<stop offset="1" stop-color="#BFCBFF"/>
</linearGradient>
<linearGradient id="paint1_linear_4193_235598" x1="14.2051" y1="10.6747" x2="5.29206" y2="10.6747" gradientUnits="userSpaceOnUse">
<stop stop-color="#FFD5F8"/>
<stop offset="1" stop-color="#BFCBFF"/>
</linearGradient>
<clipPath id="clip0_4193_235598">
<rect width="12" height="12" fill="white" transform="matrix(-1 0 0 1 15.5381 3)"/>
</clipPath>
</defs>
</svg>
