<svg width="19" height="18" viewBox="0 0 19 18" fill="none" xmlns="http://www.w3.org/2000/svg">
<rect x="0.538086" y="-0.000488281" width="18" height="18" rx="4" fill="#F5F5F9"/>
<g clip-path="url(#clip0_4193_236430)">
<path d="M9.53809 3.6665C10.1299 3.6665 10.6602 3.92493 11.0264 4.3335H12.8711C13.6074 4.3335 14.2039 4.93027 14.2041 5.6665V13.0005C14.2037 13.7366 13.6073 14.3335 12.8711 14.3335H6.2041C5.46809 14.3333 4.87145 13.7365 4.87109 13.0005V5.6665C4.87127 4.93038 5.46798 4.33367 6.2041 4.3335H8.0498C8.41599 3.92493 8.94626 3.6665 9.53809 3.6665ZM6.2041 5.00049C5.83617 5.00066 5.53826 5.29857 5.53809 5.6665V13.0005C5.53844 13.3683 5.83628 13.6663 6.2041 13.6665H12.8711C13.2391 13.6665 13.5377 13.3684 13.5381 13.0005V5.6665C13.5379 5.29846 13.2392 5.00049 12.8711 5.00049H11.4219C11.4956 5.20906 11.5381 5.43268 11.5381 5.6665C11.5381 6.77107 10.6427 7.6665 9.53809 7.6665C8.43352 7.6665 7.53809 6.77107 7.53809 5.6665C7.53809 5.43268 7.58056 5.20906 7.6543 5.00049H6.2041ZM12.2041 8.7251L8.52246 12.3335L6.87109 10.7153L7.27148 10.3237L8.52246 11.5493L11.8047 8.3335L12.2041 8.7251ZM9.53809 4.3335C8.80171 4.3335 8.20508 4.93012 8.20508 5.6665C8.20508 6.40288 8.80171 6.99951 9.53809 6.99951C10.2745 6.99951 10.8711 6.40288 10.8711 5.6665C10.8711 4.93012 10.2745 4.3335 9.53809 4.3335Z" fill="black"/>
</g>
<defs>
<clipPath id="clip0_4193_236430">
<rect width="12" height="12" fill="white" transform="translate(3.53809 2.99951)"/>
</clipPath>
</defs>
</svg>
