<svg width="24" height="25" viewBox="0 0 24 25" fill="none" xmlns="http://www.w3.org/2000/svg">
<rect y="0.5" width="24" height="24" rx="12" fill="#6985FF"/>
<path d="M18 12.5C18 10.9087 17.3679 9.38258 16.2426 8.25736C15.1174 7.13214 13.5913 6.5 12 6.5C10.3226 6.50631 8.71265 7.16082 7.50667 8.32667L6 9.83333M6 9.83333V6.5M6 9.83333H9.33333M6 12.5C6 14.0913 6.63214 15.6174 7.75736 16.7426C8.88258 17.8679 10.4087 18.5 12 18.5C13.6774 18.4937 15.2874 17.8392 16.4933 16.6733L18 15.1667M18 15.1667H14.6667M18 15.1667V18.5" stroke="white" stroke-linecap="round" stroke-linejoin="round"/>
</svg>
