<svg width="19" height="19" viewBox="0 0 19 19" fill="none" xmlns="http://www.w3.org/2000/svg">
<rect x="1.03809" y="0.733643" width="17" height="17" rx="3.5" fill="#333333" stroke="url(#paint0_linear_4193_235592)"/>
<path fill-rule="evenodd" clip-rule="evenodd" d="M7.60951 4.73364H6.3238C5.61372 4.73364 5.03809 5.30928 5.03809 6.01936V7.30507C5.03809 8.01515 5.61372 8.59079 6.3238 8.59079H7.60951C8.31959 8.59079 8.89523 8.01515 8.89523 7.30507V6.01936C8.89523 5.30928 8.31959 4.73364 7.60951 4.73364ZM5.68094 6.01936C5.68094 5.66432 5.96876 5.3765 6.3238 5.3765H7.60951C7.96455 5.3765 8.25237 5.66432 8.25237 6.01936V7.30507C8.25237 7.66011 7.96455 7.94793 7.60951 7.94793H6.3238C5.96876 7.94793 5.68094 7.66011 5.68094 7.30507V6.01936ZM7.60951 9.8765H6.3238C5.61372 9.8765 5.03809 10.4521 5.03809 11.1622V12.4479C5.03809 13.158 5.61372 13.7336 6.3238 13.7336H7.60951C8.31959 13.7336 8.89523 13.158 8.89523 12.4479V11.1622C8.89523 10.4521 8.31959 9.8765 7.60951 9.8765ZM5.68094 11.1622C5.68094 10.8072 5.96876 10.5194 6.3238 10.5194H7.60951C7.96455 10.5194 8.25237 10.8072 8.25237 11.1622V12.4479C8.25237 12.803 7.96455 13.0908 7.60951 13.0908H6.3238C5.96876 13.0908 5.68094 12.803 5.68094 12.4479V11.1622ZM11.4667 4.73364H12.7524C13.4625 4.73364 14.0381 5.30928 14.0381 6.01936V7.30507C14.0381 8.01515 13.4625 8.59079 12.7524 8.59079H11.4667C10.7566 8.59079 10.1809 8.01515 10.1809 7.30507V6.01936C10.1809 5.30928 10.7566 4.73364 11.4667 4.73364ZM11.4667 5.3765C11.1116 5.3765 10.8238 5.66432 10.8238 6.01936V7.30507C10.8238 7.66011 11.1116 7.94793 11.4667 7.94793H12.7524C13.1074 7.94793 13.3952 7.66011 13.3952 7.30507V6.01936C13.3952 5.66432 13.1074 5.3765 12.7524 5.3765H11.4667ZM12.7524 9.8765H11.4667C10.7566 9.8765 10.1809 10.4521 10.1809 11.1622V12.4479C10.1809 13.158 10.7566 13.7336 11.4667 13.7336H12.7524C13.4625 13.7336 14.0381 13.158 14.0381 12.4479V11.1622C14.0381 10.4521 13.4625 9.8765 12.7524 9.8765ZM10.8238 11.1622C10.8238 10.8072 11.1116 10.5194 11.4667 10.5194H12.7524C13.1074 10.5194 13.3952 10.8072 13.3952 11.1622V12.4479C13.3952 12.803 13.1074 13.0908 12.7524 13.0908H11.4667C11.1116 13.0908 10.8238 12.803 10.8238 12.4479V11.1622Z" fill="url(#paint1_linear_4193_235592)"/>
<defs>
<linearGradient id="paint0_linear_4193_235592" x1="0.538086" y1="12.4644" x2="17.7281" y2="12.4644" gradientUnits="userSpaceOnUse">
<stop stop-color="#FFD5F8"/>
<stop offset="1" stop-color="#BFCBFF"/>
</linearGradient>
<linearGradient id="paint1_linear_4193_235592" x1="5.03809" y1="10.849" x2="13.6331" y2="10.849" gradientUnits="userSpaceOnUse">
<stop stop-color="#FFD5F8"/>
<stop offset="1" stop-color="#BFCBFF"/>
</linearGradient>
</defs>
</svg>
