<svg width="19" height="19" viewBox="0 0 19 19" fill="none" xmlns="http://www.w3.org/2000/svg">
<rect x="0.538086" y="0.5" width="18" height="18" rx="4" fill="#F5F5F9"/>
<path fill-rule="evenodd" clip-rule="evenodd" d="M4.985 10.3613C4.83313 10.5131 4.83313 10.7594 4.985 10.9112L7.45987 13.3861C7.61174 13.538 7.85797 13.538 8.00984 13.3861C8.16171 13.2342 8.16171 12.988 8.00984 12.8361L6.19884 11.0251H12.26C13.3339 11.0251 14.2044 10.1546 14.2044 9.08068V8.3029C14.2044 7.22902 13.3339 6.35846 12.26 6.35846H10.9637V7.13624H12.26C12.9043 7.13624 13.4266 7.65857 13.4266 8.3029V9.08068C13.4266 9.72501 12.9043 10.2473 12.26 10.2473H6.19884L8.00984 8.43635C8.16171 8.28448 8.16171 8.03825 8.00984 7.88638C7.85797 7.73451 7.61174 7.73451 7.45987 7.88638L4.985 10.3613Z" fill="black"/>
</svg>
