<svg width="19" height="18" viewBox="0 0 19 18" fill="none" xmlns="http://www.w3.org/2000/svg">
<rect x="0.538086" width="18" height="18" rx="4" fill="#F5F5F9"/>
<mask id="mask0_4193_235616" style="mask-type:alpha" maskUnits="userSpaceOnUse" x="3" y="3" width="13" height="12">
<rect x="3.53809" y="3" width="12" height="12" fill="#D9D9D9"/>
</mask>
<g mask="url(#mask0_4193_235616)">
<path d="M8.62515 11.875V11.125H9.3329L10.7511 9.5L9.3329 7.875H8.44052L7.64052 12.074C7.56111 12.5003 7.41098 12.8237 7.19015 13.0442C6.96932 13.2647 6.68419 13.375 6.33477 13.375C6.00144 13.375 5.72936 13.2846 5.51852 13.1039C5.30761 12.923 5.20215 12.6836 5.20215 12.3856C5.20215 12.1606 5.26094 11.9797 5.37852 11.8428C5.49619 11.7059 5.64573 11.6375 5.82715 11.6375C6.00023 11.6375 6.14765 11.6971 6.2694 11.8164C6.39123 11.9356 6.45215 12.0792 6.45215 12.2471C6.45215 12.3145 6.43723 12.3736 6.4074 12.4245C6.37757 12.4755 6.34086 12.5154 6.29727 12.5443C6.31327 12.5602 6.33573 12.5739 6.36465 12.5851C6.39348 12.5963 6.42552 12.6019 6.46077 12.6019C6.56977 12.5968 6.6589 12.5467 6.72815 12.4515C6.79732 12.3562 6.85307 12.2096 6.8954 12.0115L7.67527 7.875H6.2214V7.125H7.81465L8.06752 5.75775C8.13227 5.40583 8.27732 5.12904 8.50265 4.92738C8.72798 4.72579 9.0044 4.625 9.3319 4.625C9.66015 4.625 9.92969 4.72133 10.1405 4.914C10.3514 5.10658 10.4569 5.34933 10.4569 5.64225C10.4569 5.857 10.3981 6.03283 10.2805 6.16975C10.1629 6.30658 10.0133 6.375 9.8319 6.375C9.65882 6.375 9.5114 6.31617 9.38965 6.1985C9.26782 6.08092 9.2069 5.93558 9.2069 5.7625C9.2069 5.69517 9.22182 5.63604 9.25165 5.58512C9.28148 5.53412 9.31977 5.49421 9.36652 5.46537C9.35052 5.44612 9.32569 5.43008 9.29202 5.41725C9.25836 5.4045 9.2239 5.39812 9.18865 5.39812C9.08415 5.40837 9.00098 5.45421 8.93915 5.53562C8.87732 5.61704 8.83002 5.73754 8.79727 5.89713L8.58477 7.125H10.8751V7.875H10.3261L11.2501 8.92988L12.1743 7.875H11.6251V7.125H13.8751V7.875H13.1675L11.7493 9.5L13.1723 11.125H13.8751V11.875H11.6251V11.125H12.1743L11.2501 10.0625L10.3261 11.125H10.8751V11.875H8.62515Z" fill="black"/>
</g>
</svg>
