<svg width="19" height="20" viewBox="0 0 19 20" fill="none" xmlns="http://www.w3.org/2000/svg">
<rect x="0.5" y="1" width="18" height="18" rx="4" fill="black" stroke="url(#paint0_linear_5797_52501)"/>
<path d="M7.65 9.00039C7.58554 9.00391 7.52137 8.98953 7.46458 8.95885C7.40778 8.92817 7.36058 8.88239 7.32819 8.82655C7.29579 8.77072 7.27947 8.70701 7.28103 8.64248C7.28258 8.57795 7.30195 8.5151 7.337 8.46089L9.2 5.50039C9.22927 5.44768 9.27167 5.40342 9.32308 5.37191C9.37449 5.3404 9.43317 5.3227 9.49343 5.32054C9.55369 5.31837 9.61349 5.33182 9.66702 5.35956C9.72056 5.38731 9.76602 5.42841 9.799 5.47889L11.65 8.45039C11.6865 8.50279 11.7079 8.56417 11.712 8.62788C11.7162 8.6916 11.7028 8.75522 11.6733 8.81187C11.6438 8.86851 11.5995 8.91602 11.5449 8.94925C11.4904 8.98248 11.4278 9.00017 11.364 9.00039H7.65Z" stroke="url(#paint1_linear_5797_52501)" stroke-linecap="round" stroke-linejoin="round"/>
<path d="M8 11.0004H5.5C5.22386 11.0004 5 11.2242 5 11.5004V14.0004C5 14.2765 5.22386 14.5004 5.5 14.5004H8C8.27614 14.5004 8.5 14.2765 8.5 14.0004V11.5004C8.5 11.2242 8.27614 11.0004 8 11.0004Z" stroke="url(#paint2_linear_5797_52501)" stroke-linecap="round" stroke-linejoin="round"/>
<path d="M12.25 14.5004C13.2165 14.5004 14 13.7169 14 12.7504C14 11.7839 13.2165 11.0004 12.25 11.0004C11.2835 11.0004 10.5 11.7839 10.5 12.7504C10.5 13.7169 11.2835 14.5004 12.25 14.5004Z" stroke="url(#paint3_linear_5797_52501)" stroke-linecap="round" stroke-linejoin="round"/>
<defs>
<linearGradient id="paint0_linear_5797_52501" x1="0.5" y1="13.2308" x2="17.69" y2="13.2308" gradientUnits="userSpaceOnUse">
<stop stop-color="#FFD5F8"/>
<stop offset="1" stop-color="#BFCBFF"/>
</linearGradient>
<linearGradient id="paint1_linear_5797_52501" x1="5" y1="11.5581" x2="13.595" y2="11.5581" gradientUnits="userSpaceOnUse">
<stop stop-color="#FFD5F8"/>
<stop offset="1" stop-color="#BFCBFF"/>
</linearGradient>
<linearGradient id="paint2_linear_5797_52501" x1="5" y1="11.5581" x2="13.595" y2="11.5581" gradientUnits="userSpaceOnUse">
<stop stop-color="#FFD5F8"/>
<stop offset="1" stop-color="#BFCBFF"/>
</linearGradient>
<linearGradient id="paint3_linear_5797_52501" x1="5" y1="11.5581" x2="13.595" y2="11.5581" gradientUnits="userSpaceOnUse">
<stop stop-color="#FFD5F8"/>
<stop offset="1" stop-color="#BFCBFF"/>
</linearGradient>
</defs>
</svg>
