<svg width="19" height="18" viewBox="0 0 19 18" fill="none" xmlns="http://www.w3.org/2000/svg">
<rect x="0.815918" width="18" height="18" rx="4" fill="#F5F5F9"/>
<path d="M13.8228 9.66699H12.2866L14.3833 11.7646L13.9126 12.2354L11.8159 10.1387V11.6533H11.1489V9H13.8228V9.66699ZM11.4819 6C12.6595 6 13.6764 6.67967 14.1675 7.66699H13.396C12.9743 7.06274 12.2747 6.66699 11.4819 6.66699H8.14893C6.86026 6.66699 5.81592 7.71134 5.81592 9C5.81592 10.2887 6.86026 11.333 8.14893 11.333H9.81592V12H8.14893C6.49207 12 5.14893 10.6569 5.14893 9C5.14893 7.34315 6.49207 6 8.14893 6H11.4819Z" fill="black"/>
</svg>
