<svg width="19" height="18" viewBox="0 0 19 18" fill="none" xmlns="http://www.w3.org/2000/svg">
<rect x="0.815918" width="18" height="18" rx="4" fill="#F5F5F9"/>
<path fill-rule="evenodd" clip-rule="evenodd" d="M11.5656 6.22206H13.8989V7.88873H11.5656V6.22206ZM10.9823 6.22206H8.64893V7.88873H10.9823V6.22206ZM8.06559 6.22206H5.73226V7.88873H8.06559V6.22206ZM5.73226 8.44428V11.7776H8.06559L8.06559 8.44428H5.73226ZM8.64893 12.3332H8.06559H5.73226C5.41009 12.3332 5.14893 12.0844 5.14893 11.7776V6.22206C5.14893 5.91523 5.41009 5.6665 5.73226 5.6665H13.8989C14.2211 5.6665 14.4823 5.91523 14.4823 6.22206V11.7776C14.4823 12.0844 14.2211 12.3332 13.8989 12.3332H11.5656H10.9823H8.64893ZM10.9823 11.7776H8.64893L8.64893 8.44428H10.9823L10.9823 11.7776ZM11.5656 11.7776H13.8989V8.44428H11.5656L11.5656 11.7776Z" fill="black"/>
</svg>
