<svg width="19" height="18" viewBox="0 0 19 18" fill="none" xmlns="http://www.w3.org/2000/svg">
<rect x="0.815918" width="18" height="18" rx="4" fill="#F5F5F9"/>
<path d="M7.67334 4.71387H11.9595V4H12.6733V4.71387L12.8921 4.72559C13.9727 4.83531 14.8159 5.74791 14.8159 6.85742V11.8574C14.8157 13.0406 13.8566 13.9998 12.6733 14H6.9585C5.77527 13.9998 4.8161 13.0406 4.81592 11.8574V6.85742C4.81592 5.67405 5.77516 4.71402 6.9585 4.71387H6.95947V4H7.67334V4.71387ZM5.52979 8.28613V11.8574C5.52997 12.6461 6.16976 13.286 6.9585 13.2861H12.6733C13.4621 13.286 14.1019 12.6461 14.1021 11.8574V8.28613H5.52979ZM6.9585 5.42871C6.16965 5.42886 5.52979 6.06854 5.52979 6.85742V7.57129H14.1021V6.85742C14.1021 6.11765 13.5394 5.50856 12.8188 5.43555L12.6733 5.42871V6.85742H11.9595V5.42871H7.67334V6.85742H6.95947V5.42871H6.9585Z" fill="black"/>
</svg>
