<svg width="19" height="18" viewBox="0 0 19 18" fill="none" xmlns="http://www.w3.org/2000/svg">
<rect x="0.815918" width="18" height="18" rx="4" fill="#F5F5F9"/>
<path d="M7.73193 4.83553C7.98728 4.70786 8.28519 4.69545 8.55029 4.80135L11.3276 5.91268C11.416 5.94804 11.5159 5.94354 11.6011 5.90096L13.0347 5.18416C13.6996 4.85171 14.4819 5.33531 14.4819 6.0787V11.2545C14.4819 11.6332 14.268 11.9796 13.9292 12.149L11.8989 13.1646C11.6435 13.2922 11.3457 13.3039 11.0806 13.1978L8.30322 12.0875C8.21482 12.0521 8.11495 12.0556 8.02979 12.0982L6.59619 12.816C5.93139 13.1483 5.14911 12.6647 5.14893 11.9215V6.74569C5.14893 6.36698 5.36298 6.02058 5.70166 5.85116L7.73193 4.83553ZM8.48193 11.4449C8.50483 11.4522 8.52782 11.4594 8.55029 11.4683L11.1489 12.5074V6.55428C11.1261 6.54702 11.1029 6.54076 11.0806 6.53182L8.48193 5.49178V11.4449ZM13.8159 6.0787C13.8159 5.83093 13.5551 5.67011 13.3335 5.78084L11.8989 6.49764C11.8719 6.51115 11.8438 6.52188 11.8159 6.5328V12.4596L13.6313 11.5523C13.7442 11.4958 13.8159 11.3807 13.8159 11.2545V6.0787ZM5.99951 6.44686C5.88669 6.50336 5.81592 6.6195 5.81592 6.74569V11.9215C5.8161 12.1691 6.07679 12.3301 6.29834 12.2193L7.73193 11.5025C7.75911 11.4889 7.7869 11.4764 7.81494 11.4654V5.53866L5.99951 6.44686Z" fill="black"/>
</svg>
