<svg width="19" height="18" viewBox="0 0 19 18" fill="none" xmlns="http://www.w3.org/2000/svg">
<rect x="0.815918" width="18" height="18" rx="4" fill="#F5F5F9"/>
<path d="M5.81299 4.37256C8.00871 4.46436 11.0838 5.00666 12.4253 6.34814C13.541 7.464 13.8148 9.09975 13.2524 10.4741C13.3061 10.3436 13.3538 10.2114 13.3921 10.0767L14.4868 11.1704L12.0142 13.6421L10.9946 12.6226C11.1183 12.5793 11.2396 12.528 11.3589 12.4712C9.94948 13.1361 8.21662 12.8874 7.05127 11.7222C5.67722 10.3481 5.21385 7.78845 5.15283 5.0249L5.146 4.35791C5.35612 4.35791 5.57993 4.36282 5.81299 4.37256ZM8.59131 7.30908C8.78873 7.19346 9.01789 7.12652 9.26318 7.12646C9.99956 7.12646 10.5972 7.72309 10.5972 8.45947C10.5971 9.19578 9.99951 9.79248 9.26318 9.79248C8.52701 9.7923 7.93026 9.19567 7.93018 8.45947C7.93018 8.2104 7.99879 7.9773 8.11768 7.77783L5.83447 5.49463C5.87769 6.55923 5.98801 7.56828 6.19189 8.46533C6.46894 9.68402 6.90549 10.6338 7.52197 11.2505C8.50322 12.2317 9.97298 12.425 11.1479 11.8325L11.6401 12.3247H11.6392L12.0142 12.6997L13.5435 11.1704L13.1265 10.7534C13.1701 10.6673 13.2088 10.5791 13.2456 10.4907C13.2089 10.5793 13.1702 10.6673 13.1265 10.7534L12.6255 10.2515C13.1049 9.11223 12.8814 7.74779 11.9536 6.81982C11.3498 6.21601 10.2332 5.75135 8.90088 5.4458C8.0516 5.25106 7.16282 5.13367 6.35596 5.07373L8.59131 7.30908ZM11.3706 12.4653C11.4544 12.4251 11.5372 12.382 11.6187 12.3354C11.5372 12.3819 11.4546 12.4254 11.3706 12.4653ZM9.26318 7.79248C8.89514 7.79266 8.59717 8.09139 8.59717 8.45947C8.59726 8.82748 8.8952 9.12629 9.26318 9.12646C9.63132 9.12646 9.93009 8.82759 9.93018 8.45947C9.93018 8.09128 9.63137 7.79248 9.26318 7.79248Z" fill="black"/>
</svg>
