<svg width="19" height="18" viewBox="0 0 19 18" fill="none" xmlns="http://www.w3.org/2000/svg">
<rect x="0.815918" width="18" height="18" rx="4" fill="#F5F5F9"/>
<g clip-path="url(#clip0_4193_236485)">
<path d="M13.6343 5C14.4711 5.00026 15.1498 5.67872 15.1499 6.51562V11.4844C15.1498 12.3213 14.4711 12.9997 13.6343 13H5.99854C5.16152 12.9999 4.483 12.3214 4.48291 11.4844V6.51562C4.483 5.67861 5.16152 5.00009 5.99854 5H13.6343ZM13.0024 7.90625C12.6991 7.65039 12.2495 7.67026 11.9702 7.95215L10.5884 9.34766C10.1787 9.76121 9.55889 9.88408 9.02197 9.65918L8.63232 9.49707C8.35671 9.38165 8.03879 9.43729 7.81982 9.64062L5.37646 11.9111C5.35262 11.9333 5.32507 11.949 5.29736 11.9629C5.45027 12.1865 5.70723 12.333 5.99854 12.333H13.6343C14.103 12.3327 14.4828 11.9531 14.4829 11.4844V9.1543L13.0024 7.90625ZM5.99854 5.66699C5.52971 5.66708 5.14999 6.0468 5.1499 6.51562V11.21L7.3667 9.15234C7.77741 8.77101 8.37321 8.66529 8.89014 8.88184L9.27979 9.04492C9.56595 9.16458 9.89643 9.09831 10.1147 8.87793L11.4966 7.4834C12.0205 6.95454 12.8631 6.91656 13.4321 7.39648L14.4829 8.28223V6.51562C14.4828 6.04691 14.103 5.66726 13.6343 5.66699H5.99854ZM6.81592 6.33398C7.3682 6.33398 7.81592 6.7817 7.81592 7.33398C7.81565 7.88604 7.36804 8.33398 6.81592 8.33398C6.2638 8.33398 5.81618 7.88604 5.81592 7.33398C5.81592 6.7817 6.26363 6.33398 6.81592 6.33398ZM6.81592 7C6.63182 7 6.48291 7.14989 6.48291 7.33398C6.48317 7.51785 6.63199 7.66699 6.81592 7.66699C6.99985 7.66699 7.14866 7.51785 7.14893 7.33398C7.14893 7.14989 7.00001 7 6.81592 7Z" fill="black"/>
</g>
<defs>
<clipPath id="clip0_4193_236485">
<rect width="12" height="12" fill="white" transform="translate(3.81592 3)"/>
</clipPath>
</defs>
</svg>
