<svg width="19" height="18" viewBox="0 0 19 18" fill="none" xmlns="http://www.w3.org/2000/svg">
<rect x="0.815918" width="18" height="18" rx="4" fill="#F5F5F9"/>
<path d="M6.48291 4.3335C5.74664 4.3335 5.15008 4.93027 5.1499 5.6665V13.6665L6.81592 11.5132H13.1499C13.8861 11.513 14.4829 10.9155 14.4829 10.1792V5.6665C14.4827 4.93038 13.886 4.33367 13.1499 4.3335H6.48291ZM13.1499 5.00049C13.5178 5.00066 13.8157 5.29857 13.8159 5.6665V10.1792C13.8159 10.5473 13.5179 10.846 13.1499 10.8462H6.48877L5.81592 11.7163V5.6665C5.81609 5.29846 6.11483 5.00049 6.48291 5.00049H13.1499ZM9.33545 9.22998V9.84814H10.2974V9.22998H9.33545ZM9.36963 5.67725L9.48291 8.65186H10.1323L10.2456 5.67725H9.36963Z" fill="black"/>
</svg>
