<svg width="19" height="18" viewBox="0 0 19 18" fill="none" xmlns="http://www.w3.org/2000/svg">
<rect x="0.815918" width="18" height="18" rx="4" fill="#F5F5F9"/>
<path d="M9.81592 4.3335C12.3931 4.33367 14.4819 6.42327 14.4819 9.00049C14.4818 11.5776 12.393 13.6663 9.81592 13.6665C7.2387 13.6665 5.1491 11.5777 5.14893 9.00049C5.14893 6.42316 7.23859 4.3335 9.81592 4.3335ZM9.81592 5.00049C7.60678 5.00049 5.81592 6.79135 5.81592 9.00049C5.81609 11.2095 7.60689 13.0005 9.81592 13.0005C12.0248 13.0003 13.8157 11.2094 13.8159 9.00049C13.8159 6.79146 12.0249 5.00066 9.81592 5.00049ZM9.81494 7.66748C10.5513 7.66748 11.1489 8.26411 11.1489 9.00049C11.1488 9.73679 10.5513 10.3335 9.81494 10.3335C9.07877 10.3333 8.48202 9.73668 8.48193 9.00049C8.48193 8.26422 9.07871 7.66766 9.81494 7.66748Z" fill="black"/>
</svg>
