<svg width="19" height="18" viewBox="0 0 19 18" fill="none" xmlns="http://www.w3.org/2000/svg">
<rect x="0.815918" width="18" height="18" rx="4" fill="#F5F5F9"/>
<path d="M13.8159 5C14.184 5.00018 14.4819 5.29891 14.4819 5.66699V12.333C14.4819 12.7011 14.184 12.9998 13.8159 13H5.81592C5.44773 13 5.14893 12.7012 5.14893 12.333V5.66699C5.14893 5.2988 5.44773 5 5.81592 5H13.8159ZM5.81592 12.333H13.8159V5.66699H5.81592V12.333ZM12.4819 9V11H7.14893V9H12.4819ZM7.81592 10.333H11.8159V9.66699H7.81592V10.333ZM9.81592 7.66699H7.14893V7H9.81592V7.66699Z" fill="black"/>
</svg>
