<svg width="19" height="18" viewBox="0 0 19 18" fill="none" xmlns="http://www.w3.org/2000/svg">
<rect x="18.8159" width="18" height="18" rx="4" transform="rotate(90 18.8159 0)" fill="#F5F5F9"/>
<path fill-rule="evenodd" clip-rule="evenodd" d="M13.8159 7L13.8159 6.33333L10.4492 6.33333C10.2948 5.57259 9.62224 5 8.81592 5C8.0096 5 7.33701 5.57259 7.18259 6.33333L5.81592 6.33333L5.81592 7L7.18259 7C7.33701 7.76075 8.0096 8.33333 8.81592 8.33333C9.62224 8.33333 10.2948 7.76075 10.4492 7L13.8159 7ZM8.81592 7.66667C8.26363 7.66667 7.81592 7.21895 7.81592 6.66667C7.81592 6.11438 8.26363 5.66667 8.81592 5.66667C9.3682 5.66667 9.81592 6.11438 9.81592 6.66667C9.81592 7.21895 9.3682 7.66667 8.81592 7.66667ZM9.18259 11L5.81592 11L5.81592 11.6667L9.18259 11.6667C9.33701 12.4274 10.0096 13 10.8159 13C11.6222 13 12.2948 12.4274 12.4492 11.6667L13.8159 11.6667L13.8159 11L12.4492 11C12.2948 10.2393 11.6222 9.66667 10.8159 9.66667C10.0096 9.66667 9.33701 10.2393 9.18259 11ZM9.81592 11.3333C9.81592 11.8856 10.2636 12.3333 10.8159 12.3333C11.3682 12.3333 11.8159 11.8856 11.8159 11.3333C11.8159 10.781 11.3682 10.3333 10.8159 10.3333C10.2636 10.3333 9.81592 10.781 9.81592 11.3333Z" fill="black"/>
</svg>
