<svg width="19" height="18" viewBox="0 0 19 18" fill="none" xmlns="http://www.w3.org/2000/svg">
<rect x="0.815918" width="18" height="18" rx="4" fill="#F5F5F9"/>
<path d="M11.1489 5.6665C12.9898 5.6665 14.4818 7.15871 14.4819 8.99951C14.4819 10.8405 12.9899 12.3335 11.1489 12.3335H8.48193C6.64113 12.3333 5.14893 10.8404 5.14893 8.99951C5.1491 7.15882 6.64124 5.66668 8.48193 5.6665H11.1489ZM8.48193 6.3335C7.00943 6.33367 5.81609 7.52701 5.81592 8.99951C5.81592 10.4722 7.00932 11.6663 8.48193 11.6665H11.1489C12.6217 11.6665 13.8159 10.4723 13.8159 8.99951C13.8157 7.5269 12.6216 6.3335 11.1489 6.3335H8.48193ZM8.48193 7.00049C9.5865 7.00049 10.4819 7.89592 10.4819 9.00049C10.4817 10.1048 9.58634 11.0005 8.48193 11.0005C7.37753 11.0005 6.4822 10.1048 6.48193 9.00049C6.48193 7.89592 7.37736 7.00049 8.48193 7.00049ZM8.48193 7.6665C7.74555 7.6665 7.14893 8.26411 7.14893 9.00049C7.14919 9.73664 7.74572 10.3335 8.48193 10.3335C9.21815 10.3335 9.81468 9.73664 9.81494 9.00049C9.81494 8.26411 9.21831 7.6665 8.48193 7.6665Z" fill="black"/>
</svg>
