<svg width="19" height="18" viewBox="0 0 19 18" fill="none" xmlns="http://www.w3.org/2000/svg">
<rect x="0.815918" width="18" height="18" rx="4" fill="#F5F5F9"/>
<path d="M9.81641 4.33325C12.3936 4.33343 14.4824 6.42302 14.4824 9.00024C14.4822 11.5773 12.3935 13.6661 9.81641 13.6663C7.23919 13.6663 5.14959 11.5774 5.14941 9.00024C5.14941 6.42292 7.23908 4.33325 9.81641 4.33325ZM9.81641 5.00024C7.60727 5.00024 5.81641 6.79111 5.81641 9.00024C5.81658 11.2092 7.60738 13.0002 9.81641 13.0002C12.0253 13.0001 13.8162 11.2091 13.8164 9.00024C13.8164 6.79121 12.0254 5.00042 9.81641 5.00024ZM10.1494 8.86157L12.0518 10.7639L11.5801 11.2356L9.48242 9.13794V6.33325H10.1494V8.86157Z" fill="black"/>
</svg>
