<?xml version="1.0" encoding="utf-8"?>
<!-- Generator: Adobe Illustrator 27.4.0, SVG Export Plug-In . SVG Version: 6.00 Build 0)  -->
<svg version="1.1" id="Layer_1" xmlns="http://www.w3.org/2000/svg" xmlns:xlink="http://www.w3.org/1999/xlink" x="0px" y="0px"
	 viewBox="0 0 731 154.9" style="enable-background:new 0 0 731 154.9;" xml:space="preserve">
<style type="text/css">
	.st0{fill:#FFFFFF;}
	.st1{fill:#CF4037;}
	.st2{fill:#F9DE3D;}
	.st3{fill:#F9DE3D;stroke:#000000;stroke-width:0.167;stroke-miterlimit:2.613;}
</style>
<g>
	<path d="M35.6,6.8h68.2l2.9-0.3h7.2c3.3,0,8.5,0,16.3-0.3h2.9c-0.3,5.9-0.7,8.2-0.7,11.4v66.2c0,30.3-6.8,40.8-39.8,57.1
		c-1.3,0.6-18.3,9.1-19.9,10.1l-1.6,0.7l-1.6,1l-2-1L66,151c-6.8-3.9-13.7-6.8-19.2-9.8c-30-14.7-39.8-25.1-39.8-57.4V17.6
		c0-5.5-0.3-7.5-0.7-11.4h2.9c7.5,0.3,13,0.3,16.3,0.3h6.8L35.6,6.8L35.6,6.8z"/>
	<path class="st0" d="M69.5,149.7l12.7-6.5h0.3V82.8l0.3,0.3h47.3V57.1H82.6V8.8l-0.3,0.3H56.8l-0.7-0.3l0.3,0.7v47.6H9.2v26.1h47
		l0.3-0.3v60l-0.3,0.3h0.3L69.5,149.7L69.5,149.7z"/>
	<path class="st1" d="M9.8,9.1L9.2,8.8v48.3h47.3V8.8l-0.3,0.3H9.8z M83.2,9.1l-0.6-0.3v48.3h47.6V8.8l-0.3,0.3H83.2z M56.2,83.2
		H9.5l-0.3-0.3v3.3c0,26.1,8.8,38.8,35.6,51.5l8.5,4.2l2.9,1.3l0.3,0.3V82.8L56.2,83.2L56.2,83.2z M82.9,83.2l-0.3-0.3v60.4l0.3-0.3
		l2.6-1c36.2-17.3,44.7-27.4,44.7-55.5v-3.6l-0.3,0.3H82.9z"/>
	<path  d="M17,59.4c0,0.3,0,0.3,0.3,0.3c0,0.3,0,0.3,0.3,0.3c0,0,0,0.3,0.3,0.3c0,0.3,0,0.3,0.3,0.3L18,61l-0.3,0.3l-0.3,0.3L17,62
		v0.3c0,3.3,1,5.5,2.9,6.8l0.3,0.3L20,69.8l-0.7-0.3h-1.6l-0.3,2.9h-0.7l-0.3-2.9h-2l-0.3,0.3c-0.3,0-0.3-0.3-0.3-0.3v-0.3l0.7-0.3
		c0.7-0.3,1-1,1.6-2c0-0.7,0.3-1,0.3-1.3c0-1,0-1.6,0.3-1.6v-2.3l-0.3-0.3L15.7,61v-0.3c0,0,0.3,0,0.3-0.3C16.7,60,16.7,60,17,59.4
		L17,59.4z M32.3,59.4c0.3,0.7,0.3,0.7,1,1c0,0.3,0,0.3,0.3,0.3L33.3,61L33,61.3l-0.3,0.3L32.3,62v0.3l0.3,1.6c0,2,1.3,4.6,2.6,5.2
		l0.3,0.3l-0.3,0.3l-0.7-0.3H33l-0.7,2.9H32l-0.3-2.9h-2l-0.3,0.3c-0.3,0-0.3-0.3-0.3-0.3v-0.3l0.7-0.3c0.7-0.3,0.7-0.7,1.3-2
		c0.3-0.7,0.7-1,0.7-1.3c0-1,0-1.6,0.3-1.6v-2v-0.3c-0.3,0-0.3-0.3-0.7-0.3L31,61v-0.3l0.3-0.3l0.3-0.3l0.3-0.3
		C32,59.7,32,59.7,32.3,59.4L32.3,59.4z M24.5,68.5l0.3,0.3l0.3,0.3l0.3,0.3l0.3,0.3l-0.7,0.7l-0.3,0.3v0.3c0,3.6,0.7,5.5,2.6,7.2
		h0.3l-0.3,0.3h-1l-0.7-0.3h-0.7l-0.3,2.9h-0.7l-0.3-2.9h-0.3l-0.7,0.3h-1.6l0.3-0.3l0.7-0.3c1.3-1,2-3.9,2-6.8v-0.3l-0.3-0.3
		l-0.3-0.7h-0.3L24.5,68.5L24.5,68.5z M39.9,68.5c0.7,0.3,0.7,0.6,1.3,1.3l-0.3,0.7l-0.3,0.3h-0.3v0.3c0,2.3,0.7,4.9,1.3,5.9l1,1
		l0.3,0.3h0.3l-0.3,0.3h-1l-0.6-0.3h-0.7l-0.3,2.9h-0.3l-0.7-2.9h-0.3l-0.7,0.3h-1.6l0.3-0.3l0.7-0.3c1.3-1.3,2.3-3.9,2.3-6.8v-0.3
		h-0.3l-0.3-0.3l-0.3-0.7h-0.3c0.3,0,0.3-0.3,0.7-0.3c0,0,0-0.3,0.3-0.3l0.3-0.3L39.9,68.5L39.9,68.5L39.9,68.5z M47.7,59.4
		c0.3,0.7,0.3,0.7,1,1c0,0.3,0,0.3,0.3,0.3L48.7,61l-0.3,0.3L48,61.7v2.3c0,2,1.3,4.6,2.6,5.2l0.3,0.3c0,0,0,0.3-0.3,0.3l-0.3-0.3
		h-1h-1L48,72.4h-0.7L47,69.5h-2l-0.3,0.3c-0.3,0-0.3-0.3-0.3-0.3l0.3-0.3l0.3-0.3c0.7-0.3,1-0.7,1.6-2c0.3-0.7,0.3-1,0.3-1.3
		c0-1,0-1.6,0.3-1.6v-2.3L47,61.3L46.7,61c0,0-0.3,0-0.3-0.3c0,0,0.3,0,0.3-0.3C47,60.3,47,60,47,60s0.3,0,0.3-0.3
		C47.4,59.7,47.7,59.7,47.7,59.4L47.7,59.4z M91.4,59.4l0.3,0.3L92,60c0,0.3,0.3,0.3,0.3,0.3c0,0.3,0,0.3,0.3,0.3L92.4,61L92,61.3
		l-0.3,0.3V62c0,3.3,1,6.2,2.6,7.2c0.3,0,0.3,0.3,0.3,0.3H94c-0.7,0-1.3,0-2-0.3l-0.3,2.9h-0.7l-0.3-2.9c-0.7,0.3-1.6,0.3-2,0.3
		h-0.7c0,0,0-0.3,0.3-0.3c1.6-1,2.6-3.9,2.6-7.2v-0.3l-0.3-0.3L90.4,61l-0.3-0.3c0,0,0.3,0,0.3-0.3c0,0,0.3,0,0.3-0.3l0.3-0.3
		L91.4,59.4z M106.7,59.4l0.3,0.3l0.3,0.3l0.3,0.3l0.3,0.3V61l-0.7,0.3l-0.3,0.3V62c0,3.3,1,6.2,2.6,7.2c0.3,0,0.3,0.3,0.3,0.3h-0.7
		c-0.3,0-1.3,0-2-0.3l-0.3,2.9h-0.7l-0.3-2.9c-0.7,0.3-1.3,0.3-2,0.3h-0.7c0-0.3,0.3-0.3,0.3-0.3c0.3-0.3,1-0.6,1.3-1.3
		c0.7-1,1-2,1-2.6c0-0.7,0.3-1.3,0.3-1.3v-1.6l0.3-0.7h-0.3l-1-1l0.3-0.3l0.3-0.3l0.3-0.3L106.7,59.4L106.7,59.4z M99.2,68.5v0.3
		c0.3,0,0.3,0,0.3,0.3c0.3,0,0.3,0,0.3,0.3c0.3,0,0.3,0,0.7,0.3h-0.3l-0.3,0.3l-0.3,0.3l-0.3,0.3v0.7l0.3,1.3c0,2.3,1.3,4.6,2.6,5.2
		c0,0.3,0.3,0.3,0.3,0.7h-1c-0.3,0-1.3-0.3-1.6-0.3l-0.7,2.9h-0.3l-0.7-2.9c-0.3,0.3-1.3,0.3-2,0.3c-0.3,0-0.3,0-0.3-0.3l0.3-0.3
		c0.3,0,1-0.6,1.3-1.3c0.7-1,1-2,1-2.3c0-1,0-1.6,0.3-1.6v-2l-0.3-0.3l-0.3-0.3l-0.3-0.3c0-0.3,0.3-0.3,0.3-0.3
		C98.6,68.8,98.9,68.8,99.2,68.5L99.2,68.5z M114.6,68.5c0.3,0,0.3,0,0.3,0.3c0.3,0,0.3,0,0.3,0.3c0,0,0.3,0,0.3,0.3
		c0,0,0.3,0,0.3,0.3c-0.3,0.3-0.3,0.3-0.7,0.3c0,0.3-0.3,0.3-0.3,0.3v2.3c0.3,2.3,1.3,4.6,2.6,5.2c0.3,0.3,0.3,0.3,0.3,0.7h-0.7
		c-0.3,0-1.3-0.3-2-0.3l-0.3,2.9h-0.7l-0.3-2.9c-0.7,0.3-1.3,0.3-2,0.3c-0.3,0-0.7,0-0.7-0.3c0,0,0.3,0,0.3-0.3c0.3,0,1-0.6,1.3-1.3
		c0.7-1,1-2,1.3-2.3v-2.9l0.3-0.7l-0.3-0.3l-0.3-0.3l-0.3-0.3h-0.3l0.3-0.3L114.6,68.5L114.6,68.5z M122.4,59.4l0.3,0.3L123,60
		l0.3,0.3l0.3,0.3l-0.3,0.3l-0.3,0.3l-0.3,0.3V62c0,3.3,1,6.2,2.6,7.2c0.3,0,0.3,0.3,0.3,0.3H125c-0.7,0-1.3,0-2-0.3l-0.3,2.9h-0.7
		l-0.3-2.9c-0.7,0.3-1.6,0.3-2,0.3h-0.7c0-0.3,0-0.3,0.3-0.3c0.3-0.3,1-0.6,1.3-1.3c0.7-1,1-2,1-2.6c0-0.7,0-1.3,0.3-1.3v-2.3
		l-0.3-0.3l-0.7-0.3v-0.3l0.3-0.3l0.3-0.3l0.3-0.3L122.4,59.4L122.4,59.4z M62.4,101.1c0.3,0.3,0.3,0.7,1,1c0,0.3,0.3,0.3,0.3,0.3
		l-0.3,0.3l-0.3,0.3l-0.3,0.3v2.3c0,1.3,0.7,2.9,1.3,3.9c0.3,0.6,1,1.3,1.3,1.3c0.3,0,0.3,0.3,0.3,0.3s0,0.3-0.7,0.3s-1.3-0.3-2-0.3
		l-0.3,2.6H62l-0.3-2.6c-0.7,0-1.3,0.3-2,0.3h-0.3c-0.3,0-0.3-0.3-0.3-0.3s0-0.3,0.3-0.3c0.3-0.3,1-0.7,1.3-1.3c0.7-1.3,1-2,1-2.3
		c0-1,0.3-1.6,0.3-1.6v-2.3l-0.3-0.3l-0.3-0.3l-0.3-0.3c0.3,0,0.3,0,0.3-0.3c0.3,0,0.3-0.3,0.3-0.3s0.3,0,0.3-0.3
		C62,101.4,62.4,101.4,62.4,101.1L62.4,101.1z M76.7,101.1c0.3,0.3,0.7,0.7,1,1l0.3,0.3v0.3l-0.3,0.3l-0.3,0.3l-0.3,0.3v2
		c0.3,1.3,0.7,2.9,1.3,3.9c0.7,0.6,1,1.3,1.3,1.3s0.3,0.3,0.3,0.3s0,0.3-0.3,0.3c-0.7,0-1.6-0.3-2-0.3l-0.7,2.6h-0.3l-0.7-2.6
		c-0.3,0-1.3,0.3-1.6,0.3h-0.3c-0.3,0-0.7-0.3-0.7-0.3s0.3-0.3,0.7-0.3c0.3-0.3,0.7-0.7,1-1.3c1-1.3,1.3-2,1.3-2.3v-1.6l0.3-1.6
		v-0.3l-0.3-0.3l-0.7-0.7l-0.3-0.3c0.3,0,0.3,0,0.3-0.3c0.3,0,0.3-0.3,0.7-0.3l0.3-0.3L76.7,101.1L76.7,101.1z M69.5,114.2v0.6h0.7
		l0.3,0.6l0.3,0.3h-0.3l-0.3,0.3c0,0,0,0.3-0.3,0.3c0,0,0,0.3-0.3,0.3l0.3,0.3v1.6c0,2.3,1.3,4.9,2.6,5.2l0.3,0.3v0.3h-1.6
		c0-0.3-0.3-0.3-0.7-0.3h-0.3l-0.3,2.9h-0.7l-0.3-2.9h-0.3l-1,0.3h-1c-0.3,0-0.3,0-0.3-0.3l0.3-0.3c0.3,0,1-0.6,1.3-1.3
		c0.7-1,1-2,1-2.3c0-1,0-1.6,0.3-1.6v-2.3l-0.3-0.3l-0.3-0.3h-0.3l0.3-0.3l0.3-0.6l0.3-0.3L69.5,114.2L69.5,114.2z M62.4,127.5
		l0.3,0.3l0.3,0.3l0.3,0.6l0.3,0.3h-0.3l-0.3,0.3l-0.3,0.3v2.3c0,2.3,1.3,4.6,2.6,5.2l0.3,0.3l-0.3,0.3H65c-0.3,0-1-0.3-2-0.3
		l-0.3,2.9H62l-0.3-2.9c-1,0-1.6,0.3-2,0.3c-0.7,0-0.7,0-0.7-0.3l0.3-0.3c0.3,0,1-0.7,1.3-1.3c0.7-1,1-2,1-2.3c0-1,0-1.6,0.3-1.6
		v-2.3c-0.3,0-0.3-0.3-0.3-0.3l-0.3-0.3H61l0.3-0.3l0.3-0.6l0.3-0.3L62.4,127.5L62.4,127.5z M76.7,127.5l0.3,0.3l0.3,0.3l0.3,0.6
		l0.3,0.3l-0.3,0.3c-0.3,0-0.3,0.3-0.3,0.3c-0.3,0-0.3,0.3-0.3,0.3v2c0.3,1.3,0.7,2.9,1.3,3.9c0.7,0.6,1,1.3,1.3,1.3l0.3,0.3
		c0,0.3,0,0.3-0.3,0.3c-0.7,0-1.3-0.3-2-0.3l-0.7,2.9h-0.3l-0.7-2.9c-1,0-1.3,0.3-1.6,0.3h-0.3c-0.3,0-0.7,0-0.7-0.3
		c0,0,0.3,0,0.7-0.3c0.3,0,0.7-0.7,1-1.3c1-1,1.3-2,1.3-2.3v-1.6l0.3-1.6v-0.3l-0.3-0.3l-0.3-0.3l-0.3-0.3h-0.3l0.3-0.3l0.7-0.6
		l0.3-0.3L76.7,127.5L76.7,127.5L76.7,127.5z M69.5,88.1l0.3,0.3l0.3,0.3l0.3,0.3l0.3,0.3l-0.3,0.3L70.2,90l-0.3,0.3h-0.3l0.3,0.7
		v1.3c0,2.3,1.3,4.9,2.6,5.6c0,0,0.3,0,0.3,0.3h-0.7c-0.3,0-1,0-2-0.3l-0.3,2.9h-0.7l-0.3-2.9c-1,0.3-1.6,0.3-2,0.3h-0.7
		c0-0.3,0-0.3,0.3-0.3l1.3-1.3c0.7-1.3,1-2,1-2.6c0-0.6,0-1.6,0.3-1.6v-2L68.9,90l-0.3-0.3l-0.3-0.3l0.3-0.3l0.3-0.3l0.3-0.3
		L69.5,88.1L69.5,88.1z M62.4,14v0.3l0.3,0.3c0.3,0,0.3,0.3,0.7,0.3v0.7L63,16l-0.3,0.3c0,0-0.3,0-0.3,0.3V17l0.3,1.6
		c0,1.3,0.7,3.3,1.3,3.9l0.7,1l0.3,0.3l0.7,0.3L65,24.5l-0.3-0.3H63l-0.7,2.6L62,27.1l-0.3-2.9h-2l-0.3,0.3c-0.3,0-0.3-0.3-0.3-0.3
		v-0.3c0,0,0.3,0,0.7-0.3c0.7-0.3,0.7-0.7,1.3-2c0.3-0.7,0.7-1,0.7-1.3c0-1,0-1.6,0.3-1.6v-2l-0.3-0.3L61.4,16l-0.3-0.3v-0.3
		l0.3-0.3C61.7,14.7,62,14.7,62.4,14L62.4,14z M76.7,14c0.3,0.7,0.7,0.7,1,1l0.3,0.3v0.3L77.7,16l-0.3,0.3L77,16.6v2
		c0.3,2,1.6,4.6,2.6,5.2c0.3,0,0.3,0.3,0.3,0.3v0.3l-0.7-0.3h-1.6L77,27.1h-0.3l-0.7-2.9l-0.3-0.3l-0.7,0.3h-0.7l-0.3,0.3h-0.3v-0.3
		v-0.3l0.7-0.3c0.7-0.3,0.7-0.7,1.3-2c0.3-0.7,0.7-1,0.7-1.3v-1.6l0.3-1.6v-0.3l-0.3-0.3L76.1,16c0-0.3-0.3-0.3-0.3-0.3l-0.3-0.3
		c0.3,0,0.3,0,0.3-0.3c0.3,0,0.3-0.3,0.7-0.3l0.3-0.3C76.7,14.3,76.7,14.3,76.7,14L76.7,14z M69.5,26.7v0.3l0.3,0.3
		c0.3,0.3,0.3,0.3,0.6,0.3c0,0.3,0,0.3,0.3,0.3l-0.3,0.3l-0.3,0.3L69.9,29l-0.3,0.3v0.3l0.3,1.3c0,2.3,1.3,4.9,2.6,5.5l0.3,0.3h-1
		c-0.3,0-1.3,0-1.6-0.3l-0.7,2.9h-0.3l-0.3-2.9c-0.7,0.3-1.6,0.3-2.3,0.3h-0.3c0,0,0-0.3,0.3-0.3c0.3,0,1-0.7,1.3-1.3
		c0.7-1,1-2,1-2.3c0-1,0-1.6,0.3-1.6v-2c0-0.3,0-0.3-0.3-0.3v-0.3l-0.7-0.3V28l0.3-0.3l0.3-0.3l0.3-0.3L69.5,26.7L69.5,26.7z
		 M62,39.5l0.3,0.3l0.3,0.3l0.3,0.3l0.3,0.3L63,41.4l-0.3,0.3h-0.3v0.3c0,2.3,0.7,4.9,1.3,5.5l1,1.3l0.3,0.3h0.3L65,49.6h-1
		l-0.7-0.3H63l-0.7,2.9H62l-0.7-2.9h-0.3l-0.7,0.3h-1.6l0.3-0.3l0.7-0.3c1.3-1.3,2.3-3.9,2.3-6.8v-0.3h-0.3l-0.3-0.3
		c0-0.3-0.3-0.3-0.3-0.6h-0.3c0.3,0,0.3-0.3,0.7-0.3c0,0,0-0.3,0.3-0.3l0.3-0.3L62,39.5L62,39.5z M76.7,39.5c0.3,0,0.3,0.3,0.3,0.3
		c0.3,0,0.3,0.3,0.3,0.3s0.3,0,0.3,0.3l0.3,0.3l-0.7,0.6L77,41.7v2c0.3,2.3,1,4.2,2.6,5.5H80l-0.3,0.3h-1L78,49.2h-0.7L77,52.2h-0.7
		l-0.3-2.9c-0.7,0-0.7,0.3-1,0.3h-1.6l0.3-0.3l0.7-0.3c0.3-0.7,0.7-0.7,1.3-2.3c0.3-0.7,0.3-1,0.3-1.3c0-0.7,0.3-1.6,0.3-1.6v-1.3
		l0.3-0.7h-0.3l-0.3-0.3l-0.3-0.6h-0.3c0.3,0,0.3-0.3,0.3-0.3L76.7,39.5L76.7,39.5z M46.4,32.9l0.3,0.7c0,0.3,0.3,1,0.3,1.3
		c0.3,2.3,1,2.9,2,2.9c0.7,0,1.3-0.7,1.3-1l0.3-1l0.3-0.3c0.3,0,0.7,0.7,0.7,1.6c0,0.3,0,1,0.3,2c0,0.7,0.3,1.3,0.3,1.6
		c0,0.6-0.3,1-0.3,1.3c0,1,0.3,2,0.3,2.6c0,1-0.3,2-0.7,2.3c0.3,0.7,0.3,1,0.3,1.6c0,0.3,0,1-0.3,1.3v2.6l-1-0.3L50,51.9
		c-0.3-0.3-0.7-0.3-1-0.7c-1,0.7-1,0.7-3.3,1.3c-0.3,0-0.7,0-0.7,0.3c-0.3,0-0.7,0.3-0.7,0.3c-0.3,0-0.7-0.7-0.7-2
		c0-0.7,0.3-1.6,0.3-2c-0.7-0.3-1-0.7-1.3-0.7c0,0-0.3,0.3-0.6,0.3h-0.3v-0.3v-1l0.7-1c0-0.3,0.3-0.7,1-1.3c0.3-0.3,0.7-0.3,1-0.7
		h1.3c1-0.3,1.6-0.7,1.6-1.3s-0.7-1-1.3-1.3l-2-0.7c-0.3,0-1-0.3-1.3-0.6c-1-0.7-1.3-0.7-1.6-0.7c-0.3,0-0.3,0-0.3,0.7
		c0,0.6,0.3,1.3,1,1.3c0.3,0,0.3,0,0.3-0.3h0.6c0,0,0.3,0,0.3,0.3l-0.3,1c0,0.3-0.3,1.3-1.3,2.3L41.2,46c-0.3,1.3-1,2.3-2,2.9
		c-0.3,0.3-0.7,0.3-0.7,0.3s0,0.3-0.3,0.7c0,0.3-0.3,0.7-0.7,1l-1,1c-0.7,0.3-1,0.7-1,0.7l-0.3,0.7c0,0.3-0.3,0.3-0.3,0.3
		c-0.3,0-0.7-0.3-1-1c0-0.7-0.3-0.7-0.7-0.7h-2.6c-0.7,0-1.6,0.3-2.3,0.7h-0.3c0,0-0.3,0-0.3-0.3v-0.3c0-0.7,0.3-2,1.3-3.3
		c0.3-0.7,0.3-0.7,1-1.3c-0.3-0.6-0.7-1-1.3-1.3h-0.7v-0.3c0-0.3,0.3-0.3,1-0.7c0.7-0.7,1.6-0.7,2-0.7c1,0,1.6,0,2.3,0.7
		c1,1,1.3,1,2,1c0.7,0,1.6-0.7,1.6-1.6c0-0.3-0.3-1-1-2c-1.3-1.6-1.6-2.3-1.6-3.3c0-0.7,0.3-1.6,0.7-2l0.3-0.7v-0.3
		c0-0.3-0.3-0.7-0.7-0.7c-0.7,0-2,0.7-2.9,1.3c-0.3,0-0.7,0.7-0.7,0.7v0.3l0.7,0.3v0.3l-0.3,0.3l-0.7,1c-0.3,0.3-1,1.3-1.6,1.6
		c-0.3,0.3-0.3,0.3-0.7,0.3c0,0,0,0.3-0.3,0.7c0,0.7-1,1.3-1.6,2c-0.3,0.3-0.7,0.3-0.7,0.3s0,0.3-0.3,0.7c0,0.3-0.3,0.7-0.3,1
		c-0.7,0.3-1,1-1,1l-1.3,1.3c-0.3,0.3-0.7,1-1,2.6l-0.7,1.3c-0.3,0-0.3,0-0.3-0.3c-1-1-1.6-1.3-2-1.3h-0.3c-0.3,0.3-1,0.3-1.3,0.7
		H16c-1.3,0.3-1.6,0.7-2.3,1.3l-0.3,0.3c-0.3,0-0.3-0.3-0.3-0.3v-0.7l0.3-1c0-1,0.3-2,0.6-2.6l0.7-1.3C15,47,15,47,15,46.6
		c0-1-1-1.6-2.3-2h-0.3c0-0.3,0.3-0.7,0.7-1c1-0.7,2-1.3,2.6-1.3s1.3,0.3,2,0.7l1,0.3c0.3,0,0.7,0.3,0.7,0.3c1,0,2-1,3.3-2.9
		c0.3-1,0.7-1.3,0.7-2c0-1-0.7-1.6-1.3-1.6s-1.3,0.3-2,0.7c-0.3,0.3-0.3,1-0.3,1.3v0.7c0,0.3-0.3,0.3-0.3,0.3c-0.7,0-1-0.3-2.6-2.3
		c-1.3-1.6-1.6-2-1.6-3.6c-1.3-1.6-1.6-2.6-1.6-3.6v-1c-1-1-1.3-1.6-1.3-2.9c0-0.3,0.3-0.3,0.3-1c-0.3-0.7-0.7-1-0.7-1.6l-0.3-0.7
		c0-0.6-0.2-1.2-0.7-1.6c-0.3-0.3-0.3-0.6-0.3-0.6c0-0.7,0.3-0.7,1.6-1v-1c0-0.3,0-0.3,0.3-1v-1.6c0.3-0.3,0.3-1,0.3-1.3
		c0,0,0-0.3-0.3-1.3c0-0.3-0.3-0.7-0.3-0.7c-0.3-0.3-0.3-0.7-0.3-0.7c0-0.3,0-0.3,0.3-0.3c0.3,0,1.3,0.7,2.6,1.6
		c2.3,2,2.6,2.6,2.9,4.9c0,0.3,0.3,0.7,0.3,1c1,0.6,1.6,1.7,1.6,2.9c0,0.7-0.3,1.6-1,2.6l-0.7,1c-0.3,0.6-0.3,1-0.3,1.6
		c0,0.7,0.3,1.3,0.7,2.3c0.7,1,1.3,1.6,2,1.6c1,0,2-2,2-3.9v-1.3v-1.3c0-0.7,0.3-1,0.3-1v-1.6c0-0.3-0.3-0.7-0.7-1l-0.7-1
		c-1.3-1.3-2-2.6-2-3.6c0-1.3,0.7-2.3,2-2.3c0.3,0,0.3,0.3,1,0.3V15c0-1.6,0.3-2.9,0.7-2.9h0.3l0.7,0.6l1,0.3v0.3
		c0-0.3,0.3-0.3,0.7-1c0-0.3,0.3-0.3,0.7-1c0-0.3,0.3-0.3,0.3-0.3c0-0.3,0-0.3,0.3-0.7c0,0,0-0.3,0.3-0.3c0,0,0,0.3,0.3,0.7
		c0,0.3,0,0.3,0.7,1c0.3,0.3,0.7,0.3,0.7,0.7c0,0,0,0.3,0.3,0.7v0.3c0.3-0.3,0.7-0.3,1-0.7l0.7-0.3l0.3-0.3c0,0,0,0.3,0.3,0.3
		c0,0.3,0,0.3,0.3,0.7c0.3,0.6,0.3,1,0.3,1.3v1c1.3,0.3,2,1.3,2,2.6c0,1-0.7,2.3-1.6,3.6c-0.7,0.7-0.7,1-0.7,1.3
		c0,3.3,2,4.9,5.5,4.9h2.9c1.6,0,2.6,0.3,4.2,0.7c2,0.7,2.6,1,2.9,1c0.3,0,0.7,0,0.7-0.3c0.3,0,0.3,0,0.3-0.3c0-0.7-1-1-4.2-2
		c-6.8-2-9.5-4.6-9.5-8.8c0-3.6,2.6-6.2,6.5-6.2c1,0,2.9,0.3,3.9,0.7l1.6,0.7c0.3,0,0.7,0.3,1,0.3c0.7,0,0.7-0.7,0.7-1.6
		c0-0.3,0.3-0.7,0.7-0.7c0.3,0,1.3,0.7,2,1.6c0.7,0.7,1,2,1,2.6c0,1-0.3,1.6-1.3,2c-1,1.6-2.3,2-3.6,2c-1.3,0-2.9-0.7-5.5-2
		c-1-0.7-1.6-1-2-1c-1,0-1.3,0.7-1.3,1.3c0,0.3,0.3,1,1.6,1.3c1.6,0.7,2.3,0.7,2.9,1.6c2,0.3,2.9,0.7,4.2,1.6c3.6,1,5.9,3.6,5.9,6.2
		c0,2.9-2,4.9-4.6,4.9C47.7,33.3,47.4,32.9,46.4,32.9L46.4,32.9z M122.1,32.9v0.7c0.3,0.3,0.3,1,0.3,1.3c0.7,2.3,1,2.9,2.3,2.9
		c0.7,0,1-0.7,1.3-1v-1c0.3,0,0.3-0.3,0.7-0.3s0.7,0.7,0.7,1.6c0,0.3,0,1,0.3,2v2c0,0.3,0,0.7-0.3,1l0.3,0.7V44c0,2,0,2.3-0.3,2.9
		v2.9l-0.3,1.3v0.7c0.3,0.3,0.3,0.3,0.3,0.7h-0.3l-0.7-0.3l-1-0.3c-0.3-0.3-0.3-0.3-1-0.7c-0.7,0.7-0.7,0.7-1.6,1
		c-1.3,0.3-2,0.3-2.3,0.7l-0.3,0.3c-0.3,0-0.7-0.7-0.7-1.6c0-1.3,0-2,0.3-2.3c-1-0.3-1.3-0.7-1.6-0.7l-0.3,0.3h-0.3l-0.3-0.3
		c0-0.7,0.3-1.3,0.7-2c0.7-1,1.6-1.6,2-2h1.6c1-0.3,1.3-0.7,1.3-1.3s-0.3-1-1.3-1.3l-1.6-0.7c-0.7-0.3-1-0.3-1.6-0.6
		c-0.3-0.3-0.7-0.7-1-0.7h-0.3c-0.3,0-0.7,0-0.7,0.7c0,0.6,0.7,1.3,1.3,1.3c0,0,0.3,0,0.3-0.3h0.3c0.3,0,0.3,0.3,0.3,0.3
		c0,0.7-0.3,2-1,2.6l-0.3,0.7l-0.3,0.7c-0.5,1.2-1.3,2.2-2.3,2.9l-0.3,0.3c0,0-0.3,0.3-0.3,0.7c0,0.3-0.3,0.7-1,1l-1,1l-0.7,0.7
		l-0.7,0.7c0,0.3,0,0.3-0.3,0.3c-0.3,0-0.7-0.3-0.7-1c-0.3-0.7-0.3-0.7-0.7-0.7h-2.6c-1,0-2,0.3-2.3,0.7h-0.7c0,0-0.3-0.3-0.3-0.7
		c0-1.3,1-3.3,2.3-4.6c0-0.7-0.3-1-1-1.3h-0.7l-0.3-0.3c0-0.3,0.3-0.7,1-0.7c1.3-0.7,1.6-0.7,2.3-0.7s1.3,0,2,0.7c1.3,1,1.6,1,2,1
		c1,0,1.6-0.7,1.6-1.6c0-0.3,0-1-1-2c-1-1.6-1.3-2.3-1.3-3.6c0-0.7,0-1.3,0.7-2.3l0.3-0.3c0-0.3-0.3-0.7-1-0.7c-0.3,0-1,0.3-1.6,0.7
		c-1,0.7-2,1-2,1.3c0,0.3,0.3,0.3,0.3,0.3l0.3,0.3v0.7l-1,1c-0.4,0.7-0.9,1.3-1.6,1.6c0,0.3-0.3,0.3-0.3,0.3l-0.3,0.7
		c-0.3,0.7-1,1.3-1.6,2c-0.3,0.3-0.7,0.3-0.7,0.3c0,0.3-0.3,0.3-0.3,0.7c-0.3,0.7-1,1.6-1.6,2l-1,1.3c-0.3,0.3-0.7,1.3-1.3,2.6
		c-0.3,1-0.3,1.3-0.7,1.3l-0.3-0.3c-0.7-1-1.3-1.3-1.6-1.3H94c-0.3,0.3-0.7,0.3-1,0.7h-1.6c-1,0.3-1.6,0.7-2.3,1.3
		c0,0.3,0,0.3-0.3,0.3v-1v-1c0.3-1,0.7-2,1-2.6l0.7-1.3c0,0,0.3-0.3,0.3-0.7c0-1-1-1.6-2.3-2c-0.3,0-0.3,0-0.3-0.3l0.7-0.7
		c1-0.7,2-1.3,2.6-1.3c0.3,0,1,0.3,1.6,0.7l1,0.3c0.3,0,0.6,0.3,1,0.3c1,0,2-1,2.9-2.9c0.7-1,0.7-1.3,0.7-2c0-1-0.3-1.6-1.3-1.6
		c-0.3,0-1,0.3-1.6,0.7c-0.3,0.3-0.7,1-0.7,1.3v0.7c0,0.3,0,0.3-0.3,0.3c-0.3,0-0.6-0.3-1.3-1c-0.3-0.3-0.7-1-1.3-1.3
		c-1-1.6-1.3-2-1.3-3.6c-1.3-1.6-1.6-2.6-1.6-3.6v-1c-1-1.3-1.3-1.6-1.3-2.6c0-0.6,0-1,0.3-1.3c-0.7-0.7-0.7-1-1-1.6v-0.7
		c-0.3-0.7-0.3-1.3-0.7-1.6c-0.3-0.3-0.3-0.7-0.3-0.7c0-0.3,0.3-0.7,1.3-1h0.3v-1v-1l0.3-1.6v-1.3V14c-0.3-0.3-0.3-0.7-0.7-0.7v-0.7
		c0,0,0-0.3,0.3-0.3c0,0,0.3,0,0.3,0.3c1.3,0.7,2.9,2,3.9,2.9s1.3,2,1.3,4.2c1.3,1,2,1.6,2,2.9c0,1-0.3,1.6-1,2.6
		c-0.3,0.7-0.7,1-0.7,1c-0.3,0.6-0.7,1-0.7,1.6c0,0.7,0.3,1.3,1,2.3c0.6,1,1,1.6,1.6,1.6c1.3,0,2.3-2,2.3-3.9l-0.3-0.3v-1.3l0.3-1
		v-2.6c0-0.3,0-0.3-1.3-2c-1.3-1.3-2-2.6-2-3.6c0-1.3,1-2.3,2-2.3c0.3,0,0.7,0.3,1,0.3V14l0.3-1c0.3-1,0.3-1,0.7-1l1,0.6l0.7,0.3
		l0.3,0.3c0-0.3,0-0.7,0.7-1c0-0.3,0.3-0.7,0.3-1l0.7-0.3v-0.7c0.3,0,0.3-0.3,0.3-0.3c0.3,0,0.3,0.3,0.3,0.7
		c0.3,0.3,0.3,0.3,0.3,0.7l0.7,0.3c0.3,0.3,0.7,1,1,1.6l0.7-0.7l0.7-0.3c0.3,0,0.3-0.3,0.7-0.3v0.3c0,0.3,0.3,0.3,0.3,0.7
		c0.7,1,0.7,1,0.7,1.6v0.7c1.3,0.3,1.6,1,1.6,2.6c0,1-0.3,2.3-1.3,3.6c-0.7,0.7-1,1-1,1.6c0,2.9,2.3,4.6,5.9,4.6h2.6
		c2,0,2.9,0.3,4.6,0.7c1.6,0.7,2.3,1,2.9,1c0.3,0,0.7-0.3,0.7-0.7c0-0.7-1-1-4.2-2c-6.5-2-9.5-4.6-9.5-8.8c0-3.6,2.9-6.2,6.5-6.2
		c1.3,0,2.9,0.3,4.2,0.7l1.6,0.7c0.3,0,0.7,0.3,0.7,0.3c0.7,0,1-0.7,1-1.6c0-0.3,0.3-0.7,0.7-0.7s1,0.7,1.6,1.6c0.7,0.7,1,2,1,2.6
		c0,1-0.3,1.6-1.3,2c-1,1.6-2,2-3.6,2c-1,0-2.9-0.7-5.5-2c-1-0.7-1.3-1-2-1c-0.7,0-1,0.7-1,1.3c0,0.3,0.3,1,1.6,1.3
		c1.6,0.7,2.3,1,2.6,1.6c2.3,0.3,2.9,0.7,4.2,1.6c3.9,1.3,5.9,3.6,5.9,6.2c0,2.9-1.6,4.9-4.2,4.9C123.4,33.3,123,32.9,122.1,32.9
		L122.1,32.9z M47.4,109.3c0.3,1,0.3,1.3,0.3,2v1.6c0.3,1.6,0.7,2.6,2,2.6c0.3,0,0.7,0,0.7-0.3l0.7-0.3c0.3,0,0.7,0,0.7,0.3v0.7
		c-0.3,0.3,0,1,0,2v1.6c0,1,0,1.3-0.3,2c0.3,0.6,0.7,1.6,0.7,2.3c0,1-0.3,1.6-0.7,2c0.3,1,0.3,1,0.3,1.6c0,0.3,0,1-0.3,1.3v2.3
		c0,0,0,0.3-0.3,0.3l-0.3-0.3c-0.3-0.3-0.7-0.3-0.7-0.3c-0.3,0-0.3,0-1,1.3c0,0.3-0.3,0.7-1,1.3c-0.3,0.6-0.7,1-0.7,1.3
		c0,0.3-0.3,0.6-0.3,1h-0.3c-0.7,0-1.3-1.3-2-4.2c-0.3-0.6-0.7-1-1-1c-0.3,0-0.7,0.3-0.7,0.6l-0.3,0.3c0,0.3,0,0.3-0.3,0.3
		c-0.3,0-0.7-0.6-1-1.3c-0.3-0.7-0.3-1.3-0.3-2c0-1.3,1-2.3,3.6-3.9c1.3-0.6,1.6-1.6,1.6-2.9c0-1.3-0.3-2-1.3-2.9c-1-0.6-1.3-1-2-1
		c-0.3,0-0.7,0.3-0.7,0.7s0.3,0.6,1,1c0.3,0,0.7,0.3,0.7,0.7c0,0,0,0.6-0.7,1.3c-0.3,0.6-0.7,1.1-1.3,1.3c0,1.3-0.7,2-2,2.6
		c0,1-0.3,1-0.7,1.6l-1,1c-0.3,0.3-0.7,1-0.7,1.3c0,0.6,0,0.6-0.3,0.6c-0.3,0-1-0.3-1.6-1.3c-0.3-0.3-0.3-0.7-0.7-1.3
		c-0.3,0.3-0.3,0.3-1.3,0.3c-0.3,0.3-0.7,0.3-1,0.3c-0.7,0.3-1,0.7-1,0.7s-0.3-0.3-0.3-0.7v-0.6c0-1.3,0.7-2.6,1.3-3.6
		c-0.7-0.7-1.3-1-2-1.3h-0.3c0,0,0-0.3,0.3-0.6c0.3-0.3,0.7-0.7,0.7-1c0.7-0.3,1.6-0.6,2.6-0.6c0.3,0,1.3,0,2.3,0.3
		c0.3,0.3,0.7,0.3,1,0.3c0.3,0,0.7-0.3,0.7-0.6c0-1-0.3-2-1.3-3.9c-0.7-1.3-0.7-2-0.7-2.6c0-1.3,0.7-2.9,1.3-3.3
		c-0.3-0.3-0.7-0.3-1-0.3c-0.3,0-0.7,0-1,0.3c-0.7,0.3-1,0.7-1,1c0,0,0,0.3,0.3,0.3c0.3,0.3,0.3,0.3,0.3,0.6c0,1-1,2.3-2,3.3
		c-0.3,1.3-1,2.3-2.3,2.9c0,0.6-0.3,1-1,1.6c-1,1.6-1.3,2-1.3,2.9c-0.3,0.3-0.3,0.7-0.3,0.7c-0.3,0-0.6-0.3-1-0.7
		c-0.3-0.6-0.7-0.6-0.7-1c-0.3-0.3-0.3-0.3-0.3-1.3c-0.3,0-0.7,0.3-0.7,0.3l-0.7-0.3h-0.3c-1,0-2,0.3-2.3,0.6h-0.3
		c-0.3,0-0.7-0.3-0.7-1c0-1.6,0.3-2.6,1.3-4.2c-0.3,0-0.3-0.3-0.7-0.7l-0.3-0.3h-0.3l-0.3-0.3c0-0.3,0.7-1,1.3-1.3
		c0.7-0.6,1.3-0.6,2-0.6c0.7,0,1,0,1.6,1c0.7,0.3,1,0.7,1.3,0.7c0.3,0,0.7-0.3,0.7-0.3c0-0.3,0.3-0.6,0.3-0.6c0-1-1-2.3-2-2.9
		c-1-0.3-1.6-0.6-2.6-0.6c-1,0-2,0.6-2.3,1.3l-0.7,1c0,0.3-0.3,0.3-0.3,0.3c-0.3,0-0.3,0-1.3-1l-1-1.3c-0.3-0.3-0.7-0.6-0.7-1
		c-0.3-0.3-0.3-0.7-0.3-0.7l-0.3-0.3c-1-0.6-1.3-1.6-1.6-3.3c-0.3-0.3-0.3-0.3-0.3-0.6c-1-1.3-1.6-2.6-1.6-3.9c0-0.3,0-0.3,0.3-0.7
		c-0.7-0.6-0.7-0.6-1.3-2.3c-0.3-1-0.3-1.6-1-2v-0.3c0-0.3,0.3-0.3,1-0.7h1.6v-1v-2c0-0.3,0.3-0.7,0.3-0.7c0-0.3,0-0.3-0.3-1v-0.3
		v-0.7h0.7c0.7,0.3,1.3,1,1.6,1.3c1.6,1,2.6,2.6,2.6,3.6v1c0,0.3,0,0.3,0.3,0.6l0.3,0.6c0.3,0.7,0.7,1.3,0.7,1.6
		c0,0.3,0,0.7-0.7,1.3c-0.7,1-0.7,1.3-0.7,2c0,0.7,0.3,1.6,0.7,2.6c0.7,0.6,1,1.3,1.6,1.3c1,0,1.3-1,1.3-2.9
		c0.3-1.3,0.3-2.3,0.3-3.3v-0.3c0-0.3,0-0.7-0.3-1l-1.3-1.3c-1-1.3-1.3-2-1.3-2.9c0-1.3,0.7-2,1.6-2h0.7v-0.3v-1
		c0.3-1,0.7-1.6,1-1.6l0.3,0.3h0.7c0.3,0.3,0.3,0.3,1,0.7c0-0.7,0.3-1,0.7-1.6c0.3-0.7,1-1,1.3-1c0,0,0.3,0,0.7,0.3l0.6,1
		c0,0,0.3,0.3,0.3,0.6l0.3,0.3c0.3,0,0.3-0.3,0.3-0.3c0.3,0,0.7-0.3,0.7-0.3c0.7-0.3,1-0.3,1-0.3l0.3-0.3c0,0,0.3,0.3,0.7,1.6v2
		c1.3,0,2,0.6,2,2.3c0,1.3-0.7,2.6-2,3.9c-0.3,0.3-0.3,0.7-0.3,1c0,3.6,1,4.9,5.5,5.2c2.9,0.3,3.6,0.6,6.8,1.6
		c2,0.3,2.9,0.7,3.6,0.7c0.7,0,1-0.3,1-1c0-0.6-0.3-1-3.6-1.6c-7.5-1.3-10.4-3.9-10.4-9.1c0-3.3,2.6-5.9,6.2-5.9
		c1.3,0,2.9,0.3,4.9,1.6C48,91,48.3,91,48.6,91c0.7,0,1-0.3,1-1.3c0-0.3,0-0.6,0.3-0.6c0.3,0,1,0.3,1.3,0.6c0.7,1,1,1.3,1,2.3
		c0,1.6-0.7,2.6-2.3,2.9l-0.3,0.3c-1,1-1.6,1.3-2.9,1.3s-2.6-0.3-3.6-1l-2-1.6c-1-0.3-1.3-0.6-2-0.6c-1,0-1.3,0.3-1.3,1.3
		c0,0.6,0.3,1.3,1.3,1.6l2,0.6c0.6,0.3,1,0.3,1.6,0.6h1c1,0,2.3,0.3,3.3,1c0.3,0,0.7,0,0.7,0.3H49c2.3,0.6,3.9,3.3,3.9,5.9
		c0,2.9-1.6,4.6-4.9,4.6L47.4,109.3L47.4,109.3L47.4,109.3z M117.8,108.6c0.7,1,1.6,1.6,2.3,1.6c0.3,0,0.7,0,1.3-0.3h0.3
		c0.3,0,0.3,0,0.3,0.3c0,0,0,0.3-0.3,0.7v1l-0.3,0.7l-0.3,0.6l-0.7,0.6v0.7c0,1-0.3,1.6-1.3,2.3l-0.3,0.3c0,0.7-0.3,1.3-0.3,1.6
		c0,0-0.3,0.3-0.7,1c-0.7,0.6-1,1.3-1,1.6c-0.3,0.3-0.3,0.6-0.7,0.6c-0.3,0-1-0.6-1-1.3v0.3l-0.7,0.3l-0.7,0.6
		c-0.3,0-0.7,0.3-0.7,0.3l-0.7,0.6c-0.3,0-0.7-0.3-0.7-1l-0.3-1.3c-0.3-0.3-0.3-1-0.3-1.3c0-0.6,0-1,0.3-1.6c-1,0.3-1,0.3-1.6,0.3
		h-0.3v-0.7l0.7-1.3c0.3-1.3,1.6-2.3,2.6-2.3c0.3,0,0.7,0.3,1.3,0.3h0.3c0.7,0,1-0.3,1-0.7c0-0.3,0-0.3-0.3-0.6c0,0-0.7,0-1.3-0.3
		c-1-0.3-1.3-0.3-2-1.3c-0.7-0.6-0.7-1-1-1l-0.3,0.3v1c0,1-0.3,2-1,3.6l-1.3,2c-0.3,1-0.7,2-0.7,2.6c0,0.6,0.3,1.6,1,1.6h0.3
		l0.3,0.3v0.6c0,0-0.3,0.3-0.7,1c-1,0.6-1.3,1-2,1.3c-0.7,1.3-1.3,2-2.9,2.3v0.3c-0.7,1-1.6,1.6-2.3,1.6h-0.3c0,0.6-0.3,1.6-1.3,2
		c-0.7,0.6-1,0.6-1,1v0.3c-0.3,0.3-0.3,0.3-0.7,0.3c-0.7,0-1-0.3-1-1c-0.3,0-0.3,0-0.3,0.3c-0.7,0.3-1,0.3-1,0.3s-0.7,0.3-1.3,0.3
		c-1,0.3-2,0.6-2.3,1.3l-0.3,0.3v0.3c-0.3,0-0.3-0.3-0.7-0.7c0-1-0.3-2-0.3-2.3c0-1.6,0.7-2.6,2-3.9v-0.3c0-2.3,1.6-3.9,4.2-3.9h0.3
		l1.3,0.3h0.3c0.7,0,1.3-0.3,2.3-1c1-1,1-1.3,1-2.3c0-0.3,0-0.6-0.3-1.6c0-0.6-0.3-1.3-0.3-2c0-1.6,1.3-3.6,2.9-4.9
		c0.7-0.3,0.7-0.6,0.7-1c0,0-0.3,0-0.3,0.3c-0.3,0-0.7,0.3-1,0.6l-0.7,0.3l-1,0.3c0,0-0.3,0-0.3,0.3l0.3,0.3v0.3c0,0,0,0.3-0.3,0.3
		l-0.3,1c-0.7,1-1,1.3-2,1.6c-0.3,1.3-1,2-2,2.3c-0.7,1.3-1.3,2-2.6,2c-0.3,0.7-0.8,1.4-1.3,2c-0.3,0.3-0.7,0.7-0.7,0.7l-0.3,0.6
		c-0.3,0-0.7-0.3-1-0.6c-0.3,0-0.3-0.3-0.3-0.3l-0.3-0.6c-0.3-0.3-0.3-0.3-0.7-0.3h-1c-0.7,0-1.3,0.6-1.6,1l-0.7,0.7v0.3
		c-0.3,0-0.7-1-0.7-2.3c0-1,0.3-2,0.7-2.3l1-1.6c0.3-0.3,0.3-0.7,0.3-0.7c0-0.3,0-0.3-0.3-0.6c0-0.3-0.3-0.3-0.7-0.3l-0.7-0.3h-0.3
		c0,0,0-0.3,0.3-0.3c0-0.3,0.7-0.6,1-1c1-0.7,1.6-0.7,2.3-0.7c0.7,0,1.3,0,2,0.7l1.3,0.6c0,0.3,0.3,0.3,0.7,0.3c0.3,0,1-0.3,1.3-1.3
		c0.3-0.7,0.3-1,0.3-1.6c0-1.6-1-2.6-2.6-2.6c-0.7,0-1.3,0.3-2,0.7c-0.3,0.3-0.3,0.3-0.3,0.6l-0.3,0.6l-0.3,0.3
		c-0.3,0-0.7-0.7-1-1.3c-0.3-0.7-0.7-1-0.7-1.6c-0.3-0.7-0.3-1.3-0.3-2v-1c-0.7-1-0.7-1.6-0.7-2.6c0-0.3,0-0.7,0.3-1.3
		c-0.3-0.6-0.7-1.3-0.7-2v-0.6l0.3-0.3v-0.6c-0.3-0.3-0.3-0.6-1-2.6c0-1-0.3-1.3-0.3-1.6c-0.3,0-0.3-0.3-0.3-0.3
		c0-0.3,0.7-0.3,1.3-0.3h0.7c-0.3-0.3-0.3-0.6-0.3-1c0-0.3,0.3-1,0.3-1.6c0.3-0.3,0.3-0.7,0.3-1s0-1-0.3-1l-0.3-1v-0.3h0.3
		c0.7,0,2.3,0.6,3.3,2c1.3,1,1.6,2,1.6,3.6v1c1,1,1.6,1.6,1.6,2.6c0,0.7-0.3,1-1,1.6c-1,1-1.3,1.6-1.3,2.9c0,2.3,0.7,3.3,2,3.3
		c1,0,2-1,2-2.6v-1.6c0-0.3,0.3-1,0.3-1.3v-1.3c0-0.3-0.3-1-1.3-2.3c-1-1.3-1.6-2-1.6-3.3c0-1,1-2,2.3-2h0.7c0-0.6,0-0.6,0.3-1.6
		c0.3-1,0.7-1.3,1-1.3h0.3c0,0.3,0.3,0.3,0.3,0.6h0.3c0.3,0.3,0.3,0.3,0.7,0.7c0-1,0.3-1.6,1-2.3c0.7-0.3,1-0.6,1-0.6s0.3,0,0.3,0.3
		l0.7,0.7l0.7,0.6c0,0.3,0.3,0.6,0.3,1.3l0.3-0.3l0.7-0.3c0.3,0,0.3-0.3,0.7-0.3h0.3l0.3,1l0.7,1.3v1h0.3c0.7,0,1.6,1,1.6,2.3
		c0,1.3-1.3,3.3-2.9,4.2v1c0,3.3,1,3.9,5.9,4.6c1,0.3,2.3,0.6,3.3,0.6c0,0.3,1.3,0.6,3.3,1.3c1,0.3,1.6,0.3,2.3,0.3s1,0,1-0.3
		c0-0.7-1-1-3.3-2l-3.6-1.6c-3.6-1.3-5.2-3.6-5.2-6.5c0-3.9,2.6-6.8,6.5-6.8c1.3,0,2.9,0.3,4.9,1.3c2.3,0.6,2.6,1,2.9,1
		c0.3,0,0.7-0.6,0.7-1.3c0-0.7,0.3-0.7,0.7-0.7c0.7,0,1,0.3,1.3,1c0.3,0.6,0.7,1.6,0.7,2.3c0,1.3-0.7,2.3-2,2.3c-1,1.3-2,2-3.3,2
		c-1.6,0-2.3-0.3-5.2-2.3c-1-0.6-1.3-0.6-2-0.6c-1,0-2,0.6-2,1.3c0,1,0.7,1.3,2,1.6c1,0.3,1,0.3,1.3,0.6h1c1.3,0,2.9,0.6,4.2,2
		c2.3,0.6,4.6,3.3,4.6,5.5c0,2.6-2,4.9-4.6,4.9C120.1,109.3,118.8,108.9,117.8,108.6L117.8,108.6z"/>
	<path class="st2" d="M50.6,50.6c-0.3-0.3-0.3-0.7-0.3-1v-0.3l0.3-0.7v-0.3c0-0.7-0.3-1-0.3-1.3l-0.7-0.7c0-0.3-0.3-0.7-0.3-0.7V45
		H50c0.3,0.3,0.3,0.3,0.7,0.3c0,0,0.3-0.7,0.3-1.3c0-0.7-0.3-1-0.3-1.3L50,42.1l-0.7-0.3v-0.3c0-0.3,0-0.3,0.3-0.3h1
		c0.3,0,0.3,0,0.3-0.3l-0.3-1v-0.7l-0.3-0.3H49c-1.3,0-2.9-1-3.3-2.6l-0.7-2.6c-0.3-0.7-1-1.3-2-2.3c-0.3-0.3-0.7-0.3-1-0.7h-1
		c0-0.3,0.3-0.3,0.6-0.3h1.3c0.3,0,1.3,0.3,2.3,0.7c1,0.3,2,0.7,2.6,0.7c2,0,3.3-1.3,3.3-2.9c0-1.3-0.7-2.6-1.6-3.6
		c-0.7-0.7-1.3-1-1.3-1c-0.3,0-0.3,0-0.3,0.3v0.3c0,0.3,0,0.7-0.3,0.7c0,0-0.3-0.3-0.7-1c-0.7-1.6-2-2.6-3.3-2.6l-0.3,0.3
		c0,0,0,0.3,0.3,0.7l0.3,0.7v0.3c-0.3,0-0.7,0-0.7-0.3l-0.7-0.7l-0.6-0.7c-0.3-0.7-0.7-1-1.6-1.6c-0.7,0-1-0.3-1-0.3
		c-0.3,0-0.3-0.3-0.7-0.3v0.7c0.3,0.7,0.7,0.7,0.7,1l-0.3,0.3c-0.3,0-1-0.7-1.6-1.6c-0.3-0.7-0.7-1.6-0.7-2.3c0-1.6,1.3-2.9,2.9-2.9
		c1,0,2,0.3,2.9,1l2,1c0.6,0.6,1.4,0.9,2.3,1c0.3,0,0.7-0.3,1.3-0.3c0,0,0.3,0,0.3-0.3H49c0-0.3,0-0.3-0.3-0.3l-1-0.3
		c-0.3,0-0.7,0-1-0.3c-1.3-0.3-2-0.7-2.3-1c-0.7-0.3-1-0.7-1.3-0.7l-0.3-0.3V14h0.7c0.3,0.7,1,0.7,1.3,0.7l1.6,0.7
		c1,0.3,2.3,0.7,2.9,0.7s1.3-0.7,1.3-1.3c0-0.7-0.3-1.3-0.7-2h-0.3c-0.3,0-0.3,0-0.3,0.3v0.6c0,0.7-0.3,1-0.7,1H48l-2.6-1
		c-2.3-0.6-3.3-1-4.2-1c-3.3,0-5.5,2.3-5.5,4.9c0,3.3,2.3,5.5,7.8,7.5c5.5,1.6,6.2,2.3,6.2,3.6c0,1-1,1.6-1.6,1.6h-1
		c-0.3-0.3-1.3-0.3-2.9-0.7C42.5,29,40.8,29,39.2,29c-3.9,0-6.2,0.7-8.2,2.6C30.7,32,30.4,32,29.7,32h-0.7c-0.7,0-1,0.3-1.3,0.7
		c-0.3,1-0.7,1.3-0.7,1.3l-0.3,0.3c-0.7,0-0.7-0.3-1.3-1.3c0-0.7-0.3-1-0.7-1.3l-1-0.7v-0.3v-0.3c0.3-0.7,0.7-1,0.7-1.3
		c0-0.3,0-0.3,0.3-0.3c0.3,0,0.3,0,0.3,1c0,0.3,0,0.7,0.3,1.3l0.3,1h0.7c0.3,0,0.7-1,1-2c0-1,0.3-1,0.3-1h0.3c0,0,0,0.3,0.3,0.7
		c0,0.3,0.3,0.3,0.3,0.7c0.3,0,0.7,0.3,0.7,0.3c0.3,0,0.3-0.3,0.7-1v-0.3l-0.3-0.7v-0.3c0-0.3,0.3-0.7,0.3-0.7s0.3,0,0.3,0.3
		l0.3,0.3c0.3,0.3,0.7,0.3,1,0.3c0.3,0,0.3,0,0.3-0.3c0,0,0-0.3-0.3-1l-0.3-0.3c-0.3-0.6-0.3-1-0.7-1h-0.7l-0.3,0.3h-0.3
		c0-0.7,0-1,0.7-1.6c0.3-0.7,0.3-1.6,0.7-3.3c0-2.3,0.3-3.6,0.7-3.6c0,0,0.3,0.3,0.3,0.7v1.6c0.3,0,0.7-0.7,1-1.3
		c0.3-0.3,0.3-0.7,0.3-1l-1-1.6L31.4,16h-0.3v-1.6L30.7,14v-0.3c-1,0.3-1.3,0.7-1.6,1c-0.3,0.7-0.7,0.7-0.7,0.7h-0.3
		c0-0.3,0-0.3,0.3-0.7v-0.3c0-1-0.6-1.6-1.6-2.3v0.3l-0.3,0.3l-0.7,0.7c0,0-0.3,0.3-0.3,0.7v0.7c0,0.3,0,0.7-0.3,0.7l-0.3-0.7
		l-0.3-0.3l-0.7-0.7h-0.7V14c0,0.3-0.3,0.3-0.3,0.7V16c0,0.3,0,0.7-0.3,0.7l-0.3-0.3h-0.7c-0.7,0-1,0.3-1,1c0,0.7,0,1.6,0.7,2l0.3,1
		c0.3,0,0.7,0.3,0.7,0v-1.3l-0.3-0.3c0-0.3,0.3-0.7,0.3-0.7c0.3,0,0.3,0.3,0.7,1l0.3,1.6l0.3,2c0,0.3,0.3,1,0.3,1.6
		c0.3,0.7,0.7,1,0.7,1.3l0.7,0.7c0,0.3,0,0.3-0.3,0.3h-0.3c0-0.3-0.3-0.3-0.3-0.3h-0.3c-0.7,0-1,0.7-1,3.3c0,1.6,0.3,3.9,1,4.9
		l0.7,2.3c0.3,0.3,0.3,0.7,0.3,1c0,2.9-3.9,7.5-8.2,9.8c-1.6,0.7-2.3,1.3-2.3,3.3v0.3c0.7-0.3,1-0.3,1.3-0.3
		c1.3-0.3,1.3-0.7,1.6-1.3l0.3-0.3c0-0.3,0-0.3,1-1c0.3,0,0.7-0.3,0.7-0.3c0-0.3,0.3-0.7,0.3-0.7c0.3,0,0.3,0,0.3,0.3l-0.7,1.3v0.3
		c0,0.7,0.7,1.3,1.3,2c0.3-1,0.3-1.3,0.7-2l0.7-1c0.3-0.3,0.3-1,0.3-1.6v-1.6c0-0.3,0-0.3,0.3-0.3h0.3v1h0.3c0.7,0,1-0.3,1.6-1.3
		c0-0.3,0.3-0.7,0.3-1v-0.7l-0.3-0.7c0-0.3,0.3-0.7,0.3-0.7c0.3,0,0.3,0.3,0.3,0.3l0.3,1c0,0.3,0,0.3,0.3,0.3c0.3,0,0.7-0.3,1-1
		c0.3-0.3,0.3-1,0.3-1.6c0-1,0.3-1,0.7-1l0.3,0.7c0,0,0,0.3,0.3,0.3c0,0,0.7-0.7,1-1.3v-0.3c0,0,0-0.3-0.3-0.3
		c-0.7-0.7-0.7-0.7-0.7-1c0-0.7,0.3-1,0.7-1.6c0-0.3,0.3-0.7,0.3-1c0.7-1,0.7-1,1-1s0.3,0,0.3,0.3v0.3c-0.3,0-0.3,0.3-0.3,0.3
		c0,0.3,0.3,0.3,0.3,0.3c0.3,0,0.3,0,0.7-0.3c0.3,0,0.7,0,1.3-0.3l1.3-0.7H36c0.3,0.3,0.7,0.3,0.7,0.3c0.7,0,1-0.3,1-0.7
		s-0.3-1-0.7-1.3l-0.3-0.3v-0.3h0.3c0.3,0,1,0.7,1.3,1.6c3.6,5.2,4.9,6.8,7.2,7.5c2.3,0.7,2.9,1.3,2.9,2.6c0,0.7-0.3,1.6-1.3,2.9
		c-1.6,2.3-2,3.3-2,4.9v0.3h0.3c0.3-0.3,0.7-0.3,0.7-0.3l1-0.3c0.3,0,0.7-0.3,0.7-0.7v-0.3l-0.3-0.7v-0.3c0-0.3,0.3-0.7,0.7-0.7
		v-0.3c0.3,0,0.3,0.3,0.3,0.3l0.7,1.3C49.3,49.9,49.6,50.2,50.6,50.6L50.6,50.6z M17.7,21.2c0,0-0.3,0.3-0.3,1v0.7
		c-0.3,0.7-0.3,0.7-0.3,1c0,0.7,0.3,1,0.7,1c0.3,0,0.7-0.3,0.7-1c0.3-0.3,0.3-0.7,0.3-1c0-0.3,0-0.7-0.3-1
		C18.3,21.5,18,21.2,17.7,21.2z"/>
	<path class="st2" d="M14.1,15v0.3c0,0.3,0,1-0.6,2.6v0.7c0,0.3,0,0.7,0.3,1l0.3,0.3l0.7,0.3v1.6c0.3,0.3,0.3,0.7,0.3,1v0.7
		c-0.3,0-0.7-0.7-1-1c-0.3-1-0.6-1.6-1-1.6c-0.7,0-1,0.3-1.3,0.3v0.3c0,0.3,0.3,0.3,0.7,1l0.3,1l0.7,1.3l0.6,0.7c0,0,0.3,0,0.7,0.3
		c0.3,0,0.3,0.3,0.3,0.3s0,0.3-0.3,0.3h-0.7l-0.3-0.3v0.7c0,1,0.7,2.3,2.3,3.3c0.3,0.3,0.3,0.3,0.3,0.7c0,0,0,0.3-0.3,0.3l-0.3-0.3
		h-0.3c-0.3,0-0.3,0-0.3,0.3c0,0.3,0,1,0.7,2c0.3,0.6,0.7,1,1.3,1.3l2,0.7v0.3c0,0,0,0.3-0.3,0.3H17c0,0.3,0.3,1,0.7,1.3
		c0.7,1,1,1.3,1,1.3c0.3,0,0.3,0,0.3-0.3l0.7-1c0,0,0.3-0.3,1-0.7c0.3-0.3,0.7-0.3,1-0.3l1-0.3v-2.9L22.2,32v-0.3
		c-0.3,0-0.3,0-0.3,0.3c-0.7,1-1.3,1.3-2,1.3c-2,0-3.6-3.9-3.6-8.8v-2v-2c0-2.3-0.3-3.6-1.3-4.6l-0.7-0.7L14.1,15L14.1,15z
		 M19.3,44.7c-0.7-0.3-0.7-0.3-1-0.3s-0.7-0.3-1-0.3c-0.7-0.3-1-0.7-1.6-0.7c-0.3,0-1,0.3-1.6,1h0.3l1,0.7l0.7,0.7
		c0.3,0,0.7,0.3,0.7,0.3C17.7,46,18.3,45.7,19.3,44.7z M35,51.9c0.3-0.3,0.3-0.7,0.7-1c1.3-1,1.6-1.6,1.6-2.3v-1
		c0-0.3,0.3-0.7,0.7-0.7l0.3,0.7c0,0,0,0.3,0.3,0.3l0.7-0.7l0.3-0.7c0.3-0.3,0.3-0.3,0.3-0.7v-0.3c0-0.3-0.3-0.3-0.3-0.7
		c-0.3-0.3-0.3-0.7-0.3-0.7c0-0.3,0.3-0.7,0.3-0.7c0.3,0,0.3,0,0.3,0.3l0.3,0.3h0.3c0.3,0,0.3,0,0.3-0.3l0.3-0.7
		c0.3,0,0.3-0.3,0.3-0.3l-0.3-0.3l-0.7-0.3c-0.7-0.3-1.3-1.3-1.3-2.6c0,0,0-0.3,0.3-0.3l0.3-0.7v-0.7c0-0.3-0.3-1-0.3-1.3
		c-0.3-0.3-0.7-0.7-0.7-1c-0.3-0.3-0.3-0.7-0.7-0.7l-0.3,0.3h-0.7l-0.3,0.7l-0.7,0.3c-0.4,0.4-0.6,1-0.7,1.6c0,1,0,1.3,1.6,3.6
		c0.3,1,0.7,2,0.7,2.3c0,1.6-1.3,2.9-4.2,3.6l-2,0.7c-1.3,0.3-2.3,1-2.6,2.6c0.7-0.3,1-0.3,2-0.3h0.7c0.7,0,0.7,0,1-0.3
		c0.3-0.6,0.7-1,1.3-1.3l0.7-0.3h0.7v-0.3l0.3,0.3c0,0-0.3,0.3-0.3,0.7c-0.7,0.7-0.7,1-0.7,1.6C34.6,51.2,34.6,51.5,35,51.9L35,51.9
		z"/>
	<path class="st2" d="M29.7,45.7c0.7,0.3,1,0.7,1.3,1c0.3,0.7,0.3,0.7,0.7,0.7h0.7l0.3-0.3c0.7,0,1,0,1-0.3v-0.3L33,46l-0.3-0.3
		c-0.3-0.3-1-0.7-1.3-0.7C30.7,45,30.4,45.3,29.7,45.7L29.7,45.7z M42.8,47.9l0.3-0.3h1c1,0,1.6-0.7,1.6-1.3c0-0.3,0-0.7-0.7-0.7
		C44.1,45.7,43.4,46.3,42.8,47.9L42.8,47.9z M126,50.6v-1.3v-1.6c0-0.3,0-0.3-0.3-0.7l-0.3-0.7C125,46,125,45.7,125,45h0.7
		c0,0.3,0.3,0.3,0.3,0.3c0.3,0,0.3-0.3,0.3-1.3c0-1,0-1.6-0.7-2l-0.7-0.3c0-0.3-0.3-0.3-0.3-0.3c0-0.3,0.3-0.3,0.3-0.3h1.3v-1.3
		c0-0.7-0.3-1-0.7-1h-1.3c-1.3,0-2.6-1-2.9-2.6l-1-2.6c0-0.7-0.7-1.6-2-2.3c-0.3-0.3-0.7-0.3-0.7-0.7h-1c0-0.3,0-0.3,0.3-0.3
		c1,0,2.3,0,3.6,0.7c1.3,0.3,2.3,0.7,2.9,0.7c2,0,2.9-1,2.9-2.9c0-1,0-2-0.7-2.6c-0.3-0.7-1-1.3-2-2h-0.3v0.7c0,0.3-0.3,0.7-0.3,0.7
		c-0.3,0-0.3-0.3-0.6-1c-0.7-1.6-2-2.6-3.3-2.6c-0.3,0-0.3,0.3-0.3,0.3v0.7c0.3,0,0.3,0.3,0.3,0.7c0.3,0,0.3,0.3,0.3,0.3h-0.3
		c0,0-0.3,0-0.7-0.3l-0.7-0.7l-0.3-0.7l-1.6-1.6l-1-0.3c-0.3,0-0.7-0.3-0.7-0.3l-0.3,0.3l0.3,0.3c0.3,0.3,0.3,0.7,0.3,1v0.3
		c-0.3,0-1-0.7-1.6-1.6c-0.7-0.7-0.7-1.6-0.7-2.3c0-1.6,1.3-2.9,2.9-2.9c0.7,0,2,0.3,2.9,1l2,1c0.6,0.6,1.4,0.9,2.3,1
		c0.3,0,0.3,0,1-0.3c0.3,0,0.3,0,0.7-0.3c0-0.3,0-0.3-0.3-0.3c-0.7,0-2.6-1-3.9-1.6l-1.3-0.7c-0.3-0.3-0.7-0.3-0.7-0.7h0.3l2,0.7
		l1.6,0.7c1,0.3,2.3,0.7,2.6,0.7c1,0,1.3-0.7,1.3-1.3v-1.3c-0.3-0.3-0.7-0.7-1-0.7v1c0,0.7-0.3,1-0.7,1h-0.7l-2.9-1
		c-2.3-0.6-2.9-1-4.2-1c-2.9,0-5.5,2.3-5.5,4.9c0,3.3,2.3,5.5,7.8,7.5c5.5,1.6,6.2,2.3,6.2,3.6c0,1-0.7,1.6-1.6,1.6h-1
		c-0.3-0.3-1-0.3-2.6-0.7c-1.6-0.7-3.3-0.7-5.2-0.7c-3.9,0-5.9,0.7-7.8,2.6c-0.7,0.3-0.7,0.3-1.3,0.3h-1c-0.3,0-0.7,0.3-1,0.7
		l-0.7,1.3c-0.3,0-0.3,0.3-0.7,0.3c-0.3,0-0.7-0.3-1-1.3c-0.3-0.7-0.3-1-0.7-1.3l-1-0.7c0-0.3-0.3-0.3-0.3-0.3l0.3-0.3
		c0-0.3,0.3-0.3,0.3-0.7s0.3-0.3,0.3-0.7v-0.3h0.3c0.3,0,0.3,0,0.3,1c0,0.3,0,0.7,0.3,1.3l0.3,1h0.3c0.3,0,1-1,1-2
		c0.3-1,0.3-1,0.7-1l0.3,0.7l0.7,0.7c0.3,0,0.3,0.3,0.3,0.3h0.3c0.3,0,0.3-0.3,0.3-1v-1.3c0-0.3,0-0.7,0.3-0.7l0.3,0.3l0.3,0.3
		c0.3,0.3,0.3,0.3,0.7,0.3c0.3,0,0.7,0,0.7-0.3c0-0.3,0-0.3-0.3-1c0,0-0.3,0-0.3-0.3c-0.3-0.6-0.7-1-1-1h-0.3l-0.7,0.3h-0.3
		c0-0.7,0.3-1,0.7-1.6c0.3-0.7,0.7-1.6,0.7-3.3l0.3-2c0-1.3,0.3-1.6,0.3-1.6h0.3v1.3c0,0.7,0,1,0.3,1l0.7-0.7c0,0,0.3-0.3,0.3-0.7
		s0.3-1,0.3-1c0-1-0.7-1.6-1.6-2h-0.3v-1l-0.3-0.7V14l-0.3-0.3h-0.3c-0.7,0.7-1,0.7-1.3,1c-0.3,0.7-0.3,0.7-0.7,0.7v-1
		c0-1-0.3-1.6-1.3-2.3l-0.3,0.3l-0.3,0.3l-0.3,0.7c-0.3,0.3-0.7,0.7-0.7,1.3v0.7l-0.3-0.7l-0.7-0.3l-0.7-0.7h-0.3
		c-0.3,0.7-0.3,0.7-0.3,2V16c0,0.3-0.3,0.7-0.3,0.7c-0.3,0-0.3-0.3-0.7-0.3h-0.7c-0.3,0-1,0.3-1,1c0,0.7,0.3,1.3,0.7,2
		c0.3,0.7,1,1,1,1v-1.6c0-0.3,0-0.7,0.3-0.7c0,0,0.3,0.3,0.3,1l0.3,1.6l0.3,2c0.3,0.3,0.3,1,0.7,1.6c0.3,0.7,0.7,1,0.7,1.3l0.3,0.7
		v0.3h-0.3c-0.3-0.3-0.3-0.3-0.7-0.3h-0.3c-0.7,0-0.7,0.7-0.7,3.3c0,1.6,0.3,3.9,0.7,4.9l1,2.3c0,0.3,0.3,0.7,0.3,1
		c0,2.9-4.2,7.5-8.5,9.8c-1.6,0.7-2,1.6-2.3,3.6c1-0.3,1-0.3,1.6-0.3c1-0.3,1.3-0.7,1.6-1.3v-0.3c0-0.3,0.3-0.3,1-1
		c0.3,0,0.6-0.3,0.6-0.3l0.7-0.7v0.3L95,48.6v0.3c0,0.7,0.3,1.3,1.3,2v-0.7c0.3-0.7,0.3-1,0.7-1.3l0.7-1c0.3-0.3,0.3-0.7,0.3-1.6
		v-1.6c0-0.3,0-0.3,0.3-0.3l0.3,1h0.3c0.3,0,1-0.3,1.3-1.3c0.3-0.3,0.3-0.7,0.3-1v-1.3c0-0.3,0-0.7,0.3-0.7v0.3l0.3,1
		c0.3,0.3,0.3,0.3,0.7,0.3c0.7,0,1.3-1.3,1.3-2.6c0-0.7,0-1,0.3-1h0.3v0.7c0.3,0,0.3,0.3,0.3,0.3c0.3,0,0.3-0.3,0.7-0.7
		c0-0.3,0.3-0.3,0.3-0.7v-0.3c0-0.3,0-0.3-0.3-0.3c-0.3-0.3-0.3-0.7-0.3-1c0-0.7,0.3-1.3,1-2.6c0.7-1,0.7-1.3,1-1.3
		c0,0,0.3,0.3,0.3,0.7c0,0-0.3,0-0.3,0.3v0.3c0,0.3,0,0.3,0.3,0.3c0,0,0.3,0,0.7-0.3c0.3,0,0.7,0,1-0.3c1-0.3,1.3-0.3,1.6-0.7h1.3
		c0.7,0.3,1,0.3,1,0.3c0.3,0,0.7-0.3,0.7-0.7s0-0.7-0.3-0.7c0-0.3-0.3-0.7-0.3-0.7v-0.7c0.3,0,1,0.7,1.6,1.6
		c3.3,5.2,4.6,6.8,7.2,7.5c2.3,0.7,2.9,1.3,2.9,2.6c0,0.7-0.3,1.6-1.3,2.9c-1.6,2.3-2.3,3.6-2.3,4.9v0.3h0.7
		c0.3-0.3,0.3-0.3,0.7-0.3l1-0.3c0.3,0,0.3-0.3,0.3-0.7v-1.3c0-0.3,0.3-1,0.7-1l0.3,0.3l0.7,1.3C125,49.9,125.3,50.2,126,50.6
		L126,50.6z M92.7,22.8v1c0,0.4,0.1,0.7,0.3,1c0.3,0,0.7-0.3,1-1c0-0.3,0.3-1,0.3-1c0-0.3-0.3-0.7-0.3-1c-0.3-0.3-0.3-0.7-0.7-0.7
		C93,21.2,93,21.9,92.7,22.8z"/>
	<path class="st2" d="M89.8,15v0.3c0,0.3-0.3,1-0.3,1.6c-0.3,0.7-0.3,1-0.3,1v0.7c0,0.7,0.3,1.3,0.7,1.3l0.3,0.3l0.3,0.7
		c-0.3,0,0,0.3,0,1v1.6c0,0-0.3-0.7-0.7-1c-0.3-1-0.7-1.6-1.3-1.6c-0.3,0-0.7,0.3-1.3,0.3c0.7,0.7,0.7,1.3,1.3,2.3
		c0.7,1.3,1,1.6,2,2.3l0.3,0.3l-0.3,0.3h-0.7l-0.3-0.3c0,0-0.3,0.3-0.3,0.7c0,1,1,2.3,2.6,3.3c0,0.3,0.3,0.3,0.3,0.7h-0.3V31
		c-0.3,0-0.3-0.3-0.7-0.3h-0.3c0,0-0.3,0-0.3,0.3s0.3,1,1,2c0.3,0.6,0.7,1,1.3,1.3l1.6,0.7c0.3,0,0.3,0.3,0.3,0.3l-0.3,0.3h-1.6
		c0,0.3,0.3,0.7,0.7,1.3c0.3,1,0.7,1.3,1,1.3c0,0,0.3,0,0.3-0.3l0.3-1c0,0,0.3-0.3,1-0.7c0.7-0.3,1-0.3,1.3-0.3c1-0.3,1-0.3,1-0.7
		v-1c0,0-0.3-0.3-0.3-0.7V32c0-0.3,0-0.3-0.3-0.3L97.3,32c-0.3,0.7-1,1.3-1.6,1.3c-2.3,0-3.9-3.9-3.9-9.1v-1.6l0.3-1.6v-1
		c0-1.3-0.7-3.3-1.3-3.9l-0.7-0.7L89.8,15L89.8,15z M95,44.7L93,44c-0.7-0.3-1.3-0.7-1.6-0.7c-0.7,0-1,0.3-1.6,1h0.3l0.7,0.7l1,0.7
		c0,0,0.3,0.3,0.7,0.3C93,46,93.7,45.7,95,44.7L95,44.7z M110.3,51.9c0.3-0.3,0.3-0.7,1-1c1-1,1.6-1.6,1.6-2.3v-1
		c0-0.3,0-0.7,0.3-0.7h0.3l0.3,0.7c0,0,0,0.3,0.3,0.3c0,0,0.3-0.3,1-1.3c0-0.3,0.3-0.3,0.3-0.7s-0.3-0.3-0.3-0.3
		c0-0.3,0-0.3-0.3-0.7v-0.7c0-0.3,0-0.7,0.3-0.7c0,0,0.3,0,0.3,0.3l0.3,0.3c0.3,0,0.7,0,0.7-0.3l0.3-0.7v-0.3c0,0,0-0.3-0.3-0.3
		l-0.3-0.3c-0.7-0.3-1.3-1.3-1.3-2.3v-0.7l0.3-0.7v-0.7c0-0.3,0-1-0.3-1.3c-0.3-0.3-0.3-0.7-0.3-1c-0.3-0.3-0.3-0.7-0.7-0.7
		c0,0-0.3,0-0.7,0.3h-0.3l-0.7,0.7l-0.3,0.3c-0.4,0.4-0.6,1-0.7,1.6c0,1,0,1.3,1.3,3.6c0.7,1,1,2,1,2.3c0,1.6-1.6,2.9-4.6,3.6
		c-3.3,0.7-3.9,1.3-4.2,3.3c0.7-0.3,0.7-0.3,1.6-0.3h0.7c0.7,0,0.7,0,1-0.3l1.3-1.3l0.7-0.3h0.7l0.3-0.3v0.3c0,0,0,0.3-0.3,0.7
		c-0.3,0.7-0.7,1-0.7,1.3C110,51.2,110,51.5,110.3,51.9L110.3,51.9z"/>
	<path class="st2" d="M105.4,45.7c0.3,0.3,1,0.7,1.3,1c0.3,0.7,0.3,0.7,0.7,0.7h0.7l0.3-0.3c0.6,0,1,0,1-0.3l-0.3-0.3l-0.3-0.3
		l-0.7-0.3c0-0.3-0.7-0.7-1.3-0.7C106.4,45,106.1,45.3,105.4,45.7L105.4,45.7z M118.5,47.9l0.3-0.3h0.7l0.3,0.3
		c0.3,0,0.7-0.3,0.7-0.3c0.3-0.3,0.7-0.7,0.7-1c0.3,0,0.3-0.3,0.3-0.3c0-0.4-0.3-0.6-0.7-0.7C119.4,45.7,118.8,46.3,118.5,47.9
		L118.5,47.9z M46.4,133.4l0.3-0.6l0.7-0.6c0.3-0.3,0.7-1,0.7-2v-1.3c-0.3-0.3-0.3-0.6-0.3-0.6c0-0.3,0.3-0.7,0.3-0.7
		c0.3,0,0.3,0.3,0.3,0.3l0.7,0.7c0.3,0.3,0.7,0.6,1,0.6v-1.3c0-1-0.3-2-0.7-2.6c-0.3-0.7-0.7-0.7-0.7-1c0,0,0-0.3,0.3-0.3v0.3
		l0.7,0.3c0.3,0,0.7-0.6,0.7-1c0-0.9-0.3-1.7-1-2.3c-0.3-0.3-0.3-0.7-0.3-0.7c-0.3,0-0.3-0.3-0.3-0.3L49,120c0.3,0,0.3,0,0.7,0.3H50
		c0.3,0,0.3-0.3,0.3-1.6v-1c0-1,0-1.3-0.3-1.3h-0.3c-2,0-2.9-1-3.6-4.6c-0.3-2.3-1.3-3.9-2.3-4.6c-0.7,0-1-0.3-1-0.3
		c0-0.3,0.3-0.3,0.3-0.3c0.3,0,0.7,0,1,0.3c1.6,0.6,2.9,1,3.9,1c2,0,3.6-1.6,3.6-3.3s-0.7-2.9-2-3.9c-0.3-0.3-0.7-0.6-1-0.6h-0.3
		l0.3,0.6v0.7h-0.3l-1-1.3c-0.3-0.7-1.6-1.6-2.6-1.6c-0.3,0-0.7,0.3-0.7,0.3c0,0.3,0.3,0.3,0.3,0.6c0.2,0.2,0.3,0.4,0.3,0.7v0.3
		h-0.3l-1-1c-0.7-1-2.3-1.6-2.9-1.6h-0.3v0.6c0.3,0.3,0.7,0.3,0.7,0.6h-0.3c-0.3,0-0.7-0.3-1.6-1c-1.6-1.3-2.3-2.3-2.3-3.6
		c0-1.6,1.3-2.9,2.6-2.9c0.7,0,2,0.3,2.6,1l2,1.6c1,0.7,2.3,1,3.3,1h0.7l0.3-0.3c0,0,0-0.3-0.3-0.3c-0.6,0-1.2-0.2-1.6-0.7l-2-1.6
		c-1-0.6-1.3-1-1.6-1c-1.3-0.7-1.3-0.7-1.3-1h0.6l1,0.7c0.3,0,1,0.3,1.6,1c2.3,1.3,3.3,2,4.6,2s2-1,2-2.3V91l-0.3-0.3v-0.3l-0.3,0.3
		v0.7c0,0.3,0,0.3-0.3,0.3v0.6h-1c-0.7,0-1.3-0.3-3.3-1.3c-1.6-1.3-3.6-2-4.9-2c-2.8,0-5.2,2.2-5.2,5.1c0,0,0,0.1,0,0.1
		c0,4.2,2.3,5.9,10.1,7.5c2.9,0.6,4.2,1.6,4.2,2.9c0,1.3-1,2-2.3,2h-1.3c-0.3,0-1.6-0.6-4.2-1.3c-1.6-0.3-3.6-0.7-5.2-0.7
		c-2.9,0-5.2,1-6.5,2.9c-0.3,0-0.3,0.3-0.3,0.3c-0.3,0-0.3,0-0.3-0.3l-0.7-0.3c-0.4-0.4-1-0.6-1.6-0.7c-0.3,0-0.3,0.3-0.7,0.3
		l-0.3,0.3c-0.3,0-0.7-0.3-1-1c-0.6-0.9-1-1.9-1-2.9c0-0.3,0.3-0.7,0.3-0.7c0.3,0,0.3,0,0.3,0.3l0.3,1.3c0.3,0.6,0.7,1,1,1
		c0,0,0.3,0,0.7-0.3c0-0.3,0-0.3,0.3-0.6c0-0.6,0.3-1,0.3-1c0.3,0,0.3,0.3,0.6,1c0,0.3,0,0.3,0.3,0.6c0,0.3,0.3,0.7,0.3,1h0.3
		c0.7,0,1-0.6,1-1.3h-0.3v-0.6c0-0.3,0-0.6,0.3-0.6l0.3,0.3c0,0.3,0.3,0.3,0.7,0.6h1v-0.3c0-0.3,0-0.3-0.3-1c-0.3,0-0.7-0.6-1-1.3
		c0-0.3-0.3-0.7-0.3-0.7h-0.3l-0.3,0.3h-1c0-0.3,0.3-0.7,1-1c0.3-0.3,0.3-0.6,0.3-1.3c0-0.6,0.3-1.3,0.3-1.3v-1.3
		c0.3-0.7,0.7-2,0.7-2.6c0-0.3,0.3-0.3,0.3-0.3v1.3c0,0.3,0.3,0.6,0.3,0.6c0.3,0,0.3-0.3,0.7-0.6l0.3-1v-0.6c0-1-0.3-1.3-1-1.3h-0.7
		c0,0-0.3-0.3-0.3-0.6V90l-0.3-0.6v-0.7l-0.3,0.3l-0.3,0.3L29.4,90l-0.7,0.3h-0.3c-0.3,0-0.3,0-0.3-0.6c0-0.6,0-1-1-2l-0.3-0.3v0.3
		l-0.3,0.6l-0.7,1.3v0.6c0,0.3,0,0.3-0.3,0.3l-0.3-0.3c-0.7-0.6-0.7-0.6-1.6-1v0.3c-0.3,0.3-0.3,0.6-0.3,0.6v1.3
		c0,0.3,0,0.3-0.3,0.3h-0.3c0-0.3-0.3-0.3-0.3-0.3c-1,0-1.3,0.6-1.3,1.3c0,0.3,0.3,0.6,1,2l0.7,0.6c0.3,0,0.3,0,0.3-0.3v-0.6
		c0-0.3-0.3-0.3-0.3-0.7l0.3-0.3c0.3,0,0.7,1,1,2.6v1.3c0,0.7,0.3,1.3,0.7,1.6c0.3,1,0.7,1.3,1,1.6c0.3,0.3,0.7,0.7,0.7,0.7
		c0,0.3,0,0.3-0.3,0.3c0,0-0.3,0-0.7-0.3h-0.3c-1,0-1.3,0.3-1.3,2c0,1.6,1.3,3.9,2.6,4.9l1.6,1.6c1,0.7,2,2,2,2.9
		c0,1-1.3,2.3-3.6,2.9l-1.3,0.6c-1.3,0.3-1.6,1-2,2.9c0.7,0,0.7-0.3,1-0.3l0.3,0.3h0.7c0.3,0,1-0.3,1-1v-0.3c0,0,0-0.3,0.3-0.3
		l0.3-0.3l0.7-0.3h0.3v0.7c0,0.3-0.3,0.6-0.3,1.3c0,1,0.3,1.3,0.7,2.3c0-0.3,0.3-0.7,0.3-0.7c0-0.3,0.3-0.6,0.7-1c0.7-1,1-2,1-2.6
		v-1v-0.7H30c0.3,0,0.3,0,0.3,0.3l0.3,0.3c0.3,0,0.7-0.3,0.7-0.7c0-0.3,0.3-0.6,0.3-1c0,0,0-0.3-0.3-0.3v-0.7l0.3-0.3
		c0,0,0.3,0,0.3,0.3h0.3c0,0.3,0.3,0.3,0.3,0.3l0.7-0.6c0.3-0.3,0.3-1,0.3-1v-0.3c-1-0.6-1.6-1.6-1.6-2.3c0,0,0.3-0.3,0.3-0.6l0.3-1
		c0.3-0.6,0.3-1,0.3-1c0.3,0,0.3,0,0.3,0.3v0.6c-0.3,0-0.3,0.3-0.3,0.6c0,0.3,0.3,0.3,0.7,0.3h0.7c1-0.7,2-1,2.6-1
		c0.7,0,1,0.3,1.6,0.6h0.7v-0.3c0,0,0-0.3-0.3-0.3c-0.3-0.3-0.3-0.6-0.3-0.6c0-0.3,0-0.3,0.3-0.3c0.7,0,1.6,2,2.6,5.2
		c0.7,2.6,1,2.9,3.3,4.2c2,1,2.9,2.3,2.9,3.9c0,2-0.7,4.2-1.6,7.5c-0.3,1-0.7,1.6-0.7,2c0,0.7,0.3,1,0.7,2c0,0.7,0,1,0.3,1
		C46.4,132.8,46.4,133.1,46.4,133.4L46.4,133.4z"/>
	<path class="st2" d="M37.2,127.5c0-0.3,0.3-0.6,0.7-1.3c0.7-1,1-1.3,1-2v-0.6c0-0.7,0-1,0.3-1c0,0,0,0.3,0.3,0.3v0.3h0.3
		c0,0,0.3,0,0.3-0.3c0.3-0.3,0.7-1,0.7-1.3v-1c0-0.3,0-0.3,0.3-0.3l0.3,0.3c0,0.3,0,0.3,0.3,0.3l0.3-0.3l0.3-0.3V120l0.3-0.3
		l-0.3-0.3c-1-0.6-1.3-1.3-1.3-2.9v-2.3c0,0-0.3-0.7-1-1.6c0-0.3-0.3-1-0.3-1.3c0-0.6-0.3-0.6-0.7-0.6c-1,0-2,1-2,2.3
		c0,0.6,0.3,2,1,3.3c0.7,2,1,2.6,1,3.3c0,1.6-0.7,2.3-2.6,2.9c-2.3,0.6-3.3,2-3.9,4.2c0.3-0.3,0.3-0.3,0.7-0.3h0.3l0.7-0.3
		c0.7,0,1-0.3,1.3-0.6v-0.7c0,0,0-0.3,0.3-0.3h0.3l0.3-0.3v1.6C36.6,126.6,36.6,126.9,37.2,127.5L37.2,127.5z M15.4,90.3v2.3
		c0,0.7,0,1.3,0.3,2v1.6l-0.3-0.3c-0.7-0.3-1-0.6-1.6-0.6h-0.7l0.3,0.6l0.3,1.3l1,1.3l1,0.6l0.3,0.3v0.3h-1c0,0-0.3,0-0.3,0.3
		c0,0,0.3,0.3,0.3,1l0.7,1.3l0.7,0.6l0.7,0.3c0.3,0.3,0.3,0.3,0.3,0.6v0.3h-0.7v0.3c0,0.3,0.3,0.7,0.7,1.6c0.7,0.7,1,1,2,1h0.3
		c0.3,0,0.7,0,0.7,0.3c0,0.3,0,0.3-0.3,0.3c-0.7,0.3-1,0.3-1,0.6l0.3,0.3l0.3,0.3c0.3,0.6,0.7,0.6,0.7,0.6c0.3,0,0.7,0,0.7-0.3
		c0.3-0.3,1-0.6,1.3-1c1.6-0.3,1.6-0.3,1.6-0.6v-0.3c-0.3-1-0.7-1.6-0.7-2.3c0-0.3,0-0.7-0.3-0.7l-0.3,0.3c-0.3,0.3-1,0.7-1.3,0.7
		c-1.3,0-3.3-2-3.9-4.9c-0.3-0.6-0.3-1.6-0.3-2.3c0-0.6,0-1.6,0.3-2.3c0.3-1.3,0.3-2,0.3-2.3v-0.3C17.7,92.6,16.7,91.3,15.4,90.3
		L15.4,90.3z"/>
	<path class="st2" d="M18.3,95.9c-0.4,0.8-0.6,1.7-0.7,2.6c0,0.3,0.3,1,0.3,1c0.3,0,0.3-0.3,0.3-0.3l0.3-1c0.3,0,0.3,0,0.3-0.3
		c0.3-0.3,0.3-0.3,0.3-0.7C19.3,96.9,19,96.2,18.3,95.9L18.3,95.9z M22.9,114.2l0.3,0.3c1,1,1,1,1.3,1s1.3,0,1.6-0.3l0.3-0.3
		c0,0-0.3-0.3-0.7-0.3l-0.3-0.7c-0.3,0-0.7-0.3-1-0.3C23.9,113.5,23.5,113.5,22.9,114.2L22.9,114.2z M32,121.3
		c0.7,0.3,0.7,0.3,1,0.6c0.3,0,0.7,0.3,0.7,0.3h1l1-0.3l0.7-0.3c0.3,0,0.7-0.3,0.7-0.3s-0.3,0-0.7-0.3h-0.7c-1-0.6-1-0.6-1.3-0.6
		C33.4,120.3,32.6,120.7,32,121.3L32,121.3z M42.5,129.5c0.3-0.6,0.3-0.6,1.3-0.6c1,0,2-2,2-3.3v-0.3l-0.3,0.3
		c-0.3,0-0.3,0.3-0.7,0.3l-1,0.3c-1,0.7-1.6,1.6-1.6,2.3C42.1,128.8,42.1,129.2,42.5,129.5L42.5,129.5z M116.2,120l0.3-0.7v-0.3
		c0-0.3,0.3-0.6,0.3-1c0.7-0.3,0.7-1,0.7-2v-0.7l-0.3-0.3c0,0,0-0.3,0.3-0.3c0,0,0.3,0,0.3,0.3c0.3,0,0.3,0.3,0.7,0.3
		c0,0,0.3-0.3,0.3-1v-0.3c0-0.3,0-0.7-0.3-1v-0.6c0,0,0-0.3,0.3-0.3c0,0,0.3,0.3,0.3,0.6h0.3c0.3,0,0.7-0.3,0.7-1
		c0-0.3,0.3-0.3,0.3-0.6h-1c-0.7,0-1.6-0.6-2.3-1l-1-1.6c-0.7-0.3-1-1.3-1-1.3l-1-0.7c-0.3,0-0.3,0-0.3-0.3h0.3c0.3,0,1,0,2.3,0.7
		c1,0.3,2.9,1,3.9,1c2,0,3.6-1.6,3.6-3.6c0-1-0.3-2-1.6-3.3c0-0.3-0.6-0.6-0.6-0.6c-0.3,0-0.3,0.3-0.3,0.3s0,0.3,0.3,0.3v0.7h-0.3
		c-0.3,0-0.3-0.3-0.7-1c-0.3-1-0.7-1.6-2-2l-1.3-0.6c0,0-0.3,0-0.3,0.3l0.3,0.3c0,0.3,0.3,0.6,0.3,1h-0.3c-0.3,0-0.3,0-1-1
		c0-0.3-1-1-1.6-1.3h-1v0.3l0.3,0.3l-0.3,0.3c-0.3,0-1-0.6-1.6-1.3c-0.7-1-1-1.6-1-2.6c0-1.3,1.3-2.9,3.3-2.9c0.3,0,0.7,0.3,1,0.3
		l1.3,0.6l1.6,1.3c1,0.3,2.3,1,3.3,1c0,0,0.3,0,1-0.3c0.6,0,0.6-0.3,0.6-0.3l-1-0.3c-0.3,0-1.6-0.3-2.6-1l-1.6-1.3l-1.6-0.6
		c-0.3,0-0.3,0-0.3-0.3h0.7l1.6,0.3c0.3,0.3,1,0.6,1.6,1c2,1,2.9,1.3,3.9,1.3c0.7,0,1.3-0.7,1.3-1.6v-1c0-0.3,0-0.3-0.3-0.6
		c-0.3,0-0.3,0-0.3,0.3v0.3c0,1-0.3,1-1,1c-0.7,0-1.6,0-3.6-1c-2-0.6-3.3-1-4.6-1c-2.9,0-5.5,2.6-5.5,5.2c0,2.6,1.6,4.2,4.9,5.9
		l3.6,1.3c2.6,1.3,3.6,2,3.6,3.3c0,0.6-0.7,1.3-2,1.3c-0.7,0-1.3,0-2.6-0.6c-3.3-1-5.5-1.3-7.2-1.3c-2.9,0-5.2,0.7-6.8,2.6
		c-0.3,0.3-0.3,0.3-0.7,0.3c0,0-0.3,0-0.7-0.3c-0.3,0-0.7-0.3-0.7-0.3c-0.3,0-1,0.3-1,0.6l-0.7,0.6h-0.3c-0.3,0-0.7-0.3-1-1
		c-0.3-0.3-0.3-0.7-0.7-1v-2l0.3-0.6v-1h0.3c0,0,0.3,0.3,0.3,0.7v0.3c0,1.3,0.3,2.3,1,2.3c0.3,0,0.7-0.6,1-2c0-0.3,0-0.6,0.3-0.6
		c0,0,0,0.3,0.3,1c0,0.3,0.3,1,0.7,1.3l0.3,0.3c0.3,0,0.7-0.6,0.7-1.6c0-0.6,0.3-1,0.3-1c0.3,0,0.3,0,0.3,0.3l0.3,0.3l0.3,0.3
		c0.3,0.3,0.3,0.3,0.7,0.3l0.3-0.3l0.3-0.3c0,0-0.3,0-0.3-0.3c-0.3-0.3-0.7-0.7-0.7-1.3c-0.3-0.3-0.3-0.6-0.7-1v-0.3h-0.3
		c0,0-0.3,0.3-1,0.3h-0.3c0-0.3,0-0.3,0.3-0.7c1-0.6,1.6-2.3,1.6-4.2c0.3-1,0.3-1.6,1-2.3l0.3-0.3v2l0.3-0.3l0.7-0.3
		c0.3-0.3,0.7-1.3,0.7-1.6c0-0.6-0.3-0.6-0.3-1l-0.7-0.6h-0.3l-0.3,0.3c-0.3,0-0.3-0.3-0.3-0.3v-1l-0.3-1v-0.3l-0.3-0.3h-0.3
		l-0.3,0.3l-0.7,0.6l-0.7,0.7h-0.3v-0.3v-1c0-0.9-0.4-1.7-1-2.3c-1,1-1.3,1.6-1.3,2.6v0.6h-0.3h-0.3l-0.3-0.6l-0.7-0.6
		c0,0-0.3,0-0.3-0.3l-0.3,0.3c-0.3,1-0.3,1.3-0.3,2c0,0.6-0.3,0.6-0.3,0.6h-0.3c-0.7-0.3-0.7-0.3-1-0.3c-0.7,0-1,0.6-1,1.3
		c0,0.3,0,0.6,0.3,1.3c0.3,0.7,1,1.3,1.3,1.3V94v-0.3c0.3,0,0.7,1.3,1,3.3c0.3,2,0.7,3.3,1.6,3.9c0.3,0.3,0.3,0.3,0.3,0.7h-0.3
		l-0.3-0.3h-0.7c-0.3,0-0.7,0.3-0.7,1l-0.7,2.3v3.3c-0.3,0.6,0,1.3,0,2.3c0.3,1,0.3,1.6,0.3,2c0,2.6-1.3,4.6-3.9,5.2l-2.6,0.7
		c-1.6,0.6-2.3,1.6-2.6,3.6c0.3-0.3,0.7-0.3,1.3-0.7h0.7c0.3,0,0.7,0,0.7-0.3c0,0,0.3,0,0.3-0.3l0.7-0.7l0.7-0.6
		c0.3,0,0.3,0.3,0.3,0.3c0,0.3,0,0.3-0.3,0.7c0,0.3-0.3,0.6-0.3,1c0,0.7,0.3,1,0.7,1.6c0-0.3,0.3-0.3,0.3-0.3c0-0.3,0.3-0.6,0.7-1
		c0.3-0.6,1-1.3,1-1.6v-1c0.3,0,0.3,0,0.3,0.3v0.3h0.7c0.3-0.3,0.7-0.3,0.7-0.6c0.3,0,0.3-0.3,0.3-0.6c0.3-0.3,0.3-0.7,0.3-0.7v-1
		c0.3,0,0.3,0.3,0.7,0.6h0.7c0.3-0.6,0.7-1.3,0.7-1.6v-0.6l-0.3-0.7c0-0.3,0.3-0.3,0.3-0.3c0.3,0,0.3,0.3,0.7,1l0.3,0.3
		c0.3,0,0.3-0.3,0.7-0.6l0.7-0.7v-0.3v-0.3l-0.3-0.6c-0.3,0-0.3-0.3-0.3-0.3c0-0.6,0.3-1.3,0.7-2c0.3-0.6,0.7-1,0.7-1v-0.3
		c0.3,0,0.3,0.3,0.3,0.3v1c0,0.3,0,0.3,0.3,0.3h0.3l1-0.6c0.3,0,0.7,0,1-0.3c1.6-1,2-1,2.9-1c0.3,0,1,0,2,0.7h0.3c0,0,0.3,0,0.3-0.3
		V108c0-0.3-0.3-0.6-0.3-0.6s0-0.3,0.3-0.3c0,0,0,0.3,0.3,0.3c0,0.3,0.3,0.6,1,1.6c0.7,1.3,1.6,2.3,2.6,2.6l1.6,0.3
		c0.7,0,0.7,0.3,0.7,1c0,1.3-0.7,2.3-1.6,2.9l-1.3,1c-0.7,0.3-1,1.3-1,2c0,0.6,0,1.6,0.3,2.3v-0.3l1-0.3l0.3-0.6l0.3-1l0.3-0.6
		c0.3-0.7,0.3-0.7,0.7-0.7v0.7C115.5,118.7,115.9,119.1,116.2,120L116.2,120z"/>
	<path class="st2" d="M92.4,132.1c0.3-0.3,0.3-0.3,2-0.7c1-0.3,1.6-0.6,1.6-2c0.3-0.6,0.3-1,1-1.3c0.3,0,0.7-0.3,0.7-0.3
		c0-0.3,0.3-0.3,0.3-0.3v0.3c0,0,0,0.3-0.3,0.7v0.6c0,0.6,0,1.3,0.3,1.6c0.3-0.3,0.7-0.6,1-1c1-0.6,1.3-1.3,1.3-2.6
		c0-0.6,0.3-1,0.3-1h0.3l0.3,0.7h0.3c0,0,0.3,0,0.3-0.3l0.7-0.3c0.3-0.3,0.3-1,0.3-1.6c0-0.3,0.3-0.6,0.3-0.6s0.3,0,0.3,0.3l0.3,0.7
		v0.3c0.3,0,0.3,0,0.3-0.3c0.3,0,0.7-0.3,0.7-0.3c0.3-0.3,0.3-0.6,0.3-1V123c0-0.3,0-0.3,0.3-0.3v-0.3c0,0,0.3,0,0.3,0.3v0.3
		l0.3,0.3c0.3,0,0.7-0.3,1-0.7c0,0,0-0.3,0.3-0.3v-0.6c-0.6-0.9-1-1.9-1-2.9c0-1.3,0.7-2.3,2-4.6c1-1.3,1.6-2.3,1.6-3.3
		c0-0.3,0-0.3-0.3-0.3c0,0-0.3,0-0.7,0.3c-0.3,0-0.3,0-0.3-0.3l-0.3-0.3l-0.3-0.3h-0.3h-0.7c-0.3,0-0.7,0.3-0.7,0.7v0.3
		c0,0.3-0.3,1-0.7,1.3l-0.7,0.6c-1,1-1.6,2.3-1.6,3.3c0,0.3,0,1,0.3,1.6c0.3,1.3,0.3,2,0.3,2.3c0,2-2.9,4.6-8.5,7.2
		c-2.6,1.6-3.3,2.3-3.3,4.2L92.4,132.1L92.4,132.1L92.4,132.1z M89.8,89.7v1c0,0.3-0.3,0.3-0.3,0.7v1c0,0.7,0,1,0.7,2
		c0,0.3,0.3,1,0.3,1.3s0,0.3-0.3,0.3l-0.3-0.6c-0.3-0.3-0.7-0.3-1.3-0.3h-0.7c0.2,0.4,0.3,0.8,0.3,1.3c0.3,1.3,0.7,1.6,1.3,2.3
		c0.7,0.6,0.7,0.6,0.7,1c0,0,0,0.3-0.3,0.3v-0.3h-0.3c-0.3,0-0.3,0.7-0.3,1c0,0.3,0,0.6,0.3,1v0.6l0.7,0.3v0.3c0,0.3,0,0.3-0.3,0.3
		h-0.3h-0.3v0.7l0.3,1.3c0,0,0,0.3,0.3,0.7l0.7,0.6c0.3,0,0.7,0.3,0.7,0.3s0.3,0,0.3,0.3l-0.3,0.3l-0.3-0.3h-0.7
		c-0.3,0-0.3,0-0.3,0.3v0.6l0.3,0.6c0,0.7,0.3,1,0.7,1h0.3c0.3-0.6,1.6-1,2.3-1c1,0,1.6,0.3,2,0.3h0.3c0.3,0,0.3,0,0.3-0.3v-0.6
		l0.3-1.3V105l-0.3,0.3c-0.7,0.6-1.3,1-2,1c-1.6,0-2.9-2.3-2.9-5.9c0-1.6,0.3-3.6,0.7-6.2c0.3-0.3,0.3-0.6,0.3-1
		C92,92,91.1,90.7,89.8,89.7L89.8,89.7z"/>
	<path class="st2" d="M92.4,98.8l0.3-0.3l0.3-0.3c0.3-0.3,0.7-1,0.7-1.3s0-0.3-0.3-0.6c0-0.3-0.3-0.7-0.3-0.7c-0.3,0-0.3,0.3-0.3,1
		l-0.3,0.6V98.8L92.4,98.8z M88.8,115.5c0.3,0,0.7,0,1,0.7c0.7,0.6,1,0.6,1.6,0.6h1l0.3-0.3H93c0-0.3-0.3-0.6-0.7-1
		c-0.3,0-0.7-0.3-1-0.3c-0.3-0.3-0.7-0.3-1-0.3C89.8,114.8,89.4,114.8,88.8,115.5L88.8,115.5z M94.3,127.2c0.7-0.3,1-0.3,1.6-1
		c1-0.3,1.3-0.6,1.3-0.6c0.7-0.3,1-0.6,1-0.6c0-0.3-0.3-0.7-1-0.7c-1.6,0-2.9,1.3-2.9,2.6L94.3,127.2L94.3,127.2L94.3,127.2z
		 M110.6,116.8h2l0.3-0.3l0.7-0.6c0.7-0.3,1-0.3,1-0.7c0-0.3-0.3-0.3-1-0.3C112.3,114.8,111.3,115.5,110.6,116.8L110.6,116.8z"/>
	<path d="M27.8,19.2l-0.3-0.3v-0.3c0-0.3,0.3-0.7,0.7-0.7c0.7-0.3,1-0.7,1.3-1l0.7-0.3V17c0,0.3-0.3,1.3-1,2.3
		c-0.3,1-0.7,1.3-0.7,1.3c-0.3,0-0.6-0.3-0.6-0.7L27.8,19.2L27.8,19.2L27.8,19.2z M25.5,17.6l0.7,0.7c0,0,0.3,0,0.3,0.3h-0.3v1
		c0,0.7-0.3,0.7-0.7,0.7c-0.3,0,0,0-0.3-0.3l-1-1c-0.3-0.3-0.7-1-0.7-2c0-0.3,0-0.3,0.3-0.3c0,0,0.3,0,0.3,0.3L25.5,17.6L25.5,17.6z
		 M27.8,21.9l0.6-0.3h0.3c0.7,0,0.7,0.3,0.7,0.7c0,0.7-0.3,1-1.3,3.3c-0.3,0.7-0.3,1.3-1,1.3c-0.7,0-1-0.7-1.6-1.6l-0.3-1.3
		c-0.3-1-0.7-1.3-0.7-2c0,0,0.3-0.3,0.7-0.3h0.7l0.3,0.3H27.8L27.8,21.9z M103.5,19.6l-0.3-0.7v-0.3c0-0.3,0-0.7,0.7-0.7
		c0.3-0.3,1-0.7,1.3-1l0.3-0.3c0.3,0,0.3,0,0.3,0.3c0,0.3-0.7,1.3-1,2.3c-0.7,0.7-0.7,1.3-1,1.3c-0.3,0-0.3-0.3-0.3-0.7L103.5,19.6
		L103.5,19.6L103.5,19.6z M100.9,17.6l0.7,0.7c0.3,0,0.3,0,0.3,0.3v1l-0.3,0.7c0,0,0,0.3-0.3,0.3l-0.7-0.7l-0.7-1l-0.7-1.3V17v-0.3
		c0.3,0,0.3,0,0.7,0.3L100.9,17.6L100.9,17.6z M103.5,21.9l0.7-0.3c0.7,0,1,0.3,1,1c0,0.3-0.3,0.7-0.7,1l-0.3,2
		c-0.3,1-1,1.3-1.3,1.3c-0.7,0-1.3-0.7-1.6-1.6c-0.3-0.7-0.3-1-0.7-1.3c-0.3-0.7-0.3-1.3-0.3-1.6s0.3-0.7,0.7-0.7h0.3
		c0.2,0.2,0.4,0.3,0.7,0.3L103.5,21.9L103.5,21.9L103.5,21.9z M24.2,93.3v-0.7h0.7c0,0.3,0.3,0.3,0.3,0.3c1.3,0.3,1.6,0.3,1.6,1
		l-0.3,0.7v0.6c0,0.3,0,0.3-0.3,0.3c0,0-0.7-0.3-1-0.6l-0.3-0.7L24.2,93.3z M29.4,94.3l-0.7,1l-0.3,0.3c-0.3,0-0.3-0.6-0.3-1v-1
		c0-0.3,0-0.3,0.7-0.3c0.3-0.3,0.7-0.3,0.7-0.3l0.7-0.3h0.3l-0.3,0.7L29.4,94.3z M28.1,97.2l0.7-0.3h0.3c0.3,0,0.7,0,0.7,0.6
		c0,0.3-0.3,1-1,2c-0.3,1-1,1.6-1.3,1.6c-0.7,0-1.3-1-2.3-2.6c0-0.3-0.3-0.6-0.3-1c0-0.6,0.3-1,0.7-1c0.3,0,0.3,0,0.7,0.3h0.3
		c0.3,0.3,0.7,0.3,1,0.3L28.1,97.2L28.1,97.2z M98.6,92.3l0.7,0.3c0.3,0.3,0.3,0.3,0.7,0.3c0.7,0.3,1,0.3,1,0.6c0,0,0,0.3-0.3,0.6
		v0.3c0,0.6-0.3,0.6-0.7,0.6c-0.3,0-0.7-0.3-1-1c-0.3-0.3-0.3-1.3-0.7-1.6v-0.3L98.6,92.3L98.6,92.3z M104.1,93.6l-1,1
		c-0.3,0.3-0.3,1-0.3,1h-0.7c0,0-0.3,0-0.3-0.3v-1.3c0-0.3,0-0.6,0.3-0.6l1-0.3l0.7-0.3h0.7V93L104.1,93.6L104.1,93.6z M99.9,96.6
		l0.7,0.3h1.6l0.3-0.3h0.3c0.3,0,0.7,0.3,0.7,0.6c0,0.7-0.3,1.3-1,2l-0.7,1c-0.3,0.6-0.7,0.6-0.7,0.6c-0.7,0-1,0-1.6-1.6
		c-0.3-1-0.7-1.6-0.7-2c0-0.6,0.3-1,0.7-1C99.5,96.2,99.9,96.2,99.9,96.6L99.9,96.6z"/>
	<path class="st2" d="M26.8,23.2h-0.7v1.3l0.3,0.7c0,0.7,0.3,0.7,0.7,0.7s0.7,0,0.7-0.7v-1v-0.7v-0.3H26.8z M102.5,23.2h-0.7
		c0,0.3-0.3,0.3-0.3,0.3l0.3,1l0.3,0.7c0,0.7,0,0.7,0.3,0.7c0.3,0,0.7,0,0.7-0.7l0.3-1v-0.7v-0.3H102.5L102.5,23.2z M27.1,98.2h-0.3
		c-0.3,0-0.3,0-0.3,0.3s0.3,1.3,0.7,1.6c0,0.3,0.3,0.3,0.3,0.3c0.3,0,0.3-0.6,0.7-1.3v-0.6c0-0.3,0-0.3-0.3-0.3H27.1z M100.5,98.5v1
		c0,0.3,0.3,0.7,0.7,0.7s0.7-0.7,0.7-1.3v-0.6c0-0.3,0-0.3-0.3-0.3h-0.7C100.5,97.9,100.5,97.9,100.5,98.5z"/>
	<path d="M54.9,59.4h4.2c0.7-1,1.3-1.3,2.3-1.3c1,0,1.6,0.3,2.3,1.3h3.3c0.7-1,1.3-1.3,2.3-1.3s2,0.7,2.3,1.3h3.3
		c0.7-1,1.3-1.3,2.3-1.3c0.7,0,1.6,0.3,2,1l0.3,0.3h4.6v21.2H80v7.8h-4.9v-7.8H63.3v7.8h-4.6v-8.2h-3.9V59.4L54.9,59.4z"/>
	<path class="st1" d="M56.5,78.9h25.8V61H56.5V78.9z"/>
	<path class="st3" d="M59.1,65.2c-0.7,0-1,0.7-1,1.3s0.3,1,1,1s1.3-0.3,1.3-1C60.4,65.9,59.7,65.2,59.1,65.2z M79.3,65.2
		c-0.7,0-1,0.7-1,1.3s0.3,1,1,1c0.7,0,1.3-0.3,1.3-1C80.6,65.9,80,65.2,79.3,65.2z M59.1,74.7c-0.7,0-1,0.7-1,1.3s0.3,1.3,1,1.3
		s1.3-0.7,1.3-1.3C60.4,75.3,59.8,74.7,59.1,74.7z M79.3,74.7c-0.7,0-1,0.7-1,1.3s0.3,1.3,1,1.3c0.7,0,1.3-0.6,1.3-1.3
		C80.6,75.3,80,74.7,79.3,74.7z"/>
	<path class="st2" d="M63,71.1c1.6,2,3.9,2.9,6.5,2.9c2.3,0,3.9-0.7,5.9-2.9c-2-2-3.9-2.9-6.2-2.9S64.6,69.1,63,71.1z"/>
	<path d="M64.3,71.1c1.6-1.3,3.3-2,4.9-2c2,0,3.3,0.7,4.9,2c-1.6,1.6-2.9,2-4.9,2C67.3,73.1,65.6,72.4,64.3,71.1z"/>
	<path class="st2" d="M66.3,70.8c1,0.7,2,0.7,2.9,0.7c1,0,2,0,2.9-0.7c-1-0.7-2-1-2.9-1C68.2,69.8,67.3,70.1,66.3,70.8z"/>
	<path d="M56.2,62.9h26.4v-1H56.2V62.9z"/>
	<path class="st2" d="M60.1,61v2.3c0,0.7,0.7,1.3,1.3,1.3c0.7,0,1-0.3,1-1.3V61c0-1-0.3-1.6-1-1.6h-0.3l-0.3,0.3
		c-0.3,0-0.3,0.3-0.3,0.3c0,0.3-0.3,0.3-0.3,0.3L60.1,61L60.1,61L60.1,61z M68.2,62.9v0.3c0,0.7,0.3,1.3,1,1.3s1.3-0.3,1.3-1.3V61
		c0-1-0.6-1.6-1-1.6c-1,0-1.3,0.7-1.3,1.6V62.9z M76.1,61v2.3c0,0.7,0.3,1.3,1,1.3c0.7,0,1-0.3,1-1.3V61c0-1-0.3-1.6-1-1.6h-0.3
		l-0.3,0.3c-0.3,0-0.3,0.3-0.3,0.3L76.1,61L76.1,61z M59.7,85.5H62v-3.3h-2.3V85.5z M59.7,87.1H62v-1h-2.3V87.1z M76.1,85.5h2.3
		v-3.3h-2.3V85.5z M76.1,87.1h2.3v-1h-2.3V87.1z"/>
	<path style="fill:var(--bs-body-color);" d="M170,16.3c0-5.2-2.6-5.2-5.2-5.2h-1v-2c2.9,0,6.8,0.3,11.1,0.3c4.2,0,7.5-0.3,10.4-0.3v2h-1c-2.6,0-5.5,0-5.5,5.2v23.8
		c0,8.5,3.3,14.7,13.1,14.7c9.1,0,13.4-5.9,13.4-15V16.3c0-5.2-2.6-5.2-5.2-5.2h-1.3v-2c2.9,0,5.5,0.3,8.5,0.3
		c2.6,0,5.2-0.3,7.8-0.3v2h-1.3c-2,0-4.6,0-4.6,5.2v21.9c0,15.7-8.2,20.2-18.6,20.2c-13,0-20.5-4.9-20.5-17.3V16.3L170,16.3z
		 M263,43.7V17.6c0-5.5-3.9-6.5-5.9-6.5h-1.6v-2c3.3,0,6.5,0.3,9.8,0.3c2.6,0,5.5-0.3,8.5-0.3v2h-1c-2.9,0-6.2,0.7-6.2,8.8v31.3
		c0,2.6,0,4.9,0.3,7.2h-2.6l-35.6-39.8V47c0,6.2,1.3,8.2,6.5,8.2h1.3v2h-18.3v-2h1c4.6,0,6.2-3.3,6.2-8.8v-29c0-3.9-3.3-6.2-6.5-6.2
		h-0.7v-2c2.6,0,5.2,0.3,7.8,0.3c2,0,3.9-0.3,6.2-0.3L263,43.7L263,43.7z M277,55.1h1c2.3,0,4.9-0.3,4.9-3.9V15
		c0-3.6-2.6-3.9-4.9-3.9h-1v-2c2.6,0,6.8,0.3,10.1,0.3c3.6,0,7.5-0.3,10.8-0.3v2h-1c-2.3,0-4.9,0.3-4.9,3.9v36.2
		c0,3.6,2.6,3.9,4.9,3.9h1v2H277V55.1z M321,11.1h-1.6c-2.3,0-3.6,1-3.6,2c0,0.3,0.3,1.3,0.7,2.3L328.2,46h0.3l11.1-28.7
		c0.7-2.3,0.7-3.3,0.7-3.9c0-2-2-2.3-4.2-2.3h-1.3v-2c2.6,0,5.2,0.3,8.2,0.3c2,0,4.2-0.3,6.2-0.3v2h-0.7c-1.3,0-2.6,0.3-3.6,2.6
		c-0.7,1-10.8,26.4-15.3,37.8c-0.7,2.3-2,4.6-2.6,6.8h-2.6L306.7,15c-1.3-3.3-2.6-3.9-5.5-3.9h-1v-2c3.6,0,7.2,0.3,10.8,0.3
		c3.3,0,8.2-0.3,10.1-0.3L321,11.1L321,11.1L321,11.1z M351.7,55.1h1c2.6,0,5.2-0.3,5.2-3.9V15c0-3.6-2.6-3.9-5.2-3.9h-1v-2
		c4.2,0,11.4,0.3,17.3,0.3c5.9,0,13-0.3,17.6-0.3v10.4l-2,0.7c-0.3-4.6-1-8.2-8.5-8.2h-9.5v18.3h8.2c4.2,0,5.2-2.6,5.5-6.2h2
		c0,2.6-0.3,5.2-0.3,8.2c0,2.6,0.3,5.2,0.3,7.8l-2,0.3c-0.3-4.2-0.6-6.8-5.5-6.8h-8.2v16c0,4.6,3.9,4.6,8.5,4.6
		c8.2,0,11.7-0.7,14-8.5l2,0.7c-1,3.6-2,7.2-2.6,10.8h-36.9L351.7,55.1L351.7,55.1z M400.6,16.3c0-4.9-2.6-5.2-4.9-5.2h-1.3v-2
		c2.3,0,6.5,0.3,10.8,0.3c4.2,0,7.5-0.3,11.1-0.3c8.8,0,16.3,2.3,16.3,12.1c0,6.2-3.9,10.1-9.5,12.1l11.7,17.6
		c2,2.9,3.3,3.9,6.8,4.2v2h-13.4c-5.2-6.8-9.8-14.4-14.4-22.2h-4.6v14.7c0,5.2,2.6,5.5,5.9,5.5h1v2h-21.9v-2h1.3
		c2.6,0,4.9-1,4.9-3.6L400.6,16.3L400.6,16.3z M409.4,32.3h3.6c6.8,0,10.4-2.6,10.4-10.8c0-5.9-3.9-10.1-10.1-10.1
		c-2,0-2.9,0.3-3.9,0.3V32.3z M469.8,19.2c-0.6-4.6-3.6-8.8-8.2-8.8c-5.5,0-8.5,3.3-8.5,8.8c0,11.4,20.5,7.8,20.5,24.5
		c0,9.5-7.8,14.7-16.6,14.7c-3.9,0-7.5-1.6-11.1-3.3c-0.3-3.6-0.7-6.8-1-10.4l2-0.3c0.7,5.9,3.9,10.8,10.8,10.8
		c4.6,0,8.5-2.9,8.5-7.8c0-12.1-20.6-8.5-20.6-25.1c0-8.8,6.5-14,15.3-14c2,0,7.8,0.7,10.1,1c0,3.3,0,6.5,0.6,9.8L469.8,19.2
		L469.8,19.2z M480.6,55.1h1c2.3,0,4.9-0.3,4.9-3.9V15c0-3.6-2.6-3.9-4.9-3.9h-1v-2c2.6,0,6.8,0.3,10.1,0.3c3.6,0,7.5-0.3,10.8-0.3
		v2h-1c-2.3,0-4.9,0.3-4.9,3.9v36.2c0,3.6,2.6,3.9,4.9,3.9h1v2h-20.9L480.6,55.1L480.6,55.1z M512.2,12.4c-5.2,0-5.5,1.3-6.5,6.5h-2
		c0.3-2,0.6-3.9,0.6-5.9c0.3-2,0.7-3.9,0.7-5.9h1.6c0.6,2,2.3,2,4.2,2h35.6c1.6,0,3.6,0,3.6-2.3l1.6,0.3c-0.3,2-0.7,3.9-0.7,5.5
		c-0.3,2-0.3,3.9-0.3,5.5l-2,1c0-2.6-0.3-6.8-5.2-6.8h-11.1v36.9c0,5.2,2.3,5.9,5.5,5.9h1.3v2h-22.8v-2h1.3c3.9,0,5.9-0.3,5.9-5.9
		V12.4L512.2,12.4L512.2,12.4z M574.5,34.9l-14-18.9c-2-2.9-3.3-4.9-6.5-4.9h-0.6v-2c3.6,0,7.2,0.3,10.8,0.3c3.6,0,6.8-0.3,10.1-0.3
		v2h-0.6c-2,0-3.6,0.7-3.6,1.6c0,0.7,0.6,1.6,1,2.3l10.4,14.7l8.8-12.4c1-2,2-3.3,2-4.6c0-1.3-2.9-1.6-3.9-1.6h-1.3v-2
		c2.6,0,5.2,0.3,7.8,0.3c2.3,0,4.6-0.3,6.8-0.3v2c-2.6,0-4.6,1.6-5.6,3.3l-12.7,18.3v16.3c0,5.9,2,6.2,5.5,6.2h1.3v2h-22.8v-2h1.3
		c4.2,0,5.9-1,5.9-5.5L574.5,34.9L574.5,34.9L574.5,34.9z M652.8,8.2c14.7,0,26.4,9.1,26.4,23.8c0,15.7-11.1,26.4-26.1,26.4
		c-14.4,0-25.8-10.1-25.8-24.8C627.3,19.2,638.4,8.2,652.8,8.2z M654.1,55.1c13.4,0,15.7-11.7,15.7-21.9c0-10.1-5.6-22.2-17-22.2
		c-12.1,0-15.7,10.8-15.7,19.9C637.1,43.4,642.7,55.1,654.1,55.1L654.1,55.1z M698.8,30.3h9.5c3.6,0,4.6-2.3,4.6-5.9h2
		c0,2.6-0.3,4.9-0.3,7.5c0,2.9,0.3,5.5,0.3,8.5h-2c0-3.9-1-6.8-5.5-6.8h-8.5v17.6c0,3.9,3.3,3.9,6.5,3.9h1v2h-22.5v-2h1
		c2.6,0,5.2-0.3,5.2-3.9V15c0-3.6-2.6-3.9-5.2-3.9h-1v-2c4.2,0,11.4,0.3,17.3,0.3c5.9,0,13-0.3,17.6-0.3v10.4l-2,0.7
		c-0.3-4.9-1.6-8.2-6.8-8.2h-11.1L698.8,30.3L698.8,30.3L698.8,30.3z M219.6,102.4c-2.3-8.5-6.2-15.7-19.2-15.7
		c-14.4,0-21.9,11.4-21.9,26.8c0,14.4,7.2,29,23.8,29c9.1,0,15.3-5.9,17.6-14.4l2.6,0.3c-1.3,4.6-2,9.5-2.3,14
		c-4.9,2.3-11.7,3.9-19.9,3.9c-19.6,0-34.3-10.8-34.3-32.6c0-19.6,16-30.7,33.9-30.7c10.1,0,13.4,2.9,21.5,4.2c0,4.9,0,9.8,0.7,14.7
		L219.6,102.4z M240.8,132.8c-1,2.9-2,5.2-2,6.8c0,2.6,3.6,2.9,6.5,2.9h1v2.6c-3.6-0.3-7.2-0.3-10.4-0.3s-6.2,0-9.5,0.3v-2.6h0.7
		c3.3,0,6.2-2,7.5-5.6l13.7-40.1c1.3-3.3,2.9-7.5,3.3-10.8c2.9-1,6.2-2.6,8.2-3.6c0-0.3,0.3-0.3,0.7-0.3c0,0,0.3,0,0.7,0.3
		c0,0.6,0.3,1.3,0.7,2.3l16,45.3c1,2.9,2,6.2,3.3,8.8c1,2.6,2.9,3.6,5.5,3.6h0.7v2.6c-3.9-0.3-7.8-0.3-12.1-0.3
		c-4.2,0-8.5,0-13.1,0.3v-2.6h1c2,0,5.5-0.3,5.5-2.6c0-1-1-3.3-2-6.2l-3.3-10.1h-19.9L240.8,132.8L240.8,132.8z M253.5,94.3h-0.3
		l-7.8,24.5h16L253.5,94.3z M333.4,129.8L354,84.5c2.6,0,5.9,0.3,8.8,0.3s6.2-0.3,9.1-0.3v2.6h-0.6c-2.6,0-7.8,0-8.2,3.9
		c0,2.3,0.3,4.9,0.7,6.8l3.3,39.8c0.3,4.2,2.3,4.6,7.5,4.9v2.6c-3.9-0.3-8.2-0.3-12.4-0.3c-4.9,0-9.5,0-14.4,0.3v-2.6
		c4.6-0.3,7.5-0.3,7.5-4.2v-4.2l-2.6-36.5l-22.2,48.9h-2.3l-20.9-48H307l-2.9,38.2c0,2.6,0.7,4.2,2,4.9s2.9,1,5.5,1h1v2.6
		c-3.9-0.3-7.8-0.3-11.7-0.3c-3.6,0-6.8,0-10.4,0.3v-2.6h1.3c6.8-0.3,7.2-3.3,7.8-9.5l2.6-24.1c0.7-6.2,1-12.1,1-15.3
		c0-4.9-3.6-6.5-7.5-6.5h-1v-2.6c3.6,0,6.8,0.3,10.4,0.3c2.6,0,5.2-0.3,7.8-0.3L333.4,129.8L333.4,129.8z M380.1,142.5h1.3
		c2.9,0,6.5-0.3,6.5-4.9V92c0-4.6-3.6-4.9-6.5-4.9h-1.3v-2.6c3.9,0,8.8,0.3,13.7,0.3c4.9,0,9.8-0.3,13.7-0.3
		c14.7,0,20.2,5.9,20.2,13.7c0,8.8-8.2,12.7-16,14c9.5,0,19.6,5.2,19.6,15.7c0,9.5-9.1,17.3-20.5,17.3c-4.2,0-9.8-0.3-15.3-0.3
		c-5.2,0-11.4,0.3-15.3,0.3L380.1,142.5L380.1,142.5L380.1,142.5z M399,134.7c0,5.9,1,7.2,7.8,7.2c7.2,0,12.7-5.9,12.7-13.7
		c0-9.5-6.5-14-15-14H399L399,134.7L399,134.7L399,134.7z M399,110.9h4.2c7.2,0,12.7-2.9,12.7-11.1c0-10.1-5.9-12.4-11.7-12.4H399
		L399,110.9L399,110.9z M445.6,93.6c0-6.2-3.6-6.5-6.2-6.5h-1.6v-2.6c2.9,0,8.2,0.3,13.4,0.3c5.2,0,9.5-0.3,14-0.3
		c11.1,0,20.9,2.9,20.9,15.3c0,7.8-5.2,12.4-12.1,15.3l14.7,22.2c2.6,3.6,4.2,4.6,8.5,5.2v2.6c-2.9,0-5.5-0.3-8.5-0.3
		c-2.6,0-5.5,0.3-8.2,0.3c-6.8-8.8-12.4-18.3-17.9-28.4h-5.9v18.9c0,6.5,3.3,6.8,7.2,6.8h1.6v2.6c-5.2,0-10.1-0.3-15-0.3
		c-4.2,0-8.5,0.3-12.7,0.3v-2.6h1.6c3.3,0,6.2-1.6,6.2-4.6L445.6,93.6L445.6,93.6L445.6,93.6z M456.7,113.8h4.2
		c8.8,0,13.4-3.3,13.4-13.7c0-7.5-4.9-12.7-12.7-12.7c-2.6,0-3.6,0.3-4.9,0.3L456.7,113.8L456.7,113.8z M500.8,142.5h1.3
		c2.9,0,6.2-0.3,6.2-4.9V92c0-4.6-3.3-4.9-6.2-4.9h-1.3v-2.6c3.3,0,8.5,0.3,12.7,0.3c4.6,0,9.8-0.3,13.7-0.3v2.6h-1
		c-3.3,0-6.5,0.3-6.5,4.9v45.7c0,4.6,3.3,4.9,6.5,4.9h1v2.6c-4.2,0-9.5-0.3-13.7-0.3c-4.2,0-9.5,0.3-12.7,0.3V142.5z M533.4,142.5
		h1.3c3.3,0,6.5-0.3,6.5-4.9V92c0-4.6-3.3-4.9-6.5-4.9h-1.3v-2.6c2.6,0,8.5,0.3,14,0.3c5.5,0,10.4-0.3,14-0.3
		c21.5,0,34.6,12.1,34.6,30c0,17.6-14.7,31.6-32.3,30.7c-3.9-0.3-9.8-0.3-16-0.3c-5.9,0-12.1,0.3-14.4,0.3V142.5z M552.3,135
		c0,6.2,2.6,6.8,9.1,6.8c14.7,0,22.5-12.4,22.5-25.8c0-22.8-11.7-28.7-25.8-28.7c-2,0-3.9,0.3-5.9,0.6L552.3,135L552.3,135
		L552.3,135z M658.7,101.4c-2.6-10.8-10.1-14.7-20.2-14.7c-15.7,0-23.2,11.7-23.2,26.1s6.8,29.7,23.5,29.7c3.9,0,8.5-0.7,9.5-1.6
		v-14c0-3.6-3.3-4.6-6.5-4.6h-1v-2.6c4.2,0.3,8.5,0.3,13.1,0.3c3.9,0,7.5,0,11.4-0.3v2.6h-1c-3.3,0-4.9,1.3-4.9,4.6v13l2.3,1.3v1.3
		c-7.8,2.3-15.3,3.9-24.5,3.9c-19.6,0-34.2-11.7-34.2-32.6c0-20.2,17.3-30.7,34.9-30.7c5.5,0,9.1,0.7,12.4,1.6
		c3.6,0.7,6.5,1.3,10.1,1.6c0,2.9,0,9.8,1,14.7L658.7,101.4L658.7,101.4z M669.7,142.5h1c3.3,0,6.5-0.3,6.5-4.9V92
		c0-4.6-3.3-4.9-6.5-4.9h-1v-2.6c5.2,0,14.4,0.3,21.5,0.3c7.2,0,16.3-0.3,22.2-0.3c0,3.6,0,9.5,0.3,13.4l-2.6,0.6
		c-0.7-5.9-1.6-10.4-10.8-10.4h-12.1v22.8h10.4c5.2,0,6.2-2.9,6.8-7.5h2.6c-0.3,3.3-0.3,6.8-0.3,10.1s0,6.5,0.3,10.1l-2.6,0.3
		c-0.7-5.2-0.7-8.5-6.8-8.5h-10.4v20.2c0,5.5,5.2,5.5,10.8,5.5c10.4,0,15-0.7,17.6-10.4l2.3,0.6c-1,4.6-2,9.1-2.9,13.7
		c-5.5,0-15.3-0.3-23.2-0.3c-7.8,0-18.3,0.3-23.2,0.3L669.7,142.5L669.7,142.5L669.7,142.5z"/>
</g>
</svg>
