<?xml version="1.0" encoding="UTF-8" standalone="no"?>
<!-- Created with Inkscape (http://www.inkscape.org/) -->

<svg
   width="128"
   height="128"
   viewBox="0 0 33.866666 33.866667"
   version="1.1"
   id="svg1"
   inkscape:version="1.3.2 (091e20ef0f, 2023-11-25, custom)"
   sodipodi:docname="rocks.syng.gui2.svg"
   xmlns:inkscape="http://www.inkscape.org/namespaces/inkscape"
   xmlns:sodipodi="http://sodipodi.sourceforge.net/DTD/sodipodi-0.dtd"
   xmlns="http://www.w3.org/2000/svg"
   xmlns:svg="http://www.w3.org/2000/svg">
  <sodipodi:namedview
     id="namedview1"
     pagecolor="#ffffff"
     bordercolor="#000000"
     borderopacity="0.25"
     inkscape:showpageshadow="2"
     inkscape:pageopacity="0.0"
     inkscape:pagecheckerboard="0"
     inkscape:deskcolor="#d1d1d1"
     inkscape:document-units="mm"
     showguides="true"
     inkscape:zoom="4.6965769"
     inkscape:cx="68.241191"
     inkscape:cy="55.146548"
     inkscape:window-width="1920"
     inkscape:window-height="1531"
     inkscape:window-x="20"
     inkscape:window-y="20"
     inkscape:window-maximized="0"
     inkscape:current-layer="layer1" />
  <defs
     id="defs1">
    <clipPath
       clipPathUnits="userSpaceOnUse"
       id="clipPath20">
      <g
         id="g21">
        <circle
           style="fill:#2ec27e;fill-opacity:1;stroke-width:15.5406"
           id="circle21"
           r="16.271875"
           cy="16.933331"
           cx="16.933334" />
      </g>
    </clipPath>
    <clipPath
       clipPathUnits="userSpaceOnUse"
       id="clipPath21">
      <g
         id="g22">
        <circle
           style="fill:#2ec27e;fill-opacity:1;stroke-width:15.5406"
           id="circle22"
           r="16.271875"
           cy="16.933331"
           cx="16.933334" />
      </g>
    </clipPath>
    <clipPath
       clipPathUnits="userSpaceOnUse"
       id="clipPath22">
      <g
         id="g23">
        <circle
           style="fill:#2ec27e;fill-opacity:1;stroke-width:15.5406"
           id="circle23"
           r="16.271875"
           cy="16.933331"
           cx="16.933334" />
      </g>
    </clipPath>
  </defs>
  <g
     inkscape:label="Ebene 1"
     inkscape:groupmode="layer"
     id="layer1">
    <path
       inkscape:connector-curvature="0"
       style="fill:#3d3846;fill-opacity:1;fill-rule:nonzero;stroke:#000000;stroke-width:0.854869;stroke-linejoin:miter;stroke-miterlimit:4;stroke-dasharray:none;stroke-opacity:1"
       d="m 17.032165,8.0762396 -25.6168937,25.6168934 -0.107123,0.184519 c 0.1452355,0.24999 0.2814119,0.502927 0.4380264,0.748928 0.2914499,0.457721 0.6019592,0.907496 0.9303629,1.347638 0.3283998,0.440177 0.6742854,0.870171 1.0363635,1.288374 0.3620357,0.418161 0.7398069,0.824008 1.1318977,1.216024 0.2769335,0.276839 0.5608148,0.546552 0.8510935,0.808656 0.4109825,0.371156 0.8343648,0.726653 1.2685567,1.065155 0.4342002,0.338532 0.8786706,0.659646 1.3317486,0.962144 0.3735855,0.249412 0.7556397,0.47743 1.13918684,0.700413 L -0.37373862,41.90412 25.243154,16.287229 Z"
       id="rect4521"
       clip-path="url(#clipPath22)" />
    <path
       style="fill:#26a269;fill-opacity:1;fill-rule:nonzero;stroke:#000000;stroke-width:0.767436;stroke-linejoin:miter;stroke-miterlimit:4;stroke-dasharray:none;stroke-opacity:1"
       d="M 10.313989,5.5070223 A 12.376422,12.376422 0 0 0 10.367929,22.955457 12.376422,12.376422 0 0 0 27.80963,23.007897 16.630816,11.941314 45 0 1 26.825988,22.88049 16.630816,11.941314 45 0 1 25.385808,22.554352 16.630816,11.941314 45 0 1 23.93871,22.089311 16.630816,11.941314 45 0 1 22.499094,21.489478 16.630816,11.941314 45 0 1 21.08135,20.761399 16.630816,11.941314 45 0 1 19.699688,19.911985 16.630816,11.941314 45 0 1 18.367939,18.94984 16.630816,11.941314 45 0 1 17.099382,17.884687 16.630816,11.941314 45 0 1 16.248286,17.076028 16.630816,11.941314 45 0 1 15.116392,15.860005 16.630816,11.941314 45 0 1 14.080026,14.571631 16.630816,11.941314 45 0 1 13.149663,13.223993 16.630816,11.941314 45 0 1 12.334743,11.830459 16.630816,11.941314 45 0 1 11.643118,10.404863 16.630816,11.941314 45 0 1 11.081889,8.9616 16.630816,11.941314 45 0 1 10.656669,7.5150653 16.630816,11.941314 45 0 1 10.371662,6.0795606 16.630816,11.941314 45 0 1 10.313989,5.5070223 Z"
       id="path4528"
       inkscape:connector-curvature="0"
       clip-path="url(#clipPath21)" />
    <path
       style="fill:#241f31;fill-opacity:1;fill-rule:nonzero;stroke:#000000;stroke-width:0.767436;stroke-linejoin:miter;stroke-miterlimit:4;stroke-dasharray:none;stroke-opacity:1"
       d="m 10.313527,5.5065594 a 16.630816,11.941314 45 0 0 0.05767,0.572538 16.630816,11.941314 45 0 0 0.285007,1.4355047 16.630816,11.941314 45 0 0 0.425223,1.4465347 16.630816,11.941314 45 0 0 0.561227,1.4432632 16.630816,11.941314 45 0 0 0.691627,1.425596 16.630816,11.941314 45 0 0 0.81492,1.393534 16.630816,11.941314 45 0 0 0.930361,1.347638 16.630816,11.941314 45 0 0 1.036365,1.288374 16.630816,11.941314 45 0 0 1.131895,1.216024 16.630816,11.941314 45 0 0 0.851096,0.808659 16.630816,11.941314 45 0 0 1.268554,1.065152 16.630816,11.941314 45 0 0 1.331751,0.962143 16.630816,11.941314 45 0 0 1.381662,0.849415 16.630816,11.941314 45 0 0 1.417744,0.728082 16.630816,11.941314 45 0 0 1.439617,0.599832 16.630816,11.941314 45 0 0 1.447094,0.465042 16.630816,11.941314 45 0 0 1.440181,0.326135 16.630816,11.941314 45 0 0 0.983644,0.12741 12.376422,12.376422 0 0 0 0.05964,-0.05403 l 0.0062,-0.0062 a 12.376422,12.376422 0 0 0 -0.01073,-17.5013436 12.376422,12.376422 0 0 0 -17.501246,0.00767 12.376422,12.376422 0 0 0 -0.04945,0.052998 z"
       id="path4523"
       inkscape:connector-curvature="0"
       clip-path="url(#clipPath20)" />
    <path
       style="fill:#2ec27e;fill-opacity:1;stroke-width:7.9375"
       d="M 14.96738,-22.579915 20.569667,8.5719967"
       id="path15" />
  </g>
</svg>
