<svg width="671" height="165" viewBox="0 0 671 165" fill="none" xmlns="http://www.w3.org/2000/svg">
<g clip-path="url(#clip0)">
<path d="M98.019 141.452V92.8337C98.019 87.5233 97.6179 85.3705 96.2322 82.787C94.2266 79.0554 90.0331 76.6873 85.8396 76.6873C81.6461 76.6873 77.6349 78.8401 75.4469 82.3924C73.259 85.5499 73.259 85.9446 73.259 93.2284V141.452H48.8637V93.049C48.8637 86.3751 48.6449 85.1911 47.0768 82.6076C44.8889 79.2707 40.8777 77.082 36.8665 77.082C32.673 77.082 28.6618 79.4501 26.4739 82.787C24.8694 85.3346 24.6871 86.5187 24.6871 93.2284V141.452H0V96.96C0 82.6076 1.20336 77.082 6.01679 69.9775C12.4347 60.3255 23.4108 54.6205 35.2256 54.6205C45.2171 54.6205 53.2395 58.1727 60.642 65.4565C69.8313 57.5986 76.6503 54.8358 86.2407 54.8358C98.2378 54.8358 109.032 60.5408 115.851 70.1928C121.065 77.6561 122.633 83.9711 122.633 97.1394V141.417H98.019V141.452Z" fill="black"/>
<path d="M226.815 99.9382C226.815 123.943 206.212 144.036 181.415 144.036C156.218 144.036 135.833 123.943 135.833 99.3641C135.833 74.5703 156.254 54.5128 181.634 54.5128C206.613 54.477 226.815 74.7138 226.815 99.9382ZM160.411 99.3282C160.411 111.348 169.6 120.57 181.415 120.57C192.829 120.57 202.237 110.918 202.237 99.5076C202.237 87.7028 192.829 78.0508 181.415 78.0508C169.6 78.0866 160.411 87.5233 160.411 99.3282Z" fill="black"/>
<path d="M291.796 123.333C289.389 130.437 288.587 132.375 286.582 135.353C283.373 139.874 278.195 142.637 272.178 142.637C262.186 142.637 257.373 137.721 252.596 123.333L231.008 57.0245H257.81L271.594 108.585L286.582 57.0245H312.983L291.796 123.333Z" fill="black"/>
<path d="M347.005 34.3836C347.005 41.6674 340.587 47.9466 333.221 47.9466C325.855 47.9466 319.619 41.8468 319.619 34.3836C319.619 26.9204 325.599 21 333.221 21C341.024 21 347.005 26.9204 347.005 34.3836ZM346.202 141.452H321.807V57.0245H346.202V141.452Z" fill="black"/>
<path d="M408.632 141.452C394.848 141.452 389.815 140.484 381.83 135.927C368.41 128.248 360.424 114.47 360.424 99.1129C360.424 83.9711 368.228 70.5875 381.428 62.909C389.414 58.1727 395.212 57.0245 408.23 57.0245H415.633V80.0601H409.434C402.834 80.0601 398.64 80.8495 395.03 82.8229C389.013 86.1599 385.44 92.4749 385.44 99.1488C385.44 106.038 389.232 112.532 395.03 115.69C398.64 117.663 402.615 118.453 409.215 118.453H415.633V141.488H408.632V141.452Z" fill="black"/>
<path d="M456 34.3836C456 41.6674 449.582 47.9466 442.216 47.9466C434.85 47.9466 428.615 41.8468 428.615 34.3836C428.615 26.9204 434.595 21 442.216 21C450.02 21 456 26.9204 456 34.3836ZM455.198 141.452H430.803V57.0245H455.198V141.452Z" fill="black"/>
</g>
<path d="M552.947 16.7176C553.366 17.0992 553.786 17.5191 554.206 17.9008C556.153 19.6565 558.137 21.3359 560.237 22.9389C560.542 23.1679 560.847 23.397 561.191 23.626C563.137 25.0763 565.16 26.4122 567.26 27.7099C567.679 27.9771 568.061 28.2443 568.481 28.4733C570.733 29.8092 573.099 31.0687 575.504 32.2519C575.695 32.3664 575.924 32.4428 576.114 32.5573C576.229 32.4046 576.382 32.2137 576.496 32.0611C578.099 29.8855 579.588 27.6718 580.962 25.4199C581.191 25 581.42 24.6183 581.687 24.1985C582.908 22.0992 584.092 19.9237 585.122 17.7481C585.275 17.4046 585.466 17.0611 585.656 16.7176C586.763 14.3511 587.756 11.9084 588.634 9.46565C588.824 8.9313 589.015 8.35878 589.206 7.82443C590.046 5.30534 590.847 2.78626 591.42 0.229007C591.42 0.190839 591.42 0.190839 591.42 0.152671C576.076 -0.38168 560.771 3.39695 547.374 11.1069L547.412 11.145C549.13 13.0153 551 14.8855 552.947 16.7176Z" fill="#1AB67E"/>
<path d="M517.031 89.084C519.511 89.3511 522.031 89.6946 524.511 90.1908C524.931 90.2672 525.351 90.3435 525.809 90.4198C528.595 90.9924 531.344 91.6794 534.053 92.4809C534.702 92.6717 535.351 92.8626 536 93.0916C538.634 93.9313 541.267 94.8473 543.863 95.8779C543.939 95.916 544.015 95.916 544.092 95.9542C544.168 95.229 544.321 94.542 544.359 93.8168C544.435 93.1298 544.473 92.4046 544.511 91.7176C544.702 88.9313 544.817 86.145 544.779 83.4351C544.74 80.7252 544.511 77.9389 544.206 75.1908C544.13 74.4656 544.053 73.7786 543.939 73.0534C543.863 72.3664 543.672 71.6412 543.557 70.9542C543.443 70.9924 543.366 71.0305 543.252 71.0687C540.733 72.2137 538.137 73.2443 535.542 74.1603C534.893 74.3893 534.282 74.6183 533.634 74.8473C530.924 75.7634 528.176 76.5649 525.427 77.2519C525.084 77.3282 524.702 77.3664 524.359 77.4809C521.802 78.0534 519.282 78.5496 516.687 78.9313C516.115 79.0076 515.542 79.1221 515.008 79.1985C512.183 79.5801 509.397 79.8092 506.573 79.9237C506.382 79.9237 506.229 79.9618 506.038 79.9618C505.962 82.8244 506 85.6488 506.229 88.5114C506.42 88.5114 506.611 88.5496 506.802 88.5496C509.588 88.5496 512.374 88.6641 515.16 88.9313C515.771 88.9313 516.382 89.0076 517.031 89.084Z" fill="#1AB67E"/>
<path d="M534.473 102.748C534.015 102.595 533.557 102.481 533.061 102.328C530.733 101.603 528.405 100.954 526.076 100.42C525.695 100.343 525.313 100.229 524.931 100.153C522.374 99.6183 519.779 99.1985 517.222 98.8931C516.649 98.8168 516.076 98.7786 515.466 98.7023C512.832 98.4351 510.237 98.2443 507.603 98.2443C507.565 98.2443 507.565 98.2443 507.527 98.2443C510.466 113.321 517.603 127.366 528.061 138.664L528.099 138.626C529.626 136.489 531.038 134.237 532.374 131.947C532.68 131.45 532.947 130.954 533.214 130.458C534.473 128.168 535.657 125.84 536.763 123.473C536.916 123.13 537.069 122.748 537.222 122.366C538.176 120.153 539.015 117.901 539.817 115.611C539.97 115.153 540.16 114.695 540.313 114.237C541.115 111.718 541.802 109.16 542.412 106.565C542.451 106.336 542.489 106.107 542.565 105.916C542.374 105.84 542.145 105.725 541.954 105.649C539.435 104.542 536.954 103.588 534.473 102.748Z" fill="#1AB67E"/>
<path d="M516.573 69.1221C519.13 68.7023 521.687 68.2061 524.206 67.5573C524.588 67.4427 524.969 67.3282 525.351 67.2137C527.679 66.5649 529.969 65.8397 532.26 65.0382C532.718 64.8855 533.176 64.7328 533.634 64.542C536.114 63.5878 538.557 62.5572 540.962 61.374C541.153 61.2977 541.344 61.1832 541.534 61.0687C541.496 60.8397 541.42 60.6489 541.382 60.4198C540.695 57.8626 539.893 55.3053 538.977 52.8244C538.824 52.3664 538.634 51.9084 538.443 51.4504C537.565 49.1985 536.611 46.9847 535.58 44.8092C535.427 44.4656 535.237 44.084 535.084 43.7405C533.901 41.4122 532.641 39.1221 531.267 36.9084C531 36.4122 530.695 35.916 530.389 35.458C528.939 33.2061 527.45 31.0687 525.847 28.9695L525.809 28.9313C516.763 39.4656 510.542 52.0611 507.718 65.6489C507.412 67.0992 507.145 68.5878 506.916 70.1908C506.954 70.1908 506.992 70.1908 507.031 70.1908C509.626 70.0763 512.26 69.771 514.855 69.3893C515.389 69.2748 516 69.1985 516.573 69.1221Z" fill="#1AB67E"/>
<path d="M650.237 45.8015C647.756 46.6794 645.275 47.4427 642.718 48.1298C642.374 48.2061 641.992 48.3206 641.649 48.4351C638.863 49.1221 636.038 49.6947 633.176 50.1527C632.527 50.2672 631.916 50.3435 631.267 50.4198C628.443 50.8015 625.618 51.145 622.756 51.2977C622.679 51.2977 622.641 51.2977 622.565 51.2977C622.794 51.9466 622.985 52.5954 623.214 53.2061C623.443 53.855 623.71 54.5038 623.977 55.1145C625.008 57.6718 626.115 60.1908 627.336 62.5954C628.557 65 630.008 67.4046 631.458 69.7328C631.84 70.3435 632.221 70.9542 632.641 71.5267C633.023 72.0992 633.481 72.6718 633.901 73.2443C633.939 73.1679 634.015 73.1298 634.092 73.0534C635.886 70.8779 637.756 68.8168 639.702 66.8321C640.16 66.3359 640.618 65.8779 641.115 65.4198C643.137 63.3969 645.237 61.4886 647.45 59.6565C647.756 59.3893 648.099 59.1603 648.405 58.9313C650.389 57.3282 652.45 55.8015 654.588 54.3511C655.084 54.0076 655.58 53.6641 656.076 53.3206C658.443 51.7939 660.847 50.3435 663.29 49.0076C663.443 48.9313 663.595 48.8168 663.748 48.7405C662.641 46.2977 661.458 43.9313 660.16 41.6412C660.008 41.7176 659.817 41.7557 659.664 41.8321C657.107 43.0534 654.512 44.1603 651.84 45.1527C651.305 45.4198 650.771 45.6107 650.237 45.8015Z" fill="#1AB67E"/>
<path d="M617.336 13.5496C617.298 14.1221 617.26 14.7328 617.222 15.3054C617.069 17.9389 617.031 20.5344 617.107 23.1679C617.107 23.5878 617.145 23.9695 617.183 24.3893C617.298 26.7939 617.527 29.2366 617.832 31.6794C617.909 32.1756 617.947 32.6336 618.023 33.1298C618.405 35.7634 618.901 38.397 619.55 41.0305C619.588 41.2595 619.664 41.4504 619.702 41.6794C619.931 41.6794 620.16 41.6794 620.389 41.6794C623.099 41.5649 625.771 41.3741 628.405 41.0687C628.863 41.0305 629.321 40.916 629.779 40.8779C632.222 40.5344 634.626 40.1145 637.031 39.5802C637.412 39.5038 637.794 39.4275 638.176 39.3511C640.733 38.7405 643.29 37.9771 645.771 37.1756C646.305 36.9847 646.878 36.7939 647.412 36.6031C649.931 35.687 652.412 34.7328 654.817 33.5878C654.855 33.5878 654.855 33.5496 654.893 33.5496C645.58 20.9542 632.87 11.2596 618.367 5.64886C618.367 5.68703 618.367 5.68703 618.367 5.7252C617.832 8.24428 617.527 10.916 617.336 13.5496Z" fill="#1AB67E"/>
<path d="M589.32 37.6336C594.626 39.2748 600.046 40.3817 605.542 41.0305C606.229 41.1069 606.916 41.1832 607.603 41.2595C608.252 41.3359 608.939 41.3359 609.588 41.374C609.588 41.2977 609.549 41.2214 609.549 41.145C608.939 38.3588 608.519 35.5725 608.175 32.7862C608.099 32.1374 608.023 31.4885 607.946 30.8397C607.641 27.9771 607.45 25.1145 607.374 22.2519C607.374 21.8321 607.374 21.4122 607.374 20.9924C607.336 18.4351 607.45 15.8779 607.641 13.3206C607.679 12.7099 607.717 12.0992 607.756 11.4885C608.023 8.70228 608.366 5.91602 608.901 3.12977C608.939 2.93893 608.939 2.74809 608.977 2.55725C606.343 1.87022 603.862 1.37404 601.191 0.954193C601.153 1.14503 601.076 1.2977 601.038 1.48854C600.427 4.23664 599.664 6.94656 598.786 9.61831C598.595 10.1908 598.404 10.7252 598.214 11.2977C597.374 13.7405 596.458 16.145 595.389 18.5114C595.236 18.855 595.084 19.2366 594.931 19.5801C593.748 22.1756 592.45 24.7328 591.038 27.2137C590.733 27.7862 590.389 28.3588 590.046 28.9313C588.633 31.374 587.107 33.7786 585.465 36.1069C585.427 36.145 585.389 36.2214 585.389 36.2595C586.038 36.4885 586.725 36.7939 587.374 36.9847C588.023 37.2137 588.672 37.4046 589.32 37.6336Z" fill="#1AB67E"/>
<path d="M649.206 126.145C648.672 125.992 648.099 125.801 647.565 125.649C645.046 124.924 642.527 124.275 639.931 123.779C639.55 123.702 639.168 123.664 638.748 123.588C636.382 123.168 634.015 122.824 631.573 122.595C631.076 122.557 630.58 122.481 630.084 122.443C627.45 122.214 624.817 122.137 622.183 122.137C621.954 122.137 621.725 122.137 621.458 122.137C621.42 122.366 621.382 122.595 621.305 122.824C620.847 125.42 620.466 128.053 620.199 130.687C620.16 131.183 620.122 131.679 620.084 132.176C619.893 134.58 619.817 136.985 619.817 139.389C619.817 139.771 619.817 140.191 619.817 140.573C619.855 143.206 620.046 145.802 620.313 148.397C620.389 148.969 620.428 149.542 620.504 150.115C620.847 152.748 621.229 155.344 621.802 157.901C621.802 157.939 621.802 157.939 621.802 157.977C635.886 151.718 647.985 141.603 656.611 128.931C656.611 128.931 656.573 128.931 656.573 128.893C654.244 127.786 651.763 126.947 649.206 126.145Z" fill="#1AB67E"/>
<path d="M667.222 57.9389C667.183 57.9389 667.183 57.9771 667.145 57.9771C664.855 59.2366 662.603 60.6489 660.428 62.1374C659.931 62.4809 659.473 62.7863 658.977 63.1298C656.84 64.6183 654.779 66.2214 652.794 67.9008C652.489 68.1679 652.222 68.4351 651.916 68.7023C650.084 70.3053 648.328 71.9466 646.649 73.7023C646.306 74.0458 645.962 74.3893 645.619 74.7328C643.786 76.6412 642.069 78.6641 640.389 80.7634C640.237 80.916 640.122 81.1069 640.008 81.2977C640.16 81.4885 640.313 81.6412 640.466 81.8321C642.222 83.855 644.054 85.7634 645.962 87.5954C646.306 87.9389 646.649 88.2443 646.993 88.5496C648.786 90.229 650.657 91.8321 652.565 93.3206C652.87 93.5496 653.138 93.7786 653.405 94.0076C655.504 95.6107 657.68 97.0992 659.893 98.5114C660.351 98.8168 660.848 99.084 661.306 99.3893C663.596 100.763 665.886 102.099 668.29 103.244H668.328C668.672 101.908 668.977 100.649 669.244 99.3511C672.145 85.6107 671.42 71.374 667.222 57.9389Z" fill="#1AB67E"/>
<path d="M657.374 108.397C656.878 108.092 656.343 107.786 655.847 107.443C653.672 106.107 651.534 104.656 649.435 103.13C649.13 102.901 648.786 102.71 648.481 102.481C646.191 100.763 643.977 98.9313 641.84 97.0229C641.343 96.603 640.885 96.145 640.427 95.7252C638.366 93.8168 636.343 91.7939 634.435 89.6946C634.397 89.6565 634.359 89.6183 634.32 89.5801C633.939 90.1908 633.519 90.7633 633.175 91.374C632.794 91.9847 632.45 92.6336 632.069 93.2443C630.695 95.6488 629.397 98.1298 628.29 100.611C627.183 103.092 626.191 105.687 625.275 108.321C625.046 109.008 624.817 109.656 624.588 110.343C624.359 111.031 624.206 111.718 624.015 112.405C624.091 112.405 624.168 112.405 624.206 112.405C626.954 112.443 629.702 112.634 632.412 112.901C633.137 112.977 633.824 113.053 634.511 113.13C637.298 113.473 640.046 113.893 642.794 114.466C642.87 114.466 642.946 114.466 643.023 114.504C643.252 114.542 643.443 114.618 643.672 114.695C646.305 115.267 648.901 115.954 651.458 116.756C652.069 116.947 652.679 117.099 653.252 117.29C655.962 118.168 658.633 119.16 661.229 120.267C661.382 120.344 661.572 120.382 661.763 120.458C663.099 117.901 664.282 115.305 665.313 112.672C665.16 112.595 664.969 112.481 664.817 112.405C662.259 111.145 659.817 109.847 657.374 108.397Z" fill="#1AB67E"/>
<path d="M611.153 152.519C611.077 151.908 611 151.336 610.924 150.725C610.619 148.206 610.39 145.649 610.313 143.092C610.313 142.672 610.275 142.29 610.237 141.87C610.161 139.046 610.237 136.183 610.39 133.321C610.428 132.634 610.466 131.985 610.542 131.336C610.771 128.55 611.077 125.763 611.496 122.977C611.496 122.901 611.496 122.824 611.535 122.748C610.848 122.824 610.122 122.863 609.397 122.939C608.672 123.053 607.985 123.13 607.26 123.244C604.512 123.664 601.802 124.198 599.168 124.847C596.535 125.534 593.863 126.374 591.229 127.29C590.58 127.519 589.893 127.748 589.244 128.015C588.557 128.282 587.909 128.588 587.26 128.855C587.298 128.893 587.336 128.969 587.374 129.046C589.092 131.298 590.657 133.588 592.183 135.954C592.565 136.527 592.909 137.099 593.252 137.672C594.741 140.115 596.153 142.557 597.412 145.115C597.603 145.496 597.756 145.878 597.947 146.221C599.054 148.511 600.084 150.84 601 153.206C601.229 153.779 601.458 154.351 601.649 154.886C602.641 157.519 603.481 160.153 604.206 162.863C604.244 163.053 604.321 163.206 604.397 163.397C607.222 162.863 609.97 162.137 612.718 161.298C612.68 161.107 612.641 160.916 612.603 160.763C612.031 158.053 611.535 155.305 611.153 152.519Z" fill="#1AB67E"/>
<path d="M555.58 136.527C557.756 134.695 560.046 132.977 562.374 131.336C562.908 130.954 563.481 130.573 564.015 130.229C566.343 128.664 568.71 127.176 571.153 125.763C571.229 125.725 571.267 125.687 571.343 125.649C570.847 125.153 570.351 124.58 569.855 124.084C569.359 123.588 568.824 123.13 568.328 122.634C566.267 120.763 564.168 118.931 561.992 117.252C559.855 115.611 557.527 114.084 555.198 112.595C554.588 112.214 553.977 111.832 553.328 111.45C552.717 111.107 552.069 110.763 551.458 110.42C551.458 110.496 551.42 110.573 551.382 110.649C550.695 113.397 549.893 116.069 548.977 118.702C548.748 119.313 548.557 119.962 548.328 120.573C547.336 123.282 546.305 125.916 545.084 128.511C544.931 128.855 544.74 129.198 544.588 129.542C543.481 131.87 542.259 134.16 540.962 136.374C540.656 136.87 540.389 137.405 540.084 137.901C538.634 140.305 537.069 142.634 535.427 144.885C535.313 145.038 535.237 145.191 535.122 145.344C537.298 147.176 539.588 148.931 541.916 150.534C542.03 150.382 542.145 150.267 542.259 150.115C544.015 147.939 545.847 145.802 547.794 143.779C548.214 143.359 548.634 142.939 549.053 142.519C550.847 140.687 552.717 138.931 554.664 137.252C554.969 137.061 555.275 136.794 555.58 136.527Z" fill="#1AB67E"/>
<path d="M566.687 43.2824C567.183 42.7863 567.679 42.2901 568.176 41.7557C568.672 41.2595 569.13 40.687 569.588 40.1527C569.511 40.1145 569.435 40.0763 569.359 40C566.878 38.7404 564.473 37.3282 562.107 35.8779C561.534 35.5343 560.962 35.1527 560.389 34.8092C557.985 33.2824 555.618 31.6412 553.405 29.9237C553.061 29.6565 552.756 29.3893 552.45 29.1221C550.466 27.5191 548.519 25.8779 546.687 24.1221C546.229 23.7405 545.771 23.3206 545.313 22.9008C543.29 20.916 541.382 18.8931 539.55 16.7939C539.435 16.6412 539.282 16.5267 539.168 16.374C536.916 18.0916 534.74 19.9237 532.603 21.8702C532.718 22.0229 532.832 22.2137 532.947 22.3664C534.664 24.542 536.305 26.7939 537.832 29.1221C538.176 29.6183 538.519 30.1527 538.863 30.687C540.198 32.8244 541.496 35 542.679 37.2519C542.87 37.6336 543.099 37.9771 543.29 38.3588C544.588 40.8779 545.733 43.4733 546.84 46.1069C547.107 46.7176 547.336 47.3664 547.565 47.9771C548.557 50.5725 549.511 53.2061 550.275 55.916C550.313 55.9924 550.313 56.0687 550.351 56.145C550.962 55.7634 551.611 55.4198 552.183 55.0382C552.756 54.6565 553.366 54.2748 553.939 53.855C556.229 52.2901 558.481 50.6489 560.58 48.8931C562.679 47.1756 564.702 45.2672 566.687 43.2824Z" fill="#1AB67E"/>
<path d="M592.183 157.214C591.954 156.679 591.763 156.107 591.534 155.572C590.542 153.168 589.473 150.802 588.252 148.473C588.061 148.13 587.87 147.786 587.679 147.443C586.534 145.305 585.313 143.244 583.977 141.183C583.71 140.763 583.481 140.382 583.214 139.962C581.763 137.748 580.16 135.611 578.481 133.511C578.328 133.359 578.214 133.168 578.061 133.015C577.87 133.13 577.679 133.206 577.489 133.321C575.122 134.58 572.832 135.954 570.618 137.366C570.237 137.634 569.817 137.901 569.435 138.168C567.412 139.542 565.466 140.954 563.557 142.481C563.252 142.71 562.947 142.939 562.641 143.206C560.618 144.885 558.672 146.641 556.84 148.473C556.42 148.893 556.038 149.275 555.618 149.695C553.786 151.603 551.992 153.511 550.351 155.572L550.313 155.611C564.053 162.824 579.244 165.954 594.702 164.733C594.702 164.695 594.702 164.695 594.702 164.656C594.015 162.176 593.137 159.695 592.183 157.214Z" fill="#1AB67E"/>
<defs>
<clipPath id="clip0">
<rect width="456" height="123" fill="white" transform="translate(0 21)"/>
</clipPath>
</defs>
</svg>
