<?xml version="1.0" encoding="iso-8859-1"?>
<!-- Uploaded to: SVG Repo, www.svgrepo.com, Generator: SVG Repo Mixer Tools -->
<svg fill="#000000" height="800px" width="800px" version="1.1" id="Layer_1" xmlns="http://www.w3.org/2000/svg" xmlns:xlink="http://www.w3.org/1999/xlink" 
	 viewBox="0 0 502.001 502.001" xml:space="preserve">
<g>
	<g>
		<g>
			<path d="M499.072,45.717L456.283,2.928c-3.906-3.904-10.238-3.904-14.143,0l-26.332,26.333c-1.875,1.875-2.929,4.419-2.929,7.071
				c0,2.652,1.054,5.196,2.929,7.071c2.453,2.453,2.453,6.444,0,8.898L232.129,235.979c-25.166,25.167-54.571,44.902-87.397,58.658
				l-17.137,7.181c-13.135,5.504-24.901,13.401-34.971,23.471l-78.788,78.788C4.914,413,0,424.862,0,437.481
				c0,12.617,4.914,24.48,13.836,33.403l17.281,17.281C40.039,497.086,51.901,502,64.519,502c12.618,0,24.481-4.914,33.404-13.837
				l78.788-78.788c10.07-10.07,17.966-21.836,23.471-34.971l7.181-17.136c13.756-32.826,33.491-62.23,58.658-87.397L449.7,86.192
				c2.454-2.452,6.445-2.452,8.898,0c1.875,1.875,4.419,2.929,7.071,2.929c2.652,0,5.196-1.054,7.071-2.929l26.332-26.332
				C502.977,55.954,502.977,49.622,499.072,45.717z M464.282,66.365c-3.168-1.323-6.598-2.016-10.134-2.016
				c-7.023,0-13.625,2.734-18.591,7.7l-183.68,183.678c-27.013,27.014-48.196,58.576-62.962,93.811l-7.18,17.136
				c-4.495,10.727-10.944,20.336-19.167,28.559L83.78,474.021C78.635,479.167,71.795,482,64.519,482s-14.115-2.833-19.26-7.978
				l-17.281-17.281C22.833,451.597,20,444.757,20,437.481s2.833-14.117,7.977-19.261l78.788-78.788
				c8.224-8.224,17.832-14.672,28.558-19.167l17.137-7.181c35.235-14.766,66.797-35.949,93.811-62.962l183.68-183.679
				c4.966-4.966,7.7-11.568,7.7-18.591c0-3.536-0.694-6.966-2.016-10.134l13.576-13.576l28.647,28.647L464.282,66.365z"/>
			<path d="M108.429,353.928l-9.5,9.5c-3.905,3.906-3.905,10.238,0,14.143c1.952,1.953,4.512,2.929,7.071,2.929
				s5.119-0.976,7.072-2.929l9.5-9.5c3.905-3.906,3.905-10.238,0-14.143C118.666,350.023,112.334,350.023,108.429,353.928z"/>
			<path d="M78.929,383.428l-45,45c-3.905,3.906-3.905,10.238,0,14.143c1.952,1.953,4.512,2.929,7.071,2.929
				s5.119-0.976,7.072-2.929l45-45c3.905-3.906,3.905-10.238,0-14.143C89.166,379.523,82.834,379.523,78.929,383.428z"/>
		</g>
	</g>
</g>
</svg>