<?xml version="1.0" encoding="UTF-8"?>
<svg id="Layer_1" data-name="Layer 1" xmlns="http://www.w3.org/2000/svg" xmlns:xlink="http://www.w3.org/1999/xlink" viewBox="0 0 101.7906903 86.4454012">
  <defs>
    <style>
      .cls-1 {
        filter: url(#drop-shadow-2);
      }

      .cls-1, .cls-2, .cls-3 {
        opacity: .9;
      }

      .cls-2 {
        filter: url(#drop-shadow-1);
      }

      .cls-3 {
        filter: url(#drop-shadow-3);
      }
    </style>
    <filter id="drop-shadow-1" filterUnits="userSpaceOnUse">
      <feOffset dx="0" dy="0"/>
      <feGaussianBlur result="blur" stdDeviation="0"/>
      <feFlood flood-color="#000" flood-opacity=".5"/>
      <feComposite in2="blur" operator="in"/>
      <feComposite in="SourceGraphic"/>
    </filter>
    <filter id="drop-shadow-2" filterUnits="userSpaceOnUse">
      <feOffset dx="0" dy="0"/>
      <feGaussianBlur result="blur-2" stdDeviation="0"/>
      <feFlood flood-color="#000" flood-opacity=".5"/>
      <feComposite in2="blur-2" operator="in"/>
      <feComposite in="SourceGraphic"/>
    </filter>
    <filter id="drop-shadow-3" filterUnits="userSpaceOnUse">
      <feOffset dx="0" dy="0"/>
      <feGaussianBlur result="blur-3" stdDeviation="0"/>
      <feFlood flood-color="#000" flood-opacity=".5"/>
      <feComposite in2="blur-3" operator="in"/>
      <feComposite in="SourceGraphic"/>
    </filter>
  </defs>
  <style>
    [data-md-color-scheme="light"] polygon {
      fill: black;
    }

    [data-md-color-scheme="dark"] polygon {
      fill: white;
    }
  </style>
  <polygon class="cls-2" points="0 43.3505245 5.8823766 52.5577693 31.2021714 9.3350893 52.9413892 9.3350893 72.1230519 42.4554269 65.2176533 55.6268732 76.9824065 55.6268732 83.887805 42.7111824 58.5680102 0 25.8313058 0 0 43.3505245"/>
  <polygon class="cls-1" points="49.4886899 15.0895881 54.7316777 24.5525417 40.2814918 24.5525417 21.099829 58.312293 31.0742936 76.5987866 81.841761 76.5987866 76.4708955 86.4454012 26.2149391 86.4454012 9.5908314 58.312293 35.0385039 15.0895881 49.4886899 15.0895881"/>
  <polygon class="cls-3" points="33.3334672 48.3378035 27.4937166 58.312293 34.3991152 70.8442878 85.5502158 70.8442878 101.7906903 43.3505245 76.9824065 0 65.4734088 0 90.4095704 43.3505245 79.795717 61.8375072 40.9224489 61.8375072 33.3334672 48.3378035"/>
</svg>