<?xml version="1.0" encoding="utf-8"?>
<!-- Generator: Adobe Illustrator 24.1.3, SVG Export Plug-In . SVG Version: 6.00 Build 0)  -->
<svg version="1.1" id="Layer_1" xmlns="http://www.w3.org/2000/svg" xmlns:xlink="http://www.w3.org/1999/xlink" x="0px" y="0px"
	 viewBox="0 0 200 200" style="enable-background:new 0 0 200 200;" xml:space="preserve">
<g>
	<path style="fill:#FFFFFF;" d="M161.6,91h-49.8c-0.4,0-0.8-0.3-0.8-0.8V40.4c0-2.4-2-4.4-4.4-4.4H93.4C91,36,89,38,89,40.4v49.8
		c0,0.4-0.3,0.8-0.8,0.8H38.4C36,91,34,93,34,95.4v13.1c0,2.4,2,4.4,4.4,4.4h49.8c0.4,0,0.8,0.3,0.8,0.8v49.8c0,2.4,2,4.4,4.4,4.4
		h13.1c2.4,0,4.4-2,4.4-4.4v-49.8c0-0.4,0.3-0.8,0.8-0.8h49.8c2.4,0,4.4-2,4.4-4.4V95.4C166,93,164,91,161.6,91z"/>
</g>
</svg>
