<?xml version="1.0" encoding="utf-8"?>
<!-- Generator: Adobe Illustrator 24.1.3, SVG Export Plug-In . SVG Version: 6.00 Build 0)  -->
<svg version="1.1" id="Layer_1" xmlns="http://www.w3.org/2000/svg" xmlns:xlink="http://www.w3.org/1999/xlink" x="0px" y="0px"
	 width="89.5px" height="25px" viewBox="0 0 89.5 25" style="enable-background:new 0 0 89.5 25;" xml:space="preserve">
<style type="text/css">
	.st0{fill:#FFFFFF;}
</style>
<g>
	<g>
		<g>
			<path class="st0" d="M40.5,6.2c-0.7,0-1.2,0.5-1.2,1.2v10.6c0,0.7,0.6,1.2,1.2,1.2c0.7,0,1.2-0.5,1.2-1.2V7.5
				C41.7,6.8,41.2,6.2,40.5,6.2z"/>
			<path class="st0" d="M72.3,7.3C72,7.1,71.7,7,71.4,7.1c-0.3,0-0.6,0.2-0.8,0.5c-0.2,0.3-0.3,0.6-0.3,0.9c0,0.3,0.1,0.5,0.3,0.7
				c0,0,0,0,0,0c0,0,0.1,0.1,0.1,0.1c0,0,0,0,0,0c1.2,1,1.8,2.4,1.6,4c-0.2,1.9-1.7,3.4-3.5,3.8c-0.1,0-0.1,0-0.2,0c0,0-0.1,0-0.1,0
				c0,0-0.1,0-0.1,0c-0.1,0-0.3,0-0.4,0c-0.3,0-0.7,0-1-0.1c0,0,0,0,0,0c0,0-0.1,0-0.1,0c-0.1,0-0.1,0-0.2-0.1
				c-1.6-0.5-2.8-1.8-3-3.5c-0.2-1.5,0.3-3,1.5-4c0,0,0.1-0.1,0.1-0.1c0,0,0,0,0,0c0,0,0,0,0,0c0.2-0.2,0.3-0.4,0.3-0.7
				c0-0.3-0.1-0.7-0.3-0.9c-0.4-0.5-1.2-0.6-1.8-0.2c-1.8,1.5-2.7,3.9-2.4,6.3c0.4,2.8,2.4,4.9,4.9,5.6c0,0,0,0,0,0c0,0,0,0,0,0
				c0.6,0.2,1.2,0.3,1.9,0.3c0.3,0,0.6,0,0.8-0.1c3.1-0.4,5.6-2.8,6-6C75.1,11.2,74.2,8.8,72.3,7.3z"/>
			<path class="st0" d="M68,10.3c0.7,0,1.3-0.6,1.3-1.3V5.7c0-0.7-0.6-1.3-1.3-1.3c-0.7,0-1.3,0.6-1.3,1.3v3.3
				C66.8,9.7,67.3,10.3,68,10.3z"/>
			<path class="st0" d="M36.4,13.8c-0.2-0.5-0.5-0.9-0.8-1.2c-0.4-0.4-0.8-0.7-1.3-0.9c-0.5-0.2-1-0.3-1.6-0.3l0,0c0,0,0,0-0.1,0
				c0,0-2.3,0-2.5,0c-0.8,0-1.5-0.6-1.5-1.3c0-0.7,0.7-1.3,1.5-1.3c0.2,0,4.6,0,4.6,0c0.7,0,1.2-0.5,1.2-1.2v0
				c0-0.7-0.6-1.2-1.2-1.2c0,0-4.4,0-4.6,0c-2.2,0-3.9,1.7-3.9,3.7c0,1.9,1.5,3.5,3.6,3.7c0.1,0,0.3,0,0.4,0c0.1,0,2.5,0,2.5,0
				c0.1,0,0.2,0,0.4,0c0.7,0.2,1.3,0.8,1.3,1.5c0,0.1,0,0.2,0,0.3c0,0.3-0.1,0.4-0.1,0.4c-0.1,0.2-0.2,0.3-0.3,0.4
				c-0.1,0.1-0.3,0.2-0.5,0.3c-0.2,0.1-0.4,0.1-0.7,0.1h-5.2c-0.7,0-1.2,0.5-1.2,1.2c0,0.7,0.6,1.2,1.2,1.2h5.2
				c0.6,0,1.1-0.1,1.6-0.3c0.5-0.2,0.9-0.5,1.3-0.8c0.4-0.4,0.7-0.8,0.9-1.2c0.1-0.2,0.1-0.4,0.2-0.6c0.1-0.3,0.1-0.7,0.1-1
				c0-0.1,0-0.3,0-0.4C36.6,14.5,36.5,14.1,36.4,13.8z"/>
			<path class="st0" d="M57.5,6.2c-0.4,0-0.7,0.2-1,0.4c0,0,0,0-0.1,0.1l-4.7,5.2L47,6.7c0,0-0.1-0.1-0.1-0.1
				c-0.2-0.3-0.6-0.4-0.9-0.4c-0.7,0-1.2,0.5-1.2,1.2c0,0,0,0.1,0,0.1v10.6c0,0.7,0.5,1.2,1.2,1.2c0,0,0,0,0.1,0
				c0.3,0,0.7-0.1,0.9-0.4c0.2-0.2,0.3-0.5,0.3-0.8v-7.5l3.5,3.9c0.2,0.3,0.6,0.4,0.9,0.4c0.4,0,0.7-0.2,0.9-0.4l3.6-4l0,7.5
				c0,0.7,0.6,1.2,1.2,1.2h0c0.7,0,1.2-0.5,1.2-1.2V7.4c0,0,0,0,0,0c0,0,0,0,0,0C58.7,6.7,58.1,6.2,57.5,6.2z"/>
			<path class="st0" d="M40.5,6.2c-0.7,0-1.2,0.5-1.2,1.2v10.6c0,0.7,0.6,1.2,1.2,1.2c0.7,0,1.2-0.5,1.2-1.2V7.5
				C41.7,6.8,41.2,6.2,40.5,6.2z"/>
			<path class="st0" d="M72.3,7.3C72,7.1,71.7,7,71.4,7.1c-0.3,0-0.6,0.2-0.8,0.5c-0.2,0.3-0.3,0.6-0.3,0.9c0,0.3,0.1,0.5,0.3,0.7
				c0,0,0,0,0,0c0,0,0.1,0.1,0.1,0.1c0,0,0,0,0,0c1.2,1,1.8,2.4,1.6,4c-0.2,1.9-1.7,3.4-3.5,3.8c-0.1,0-0.1,0-0.2,0c0,0-0.1,0-0.1,0
				c0,0-0.1,0-0.1,0c-0.1,0-0.3,0-0.4,0c-0.3,0-0.7,0-1-0.1c0,0,0,0,0,0c0,0-0.1,0-0.1,0c-0.1,0-0.1,0-0.2-0.1
				c-1.6-0.5-2.8-1.8-3-3.5c-0.2-1.5,0.3-3,1.5-4c0,0,0.1-0.1,0.1-0.1c0,0,0,0,0,0c0,0,0,0,0,0c0.2-0.2,0.3-0.4,0.3-0.7
				c0-0.3-0.1-0.7-0.3-0.9c-0.4-0.5-1.2-0.6-1.8-0.2c-1.8,1.5-2.7,3.9-2.4,6.3c0.4,2.8,2.4,4.9,4.9,5.6c0,0,0,0,0,0c0,0,0,0,0,0
				c0.6,0.2,1.2,0.3,1.9,0.3c0.3,0,0.6,0,0.8-0.1c3.1-0.4,5.6-2.8,6-6C75.1,11.2,74.2,8.8,72.3,7.3z"/>
			<path class="st0" d="M68,10.3c0.7,0,1.3-0.6,1.3-1.3V5.7c0-0.7-0.6-1.3-1.3-1.3c-0.7,0-1.3,0.6-1.3,1.3v3.3
				C66.8,9.7,67.3,10.3,68,10.3z"/>
			<path class="st0" d="M36.4,13.8c-0.2-0.5-0.5-0.9-0.8-1.2c-0.4-0.4-0.8-0.7-1.3-0.9c-0.5-0.2-1-0.3-1.6-0.3l0,0c0,0,0,0-0.1,0
				c0,0-2.3,0-2.5,0c-0.8,0-1.5-0.6-1.5-1.3c0-0.7,0.7-1.3,1.5-1.3c0.2,0,4.6,0,4.6,0c0.7,0,1.2-0.5,1.2-1.2v0
				c0-0.7-0.6-1.2-1.2-1.2c0,0-4.4,0-4.6,0c-2.2,0-3.9,1.7-3.9,3.7c0,1.9,1.5,3.5,3.6,3.7c0.1,0,0.3,0,0.4,0c0.1,0,2.5,0,2.5,0
				c0.1,0,0.2,0,0.4,0c0.7,0.2,1.3,0.8,1.3,1.5c0,0.1,0,0.2,0,0.3c0,0.3-0.1,0.4-0.1,0.4c-0.1,0.2-0.2,0.3-0.3,0.4
				c-0.1,0.1-0.3,0.2-0.5,0.3c-0.2,0.1-0.4,0.1-0.7,0.1h-5.2c-0.7,0-1.2,0.5-1.2,1.2c0,0.7,0.6,1.2,1.2,1.2h5.2
				c0.6,0,1.1-0.1,1.6-0.3c0.5-0.2,0.9-0.5,1.3-0.8c0.4-0.4,0.7-0.8,0.9-1.2c0.1-0.2,0.1-0.4,0.2-0.6c0.1-0.3,0.1-0.7,0.1-1
				c0-0.1,0-0.3,0-0.4C36.6,14.5,36.5,14.1,36.4,13.8z"/>
			<path class="st0" d="M57.5,6.2c-0.4,0-0.7,0.2-1,0.4c0,0,0,0-0.1,0.1l-4.7,5.2L47,6.7c0,0-0.1-0.1-0.1-0.1
				c-0.2-0.3-0.6-0.4-0.9-0.4c-0.7,0-1.2,0.5-1.2,1.2c0,0,0,0.1,0,0.1v10.6c0,0.7,0.5,1.2,1.2,1.2c0,0,0,0,0.1,0
				c0.3,0,0.7-0.1,0.9-0.4c0.2-0.2,0.3-0.5,0.3-0.8v-7.5l3.5,3.9c0.2,0.3,0.6,0.4,0.9,0.4c0.4,0,0.7-0.2,0.9-0.4l3.6-4l0,7.5
				c0,0.7,0.6,1.2,1.2,1.2h0c0.7,0,1.2-0.5,1.2-1.2V7.4c0,0,0,0,0,0c0,0,0,0,0,0C58.7,6.7,58.1,6.2,57.5,6.2z"/>
		</g>
		<g>
			<g>
				<path class="st0" d="M21.1,10c-1.3,0.7-3,0.3-3.7-1c0,0,0,0,0,0c0,0,0,0,0,0c0-0.1-0.1-0.2-0.1-0.2c0,0,0,0,0,0
					c-1-1.9-3-3.2-5.4-3.2c-0.1,0-0.2,0-0.3,0c-0.1,0-0.1,0-0.2,0c0,0-0.1,0-0.1,0c-1.5,0-2.7-1.2-2.7-2.7S9.7,0,11.2,0
					c1,0,1.9,0.6,2.4,1.5c0,0,0,0.1,0.1,0.1c1,2,3,3.3,5.4,3.3c0.1,0,0.2,0,0.3,0c0.1,0,0.1,0,0.2,0c1,0,1.9,0.5,2.5,1.4
					C22.8,7.6,22.4,9.2,21.1,10z"/>
			</g>
			<g>
				<circle class="st0" cx="19.7" cy="17.4" r="2.7"/>
			</g>
			<g>
				<circle class="st0" cx="11.2" cy="22.3" r="2.7"/>
			</g>
			<g>
				<path class="st0" d="M11.6,16.2c0.5-0.1,1.1-0.2,1.5-0.5c0.4-0.3,0.8-0.6,1.1-1c0,0,0,0,0,0c0,0,0,0,0,0
					c0.3-0.4,0.5-0.8,0.6-1.2c0.1-0.4,0.2-0.9,0.1-1.4c-0.1-0.5-0.2-1-0.5-1.5c-0.3-0.4-0.6-0.8-1.1-1.2C13,9.2,12.6,9,12.2,8.9
					c-0.4-0.1-0.9-0.2-1.4-0.1c-0.3,0-0.5,0.1-0.8,0.2c0,0,0,0-0.1,0C9.7,9.1,9.3,9.1,8.9,9.1c-1.6,0-3-1-3.5-2.4
					c0-0.1,0-0.1-0.1-0.2C5.1,6,4.7,5.5,4.2,5.2c-1.3-0.8-2.9-0.3-3.7,1s-0.3,2.9,1,3.7c0.6,0.3,1.2,0.4,1.8,0.3c0,0,0.1,0,0.1,0
					c0.2,0,0.4,0,0.6,0c1.4,0,2.8,1,3.4,2.3c-0.1,0.1-0.1,0.3-0.2,0.4c-0.8,1.4-2.4,2.1-3.9,1.8c-0.1,0-0.1,0-0.2,0
					c-0.6-0.1-1.2,0-1.8,0.3c-1.3,0.7-1.8,2.4-1,3.7c0.7,1.3,2.4,1.8,3.7,1c0.6-0.3,1-0.8,1.2-1.4c0,0,0-0.1,0-0.1
					c0.1-0.2,0.2-0.4,0.2-0.5c0.8-1.4,2.8-2.2,4.5-1.7c0.1,0,0.2,0.1,0.3,0.1c0,0,0,0,0,0c0,0,0,0,0,0c0,0,0,0,0,0c0,0,0,0,0,0
					C10.7,16.2,11.1,16.3,11.6,16.2C11.6,16.2,11.6,16.2,11.6,16.2C11.6,16.2,11.6,16.2,11.6,16.2z"/>
			</g>
		</g>
	</g>
	<g>
		<g>
			<path class="st0" d="M76,17.5c-0.5,0-1,0.4-1,1c0,0.5,0.4,1,1,1s1-0.4,1-1C76.9,18,76.5,17.5,76,17.5z"/>
		</g>
		<g>
			<path class="st0" d="M79.6,12.5c-0.5,0-0.9,0.4-0.9,0.9v5.2c0,0.5,0.4,0.9,0.9,0.9c0.5,0,0.9-0.4,0.9-0.9v-5.2
				C80.6,12.9,80.1,12.5,79.6,12.5z"/>
		</g>
		<g>
			<path class="st0" d="M79.6,9.1c-0.5,0-1,0.4-1,1c0,0.5,0.4,1,1,1s1-0.4,1-1C80.6,9.5,80.2,9.1,79.6,9.1z"/>
		</g>
		<g>
			<path class="st0" d="M85.8,12.3C83.7,12.3,82,14,82,16c0,2.1,1.7,3.8,3.8,3.8c2.1,0,3.8-1.7,3.8-3.8C89.5,14,87.8,12.3,85.8,12.3
				z M85.7,18.1c-0.5,0-1.1-0.2-1.5-0.6c-0.5-0.5-0.7-1.2-0.6-1.9c0.2-0.8,0.8-1.5,1.6-1.6c0.1,0,0.3,0,0.4,0c0.6,0,1.1,0.2,1.5,0.6
				c0.5,0.5,0.7,1.2,0.6,1.9l0,0c-0.2,0.8-0.8,1.5-1.6,1.6C86,18.1,85.9,18.1,85.7,18.1z"/>
		</g>
	</g>
</g>
</svg>
