<?xml version="1.0" encoding="UTF-8" standalone="no"?>
<!-- Created with Inkscape (http://www.inkscape.org/) -->

<svg
   version="1.1"
   id="svg150"
   width="459.75021"
   height="219.01848"
   viewBox="0 0 459.75022 219.01848"
   sodipodi:docname="lino-web.svg"
   inkscape:version="1.1.2 (0a00cf5339, 2022-02-04)"
   inkscape:export-filename="/home/luc/work/lino/lino/sphinxcontrib/logo/static/lino-web.png"
   inkscape:export-xdpi="96"
   inkscape:export-ydpi="96"
   xmlns:inkscape="http://www.inkscape.org/namespaces/inkscape"
   xmlns:sodipodi="http://sodipodi.sourceforge.net/DTD/sodipodi-0.dtd"
   xmlns="http://www.w3.org/2000/svg"
   xmlns:svg="http://www.w3.org/2000/svg"
   xmlns:rdf="http://www.w3.org/1999/02/22-rdf-syntax-ns#"
   xmlns:cc="http://creativecommons.org/ns#"
   xmlns:dc="http://purl.org/dc/elements/1.1/">
  <metadata
     id="metadata156">
    <rdf:RDF>
      <cc:Work
         rdf:about="">
        <dc:format>image/svg+xml</dc:format>
        <dc:type
           rdf:resource="http://purl.org/dc/dcmitype/StillImage" />
        <dc:title />
      </cc:Work>
    </rdf:RDF>
  </metadata>
  <defs
     id="defs154" />
  <sodipodi:namedview
     pagecolor="#ffffff"
     bordercolor="#666666"
     borderopacity="1"
     objecttolerance="10"
     gridtolerance="10"
     guidetolerance="10"
     inkscape:pageopacity="0"
     inkscape:pageshadow="2"
     inkscape:window-width="1850"
     inkscape:window-height="1009"
     id="namedview152"
     showgrid="false"
     inkscape:zoom="2.4494985"
     inkscape:cx="229.84296"
     inkscape:cy="109.61427"
     inkscape:window-x="0"
     inkscape:window-y="0"
     inkscape:window-maximized="1"
     inkscape:current-layer="svg150"
     inkscape:pagecheckerboard="0" />
  <g
     id="g160"
     transform="scale(0.2)">
    <path
       style="fill:#fefefe;stroke-width:1.33333337"
       d="M 0,430.66665 V 0 H 451.33334 902.66669 V 430.66665 861.33331 H 451.33334 0 Z"
       id="path176"
       inkscape:connector-curvature="0" />
    <path
       style="fill:#d0d0d0;stroke-width:1.33333337"
       d="m 413.33334,833.74951 c -23.87173,-2.50839 -53.1579,-8.37871 -74,-14.83305 -15.59178,-4.82844 -16.01738,-6.5889 -3.66053,-15.14132 26.55051,-18.37616 49.04819,-46.35633 68.42151,-85.09524 10.9931,-21.98185 22.53104,-52.20289 27.90722,-73.09678 1.0995,-4.27307 2.05999,-5.63846 3.73902,-5.31518 2.09406,0.40319 2.28636,7.31454 2.62698,94.41687 0.20215,51.69001 0.0407,95.33183 -0.35873,96.98183 -0.67633,2.7937 -1.38927,2.98532 -10.36753,2.78662 -5.3027,-0.11734 -11.74127,-0.43404 -14.30794,-0.70375 z m 48.8889,0.0283 c -1.35904,-1.35903 -1.06899,-193.50909 0.29336,-194.35106 2.01765,-1.24699 3.69183,2.1241 7.44217,14.98541 12.43254,42.63578 33.6698,85.67941 55.96523,113.43017 9.49615,11.81969 27.35648,28.88321 38.41035,36.69673 4.95,3.49895 9,6.83559 9,7.41475 0,2.76072 -10.25159,6.65433 -31.57375,11.99186 -30.03749,7.51924 -76.15,13.21951 -79.53736,9.83214 z m -186.8889,-41.49925 c -26.04577,-13.49776 -64.66667,-39.57718 -64.66667,-43.66726 0,-2.57993 1.17528,-3.03036 12.13722,-4.6516 62.30766,-9.21509 106.88661,-31.0077 148.05759,-72.37857 12.75629,-12.81822 22.16134,-24.21298 32.03276,-38.8095 3.92849,-5.80894 7.97758,-10.84 8.99797,-11.18012 6.59661,-2.19888 -9.61883,48.86578 -26.48196,83.39537 -18.55789,37.99982 -36.48783,61.2082 -61.55552,79.67704 -7.26508,5.3526 -27.78191,16.70601 -30.05832,16.63337 -0.62135,-0.0199 -8.92974,-4.07825 -18.46307,-9.01873 z m 318.00001,3.57366 c -22.16198,-12.06412 -44.9213,-33.35148 -60.02912,-56.14676 -9.77102,-14.74288 -27.24026,-49.81106 -33.99447,-68.24127 -6.73244,-18.37082 -14.41305,-45.73647 -13.5026,-48.10908 1.17764,-3.06887 3.83415,-1.23402 8.19592,5.66093 18.01919,28.48407 46.46711,57.21957 76.29847,77.06976 28.29183,18.82577 65.41459,32.03736 106.69847,37.97282 13.58581,1.95327 14.2478,3.95932 4,12.12123 -18.14986,14.45552 -69.89616,45.20152 -75.96295,45.13473 -0.93704,-0.0107 -6.20372,-2.46837 -11.70372,-5.46236 z M 171.17916,712.99998 c -20.11248,-20.881 -40.14536,-47.22561 -38.72524,-50.92636 0.68333,-1.78073 4.6154,-2.07637 27.83758,-2.093 106.82111,-0.0764 179.6468,-15.95648 219.58448,-47.88149 4.65516,-3.7212 8.98744,-6.76581 9.62731,-6.76581 5.10244,0 -8.72623,22.06048 -25.49199,40.66666 -33.92813,37.65251 -71.7938,60.06033 -120.52203,71.32148 -11.62632,2.68685 -49.29656,8.01185 -56.67764,8.01185 -2.98852,0 -6.17301,-2.51242 -15.63247,-12.33333 z m 519.48752,10.21245 c -49.5515,-6.53588 -84.0427,-18.89702 -115.98409,-41.56705 -22.56819,-16.0175 -54.70872,-50.72322 -64.18195,-69.30441 -3.59157,-7.04467 -1.16804,-8.59327 5.14752,-3.2892 8.67883,7.28883 23.24259,16.55859 33.35799,21.23219 42.58236,19.67426 106.54164,29.63636 190.66054,29.69666 l 27,0.0194 v 3.0247 c 0,5.04361 -33.01388,46.72781 -46.12732,58.24155 -5.35806,4.70446 -7.76983,4.86158 -29.87269,1.9462 z M 113.47279,633.87444 c -7.773,-9.88178 -27.4021,-55.76079 -35.339851,-82.59971 C 31.374862,393.17755 81.739254,220.75995 204.66667,118.09882 237.80259,90.425811 268.91922,71.47517 306.43415,56.120405 351.4985,37.675683 389.61828,29.684954 438.66668,28.401613 c 39.41448,-1.031272 67.26728,1.808501 101.4778,10.346321 109.3413,27.287984 201.54306,101.826826 253.71183,205.108736 51.08629,101.13883 58.86785,216.49917 21.85471,323.99247 -9.43591,27.40368 -26.20164,63.48696 -31.51075,67.81751 -1.53096,1.24879 -11.75772,1.66401 -40.78842,1.65609 -87.82913,-0.024 -146.79726,-9.09865 -186.74517,-28.73842 -23.26301,-11.4369 -36.45004,-24.22394 -46.66651,-45.251 -16.58016,-34.12455 -22.3646,-93.94552 -12.56466,-129.93991 6.33321,-23.26137 21.90688,-43.08907 41.23117,-52.49369 30.77815,-14.9789 82.77414,-19.59346 124.66667,-11.06394 19.13405,3.89577 30.08849,7.44054 31.41067,10.16421 0.53397,1.1 1.68516,5.9 2.55818,10.66667 3.94574,21.54341 21.85033,40.40858 42.97594,45.28161 15.20041,3.50626 33.7838,0.26533 45.77169,-7.98255 16.6469,-11.45337 25.8601,-28.7518 25.90178,-48.6324 0.0703,-33.5032 -28.60003,-60.167 -61.95159,-57.61597 -20.12345,1.53921 -34.73372,10.86476 -47.49787,30.31724 l -2.16453,3.29873 -9.1688,-2.35002 c -49.72506,-12.74486 -90.91476,-13.45038 -134.76214,-2.30828 -21.56601,5.48016 -36.95139,13.22946 -50.14672,25.25793 -9.48869,8.6496 -12.92661,10.37193 -12.92661,6.47595 0,-2.82362 11.77914,-26.23132 17.3974,-34.57239 22.8119,-33.86741 64.37884,-59.1282 117.26927,-71.26613 20.09233,-4.61104 21.25068,-4.48273 26.7522,2.96329 13.80501,18.68443 40.39904,27.58944 62.67247,20.98591 11.06029,-3.27912 16.54285,-6.54508 24.72864,-14.73087 22.62733,-22.62733 22.93432,-59.24077 0.68326,-81.49182 -8.52373,-8.52374 -15.84576,-12.88635 -26.1167,-15.5609 -35.27538,-9.18565 -68.30354,13.47171 -73.15014,50.18107 -1.64035,12.42445 -0.33015,11.43288 -20.90307,15.81979 -28.82473,6.14649 -61.04505,19.29076 -83.47873,34.05512 -14.38532,9.46745 -38.46808,33.17149 -47.8546,47.10203 -3.66667,5.4417 -7.41667,10.1417 -8.33334,10.44444 -3.09226,1.02126 -1.77809,-7.38244 3.75752,-24.02797 13.37471,-40.2176 38.19036,-78.24392 69.51783,-106.5258 16.31855,-14.7321 16.50504,-14.82773 25.25642,-12.95089 11.71289,2.51196 27.8879,0.81289 37.55078,-3.94445 25.49163,-12.55032 38.68771,-39.28956 32.28456,-65.4182 -9.99582,-40.788833 -55.50408,-58.380427 -90.00244,-34.79119 -17.79511,12.1679 -27.73068,35.35336 -24.04037,56.10007 1.71304,9.63059 6.17442,20.32593 11.25973,26.99312 1.87879,2.46321 3.41597,5.12328 3.41597,5.91125 0,0.78797 -4.8977,5.83133 -10.88377,11.20748 -30.09144,27.02533 -58.34612,68.07963 -71.63951,104.09284 -2.29234,6.21024 -4.3844,9.82024 -5.85508,10.10346 -2.1398,0.4121 -2.2883,-4.31985 -2.2883,-72.91171 0,-57.22831 0.36636,-73.58516 1.66666,-74.41128 0.91667,-0.58237 4.53339,-2.07896 8.03718,-3.32575 7.86676,-2.7993 18.21146,-10.26528 23.53289,-16.98412 25.66,-32.39839 12.16992,-79.004794 -26.68063,-92.178029 -7.17578,-2.433126 -10.64613,-2.803247 -21.51141,-2.294251 -11.30315,0.529509 -14.10878,1.174689 -22,5.059104 -11.81796,5.817322 -21.42403,15.514166 -27.05303,27.308654 -3.80711,7.977101 -4.51093,11.055407 -5.02161,21.963302 -0.4951,10.57467 -0.11107,14.10986 2.30721,21.24202 5.00216,14.75236 14.74277,26.14383 28.5248,33.35923 4.29113,2.24657 8.59827,4.08467 9.57143,4.08467 0.97314,0 2.71222,0.94285 3.8646,2.09524 1.8529,1.8529 2.09524,10.40265 2.09524,73.9213 0,84.42305 -0.0147,84.49746 -11.24159,56.94952 -14.44659,-35.44825 -34.55404,-64.45236 -64.72588,-93.3642 -8.08456,-7.74695 -14.6992,-15.0666 -14.6992,-16.26591 0,-1.1993 1.47611,-4.11583 3.28025,-6.48117 13.43259,-17.61104 15.03435,-44.4764 3.77178,-63.26172 -12.34319,-20.587712 -32.0635,-30.923688 -55.56241,-29.121818 -39.80274,3.052028 -64.52392,46.325358 -47.34412,82.873798 3.45826,7.35712 12.85656,18.04823 20.47135,23.28735 12.03136,8.27779 30.56744,11.48838 45.90877,7.95175 5.31794,-1.22593 6.3645,-1.02124 11.33334,2.21665 7.91183,5.15564 37.70391,35.49016 46.35521,47.1992 16.72126,22.63127 30.54343,50.23012 38.67218,77.21708 6.48341,21.52452 4.21248,23.26648 -7.62092,5.84579 -26.1793,-38.54016 -67.91216,-64.71603 -126.50274,-79.34559 -11.78615,-2.94289 -22.09245,-5.88453 -22.90289,-6.53697 -0.81044,-0.65244 -1.83026,-5.44127 -2.26626,-10.64183 -2.26464,-27.01268 -25.05738,-49.29536 -52.59597,-51.41898 -17.88315,-1.37906 -31.30938,3.26892 -44.64243,15.45458 -24.22635,22.14151 -24.31937,61.3103 -0.19979,84.12159 17.42686,16.4816 43.56617,20.65641 65.31743,10.43212 6.89147,-3.23937 20.2677,-14.99348 23.11314,-20.31024 1.01257,-1.89201 2.88745,-3.77215 4.16638,-4.17807 2.90171,-0.92096 35.49142,7.20778 51.37914,12.81532 14.91384,5.2638 35.65513,15.62516 47.84041,23.89877 21.12667,14.34467 37.52215,33.30072 48.89244,56.52823 8.6174,17.60384 8.78303,24.18859 0.38516,15.31233 -10.97788,-11.60324 -27.84912,-21.95169 -43.91612,-26.93718 -20.46478,-6.3501 -34.97837,-8.16067 -65.33333,-8.15036 -31.59811,0.0107 -52.62366,2.62536 -86.8749,10.80336 -2.32788,0.55582 -3.7556,-0.67051 -7.50352,-6.4451 -6.41416,-9.88258 -14.36364,-17.43096 -23.33867,-22.16101 -35.31368,-18.6112 -76.508446,1.88587 -84.495004,42.04175 -4.760301,23.93446 9.164195,50.10776 32.850714,61.74813 8.96418,4.4053 9.86843,4.57294 24.66667,4.57293 14.63486,-10e-6 15.78164,-0.20561 24.24766,-4.34717 16.23266,-7.94099 28.66658,-23.09347 31.84347,-38.80575 2.47984,-12.2648 3.111,-13.16353 10.87663,-15.48756 13.73204,-4.10958 46.89363,-8.75549 68.39361,-9.58188 61.07251,-2.34744 97.11754,12.32475 113.83462,46.33655 9.66552,19.66504 11.35689,28.49166 11.3476,59.21916 -0.012,40.04018 -4.88529,65.67466 -17.26232,90.80505 -12.72519,25.83732 -33.44911,41.5208 -71.20396,53.88585 -38.92347,12.74779 -89.21567,18.56413 -160.9525,18.61429 l -40.23656,0.0281 z"
       id="path174"
       inkscape:connector-curvature="0" />
    <path
       style="fill:#bdbdbd;stroke-width:1.33333337"
       d="m 425.33334,833.78118 c -13.41749,-0.9383 -32.12004,-3.39067 -45.33333,-5.94436 -28.04972,-5.42107 -52,-12.42598 -52,-15.2088 0,-1.0325 3.45,-4.40698 7.66667,-7.49886 12.87245,-9.43874 22.94034,-18.62277 32.66337,-29.79585 23.62073,-27.14342 45.60531,-69.01085 59.68209,-113.65855 3.49491,-11.08491 6.68176,-18.99526 7.65454,-19 1.31774,-0.007 1.66666,19.8004 1.66666,94.61165 0,92.18315 -0.0664,94.65529 -2.57901,95.99999 -1.41845,0.75914 -2.76845,1.27542 -3,1.1473 -0.23155,-0.12812 -3.12099,-0.42175 -6.42099,-0.65252 z m 37.97141,-1.33362 c -1.70146,-1.70145 -1.96891,-14.41917 -1.9532,-92.87615 0.0107,-49.99762 0.38,-92.25476 0.82218,-93.90476 0.44218,-1.65 1.31652,-3 1.94298,-3 0.62646,0 3.0375,6.15 5.35789,13.66667 12.94161,41.92319 33.08365,82.93273 53.86903,109.67823 9.74944,12.54506 29.12356,31.33998 40.61492,39.40069 4.46445,3.13164 7.91497,6.34502 7.6678,7.14082 -1.23064,3.96236 -45.78475,15.23989 -73.62634,18.63629 -26.80662,3.27013 -32.47769,3.47579 -34.69526,1.25821 z M 276.66667,792.24965 c -26.37742,-13.82588 -64.66666,-39.64811 -64.66666,-43.61114 0,-1.87724 1.9965,-2.43904 16.66666,-4.68988 46.87362,-7.19182 85.16776,-23.4573 119.46665,-50.74358 16.8227,-13.38322 41.90174,-39.96105 52.52276,-55.66169 5.03893,-7.44886 9.65269,-13.54338 10.25281,-13.54338 1.94604,0 1.16321,6.11912 -2.32635,18.18418 -19.77884,68.38485 -50.74214,118.51005 -89.24591,144.47647 -11.20222,7.55463 -22.36364,13.35101 -25.62564,13.30799 -1.3077,-0.0172 -8.97765,-3.49077 -17.04432,-7.71897 z m 318.91704,3.71952 c -33.2747,-16.84984 -60.8199,-48.41806 -82.88806,-94.99399 -8.43469,-17.80187 -17.73433,-43.0793 -22.80274,-61.98038 -5.09035,-18.98288 -3.5475,-19.85638 7.00986,-3.96867 19.33507,29.09721 51.9055,59.76233 82.43058,77.60856 26.80691,15.67241 58.47591,26.46193 92,31.34408 5.86667,0.85437 12.09075,2.12954 13.83131,2.83373 3.0803,1.24623 3.09989,1.35187 0.73524,3.96477 -3.28715,3.63227 -25.3788,19.40611 -38.90683,27.78019 -14.20515,8.79323 -38.79761,21.45782 -41.53424,21.38926 -1.16901,-0.0293 -5.61281,-1.81918 -9.87512,-3.97755 z M 175.75002,716.99998 c -16.54259,-17.11397 -42.41668,-49.90856 -42.41668,-53.7618 0,-1.56929 3.69953,-1.90909 21,-1.92884 109.3306,-0.1248 182.35939,-15.37732 223.79703,-46.74136 13.88508,-10.50958 14.52428,-9.03842 3.33597,7.67796 -26.3686,39.39719 -69.71585,72.98905 -112.133,86.89725 -22.81009,7.47923 -62.96549,14.85679 -80.86418,14.85679 -5.43312,0 -6.54361,-0.61116 -12.71914,-7 z m 512.25,4.87159 c -53.02226,-7.02215 -88.26254,-20.98136 -122.45555,-48.50649 -20.93374,-16.85151 -44.26168,-42.91763 -52.81931,-59.0191 -3.2188,-6.05625 -1.88424,-7.80665 2.96335,-3.88674 42.3606,34.25414 117.20256,50.82372 229.75595,50.86666 10.69445,0.004 19.82333,0.38631 20.28643,0.84939 1.20704,1.20705 -1.0724,5.05311 -10.16904,17.15802 -9.37804,12.47939 -19.70714,24.68348 -30.75119,36.33334 l -7.89999,8.33333 -7.45533,-0.13713 c -4.10043,-0.0754 -13.75532,-0.97151 -21.45532,-1.99128 z M 114.25537,633.61549 c -3.51215,-3.88088 -20.280009,-39.67637 -26.67683,-56.94884 -17.716852,-47.83841 -25.292633,-90.78145 -25.403705,-144 -0.06743,-32.3065 0.982128,-45.3893 5.936581,-73.99999 C 95.874462,198.34225 217.61346,69.166999 371.38537,36.867655 c 99.16344,-20.828993 201.68819,-1.38506 285.5999,54.164343 100.70638,66.667442 165.5167,174.327612 178.31632,296.211502 2.33226,22.20881 2.65214,61.34091 0.67648,82.75649 -4.90817,53.20342 -20.61802,106.69774 -45.02986,153.33333 l -6.28152,12 -43.33334,0.37449 c -70.17257,0.60644 -118.82263,-4.81832 -159.37457,-17.77117 -15.16925,-4.84527 -38.60287,-16.75179 -48.00914,-24.39322 -25.93161,-21.06622 -39.50073,-61.61318 -39.78235,-118.87677 -0.10573,-21.49694 0.26791,-26.20869 2.90756,-36.66666 6.08194,-24.09583 19.40143,-43.31128 37.398,-53.95245 24.3229,-14.38187 77.02527,-21.26522 117.1735,-15.30378 16.69699,2.47926 39.09361,8.09552 41.18005,10.32644 0.82118,0.87806 2.21731,5.4275 3.10252,10.10988 6.51102,34.44038 39.62801,56.05455 72.69115,47.44269 11.51719,-2.99984 19.92787,-8.11002 28.59195,-17.37195 32.12749,-34.34439 12.64129,-89.90371 -34.41228,-98.1168 -21.39176,-3.73387 -47.63387,8.16352 -58.35395,26.45594 -3.63173,6.1971 -5.56192,6.80678 -13.78791,4.35516 -10.86718,-3.23877 -36.5116,-7.84432 -51.9912,-9.33722 -26.17512,-2.52443 -54.81736,0.012 -83.07809,7.35802 -22.78686,5.92287 -36.37351,12.85896 -50.82567,25.94691 -11.48704,10.40272 -12.31357,9.02296 -4.63888,-7.74381 21.08527,-46.06464 68.07855,-78.27353 134.32839,-92.06781 6.84883,-1.42604 13.24827,-2.2874 14.22099,-1.91414 0.9727,0.37327 3.39204,3.02135 5.37629,5.88463 11.36251,16.39611 35.76928,26.44225 55.87398,22.99847 29.58568,-5.06782 50.07633,-28.72986 50.07633,-57.82679 0,-30.04939 -20.25477,-53.9392 -49.89627,-58.85096 -28.44203,-4.713 -57.00349,13.62457 -65.43327,42.01071 -1.10209,3.71114 -2.0038,9.22396 -2.0038,12.25069 0,3.02673 -0.75,6.40769 -1.66666,7.51323 -0.91667,1.10553 -7.96667,3.36708 -15.66667,5.02566 -33.73301,7.26607 -72.87095,24.05326 -94.78962,40.65752 -13.70532,10.38232 -30.18222,27.4664 -39.15348,40.59628 -3.59018,5.25441 -7.02169,9.55348 -7.62558,9.55348 -2.18188,0 -1.00891,-6.78601 3.61664,-20.92355 14.38586,-43.96889 43.3126,-85.93677 79.69722,-115.62742 l 6.39402,-5.21765 8.41747,1.55098 c 16.3713,3.01654 27.33924,1.31612 42.0356,-6.51694 10.1371,-5.40303 18.7341,-14.74249 24.29393,-26.39207 3.57631,-7.49346 4.30665,-10.76093 4.81041,-21.52076 0.4931,-10.53204 0.10374,-14.15738 -2.29348,-21.35258 -5.64694,-16.94955 -17.75517,-29.870724 -34.28569,-36.587676 -25.77069,-10.471572 -54.71192,-1.244185 -71.1919,22.698236 -12.53286,18.20802 -12.21976,47.0874 0.70767,65.2701 2.58507,3.63595 4.70012,7.3242 4.70012,8.19611 0,0.87192 -4.52097,5.67384 -10.04663,10.67093 -30.32062,27.42036 -56.23676,64.54572 -70.56493,101.08563 -4.29115,10.94331 -5.65764,12.78202 -7.42355,9.98885 -2.04292,-3.23133 -1.68961,-138.9879 0.36844,-141.5712 0.91667,-1.15061 4.60962,-3.18229 8.20654,-4.51485 25.83321,-9.57048 42.39564,-39.79527 36.26728,-66.184241 -3.10482,-13.369458 -7.13056,-20.835938 -16.07518,-29.814317 -13.0681,-13.117447 -28.64089,-18.901069 -47.12776,-17.502911 -36.14836,2.733894 -61.74656,40.31355 -51.17295,75.124869 5.27926,17.38081 16.93083,30.28957 34.18304,37.87136 l 10.05236,4.41769 v 71.75904 c 0,79.03597 -0.17665,80.53302 -7.32688,62.09237 -14.28372,-36.83813 -36.48477,-69.346 -67.53896,-98.89382 l -14.76492,-14.04872 4.94966,-7.45699 c 13.26194,-19.97996 14.55548,-41.4854 3.74201,-62.21212 -11.26173,-21.585941 -36.56226,-34.518385 -59.94895,-30.643086 -47.52447,7.875059 -67.37091,63.557626 -34.99063,98.172236 15.11116,16.15388 34.42632,22.2959 56.30042,17.90296 l 7.53316,-1.51287 7.25008,5.59339 c 10.76396,8.30434 36.36879,35.33452 45.14963,47.66297 16.33088,22.92887 29.1571,49.04453 36.38417,74.08229 5.41223,18.75033 3.41973,18.79301 -9.40545,0.20147 -7.40731,-10.73774 -26.26436,-29.42195 -38.09566,-37.74649 -25.40002,-17.87154 -58.05593,-31.57483 -93.90435,-39.40476 -14.32033,-3.12782 -15.33006,-3.76878 -15.34916,-9.74336 -0.0429,-13.44107 -6.94105,-28.73646 -17.90426,-39.69967 -8.75363,-8.75363 -15.65695,-12.66085 -28.02671,-15.86295 -19.66055,-5.08942 -39.5526,0.67638 -54.79978,15.88394 -8.75052,8.7278 -12.65869,15.6276 -15.86294,28.00572 -5.08795,19.65485 0.67268,39.53484 15.88393,54.81562 22.61655,22.71993 57.01226,23.71275 80.64347,2.32774 4.49399,-4.06683 9.06632,-9.12582 10.16073,-11.24219 1.20266,-2.32567 3.06128,-3.84797 4.69811,-3.84797 5.15591,0 39.85624,9.27704 52.84552,14.12809 34.71583,12.96521 60.70714,31.11841 78.61006,54.90388 11.49729,15.27508 23.74393,40.30136 19.72152,40.30136 -0.39207,0 -5.20367,-3.83178 -10.69246,-8.51506 -20.76853,-17.72069 -43.61269,-25.64905 -83.53032,-28.99026 -12.88173,-1.07824 -22.86184,-1.06724 -37.63109,0.0415 -19.28936,1.44803 -52.33256,6.4458 -62.09115,9.39128 -7.68201,2.31871 -9.02363,1.77348 -13.76521,-5.59409 -9.90199,-15.38595 -24.37063,-24.89777 -42.40219,-27.87563 -27.01825,-4.46197 -55.164755,13.22454 -63.804032,40.09274 -2.580587,8.02564 -2.961532,11.47341 -2.417304,21.87801 0.546452,10.44713 1.328486,13.78101 5.073312,21.62793 12.172624,25.50662 40.313754,38.91835 67.048884,31.95472 23.30484,-6.07013 39.39119,-23.01808 44.14599,-46.51048 1.9803,-9.78414 2.62806,-10.20774 21.44508,-14.02414 22.6299,-4.58972 43.92032,-6.80982 65.30515,-6.80982 41.46207,0 67.93864,6.97075 86.29832,22.72062 13.43728,11.52716 24.06495,32.60298 27.68302,54.89843 2.01454,12.41415 1.66769,44.04807 -0.67958,61.97932 -8.17556,62.45467 -29.65036,90.08599 -84.09903,108.209 -40.06816,13.33653 -86.93533,18.85929 -160.04331,18.85929 -39.33958,0 -42.8886,-0.18857 -44.87587,-2.38449 z"
       id="path172"
       inkscape:connector-curvature="0" />
    <path
       style="fill:#9a9a9a;stroke-width:1.33333337"
       d="m 408.66668,831.85242 c -33.3404,-4.08507 -80,-15.37527 -80,-19.35756 0,-0.82783 5.0155,-5.2239 11.14557,-9.76907 36.37085,-26.96733 67.37661,-75.33272 86.80575,-135.40687 7.14901,-22.10447 7.78514,-23.63919 9.38768,-22.64876 1.44718,0.8944 1.95266,182.81634 0.51834,186.5541 -0.91974,2.39682 -11.47894,2.63493 -27.85734,0.62816 z m 55,0.74802 c -1.69285,-1.76889 -1.23296,-187.567 0.46288,-187.00172 0.80457,0.2682 4.59248,9.7682 8.41756,21.11112 22.01201,65.27449 50.75244,109.71883 88.88735,137.45582 5.14452,3.7418 9.14202,7.48526 8.88334,8.3188 -1.07597,3.46712 -38.29949,13.33024 -65.88985,17.45882 -17.18367,2.57135 -39.45404,4.02312 -40.76128,2.65716 z M 276.54933,791.55382 c -25.46759,-13.2392 -63.21599,-38.84633 -63.21599,-42.8834 0,-1.18516 2.25483,-2.14856 6.33333,-2.70601 29.18406,-3.98883 63.60236,-13.88152 85.121,-24.46594 38.37382,-18.87497 77.36729,-53.47641 99.73181,-88.49849 9.20973,-14.42212 9.34813,-8.91414 0.47741,19 -23.306,73.33872 -57.88852,121.72367 -103.2859,144.50891 -3.82561,1.92009 -7.42561,3.47586 -8,3.45726 -0.57437,-0.0187 -8.29712,-3.80414 -17.16166,-8.41233 z m 318.78606,3.82885 C 557.07435,775.43966 526.41077,736.41029 503.59097,678.60806 496.11641,659.67514 487.67596,631.55274 488.281,627.5974 c 0.3874,-2.53258 1.07807,-2.03768 5.08365,3.6426 30.0384,42.59713 60.0977,69.50823 99.93514,89.4687 23.28017,11.66448 48.966,19.12384 86.98679,25.26163 10.55948,1.70464 9.21177,3.19698 -21.6199,23.94016 -17.6551,11.87813 -49.97588,30.08949 -53.4016,30.08949 -0.58921,0 -5.05757,-2.07779 -9.92969,-4.61731 z M 170.0249,709.85621 c -19.86222,-21.99664 -37.35072,-45.04433 -35.9272,-47.34763 0.39949,-0.6464 12.54094,-1.18397 26.981,-1.19462 106.4636,-0.0785 180.7001,-16.35407 220.5071,-48.34384 9.22836,-7.41611 7.75628,-1.89444 -3.6515,13.69653 -9.77518,13.35972 -21.42317,26.08005 -34.77524,37.97675 -37.95313,33.81623 -75.49004,49.54317 -136.89401,57.35482 -24.36866,3.10012 -21.65653,4.0088 -36.24015,-12.14201 z m 531.97512,13.26816 C 624.2547,713.87142 585.95154,696.34401 541.03036,649.46514 526.75023,634.56266 509.13868,610.50932 511.84653,609.6067 c 0.79691,-0.26564 4.00744,1.55491 7.13454,4.04566 39.39437,31.37786 114.30509,47.68096 219.08816,47.68096 17.04671,0 26.07532,0.48849 26.66506,1.44272 1.6938,2.74061 -19.25794,30.12723 -37.91307,49.55727 -12.01724,12.51642 -11.6534,12.35823 -24.8212,10.79106 z M 115.63421,634.33332 C 112.86163,632.24125 94.882512,595.13712 89.30654,579.99998 70.483556,528.90108 62.43526,484.39571 62.421842,431.33332 62.397604,335.49095 93.120282,247.70066 152.7103,173.33333 165.25923,157.67248 192.44356,129.97693 208.00001,117.00387 294.50847,44.861431 407.45214,15.142582 518.10887,35.404978 595.53652,49.582787 668.91644,89.6406 724.45026,148.04593 c 53.98311,56.77445 89.79249,125.99538 104.81979,202.62073 6.28802,32.0631 7.40341,44.57238 7.31153,81.99999 -0.11387,46.38244 -4.81953,79.1309 -17.2304,119.91236 -8.35913,27.46771 -28.17253,73.32539 -35.03495,81.08764 -1.87817,2.12445 -5.59538,2.33081 -41.52286,2.3052 -97.09309,-0.0692 -160.65011,-11.67756 -199.94546,-36.51891 -29.97763,-18.95096 -45.41178,-56.27731 -48.8415,-118.11962 -1.26237,-22.7624 3.44224,-49.87807 11.33988,-65.3587 4.83399,-9.4754 15.1346,-21.51638 23.53363,-27.5098 11.08631,-7.91102 23.8802,-12.81566 45.27391,-17.35608 15.55096,-3.30042 19.77063,-3.64442 44.51285,-3.62892 24.22648,0.0152 29.22776,0.41094 44,3.482 9.16667,1.90568 19.93514,4.56886 23.92992,5.91818 l 7.26326,2.45332 1.57294,9.33334 c 5.2863,31.36686 30.52699,51.55149 62.13891,49.69159 18.51831,-1.08953 33.27175,-8.80159 44.00499,-23.00274 8.25464,-10.92169 11.09736,-20.36407 11.04559,-36.68885 -0.0372,-11.73287 -0.55779,-15.18755 -3.21464,-21.33334 -7.07535,-16.36661 -20.02427,-28.51906 -36.49182,-34.24725 -9.39725,-3.26881 -28.43437,-3.26881 -37.83162,0 -11.72924,4.07997 -22.12383,11.75691 -29.03769,21.4458 -3.45432,4.8408 -6.82041,8.80145 -7.48021,8.80145 -0.65979,0 -6.75712,-1.43753 -13.54963,-3.1945 -25.57305,-6.61486 -37.34065,-8.0288 -67.01666,-8.05242 -30.05427,-0.0239 -43.36597,1.75926 -69.35441,9.29042 -18.23617,5.28462 -38.61272,16.83608 -47.85225,27.12738 -2.87085,3.19767 -4.79335,3.6488 -4.79335,1.12484 0,-0.93736 2.14556,-6.18132 4.76791,-11.65325 19.19336,-40.04981 55.65853,-68.82458 107.2321,-84.61716 12.16636,-3.72552 25.16297,-6.84193 33.70005,-8.08084 l 6.36672,-0.92393 8.11051,8.85119 c 12.87148,14.04696 27.4847,20.79494 45.03284,20.79494 15.87351,0 29.47227,-5.4142 41.01288,-16.32882 12.32692,-11.6583 18.26409,-25.63791 18.26409,-43.00451 0,-17.3666 -5.93717,-31.34621 -18.26409,-43.00451 -11.5096,-10.8853 -25.14095,-16.32882 -40.88967,-16.32882 -30.39151,0 -54.23821,21.32034 -59.09264,52.83225 -0.99759,6.47571 -2.30647,10.59231 -3.57403,11.24081 -1.1,0.56279 -8.06129,2.29723 -15.46954,3.85432 -28.48831,5.98779 -62.59901,19.71091 -83.92395,33.76358 -19.65255,12.95057 -37.07655,30.09974 -49.42191,48.64237 -8.17461,12.2782 -8.86865,8.70624 -2.26688,-11.66667 7.93112,-24.47524 20.92547,-49.70384 36.18647,-70.25626 8.56426,-11.53375 40.21316,-44.41268 47.03664,-48.86474 3.00222,-1.95884 4.44392,-2.05877 10.61312,-0.73572 4.01861,0.86184 12.0262,1.22612 18.32037,0.83344 27.16527,-1.69477 49.00852,-21.97179 53.80587,-49.94779 5.9904,-34.93334 -22.77309,-68.297066 -58.88019,-68.297066 -28.81565,0 -53.97867,21.401266 -58.71193,49.934806 -2.35206,14.17879 1.30788,30.91494 9.37436,42.8672 2.25076,3.33499 4.22248,6.55187 4.3816,7.14861 0.15912,0.59675 -8.42906,9.98732 -19.08482,20.86792 -30.95002,31.6031 -46.23165,55.18564 -64.01189,98.78294 -3.50976,8.60597 -3.94732,1.12329 -3.94732,-67.50342 0,-54.8319 0.37047,-70.78761 1.66667,-71.78199 0.91666,-0.70323 5.20948,-2.68406 9.53958,-4.40183 15.43899,-6.12473 29.9756,-23.78096 34.01336,-41.31276 5.40894,-23.485359 -5.18602,-49.613801 -25.42156,-62.692658 -16.56301,-10.705193 -40.06748,-12.466871 -57.49916,-4.309604 -12.55549,5.875426 -22.59464,15.760433 -28.71096,28.270138 -4.84189,9.903113 -4.92117,10.323521 -4.91513,26.065454 0.005,15.48241 0.15289,16.30075 4.54301,25.29664 6.32133,12.95319 15.48467,21.71939 29.89039,28.59495 l 11.584,5.52883 -0.34511,70.17885 c -0.24013,48.83536 -0.7836,70.32497 -1.78692,70.65929 -0.79301,0.26424 -3.13447,-3.88584 -5.20325,-9.2224 -13.38444,-34.52607 -33.57766,-64.68119 -62.98346,-94.05508 -9.73764,-9.72708 -17.7048,-17.96543 -17.7048,-18.30745 0,-0.34202 2.00627,-3.78349 4.45839,-7.64773 7.71541,-12.15859 9.54161,-18.73474 9.54161,-34.35923 0,-12.94008 -0.3153,-14.65614 -4.16482,-22.66667 -6.14968,-12.797 -11.6387,-19.50027 -20.83515,-25.444223 -18.97118,-12.261663 -39.75472,-13.855323 -59.13388,-4.534321 -23.21407,11.165514 -35.21732,31.885274 -33.52408,57.868564 1.13846,17.47036 9.22417,32.60269 23.02313,43.08762 10.82151,8.22256 19.16707,10.86044 34.6348,10.9474 7.33333,0.0412 15.22215,-0.40928 17.53069,-1.00112 3.89153,-0.99767 5.06537,-0.3478 16.11025,8.91905 33.58965,28.18231 59.73194,66.80532 73.92844,109.22304 7.5521,22.56492 6.601,24.54511 -4.54082,9.45396 -11.0394,-14.95244 -30.708,-33.96216 -44.60074,-43.10665 -22.57775,-14.86115 -48.89263,-25.80271 -82.27499,-34.20939 -10.32722,-2.6007 -19.44975,-5.28709 -20.27231,-5.96976 -0.82256,-0.68266 -1.84572,-4.99096 -2.27369,-9.574 -2.10984,-22.59378 -16.76568,-41.33136 -38.94016,-49.78522 -5.02379,-1.91528 -10.11671,-2.54162 -20.66667,-2.54162 -13.02292,0 -14.63718,0.30178 -23.12956,4.32391 -12.01207,5.68912 -18.54839,11.02219 -24.71676,20.16672 -8.12036,12.03833 -10.15368,18.88224 -10.15368,34.17604 0,15.93153 3.27813,25.83901 12.3986,37.47219 10.38657,13.24812 25.10741,20.50926 43.6014,21.50665 9.97548,0.53799 13.46215,0.15509 20.66667,-2.26956 14.16334,-4.76663 23.4762,-11.78099 32.6683,-24.60548 l 2.6683,-3.72272 19.99837,4.92167 c 63.3238,15.58421 102.97771,42.98267 125.54768,86.7459 9.9507,19.29441 9.04203,21.0614 -4.4657,8.68401 -25.113,-23.0115 -72.2137,-33.18056 -129.75029,-28.0131 -16.17341,1.45254 -49.49117,7.05925 -55.47976,9.3361 -5.16993,1.96562 -7.46949,0.6968 -11.07546,-6.11098 -3.91549,-7.39215 -15.17798,-17.94279 -23.40443,-21.92515 -24.5256,-11.87264 -50.64839,-7.65205 -69.4326,11.21804 -13.95034,14.01412 -20.118758,32.76996 -16.766524,50.98071 3.725174,20.23673 14.738214,34.97245 32.814004,43.90599 10.43292,5.15623 10.696,5.20876 25.94229,5.17971 14.47164,-0.0276 15.94539,-0.28396 24.38596,-4.24223 11.10377,-5.20719 22.05113,-15.36223 27.41499,-25.43082 3.63633,-6.82581 4.96181,-10.91221 7.52636,-23.20351 0.89229,-4.27654 6.38459,-6.16181 30.07517,-10.32356 42.81771,-7.52181 83.03002,-6.99661 110.38447,1.4417 29.7628,9.18122 47.93144,28.8075 56.58166,61.1211 2.70574,10.10757 3.02,14.21747 2.90548,38 -0.1463,30.38648 -2.83364,49.81264 -9.86679,71.32464 -5.54253,16.95272 -11.78871,27.70284 -22.88147,39.38062 -32.31733,34.02175 -101.36024,49.9614 -216.40879,49.9614 -27.96365,0 -38.1016,-0.4251 -39.74702,-1.66666 z"
       id="path170"
       inkscape:connector-curvature="0" />
    <path
       style="fill:#7d7d7d;stroke-width:1.33333337"
       d="m 422.00001,832.49247 c -33.12813,-2.80063 -90.71581,-15.3066 -92.29464,-20.04308 -0.26868,-0.80605 3.31764,-4.18156 7.9696,-7.50113 18.94184,-13.51661 37.46524,-33.66119 52.36527,-56.94828 14.21778,-22.22081 31.50856,-60.46751 39.91817,-88.29781 1.93305,-6.39713 4.08729,-11.98507 4.78721,-12.41764 0.80447,-0.49719 1.14662,33.45338 0.93015,92.29781 l -0.34243,93.0843 -4,0.13835 c -2.2,0.0761 -6.4,-0.0645 -9.33333,-0.31252 z m 42.33334,-0.69 c -1.30083,-1.30277 -1.66219,-21.43941 -1.64626,-91.73582 0.0107,-49.53667 0.53876,-90.88483 1.1723,-91.88479 0.77908,-1.22969 3.2048,4.38015 7.495,17.33334 18.78684,56.7221 45.70138,101.32446 78.52557,130.13131 4.46603,3.91944 10.66899,8.75237 13.78433,10.73985 5.64446,3.60096 6.9615,5.9908 4.23139,7.6781 -6.13511,3.7917 -50.71835,13.8796 -72.56233,16.41874 -24.59103,2.85847 -29.26452,3.05736 -31,1.31927 z m -189.5647,-41.87865 c -17.2387,-9.04817 -37.71274,-21.93663 -51.43531,-32.37863 -12.32505,-9.37857 -12.39076,-10.12084 -1.01763,-11.49604 24.02531,-2.90508 58.26086,-12.484 78.47608,-21.95718 38.16671,-17.88552 75.9827,-50.02236 100.26157,-85.20444 11.22153,-16.26092 11.95217,-14.95643 4.82257,8.61017 -18.78533,62.09404 -47.80139,109.50412 -82.87828,135.41693 -9.26294,6.84294 -25.64174,15.71592 -28.99764,15.70906 -1.46667,-0.003 -10.12078,-3.91794 -19.23136,-8.69987 z m 318.73905,4.05271 c -44.01317,-24.84586 -75.76349,-70.68354 -98.69125,-142.47973 -3.0157,-9.44343 -5.46152,-18.74343 -5.43513,-20.66667 l 0.048,-3.49681 2.70475,3.33333 c 1.48761,1.83333 6.37888,8.43333 10.86948,14.66667 15.00128,20.82302 45.8627,49.46526 69.66317,64.65382 27.25887,17.39559 67.52558,31.33088 104.36326,36.11753 3.86646,0.5024 7.41769,1.54087 7.89161,2.30768 1.1598,1.8766 -5.05285,6.92172 -24.92153,20.23806 -20.53576,13.76342 -47.39626,28.55949 -53.46883,29.45324 -3.51917,0.51793 -6.42785,-0.40382 -13.02349,-4.12712 z M 171.8486,710.76286 c -11.63058,-11.93145 -37.18193,-43.95504 -37.18193,-46.60025 0,-0.59695 16.05,-1.49488 35.66667,-1.9954 19.61666,-0.50051 43.76667,-1.50983 53.66667,-2.24292 65.79813,-4.87231 115.93939,-18.33879 147.9236,-39.72796 15.67751,-10.4842 14.85407,-10.05145 13.8252,-7.2656 -2.84883,7.71375 -15.68087,24.16567 -31.30319,40.13369 -26.11112,26.68893 -55.15264,45.21297 -87.13615,55.57952 -20.50674,6.64668 -37.30042,9.83472 -76.6428,14.54952 l -6,0.71904 z m 529.48475,11.72139 c -72.881,-8.53891 -112.39704,-25.84439 -154.83495,-67.80775 -16.77495,-16.58737 -37.65273,-44.00985 -33.5064,-44.00985 0.58327,0 4.59843,2.64628 8.92259,5.88061 31.08705,23.25215 82.84132,37.87884 153.41876,43.35892 9.53333,0.74023 33.38333,1.75402 53,2.25287 25.94926,0.65989 35.66667,1.33453 35.66667,2.47621 0,3.82023 -35.75671,47.76859 -45.61157,56.06091 -2.1595,1.81709 -4.63032,3.22638 -5.49074,3.13176 -0.8604,-0.0947 -6.06436,-0.69928 -11.56436,-1.34368 z M 124,634.86766 l -8.66666,-0.86768 -10.15245,-20.2062 C 61.301255,526.46108 51.039797,421.80907 76.766777,324.01096 c 13.64452,-51.86803 41.206413,-106.55207 75.272653,-149.3443 14.41869,-18.11201 43.51806,-47.23488 61.29391,-61.34341 86.66767,-68.787345 193.48939,-96.475308 300.66667,-77.932155 75.89966,13.13169 146.68617,49.913311 202.60364,105.275565 67.18296,66.51589 108.46378,154.11799 118.12192,250.66666 2.15741,21.56683 1.80508,64.85639 -0.70539,86.66667 -5.7036,49.55138 -17.99097,91.50685 -39.90413,136.25339 l -9.85795,20.12987 -17.12904,1.00244 c -20.53057,1.20151 -87.17898,-1.19707 -112.46238,-4.04733 -55.98741,-6.31163 -99.08208,-20.42835 -121.33333,-39.74574 -25.30911,-21.97206 -37.77836,-60.72347 -37.83844,-117.59263 -0.0247,-23.40479 0.33052,-27.97142 2.90413,-37.33334 6.12984,-22.29815 18.05105,-39.84507 34.13148,-50.23834 20.28259,-13.10928 66.87535,-21.54372 102.10932,-18.48432 15.8153,1.37325 42.95412,6.43937 52.852,9.86611 4.99343,1.72877 5.18846,2.04066 7.43352,11.88818 3.36024,14.73904 7.19147,21.8897 17.00386,31.7363 23.94636,24.02983 59.02917,24.53759 83.32661,1.206 15.39124,-14.77944 21.93212,-34.51684 17.77976,-53.65138 -2.92453,-13.4766 -6.85352,-21.25382 -15.40173,-30.48692 -5.13769,-5.54932 -10.19575,-9.2856 -17.37181,-12.83221 -10.00666,-4.94555 -10.30956,-5.00341 -26.19288,-5.00341 -15.19356,0 -16.54139,0.22422 -24.73582,4.11512 -9.81405,4.65992 -22.20492,15.33136 -26.01377,22.40397 -3.20291,5.94745 -4.66027,6.49711 -11.15276,4.20643 -9.84786,-3.47454 -39.51702,-8.74542 -56.50014,-10.03756 -50.29401,-3.82658 -103.73557,9.18509 -128.94407,31.39461 -4.84552,4.26907 -8.83941,6.90032 -9.1337,6.01744 -0.93556,-2.80667 9.82296,-23.16876 18.01709,-34.10001 19.83425,-26.45959 49.00537,-46.31697 86.30152,-58.74723 15.97779,-5.32516 43.61022,-11.61356 46.35731,-10.54968 0.95435,0.3696 3.1768,2.78344 4.93879,5.3641 4.4896,6.57561 14.58038,14.70846 22.99692,18.53478 27.10762,12.32364 58.78623,3.27059 75.22681,-21.4982 7.53215,-11.34766 10.2195,-21.34173 9.63096,-35.81693 -0.42705,-10.50373 -1.10444,-13.34079 -5.28933,-22.15297 -18.15336,-38.22581 -67.10182,-47.07637 -96.69447,-17.48372 -8.85143,8.85141 -16.14351,23.17622 -17.19453,33.77746 -1.3392,13.50796 -0.25746,12.45018 -16.18111,15.82275 -31.19817,6.60767 -65.02051,20.28837 -88.06326,35.62048 -14.59046,9.70816 -34.4091,28.74021 -44.75188,42.9757 -5.21594,7.17908 -8.3681,10.5128 -8.63413,9.13146 -0.74009,-3.84303 10.2244,-34.24057 17.75284,-49.21728 16.28171,-32.39004 36.93857,-57.88673 68.23861,-84.22671 2.69335,-2.26653 3.78391,-2.32292 14.79277,-0.76478 14.07404,1.99197 23.06896,0.66154 35.60281,-5.26595 37.31428,-17.64662 45.75947,-66.9786 16.49368,-96.34665 -21.07519,-21.14883 -54.18861,-23.642787 -78.35708,-5.901507 -16.15782,11.860927 -25.19927,31.880997 -23.75432,52.598097 0.79765,11.4363 3.38542,19.02794 9.86874,28.95146 2.44514,3.74256 4.4457,7.40707 4.4457,8.14335 0,0.73626 -4.84176,5.71053 -10.75946,11.0539 -28.38708,25.63207 -52.68298,60.15588 -68.02718,96.66474 -2.7739,6.6 -5.53168,11.85016 -6.1284,11.66702 -1.1804,-0.36226 -2.26635,-132.50631 -1.12755,-137.2061 0.47812,-1.97317 2.63683,-3.53371 6.89556,-4.9848 14.56584,-4.96308 26.73628,-16.13533 34.18781,-31.38381 4.09507,-8.37996 4.28055,-9.45412 4.28642,-24.82361 0.007,-15.88265 -0.0505,-16.179357 -4.99728,-26.192876 -18.47971,-37.407834 -67.12181,-45.7016 -96.32993,-16.424826 -29.81464,29.884716 -21.0759,78.167292 17.52964,96.853452 l 11.13703,5.39063 v 70.1715 c 0,74.82077 -0.1096,75.91568 -5.96613,59.60008 -3.96539,-11.04708 -16.38586,-34.5163 -25.40964,-48.01306 -12.07344,-18.05806 -22.02179,-29.80582 -39.85886,-47.0683 l -15.58333,-15.08136 4.58837,-6.91863 c 6.14516,-9.26607 8.62311,-15.52918 10.30202,-26.0387 4.0256,-25.19927 -10.45918,-52.00771 -34.07243,-63.061236 -36.05875,-16.879353 -78.10275,5.629361 -84.93479,45.470756 -3.05612,17.8219 2.74517,35.37559 16.5784,50.16335 13.99065,14.95605 32.6468,21.27113 53.05079,17.95758 l 10.63804,-1.72758 5.00045,3.69372 c 2.75024,2.03154 12.50044,11.25292 21.66711,20.49193 16.33457,16.46348 28.8238,32.54135 39.20697,50.47264 10.19748,17.6106 24.34352,54.13233 23.21187,59.92754 -0.33429,1.71194 -2.70909,-0.65374 -8.30055,-8.26865 -27.44798,-37.38101 -66.88601,-61.55944 -124.11829,-76.09368 -25.83158,-6.55997 -22.56562,-4.36428 -24.31179,-16.34476 -2.99011,-20.51513 -15.03503,-37.48302 -32.82867,-46.24636 -12.76513,-6.28681 -23.25945,-8.05091 -35.55544,-5.97693 -26.57797,4.48295 -46.82865,25.04763 -50.96216,51.75235 -2.46612,15.9325 3.27583,34.33873 14.66335,47.00438 18.75406,20.85904 45.82529,26.53788 70.99471,14.89283 4.88154,-2.25853 10.7675,-6.89143 17.60498,-13.85703 5.6494,-5.75528 11.23451,-10.46413 12.41132,-10.46413 3.17007,0 31.71904,7.36337 43.9837,11.34431 14.82048,4.81052 38.70459,16.48197 50.98001,24.91241 13.13316,9.01949 29.88399,25.75593 38.04003,38.00732 6.97491,10.4772 16.4196,29.40742 15.25368,30.57334 -0.40523,0.40524 -4.60472,-2.54449 -9.33221,-6.55494 -17.06222,-14.47432 -33.86055,-21.55339 -62.90951,-26.51096 -23.116,-3.94504 -68.57163,-2.9732 -96.69867,2.06742 -10.63333,1.90559 -21.42937,4.0714 -23.9912,4.81291 -7.17712,2.07737 -9.11312,1.65861 -11.22655,-2.42831 -6.13967,-11.87278 -20.25455,-23.55012 -34.12787,-28.23418 -7.21828,-2.43712 -10.86692,-2.83631 -21.98772,-2.4056 -11.96322,0.46333 -14.28466,0.9884 -22.59122,5.10966 -32.490956,16.12028 -44.093266,56.53823 -24.799023,86.39018 12.927773,20.00177 37.194303,31.10887 59.586123,27.27331 25.03212,-4.28782 43.73686,-22.15858 49.81478,-47.59375 2.12313,-8.88495 2.40627,-9.30616 7.43161,-11.05567 14.17055,-4.93327 42.4201,-8.66179 70.83032,-9.34856 29.94839,-0.72395 42.59395,0.34768 60.33399,5.11288 33.18327,8.91345 53.69744,32.8398 60.26891,70.29358 3.72957,21.2566 0.77231,65.10247 -6.17599,91.56798 -14.09248,53.67717 -48.34316,77.18261 -132.19049,90.71926 -29.87646,4.82337 -116.07087,8.59508 -140.50901,6.14841 z"
       id="path168"
       inkscape:connector-curvature="0" />
    <path
       style="fill:#585858;stroke-width:1.33333337"
       d="m 402.71322,829.93512 c -27.0903,-3.52753 -70.55996,-14.14204 -71.68029,-17.50304 -0.26824,-0.80473 3.77897,-4.56646 8.9938,-8.35941 36.74973,-26.7295 68.80288,-77.28077 89.45023,-141.07269 2.4329,-7.51666 4.90002,-13.66666 5.4825,-13.66666 0.58248,0 0.9049,40.94999 0.71647,90.99999 l -0.34259,91 -9.33333,0.20937 c -5.13333,0.1152 -15.61239,-0.60825 -23.28679,-1.60756 z m 61.39473,-89.40135 c 0.10706,-91.1626 0.12733,-91.82621 2.63169,-86.53379 1.38808,2.93334 2.53951,6.07723 2.55875,6.98644 0.0192,0.90922 3.09468,9.90922 6.83433,20 7.66145,20.67311 22.85235,52.02073 32.47437,67.01356 14.90399,23.22303 34.74864,44.83079 52.80532,57.49682 4.35652,3.05592 7.92094,6.04318 7.92094,6.63835 0,1.33185 -16.55643,6.63247 -32.66667,10.45837 -17.81796,4.23146 -42.08121,7.94974 -58.30509,8.93511 l -14.36158,0.87225 0.10787,-91.86711 z m -187.91429,49.50276 c -15.40585,-8.00776 -49.19131,-29.637 -58.19365,-37.2552 -4.98234,-4.21628 -3.57934,-5.44071 7.69592,-6.71636 34.08732,-3.85654 75.13105,-18.58374 103.34151,-37.08071 30.1262,-19.75308 52.4964,-41.83566 78.02228,-77.01917 l 2.39305,-3.29844 -0.69428,5.33333 c -0.38185,2.93334 -3.14992,12.77583 -6.15125,21.87223 -20.0115,60.65021 -47.87674,103.95712 -82.60723,128.38442 -8.23332,5.79082 -24.06939,14.44872 -26.29531,14.37619 -0.57092,-0.0187 -8.45088,-3.88693 -17.51104,-8.59629 z m 319.2122,4.04954 c -38.98974,-20.32284 -70.16729,-61.03374 -92.47581,-120.75275 -7.27852,-19.48431 -14.2427,-42.46511 -13.1883,-43.51951 0.3606,-0.3606 2.32501,1.63377 4.36537,4.43193 14.40476,19.75483 20.03445,26.56434 31.22623,37.77035 42.11606,42.16962 87.686,65.04085 147.33333,73.94554 2.93334,0.43792 7.03291,1.13426 9.11016,1.54742 l 3.77683,0.7512 -3.103,3.303 c -7.94892,8.46122 -63.96808,42.93396 -75.28329,46.32736 -1.88967,0.5667 -5.80504,-0.69982 -11.76152,-3.80454 z M 169.46011,707.66665 C 153.9375,690.30377 136,667.16241 136,664.49938 c 0,-1.4889 4.69011,-1.83636 25,-1.85209 78.04751,-0.0604 138.47014,-8.80535 181.00001,-26.19596 14.01331,-5.73009 34.90456,-17.38823 38.13525,-21.28097 0.83854,-1.01038 2.05114,-1.83704 2.69467,-1.83704 6.26897,0 -19.08072,31.82381 -40.24596,50.52448 -37.73935,33.34481 -75.5293,49.24858 -134.98559,56.80821 -25.59323,3.25408 -22.7372,4.22754 -38.13827,-12.99936 z m 520.72288,12.84517 c -66.16773,-8.47885 -106.81392,-28.07751 -148.25992,-71.48749 -12.58988,-13.18648 -28.29986,-33.75865 -26.871,-35.18752 0.36378,-0.36377 5.26585,2.43176 10.89348,6.21232 42.18245,28.33748 113.72433,42.60245 213.72114,42.61457 13.79325,0.001 24.33333,0.53048 24.33333,1.22083 0,3.32841 -24.33795,33.81874 -39.20487,49.11545 -10.7742,11.08568 -9.27004,10.75923 -34.61216,7.51184 z M 116.49785,633.64624 C 114.12974,632.10194 98.935111,600.94069 91.964625,583.33332 63.182503,510.63 55.853735,426.97587 71.464362,349.33332 87.716024,268.50247 126.41872,197.03547 184.85554,139.94926 c 21.16588,-20.67669 34.98895,-32.05321 55.81113,-45.933119 46.99983,-31.329717 98.19833,-51.12651 155.33334,-60.06235 18.54677,-2.900691 68.07895,-4.076654 88.34783,-2.097504 132.27759,12.91622 246.16198,92.177573 307.70542,214.157103 27.89448,55.28704 41.69363,110.04564 43.50856,172.65327 2.01143,69.38587 -11.63603,133.79074 -40.73833,192.25182 l -11.49014,23.0815 -36,0.42762 c -106.32993,1.26297 -180.48399,-13.9507 -214.66991,-44.04235 -23.65935,-20.8258 -36.79771,-61.8087 -37.04491,-115.55541 -0.15096,-32.82295 5.08799,-52.55657 18.7164,-70.49938 11.73554,-15.4507 25.0289,-23.32915 50.00762,-29.63762 37.74005,-9.53136 76.51833,-8.82048 117.99207,2.16303 4.58402,1.21399 8.82117,2.86805 9.41588,3.67569 0.5947,0.80763 1.82985,5.27746 2.74477,9.93294 4.65636,23.69357 22.84238,42.86255 45.65379,48.12143 7.492,1.72719 20.20992,1.72719 27.70192,0 21.56939,-4.97254 40.42911,-23.83226 45.40165,-45.40165 9.07588,-39.36841 -23.79218,-77.4813 -63.92093,-74.12094 -19.99995,1.6748 -35.97493,11.71218 -48.11076,30.22894 l -2.1124,3.2231 -8.55427,-2.26671 c -49.92705,-13.22973 -96.75067,-13.28837 -141.7936,-0.1776 -17.72154,5.15825 -32.86935,13.34447 -45.0419,24.34161 -7.09412,6.40912 -6.6917,2.67878 1.30007,-12.05134 13.4342,-24.76142 33.13331,-44.45543 58.98117,-58.96596 21.93179,-12.31211 49.58421,-22.13252 73.75903,-26.1946 l 10.30439,-1.73144 4.30163,5.26532 c 17.38969,21.28553 42.20232,29.48737 66.49451,21.97983 44.28869,-13.68748 57.80654,-69.27287 24.60085,-101.15862 C 731.08937,189.67657 717.46786,184 701.33335,184 c -16.13451,0 -29.75601,5.67657 -42.12707,17.55587 -9.96466,9.56856 -16.13578,21.8967 -18.08322,36.12519 -0.72662,5.30875 -1.72655,9.9958 -2.22207,10.41568 -0.49553,0.41988 -7.50097,2.16713 -15.56764,3.88279 -26.21708,5.57593 -60.83346,18.99898 -80,31.02126 -19.55304,12.26472 -37.48999,28.83585 -50.67206,46.81364 -4.14921,5.65872 -6.82061,8.30347 -7.08377,7.01312 -0.71399,-3.50079 8.97459,-30.03928 16.47507,-45.12769 13.5349,-27.22767 29.8579,-49.13572 53.01436,-71.15368 18.10729,-17.21703 17.62537,-16.94147 26.35368,-15.06957 4.01861,0.86184 12.0262,1.22612 18.32037,0.83344 27.44203,-1.71204 50.12728,-22.68587 55.0108,-50.86065 3.2525,-18.76472 -2.89734,-37.03296 -17.35404,-51.55066 -24.17336,-24.275359 -58.95592,-24.930799 -84.17097,-1.58611 -21.6261,20.02195 -25.30766,53.25403 -8.65252,78.10326 l 4.63193,6.91078 -16.46417,16.66999 c -19.309,19.55039 -23.32675,24.10151 -32.5297,36.84816 -10.184,14.10544 -20.3073,31.79765 -27.49581,48.05361 -3.51077,7.93919 -6.91368,15.01036 -7.56201,15.71371 -0.68375,0.74176 -1.0337,-27.73459 -0.83331,-67.8072 l 0.34548,-69.08602 8.31593,-3.32696 c 18.29954,-7.32112 33.61211,-27.02506 36.74839,-47.28715 3.49016,-22.548306 -7.65019,-47.371103 -26.71023,-59.515437 -11.46864,-7.307378 -21.91478,-9.962941 -36.50351,-9.279724 -10.80804,0.506162 -14.21066,1.252807 -21.71681,4.765352 -12.62267,5.906863 -23.72336,16.894004 -29.77,29.465491 -4.22068,8.775163 -4.86536,11.491384 -5.39083,22.713308 -0.67956,14.51304 1.98875,24.98544 9.2831,36.43362 6.80577,10.68139 20.82702,20.96104 34.74396,25.47248 2.18225,0.70743 2.33333,5.20528 2.33333,69.46492 0,39.46617 -0.50712,68.70851 -1.19155,68.70851 -0.65534,0 -2.80206,-4.05 -4.77046,-9 -13.33119,-33.52419 -38.04596,-69.09612 -66.67546,-95.96584 -6.98272,-6.55352 -12.69586,-12.30554 -12.69586,-12.78227 0,-0.47673 1.99634,-4.02842 4.43633,-7.89266 6.56519,-10.39739 9.08831,-17.84884 9.87811,-29.17268 3.22914,-46.29827 -44.4953,-79.023026 -86.07685,-59.0231 -38.44617,18.49186 -46.97516,67.29051 -17.00002,97.26564 13.20193,13.20193 28.69972,18.91555 47.37857,17.46721 5.52779,-0.42861 11.31284,-1.15268 12.85567,-1.60902 2.10697,-0.62322 4.92772,0.91465 11.33333,6.17892 22.6042,18.57657 44.79162,45.42534 59.56528,72.07932 8.5653,15.45312 23.09398,53.43451 21.17419,55.3543 -0.3398,0.3398 -4.41651,-4.37365 -9.05937,-10.47435 -27.80658,-36.53761 -67.313,-60.38647 -123.38551,-74.48421 -11.26827,-2.83306 -20.98688,-5.45949 -21.59694,-5.83653 -0.61004,-0.37703 -1.46677,-4.51504 -1.90385,-9.19557 -2.08679,-22.34692 -18.38359,-43.116 -39.80028,-50.72255 -9.26391,-3.29024 -24.37417,-4.28061 -33.27688,-2.18108 -26.23012,6.18591 -45.37906,28.09333 -47.39388,54.2212 -1.45499,18.86776 4.2569,34.45761 17.49689,47.75543 18.83281,18.91508 45.28031,23.35877 69.84887,11.736 7.17489,-3.39427 20.21833,-14.96118 24.35657,-21.59938 l 2.00395,-3.21456 15.24957,3.72267 c 33.29347,8.12747 60.08858,18.85836 79.78406,31.95189 12.79433,8.50565 27.25628,22.25853 36.50753,34.71756 7.9222,10.66915 18.80116,30.50747 18.01804,32.85681 -0.23032,0.69096 -4.01305,-1.80122 -8.40608,-5.53821 -21.21433,-18.04625 -49.38654,-26.93443 -91.32064,-28.81116 -10.18771,-0.45595 -25.52295,-0.13469 -35.33333,0.74019 -17.94115,1.59997 -52.83722,7.23968 -58.78263,9.5001 -5.16776,1.96479 -5.48157,1.79031 -10.28472,-5.71821 -13.07282,-20.43611 -37.3146,-31.67723 -60.55514,-28.07992 -32.68182,5.05868 -56.439131,36.85979 -51.206562,68.5442 3.442824,20.84708 15.138302,36.61948 34.093232,45.97773 10.47924,5.17373 10.7694,5.23212 26,5.23212 15.06103,0 15.62416,-0.10907 25.40248,-4.92291 6.00544,-2.95641 12.80235,-7.70266 17.0154,-11.88179 8.16079,-8.09507 15.86508,-22.47387 17.12314,-31.95756 0.99554,-7.50478 1.83297,-8.43472 9.42273,-10.46371 29.42828,-7.86715 77.26145,-11.52228 104.56007,-7.98988 28.60173,3.70104 46.10033,11.0262 59.87867,25.06609 10.11808,10.31016 15.74434,20.25095 20.85756,36.85228 3.51422,11.40984 3.68525,13.23052 3.69121,39.29748 0.007,30.02089 -1.93845,46.62743 -7.88763,67.33333 -11.41261,39.72125 -33.06692,60.65947 -77.92949,75.35241 -25.92384,8.49032 -61.16031,14.48402 -101.64818,17.29026 -22.42763,1.55448 -96.99705,1.80761 -99.2523,0.33692 z"
       id="path166"
       inkscape:connector-curvature="0" />
    <path
       style="fill:#3c3c3c;stroke-width:1.33333337"
       d="m 412.66668,830.49088 c -14.42796,-1.38112 -38.70223,-5.61849 -53.33334,-9.30998 -16.41706,-4.14211 -28.66666,-8.00856 -28.66666,-9.04831 0,-0.51755 3.73416,-3.57439 8.29813,-6.793 36.48616,-25.73073 68.60861,-74.93288 89.04676,-136.39343 3.09941,-9.32039 5.86476,-16.94618 6.1452,-16.94618 0.28045,0 0.50991,40.5 0.50991,90 v 90 l -5,-0.1802 c -2.75,-0.0991 -10.4,-0.69711 -17,-1.3289 z m 52.22223,0.6202 c -1.31383,-1.31381 -1.08216,-177.77776 0.23338,-177.77776 0.61726,0 1.87136,2.55 2.78688,5.66666 4.29204,14.61102 15.85618,43.38983 24.07068,59.90285 19.41754,39.0337 42.2471,67.80947 69.02016,86.9972 3.85,2.75921 7,5.52417 7,6.14433 0,0.62016 -4.95,2.62132 -11,4.447 -22.3977,6.75888 -48.16254,11.7972 -72.33333,14.1448 -16.10548,1.56427 -18.62787,1.62483 -19.77777,0.47492 z M 274.76865,788.59049 c -23.62046,-12.39782 -58.76864,-35.87439 -58.76864,-39.2534 0,-0.64555 2.85,-1.56771 6.33333,-2.04926 25.66837,-3.54845 58.59712,-12.77522 78.69025,-22.04934 37.96459,-17.5228 78.96226,-52.41697 101.40857,-86.31143 6.77713,-10.23362 7.0314,-6.08436 0.81009,13.21968 -19.24604,59.71835 -45.72752,102.80999 -78.76397,128.16759 -9.83251,7.54709 -26.77455,16.9836 -30.47827,16.97602 -1.46667,-0.003 -10.12078,-3.91793 -19.23136,-8.69986 z m 318.73905,3.9855 c -37.31154,-20.76748 -66.10594,-58.24532 -88.5415,-115.24268 -6.45063,-16.38774 -14.97935,-43.76461 -13.95356,-44.79039 0.34113,-0.34114 4.42229,4.61276 9.06923,11.00868 9.90664,13.63521 30.98562,35.88945 45.21417,47.73507 36.72882,30.57768 79.84502,48.82142 132.37064,56.00994 3.48334,0.47672 6.33334,1.30656 6.33334,1.84408 0,1.45158 -20.28387,16.20601 -34.7117,25.24917 -18.33418,11.49163 -40.3489,22.94581 -44.06754,22.92819 -1.77143,-0.008 -7.04231,-2.14232 -11.71308,-4.74206 z M 175.91676,713.72787 c -18.6452,-19.55657 -40.61754,-47.51529 -39.1754,-49.84874 0.41723,-0.67509 15.63602,-1.21999 34.33734,-1.22941 90.81971,-0.0457 158.68607,-13.79567 200.16462,-40.55384 6.28285,-4.05312 11.42336,-6.86652 11.42336,-6.252 0,3.92926 -18.06038,25.93122 -33.72498,41.0853 -41.58376,40.22851 -80.60967,56.39221 -156.99718,65.02489 l -7.3888,0.83503 z m 530.08326,8.07 c -46.66802,-5.47438 -71.75206,-11.60788 -97.94238,-23.94864 -26.2339,-12.3613 -56.35819,-36.26975 -76.05763,-60.36394 -10.52077,-12.86785 -18.00068,-24.19729 -14.61972,-22.14377 1.07418,0.65244 5.85306,3.69082 10.61972,6.752 13.27204,8.52332 23.56168,13.31277 42.64183,19.84824 40.2188,13.776 92.70571,20.67166 157.61282,20.70698 21.70783,0.012 33.21848,0.49874 33.79375,1.42954 2.51436,4.06832 -43.80332,58.81129 -49.40222,58.38859 -1.4554,-0.10986 -4.44617,-0.41093 -6.64617,-0.669 z M 116.96089,632.99998 c -1.2185,-0.91666 -6.96547,-11.56666 -12.77104,-23.66666 -18.893884,-39.37875 -30.661241,-78.75387 -37.057716,-124 -3.297218,-23.32321 -3.335154,-84.49217 -0.06656,-107.33333 7.04924,-49.26068 19.713792,-90.18048 40.853596,-132 54.12887,-107.07967 150.52449,-182.681361 264.08084,-207.114775 26.58453,-5.720073 43.42832,-7.374515 76,-7.464917 34.26712,-0.09511 48.42568,1.244773 78,7.38145 56.27235,11.676525 108.72447,36.190763 156.66667,73.220372 6.96667,5.38091 22.03287,19.12722 33.48046,30.54734 35.97515,35.88887 58.22612,67.26199 79.86113,112.60149 19.62623,41.12976 30.5375,79.12328 36.80664,128.16237 2.66972,20.88323 3.04036,70.59611 0.68096,91.33333 -5.61922,49.3885 -17.99228,92.48987 -39.10504,136.22195 -7.94138,16.44944 -11.46368,22.41932 -13.5595,22.98178 -4.54811,1.2206 -55.1823,0.87516 -84.16465,-0.57418 -32.8485,-1.64271 -57.52672,-4.39703 -79.33333,-8.85435 -69.46946,-14.19973 -98.97791,-36.13928 -112.65544,-83.75934 -6.06371,-21.11154 -7.77224,-35.10674 -7.89644,-64.68252 -0.1324,-31.52458 1.32962,-39.95444 10.14518,-58.49629 6.43152,-13.5275 18.74491,-26.54548 31.49199,-33.29403 18.63107,-9.86364 62.64475,-17.46572 90.68728,-15.66359 21.9945,1.41347 58.53826,8.62187 62.18204,12.26567 0.9073,0.90729 2.0252,4.84581 2.48424,8.75227 1.19463,10.16638 9.25603,25.70129 17.52365,33.7693 13.04398,12.72908 33.55636,19.58935 50.63406,16.93433 31.40444,-4.88233 53.07539,-29.71759 52.87362,-60.59401 -0.0376,-5.75733 -0.73879,-12.98917 -1.55814,-16.07076 -4.30462,-16.18965 -18.25602,-32.48984 -34.2238,-39.98553 -8.56632,-4.02127 -9.82897,-4.23497 -25.02157,-4.23497 -15.17265,0 -16.46359,0.21766 -24.96531,4.20945 -8.73804,4.10275 -21.93653,15.65636 -28.3866,24.84884 -2.36799,3.37481 -3.03616,3.62504 -6.31684,2.36555 -2.01781,-0.77466 -12.51781,-3.33442 -23.33333,-5.68835 -18.91131,-4.11593 -20.86487,-4.28317 -50.99792,-4.36555 -25.28252,-0.0691 -33.90815,0.39724 -44.66667,2.415 -30.26091,5.67542 -53.15346,14.85251 -67.41316,27.02439 -3.93475,3.35863 -7.37726,5.43704 -7.65003,4.61871 -0.77399,-2.32194 9.83095,-21.13928 17.80507,-31.59328 24.23126,-31.76696 62.80664,-53.38511 115.32473,-64.62949 l 13.19642,-2.82542 9.70181,9.94738 c 14.05501,14.41074 26.56072,19.95085 45.03516,19.95085 17.66115,0 30.85655,-5.538 43.31207,-18.17771 19.10067,-19.3831 23.2622,-46.71164 10.83792,-71.17182 -16.04109,-31.58076 -57.3372,-42.32231 -87.72978,-22.81946 -15.41424,9.8913 -27.75354,31.54788 -27.75354,48.70996 0,5.2301 -0.5331,5.58928 -11.76052,7.92384 -57.93458,12.04658 -105.67775,39.0796 -132.82535,75.20805 -3.58176,4.76667 -7.08799,9.26667 -7.7916,10 -2.42323,2.52556 0.49178,-8.83593 5.77904,-22.52432 9.16788,-23.73509 21.58717,-45.66541 36.31972,-64.13431 7.46798,-9.36198 29.76474,-32.27596 37.97936,-39.03074 l 5.70066,-4.68757 11.63267,1.63856 c 9.85186,1.38771 13.11558,1.32485 21.31924,-0.41061 13.08768,-2.76867 24.25664,-8.99307 32.91163,-18.3415 21.94441,-23.70257 22.31984,-58.39814 0.89477,-82.69052 -20.35433,-23.078354 -57.30777,-26.618951 -82.08903,-7.865145 -20.30484,15.366185 -29.28729,41.921315 -22.13984,65.452765 1.62588,5.35285 5.00659,12.93781 7.5127,16.85548 2.5061,3.91767 4.55654,7.47561 4.55654,7.90654 0,0.43094 -5.62326,6.10536 -12.49613,12.60983 -28.75823,27.21672 -52.49187,61.23335 -66.2042,94.88821 -1.71804,4.21667 -3.61884,7.66667 -4.22401,7.66667 -0.60518,0 -0.94478,-30.08472 -0.75466,-66.85492 0.2989,-57.80902 0.61628,-67.00301 2.34567,-67.94936 1.1,-0.60194 5.6,-2.72413 10,-4.71598 10.26213,-4.6456 22.93847,-17.15174 27.75579,-27.38312 5.04448,-10.71386 6.69392,-19.91345 5.8876,-32.8376 -2.72896,-43.742054 -53.0957,-70.003492 -91.14534,-47.523596 -15.25004,9.009786 -26.2114,24.637487 -29.85907,42.570268 -5.44738,26.780648 10.49974,55.611458 36.98692,66.868658 l 8.3741,3.55904 -0.0852,68.1333 c -0.0792,63.27886 -0.23572,67.80082 -2.19684,63.46664 -21.54455,-47.61446 -40.85719,-74.96088 -74.73202,-105.81938 -4.23922,-3.86176 -6.63497,-7.00759 -6.05576,-7.95176 0.52711,-0.8592 2.57836,-3.96756 4.55836,-6.90747 8.31842,-12.35125 11.7699,-33.96696 7.80424,-48.87597 -4.35433,-16.37027 -18.23066,-32.631563 -34.27114,-40.161391 -8.56633,-4.021256 -9.82898,-4.234964 -25.02158,-4.234964 -15.16265,0 -16.46773,0.219636 -24.93736,4.196783 -9.58445,4.500641 -20.49076,13.787282 -26.3312,22.420822 -15.83416,23.40658 -12.35252,56.28098 8.13827,76.84337 13.9699,14.01872 32.94342,20.08506 53.14646,16.99232 l 10.40622,-1.59301 8.45547,6.78055 c 24.58616,19.71596 48.94942,50.61973 63.52002,80.57246 6.97951,14.34775 16.67066,40.53205 15.87968,42.90497 -0.25228,0.75683 -3.04706,-2.1277 -6.21064,-6.41008 -28.55637,-38.65534 -74.57476,-65.46238 -135.06892,-78.68155 -6.64257,-1.45154 -10.74613,-3.05951 -11.48508,-4.50042 -0.63237,-1.23306 -1.50076,-5.81442 -1.92976,-10.1808 -1.77489,-18.06416 -15.68311,-36.66466 -34.24989,-45.8049 -9.84364,-4.84594 -10.25018,-4.92291 -26,-4.92291 -15.25011,0 -16.42417,0.20091 -25.05014,4.28675 -12.75144,6.03992 -23.84055,16.99205 -30.03765,29.66661 C 138.07896,228.50518 138,228.92494 138,244.73581 c 0,15.87362 0.0607,16.19192 4.9865,26.15865 7.82665,15.83615 19.5469,26.27527 35.79073,31.87848 23.3015,8.03769 53.08954,-0.85295 67.18262,-20.05157 3.03321,-4.13206 5.94669,-6.72138 7.56286,-6.72138 5.10708,0 39.84904,9.30935 51.42243,13.77899 34.45363,13.30601 58.67499,30.33497 76.97588,54.11836 6.62936,8.61536 18.84614,30.44661 17.68674,31.60601 -0.37894,0.37893 -4.45342,-2.34445 -9.05442,-6.05199 -22.55524,-18.17522 -54.10393,-26.70825 -98.93921,-26.76028 -24.37667,-0.0283 -39.8259,1.4434 -64.94746,6.18688 -28.44448,5.37091 -25.39809,5.60516 -30,-2.30688 -5.35136,-9.20057 -13.92976,-16.61608 -25.7952,-22.29837 -8.59115,-4.11425 -11.3774,-4.76497 -22.66667,-5.29373 -10.77922,-0.50488 -14.28021,-0.12894 -21.53813,2.3128 -20.72485,6.97232 -35.234417,22.37813 -40.85153,43.37488 -9.064633,33.88356 14.52189,69.31799 50.13969,75.32571 31.4112,5.29818 63.14868,-17.11941 69.4288,-49.04066 1.60763,-8.17137 1.69696,-8.29277 7.12222,-9.67928 3.02178,-0.77225 6.2658,-1.66395 7.2089,-1.98153 0.94311,-0.3176 8.74311,-1.77083 17.33334,-3.22942 63.37821,-10.76134 116.14453,-3.3358 139.50773,19.63223 12.28967,12.08181 18.7307,23.94609 23.69334,43.64278 2.60336,10.33276 3.0057,15.23338 2.90065,35.33016 -0.29524,56.48131 -14.27393,97.598 -40.10928,117.97679 -9.69725,7.64913 -30.63201,18.08169 -46.76314,23.30378 -16.49313,5.33927 -45.98238,11.29886 -68.94405,13.93314 -39.2542,4.50342 -125.78078,6.57389 -130.37245,3.11962 z"
       id="path164"
       inkscape:connector-curvature="0" />
    <path
       style="fill:#0000ff;stroke-width:1.33333337"
       d="m 404.35917,828.64014 c -24.98928,-3.26424 -71.02583,-14.11659 -71.02583,-16.74315 0,-0.55177 3.15,-3.27592 7,-6.05364 10.39644,-7.5009 29.58891,-26.47597 38.27699,-37.84337 19.7256,-25.80884 39.42404,-64.39845 50.70567,-99.33333 1.65772,-5.13333 3.5442,-9.90775 4.19218,-10.60983 0.68268,-0.73966 1.03383,35.1466 0.83499,85.33333 l -0.34316,86.60983 -8,0.211 c -4.4,0.116 -14.13837,-0.59083 -21.64084,-1.57084 z m 60.97418,-84.67177 c 0,-47.89372 0.23168,-86.82949 0.51485,-86.52395 0.28317,0.30556 2.45511,6.25556 4.82652,13.22223 20.88277,61.34858 52.90165,109.89629 89.68228,135.97815 3.49635,2.47934 5.89635,4.94239 5.33333,5.47346 -0.56301,0.53108 -5.03193,2.18932 -9.93093,3.68497 -22.50085,6.86947 -54.08272,12.74152 -77.02765,14.32183 l -13.3984,0.9228 z m -185.8432,45.95896 c -23.73173,-12.06016 -63.10266,-37.9849 -61.53598,-40.51984 0.35905,-0.58098 4.29658,-1.46856 8.75005,-1.97242 30.39537,-3.43884 69.76115,-16.69606 95.29579,-32.09281 26.93953,-16.24384 60.97631,-46.90524 76.59304,-68.9974 3.99283,-5.64846 7.48099,-10.04864 7.75144,-9.77817 0.81628,0.81627 -6.29709,23.10731 -12.58369,39.43329 -20.69119,53.73396 -49.89364,92.99784 -84.19135,113.19864 -15.0072,8.83901 -14.16039,8.81849 -30.0793,0.72871 z m 311.63413,-0.07 c -34.07911,-19.2477 -63.17729,-57.44426 -84.19732,-110.52402 -6.50105,-16.41642 -13.85563,-39.21395 -13.24325,-41.05106 0.24972,-0.74917 3.3983,2.76388 6.99686,7.8068 7.95554,11.14869 32.56507,36.7945 45.31944,47.22781 12.53178,10.25121 32.12143,23.01413 46.21702,30.111 21.001,10.5736 55.79257,20.96959 80.13395,23.9446 4.22634,0.51656 7.97796,1.41437 8.3369,1.99515 2.52226,4.08109 -66.34825,46.6325 -75.47552,46.6323 -1.76678,-4e-5 -8.10642,-2.76422 -14.08808,-6.14262 z M 176.62087,713.09098 c -15.64443,-16.77737 -39.28753,-45.87161 -39.28753,-48.34561 0,-0.40996 11.33344,-0.74539 25.18542,-0.74539 97.29826,0 166.18357,-13.45346 208.94464,-40.80738 4.0834,-2.61212 7.67914,-4.49452 7.99056,-4.18311 0.9791,0.97909 -12.90174,18.47284 -23.26278,29.31764 -42.91117,44.91461 -88.78785,65.38721 -162.23697,72.39874 l -9.37914,0.89534 z m 515.37915,6.12145 c -58.84858,-7.76217 -95.64186,-23.06986 -132.70749,-55.21245 -14.8488,-12.87658 -41.00049,-42.73646 -39.09661,-44.64034 0.31331,-0.31331 4.4474,1.89448 9.18688,4.9062 40.99403,26.0499 112.47796,39.73036 207.61722,39.73337 13.38333,4.3e-4 24.33333,0.53269 24.33333,1.18283 0,1.21066 -15.85833,22.43634 -23.02501,30.81794 -2.19463,2.56667 -8.40471,9.31667 -13.80017,15 -11.15696,11.75221 -9.27536,11.27687 -32.50815,8.21245 z M 112.43613,624.34293 C 99.969095,602.04978 83.913854,559.79046 76.846458,530.66665 c -8.450644,-34.824 -11.731051,-62.83308 -11.711944,-100 0.03325,-64.68363 13.480097,-122.29882 42.165916,-180.66666 39.98933,-81.36742 102.9262,-144.16609 182.3396,-181.939204 68.82326,-32.73589 145.9583,-43.655187 221.02665,-31.288707 52.97536,8.726961 112.22594,33.072799 154.66667,63.551941 78.17638,56.14299 133.13492,136.93117 156.69736,230.34264 16.77859,66.51738 16.79102,134.94134 0.0365,201.33333 -7.88763,31.25589 -23.35591,71.8005 -35.10022,92.00279 l -5.03661,8.66387 -34.63188,0.41248 c -96.32159,1.14721 -167.15338,-11.628 -204.28746,-36.84527 -27.64513,-18.77345 -41.84791,-52.1765 -45.73689,-107.56721 -3.65544,-52.06424 11.30421,-88.30737 42.86633,-103.85338 11.86092,-5.84212 35.47955,-11.99632 54.56532,-14.21783 26.63667,-3.1004 62.76198,0.38934 90.29418,8.72251 6.31584,1.91161 7,2.49085 7,5.92659 0,6.55673 5.07921,20.61552 10.45048,28.9259 6.37625,9.86531 12.67144,15.19178 25.48037,21.55937 9.80578,4.87467 10.13411,4.93684 26.06915,4.93684 15.93504,0 16.26337,-0.0621 26.06915,-4.93684 12.53553,-6.23167 18.67752,-11.34203 25.06782,-20.8573 7.50832,-11.17999 9.77674,-18.01068 10.53627,-31.72701 0.82867,-14.96491 -2.32299,-26.88431 -10.21161,-38.61968 -6.14811,-9.14612 -19.06803,-19.37643 -29.46163,-23.32842 -9.07096,-3.44909 -25.11695,-4.70336 -34.48047,-2.69524 -15.06244,3.23032 -30.93314,14.3664 -40.93425,28.72256 -2.58256,3.70716 -2.92888,3.81399 -7.31476,2.25622 -7.71891,-2.74158 -34.70226,-7.90118 -50.07379,-9.5748 -48.0398,-5.2305 -106.65223,6.51249 -132.01224,26.44862 -10.03295,7.88715 -10.31735,7.82671 -5.75431,-1.22316 21.45729,-42.55626 66.21072,-72.51283 127.56188,-85.38601 l 13.67262,-2.86889 7.30114,8.06803 c 13.48934,14.90618 28.35195,21.72193 47.36751,21.72193 24.41619,0 46.01426,-13.57603 56.18906,-35.31908 19.35304,-41.35648 -10.63218,-88.68092 -56.18906,-88.68092 -31.21708,0 -57.30733,22.73315 -61.53473,53.61685 -0.7315,5.34407 -1.73544,10.06002 -2.23096,10.4799 -0.49554,0.41988 -7.50098,2.16713 -15.56764,3.88278 -51.66822,10.98896 -98.02014,37.10102 -124.11071,69.91695 -4.97859,6.2619 -9.25399,11.18326 -9.5009,10.93637 -0.67185,-0.67185 6.96899,-21.81819 11.67478,-32.31044 5.99246,-13.36105 16.4451,-31.17874 25.28502,-43.10114 8.84884,-11.93444 30.42527,-34.85896 41.5722,-44.16966 7.45782,-6.22929 7.68498,-6.31456 13.33334,-5.0049 3.16045,0.73278 11.45493,1.07516 18.43219,0.76082 10.83865,-0.48829 13.9929,-1.19529 21.66164,-4.85524 32.09878,-15.31933 45.64597,-53.0593 30.16612,-84.03723 -10.17554,-20.363027 -29.01527,-33.002688 -51.33188,-34.438769 -18.98894,-1.221945 -34.97646,4.79706 -48.60886,18.300339 -21.42119,21.21828 -23.7882,53.88504 -5.89508,81.35671 2.17008,3.33175 2.16272,3.34179 -15.64952,21.33333 -25.58351,25.84101 -44.23107,52.25737 -56.77212,80.42409 -2.83871,6.37565 -5.55765,11.98844 -6.04209,12.47288 -0.48444,0.48444 -0.8808,-28.33404 -0.8808,-64.04108 v -64.92189 l 3.04208,-1.1566 c 17.7859,-6.76219 29.43313,-17.07397 37.04284,-32.7956 4.30076,-8.88537 5.45702,-12.9478 6.11097,-21.47036 2.05871,-26.829762 -10.77019,-49.42155 -34.79784,-61.279322 l -10.60195,-5.232116 -16.73139,0.0016 c -16.32872,0.0016 -16.95601,0.111189 -26.06472,4.553956 -12.38842,6.042442 -24.06866,17.722686 -30.1111,30.11111 -4.44278,9.108712 -4.55238,9.736 -4.55395,26.064712 l -10e-4,16.73139 5.23212,10.60195 c 7.78792,15.78084 19.44173,25.99417 37.10121,32.51529 l 3.66667,1.35399 v 65.58856 c 0,36.0737 -0.36107,65.22748 -0.80238,64.78617 -0.4413,-0.44131 -3.63205,-6.99131 -7.09054,-14.55555 -14.47451,-31.6579 -39.58412,-65.91881 -64.94974,-88.62092 l -9.85906,-8.82382 2.77996,-4.15423 c 7.59822,-11.35432 10.92112,-20.78389 11.61548,-32.96193 0.84265,-14.77907 -1.8669,-25.95531 -8.94536,-36.89743 -15.3057,-23.659604 -42.25453,-34.473003 -68.72811,-27.57751 -17.55476,4.572433 -31.84492,16.47885 -40.29518,33.57351 -4.97361,10.0615 -5.05869,10.49268 -5.05869,25.63804 0,17.56622 1.74173,23.77667 10.17392,36.27696 6.38776,9.46952 12.56639,14.63117 24.78768,20.70776 8.44599,4.19945 11.14741,4.8618 22,5.39407 6.80445,0.33372 14.95588,0.007 18.11428,-0.72578 5.7259,-1.32868 5.77119,-1.30952 15.60736,6.60328 17.52794,14.1005 40.3907,40.81359 53.15662,62.10874 9.34921,15.59564 24.99564,52.64837 23.05257,54.59142 -0.33609,0.33609 -3.29691,-2.87561 -6.57959,-7.13713 -25.45873,-33.05001 -67.3325,-57.76125 -120.55068,-71.14135 -11.26593,-2.83248 -20.98264,-5.45842 -21.59269,-5.83546 -0.61004,-0.37703 -1.48535,-4.75483 -1.94511,-9.72846 -1.63095,-17.64292 -14.83667,-37.14686 -31.17068,-46.03694 -24.92447,-13.5656 -58.12016,-8.29345 -76.04662,12.07773 -28.27212,32.12776 -18.93236,79.83655 19.28558,98.51325 10.26498,5.01639 10.54293,5.06968 26.44317,5.06968 15.96671,0 16.13564,-0.0328 26.4975,-5.15397 9.90225,-4.89395 19.32434,-12.74493 25.4365,-21.19503 l 2.66352,-3.68233 20,5.19524 c 11,2.85739 26,7.43464 33.33334,10.17168 14.1052,5.26452 36.41957,16.93933 45.33333,23.71825 8.32199,6.32888 22.96982,20.84799 29.48792,29.22879 6.18498,7.95249 16.51208,25.2815 16.51208,27.70748 0,0.77288 -2.99337,-0.9609 -6.65194,-3.85283 -9.99338,-7.89931 -19.42835,-12.88357 -32.70922,-17.27947 -33.28944,-11.01864 -80.77969,-12.29573 -129.30551,-3.47725 -9.53333,1.73247 -19.28842,3.74016 -21.67798,4.46153 -4.26608,1.28787 -4.44,1.17119 -9.61682,-6.45201 -13.31656,-19.60951 -34.36607,-29.55136 -58.45071,-27.60676 -8.37453,0.67615 -12.26228,1.83709 -21.20627,6.33248 -16.84067,8.4644 -27.570121,21.5248 -32.607612,39.69156 -5.991271,21.60639 -0.207054,42.51073 16.389232,59.2312 12.33058,12.42285 22.5785,17.08594 39.55371,17.99801 15.26504,0.82019 26.30158,-1.82795 37.33269,-8.95771 14.31593,-9.25282 25.88344,-26.06837 27.78379,-40.38893 0.96631,-7.28184 1.83349,-8.22792 9.39457,-10.24924 29.13655,-7.78916 73.45971,-11.29764 101.1054,-8.00317 28.13913,3.35325 45.18951,10.07165 59.26967,23.35416 10.5562,9.95819 16.76288,20.72616 22.24408,38.59129 3.43868,11.20783 3.67018,13.52443 3.72575,37.28369 0.0611,26.13059 -1.45897,41.07956 -6.10107,60 -11.08142,45.1662 -31.58092,66.24656 -79.76792,82.02821 -39.31867,12.8772 -89.0058,18.63846 -160.74466,18.63846 h -37.82867 z"
       id="path162"
       inkscape:connector-curvature="0" />
  </g>
  <text
     xml:space="preserve"
     style="font-style:normal;font-variant:normal;font-weight:bold;font-stretch:normal;font-size:130.19px;line-height:1.25;font-family:'Liberation Sans';-inkscape-font-specification:'Liberation Sans, Bold';font-variant-ligatures:normal;font-variant-caps:normal;font-variant-numeric:normal;font-feature-settings:normal;text-align:start;letter-spacing:0px;word-spacing:0px;writing-mode:lr-tb;text-anchor:start;fill:#0000ff;fill-opacity:1;stroke:none;stroke-width:1.52567"
     x="190.0248"
     y="157.73203"
     id="text17"><tspan
       sodipodi:role="line"
       id="tspan15"
       x="190.0248"
       y="157.73203"
       style="fill:#0000ff;stroke-width:1.52567">Lino</tspan></text>
  <text
     xml:space="preserve"
     style="font-style:normal;font-variant:normal;font-weight:bold;font-stretch:normal;font-size:42.7307px;line-height:1.25;font-family:'Liberation Sans';-inkscape-font-specification:'Liberation Sans, Bold';font-variant-ligatures:normal;font-variant-caps:normal;font-variant-numeric:normal;font-feature-settings:normal;text-align:start;letter-spacing:0px;word-spacing:0px;writing-mode:lr-tb;text-anchor:start;fill:#000000;fill-opacity:1;stroke:none;stroke-width:1.06828"
     x="12.102945"
     y="210.15103"
     id="text21"><tspan
       sodipodi:role="line"
       id="tspan3736"
       x="12.102945"
       y="210.15103">database applications</tspan></text>
</svg>
