<?xml version="1.0" encoding="UTF-8" standalone="no"?>
<svg
   xmlns:dc="http://purl.org/dc/elements/1.1/"
   xmlns:cc="http://creativecommons.org/ns#"
   xmlns:rdf="http://www.w3.org/1999/02/22-rdf-syntax-ns#"
   xmlns:svg="http://www.w3.org/2000/svg"
   xmlns="http://www.w3.org/2000/svg"
   xmlns:sodipodi="http://sodipodi.sourceforge.net/DTD/sodipodi-0.dtd"
   xmlns:inkscape="http://www.inkscape.org/namespaces/inkscape"
   width="6.7679629mm"
   height="6.7679629mm"
   viewBox="0 0 23.980971 23.980971"
   id="svg4340"
   version="1.1"
   inkscape:version="1.0 (4035a4fb49, 2020-05-01)"
   sodipodi:docname="jsa.svg">
  <defs
     id="defs4342" />
  <sodipodi:namedview
     id="base"
     pagecolor="#ffffff"
     bordercolor="#666666"
     borderopacity="1.0"
     inkscape:pageopacity="0.0"
     inkscape:pageshadow="2"
     inkscape:zoom="7.919596"
     inkscape:cx="2.4359542"
     inkscape:cy="1.2580643"
     inkscape:document-units="px"
     inkscape:current-layer="layer1"
     showgrid="false"
     fit-margin-top="0"
     fit-margin-left="0"
     fit-margin-right="0"
     fit-margin-bottom="0"
     inkscape:window-width="1920"
     inkscape:window-height="1001"
     inkscape:window-x="-9"
     inkscape:window-y="-9"
     inkscape:window-maximized="1"
     inkscape:document-rotation="0"
     inkscape:pagecheckerboard="true" />
  <metadata
     id="metadata4345">
    <rdf:RDF>
      <cc:Work
         rdf:about="">
        <dc:format>image/svg+xml</dc:format>
        <dc:type
           rdf:resource="http://purl.org/dc/dcmitype/StillImage" />
        <dc:title />
      </cc:Work>
    </rdf:RDF>
  </metadata>
  <g
     inkscape:label="Ebene 1"
     inkscape:groupmode="layer"
     id="layer1"
     transform="translate(-290.86667,-503.22885)">
    <g
       id="g864"
       transform="matrix(0.33389283,0,0,0.33389283,201.68664,343.78913)"
       style="stroke-width:2.99497;fill:#000000">
      <path
         id="rect837-9-8-4-8-6"
         style="fill:#000000;fill-opacity:1;stroke:none;stroke-width:7.09949;stroke-linecap:round;stroke-linejoin:round"
         d="m 281.2664,489.67843 c -7.57329,0 -13.6699,6.09663 -13.6699,13.66992 v 25.22267 c 0,7.5733 6.09661,13.66993 13.6699,13.66993 h 38.99828 c 7.57329,0 13.66994,-6.09663 13.66994,-13.66993 v -25.22267 c 0,-0.009 -0.002,-0.0174 -0.002,-0.0259 a 10.841645,10.841645 0 0 1 -4.5513,1.00077 10.841645,10.841645 0 0 1 -10.02366,-6.71435 10.841645,10.841645 0 0 1 -10.02766,6.71435 10.841645,10.841645 0 0 1 -10.84104,-10.84105 10.841645,10.841645 0 0 1 0.68974,-3.80373 z m 0.0677,10.51808 h 7.6354 v 5.44246 h -7.6354 z m 35.47761,7.99423 c 4.08016,0 7.02401,0.6313 8.83152,1.89389 1.8208,1.24931 2.73121,3.21631 2.73121,5.90097 v 15.2309 h -7.11705 v -2.37235 c -0.38544,0.29239 -0.86389,0.64459 -1.43539,1.05659 -0.57147,0.412 -1.10973,0.73762 -1.61476,0.97685 -0.70441,0.31897 -1.43536,0.55155 -2.19295,0.69775 -0.75752,0.15945 -1.58822,0.23921 -2.49197,0.23921 -2.12648,0 -3.90742,-0.65789 -5.34278,-1.97364 -0.3904,-0.35787 -0.72255,-0.74433 -1.00672,-1.15627 -0.36309,0.36735 -0.7729,0.71489 -1.242,1.03666 -2.07333,1.40879 -4.91085,2.11318 -8.51255,2.11318 -1.99361,0 -3.80112,-0.18605 -5.42254,-0.5582 -1.17917,-0.2706 -2.18444,-0.56237 -3.02623,-0.87518 v 1.21409 c 0,2.52518 -0.77754,4.49219 -2.33249,5.90097 -1.55498,1.42208 -3.55521,2.13313 -6.00062,2.13313 -1.30249,0 -2.49201,-0.0598 -3.5685,-0.1794 -1.06324,-0.10634 -1.84079,-0.2193 -2.33249,-0.33892 v -5.14342 h 0.55818 c 0.39872,0.13295 0.89713,0.24587 1.4952,0.33892 0.59808,0.0931 1.0699,0.13957 1.41541,0.13957 1.38224,0 2.32586,-0.41201 2.83089,-1.23601 0.50503,-0.82401 0.75756,-2.17965 0.75756,-4.06689 v -15.47012 h -4.24634 v -4.86431 h 11.4232 v 3.91538 c 0.50829,-0.88239 1.26276,-1.67684 2.26867,-2.38033 2.04672,-1.43537 4.83775,-2.15306 8.37298,-2.15306 1.67464,0 3.27614,0.17281 4.80455,0.51833 1.51784,0.32712 2.70368,0.67993 3.56449,1.05859 v -0.48045 c 0.75756,-0.19935 1.98695,-0.43193 3.68809,-0.69775 1.7145,-0.27911 3.42897,-0.41866 5.14343,-0.41866 z m -17.18061,4.80451 c -1.15625,0 -2.13311,0.15948 -2.93056,0.47845 -0.7841,0.31897 -1.17617,0.77085 -1.17617,1.35564 0,0.53161 0.17929,0.93698 0.53827,1.21607 0.35865,0.27911 1.20277,0.55821 2.53183,0.8373 0.73095,0.14617 1.51512,0.2924 2.3524,0.43859 0.85061,0.13291 1.70122,0.30568 2.55179,0.51833 1.86895,0.48698 3.25417,1.25513 4.15856,2.30257 0.675,-0.73297 1.52908,-1.33785 2.5757,-1.80418 1.3291,-0.59807 2.97713,-1.02337 4.94405,-1.27588 1.967,-0.2525 4.00709,-0.43858 6.12029,-0.55821 v -0.11962 c 0,-1.23601 -0.50503,-2.08661 -1.51512,-2.55177 -1.01006,-0.47845 -2.4986,-0.71769 -4.4656,-0.71769 -1.18282,0 -2.44545,0.21264 -3.78776,0.63795 -1.34238,0.412 -2.30591,0.73098 -2.8907,0.95691 h -0.61405 v 0.75756 h -0.61796 c -1.06327,-0.73097 -2.27934,-1.3224 -3.64826,-1.77428 -1.35563,-0.46517 -2.73118,-0.69775 -4.12671,-0.69775 z m -10.6616,5.94483 v 5.35075 c 0.30969,0.21476 0.63167,0.43537 1.01275,0.68579 0.47845,0.29239 1.14963,0.61136 2.01348,0.95691 0.74428,0.30568 1.58822,0.57149 2.53184,0.79743 0.94362,0.21263 1.95371,0.31897 3.03024,0.31897 1.40878,0 2.45207,-0.15283 3.12991,-0.45852 0.67779,-0.31897 1.01671,-0.78414 1.01671,-1.39551 0,-0.5449 -0.19949,-0.93698 -0.59807,-1.1762 -0.3987,-0.25253 -1.15629,-0.49177 -2.27268,-0.71769 -0.5316,-0.11962 -1.25596,-0.24587 -2.17297,-0.37878 -0.90375,-0.14616 -1.72775,-0.31897 -2.47206,-0.51833 -2.03343,-0.53161 -3.54192,-1.35563 -4.52537,-2.47202 -0.27,-0.31008 -0.49794,-0.64168 -0.69378,-0.9928 z m 32.28789,1.77029 c -0.97023,0.0798 -2.02018,0.19272 -3.14986,0.33892 -1.12967,0.13294 -1.98691,0.29239 -2.57169,0.47846 -0.7177,0.22592 -1.26925,0.5582 -1.65466,0.99678 -0.37215,0.4253 -0.55824,0.99015 -0.55824,1.69454 0,0.46517 0.04,0.84395 0.11976,1.13633 0.0797,0.2924 0.27921,0.5715 0.59807,0.83731 0.30544,0.26582 0.67114,0.46517 1.09645,0.59807 0.4253,0.11962 1.08981,0.17939 1.99357,0.17939 0.71769,0 1.44202,-0.14619 2.173,-0.43858 0.74427,-0.29239 1.3955,-0.67782 1.95371,-1.15627 z" />
      <path
         id="path839-8-5-9-2-32-4"
         style="fill:#000000;fill-opacity:1;stroke:none;stroke-width:5.30605;stroke-linecap:round;stroke-linejoin:round;stroke-miterlimit:4;stroke-dasharray:none"
         d="m 329.38125,484.45926 a 9.0223357,9.0223357 0 0 0 -9.0209,9.02291 9.0223357,9.0223357 0 0 0 9.0209,9.0229 9.0223357,9.0223357 0 0 0 9.02293,-9.0229 9.0223357,9.0223357 0 0 0 -9.02293,-9.02291 z m -3.44487,4.60914 a 0.96444722,0.96444722 0 0 1 0.6778,0.28109 l 2.76909,2.76907 2.7691,-2.76907 a 0.96444731,0.96444731 0 0 1 0.62397,-0.27911 0.96444731,0.96444731 0 0 1 0.7396,0.27911 0.96444731,0.96444731 0 0 1 0,1.3636 l -2.7691,2.76907 2.7691,2.76907 a 0.96444722,0.96444722 0 0 1 0,1.3636 0.96444722,0.96444722 0 0 1 -1.36357,0 l -2.7691,-2.76907 -2.76909,2.76907 a 0.96444731,0.96444731 0 0 1 -1.36357,0 0.96444731,0.96444731 0 0 1 0,-1.3636 l 2.76906,-2.76907 -2.76906,-2.76907 a 0.96444722,0.96444722 0 0 1 0,-1.3636 0.96444722,0.96444722 0 0 1 0.63195,-0.27911 0.96444722,0.96444722 0 0 1 0.0539,-0.002 z" />
      <path
         id="path839-4-9-8-53-0-4-4"
         style="fill:#000000;fill-opacity:1;stroke:none;stroke-width:5.30605;stroke-linecap:round;stroke-linejoin:round;stroke-miterlimit:4;stroke-dasharray:none"
         d="m 309.32993,484.45926 a 9.0223357,9.0223357 0 0 0 -9.02091,9.02291 9.0223357,9.0223357 0 0 0 9.02091,9.0229 9.0223357,9.0223357 0 0 0 9.02292,-9.0229 9.0223357,9.0223357 0 0 0 -9.02292,-9.02291 z m -4.87627,8.06201 h 9.75055 a 0.96444731,0.96444731 0 0 1 0.96487,0.96488 0.96444731,0.96444731 0 0 1 -0.96487,0.96489 h -9.75055 a 0.96444731,0.96444731 0 0 1 -0.96491,-0.96489 0.96444731,0.96444731 0 0 1 0.96491,-0.96488 z" />
      <g
         transform="matrix(3.8577968,0,0,3.8577968,-196.04258,376.48591)"
         id="g2668"
         style="opacity:1;stroke-width:2.75082;fill:#000000">
        <path
           style="color:#000000;font-style:normal;font-variant:normal;font-weight:normal;font-stretch:normal;font-size:medium;line-height:normal;font-family:sans-serif;font-variant-ligatures:normal;font-variant-position:normal;font-variant-caps:normal;font-variant-numeric:normal;font-variant-alternates:normal;font-variant-east-asian:normal;font-feature-settings:normal;font-variation-settings:normal;text-indent:0;text-align:start;text-decoration:none;text-decoration-line:none;text-decoration-style:solid;text-decoration-color:#000000;letter-spacing:normal;word-spacing:normal;text-transform:none;writing-mode:lr-tb;direction:ltr;text-orientation:mixed;dominant-baseline:auto;baseline-shift:baseline;text-anchor:start;white-space:normal;shape-padding:0;shape-margin:0;inline-size:0;clip-rule:nonzero;display:inline;overflow:visible;visibility:visible;isolation:auto;mix-blend-mode:normal;color-interpolation:sRGB;color-interpolation-filters:linearRGB;solid-color:#000000;solid-opacity:1;vector-effect:none;fill:#000000;fill-opacity:1;fill-rule:evenodd;stroke:none;stroke-width:1.37541;stroke-linecap:round;stroke-linejoin:miter;stroke-miterlimit:4;stroke-dasharray:none;stroke-dashoffset:0;stroke-opacity:1;color-rendering:auto;image-rendering:auto;shape-rendering:auto;text-rendering:auto;enable-background:accumulate;stop-color:#000000;stop-opacity:1"
           d="m 129.73662,30.327226 h 2.52772"
           id="path2670" />
      </g>
      <g
         transform="matrix(3.8577968,0,0,3.8577968,-196.04258,376.48591)"
         id="g2680"
         style="opacity:1;stroke-width:2.75082;fill:#000000">
        <path
           style="color:#000000;font-style:normal;font-variant:normal;font-weight:normal;font-stretch:normal;font-size:medium;line-height:normal;font-family:sans-serif;font-variant-ligatures:normal;font-variant-position:normal;font-variant-caps:normal;font-variant-numeric:normal;font-variant-alternates:normal;font-variant-east-asian:normal;font-feature-settings:normal;font-variation-settings:normal;text-indent:0;text-align:start;text-decoration:none;text-decoration-line:none;text-decoration-style:solid;text-decoration-color:#000000;letter-spacing:normal;word-spacing:normal;text-transform:none;writing-mode:lr-tb;direction:ltr;text-orientation:mixed;dominant-baseline:auto;baseline-shift:baseline;text-anchor:start;white-space:normal;shape-padding:0;shape-margin:0;inline-size:0;clip-rule:nonzero;display:inline;overflow:visible;visibility:visible;isolation:auto;mix-blend-mode:normal;color-interpolation:sRGB;color-interpolation-filters:linearRGB;solid-color:#000000;solid-opacity:1;vector-effect:none;fill:#000000;fill-opacity:1;fill-rule:evenodd;stroke:none;stroke-width:1.37541;stroke-linecap:round;stroke-linejoin:miter;stroke-miterlimit:4;stroke-dasharray:none;stroke-dashoffset:0;stroke-opacity:1;color-rendering:auto;image-rendering:auto;shape-rendering:auto;text-rendering:auto;enable-background:accumulate;stop-color:#000000;stop-opacity:1"
           d="m 135.30446,29.433541 1.78736,1.78737"
           id="path2682" />
      </g>
      <g
         transform="matrix(3.8577968,0,0,3.8577968,-196.04258,376.48591)"
         id="g2674"
         style="opacity:1;stroke-width:2.75082;fill:#000000">
        <path
           style="color:#000000;font-style:normal;font-variant:normal;font-weight:normal;font-stretch:normal;font-size:medium;line-height:normal;font-family:sans-serif;font-variant-ligatures:normal;font-variant-position:normal;font-variant-caps:normal;font-variant-numeric:normal;font-variant-alternates:normal;font-variant-east-asian:normal;font-feature-settings:normal;font-variation-settings:normal;text-indent:0;text-align:start;text-decoration:none;text-decoration-line:none;text-decoration-style:solid;text-decoration-color:#000000;letter-spacing:normal;word-spacing:normal;text-transform:none;writing-mode:lr-tb;direction:ltr;text-orientation:mixed;dominant-baseline:auto;baseline-shift:baseline;text-anchor:start;white-space:normal;shape-padding:0;shape-margin:0;inline-size:0;clip-rule:nonzero;display:inline;overflow:visible;visibility:visible;isolation:auto;mix-blend-mode:normal;color-interpolation:sRGB;color-interpolation-filters:linearRGB;solid-color:#000000;solid-opacity:1;vector-effect:none;fill:#000000;fill-opacity:1;fill-rule:evenodd;stroke:none;stroke-width:1.37541;stroke-linecap:round;stroke-linejoin:miter;stroke-miterlimit:4;stroke-dasharray:none;stroke-dashoffset:0;stroke-opacity:1;color-rendering:auto;image-rendering:auto;shape-rendering:auto;text-rendering:auto;enable-background:accumulate;stop-color:#000000;stop-opacity:1"
           d="m 137.09182,29.433541 -1.78736,1.78737"
           id="path2676" />
      </g>
    </g>
  </g>
</svg>
