<svg width="32" height="32" viewBox="0 0 32 32" fill="none" xmlns="http://www.w3.org/2000/svg">
<path fill-rule="evenodd" clip-rule="evenodd" d="M8.07257 1C8.07257 1 13.7622 6.0431 16.0898 14.8362C17.7103 20.9579 17.3829 31 17.3829 31H13.7622C13.7622 31 7.94625 22.9362 6.77949 16.9052C5.54636 10.5312 8.07257 1 8.07257 1ZM11.3776 8.82897C11.3776 8.82897 9.0565 10.9218 10.3401 16.9409C11.6236 22.9601 15.9505 29.7616 15.9505 29.7616C15.9505 29.7616 15.7368 25.6189 14.962 19.1104C14.1872 12.602 11.3776 8.82897 11.3776 8.82897Z" fill="#003541"/>
<path d="M18.5468 17.5517C18.0344 14.4302 16.8657 11.0862 16.8657 11.0862C16.8657 11.0862 17.8256 8.24138 19.3226 5.52586C20.8196 2.81034 22.4261 1 22.4261 1C22.4261 1 25.9175 8.37069 25.5295 15.6121C25.2399 21.0182 23.0764 26.9289 21.9984 29.5776H18.9835C18.9835 29.5776 19.1929 21.4885 18.5468 17.5517Z" fill="#008393"/>
</svg>
