<?xml version="1.0" encoding="UTF-8" standalone="no"?>
<!-- Uploaded to: SVG Repo, www.svgrepo.com, Generator: SVG Repo Mixer Tools -->

<svg
    xmlns:inkscape="http://www.inkscape.org/namespaces/inkscape"
    xmlns:sodipodi="http://sodipodi.sourceforge.net/DTD/sodipodi-0.dtd"
    height="800px"
    width="800px"
    version="1.1"
    id="_x32_"
    viewBox="0 0 512 512"
    xml:space="preserve"
    sodipodi:docname="logo.svg"
    inkscape:version="1.2.2 (b0a8486541, 2022-12-01)"
    xmlns="http://www.w3.org/2000/svg"
><defs
   id="defs13">


</defs>
    <sodipodi:namedview
        id="namedview11"
        pagecolor="#ffffff"
        bordercolor="#000000"
        borderopacity="0.25"
        inkscape:showpageshadow="2"
        inkscape:pageopacity="0.0"
        inkscape:pagecheckerboard="0"
        inkscape:deskcolor="#d1d1d1"
        showgrid="false"
        inkscape:zoom="0.295"
        inkscape:cx="408.47458"
        inkscape:cy="405.08475"
        inkscape:window-width="1862"
        inkscape:window-height="1131"
        inkscape:window-x="58"
        inkscape:window-y="32"
        inkscape:window-maximized="1"
        inkscape:current-layer="_x32_"/>
    <style
        type="text/css"
        id="style2">
	.st0{fill:#000000;}
</style>
    <path
        class="st0"
        d="M 512,19.25 C 512,9.15 503.805,0.971 493.713,0.971 H 308.866 v 73.652 c 4.586,-2.558 9.865,-4.008 15.481,-4.008 17.623,0 31.919,14.287 31.919,31.923 0,17.619 -14.288,31.914 -31.919,31.914 -5.616,0 -10.895,-1.458 -15.481,-3.999 v 73.644 h 73.652 c -2.549,4.586 -4.008,9.864 -4.008,15.476 0,17.635 14.288,31.923 31.923,31.923 17.627,0 31.914,-14.288 31.914,-31.923 0,-5.612 -1.458,-10.89 -3.999,-15.476 H 512 Z"
        id="path4"
        style="fill:#212178"/>
    <path
        class="st0"
        d="m 429.616,275.37 h -92.794 c -3.25,0 -6.256,1.718 -7.901,4.504 l 0.09,-0.154 -0.106,0.171 c -0.839,1.426 -1.263,3.038 -1.263,4.643 0,1.531 0.391,3.078 1.157,4.464 l 5.849,10.532 c 1.311,2.37 1.954,4.863 1.963,7.583 -0.008,4.203 -1.621,8.08 -4.586,11.062 -2.981,2.965 -6.866,4.578 -11.062,4.594 -4.203,-0.017 -8.088,-1.629 -11.078,-4.594 l 0.012,0.017 c -2.974,-2.998 -4.582,-6.883 -4.59,-11.078 0.008,-2.713 0.651,-5.213 1.958,-7.591 l 5.853,-10.524 c 0.77,-1.386 1.157,-2.924 1.157,-4.464 0,-1.605 -0.424,-3.217 -1.276,-4.66 -1.649,-2.793 -4.655,-4.504 -7.9,-4.504 h -69.432 v -37.184 c 12.548,-0.196 24.4,-5.14 33.278,-14.035 9.09,-9.066 14.125,-21.227 14.116,-34.072 0.008,-12.862 -5.03,-25.023 -14.116,-34.081 -8.871,-8.896 -20.726,-13.832 -33.278,-14.027 V 81.416 c -0.004,-5.066 -4.11,-9.172 -9.176,-9.172 H 34.548 C 25.344,72.237 16.608,75.845 10.116,82.353 3.669,88.805 0.008,97.659 0,106.798 v 369.686 c -0.008,9.196 3.608,17.928 10.116,24.428 6.452,6.443 15.293,10.108 24.432,10.117 h 369.726 c 9.115,-0.008 17.961,-3.674 24.404,-10.117 6.509,-6.5 10.117,-15.224 10.109,-24.428 V 284.542 c 0.001,-5.066 -4.105,-9.172 -9.171,-9.172 z M 28.37,106.798 c 0,-2.118 0.986,-3.559 1.792,-4.366 0.835,-0.831 2.272,-1.825 4.386,-1.825 h 172.747 v 73.603 c 0,1.776 0.941,3.413 2.468,4.317 0.782,0.456 1.657,0.685 2.537,0.685 0.839,0 1.674,-0.204 2.432,-0.627 l 10.528,-5.849 c 2.969,-1.646 6.203,-2.485 9.608,-2.485 5.29,0 10.271,2.061 14.014,5.8 3.747,3.755 5.808,8.74 5.808,14.027 0,5.286 -2.061,10.264 -5.8,14.01 -3.751,3.747 -8.732,5.808 -14.022,5.808 -3.409,0 -6.639,-0.839 -9.604,-2.485 l -10.536,-5.849 c -0.753,-0.423 -1.592,-0.627 -2.427,-0.627 -0.88,0 -1.756,0.228 -2.537,0.693 -1.527,0.896 -2.468,2.533 -2.468,4.309 v 73.603 h -45.575 c 0.09,-1.133 0.134,-2.264 0.134,-3.38 0,-11.77 -4.582,-22.824 -12.894,-31.124 -8.304,-8.317 -19.358,-12.894 -31.128,-12.894 -11.766,0 -22.819,4.578 -31.12,12.886 -8.32,8.3 -12.902,19.362 -12.898,31.124 0,1.124 0.044,2.249 0.134,3.389 H 28.37 Z M 207.296,482.666 H 34.548 c -2.114,0 -3.551,-0.994 -4.366,-1.8 -0.826,-0.831 -1.812,-2.273 -1.812,-4.382 V 303.725 h 73.599 c 1.772,0 3.413,-0.937 4.313,-2.46 0.9,-1.532 0.925,-3.422 0.062,-4.969 L 100.5,285.764 c -1.65,-2.974 -2.485,-6.207 -2.489,-9.604 0.004,-5.287 2.07,-10.271 5.8,-14.019 3.758,-3.738 8.74,-5.808 14.022,-5.808 5.282,0 10.264,2.07 14.01,5.8 3.743,3.755 5.808,8.74 5.812,14.018 -0.004,3.413 -0.844,6.647 -2.477,9.604 l -5.857,10.532 c -0.864,1.556 -0.838,3.446 0.062,4.969 0.9,1.531 2.542,2.468 4.313,2.468 h 73.599 v 45.59 c -1.133,-0.089 -2.26,-0.13 -3.376,-0.13 -11.774,0 -22.828,4.578 -31.12,12.886 -8.324,8.308 -12.902,19.362 -12.894,31.124 -0.008,11.762 4.57,22.824 12.887,31.124 8.3,8.317 19.354,12.894 31.128,12.894 1.124,0 2.252,-0.041 3.376,-0.13 z m 203.128,-6.182 c 0,2.109 -0.993,3.543 -1.808,4.366 -0.831,0.823 -2.265,1.817 -4.374,1.817 H 231.496 v -73.603 c 0,-1.776 -0.936,-3.413 -2.468,-4.309 -0.782,-0.465 -1.658,-0.692 -2.537,-0.692 -0.835,0 -1.674,0.204 -2.428,0.627 l -10.544,5.849 c -2.961,1.645 -6.191,2.484 -9.6,2.484 -5.282,0 -10.264,-2.068 -14.01,-5.8 -3.743,-3.747 -5.808,-8.732 -5.812,-14.019 0.004,-5.294 2.07,-10.271 5.808,-14.018 3.744,-3.739 8.724,-5.808 14.015,-5.816 3.385,0 6.618,0.839 9.6,2.484 l 10.54,5.857 c 0.758,0.424 1.592,0.628 2.432,0.628 0.879,0 1.755,-0.229 2.537,-0.684 1.527,-0.904 2.468,-2.542 2.468,-4.318 v -73.611 h 45.578 c -0.089,1.132 -0.134,2.265 -0.134,3.388 -0.004,11.754 4.574,22.808 12.886,31.116 8.308,8.325 19.366,12.903 31.132,12.903 11.766,0 22.82,-4.578 31.129,-12.894 8.316,-8.3 12.886,-19.354 12.886,-31.124 0,-1.124 -0.041,-2.248 -0.13,-3.388 h 45.582 v 172.757 z"
        id="path6"
        style="fill:#212178"/>
</svg>
