<svg width="49" height="42" viewBox="0 0 49 42" fill="none" xmlns="http://www.w3.org/2000/svg">
<g filter="url(#filter0_f_4930_10705)">
<path d="M5.80798 28.7568C5.80798 22.236 11.0942 16.9497 17.6151 16.9497H30.3819C35.9053 16.9497 40.3829 21.4273 40.3829 26.9507V28.6652C40.3829 33.7152 36.2891 37.809 31.2391 37.809H14.8601C9.86076 37.809 5.80798 33.7562 5.80798 28.7568Z" fill="black"/>
</g>
<path d="M21.6577 12.7083C21.598 12.096 22.0793 11.5656 22.6945 11.5656C23.3098 11.5656 23.791 12.096 23.7314 12.7083L23.5831 14.2308C23.5386 14.6882 23.1541 15.037 22.6945 15.037C22.235 15.037 21.8505 14.6882 21.8059 14.2308L21.6577 12.7083Z" fill="#008D9C"/>
<path d="M0.692322 24.569C0.692322 23.9117 1.22512 23.3789 1.88236 23.3789H4.6655C5.32274 23.3789 5.85554 23.9117 5.85554 24.569V29.8091C5.85554 30.4664 5.32274 30.9991 4.6655 30.9991H1.88236C1.22512 30.9991 0.692322 30.4664 0.692322 29.8091V24.569Z" fill="#0099A9"/>
<g filter="url(#filter1_f_4930_10705)">
<rect x="3.8078" y="24.0933" width="1.28584" height="6.28634" fill="black"/>
</g>
<path d="M39.5335 24.5669C39.5335 23.9096 40.0663 23.3768 40.7235 23.3768H43.5067C44.1639 23.3768 44.6967 23.9096 44.6967 24.5669V29.807C44.6967 30.4642 44.1639 30.997 43.5067 30.997H40.7235C40.0663 30.997 39.5335 30.4642 39.5335 29.807V24.5669Z" fill="#0099A9"/>
<g filter="url(#filter2_f_4930_10705)">
<rect x="40.9543" y="24.0933" width="0.714357" height="6.28634" fill="black"/>
</g>
<path d="M2.93976 26.0897C2.93976 19.6023 8.19885 14.3432 14.6863 14.3432H30.7028C37.1902 14.3432 42.4493 19.6023 42.4493 26.0897V28.2841C42.4493 34.7715 37.1902 40.0306 30.7028 40.0306H14.6863C8.19885 40.0306 2.93976 34.7715 2.93976 28.2841V26.0897Z" fill="#00B5C8"/>
<path d="M7.41571 24.8138C7.41571 20.9475 10.55 17.8131 14.4164 17.8131H30.9726C34.839 17.8131 37.9733 20.9475 37.9733 24.8138V29.56C37.9733 33.4264 34.839 36.5607 30.9726 36.5607H14.4164C10.55 36.5607 7.41571 33.4264 7.41571 29.56V24.8138Z" fill="#F7F9FC"/>
<g filter="url(#filter3_f_4930_10705)">
<path d="M24.1058 10.4729C24.1058 11.0076 23.5785 11.4411 22.928 11.4411C22.2775 11.4411 21.7502 11.0076 21.7502 10.4729C21.7502 9.93824 22.2775 9.50479 22.928 9.50479C23.5785 9.50479 24.1058 9.93824 24.1058 10.4729Z" fill="black"/>
</g>
<path d="M25.4012 10.2526C25.4012 11.7475 24.1894 12.9593 22.6945 12.9593C21.1996 12.9593 19.9877 11.7475 19.9877 10.2526C19.9877 8.75766 21.1996 7.54581 22.6945 7.54581C24.1894 7.54581 25.4012 8.75766 25.4012 10.2526Z" fill="#01AABC"/>
<circle cx="16.1879" cy="24.1493" r="2.53326" fill="#00B5C8"/>
<circle cx="29.2011" cy="24.1493" r="2.53326" fill="#00B5C8"/>
<path d="M20.1077 30.0971C20.1498 29.8238 20.4393 29.6831 20.7011 29.7722L25.013 31.2397C25.2748 31.3288 25.4183 31.6171 25.2819 31.8577C24.604 33.0528 23.0805 33.6112 21.7752 33.0582C20.5733 32.549 19.9167 31.3377 20.1077 30.0971Z" fill="#00B5C8"/>
<path d="M2.37418 15.5825L1.93947 15.6989C1.98425 15.866 2.12085 15.9927 2.29086 16.0247C2.46086 16.0568 2.63419 15.9885 2.7367 15.8491L2.37418 15.5825ZM4.01799 13.348L3.65548 13.0813L3.65548 13.0813L4.01799 13.348ZM2.65949 8.33114C2.41941 8.39547 2.27693 8.64225 2.34126 8.88233C2.40559 9.12241 2.65237 9.26489 2.89245 9.20056L2.65949 8.33114ZM5.01556 8.63167C5.25564 8.56734 5.39812 8.32057 5.33379 8.08048C5.26946 7.8404 5.02268 7.69792 4.7826 7.76225L5.01556 8.63167ZM3.12912 10.0838C2.88903 10.1481 2.74656 10.3949 2.81089 10.635C2.87522 10.8751 3.12199 11.0176 3.36208 10.9532L3.12912 10.0838ZM6.52901 10.1047C6.7691 10.0403 6.91157 9.79355 6.84724 9.55346C6.78291 9.31338 6.53614 9.1709 6.29605 9.23523L6.52901 10.1047ZM1.71191 7.10166L6.71954 5.75987L6.48658 4.89045L1.47895 6.23224L1.71191 7.10166ZM8.07318 6.54139L9.01243 10.0467L9.88185 9.81377L8.9426 6.30843L8.07318 6.54139ZM2.80889 15.466L0.930387 8.4553L0.0609669 8.68826L1.93947 15.6989L2.80889 15.466ZM8.23091 11.4004L4.75178 12.3326L4.98474 13.202L8.46387 12.2698L8.23091 11.4004ZM3.65548 13.0813L2.01167 15.3158L2.7367 15.8491L4.38051 13.6147L3.65548 13.0813ZM4.75178 12.3326C4.31194 12.4505 3.92531 12.7145 3.65548 13.0813L4.38051 13.6147C4.52923 13.4125 4.74232 13.267 4.98474 13.202L4.75178 12.3326ZM9.01243 10.0467C9.17042 10.6363 8.82052 11.2424 8.23091 11.4004L8.46387 12.2698C9.53364 11.9831 10.1685 10.8835 9.88185 9.81377L9.01243 10.0467ZM6.71954 5.75987C7.30915 5.60189 7.91519 5.95178 8.07318 6.54139L8.9426 6.30843C8.65595 5.23866 7.55636 4.6038 6.48658 4.89045L6.71954 5.75987ZM1.47895 6.23224C0.409174 6.51889 -0.225679 7.61848 0.0609669 8.68826L0.930387 8.4553C0.772402 7.86569 1.1223 7.25965 1.71191 7.10166L1.47895 6.23224ZM2.89245 9.20056L5.01556 8.63167L4.7826 7.76225L2.65949 8.33114L2.89245 9.20056ZM3.36208 10.9532L6.52901 10.1047L6.29605 9.23523L3.12912 10.0838L3.36208 10.9532Z" fill="#00B5C8"/>
<path d="M45.0383 16.5247L45.6662 16.693C45.6015 16.9343 45.4042 17.1173 45.1586 17.1635C44.9131 17.2098 44.6627 17.1112 44.5146 16.9099L45.0383 16.5247ZM42.5702 13.1697L42.0465 13.555L42.5702 13.1697ZM42.1672 5.00926C42.514 5.10218 42.7198 5.45864 42.6268 5.80542C42.5339 6.15221 42.1775 6.35801 41.8307 6.26509L42.1672 5.00926ZM38.6429 5.41094C38.2962 5.31801 38.0904 4.96156 38.1833 4.61477C38.2762 4.26799 38.6327 4.06219 38.9794 4.15511L38.6429 5.41094ZM43.0248 8.05955C43.3716 8.15247 43.5774 8.50892 43.4845 8.85571C43.3916 9.2025 43.0351 9.4083 42.6883 9.31537L43.0248 8.05955ZM37.9333 8.04128C37.5865 7.94836 37.3807 7.5919 37.4737 7.24511C37.5666 6.89833 37.923 6.69253 38.2698 6.78545L37.9333 8.04128ZM46.0393 3.76645L38.5206 1.75181L38.8571 0.495986L46.3758 2.51062L46.0393 3.76645ZM36.4567 2.94337L35.0465 8.20646L33.7907 7.86996L35.2009 2.60687L36.4567 2.94337ZM44.4103 16.3565L47.2308 5.83028L48.4867 6.16678L45.6662 16.693L44.4103 16.3565ZM36.2381 10.2703L41.4618 11.67L41.1253 12.9258L35.9016 11.5261L36.2381 10.2703ZM43.0938 12.7845L45.5619 16.1395L44.5146 16.9099L42.0465 13.555L43.0938 12.7845ZM41.4618 11.67C42.1166 11.8454 42.6921 12.2385 43.0938 12.7845L42.0465 13.555C41.8198 13.2467 41.4949 13.0249 41.1253 12.9258L41.4618 11.67ZM35.0465 8.20646C34.8056 9.10541 35.3391 10.0294 36.2381 10.2703L35.9016 11.5261C34.309 11.0994 33.364 9.46249 33.7907 7.86996L35.0465 8.20646ZM38.5206 1.75181C37.6216 1.51094 36.6976 2.04442 36.4567 2.94337L35.2009 2.60687C35.6276 1.01435 37.2645 0.0692697 38.8571 0.495986L38.5206 1.75181ZM46.3758 2.51062C47.9683 2.93733 48.9134 4.57425 48.4867 6.16678L47.2308 5.83028C47.4717 4.93133 46.9382 4.00732 46.0393 3.76645L46.3758 2.51062ZM41.8307 6.26509L38.6429 5.41094L38.9794 4.15511L42.1672 5.00926L41.8307 6.26509ZM42.6883 9.31537L37.9333 8.04128L38.2698 6.78545L43.0248 8.05955L42.6883 9.31537Z" fill="#00B5C8"/>
<defs>
<filter id="filter0_f_4930_10705" x="2.37907" y="13.5208" width="41.4327" height="27.717" filterUnits="userSpaceOnUse" color-interpolation-filters="sRGB">
<feFlood flood-opacity="0" result="BackgroundImageFix"/>
<feBlend mode="normal" in="SourceGraphic" in2="BackgroundImageFix" result="shape"/>
<feGaussianBlur stdDeviation="1.71446" result="effect1_foregroundBlur_4930_10705"/>
</filter>
<filter id="filter1_f_4930_10705" x="2.66072" y="22.9462" width="3.57998" height="8.5805" filterUnits="userSpaceOnUse" color-interpolation-filters="sRGB">
<feFlood flood-opacity="0" result="BackgroundImageFix"/>
<feBlend mode="normal" in="SourceGraphic" in2="BackgroundImageFix" result="shape"/>
<feGaussianBlur stdDeviation="0.573538" result="effect1_foregroundBlur_4930_10705"/>
</filter>
<filter id="filter2_f_4930_10705" x="39.8073" y="22.9462" width="3.00851" height="8.5805" filterUnits="userSpaceOnUse" color-interpolation-filters="sRGB">
<feFlood flood-opacity="0" result="BackgroundImageFix"/>
<feBlend mode="normal" in="SourceGraphic" in2="BackgroundImageFix" result="shape"/>
<feGaussianBlur stdDeviation="0.573538" result="effect1_foregroundBlur_4930_10705"/>
</filter>
<filter id="filter3_f_4930_10705" x="18.3213" y="6.07588" width="9.21336" height="8.79411" filterUnits="userSpaceOnUse" color-interpolation-filters="sRGB">
<feFlood flood-opacity="0" result="BackgroundImageFix"/>
<feBlend mode="normal" in="SourceGraphic" in2="BackgroundImageFix" result="shape"/>
<feGaussianBlur stdDeviation="1.71446" result="effect1_foregroundBlur_4930_10705"/>
</filter>
</defs>
</svg>
