<?xml version="1.0" encoding="UTF-8"?>
<svg id="_Слой_2" data-name="Слой 2" xmlns="http://www.w3.org/2000/svg" viewBox="0 0 1000 1000">
  <defs>
    <style>
      .cls-1 {
        fill: #fff;
      }

      .cls-2 {
        fill: none;
      }
    </style>
  </defs>
  <g id="_Слой_1-2" data-name="Слой 1">
    <g>
      <rect class="cls-2" width="1000" height="1000"/>
      <path class="cls-1" d="M886.83,498.54l-77.55-62.06c13.49-37.7,38.39-124.43,5.21-175.9-11.3-17.47-34.27-38.23-79.38-38.23s-68.7,21.18-80.05,38.49c-33.39,51.79-7.76,138.73,5.89,176.17l-24.27,20.65-57.29-42.36c16.67-44.64,51.3-155.94,10.42-219-12.55-19.96-38.54-43.53-89.79-43.53s-77.24,23.56-90,43.37c-40.68,63.06-6.04,174.36,10.42,219l-57.29,42.36-24.06-20.28c13.65-37.44,39.27-124.38,5.88-176.17-11.35-17.58-34.43-38.49-80.05-38.49s-68.07,20.76-79.38,38.23c-33.18,51.47-8.44,138.2,5.21,175.69l-77.55,62.06c-3.46,2.74-6.1,6.43-7.6,10.62-1.5,4.2-1.81,8.73-.89,13.1,19.37,91.98,69.18,174.41,141.13,233.55,71.94,59.14,161.67,91.4,254.19,91.4s182.24-32.26,254.19-91.4c71.95-59.14,121.76-141.58,141.13-233.55,.92-4.37,.61-8.91-.89-13.1-1.5-4.2-4.13-7.88-7.6-10.62Zm-732.92,27.96l79.53-63.54c4.06-3.25,6.95-7.77,8.23-12.87,1.28-5.09,.88-10.47-1.15-15.3-16.98-40.45-36.2-116.49-15.63-148.26,2.71-4.13,10.89-16.73,40.21-16.73s38.07,12.76,40.78,16.94c20.52,31.77,.88,107.54-16.25,147.84-2.16,4.8-2.69,10.19-1.5,15.33,1.19,5.14,4.03,9.73,8.06,13.05l27.97,23.56-28.33,21.18c-2.87,2.19-5.21,5.03-6.84,8.29-1.63,3.26-2.49,6.85-2.54,10.51v200.05c-65.34-49.35-112.11-119.94-132.55-200.05Zm179.43,230.55v-218.16l129.69-96.1c4.32-3.18,7.44-7.76,8.85-12.99s1.03-10.79-1.09-15.76c-15-35.21-51.09-145.93-21.51-191.73,9.48-14.72,26.04-21.82,50.73-21.82s41.25,7.1,50.73,21.82c29.58,45.8-6.51,156.52-21.51,191.73-2.12,4.98-2.5,10.54-1.09,15.76,1.41,5.23,4.53,9.81,8.85,12.99l129.69,96.1v218.16c-51.34,27.91-108.66,42.52-166.88,42.52s-115.54-14.6-166.88-42.52h.42Zm380.68-30.29v-200.26c0-3.76-.88-7.46-2.55-10.81s-4.1-6.25-7.09-8.46l-28.33-21.18,27.76-23.09c3.92-3.29,6.68-7.78,7.87-12.81,1.18-5.02,.73-10.31-1.31-15.04-11.56-27.01-39.32-112.1-16.25-147.84,2.71-4.18,10.94-16.94,40.78-16.94s37.5,12.6,40.21,16.73c20.83,31.77,1.35,107.7-15.62,148.26-2.03,4.83-2.43,10.21-1.15,15.3,1.28,5.09,4.17,9.61,8.23,12.87l79.53,63.54c-20.44,79.95-67.11,150.41-132.29,199.73h.21Z"/>
    </g>
  </g>
</svg>