<?xml version="1.0" encoding="utf-8"?>
<!-- Generator: Adobe Illustrator 25.4.1, SVG Export Plug-In . SVG Version: 6.00 Build 0)  -->
<svg version="1.1" id="Layer_1" xmlns="http://www.w3.org/2000/svg" xmlns:xlink="http://www.w3.org/1999/xlink" x="0px" y="0px"
	 viewBox="0 0 428 66.8" style="enable-background:new 0 0 428 66.8;" xml:space="preserve">
<style type="text/css">
	.st0{fill:#46BEAA;}
</style>
<g>
	<g>
		<path class="st0" d="M353.7,22.2c-1.5,1.3-2.9,2.8-4.2,4.3c6.3,6.4,10.9,16.1,12.5,27.4h6.1c-1.2-9.9-4.6-19.1-9.9-26.4
			C356.7,25.5,355.3,23.8,353.7,22.2z"/>
		<path class="st0" d="M346.3,30.8c-1.2,1.8-2.2,3.7-3.1,5.6c3.6,4.5,6.3,10.6,7.5,17.5h6.1c-1.2-7.4-3.8-14.2-7.8-19.8
			C348.1,32.9,347.2,31.8,346.3,30.8z"/>
		<path class="st0" d="M339.3,53.9h6.1c-0.9-4.2-2.4-8.1-4.6-11.5C339.9,46,339.3,49.9,339.3,53.9z"/>
		<path class="st0" d="M406.1,19.7c-0.8-0.6-1.6-1.1-2.5-1.6c-0.4,0.4-0.8,0.8-1.1,1.2c-4.9,5.4-10.4,13.8-13.4,25.5
			c-0.9-4.7-2.2-9.3-3.8-13.6c3.2-7.1,7.1-12.6,10.8-16.7c-1-0.4-2-0.7-3-1c-3.1,3.6-6.4,8.3-9.3,14c-2-4.8-4.5-9.2-7.4-13.2
			c-0.5-0.7-1-1.3-1.4-1.9c-2.2,0.3-4.4,0.9-6.5,1.6c5.1,5.8,9.2,13.3,12,21.7c-1,3-1.9,6.2-2.6,9.6c-2-9.1-5.6-17.4-10.5-24.3
			c-1.3-1.8-2.6-3.4-4-4.9c-1.9,0.9-3.7,1.9-5.4,3.1c8,8.1,13.6,20.5,15.2,34.9h6.3c0.5-4.9,1.3-9.3,2.5-13.4
			c1.1,4.3,1.9,8.7,2.4,13.4h6.1c1.8-15.7,8.5-26.3,14.2-32.7C405.1,20.7,405.6,20.2,406.1,19.7z"/>
		<path class="st0" d="M414,27.2c-0.6-0.8-1.3-1.5-1.9-2.2c-6.5,6.6-11.9,16.3-13.6,28.9h2.9c1.7-12.3,7.1-20.6,11.7-25.7
			C413.4,27.8,413.7,27.5,414,27.2z"/>
		<path class="st0" d="M409.5,53.9h2.9c1.4-7.6,4.5-13.2,7.6-17c-0.4-1-0.9-1.9-1.4-2.9C414.4,38.9,410.9,45.6,409.5,53.9z"/>
		<path class="st0" d="M423,47.1c-1,2.1-1.8,4.3-2.4,6.8h3C423.6,51.6,423.4,49.3,423,47.1z"/>
	</g>
	<g>
		<polygon class="st0" points="157.3,13.4 148.2,13.4 148.2,53.9 173.2,53.9 173.2,45.9 157.3,45.9 		"/>
		<polygon class="st0" points="223.4,13.4 220.1,13.4 220.1,53.9 241.9,53.9 241.9,50.9 223.4,50.9 		"/>
		<rect x="245.7" y="13.4" class="st0" width="3.3" height="40.5"/>
		<polygon class="st0" points="302.1,50.9 302.1,34.6 320,34.6 320,31.7 302.1,31.7 302.1,16.4 321.4,16.4 321.4,13.4 298.8,13.4 
			298.8,53.9 322,53.9 322,50.9 		"/>
		<polygon class="st0" points="287.9,50.9 287.2,50.9 263.7,13.4 257.8,13.4 257.8,53.9 261.1,53.9 261.1,16.4 261.9,16.4 
			285.4,53.9 291.1,53.9 291.1,13.4 287.9,13.4 		"/>
		<polygon class="st0" points="44.8,45.9 44.1,45.9 37.5,14.5 28,14.5 22,45.9 21.2,45.9 13,13.4 3.7,13.4 13.7,53.9 27.7,53.9 
			32.7,29.2 38.1,53.9 52.3,53.9 61.2,13.4 51.8,13.4 		"/>
		<path class="st0" d="M208.4,19.1c-4.3-4.2-10-6-16.5-6c0,0-15,0-15,0v41h15c3.7,0,6.9-0.6,9.6-1.7c5.2-2.1,9.1-6,11-11
			c1.1-2.7,1.4-5.6,1.4-8.5C213.9,27.7,212.1,22.7,208.4,19.1z M203.6,39c-1.1,3-3.3,5.1-6.3,6.3c-1.5,0.6-3.2,0.9-5.2,0.9H186V21
			h6.1c1.9,0,3.6,0.3,5.2,0.8c3,1,5.1,3.1,6.3,6.1C204.7,31.1,204.7,35.8,203.6,39z"/>
		<path class="st0" d="M92.3,14c-5.2-2.4-13.6-2.4-18.8,0c-5.1,2.3-9,6.4-10.9,11.5c-1.1,2.9-1.4,5.7-1.4,8.7
			c0.1,7.7,4.7,15.6,12.1,18.9c5.2,2.6,13.9,2.6,19.1,0c7.3-3.3,12-11.2,12.1-18.9c0.2-5.5-1.6-11.2-5.5-15.4
			C97.3,16.8,95,15.2,92.3,14z M83,46.7c-7.7,0-12.1-6.1-12.1-13.1c0-7.3,4.2-13.1,12.1-13.1c6.8,0,12.1,4.7,12.1,13.1
			C95.1,40.7,90.6,46.7,83,46.7z"/>
		<path class="st0" d="M139.6,35c1.5-2.1,2.1-5.2,2-8.3c0-3-0.7-5.5-2-7.5c-3.1-4.6-8.6-6-14.5-6.1c0,0-15.9,0-15.9,0v40.8h9.1V41.4
			c0.2,0,6.7,0,6.9,0l8.6,12.5h10.5L134,39.4C136.4,38.4,138.3,37,139.6,35z M131.3,30.7c-1.2,2.1-3.2,3.1-5.7,3.1h-7.3V21h7.3
			c1.3,0,2.5,0,3.4,0.6c1,0.5,1.7,1.3,2.3,2.3C132.4,25.7,132.5,28.8,131.3,30.7z"/>
	</g>
</g>
</svg>
