<?xml version="1.0" encoding="UTF-8" standalone="no"?>
<!-- Created with Inkscape (http://www.inkscape.org/) -->

<svg
   width="45.187077mm"
   height="44.796684mm"
   viewBox="0 0 45.187077 44.796685"
   version="1.1"
   id="svg1"
   inkscape:version="1.3.2 (091e20e, 2023-11-25, custom)"
   sodipodi:docname="apply_rules.svg"
   xmlns:inkscape="http://www.inkscape.org/namespaces/inkscape"
   xmlns:sodipodi="http://sodipodi.sourceforge.net/DTD/sodipodi-0.dtd"
   xmlns="http://www.w3.org/2000/svg"
   xmlns:svg="http://www.w3.org/2000/svg">
  <sodipodi:namedview
     id="namedview1"
     pagecolor="#ffffff"
     bordercolor="#000000"
     borderopacity="0.25"
     inkscape:showpageshadow="2"
     inkscape:pageopacity="0.0"
     inkscape:pagecheckerboard="0"
     inkscape:deskcolor="#d1d1d1"
     inkscape:document-units="mm"
     inkscape:zoom="3.8377946"
     inkscape:cx="96.670103"
     inkscape:cy="90.286228"
     inkscape:window-width="2560"
     inkscape:window-height="1334"
     inkscape:window-x="-11"
     inkscape:window-y="-11"
     inkscape:window-maximized="1"
     inkscape:current-layer="layer1" />
  <defs
     id="defs1" />
  <g
     inkscape:label="Calque 1"
     inkscape:groupmode="layer"
     id="layer1"
     transform="translate(-146.42195,-49.022257)">
    <rect
       x="169.97641"
       y="52.887367"
       fill="#333333"
       width="5.5855713"
       height="5.5855713"
       id="rect1"
       style="stroke-width:0.797938" />
    <path
       fill="#333333"
       d="m 150.58012,52.963963 c -1.50252,0.35588 -2.42971,1.863986 -2.07224,3.364112 0.35907,1.500123 1.86478,2.427328 3.36492,2.067458 1.49772,-0.354285 2.42493,-1.859996 2.06825,-3.360119 -0.35508,-1.50252 -1.86239,-2.429726 -3.36093,-2.071451 z"
       id="path1"
       style="stroke-width:0.797938" />
    <path
       fill="#333333"
       d="m 156.96283,52.963963 c -1.50171,0.35668 -2.42893,1.863986 -2.07143,3.364112 0.35825,1.500123 1.86397,2.427328 3.36488,2.067458 1.49776,-0.355084 2.42494,-1.860792 2.06826,-3.360119 -0.35508,-1.501721 -1.86236,-2.428926 -3.36171,-2.071451 z"
       id="path2"
       style="stroke-width:0.797938" />
    <polygon
       fill="#666666"
       points="23,25 28,25 28,27.5 33,24 28,20.5 28,23 23,23 "
       id="polygon3"
       transform="matrix(0.79793872,0,0,0.79793872,142.8465,36.529618)" />
    <path
       style="fill:none;stroke:#000000;stroke-width:1.0782;stroke-linejoin:bevel;stroke-dasharray:none;stroke-opacity:1"
       d="m 146.42276,49.561356 44.82058,-0.07133 -0.17337,43.789821 -43.93169,-0.0975 -0.0975,-43.319156"
       id="path3"
       sodipodi:nodetypes="ccccc" />
    <path
       style="fill:none;stroke:#000000;stroke-width:1;stroke-linejoin:bevel;stroke-dasharray:none;stroke-opacity:1"
       d="m 184.43389,53.016017 -2.11961,6.089495"
       id="path4"
       sodipodi:nodetypes="cc" />
    <path
       style="fill:none;stroke:#000000;stroke-width:1;stroke-linejoin:bevel;stroke-dasharray:none;stroke-opacity:1"
       d="m 180.54748,55.441638 1.8877,3.109891"
       id="path5"
       sodipodi:nodetypes="cc" />
    <path
       style="fill:none;stroke:#000000;stroke-width:1;stroke-linejoin:bevel;stroke-dasharray:none;stroke-opacity:1"
       d="m 181.20915,61.689339 4.63019,5.138889"
       id="path4-3"
       sodipodi:nodetypes="cc" />
    <path
       style="fill:none;stroke:#000000;stroke-width:1;stroke-linejoin:bevel;stroke-dasharray:none;stroke-opacity:1"
       d="m 186.31429,61.482514 -5.32451,5.32797"
       id="path5-8"
       sodipodi:nodetypes="cc" />
    <path
       style="fill:none;stroke:#000000;stroke-width:1;stroke-linejoin:bevel;stroke-dasharray:none;stroke-opacity:1"
       d="m 180.4065,83.126255 4.63019,5.138889"
       id="path4-3-0"
       sodipodi:nodetypes="cc" />
    <path
       style="fill:none;stroke:#000000;stroke-width:1;stroke-linejoin:bevel;stroke-dasharray:none;stroke-opacity:1"
       d="m 185.51164,82.91943 -5.32451,5.32797"
       id="path5-8-7"
       sodipodi:nodetypes="cc" />
    <path
       style="fill:none;stroke:#000000;stroke-width:1;stroke-linejoin:bevel;stroke-dasharray:none;stroke-opacity:1"
       d="m 185.07186,71.267317 -2.11961,6.089495"
       id="path4-8"
       sodipodi:nodetypes="cc" />
    <path
       style="fill:none;stroke:#000000;stroke-width:1;stroke-linejoin:bevel;stroke-dasharray:none;stroke-opacity:1"
       d="m 181.18545,73.692938 1.8877,3.109891"
       id="path5-2"
       sodipodi:nodetypes="cc" />
  </g>
</svg>
