<?xml version="1.0" encoding="UTF-8" standalone="no"?>
<svg
   viewBox="0 0 100 100"
   width="100"
   height="100"
   version="1.1"
   id="svg8"
   sodipodi:docname="local_interf_img_multi_pull.svg"
   inkscape:version="1.3.2 (091e20e, 2023-11-25, custom)"
   xmlns:inkscape="http://www.inkscape.org/namespaces/inkscape"
   xmlns:sodipodi="http://sodipodi.sourceforge.net/DTD/sodipodi-0.dtd"
   xmlns="http://www.w3.org/2000/svg"
   xmlns:svg="http://www.w3.org/2000/svg">
  <sodipodi:namedview
     id="namedview1"
     pagecolor="#ffffff"
     bordercolor="#000000"
     borderopacity="0.25"
     inkscape:showpageshadow="2"
     inkscape:pageopacity="0.0"
     inkscape:pagecheckerboard="0"
     inkscape:deskcolor="#d1d1d1"
     inkscape:zoom="7.7711036"
     inkscape:cx="13.768958"
     inkscape:cy="48.834763"
     inkscape:window-width="2560"
     inkscape:window-height="1334"
     inkscape:window-x="-11"
     inkscape:window-y="-11"
     inkscape:window-maximized="1"
     inkscape:current-layer="svg8" />
  <defs
     id="defs8" />
  <!-- Écran -->
  <rect
     x="10.416619"
     y="17.607677"
     width="79.439735"
     height="54.101482"
     rx="6.619978"
     fill="white"
     stroke="black"
     stroke-width="2.67639"
     id="rect1" />
  <!-- Bordure inférieure de l'écran -->
  <rect
     x="30.276554"
     y="71.70916"
     width="39.719868"
     height="6.7626853"
     fill="black"
     id="rect2" />
  <!-- Base de l'écran -->
  <rect
     x="36.896534"
     y="78.47184"
     width="26.479912"
     height="6.7626853"
     fill="black"
     id="rect3" />
  <rect
     x="43.51651"
     y="85.234528"
     width="13.239956"
     height="4.057611"
     fill="black"
     id="rect4" />
  <!-- Icônes réseau (cercles connectés) -->
  <!-- Texte pour souligner la connexion locale -->
  <polygon
     points="80,60 50,90 20,60 40,60 40,10 60,10 60,60 "
     fill="#000000"
     id="polygon1"
     transform="matrix(0.16545805,0,0,0.20779014,41.210931,17.367035)" />
  <polygon
     points="80,60 50,90 20,60 40,60 40,10 60,10 60,60 "
     fill="#000000"
     id="polygon1-5"
     transform="matrix(0.16545805,0,0,0.20779014,56.59391,23.313576)" />
  <polygon
     points="80,60 50,90 20,60 40,60 40,10 60,10 60,60 "
     fill="#000000"
     id="polygon1-8"
     transform="matrix(0.16545805,0,0,0.20779014,25.739721,24.249235)" />
  <path
     style="fill:none;stroke:#000000;stroke-width:0.877584;stroke-linejoin:bevel;stroke-dasharray:none;stroke-opacity:1"
     d="M 34.225094,44.467987 34.04581,69.567622 64.882502,69.477982 65.061785,44.378338 Z"
     id="path1"
     sodipodi:nodetypes="ccccc" />
  <ellipse
     style="fill:#000000;fill-opacity:1;stroke:#000000;stroke-width:0.456923;stroke-linejoin:bevel;stroke-dasharray:none;stroke-opacity:1"
     id="path2"
     cx="40.500019"
     cy="50.966995"
     rx="1.8238776"
     ry="1.6894151" />
  <path
     style="fill:none;fill-opacity:1;stroke:#000000;stroke-width:0.877584;stroke-linejoin:bevel;stroke-dasharray:none;stroke-opacity:1"
     d="m 37.362549,66.250891 c 1.165333,-0.717132 6.992042,-6.992042 6.992042,-6.992042 l 3.85458,3.496014"
     id="path3" />
  <path
     style="fill:none;fill-opacity:1;stroke:#000000;stroke-width:0.877584;stroke-linejoin:bevel;stroke-dasharray:none;stroke-opacity:1"
     d="m 45.609573,65.533759 c 0.537849,-1.075713 8.067741,-8.964157 8.067741,-8.964157 l 8.157374,9.053791"
     id="path4" />
</svg>
