<?xml version="1.0" encoding="iso-8859-1"?>
<!-- Uploaded to: SVG Repo, www.svgrepo.com, Generator: SVG Repo Mixer Tools -->
<svg fill="#000000" height="800px" width="800px" version="1.1" id="Layer_1" xmlns="http://www.w3.org/2000/svg" xmlns:xlink="http://www.w3.org/1999/xlink" 
	 viewBox="0 0 512 512" xml:space="preserve">
<g>
	<g>
		<path d="M361.974,98.125H59.681c-8.379,0-15.197,6.816-15.197,15.195v67.526c0,8.379,6.817,15.196,15.197,15.196h218.863
			c4.381,0,7.931-3.551,7.931-7.931c0-4.38-3.55-7.931-7.931-7.931H60.347v-66.193h300.961v66.193h-51.064
			c-4.381,0-7.931,3.551-7.931,7.931c0,4.38,3.55,7.931,7.931,7.931h51.731c8.379,0,15.196-6.816,15.196-15.196V113.32
			C377.17,104.942,370.354,98.125,361.974,98.125z"/>
	</g>
</g>
<g>
	<g>
		<path d="M185.732,216.711H52.416c-4.381,0-7.931,3.551-7.931,7.931v62.717c0,4.38,3.55,7.931,7.931,7.931h133.316
			c4.381,0,7.931-3.551,7.931-7.931v-62.717h0.001C193.663,220.262,190.114,216.711,185.732,216.711z M60.347,279.427v-46.856
			h117.454v46.856H60.347z"/>
	</g>
</g>
<g>
	<g>
		<path d="M185.732,323.09H52.416c-4.381,0-7.931,3.551-7.931,7.931v62.717c0,4.38,3.55,7.931,7.931,7.931h73.252
			c4.381,0,7.931-3.551,7.931-7.931s-3.55-7.931-7.931-7.931H60.347v-46.856h117.454v46.856h-20.409
			c-4.381,0-7.931,3.551-7.931,7.931s3.55,7.931,7.931,7.931h28.341c4.381,0,7.931-3.551,7.931-7.931v-62.717
			C193.663,326.641,190.114,323.09,185.732,323.09z"/>
	</g>
</g>
<g>
	<g>
		<path d="M503.491,226.101l-42.467-42.467c-5.486-5.487-12.782-8.508-20.543-8.508s-15.055,3.021-20.544,8.509l-4.752,4.752
			v-77.181c0-25.872-21.047-46.919-46.919-46.919H116.679c-4.381,0-7.931,3.551-7.931,7.931c0,4.38,3.55,7.931,7.931,7.931h251.586
			c17.124,0,31.057,13.932,31.057,31.057v93.043l-2.98,2.98l-26.437,26.437v-9.024c0-4.38-3.55-7.931-7.931-7.931H228.658
			c-4.381,0-7.931,3.551-7.931,7.931v62.717c0,4.38,3.55,7.931,7.931,7.931h79.624l-27.801,27.801h-51.821
			c-4.381,0-7.931,3.551-7.931,7.931v62.717c0,4.38,3.55,7.931,7.931,7.931h36.363l-0.4,12.658c-0.069,2.189,0.771,4.31,2.318,5.858
			c1.49,1.49,3.508,2.323,5.609,2.323c0.082,0,0.167-0.001,0.251-0.004l74.698-2.361c0.045-0.001,0.089-0.012,0.133-0.014
			c0.314-0.015,0.628-0.047,0.939-0.099c0.041-0.007,0.084-0.011,0.124-0.018c0.338-0.062,0.672-0.151,1.001-0.258
			c0.066-0.021,0.13-0.045,0.196-0.068c0.297-0.105,0.59-0.226,0.876-0.368c0.03-0.015,0.059-0.026,0.088-0.041
			c0.306-0.155,0.601-0.335,0.888-0.534c0.058-0.04,0.114-0.085,0.172-0.127c0.223-0.164,0.44-0.34,0.649-0.53
			c0.061-0.055,0.124-0.109,0.184-0.166c0.035-0.034,0.073-0.062,0.108-0.097l46.469-46.469v29.44
			c0,17.125-13.933,31.057-31.057,31.057H46.92c-17.125-0.001-31.058-13.933-31.058-31.058v-289.59
			c0-17.125,13.933-31.057,31.058-31.057h38.035c4.381,0,7.931-3.551,7.931-7.931c0-4.38-3.55-7.931-7.931-7.931H46.92
			C21.049,64.286,0,85.335,0,111.205v289.59c0,25.872,21.049,46.919,46.92,46.919h321.345c25.872,0,46.919-21.047,46.919-46.919
			v-45.301l34.214-34.214l30.498-30.498l23.594-23.594c5.487-5.487,8.51-12.784,8.51-20.543
			C512,238.885,508.977,231.588,503.491,226.101z M267.026,339.024c-0.011,0.093-0.014,0.186-0.021,0.279
			c-0.007,0.109-0.021,0.216-0.024,0.326l-1.459,46.179h-28.933v-46.856h30.443C267.028,338.975,267.028,339,267.026,339.024z
			 M236.588,279.426v-46.854h117.454v16.955l-29.9,29.899H236.588z M280.741,406.384l1.515-47.939l46.424,46.424L280.741,406.384z
			 M401.647,346.599c-0.001,0.001-0.001,0.001-0.002,0.002L347.245,401l-61.122-61.122l3.25-3.25
			c0.001-0.001,0.002-0.002,0.003-0.003l43.648-43.648c0.004-0.004,0.008-0.007,0.013-0.011l34.545-34.545
			c0.001-0.001,0.002-0.003,0.003-0.004l3.866-3.867l61.122,61.122L401.647,346.599z M443.79,304.456l-61.122-61.122l19.281-19.282
			l61.122,61.122L443.79,304.456z M492.273,255.972l-17.986,17.986l-61.122-61.122l17.986-17.986
			c2.491-2.491,5.804-3.863,9.328-3.863s6.836,1.372,9.327,3.863l42.467,42.467c2.49,2.491,3.863,5.803,3.863,9.327
			C496.138,250.168,494.766,253.48,492.273,255.972z"/>
	</g>
</g>
</svg>