<?xml version="1.0" standalone="no"?>
<!DOCTYPE svg PUBLIC "-//W3C//DTD SVG 20010904//EN"
 "http://www.w3.org/TR/2001/REC-SVG-20010904/DTD/svg10.dtd">
<svg version="1.0" xmlns="http://www.w3.org/2000/svg"
 width="982.000000pt" height="913.000000pt" viewBox="0 0 982.000000 913.000000"
 preserveAspectRatio="xMidYMid meet">

<g transform="translate(0.000000,913.000000) scale(0.100000,-0.100000)"
fill="#000000" stroke="none">
<path d="M2360 8869 c-974 -9 -1334 -20 -1397 -43 -55 -19 -148 -78 -196 -125
-56 -52 -122 -147 -157 -225 l-30 -68 0 -2711 0 -2712 50 -85 c89 -148 247
-284 365 -310 72 -16 665 -29 1356 -30 l596 0 7 -552 c4 -304 11 -582 16 -618
14 -102 78 -219 170 -311 60 -60 96 -86 177 -127 l101 -52 1102 0 1102 0 116
-101 c174 -151 278 -221 472 -318 350 -175 599 -233 1000 -234 333 -1 566 40
814 144 445 186 778 457 1029 839 484 738 459 1700 -64 2435 -175 247 -427
467 -761 666 l-57 34 -1 455 c-1 536 -6 618 -49 704 -42 85 -197 251 -583 622
-590 568 -691 658 -763 680 -59 18 -404 33 -752 34 l-233 0 0 243 c0 133 -5
285 -10 337 -9 84 -14 101 -44 144 -113 162 -1085 1116 -1265 1240 -20 14 -59
31 -86 37 -67 15 -938 19 -2025 8z m1754 -811 c4 -271 11 -445 19 -483 21
-102 118 -224 229 -289 67 -39 157 -45 631 -46 l397 0 0 -189 0 -189 -1007 -7
-1008 -7 -80 -46 c-107 -61 -227 -181 -278 -280 l-38 -73 -10 -227 c-5 -125
-12 -910 -15 -1744 l-7 -1518 -942 0 -941 0 -47 48 -47 48 0 2519 c0 1420 4
2581 9 2659 10 149 16 167 75 210 27 21 41 21 664 26 350 3 1031 7 1513 8
l876 2 7 -422z m805 -191 l213 -215 -249 -7 c-138 -4 -264 -4 -280 -1 -17 4
-39 16 -49 28 -17 18 -19 44 -22 296 l-3 275 88 -81 c48 -44 184 -177 302
-295z m1591 -1609 c1 -319 16 -657 31 -698 24 -66 90 -168 137 -212 26 -25 79
-60 116 -78 91 -43 169 -49 619 -50 l357 0 0 -351 0 -351 -27 6 c-190 40 -285
49 -528 49 -189 0 -278 -4 -365 -17 -352 -54 -655 -186 -965 -419 -102 -77
-312 -288 -392 -392 -301 -398 -453 -843 -453 -1331 0 -352 58 -610 214 -957
40 -89 72 -165 70 -169 -2 -3 -421 -4 -930 -1 l-925 6 -54 56 -55 56 1 2290
c0 1260 4 2377 8 2483 l8 193 34 35 c19 20 43 41 54 47 26 15 625 22 2008 25
l1037 2 0 -222z m845 -477 l160 -161 -225 1 c-124 1 -252 4 -285 8 l-60 6 -7
40 c-4 22 -10 150 -14 285 l-7 245 139 -132 c76 -72 211 -204 299 -292z m170
-1621 c401 -79 764 -286 1019 -581 297 -344 446 -733 446 -1163 0 -276 -50
-517 -156 -743 -206 -444 -570 -768 -1064 -946 -190 -68 -223 -72 -560 -72
-285 1 -298 1 -400 27 -216 54 -440 157 -616 280 -101 72 -289 249 -376 356
-198 241 -319 531 -359 855 -16 138 -6 443 19 567 57 276 151 496 302 705 299
415 735 670 1260 739 89 11 377 -3 485 -24z"/>
<path d="M8035 3221 c-44 -21 -134 -111 -401 -401 -235 -256 -579 -622 -642
-683 l-49 -48 -74 59 c-41 33 -156 139 -256 236 -226 218 -250 236 -314 236
-117 0 -188 -76 -189 -202 0 -51 4 -61 44 -115 47 -61 528 -544 629 -632 72
-61 133 -78 224 -62 70 13 62 6 412 381 357 382 779 853 855 955 36 47 38 52
34 115 -3 54 -9 72 -33 104 -54 72 -157 96 -240 57z"/>
</g>
</svg>
