<?xml version="1.0" encoding="utf-8"?>
<!-- Svg Vector Icons : http://www.onlinewebfonts.com/icon -->
<!DOCTYPE svg PUBLIC "-//W3C//DTD SVG 1.1//EN" "http://www.w3.org/Graphics/SVG/1.1/DTD/svg11.dtd">
<svg version="1.1" xmlns="http://www.w3.org/2000/svg" xmlns:xlink="http://www.w3.org/1999/xlink" x="0px" y="0px" viewBox="0 0 256 256" enable-background="new 0 0 256 256" xml:space="preserve">
<metadata> Svg Vector Icons : http://www.onlinewebfonts.com/icon </metadata>
<g><g><g><path fill="#000000" d="M93,10.1c-0.7,0.1-3.3,0.4-5.6,0.7c-28.3,3.5-54.3,22-67.7,48.1c-6.9,13.4-9.8,25.4-9.8,41c0,15.5,2.9,27.6,9.8,41c13.2,25.8,37,43,66.3,48c6.4,1.1,21.1,1.1,27.5,0c14.9-2.5,28.9-8.4,39.6-16.5l2.8-2.1l4.5,4.5l4.6,4.5l-1.1,1.7c-2.5,3.6-2.8,9.8-0.7,13.8c0.8,1.5,8.8,9.9,24.2,25.5c26,26.4,25.5,26,31.8,25.9c5.5,0,6.9-0.9,16.4-10.4c9.5-9.6,10.4-10.9,10.4-16.4c0.1-6,0.3-5.8-25.7-32.1c-25.1-25.4-25-25.3-30.5-25.6c-3.6-0.2-6.2,0.4-8.6,2.1l-1.8,1.2l-4.6-4.6l-4.5-4.5l2-2.6c2.1-2.8,6.8-10.3,6.8-11c0-0.2-1.2-0.2-2.5,0l-2.6,0.3l-1.2-1.8c-0.6-1-2.1-3.5-3.1-5.6l-2-3.8l-2.4,4.4c-3.6,6.6-7.4,11.6-12.8,17c-20.1,20.1-48.9,26.9-76.2,18.2c-19.7-6.3-37.2-22.5-45.4-41.9c-7.5-17.8-7.7-38.3-0.7-56.3c7.5-19.1,23-34.7,42.3-42.2c15.9-6.3,34.6-6.8,50.7-1.4c2.3,0.7,4.2,1.4,4.3,1.4s0.1-0.9,0-2c-0.3-2-0.3-2.1,2.2-3.9c1.4-1,3.7-2.7,5.3-3.7s2.9-1.9,3-2c0.4-0.3-1.1-1-5.8-2.8c-5.5-2.1-12.3-3.9-18.4-4.9C109.5,10.3,95.8,9.6,93,10.1z"/><path fill="#000000" d="M172.8,18.7c-1.1,1.7-3.5,7-4.7,10.7c-0.6,1.9-1.4,3.5-1.8,3.7c-0.3,0.2-1.7,0.5-3.1,0.7s-3.8,0.7-5.5,1.3l-3.1,0.9l-2.6-2.9c-3-3.4-8.5-8.8-9.1-8.8c-0.5,0-7.2,4.1-7.7,4.8c-0.6,0.7,1,7.3,3.1,12.6l1.4,3.6l-2.5,2.9c-1.4,1.6-3,3.9-3.7,5.1c-1,1.7-1.4,2.1-2.2,1.9c-2.1-0.5-7.3-1.1-11.4-1.4l-4.2-0.3l-1.5,4.5c-1.4,4.2-1.4,4.6-0.7,5.4c1,1.2,7.8,5.6,10.7,7.1l2.4,1.2l0.3,5.7c0.1,3.2,0.4,6.1,0.5,6.4c0.2,0.5-0.9,1.4-3.8,3.1c-2.2,1.3-5.3,3.4-6.8,4.6c-3.1,2.5-3.2,2.7-0.7,8.1l1.5,3.4l3.5-0.3c3.4-0.3,10.5-1.3,12.4-1.9c0.7-0.2,1.2,0.1,1.7,1.1c0.5,0.7,2.3,2.9,4.2,4.7l3.3,3.4l-1.6,5c-0.9,2.8-1.9,6.3-2.2,7.7c-0.6,2.7-0.5,2.8,0.5,3.7c0.6,0.5,2.6,1.6,4.3,2.5l3.2,1.6l3-3c2.3-2.2,8.1-8.9,8.3-9.6c0,0,1,0.1,2.1,0.4c1.2,0.3,4,0.6,6.3,0.8l4.2,0.3l1.3,3.4c0.7,1.9,2.2,5.2,3.3,7.5l2,4.1l2-0.1c1.1-0.1,3.3-0.5,4.9-0.9l2.9-0.8l0.3-2.3c0.1-1.3,0.3-5.1,0.3-8.5c0-5.6,0.1-6.2,0.9-6.4c0.5-0.1,2.9-1.6,5.4-3.3l4.5-3l3.1,1.8c1.7,1,5,2.6,7.3,3.6l4.2,1.8l2.2-2.6c1.3-1.4,2.6-3.2,3-4c0.8-1.4,0.8-1.4-1.2-4.4c-1.7-2.6-2.9-4.1-7.4-9.4c-0.6-0.7-0.6-1.2,0.4-3.6c0.6-1.5,1.4-4.2,1.8-5.9c0.7-2.9,0.9-3.2,2.2-3.5c0.7-0.1,3-0.7,5.1-1.1c2.1-0.5,5.1-1.2,6.7-1.7l2.9-0.9l-0.2-4.6c-0.1-2.5-0.4-4.8-0.7-5.1c-0.5-0.5-9.6-2.8-13.9-3.6c-2.3-0.4-2.3-0.4-3.1-2.9c-0.5-1.4-1.5-4-2.3-5.7l-1.5-3.1l2-2.5c2.1-2.7,7.5-10.5,7.5-11.1c0-0.1-1.4-1.9-3.2-3.8l-3.2-3.5l-3.7,1.6c-2,0.9-5.3,2.6-7.4,3.8c-2.1,1.3-3.9,2.2-4.2,2.2c-0.2,0-1-0.4-1.7-0.9s-3.1-1.8-5.3-2.8l-4-1.9v-3.5c0-1.9-0.2-5.5-0.5-8.1c-0.6-5.2-0.3-4.8-4.8-5.6C174.7,17.5,173.6,17.6,172.8,18.7z M176,48.7c8.9,1.6,16.7,7.6,20.4,15.9c3.9,8.5,3.2,18.9-1.8,26.6c-3.7,5.6-10.3,10.5-16.7,12.1c-3.5,0.9-10.5,0.9-14,0c-12.1-3.2-20.8-14.2-20.9-26.6c0-5.1,0.6-8.3,2.7-12.6c3.7-7.9,11.4-13.9,19.8-15.4C170.1,48,171.6,48,176,48.7z"/></g></g></g>
</svg>