<?xml version="1.0" ?><!DOCTYPE svg  PUBLIC '-//W3C//DTD SVG 1.1//EN'  'http://www.w3.org/Graphics/SVG/1.1/DTD/svg11.dtd'><svg xmlns="http://www.w3.org/2000/svg" xmlns:xlink="http://www.w3.org/1999/xlink" xmlns:serif="http://www.serif.com/" width="100%" height="100%" viewBox="0 0 64 64" version="1.1" xml:space="preserve" style="fill-rule:evenodd;clip-rule:evenodd;stroke-linejoin:round;stroke-miterlimit:2;"><g><g transform="matrix(1,0,0,1,1,1)"><path d="M46,18.288L46,17.712C46,7.93 38.07,-0 28.288,-0C24.831,0 21.169,0 17.712,0C7.93,-0 0,7.93 0,17.712C0,25.807 0,34 0,34C0,35.105 0.895,36 2,36L28.288,36C38.07,36 46,28.07 46,18.288ZM42,17.712L42,18.288C42,25.861 35.861,32 28.288,32L4,32C4,32 4,17.712 4,17.712C4,10.139 10.139,4 17.712,4C21.169,4 24.831,4 28.288,4C35.861,4 42,10.139 42,17.712Z"/></g><g transform="matrix(-1,0,0,1,63,27)"><path d="M14.143,4.468C8.3,6.038 4,11.373 4,17.712C4,17.712 4,32 4,32C4,32 28.288,32 28.288,32C35.861,32 42,25.861 42,18.288C42,18.288 42,17.712 42,17.712C42,16.663 41.883,15.641 41.66,14.66C41.415,13.583 42.091,12.511 43.167,12.266C44.243,12.022 45.316,12.697 45.56,13.774C45.848,15.04 46,16.358 46,17.712L46,18.288C46,28.07 38.07,36 28.288,36L2,36C0.895,36 0,35.105 0,34C0,34 0,25.807 0,17.712C0,9.523 5.557,2.634 13.105,0.605C14.171,0.319 15.269,0.952 15.556,2.018C15.842,3.084 15.209,4.182 14.143,4.468Z"/></g><path d="M40,36C39.767,36 39.529,36.041 39.298,36.127C39.021,36.231 38.781,36.389 38.586,36.586C38.389,36.781 38.231,37.021 38.127,37.298L32.127,53.298C31.74,54.331 32.264,55.485 33.298,55.873C34.331,56.26 35.485,55.736 35.873,54.702L36.886,52L43.114,52L44.127,54.702C44.515,55.736 45.669,56.26 46.702,55.873C47.736,55.485 48.26,54.331 47.873,53.298L41.873,37.298C41.769,37.021 41.611,36.781 41.414,36.586C41.219,36.389 40.979,36.231 40.702,36.127C40.471,36.041 40.233,36 40,36ZM40,43.696L38.386,48L41.614,48L40,43.696Z"/><path d="M22,12L20.035,12C20.011,12 19.987,12 19.962,12L18,12C16.896,12 16,12.896 16,14C16,15.07 16.843,15.946 17.9,15.998C18.013,18.017 18.691,21.089 21.246,24.415C20.54,25.061 19.73,25.713 18.803,26.361C17.899,26.993 17.677,28.241 18.31,29.146C18.942,30.05 20.19,30.272 21.095,29.639C22.177,28.883 23.132,28.118 23.975,27.354C24.817,28.118 25.772,28.883 26.854,29.639C27.759,30.272 29.007,30.05 29.639,29.146C30.272,28.241 30.05,26.993 29.146,26.361C28.219,25.713 27.409,25.061 26.703,24.415C29.257,21.09 29.935,18.019 30.049,15.999C31.13,15.974 32,15.088 32,14C32,12.896 31.104,12 30,12L27.987,12C27.963,12 27.938,12 27.914,12L26,12L26,10C26,8.896 25.104,8 24,8C22.896,8 22,8.896 22,10L22,12ZM26.004,16L21.945,16C22.071,17.252 22.532,19.149 23.975,21.292C25.417,19.149 25.878,17.252 26.004,16Z"/></g></svg>