<?xml version="1.0" encoding="iso-8859-1"?><!-- Generator: Adobe Illustrator 22.1.0, SVG Export Plug-In . SVG Version: 6.00 Build 0)  --><svg xmlns="http://www.w3.org/2000/svg" xmlns:xlink="http://www.w3.org/1999/xlink" viewBox="0 0 48 48" width="96px" height="96px"><path style="fill:#2979FF;" d="M32.66,7H15.34c-0.715,0-1.375,0.381-1.732,1l-8.66,15c-0.357,0.619-0.357,1.381,0,2l8.66,15c0.357,0.619,1.018,1,1.732,1H32.66c0.715,0,1.375-0.381,1.732-1l8.66-15c0.357-0.619,0.357-1.381,0-2l-8.66-15C34.035,7.381,33.375,7,32.66,7z"/><path style="fill:#FFFFFF;" d="M32,35H16c-0.552,0-1-0.448-1-1V14c0-0.552,0.448-1,1-1h13l4,4v17C33,34.552,32.552,35,32,35z"/><path style="fill:#B1CFFF;" d="M29,13v3c0,0.552,0.448,1,1,1h3L29,13z"/><g><path style="fill:#03A9F4;" d="M22.265,23.831H20.93V19.58l-1.312,0.383v-1.011l2.524-0.873h0.122V23.831z"/><path style="fill:#03A9F4;" d="M28.702,21.48c0,0.416-0.049,0.776-0.146,1.081c-0.097,0.303-0.234,0.556-0.411,0.756c-0.176,0.2-0.387,0.349-0.632,0.446c-0.245,0.097-0.515,0.146-0.81,0.146c-0.298,0-0.57-0.049-0.816-0.146c-0.246-0.097-0.457-0.246-0.633-0.446c-0.176-0.2-0.315-0.453-0.413-0.756c-0.099-0.305-0.147-0.665-0.147-1.081v-1.051c0-0.413,0.049-0.773,0.146-1.078c0.097-0.305,0.234-0.558,0.411-0.758c0.176-0.2,0.387-0.349,0.632-0.446C26.126,18.049,26.397,18,26.695,18c0.295,0,0.565,0.049,0.811,0.146c0.246,0.097,0.458,0.246,0.635,0.446c0.176,0.2,0.313,0.453,0.412,0.758c0.099,0.305,0.149,0.665,0.149,1.078V21.48z M27.37,20.26c0-0.229-0.016-0.421-0.047-0.579c-0.032-0.155-0.076-0.283-0.134-0.381c-0.058-0.097-0.129-0.167-0.212-0.209c-0.083-0.042-0.176-0.063-0.282-0.063c-0.105,0-0.2,0.021-0.283,0.063c-0.083,0.042-0.153,0.112-0.209,0.209c-0.057,0.097-0.1,0.225-0.13,0.381c-0.03,0.158-0.045,0.35-0.045,0.579v1.383c0,0.234,0.014,0.431,0.045,0.589c0.03,0.158,0.075,0.286,0.133,0.381c0.058,0.097,0.129,0.166,0.213,0.208c0.084,0.042,0.179,0.063,0.284,0.063c0.103,0,0.195-0.021,0.278-0.063c0.083-0.042,0.154-0.111,0.212-0.208c0.058-0.095,0.101-0.223,0.132-0.381c0.03-0.158,0.046-0.354,0.046-0.589V20.26z"/><path style="fill:#03A9F4;" d="M23.308,29.571c0,0.416-0.049,0.776-0.146,1.081c-0.097,0.303-0.234,0.556-0.411,0.756c-0.176,0.2-0.387,0.349-0.632,0.446C21.874,31.951,21.604,32,21.309,32c-0.298,0-0.57-0.049-0.816-0.146c-0.246-0.097-0.457-0.246-0.633-0.446c-0.176-0.2-0.315-0.453-0.413-0.756c-0.099-0.305-0.147-0.665-0.147-1.081V28.52c0-0.413,0.049-0.773,0.146-1.078c0.097-0.305,0.234-0.558,0.411-0.758c0.176-0.2,0.387-0.349,0.632-0.446c0.245-0.097,0.516-0.146,0.814-0.146c0.295,0,0.565,0.049,0.811,0.146c0.246,0.097,0.458,0.246,0.635,0.446c0.176,0.2,0.313,0.453,0.412,0.758s0.149,0.665,0.149,1.078V29.571z M21.977,28.35c0-0.229-0.016-0.421-0.047-0.579c-0.032-0.155-0.076-0.283-0.134-0.381c-0.058-0.097-0.129-0.167-0.212-0.209c-0.083-0.042-0.176-0.063-0.282-0.063s-0.2,0.021-0.283,0.063c-0.083,0.042-0.153,0.112-0.209,0.209c-0.057,0.097-0.1,0.225-0.13,0.381c-0.03,0.158-0.045,0.35-0.045,0.579v1.383c0,0.234,0.014,0.431,0.045,0.589c0.03,0.158,0.075,0.286,0.133,0.381c0.058,0.097,0.129,0.166,0.213,0.208s0.179,0.063,0.284,0.063c0.103,0,0.195-0.021,0.278-0.063c0.083-0.042,0.154-0.111,0.212-0.208c0.058-0.095,0.101-0.223,0.132-0.381c0.03-0.158,0.046-0.354,0.046-0.589V28.35z"/><path style="fill:#03A9F4;" d="M27.659,31.921h-1.335V27.67l-1.312,0.383v-1.011l2.524-0.873h0.122V31.921z"/></g></svg>