<svg class="svg-icon" style="width: 1em;height: 1em;vertical-align: middle;fill: currentColor;overflow: hidden;" viewBox="0 0 1024 1024" version="1.1" xmlns="http://www.w3.org/2000/svg"><path d="M863.86 958H162.14a51.4 51.4 0 0 1-51.35-51.35V119.33A51.4 51.4 0 0 1 162.14 68h463.35a34.07 34.07 0 0 1 24 9.94l255.79 255.8a33.64 33.64 0 0 1 9.93 24v548.89A51.4 51.4 0 0 1 863.86 958zM625.25 102.11l-463.11 0.1A17.14 17.14 0 0 0 145 119.33v787.3a17.14 17.14 0 0 0 17.12 17.12h701.74A17.14 17.14 0 0 0 881 906.63V357.7z" fill="#474F59" /><path d="M666.67 350.75h231.42L632.44 85.1v231.42a34.33 34.33 0 0 0 34.23 34.23z" fill="#62B774" /><path d="M898.09 367.87H666.67a51.41 51.41 0 0 1-51.35-51.35V85.1A17.12 17.12 0 0 1 644.54 73l265.65 265.65a17.11 17.11 0 0 1-12.1 29.22zM649.55 126.42v190.1a17.14 17.14 0 0 0 17.12 17.12h190.11z" fill="#474F59" /><path d="M378.54 647.66q-21.36 0-38.33-6.58a75.71 75.71 0 0 1-28.76-19.3 86.38 86.38 0 0 1-18.07-31.08q-6.31-18.35-6.3-42.17t7.25-42.18a91.33 91.33 0 0 1 19.86-31.08A83.33 83.33 0 0 1 343.77 456a100 100 0 0 1 36.42-6.57 117.29 117.29 0 0 1 21.36 1.78 153 153 0 0 1 16.7 4 69 69 0 0 1 11.75 4.58q4.67 2.47 6.58 3.56l-10.14 28.21q-6.57-4.11-18.75-7.8a90.53 90.53 0 0 0-26.43-3.7 61.71 61.71 0 0 0-23 4.25A49.76 49.76 0 0 0 339.79 497a59.2 59.2 0 0 0-12.18 21.36q-4.39 12.87-4.39 29.85a104.92 104.92 0 0 0 3.43 27.66 61.17 61.17 0 0 0 10.54 21.77 47.89 47.89 0 0 0 18.07 14.24q11 5.07 26.29 5.07 18.34 0 29.85-3.71a118.29 118.29 0 0 0 17.8-7l9.31 28.2a46.91 46.91 0 0 1-8.9 4.38 128.25 128.25 0 0 1-13.28 4.25 131.69 131.69 0 0 1-17.25 3.28 159.8 159.8 0 0 1-20.54 1.31zM503.68 617.81q18.62 0 27.11-6.31t8.49-17.8a23.07 23.07 0 0 0-2.87-11.77 30.11 30.11 0 0 0-8.22-8.9 68.84 68.84 0 0 0-13-7.39q-7.66-3.42-17.52-6.71-9.87-3.55-19-7.81a64 64 0 0 1-16.16-10.54 48.53 48.53 0 0 1-11.22-15.06q-4.29-8.76-4.29-21.09 0-25.74 17.79-40.39t48.48-14.65a114.79 114.79 0 0 1 31.63 4q13.82 4 21.77 8.63L556 489.92a81.53 81.53 0 0 0-20.42-7.92 95.31 95.31 0 0 0-22.86-2.74q-14 0-21.77 5.75t-7.81 16.16a21.34 21.34 0 0 0 2.6 10.81 26.65 26.65 0 0 0 7.4 8.08 63.81 63.81 0 0 0 11.22 6.57q6.43 3 14.11 5.75 13.42 4.95 24 10a67.66 67.66 0 0 1 17.8 12 47.18 47.18 0 0 1 11.09 16.43q3.82 9.45 3.83 22.86 0 25.75-18.21 39.85t-53.26 14.11a141.52 141.52 0 0 1-21.5-1.51 138.74 138.74 0 0 1-17.25-3.7 117.94 117.94 0 0 1-13-4.51 81.07 81.07 0 0 1-8.76-4.25l10.13-28.21a116.79 116.79 0 0 0 20 8.22q12.54 4.14 30.34 4.14zM646.11 643.55q-20.55-44.37-39.59-92.83t-35.49-97h38.08q6.58 19.17 13.45 39.16t13.73 39.3q6.86 19.31 13.72 37.38t13.46 33.14q6.31-15.06 13.18-33t13.86-37.38q7-19.43 13.87-39.43t13.18-39.16h37q-16.78 48.48-35.73 97t-39.58 92.83z" fill="#62B774" /></svg>