<?xml version="1.0" encoding="UTF-8"?>
<svg xmlns="http://www.w3.org/2000/svg" viewBox="0 0 24 24">
  <defs>
    <style>
      .cls-1 {
        fill: #231f20;
      }
    </style>
  </defs>
  <g id="Layer_5" data-name="Layer 5">
    <path d="M11.96,2.5c5.24,0,9.5,4.26,9.5,9.5s-4.26,9.5-9.5,9.5S2.46,17.24,2.46,12,6.72,2.5,11.96,2.5M11.96,1C5.88,1,.96,5.92.96,12s4.92,11,11,11,11-4.92,11-11S18.03,1,11.96,1h0Z"/>
  </g>
  <g id="Layer_6" data-name="Layer 6">
    <rect x="11.21" y="2.86" width="1.5" height="2" rx=".5" ry=".5"/>
    <rect x="11.21" y="19.15" width="1.5" height="2" rx=".5" ry=".5"/>
    <rect x="19.35" y="11" width="1.5" height="2" rx=".5" ry=".5" transform="translate(32.1 -8.09) rotate(90)"/>
    <rect x="3.06" y="11" width="1.5" height="2" rx=".5" ry=".5" transform="translate(15.82 8.19) rotate(90)"/>
  </g>
  <g id="Layer_4" data-name="Layer 4">
    <path class="cls-1" d="M15.47,17.63c-.04-.22-1.05-5.28-1.92-6.78-.86-1.49-4.75-4.9-4.91-5.05h0c-.17-.15-.4-.17-.59-.06h0c-.19.11-.29.32-.25.54v.02c.05.21,1.16,5.1,2.07,6.68.87,1.52,4.59,4.98,4.75,5.13h.01c.17.15.4.17.59.06s.29-.32.25-.55ZM12.18,12.74c-.46.26-1.04.11-1.31-.35-.26-.46-.11-1.04.35-1.31.46-.26,1.04-.11,1.31.35.26.46.11,1.04-.35,1.31Z"/>
  </g>
</svg>