<?xml version="1.0" encoding="utf-8" standalone="no"?>
<!DOCTYPE svg PUBLIC "-//W3C//DTD SVG 1.1//EN"
  "http://www.w3.org/Graphics/SVG/1.1/DTD/svg11.dtd">
<svg xmlns:xlink="http://www.w3.org/1999/xlink" width="684pt" height="280.512pt" viewBox="0 0 684 280.512" xmlns="http://www.w3.org/2000/svg" version="1.1">
 <metadata>
  <rdf:RDF xmlns:dc="http://purl.org/dc/elements/1.1/" xmlns:cc="http://creativecommons.org/ns#" xmlns:rdf="http://www.w3.org/1999/02/22-rdf-syntax-ns#">
   <cc:Work>
    <dc:type rdf:resource="http://purl.org/dc/dcmitype/StillImage"/>
    <dc:date>2026-01-07T20:53:21.101932</dc:date>
    <dc:format>image/svg+xml</dc:format>
    <dc:creator>
     <cc:Agent>
      <dc:title>Matplotlib v3.10.8, https://matplotlib.org/</dc:title>
     </cc:Agent>
    </dc:creator>
   </cc:Work>
  </rdf:RDF>
 </metadata>
 <defs>
  <style type="text/css">*{stroke-linejoin: round; stroke-linecap: butt}</style>
 </defs>
 <g id="figure_1">
  <g id="patch_1">
   <path d="M 0 280.512 
L 684 280.512 
L 684 0 
L 0 0 
z
" style="fill: #ffffff"/>
  </g>
  <g id="axes_1">
   <g id="patch_2">
    <path d="M 140.425621 37.155023 
Q 334.755538 103.601059 528.768085 169.938577 
" clip-path="url(#pf0112c274c)" style="fill: none; stroke: #000000; stroke-width: 0.3; stroke-linecap: round"/>
    <path d="M 525.944067 167.070665 
L 528.768085 169.938577 
L 524.779344 170.477045 
z
" clip-path="url(#pf0112c274c)" style="stroke: #000000; stroke-width: 0.3; stroke-linecap: round"/>
   </g>
   <g id="patch_3">
    <path d="M 136.093167 44.514345 
Q 160.917498 66.946998 185.492973 89.154772 
" clip-path="url(#pf0112c274c)" style="fill: none; stroke: #000000; stroke-width: 0.3; stroke-linecap: round"/>
    <path d="M 184.028806 85.40561 
L 185.492973 89.154772 
L 181.615143 88.076608 
z
" clip-path="url(#pf0112c274c)" style="stroke: #000000; stroke-width: 0.3; stroke-linecap: round"/>
   </g>
   <g id="patch_4">
    <path d="M 140.91679 35.495009 
Q 265.219518 66.94654 389.197083 98.315797 
" clip-path="url(#pf0112c274c)" style="fill: none; stroke: #000000; stroke-width: 0.3; stroke-linecap: round"/>
    <path d="M 386.148595 95.687732 
L 389.197083 98.315797 
L 385.265539 99.177748 
z
" clip-path="url(#pf0112c274c)" style="stroke: #000000; stroke-width: 0.3; stroke-linecap: round"/>
   </g>
   <g id="patch_5">
    <path d="M 112.897529 50.154366 
Q 92.829202 103.604486 72.878773 156.740598 
" clip-path="url(#pf0112c274c)" style="fill: none; stroke: #000000; stroke-width: 0.3; stroke-linecap: round"/>
    <path d="M 75.829311 154.003022 
L 72.878773 156.740598 
L 72.459035 152.737621 
z
" clip-path="url(#pf0112c274c)" style="stroke: #000000; stroke-width: 0.3; stroke-linecap: round"/>
   </g>
   <g id="patch_6">
    <path d="M 604.096552 118.991263 
Q 583.925661 140.256732 563.985596 161.27885 
" clip-path="url(#pf0112c274c)" style="fill: none; stroke: #000000; stroke-width: 0.3; stroke-linecap: round"/>
    <path d="M 567.76903 159.905671 
L 563.985596 161.27885 
L 565.157113 157.428195 
z
" clip-path="url(#pf0112c274c)" style="stroke: #000000; stroke-width: 0.3; stroke-linecap: round"/>
   </g>
   <g id="patch_7">
    <path d="M 597.66434 106.387348 
Q 341.998445 140.256206 86.665056 174.081016 
" clip-path="url(#pf0112c274c)" style="fill: none; stroke: #000000; stroke-width: 0.3; stroke-linecap: round"/>
    <path d="M 90.470264 175.392654 
L 86.665056 174.081016 
L 89.997491 171.823833 
z
" clip-path="url(#pf0112c274c)" style="stroke: #000000; stroke-width: 0.3; stroke-linecap: round"/>
   </g>
   <g id="patch_8">
    <path d="M 82.663189 189.110084 
Q 117.458375 213.565654 151.97915 237.828355 
" clip-path="url(#pf0112c274c)" style="fill: none; stroke: #000000; stroke-width: 0.3; stroke-linecap: round"/>
    <path d="M 150.068895 234.285626 
L 151.97915 237.828355 
L 147.998814 237.230921 
z
" clip-path="url(#pf0112c274c)" style="stroke: #000000; stroke-width: 0.3; stroke-linecap: round"/>
   </g>
   <g id="patch_9">
    <path d="M 390.074955 37.325052 
Q 305.784742 66.946466 221.810968 96.456676 
" clip-path="url(#pf0112c274c)" style="fill: none; stroke: #000000; stroke-width: 0.3; stroke-linecap: round"/>
    <path d="M 225.80413 96.961304 
L 221.810968 96.456676 
L 224.610568 93.564923 
z
" clip-path="url(#pf0112c274c)" style="stroke: #000000; stroke-width: 0.3; stroke-linecap: round"/>
   </g>
   <g id="patch_10">
    <path d="M 430.099161 37.325052 
Q 514.389375 66.946466 598.363149 96.456676 
" clip-path="url(#pf0112c274c)" style="fill: none; stroke: #000000; stroke-width: 0.3; stroke-linecap: round"/>
    <path d="M 595.563548 93.564923 
L 598.363149 96.456676 
L 594.369986 96.961304 
z
" clip-path="url(#pf0112c274c)" style="stroke: #000000; stroke-width: 0.3; stroke-linecap: round"/>
   </g>
   <g id="patch_11">
    <path d="M 410.087058 51.505645 
Q 410.087058 66.947741 410.087058 82.054427 
" clip-path="url(#pf0112c274c)" style="fill: none; stroke: #000000; stroke-width: 0.3; stroke-linecap: round"/>
    <path d="M 411.887058 78.454427 
L 410.087058 82.054427 
L 408.287058 78.454427 
z
" clip-path="url(#pf0112c274c)" style="stroke: #000000; stroke-width: 0.3; stroke-linecap: round"/>
   </g>
   <g id="patch_12">
    <path d="M 256.555538 189.110084 
Q 221.760352 213.565654 187.239577 237.828355 
" clip-path="url(#pf0112c274c)" style="fill: none; stroke: #000000; stroke-width: 0.3; stroke-linecap: round"/>
    <path d="M 191.219913 237.230921 
L 187.239577 237.828355 
L 189.149832 234.285626 
z
" clip-path="url(#pf0112c274c)" style="stroke: #000000; stroke-width: 0.3; stroke-linecap: round"/>
   </g>
   <g id="patch_13">
    <path d="M 618.694215 51.505645 
Q 618.694215 66.947741 618.694215 82.054427 
" clip-path="url(#pf0112c274c)" style="fill: none; stroke: #000000; stroke-width: 0.3; stroke-linecap: round"/>
    <path d="M 620.494215 78.454427 
L 618.694215 82.054427 
L 616.894215 78.454427 
z
" clip-path="url(#pf0112c274c)" style="stroke: #000000; stroke-width: 0.3; stroke-linecap: round"/>
   </g>
   <g id="PathCollection_1">
    <path d="M 50.305785 191.910545 
L 80.305785 191.910545 
L 80.305785 161.910545 
L 50.305785 161.910545 
z
" clip-path="url(#pf0112c274c)" style="fill: #1f77b4; fill-opacity: 0.5; stroke: #000000; stroke-width: 0.3"/>
    <path d="M 534.158496 191.910545 
L 564.158496 191.910545 
L 564.158496 161.910545 
L 534.158496 161.910545 
z
" clip-path="url(#pf0112c274c)" style="fill: #1f77b4; fill-opacity: 0.5; stroke: #000000; stroke-width: 0.3"/>
    <path d="M 186.479901 118.601455 
L 216.479901 118.601455 
L 216.479901 88.601455 
L 186.479901 88.601455 
z
" clip-path="url(#pf0112c274c)" style="fill: #1f77b4; fill-opacity: 0.5; stroke: #000000; stroke-width: 0.3"/>
    <path d="M 395.087058 118.601455 
L 425.087058 118.601455 
L 425.087058 88.601455 
L 395.087058 88.601455 
z
" clip-path="url(#pf0112c274c)" style="fill: #1f77b4; fill-opacity: 0.5; stroke: #000000; stroke-width: 0.3"/>
    <path d="M 154.609364 265.219636 
L 184.609364 265.219636 
L 184.609364 235.219636 
L 154.609364 235.219636 
z
" clip-path="url(#pf0112c274c)" style="fill: #8c564b; fill-opacity: 0.5; stroke: #000000; stroke-width: 0.3"/>
   </g>
   <g id="PathCollection_2">
    <defs>
     <path id="C0_0_efc30316aa" d="M 0 15 
C 3.978047 15 7.793698 13.419505 10.606602 10.606602 
C 13.419505 7.793698 15 3.978047 15 -0 
C 15 -3.978047 13.419505 -7.793698 10.606602 -10.606602 
C 7.793698 -13.419505 3.978047 -15 0 -15 
C -3.978047 -15 -7.793698 -13.419505 -10.606602 -10.606602 
C -13.419505 -7.793698 -15 -3.978047 -15 0 
C -15 3.978047 -13.419505 7.793698 -10.606602 10.606602 
C -7.793698 13.419505 -3.978047 15 0 15 
z
"/>
    </defs>
    <g clip-path="url(#pf0112c274c)">
     <use xlink:href="#C0_0_efc30316aa" x="410.087058" y="30.292364" style="fill: #1f77b4; fill-opacity: 0.5; stroke: #000000; stroke-width: 0.3"/>
    </g>
    <g clip-path="url(#pf0112c274c)">
     <use xlink:href="#C0_0_efc30316aa" x="273.912942" y="176.910545" style="fill: #8c564b; fill-opacity: 0.5; stroke: #000000; stroke-width: 0.3"/>
    </g>
   </g>
   <g id="PathCollection_3">
    <path d="M 105.354896 45.292364 
L 135.354896 45.292364 
L 135.354896 15.292364 
L 105.354896 15.292364 
z
" clip-path="url(#pf0112c274c)" style="fill: #e5e5e5; fill-opacity: 0.5; stroke: #000000; stroke-width: 0.3"/>
    <path d="M 603.694215 45.292364 
L 633.694215 45.292364 
L 633.694215 15.292364 
L 603.694215 15.292364 
z
" clip-path="url(#pf0112c274c)" style="fill: #e5e5e5; fill-opacity: 0.5; stroke: #000000; stroke-width: 0.3"/>
   </g>
   <g id="PathCollection_4">
    <defs>
     <path id="me6ab8ae5c8" d="M 0 15 
C 3.978047 15 7.793698 13.419505 10.606602 10.606602 
C 13.419505 7.793698 15 3.978047 15 0 
C 15 -3.978047 13.419505 -7.793698 10.606602 -10.606602 
C 7.793698 -13.419505 3.978047 -15 0 -15 
C -3.978047 -15 -7.793698 -13.419505 -10.606602 -10.606602 
C -13.419505 -7.793698 -15 -3.978047 -15 0 
C -15 3.978047 -13.419505 7.793698 -10.606602 10.606602 
C -7.793698 13.419505 -3.978047 15 0 15 
z
" style="stroke: #000000; stroke-width: 0.3"/>
    </defs>
    <g clip-path="url(#pf0112c274c)">
     <use xlink:href="#me6ab8ae5c8" x="618.694215" y="103.601455" style="fill: #e5e5e5; fill-opacity: 0.5; stroke: #000000; stroke-width: 0.3"/>
    </g>
   </g>
   <g id="text_1">
    <g clip-path="url(#pf0112c274c)">
     <!-- K10 -->
     <g transform="translate(55.664379 179.66992) scale(0.1 -0.1)">
      <defs>
       <path id="DejaVuSans-4b" d="M 628 4666 
L 1259 4666 
L 1259 2694 
L 3353 4666 
L 4166 4666 
L 1850 2491 
L 4331 0 
L 3500 0 
L 1259 2247 
L 1259 0 
L 628 0 
L 628 4666 
z
" transform="scale(0.015625)"/>
       <path id="DejaVuSans-31" d="M 794 531 
L 1825 531 
L 1825 4091 
L 703 3866 
L 703 4441 
L 1819 4666 
L 2450 4666 
L 2450 531 
L 3481 531 
L 3481 0 
L 794 0 
L 794 531 
z
" transform="scale(0.015625)"/>
       <path id="DejaVuSans-30" d="M 2034 4250 
Q 1547 4250 1301 3770 
Q 1056 3291 1056 2328 
Q 1056 1369 1301 889 
Q 1547 409 2034 409 
Q 2525 409 2770 889 
Q 3016 1369 3016 2328 
Q 3016 3291 2770 3770 
Q 2525 4250 2034 4250 
z
M 2034 4750 
Q 2819 4750 3233 4129 
Q 3647 3509 3647 2328 
Q 3647 1150 3233 529 
Q 2819 -91 2034 -91 
Q 1250 -91 836 529 
Q 422 1150 422 2328 
Q 422 3509 836 4129 
Q 1250 4750 2034 4750 
z
" transform="scale(0.015625)"/>
      </defs>
      <use xlink:href="#DejaVuSans-4b"/>
      <use xlink:href="#DejaVuSans-31" transform="translate(65.576172 0)"/>
      <use xlink:href="#DejaVuSans-30" transform="translate(129.199219 0)"/>
     </g>
    </g>
   </g>
   <g id="text_2">
    <g clip-path="url(#pf0112c274c)">
     <!-- K14 -->
     <g transform="translate(400.445652 33.051739) scale(0.1 -0.1)">
      <defs>
       <path id="DejaVuSans-34" d="M 2419 4116 
L 825 1625 
L 2419 1625 
L 2419 4116 
z
M 2253 4666 
L 3047 4666 
L 3047 1625 
L 3713 1625 
L 3713 1100 
L 3047 1100 
L 3047 0 
L 2419 0 
L 2419 1100 
L 313 1100 
L 313 1709 
L 2253 4666 
z
" transform="scale(0.015625)"/>
      </defs>
      <use xlink:href="#DejaVuSans-4b"/>
      <use xlink:href="#DejaVuSans-31" transform="translate(65.576172 0)"/>
      <use xlink:href="#DejaVuSans-34" transform="translate(129.199219 0)"/>
     </g>
    </g>
   </g>
   <g id="text_3">
    <g clip-path="url(#pf0112c274c)">
     <!-- K1 -->
     <g transform="translate(267.452786 179.66992) scale(0.1 -0.1)">
      <use xlink:href="#DejaVuSans-4b"/>
      <use xlink:href="#DejaVuSans-31" transform="translate(65.576172 0)"/>
     </g>
    </g>
   </g>
   <g id="text_4">
    <g clip-path="url(#pf0112c274c)">
     <!-- K11 -->
     <g transform="translate(539.51709 179.66992) scale(0.1 -0.1)">
      <use xlink:href="#DejaVuSans-4b"/>
      <use xlink:href="#DejaVuSans-31" transform="translate(65.576172 0)"/>
      <use xlink:href="#DejaVuSans-31" transform="translate(129.199219 0)"/>
     </g>
    </g>
   </g>
   <g id="text_5">
    <g clip-path="url(#pf0112c274c)">
     <!-- K5 -->
     <g transform="translate(195.019745 106.36083) scale(0.1 -0.1)">
      <defs>
       <path id="DejaVuSans-35" d="M 691 4666 
L 3169 4666 
L 3169 4134 
L 1269 4134 
L 1269 2991 
Q 1406 3038 1543 3061 
Q 1681 3084 1819 3084 
Q 2600 3084 3056 2656 
Q 3513 2228 3513 1497 
Q 3513 744 3044 326 
Q 2575 -91 1722 -91 
Q 1428 -91 1123 -41 
Q 819 9 494 109 
L 494 744 
Q 775 591 1075 516 
Q 1375 441 1709 441 
Q 2250 441 2565 725 
Q 2881 1009 2881 1497 
Q 2881 1984 2565 2268 
Q 2250 2553 1709 2553 
Q 1456 2553 1204 2497 
Q 953 2441 691 2322 
L 691 4666 
z
" transform="scale(0.015625)"/>
      </defs>
      <use xlink:href="#DejaVuSans-4b"/>
      <use xlink:href="#DejaVuSans-35" transform="translate(65.576172 0)"/>
     </g>
    </g>
   </g>
   <g id="text_6">
    <g clip-path="url(#pf0112c274c)">
     <!-- K15 -->
     <g transform="translate(400.445652 106.36083) scale(0.1 -0.1)">
      <use xlink:href="#DejaVuSans-4b"/>
      <use xlink:href="#DejaVuSans-31" transform="translate(65.576172 0)"/>
      <use xlink:href="#DejaVuSans-35" transform="translate(129.199219 0)"/>
     </g>
    </g>
   </g>
   <g id="text_7">
    <g clip-path="url(#pf0112c274c)">
     <!-- K2 -->
     <g transform="translate(163.149207 252.979011) scale(0.1 -0.1)">
      <defs>
       <path id="DejaVuSans-32" d="M 1228 531 
L 3431 531 
L 3431 0 
L 469 0 
L 469 531 
Q 828 903 1448 1529 
Q 2069 2156 2228 2338 
Q 2531 2678 2651 2914 
Q 2772 3150 2772 3378 
Q 2772 3750 2511 3984 
Q 2250 4219 1831 4219 
Q 1534 4219 1204 4116 
Q 875 4013 500 3803 
L 500 4441 
Q 881 4594 1212 4672 
Q 1544 4750 1819 4750 
Q 2544 4750 2975 4387 
Q 3406 4025 3406 3419 
Q 3406 3131 3298 2873 
Q 3191 2616 2906 2266 
Q 2828 2175 2409 1742 
Q 1991 1309 1228 531 
z
" transform="scale(0.015625)"/>
      </defs>
      <use xlink:href="#DejaVuSans-4b"/>
      <use xlink:href="#DejaVuSans-32" transform="translate(65.576172 0)"/>
     </g>
    </g>
   </g>
  </g>
 </g>
 <defs>
  <clipPath id="pf0112c274c">
   <rect x="7.2" y="7.2" width="669.6" height="266.112"/>
  </clipPath>
 </defs>
</svg>
