<?xml version="1.0" encoding="UTF-8" standalone="no"?>
<!-- Created with Inkscape (http://www.inkscape.org/) -->

<svg
   width="175.85973mm"
   height="175.85928mm"
   viewBox="0 0 175.85973 175.85928"
   version="1.1"
   id="svg1"
   xml:space="preserve"
   xmlns="http://www.w3.org/2000/svg"
   xmlns:svg="http://www.w3.org/2000/svg"><defs
     id="defs1" /><g
     id="layer1"
     transform="translate(-85.904242,-4.9825796)"><g
       style="fill:#4d4d4d"
       id="g4"
       transform="matrix(8.8194444,0,0,8.8194444,68.006943,-12.931917)"><path
         d="m 18.6493,4.59125 c -1.76,-1.6 -4.09,-2.56 -6.65,-2.56 -5.5,0 -9.97,4.47 -9.97,9.97005 0,5.5 4.47,9.9699 9.97,9.9699 2.56,0 4.89,-0.96 6.65,-2.56 2.04,-1.81 3.32,-4.47 3.32,-7.4099 0,-2.94005 -1.28,-5.60005 -3.32,-7.41005 z m -6.68,11.79995 c -0.02,1.6501 -1.25,2.05 -2.4,1.59 -2.37,-0.95 -4.04,-3.2699 -4.04,-5.9799 0,-2.71005 1.67,-5.03005 4.04,-5.99005 1.15,-0.46 2.38,-0.05 2.4,1.59 z"
         fill="#292d32"
         id="path1-6"
         style="fill:#4d4d4d" /></g></g></svg>
