<?xml version="1.0" encoding="UTF-8" standalone="no"?>
<!-- Created with Inkscape (http://www.inkscape.org/) -->

<svg
   width="176.41563mm"
   height="141.12036mm"
   viewBox="0 0 176.41563 141.12036"
   version="1.1"
   id="svg1"
   xml:space="preserve"
   xmlns="http://www.w3.org/2000/svg"
   xmlns:svg="http://www.w3.org/2000/svg"><defs
     id="defs1" /><g
     id="layer1"
     transform="translate(-12.057792,-39.350445)"><path
       d="m 63.374142,100.79595 h 17.88583 c 0.65264,0 1.30528,0.0265 1.9491,0.0706 a 8.8194444,8.8194444 0 0 0 5.61798,-4.07459 L 105.10774,69.575109 a 26.458333,26.458333 0 0 1 22.71008,-12.87639 h 9.33979 a 26.467153,26.467153 0 1 1 -0.21167,17.63889 h -9.12812 a 8.8194444,8.8194444 0 0 0 -7.56709,4.29507 l -16.28069,27.216811 a 26.458333,26.458333 0 0 1 -2.8575,3.91583 26.458333,26.458333 0 0 1 2.8575,3.90701 l 16.28069,27.21681 a 8.8194444,8.8194444 0 0 0 7.56709,4.29507 h 9.23395 a 26.467153,26.467153 0 1 1 0,17.63888 h -9.23395 A 26.458333,26.458333 0 0 1 105.10774,149.94671 L 88.827052,122.7299 a 8.8194444,8.8194444 0 0 0 -5.61798,-4.07458 26.51125,26.51125 0 0 1 -1.9491,0.0706 h -17.78 a 26.467153,26.467153 0 1 1 -0.10583,-17.92993 z"
       id="path1-4"
       style="fill:#4d4d4d;stroke-width:8.81944" /></g></svg>
