<?xml version="1.0" encoding="UTF-8"?>
<svg width="270.93mm" height="270.93mm" version="1.1" viewBox="0 0 270.93 270.93" xml:space="preserve" xmlns="http://www.w3.org/2000/svg"><style>svg{color:#111;}path{fill:currentColor;}@media (prefers-color-scheme: dark){svg{color:#fff;}}</style><g transform="translate(30.467 -13.033)"><path transform="matrix(.26458 0 0 .26458 -30.467 13.033)" d="m898.28 109.55c-0.0845-1e-3 -0.16889 5.8e-4 -0.25196 0.00586-35.537 21.684-67.257 49.021-100.77 73.629-7.7619 7.3315-19.349 12.305-23.438 22.68-3.2956 21.144-0.97789 43.093-5.9883 63.904-5.0028 11.813-17.986 17.467-26.775 26.094-18.196 14.127-35.835 29.454-55.137 41.9-24.329-15.076-49.909-28.797-77.625-36.709-64.939-19.578-137.17-17.808-199.3 10.605-22.001 8.9611-41.466 22.698-61.83 34.607-4.7096 2.4263-8.0541-5.133-12.092-6.4648-23.441-18.498-47.845-35.918-69.848-56.137-3.7477-26.723-10.48-52.893-17.234-78.971-38.934-28.412-76.384-59.023-116.87-85.234-3.8935-3.3221-6.5086 1.9327-6.002 5.3633-1.6916 19.812-1.7517 39.821-3.8008 59.551-10.143 5.1382-22.618 4.5167-33.582 7.541-12.658 3.155-26.434 4.2176-38.096 10.219-1.9742 4.5219 5.1197 7.8031 7.2539 11.041 36.57 33.555 76.803 62.761 115.69 93.512 8.5144 7.0431 19.271 13.648 30.76 10.154 12.317-1.8632 25.172-7.4891 37.619-4.4551 19.072 11.121 35.205 26.73 53.064 39.674 7.9855 6.6852 17.463 12.73 24.51 19.982-22.066 26.428-40.313 56.581-49.162 90.107-5.6188 18.882-3.3564 38.953-3.0664 58.355 5.9543 37.979 29.995 71.085 60.742 93.305 4.7611 4.2823 10.934 7.2004 15.838 10.91-41.43 31.914-84.148 62.254-126.41 93.094-5.1744-14.061-8.1054-30.87-20.234-40.885-9.0583-4.6882-15.593 6.7492-20.141 12.754-29.403 45.174-56.4 91.894-83.936 138.23-3.7139 8.3937-11.252 16.257-11.484 25.752 3.7087 6.6472 12.947 1.4023 18.547 0.58008 56.835-18.31 112.97-38.85 168.68-60.336 7.6157-4.2233 20.474-5.9508 22.41-16.115-1.3996-9.0485-12.615-11.675-19.314-15.934-9.6923-4.6989-19.511-9.1813-28.699-14.838 45.2-33.182 91.033-67.08 136.59-98.828-6.3208 19.951-17.002 38.825-20.365 59.564 3.402 8.9158 14.782 10.829 22.34 15.018 14.207 4.8486 28.36 12.91 43.723 12.504 12.628-2.5199 15.157-18.33 23.047-26.02 4.4263 10.646 4.4777 23.69 11.984 32.869 11.115 3.9146 23.199-1.5147 34.318-3.1602 10.745-2.399 21.869-5.4454 30.033-13.301 2.4274 9.0971 9.8594 16.291 19.512 16.74 19.512 2.8285 39.789 7.4959 59.408 3.373 8.6372-2.4632 10.368-12.48 12.143-19.955 11.499 13.933 31.121 11.907 47.232 11.914 11.317 0.56415 26.438-3.5944 27.898-16.934 2.7986-19.331-5.8054-39.299-8.1602-57.152 37.675 26.012 74.516 53.337 110.91 81.098 3.6921 1.8357 2.9997 3.714-0.77149 4.748-13.567 8.2434-29.736 13.111-41.215 24.367-4.4863 6.6894 4.9119 11.786 9.8105 14.158 42.403 19.252 87.066 32.995 130.77 48.965 20.56 6.1202 40.195 16.03 61.469 19.375 4.4615 0.88121 9.2726-3.0659 6.4844-7.6289-10.689-24.135-26.353-45.74-39.461-68.598-20.824-33.354-40.62-67.459-63.01-99.773-4.533-6.2568-14.907-9.2109-20.055-2.0664-8.715 10.485-10.045 25.151-15.459 36.902-42.044-29.467-83.718-59.578-124.72-90.451-4.3458-2.3702 3.4181-4.6662 4.6894-6.5312 16.629-12.446 31.935-27.267 43.863-44.314 28.945-43.685 29.924-101.82 8.2402-148.72-9.9392-22.334-23.627-42.816-39.301-61.463-0.90767-4.1593 5.9492-5.8514 7.8789-8.7598 20.815-15.946 41.174-32.864 63.508-46.611 15.894-5.5744 32.343 3.2078 48.426 3.873 7.6819 0.47826 16.131 1.9759 23.424 0.20118 35.449-25.177 68.03-54.147 100.39-83.117 10.219-10.373 22.455-19.442 30.174-31.916 1.3184-5.6094-7.4986-5.6271-10.873-7.0664-23.018-5.9315-47.047-7.636-69.936-13.682-3.7887-8.3767-1.958-18.648-3.4766-27.65-1.6188-12.81-0.16131-26.402-3.8965-38.777-0.3801-0.48018-0.9884-0.65541-1.5801-0.66406zm-7.6328 18.096c0.25654 1.3308 0.51298 2.6614 0.76953 3.9922 1.4599 15.948 2.7651 32.456 0.94922 48.332-11.548 10.761-24.211 20.915-37.148 29.676-1.8497-12.689 0.27902-26.076 0.6211-38.967 0.95661-9.8114 1.2478-22.292 11.768-26.949 7.6191-5.4485 15.353-10.734 23.041-16.084zm-754.98 9.4043 0.25196 0.04882c9.304 5.2862 18.946 11.205 26.291 18.99 2.5791 18.263 2.4858 37.019 1.5508 55.43-10.042-8.9418-22.047-16.342-30.402-26.891 0.0741-15.84 0.53693-31.916 2.3086-47.578zm713.25 21.217c3.2712 10.364 0.91718 22.116 0.76953 32.953-1.3764 8.7738-0.30884 18.848-4.8613 26.695-6.9923 5.8155-14.302 12.648-22.295 16.408-0.83269-14.117 0.93704-28.579 1.1172-42.805 0.4105-6.6435-0.10923-14.438 6.5723-18.311 5.9594-5.1675 11.705-11.256 18.697-14.941zm-678.56 2.4199 8.5156 6.2148c4.8994 4.1085 12.626 7.5177 11.66 15.213 0.88917 16.529 2.649 33.396 1.0352 49.836-7.6922-4.3618-14.137-10.641-21.195-15.938-1.5888-18.403-2.0224-36.936-0.01563-55.326zm27.85 21.791c0.0477 8.7e-4 0.0978 0.01231 0.15039 0.03711 6.4679 3.6146 13.834 7.6658 18.072 13.734 1.8105 18.893 1.5512 37.988 2.0898 56.898-6.9281-4.9086-13.584-10.182-20.371-15.289-0.44827-18.245-3.5163-36.943-0.39844-55.01 0.0908-0.17894 0.25012-0.37485 0.45703-0.37109zm616.2 2.5586h0.00781c5.322 2.2807 3.5193 10.197 4.1172 14.945-0.94743 13.398-0.27409 27.416-4.3535 40.297-7.5343 10.173-19.525 16.146-29.166 24.145-7.3137 5.7576-1.4891-12.084-2.9824-16.781 0.88234-12.136-0.24495-24.837 2.7012-36.637 7.9687-10.312 17.787-20.055 29.463-25.955l0.21289-0.01368zm90.502 3.8652c21.256 2.0698 42.64 5.4661 63.197 11.213-1.2847 5.099-6.6943 9.3736-10.676 12.896-11.57 2.206-23.67-2.6062-35.375-3.2949-9.3044-1.2828-18.632-2.5642-27.984-3.3398-64.27 47.943-127.33 97.46-190.78 146.48-8.4755-3.7397-5.7871-8.1927 0.75-12.113 62.959-49.747 127.32-97.715 190.84-146.72 3.1051-1.9791 6.2463-4.6906 10.027-5.1211zm-779.8 7.541c4.1013 3.1034 8.2034 6.2072 12.305 9.3106 47.177 36.404 95.152 71.756 142.74 107.6 18.393 14.25 36.69 28.622 55.074 42.883-2.5907 2.081-5.7486 8.8476-9.2598 3.6191-24.879-18.939-50.295-37.387-73.967-57.807-1.0707-1.8731-2.1264-3.859-3.7207-5.627-4.4902-4.9792-11.434-9.3213-15.973-13.15l-7.1328-5.7051c-4.1508-3.604-9.0812-7.5787-13.201-10.926-5.4862-4.457-14.702-11.834-17.482-14.045-9.7619-7.7627-22.325-3.0933-33.156-1.666-12.626 1.5609-26.107 3.565-38.4 2.2754-7.2344-5.8763-14.86-11.401-21.051-18.434 17.609-5.5461 37.269-1.7088 54.621-8.5352 3.4656-2.882-3.4928-3.0614-5.1426-2.4453-19.749 1.542-40.132 7.1751-59.793 2.7305-7.919-5.582-15.842-12.426-21.977-19.59 17.967-5.627 37.027-7.1156 55.52-10.486zm99.492 7.166h0.00781c7.835 3.2658 15.962 9.4714 16.369 18.766 4.3525 18.606 9.7348 37.294 11.775 56.258-2.4868 0.98507-5.8491-3.8267-8.3691-4.9102-6.6683-5.7991-15.546-10.657-20.469-17.416 0.36493-17.454-1.963-35.53 0.47071-52.686l0.21484-0.01172zm677.33 8.8477c0.49997 6e-3 1.0055 0.03082 1.5176 0.07812 14.867 1.2597 30.248 2.1953 44.408 7.0176 2.3485 2.3624-3.796 4.8354-4.6055 6.8379-5.7071 5.8156-12.56 12.447-21.502 10.293-14.682-1.957-30.131-2.1816-44.041-7.4902-2.2238-2.7413 4.273-4.9796 5.4121-7.2031 5.1664-5.133 11.311-9.6168 18.811-9.5332zm-27.799 23.75c15.54 0.9385 31.584 2.337 46.238 7.709-1.4924 5.2839-8.1686 8.7451-12.34 12.293-11.73 7.5858-26.455 1.0711-39.223 0.95117-6.9969-1.6191-15.406-0.46887-21.697-3.7949 2.2547-5.8092 9.4041-8.8335 13.758-13.086 3.731-3.1479 8.4939-4.1337 13.264-4.0723zm-696.67 17.289c4.3992-0.22815 8.7697-0.15962 13.164 0.22852 1.184 0.0366 2.495 0.82592 2.8848 1.127 1.5862 1.225 3.3972 2.3303 14.711 12.494 1.3622 1.362 3.5167 3.7084 0.42383 3.8086-17.127 2.1706-34.328 6.3138-51.604 6.2637-8.4339-3.0495-15.325-9.9337-21.732-16.002 8.3248-5.0427 19.302-4.7114 28.811-6.3711 4.5136-0.79565 8.9425-1.3207 13.342-1.5488zm673.37 7.2812c14.484 0.73901 29.569 0.67876 43.275 5.8848-8.9998 9.1531-18.882 21.636-33.33 19.592-14.251-2.2964-28.975-4.1471-42.678-8.6348 3.2235-6.9205 10.636-12.036 17.234-15.736 4.9297-1.3173 10.367-1.0611 15.498-1.1055zm-644.88 16.434c3.9593-0.08943 7.9142 0.0235 11.855 0.42188 1.4846 0.13972 4.65 2.4426 6.6641 3.709l6.1758 5.2793c1.8558 1.7665 9.1527 7.1406 7.4297 9.5859-14.451 3.876-29.128 8.2307-44.012 9.627-10.751-3.5845-18.981-12.629-27.732-19.615-3.9632-2.8269 1.4833-5.1114 4.1289-4.9277 11.696-1.7168 23.612-3.8118 35.49-4.0801zm604.39 7.3418c0.40546-0.0134 0.81465-0.00902 1.2246 0.01758 16.165 0.82928 32.575 2.8203 48.057 7.5215 2.7342 2.5357-3.5522 4.8576-4.916 6.2227-10.659 7.532-24.328 0.49986-35.967-0.0625-7.5662-1.8925-16.587-1.6449-23.568-4.4102 3.5582-4.5567 9.0879-9.0888 15.17-9.2891zm-283.9 18.764c57.828-0.1803 115.87 19.65 160.93 55.955 33.189 28.812 57.016 69.192 64.426 112.63 2.0137 23.521 2.4194 48.123-7.5488 70.082-10.165 27.979-32.097 49.506-55.732 66.592-11.067 7.7446-23.925 12.499-35.68 18.771-4.2445 4.1205 2.0444 6.8478 3.3125 10.352 10.441 23.287 17.344 48.41 20.6 73.721 1.8073 6.1776-3.238 11.027-9.0312 11.68-10.975 1.6062-23.501 3.7166-33.812-1.4746-10.889-9.3686-12.122-25.318-17.592-37.854-3.5415-7.524-4.7659-17.728-11.773-22.869-5.1431 1.7315-2.6238 9.8614-3.8594 13.869-1.7714 17.773 0.22695 36.064-3.2676 53.561-4.2792 8.5592-15.649 4.6752-23.211 5.6289-10.803-0.94277-23.889-0.08-32.34-7.9902-10.112-17.078-6.5023-38.985-15.955-56.43-3.6909-3.8414-5.508 4.4753-6.0352 6.9141-3.9173 13.961-1.6535 30.486-10.879 42.461-8.993 6.5098-21.031 7.0264-31.541 9.7949-5.2966 2.2629-11.565-1.0024-11.432-7.123-4.5423-18.214-3.4736-37.431-8.4941-55.477-0.68587-3.7508-5.2437-3.4836-6.2266-0.00976-10.181 16.717-15.593 36.318-27.732 51.785-7.32 5.9826-17.157-0.70227-24.992-2.2051-7.6687-3.5839-18.367-4.469-23.104-12.289-0.0753-11.89 7.1228-22.691 10.684-33.83 3.9646-11.625 10.852-22.126 14.715-33.684-5.8245-5.0557-15.032-5.6922-21.896-9.5039-39.842-16.763-77.361-46.578-92.008-88.467-13.978-36.617-5.5517-77.988 12.623-111.57 30.427-57.294 88.874-94.549 149.52-113.35 25.028-7.4918 51.277-10.029 77.34-9.6816zm76.787 79.023c-20.973 0.56765-41.77 9.5441-56.121 24.951-13.622 13.492-20.762 32.828-20.1 51.918-0.0571 38.086 25.692 73.989 60.781 88.045 18.194 8.0888 39.397 7.7893 58.182 1.9414 21.263-7.1942 39.412-23.732 47.066-45.004 4.5862-14.513 4.3835-30.35 1.3301-45.154-5.7035-25.445-21.933-48.177-44.258-61.688-13.926-9.0421-30.055-15.4-46.881-15.01zm-187.44 45.049c-32.904 0.17882-64.498 25.247-70.01 58.059-3.0512 17.22 0.13312 35.616 10.254 50.063 15.988 24.202 47.031 37.97 75.635 31.795 25.378-4.2329 48.304-22.584 56.027-47.418 6.124-18.823 4.2709-40.661-6.3906-57.512-12.813-20.109-35.301-33.889-59.271-34.852-2.0786-0.12191-4.1622-0.15939-6.2441-0.13477zm100.15 124.98c-0.24259 0.00356-0.48609 0.01785-0.72656 0.03907-11.481 3.1842-16.305 16.075-22.363 25.139-4.2062 9.3573-11.676 17.981-12.979 28.346 0.66897 6.3029 7.289 7.2984 12.395 6.1914 26.68-1.8321 53.615-4.2935 79.559-10.961 6.2788-2.1978 2.0432-9.6426-1.498-12.324-15.802-14.041-33.139-26.986-52.23-36.156-0.69755-0.2066-1.4285-0.28409-2.1562-0.27344zm-158.83 80.086c1.3117 0.83021 2.6238 1.66 3.9356 2.4902 7.9726 2.5263-2.1074 6.8905-4.8613 10.035-41.278 30.836-82.91 61.278-124.93 91.09-3.1834 4.0965-13.056 4.5878-11.426-2.4727 7.0497-9.9212 19.132-15.086 28.24-22.957 36.166-26.314 72.396-52.546 109.04-78.186zm321.68 0.00977c13.333 4.77 23.88 15.415 35.814 22.869 33.567 24.632 68.392 47.686 100.86 73.736 5.2131 2.7859 2.7309 10.648-2.8965 10.35-34.401-23.033-67.273-48.463-100.9-72.672-12.545-10.025-26.803-18.687-37.377-30.816 0.19133-1.6601 2.8502-3.3102 4.4961-3.4668zm167.26 58.441 0.21093 0.00781c7.5621 5.9201 11.152 16.002 16.92 23.598 25.027 40.662 50.689 81.136 73.926 122.76-9.4742-0.49959-18.737-6.2264-28.039-8.7012-43.624-15.725-87.856-29.942-130.98-46.949-2.4768-1.4958-6.3593-2.5463-7.6289-5.0977 17.402-9.6354 35.278-18.935 53.604-26.516 14.496 7.5212 31.459 22.49 46.66 28.471 0.57404-0.26301 1.2545 0.20195 1.1426-0.26758-0.46458-1.9484-8.591-8.1434-9.4434-9.0098-9.2151-9.3671-22.278-15.546-29.061-27.088-1.501-10.04 3.4845-20.059 5.0059-29.91 2.6133-6.8136 2.4049-15.82 7.5098-21.271l0.17774-0.02929zm-653.32 1.9883c4.3118 6.373 4.6409 15.394 7.3906 22.66 1.3469 9.2829 7.4972 18.377 5.8438 27.867-6.538 9.9094-15.09 13.87-22.773 21.098-1.9807 1.8631-14.842 11.779-16.68 14.213 1.4016 2.3543 10.534-5.133 13.088-6.3965 7.9293-3.9229 23.584-14.651 36.016-21.092 18.422 7.1291 36.388 15.817 53.91 24.938 1.9054 2.7844-4.8116 3.9881-6.4219 5.2148-49.85 18.864-100.23 36.376-150.54 53.965-2.4366 0.28747-7.6048 3.292-8.9805 1.8418 26.262-46.128 53.35-91.855 81.906-136.59 2.1919-2.3304 3.8286-6.9605 7.2422-7.7148z" fill-rule="evenodd" stroke-width="2.6417" style="-inkscape-stroke:none;paint-order:fill markers stroke"/></g></svg>
