<?xml version="1.0" encoding="UTF-8" standalone="no"?>
<!-- Created with Inkscape (http://www.inkscape.org/) -->

<svg
   width="48"
   height="48"
   viewBox="0 0 12.7 12.7"
   version="1.1"
   id="svg1"
   xmlns="http://www.w3.org/2000/svg"
   xmlns:svg="http://www.w3.org/2000/svg">
  <defs
     id="defs1" />
  <g
     id="layer1"
     transform="matrix(1.0567177,0,0,1.0567177,-0.36015771,-0.36015771)">
    <rect
       style="display:none;opacity:1;fill:none;fill-opacity:1;stroke:#ffffff;stroke-width:0.316;stroke-linecap:round;stroke-linejoin:round;stroke-dasharray:none;stroke-opacity:1"
       id="rect1"
       width="9.5708742"
       height="9.5708742"
       x="1.5645629"
       y="1.5645629" />
    <rect
       style="display:none;opacity:1;fill:none;fill-opacity:1;stroke:#ffffff;stroke-width:0.915798;stroke-linecap:round;stroke-linejoin:round;stroke-dasharray:none;stroke-opacity:1"
       id="rect38"
       width="9.5708742"
       height="9.5708742"
       x="1.5645629"
       y="1.5645629"
       ry="3.110863" />
    <rect
       style="display:inline;opacity:1;fill:none;fill-opacity:1;stroke:#ffffff;stroke-width:0.915798;stroke-linecap:round;stroke-linejoin:round;stroke-dasharray:none;stroke-opacity:1"
       id="rect2"
       width="9.5708742"
       height="9.5708742"
       x="1.5645629"
       y="1.5645629"
       ry="4.7854371"
       rx="4.7854371" />
  </g>
  <g
     id="layer2"
     style="display:inline">
    <path
       style="display:inline;fill:none;stroke:#ffffff;stroke-width:1.465;stroke-linecap:round;stroke-linejoin:round;stroke-dasharray:none;stroke-opacity:1"
       d="M 6.3410664,6.36546 4.4335013,4.0522236"
       id="path2" />
    <path
       style="display:none;fill:none;stroke:#ffffff;stroke-width:1.465;stroke-linecap:round;stroke-linejoin:round;stroke-dasharray:none;stroke-opacity:1"
       d="M 6.37713,6.3615649 11.260009,1.2965066"
       id="use31" />
    <path
       style="display:none;fill:none;stroke:#ffffff;stroke-width:1.465;stroke-linecap:round;stroke-linejoin:round;stroke-dasharray:none;stroke-opacity:1"
       d="M 6.3610066,6.3773634 13.39526,6.248543"
       id="use32" />
    <path
       style="display:none;fill:none;stroke:#ffffff;stroke-width:1.465;stroke-linecap:round;stroke-linejoin:round;stroke-dasharray:none;stroke-opacity:1"
       d="m 6.338434,6.3771308 5.065058,4.8828782"
       id="use33" />
    <path
       style="display:none;fill:none;stroke:#ffffff;stroke-width:1.465;stroke-linecap:round;stroke-linejoin:round;stroke-dasharray:none;stroke-opacity:1"
       d="M 6.322637,6.3610073 6.4514574,13.395261"
       id="use34" />
    <path
       style="display:inline;fill:none;stroke:#ffffff;stroke-width:1.465;stroke-linecap:round;stroke-linejoin:round;stroke-dasharray:none;stroke-opacity:1"
       d="M 6.322869,6.3384356 1.4399903,11.403494"
       id="use35" />
    <path
       style="display:none;fill:none;stroke:#ffffff;stroke-width:1.465;stroke-linecap:round;stroke-linejoin:round;stroke-dasharray:none;stroke-opacity:1"
       d="M 6.3389932,6.3226376 -0.69526049,6.451458"
       id="use36" />
    <path
       style="display:none;fill:none;stroke:#ffffff;stroke-width:1.465;stroke-linecap:round;stroke-linejoin:round;stroke-dasharray:none;stroke-opacity:1"
       d="M 6.3615647,6.3228685 1.2965064,1.4399898"
       id="use37" />
    <path
       style="display:none;fill:none;stroke:#ffffff;stroke-width:1.465;stroke-linecap:round;stroke-linejoin:round;stroke-dasharray:none;stroke-opacity:1"
       d="M 6.3773615,6.3389927 6.2485411,-0.69526102"
       id="use38" />
  </g>
  <g
     id="layer3"
     style="display:none">
    <path
       style="font-weight:bold;font-size:10.4396px;line-height:1.25;font-family:'Besley*';-inkscape-font-specification:'Besley*, Bold';letter-spacing:0px;word-spacing:0px;fill:#ffffff;stroke-width:0.206043"
       d="m 5.2284722,3.5018237 c 0,-0.041758 0.031319,-0.083517 0.104396,-0.1461544 0.062638,-0.062638 0.1774732,-0.1148356 0.3236276,-0.156594 0.1461544,-0.041758 0.3027484,-0.073077 0.4802216,-0.073077 0.4280236,0 0.7203324,0.1148356 0.887366,0.3445068 0.156594,0.2296712 0.2401108,0.5637384 0.2401108,0.991762 0,0.4384632 -0.1252752,0.7934096 -0.365386,1.0648392 C 6.6482578,5.7985359 6.2933114,6.0282071 5.833969,6.1952407 5.80265,6.2161197 5.750452,6.2369987 5.6669354,6.2578787 5.5834184,6.2787577 5.5312206,6.2996367 5.520781,6.3100767 5.499902,6.3205167 5.479023,6.3413957 5.437264,6.3831537 5.395506,6.4249117 5.374626,6.4666707 5.374626,6.5293081 5.364186,6.5919461 5.364186,6.6650229 5.364186,6.7589793 v 0.8560472 c 0,0.083517 0.01044,0.1461544 0.052198,0.1670336 0.031319,0.020879 0.104396,0.031319 0.2296712,0.031319 H 6.669137 c 0.1670336,0 0.2714296,-0.01044 0.313188,-0.041758 0.031319,-0.031319 0.052198,-0.1252752 0.052198,-0.2923088 v -0.469782 c 0,-0.073077 0,-0.1357148 0.01044,-0.1879128 0,-0.041758 0.01044,-0.083517 0.020879,-0.1148356 0.01044,-0.020879 0.031319,-0.052198 0.062638,-0.073077 0.031319,-0.020879 0.052198,-0.031319 0.073077,-0.041758 0.020879,0 0.052198,-0.01044 0.1148356,-0.031319 0.062638,-0.01044 0.104396,-0.020879 0.1461544,-0.041758 C 7.9845266,6.3518345 8.391671,6.1012841 8.6944194,5.7567773 8.9971678,5.4227101 9.1537618,4.9842469 9.1537618,4.4622669 9.1537618,3.8150117 8.9240906,3.3034713 8.4647482,2.9276457 8.0054058,2.5622597 7.3059526,2.3743469 6.3455094,2.3743469 c -0.835168,0 -1.4928628,0.2192316 -1.9626448,0.6368156 -0.4802216,0.4280236 -0.7098928,0.9082452 -0.7098928,1.4406648 0,0.3549464 0.093956,0.6368156 0.3027484,0.8456076 0.208792,0.208792 0.4593424,0.313188 0.7620908,0.313188 0.2818692,0 0.52198,-0.083517 0.7203324,-0.26099 0.1879128,-0.1774732 0.2923088,-0.4071444 0.2923088,-0.678574 0,-0.208792 -0.052198,-0.3967048 -0.1357148,-0.5637384 C 5.5312206,3.9402869 5.4372642,3.8150117 5.3537474,3.7210553 5.2702306,3.6270989 5.2284722,3.5540217 5.2284722,3.5018237 Z m -0.052198,6.0758472 c 0,0.2923088 0.093956,0.5324201 0.3027484,0.7412121 0.208792,0.208792 0.4489028,0.302748 0.7412116,0.302748 0.2818692,0 0.52198,-0.09396 0.730772,-0.302748 0.208792,-0.208792 0.313188,-0.4489033 0.313188,-0.7412121 0,-0.2818692 -0.104396,-0.52198 -0.313188,-0.730772 -0.208792,-0.208792 -0.4489028,-0.313188 -0.730772,-0.313188 -0.2923088,0 -0.5324196,0.104396 -0.7412116,0.313188 -0.208792,0.208792 -0.3027484,0.4489028 -0.3027484,0.730772 z"
       id="text38"
       aria-label="?" />
  </g>
</svg>
