<?xml version="1.0" encoding="UTF-8"?>
<svg xmlns="http://www.w3.org/2000/svg" viewBox="0 0 24 24" fill="none"><path d="m20 20-1.73-1.73m0 0a2.5 2.5 0 10-3.54-3.53 2.5 2.5 0 003.54 3.53M15.6 10h2.8c.56 0 .84 0 1.05-.11a1 1 0 00.44-.44c.11-.21.11-.49.11-1.05V5.6c0-.56 0-.84-.11-1.05a1 1 0 00-.44-.44C19.24 4 18.96 4 18.4 4h-2.8c-.56 0-.84 0-1.05.11a1 1 0 00-.44.44C14 4.76 14 5.04 14 5.6v2.8c0 .56 0 .84.11 1.05q.14.3.44.44c.21.11.49.11 1.05.11m-10 0h2.8c.56 0 .84 0 1.05-.11a1 1 0 00.44-.44c.11-.21.11-.49.11-1.05V5.6c0-.56 0-.84-.11-1.05a1 1 0 00-.44-.44C9.24 4 8.96 4 8.4 4H5.6c-.56 0-.84 0-1.05.11a1 1 0 00-.44.44C4 4.76 4 5.04 4 5.6v2.8c0 .56 0 .84.11 1.05q.15.3.44.44c.21.11.49.11 1.05.11m0 10h2.8c.56 0 .84 0 1.05-.11a1 1 0 00.44-.44c.11-.21.11-.49.11-1.05v-2.8c0-.56 0-.84-.11-1.05a1 1 0 00-.44-.44C9.24 14 8.96 14 8.4 14H5.6c-.56 0-.84 0-1.05.11a1 1 0 00-.44.44C4 14.76 4 15.04 4 15.6v2.8c0 .56 0 .84.11 1.05q.15.3.44.44c.21.11.49.11 1.05.11" stroke="#000000" stroke-width="2" stroke-linecap="round" stroke-linejoin="round"/></svg>