<?xml version="1.0" encoding="UTF-8"?>
<svg width="800" height="800" viewBox="0 0 512 512" xml:space="preserve" xmlns="http://www.w3.org/2000/svg"><path d="m427.83 365.48c-7.149-2.276-14.8 1.68-17.075 8.836-21.013 66.089-81.77 110.49-151.18 110.49-87.457 0-158.61-71.151-158.61-158.61 0-87.457 71.153-158.61 158.61-158.61 69.653 0 132.17 46.572 152.03 113.26 2.144 7.195 9.714 11.292 16.908 9.147s11.291-9.714 9.147-16.908c-9.929-33.336-29.539-63.676-55.778-86.704v-60.503c1e-3 -69.411-56.469-125.88-125.88-125.88-15.482 0-30.606 2.781-44.951 8.268-7.012 2.682-10.523 10.539-7.842 17.552 2.682 7.012 10.535 10.522 17.554 7.842 11.231-4.297 23.088-6.475 35.239-6.475 54.42 0 98.695 44.274 98.695 98.694v40.708c-28.664-17.168-61.165-26.184-95.124-26.184-37.758 0-72.913 11.332-102.26 30.757v-45.281c0-19.693 5.779-38.7 16.712-54.968 4.188-6.231 2.531-14.677-3.7-18.865-6.23-4.186-14.676-2.533-18.865 3.7-13.958 20.767-21.334 45.019-21.334 70.133v67.189c-34.729 33.778-56.344 80.974-56.344 133.13 0 102.45 83.347 185.8 185.8 185.8 40.23 0 78.515-12.649 110.72-36.578 31.565-23.455 54.517-55.566 66.376-92.863 2.273-7.155-1.683-14.8-8.837-17.074" fill="#507c5c"/><circle cx="256" cy="326.2" r="109.01" fill="#cff09e"/><path d="m256 448.81c-67.605 0-122.61-55.001-122.61-122.61s55.002-122.61 122.61-122.61 122.61 55.001 122.61 122.61-55.003 122.61-122.61 122.61m0-218.03c-52.615 0-95.419 42.806-95.419 95.419s42.804 95.419 95.419 95.419 95.419-42.806 95.419-95.419-42.804-95.419-95.419-95.419" fill="#507c5c"/><path d="m256 363.39a13.6 13.6 0 0 1-8.954-3.366l-35.882-31.415c-5.648-4.945-6.219-13.534-1.275-19.182 4.948-5.65 13.534-6.219 19.182-1.274l25.289 22.14 35.057-43.008c4.744-5.821 13.306-6.691 19.125-1.949 5.818 4.744 6.691 13.307 1.948 19.126l-43.953 53.923a13.6 13.6 0 0 1-10.537 5.005" fill="#507c5c"/></svg>
