<?xml version="1.0" encoding="UTF-8" standalone="no"?>
<!-- Created with Inkscape (http://www.inkscape.org/) -->

<svg
   xmlns:dc="http://purl.org/dc/elements/1.1/"
   xmlns:cc="http://creativecommons.org/ns#"
   xmlns:rdf="http://www.w3.org/1999/02/22-rdf-syntax-ns#"
   xmlns:svg="http://www.w3.org/2000/svg"
   xmlns="http://www.w3.org/2000/svg"
   xmlns:sodipodi="http://sodipodi.sourceforge.net/DTD/sodipodi-0.dtd"
   xmlns:inkscape="http://www.inkscape.org/namespaces/inkscape"
   width="6.6318984mm"
   height="6.625607mm"
   viewBox="0 0 23.498853 23.47656"
   id="svg6884"
   version="1.1"
   inkscape:version="0.91 r13725"
   sodipodi:docname="notes-error.svg">
  <defs
     id="defs6886" />
  <sodipodi:namedview
     id="base"
     pagecolor="#ffffff"
     bordercolor="#666666"
     borderopacity="1.0"
     inkscape:pageopacity="0.0"
     inkscape:pageshadow="2"
     inkscape:zoom="11.2"
     inkscape:cx="12.053001"
     inkscape:cy="18.996623"
     inkscape:document-units="px"
     inkscape:current-layer="layer1"
     showgrid="false"
     fit-margin-top="0"
     fit-margin-left="0"
     fit-margin-right="0"
     fit-margin-bottom="0"
     inkscape:window-width="1280"
     inkscape:window-height="657"
     inkscape:window-x="-8"
     inkscape:window-y="-8"
     inkscape:window-maximized="1" />
  <metadata
     id="metadata6889">
    <rdf:RDF>
      <cc:Work
         rdf:about="">
        <dc:format>image/svg+xml</dc:format>
        <dc:type
           rdf:resource="http://purl.org/dc/dcmitype/StillImage" />
        <dc:title />
      </cc:Work>
    </rdf:RDF>
  </metadata>
  <g
     inkscape:label="Ebene 1"
     inkscape:groupmode="layer"
     id="layer1"
     transform="translate(-339.67914,-492.0525)">
    <path
       style="opacity:1;fill:#000000;fill-opacity:1;stroke:none;stroke-width:0.99999994;stroke-linecap:round;stroke-linejoin:round;stroke-miterlimit:4;stroke-dasharray:none;stroke-dashoffset:0;stroke-opacity:1"
       d="M 11.740234 0.44140625 A 9.7767825 9.4642825 0 0 0 1.9648438 9.90625 A 9.7767825 9.4642825 0 0 0 5.96875 17.53125 C 5.89745 17.80599 5.8476562 18.089059 5.8476562 18.386719 L 5.8476562 19.548828 C 5.8476562 19.578919 5.854698 19.606821 5.8554688 19.636719 L 17.626953 19.636719 C 17.627725 19.606821 17.634766 19.578919 17.634766 19.548828 L 17.634766 18.386719 C 17.634766 18.089059 17.583059 17.80599 17.511719 17.53125 A 9.7767825 9.4642825 0 0 0 21.517578 9.90625 A 9.7767825 9.4642825 0 0 0 11.740234 0.44140625 z M 7.6777344 8.4765625 A 3.0357133 3.2589283 0 0 1 7.7011719 8.4765625 L 10.701172 11.478516 A 3.0357133 3.2589283 0 0 1 10.712891 11.734375 A 3.0357133 3.2589283 0 0 1 7.6777344 14.994141 A 3.0357133 3.2589283 0 0 1 4.6425781 11.734375 A 3.0357133 3.2589283 0 0 1 7.6777344 8.4765625 z M 15.535156 8.4765625 A 3.0357135 3.2589286 0 0 1 18.570312 11.734375 A 3.0357135 3.2589286 0 0 1 15.535156 14.994141 A 3.0357135 3.2589286 0 0 1 12.5 11.734375 A 3.0357135 3.2589286 0 0 1 12.513672 11.455078 L 15.490234 8.4785156 A 3.0357135 3.2589286 0 0 1 15.535156 8.4765625 z M 6.21875 21.066406 C 6.775307 22.175812 7.9098633 22.941406 9.2402344 22.941406 L 14.240234 22.941406 C 15.570613 22.941406 16.706545 22.175812 17.263672 21.066406 L 6.21875 21.066406 z "
       transform="translate(339.67914,492.0525)"
       id="path4222" />
  </g>
</svg>
