<?xml version="1.0" encoding="UTF-8" standalone="no"?>
<!-- Created with Inkscape (http://www.inkscape.org/) -->

<svg
   xmlns:dc="http://purl.org/dc/elements/1.1/"
   xmlns:cc="http://creativecommons.org/ns#"
   xmlns:rdf="http://www.w3.org/1999/02/22-rdf-syntax-ns#"
   xmlns:svg="http://www.w3.org/2000/svg"
   xmlns="http://www.w3.org/2000/svg"
   xmlns:sodipodi="http://sodipodi.sourceforge.net/DTD/sodipodi-0.dtd"
   xmlns:inkscape="http://www.inkscape.org/namespaces/inkscape"
   width="6.7679629mm"
   height="6.7679629mm"
   viewBox="0 0 23.980971 23.980971"
   id="svg4340"
   version="1.1"
   inkscape:version="0.92.4 (5da689c313, 2019-01-14)"
   sodipodi:docname="select-list-scope-global.svg">
  <defs
     id="defs4342" />
  <sodipodi:namedview
     id="base"
     pagecolor="#ffffff"
     bordercolor="#666666"
     borderopacity="1.0"
     inkscape:pageopacity="0.0"
     inkscape:pageshadow="2"
     inkscape:zoom="15.839192"
     inkscape:cx="-1.993719"
     inkscape:cy="6.5463687"
     inkscape:document-units="px"
     inkscape:current-layer="layer1"
     showgrid="false"
     fit-margin-top="0"
     fit-margin-left="0"
     fit-margin-right="0"
     fit-margin-bottom="0"
     inkscape:window-width="1920"
     inkscape:window-height="1017"
     inkscape:window-x="-8"
     inkscape:window-y="-8"
     inkscape:window-maximized="1" />
  <metadata
     id="metadata4345">
    <rdf:RDF>
      <cc:Work
         rdf:about="">
        <dc:format>image/svg+xml</dc:format>
        <dc:type
           rdf:resource="http://purl.org/dc/dcmitype/StillImage" />
        <dc:title />
      </cc:Work>
    </rdf:RDF>
  </metadata>
  <g
     inkscape:label="Ebene 1"
     inkscape:groupmode="layer"
     id="layer1"
     transform="translate(-290.86667,-503.22885)">
    <ellipse
       style="opacity:1;fill:#ffffff;fill-opacity:1;stroke:#000000;stroke-width:0.99999994;stroke-linecap:round;stroke-linejoin:round;stroke-miterlimit:4;stroke-dasharray:none;stroke-dashoffset:0;stroke-opacity:1"
       id="path4139"
       cx="302.89404"
       cy="515.29022"
       rx="11.313145"
       ry="11.473214" />
    <ellipse
       style="opacity:1;fill:#ffffff;fill-opacity:1;stroke:#000000;stroke-width:0.93749994;stroke-linecap:round;stroke-linejoin:round;stroke-miterlimit:4;stroke-dasharray:none;stroke-dashoffset:0;stroke-opacity:1"
       id="path863"
       cx="302.88199"
       cy="515.37213"
       rx="8.1194201"
       ry="8.1194191" />
    <g
       id="g885"
       transform="matrix(4.9938867,0,0,4.5163567,-209.10592,260.53465)"
       style="stroke-width:0.74609709">
      <path
         sodipodi:nodetypes="ccccccccccccc"
         inkscape:connector-curvature="0"
         id="path865"
         d="m 103.00054,56.200609 -0.66108,-0.211542 -0.47734,0.06407 -0.16808,0.229194 -0.15973,0.245897 0.186,0.476893 0.55349,0.02587 0.18637,0.883405 0.21142,-0.03533 0.33491,-0.442577 0.42678,-0.559507 -0.21216,8.1e-5 z"
         style="fill:#000000;fill-rule:evenodd;stroke:none;stroke-width:0.19740483px;stroke-linecap:butt;stroke-linejoin:miter;stroke-opacity:1" />
      <path
         sodipodi:nodetypes="cccccccccccccccccccccccccccccccc"
         inkscape:connector-curvature="0"
         id="path867"
         d="m 102.37682,55.404925 0.22701,-0.03876 -0.0194,-0.29037 -0.0695,0.235817 -0.1029,0.03536 -0.0442,-0.10911 -0.12766,0.02452 -0.0107,-0.109111 0.19758,-0.233369 0.20307,-0.03366 0.20808,0.183993 0.19521,-0.252693 0.46559,0.280862 0.35079,0.404263 -0.88394,0.200452 -0.15705,0.150338 -0.13725,0.163439 -0.073,-0.167534 -0.14907,-0.09982 0.10457,0.121272 -0.0963,0.129293 0.008,-0.100274 -0.16268,-0.154351 -0.24835,0.103141 -0.0924,0.154294 -0.18375,-0.02501 0.0208,-0.199218 0.17881,-0.0368 -0.0216,-0.128678 0.31663,-0.188188 0.0456,-0.139506 z"
         style="fill:#000000;fill-rule:evenodd;stroke:none;stroke-width:0.19740483px;stroke-linecap:butt;stroke-linejoin:miter;stroke-opacity:1" />
      <path
         inkscape:connector-curvature="0"
         id="path880"
         d="m 103.02214,55.6622 0.14174,0.177176 -0.17718,-0.0118 -0.16536,0.08268 0.0118,0.106307 0.23623,-0.03544 -0.0827,0.236236 0.28348,0.566962 0.35436,-0.259857 -0.23624,-0.307105 0.37798,0.200798 0.1063,0.578776 0.16537,-0.425223 0.0354,0.08268 -0.0236,-0.732329 -0.21261,-0.460658 z"
         style="fill:#000000;fill-rule:evenodd;stroke:none;stroke-width:0.19740483px;stroke-linecap:butt;stroke-linejoin:miter;stroke-opacity:1" />
    </g>
  </g>
</svg>
