<svg xmlns="http://www.w3.org/2000/svg" width="1766.667" height="2437.333" viewBox="0 0 467.431 644.878"><g aria-label="Cette facture n’est pas valide" style="line-height:1" font-weight="700" font-size="70.556" font-family="Raleway" letter-spacing="3.969" fill="#fdb140" stroke-width=".265" text-anchor="middle"><path d="M40.826 610.845q-3.814-2.54-6.625-6.398-2.792-3.888-3.96-8.474-1.197-4.604-.464-9.621.704-5.036 3.95-9.91 3.838-5.765 9.15-8.27 5.33-2.536 10.748-1.908l.138 9.115q-2.302-.333-4.29.04-1.997.327-3.582 1.216-1.614.87-2.923 2.152-1.29 1.252-2.225 2.657-2.024 3.04-2.3 6.126-.275 3.087.692 5.924.957 2.79 2.936 5.225 1.998 2.407 4.465 4.049 2.752 1.833 5.896 2.643 3.144.81 6.164.503 3.019-.307 5.703-1.79 2.655-1.501 4.45-4.197.936-1.405 1.604-3.154.687-1.777.858-3.65.142-1.892-.28-3.87-.42-1.977-1.664-3.84l8.225-4.084q1.683 2.57 2.248 5.636.556 3.02.242 6.163-.313 3.144-1.41 6.22-1.126 3.06-2.807 5.582-2.978 4.474-7.305 6.932-4.356 2.439-9.143 3.1-4.815.643-9.67-.396-4.835-1.067-8.821-3.721zM75.656 571.406q-3.298-2.196-5.45-5.243-2.18-3.066-2.946-6.639-.795-3.592-.08-7.462.704-3.918 3.206-7.675 2.501-3.756 5.787-5.831 3.276-2.123 6.83-2.737 3.545-.661 7.167.178 3.593.82 6.69 2.882.774.515 1.472 1.021.669.487 1.051.908l-15.848 23.8q1.92 1.031 3.813 1.298 1.882.218 3.63-.232 1.749-.45 3.23-1.492 1.47-1.09 2.482-2.61 1.566-2.351 1.794-5.18.247-2.857-1.13-4.891l6.38-5.479q2.4 4.04 2.183 9.277-.246 5.217-3.683 10.379-2.463 3.699-5.73 5.87-3.247 2.142-6.81 2.832-3.593.67-7.224-.092-3.66-.782-6.814-2.882zm2.698-10.082l10.636-15.972q-3.66-2.024-7.234-1.133-3.602.871-5.74 4.083-1.05 1.577-1.413 3.364-.371 1.74-.074 3.468.297 1.73 1.244 3.354.966 1.595 2.581 2.836zM91.401 527.123l-6.05-4.028 2.692-4.044-9.979-6.645 5.251-7.885 9.98 6.645 4.295-6.452 6.05 4.029-4.295 6.452L114.37 525.2q1.635 1.088 2.877.715 1.26-.402 2.082-1.635.821-1.233 1.202-2.676.353-1.462.544-2.37l7.272 2.567q-.333 2.054-1.172 4.806-.84 2.753-2.52 5.276-1.088 1.635-2.464 2.83-1.356 1.166-2.999 1.645-1.643.478-3.516.183-1.854-.324-3.918-1.699L94.094 523.08zM108.647 501.224l-6.05-4.029 2.692-4.043-9.979-6.645 5.251-7.886 9.98 6.645 4.295-6.452 6.051 4.03-4.296 6.451 15.026 10.006q1.634 1.088 2.876.715 1.261-.402 2.082-1.635t1.203-2.676q.352-1.463.543-2.37l7.273 2.566q-.334 2.055-1.173 4.807-.84 2.752-2.52 5.276-1.088 1.634-2.463 2.83-1.357 1.166-3 1.644-1.643.479-3.516.184-1.854-.324-3.918-1.699l-17.664-11.762zM135.108 482.123q-3.297-2.196-5.449-5.243-2.18-3.066-2.946-6.64-.795-3.591-.081-7.462.705-3.918 3.206-7.674 2.502-3.756 5.788-5.832 3.276-2.123 6.83-2.736 3.544-.661 7.166.178 3.593.82 6.69 2.882.774.515 1.472 1.021.67.487 1.052.907l-15.849 23.8q1.922 1.032 3.814 1.298 1.882.219 3.63-.231 1.749-.45 3.23-1.492 1.47-1.09 2.482-2.61 1.566-2.352 1.794-5.18.246-2.857-1.13-4.892l6.38-5.478q2.4 4.04 2.183 9.277-.246 5.217-3.683 10.378-2.463 3.7-5.73 5.87-3.247 2.142-6.81 2.832-3.593.671-7.225-.091-3.66-.782-6.814-2.882zm2.699-10.082l10.635-15.972q-3.66-2.024-7.233-1.134-3.602.872-5.74 4.084-1.05 1.577-1.413 3.364-.372 1.739-.075 3.468.298 1.73 1.244 3.353.966 1.595 2.582 2.837zM164.254 421.135l-5.993-3.991 2.692-4.043-1.863-1.241q-5.764-3.838-7.286-8.825-1.503-5.016 1.667-9.776 2.501-3.756 6.876-6.348l4.886 5.53q-1.051.583-2.169 1.577-1.146.976-1.814 1.98-2.73 4.1 2.775 7.766l2.18 1.451 5.002-7.513 5.993 3.99-5.002 7.514 23.14 15.409-5.25 7.886-23.141-15.41zM194.616 405.872q-2.18-1.45-3.366-3.648-1.214-2.216-1.36-4.796-.125-2.608.734-5.513.858-2.905 2.767-5.773 1.375-2.065 3.046-3.766 1.662-1.75 3.334-2.83l-1.778-1.184q-3.04-2.024-5.839-1.363-2.809.613-5.081 4.025-1.642 2.466-2.32 5.41-.685 2.895-.607 6.507l-6.594-.914q.025-8.552 4.56-15.424 4.41-6.624 10.123-8.118 5.713-1.494 11.879 2.612l9.577 6.377q1.233.821 2.036.735.821-.115 1.576-1.062l6.681 4.45q-.935 2.274-1.909 3.736-1.49 2.237-3.266 2.792-1.806.536-3.66-.284l-1.806-.955q1.32 3.86.778 7.72-.543 3.86-2.777 7.216-1.49 2.236-3.504 3.709-2.025 1.425-4.3 1.98-2.254.527-4.538.165-2.293-.41-4.386-1.804zm4.305-7.894q2.007 1.336 4.338.695 2.35-.67 3.84-2.907 1.336-2.007 1.832-4.243.467-2.256-.04-4.042-.145-1.959-1.378-2.78l-3.527-2.349q-1.452 1.062-2.875 2.515-1.432 1.405-2.444 2.925-2.024 3.04-1.946 5.906.078 2.867 2.2 4.28zM213.134 364.512q-3.24-2.157-5.363-5.185-2.123-3.028-2.86-6.582-.767-3.573-.072-7.415.686-3.889 3.187-7.645 3.361-5.047 7.908-7.152 4.547-2.104 9.239-1.505l-2.766 9.25q-2.36-.122-4.385.93-2.006 1.023-3.324 3.002-1.126 1.692-1.431 3.641-.314 1.902.165 3.794.478 1.891 1.779 3.668 1.29 1.728 3.327 3.084 2.064 1.375 4.205 1.89 2.13.467 4.09.198 1.958-.268 3.62-1.273 1.633-1.023 2.74-2.686 1.414-2.122 1.537-4.606.123-2.485-.92-4.214l7.469-6.119q2.477 3.926 2.288 9.057-.217 5.112-3.615 10.216-2.502 3.757-5.797 5.908-3.276 2.123-6.869 2.794-3.62.652-7.28-.13-3.69-.8-6.872-2.92zM227.858 322.199l-6.05-4.03 2.692-4.043-9.979-6.644 5.25-7.886 9.98 6.645 4.296-6.452 6.05 4.029-4.296 6.452 15.026 10.005q1.635 1.089 2.877.715 1.26-.402 2.082-1.635.82-1.233 1.202-2.676.353-1.462.544-2.37l7.272 2.567q-.333 2.054-1.172 4.806-.84 2.753-2.52 5.276-1.088 1.635-2.464 2.83-1.356 1.166-2.999 1.645-1.643.478-3.516.183-1.854-.324-3.919-1.698l-17.664-11.763zM259.66 303.094l-19.27-12.831 5.232-7.857 17.55 11.686q7.111 4.735 10.51-.369 1.527-2.294 1.583-5.361.056-3.067-1.886-6.305l-19.069-12.698 5.232-7.857 21.736 14.473q1.233.821 2.036.735.821-.115 1.576-1.062l6.68 4.45q-.553 1.328-1.03 2.169t-.897 1.472q-1.413 2.122-3.238 2.81-1.853.67-3.726-.246l-2.581-1.47q1.808 4.184 1.228 8.475-.562 4.262-3.14 8.133-3.17 4.76-7.851 5.202-4.71.423-10.675-3.549zM297.685 270.916l-30.769-20.489 4.812-7.226 6.567 4.373q-1.024-1.882-1.56-3.812-.517-1.958-.604-3.879-.087-1.92.304-3.564.41-1.672 1.231-2.905l.65-.975q.21-.316.458-.564l7.14 4.754q-2.33 3.623-2.872 7.36-.552 3.688 1.265 6.677l18.61 12.393zM297.518 238.222q-3.297-2.195-5.449-5.242-2.18-3.066-2.946-6.64-.795-3.592-.08-7.462.704-3.918 3.205-7.674 2.502-3.757 5.788-5.832 3.276-2.123 6.83-2.736 3.545-.662 7.166.177 3.593.82 6.69 2.882.775.516 1.472 1.022.67.487 1.052.907l-15.848 23.8q1.92 1.031 3.813 1.298 1.882.219 3.63-.231 1.749-.45 3.23-1.493 1.47-1.09 2.482-2.61 1.566-2.35 1.794-5.18.247-2.856-1.13-4.89l6.38-5.48q2.4 4.041 2.183 9.277-.246 5.218-3.683 10.38-2.463 3.698-5.73 5.869-3.247 2.142-6.81 2.832-3.593.67-7.224-.092-3.66-.781-6.815-2.882zm2.699-10.082l10.636-15.972q-3.661-2.023-7.234-1.133-3.602.872-5.74 4.083-1.05 1.577-1.413 3.364-.372 1.74-.074 3.469.297 1.73 1.244 3.353.965 1.595 2.58 2.836zM351.256 190.464l-30.768-20.488 4.735-7.111 5.707 3.8q-1.799-3.64-1.323-7.96.494-4.347 3.206-8.419 1.91-2.867 4.173-3.967 2.283-1.13 4.672-.987 2.36.123 4.788 1.201 2.399 1.06 4.635 2.549l19.213 12.793-5.232 7.857-17.263-11.495q-3.699-2.463-6.25-2.3-2.58.146-4.107 2.44-.783 1.175-1.117 2.733-.362 1.539-.227 3.201.106 1.643.69 3.315.602 1.643 1.721 3.01l17.98 11.971zM340.937 129.446l-7.915-5.27 5.29-7.943 8.029 5.346 5.64 6.82-3.169 4.76-6.31-6.064zM370.856 128.087q-3.297-2.196-5.449-5.243-2.18-3.066-2.946-6.64-.795-3.592-.08-7.462.704-3.918 3.206-7.674 2.501-3.757 5.787-5.832 3.276-2.123 6.83-2.736 3.545-.661 7.166.177 3.594.82 6.69 2.882.775.516 1.473 1.022.669.487 1.051.907l-15.848 23.8q1.92 1.032 3.813 1.298 1.882.219 3.63-.231 1.749-.45 3.23-1.493 1.47-1.09 2.482-2.61 1.566-2.35 1.794-5.18.247-2.856-1.13-4.89l6.38-5.48q2.4 4.041 2.183 9.278-.246 5.217-3.683 10.378-2.463 3.7-5.73 5.87-3.247 2.142-6.81 2.832-3.593.67-7.224-.092-3.66-.781-6.815-2.882zm2.699-10.082l10.636-15.973q-3.661-2.023-7.234-1.133-3.602.872-5.74 4.083-1.05 1.578-1.413 3.364-.371 1.74-.074 3.469.297 1.73 1.244 3.353.966 1.595 2.581 2.837zM407.315 97.265l-2.985-6.209q3.879-1.473 6.687-3.453 2.799-2.027 4.555-4.665 1.566-2.351 1.575-4.291.008-1.94-1.626-3.028-1.635-1.088-3.46-.027-1.824 1.062-5.186 3.997-2.817 2.428-4.976 4.054-2.187 1.606-4.02 2.248-1.835.64-3.498.403-1.643-.267-3.393-1.432-2.351-1.565-3.623-3.696-1.282-2.177-1.512-4.69-.212-2.542.542-5.227.753-2.685 2.472-5.266 2.31-3.47 5.319-5.813 3.027-2.37 6.944-3.405l2.64 6.353q-3.314 1.186-5.616 2.84-2.283 1.626-3.734 3.806-1.337 2.007-1.402 3.908-.095 1.883 1.74 3.105.832.553 1.558.582.726.028 1.634-.402.879-.45 2.025-1.301 1.136-.899 2.683-2.352 2.951-2.63 5.272-4.312 2.312-1.73 4.327-2.458 2.035-.756 3.85-.499 1.835.228 3.785 1.527 4.531 3.017 4.906 8.11.347 5.073-3.49 10.836-2.579 3.872-6.275 6.75t-7.718 4.007zM408.355 51.137l-6.051-4.029 2.692-4.043-9.979-6.645 5.251-7.886 9.98 6.645 4.296-6.452 6.05 4.03-4.296 6.451 15.026 10.006q1.634 1.088 2.876.715 1.261-.402 2.082-1.635t1.203-2.676q.352-1.462.543-2.37l7.273 2.566q-.334 2.055-1.173 4.807-.84 2.752-2.52 5.276-1.088 1.634-2.463 2.83-1.356 1.166-3 1.644-1.643.48-3.516.184-1.854-.324-3.918-1.699l-17.664-11.762zM224.117 535.797l-43.271-28.814 4.583-6.882 5.276 3.513q-1.569-3.486-1.323-7.213.218-3.746 2.567-7.273 2.081-3.125 5.1-4.923 3.018-1.798 6.429-2.259 3.43-.489 7.08.37 3.622.838 6.834 2.977 3.355 2.234 5.64 5.204 2.257 2.951 3.233 6.209.967 3.21.558 6.497-.41 3.287-2.357 6.212-2.425 3.642-5.826 5.268-3.4 1.626-7.184 1.342l17.893 11.915zm-19.486-24.317q3.344.696 6.545-.319 3.172-1.033 4.852-3.557 1.165-1.749 1.412-3.737.238-2.035-.365-3.926-.584-1.92-1.894-3.62-1.32-1.749-3.155-2.97-1.95-1.3-4.052-1.747-2.083-.477-4.08-.15-1.997.325-3.716 1.415-1.748 1.072-2.97 2.907-.745 1.118-1.126 2.561-.391 1.395-.343 2.876.02 1.462.432 2.895.402 1.385 1.234 2.56zM228.077 482.921q-2.18-1.451-3.366-3.648-1.214-2.216-1.359-4.796-.126-2.609.733-5.514.858-2.905 2.768-5.772 1.374-2.065 3.046-3.767 1.661-1.75 3.333-2.83l-1.778-1.184q-3.04-2.024-5.839-1.363-2.809.613-5.081 4.026-1.642 2.466-2.319 5.409-.686 2.895-.608 6.507l-6.593-.914q.024-8.551 4.559-15.424 4.41-6.624 10.123-8.117 5.714-1.494 11.879 2.611l9.577 6.378q1.233.82 2.036.734.822-.115 1.576-1.061l6.681 4.449q-.935 2.275-1.909 3.737-1.49 2.237-3.266 2.792-1.806.536-3.66-.285l-1.806-.954q1.32 3.86.778 7.72-.543 3.86-2.777 7.215-1.49 2.237-3.504 3.71-2.025 1.424-4.3 1.98-2.254.526-4.538.165-2.293-.41-4.386-1.804zm4.305-7.895q2.007 1.337 4.338.695 2.35-.67 3.84-2.906 1.336-2.008 1.832-4.244.467-2.255-.04-4.042-.145-1.958-1.378-2.78l-3.527-2.348q-1.452 1.062-2.875 2.515-1.432 1.405-2.444 2.925-2.024 3.04-1.946 5.906.078 2.866 2.2 4.28zM257.606 449.39l-2.984-6.21q3.878-1.473 6.687-3.452 2.798-2.027 4.555-4.665 1.566-2.352 1.574-4.291.009-1.94-1.626-3.028-1.634-1.089-3.459-.027-1.824 1.061-5.186 3.997-2.817 2.428-4.976 4.054-2.187 1.606-4.021 2.247-1.835.641-3.497.403-1.644-.266-3.393-1.431-2.352-1.566-3.623-3.696-1.282-2.178-1.513-4.69-.211-2.542.542-5.227.753-2.686 2.472-5.267 2.31-3.47 5.319-5.812 3.028-2.371 6.945-3.405l2.64 6.352q-3.315 1.187-5.617 2.841-2.282 1.626-3.734 3.805-1.336 2.007-1.402 3.909-.095 1.882 1.74 3.104.832.554 1.558.582.727.029 1.634-.402.879-.45 2.025-1.3 1.137-.9 2.684-2.352 2.95-2.63 5.272-4.313 2.311-1.73 4.327-2.457 2.035-.756 3.85-.5 1.835.229 3.785 1.527 4.53 3.017 4.906 8.11.347 5.073-3.491 10.837-2.578 3.871-6.274 6.75-3.697 2.877-7.719 4.007zM262.605 384.201l5.404-8.115 29.567 8.43-19.123-24.115 4.927-7.398 23.226 31.815-5.671 8.516zM307.983 362.92q-2.179-1.45-3.365-3.647-1.215-2.216-1.36-4.796-.125-2.609.733-5.514.859-2.905 2.768-5.773 1.375-2.064 3.046-3.766 1.662-1.75 3.333-2.83l-1.777-1.184q-3.04-2.024-5.84-1.363-2.808.613-5.08 4.025-1.643 2.466-2.32 5.41-.686 2.895-.607 6.507l-6.594-.914q.024-8.551 4.56-15.424 4.41-6.624 10.123-8.118 5.713-1.493 11.878 2.612l9.578 6.378q1.233.82 2.035.734.822-.115 1.576-1.061l6.682 4.449q-.935 2.274-1.91 3.737-1.489 2.237-3.265 2.792-1.806.536-3.66-.285l-1.807-.955q1.321 3.86.779 7.72-.543 3.861-2.777 7.216-1.49 2.237-3.505 3.71-2.025 1.424-4.298 1.98-2.255.526-4.539.164-2.293-.41-4.387-1.803zm4.305-7.894q2.008 1.337 4.339.695 2.35-.67 3.84-2.907 1.336-2.007 1.832-4.243.466-2.255-.04-4.042-.145-1.958-1.378-2.78l-3.527-2.348q-1.452 1.061-2.875 2.514-1.433 1.406-2.445 2.926-2.024 3.04-1.946 5.906.078 2.866 2.2 4.279zM336.049 325.186l-35.758-23.81 5.232-7.857 33.005 21.977q1.692 1.127 3.192.925 1.5-.201 2.512-1.72.477-.718.802-1.702.314-1.032.467-2.007l6.7 2.93q-.277 2.093-1.288 4.482-.993 2.36-2.138 4.081-2.464 3.7-5.77 4.437-3.314.69-6.956-1.736zM357.771 307.98l-30.768-20.489 5.232-7.857 30.768 20.489zm-35.07-23.353l-7.8-5.194 5.233-7.857 7.8 5.194zM353.318 281.29q-3.355-2.235-5.535-5.177-2.18-2.941-3.157-6.2-.957-3.286-.51-6.63.447-3.345 2.452-6.355 2.273-3.413 5.75-5.03 3.448-1.635 7.098-1.398l-17.492-11.648 5.251-7.886 33.837 22.532q1.233.82 2.017.763.783-.058 1.538-1.004l6.68 4.45q-.972 2.331-1.832 3.621-1.413 2.122-3.342 2.783-1.959.641-3.794-.333l-2.036-1.107q1.799 3.64 1.342 7.557-.437 3.89-2.557 7.072-2.12 3.183-5.147 5.058-3.028 1.874-6.477 2.392-3.459.47-7.08-.369-3.651-.858-7.006-3.092zm5.642-8.04q1.95 1.299 4.005 1.756 2.074.43 4.051.132 1.978-.297 3.726-1.368 1.72-1.09 2.98-2.983.744-1.119 1.154-2.542.382-1.444.343-2.877-.049-1.48-.432-2.895-.411-1.433-1.262-2.579l-7.341-4.888q-1.596-.4-3.259-.266-1.662.135-3.162.709-1.51.526-2.77 1.425-1.29.88-2.072 2.056-1.165 1.749-1.403 3.784-.247 1.988.365 3.927.613 1.94 1.932 3.687 1.31 1.7 3.145 2.922zM380.885 240.325q-3.298-2.195-5.45-5.242-2.18-3.066-2.946-6.64-.795-3.592-.08-7.462.705-3.918 3.206-7.674 2.501-3.757 5.787-5.832 3.276-2.123 6.83-2.736 3.545-.662 7.167.177 3.593.82 6.69 2.882.774.516 1.472 1.022.669.487 1.051.907l-15.848 23.8q1.921 1.031 3.813 1.298 1.883.219 3.63-.231 1.75-.45 3.23-1.493 1.47-1.09 2.483-2.61 1.565-2.35 1.793-5.18.247-2.856-1.13-4.89l6.38-5.48q2.4 4.041 2.183 9.277-.245 5.218-3.682 10.38-2.464 3.698-5.73 5.869-3.248 2.142-6.811 2.832-3.593.67-7.224-.092-3.66-.781-6.814-2.882zm2.698-10.082l10.636-15.972q-3.66-2.023-7.234-1.133-3.601.872-5.74 4.083-1.05 1.577-1.412 3.364-.372 1.74-.075 3.469.297 1.73 1.244 3.353.966 1.595 2.581 2.836z" style="-inkscape-font-specification:'Raleway, Bold';font-variant-ligatures:normal;font-variant-caps:normal;font-variant-numeric:normal;font-variant-east-asian:normal;text-align:center"/></g></svg>