<svg xmlns="http://www.w3.org/2000/svg" width="1766.667" height="2437.333" viewBox="0 0 467.431 644.878"><g aria-label="Prévisualisation : Document sans valeur juridique ou marchande" style="line-height:1" font-weight="700" font-size="56.444" font-family="Raleway" letter-spacing="0" fill="#fdb140" stroke-width=".265" text-anchor="middle"><path d="M53.323 457.903l-33.355-22.211 9.41-14.131q1.527-2.294 3.789-3.603 2.262-1.308 4.776-1.653 2.507-.384 5.038.142 2.53.526 4.55 1.87 2.11 1.406 3.601 3.492 1.492 2.086 2.15 4.478.66 2.392.317 4.946-.343 2.553-1.886 4.87l-5.255 7.891 11.172 7.44zm-12.554-17.697l5.01-7.524q1.192-1.79.541-3.945-.674-2.17-3.174-3.836-1.262-.84-2.53-1.122-1.255-.305-2.378-.16-1.108.124-2.002.72-.894.597-1.444 1.423l-4.827 7.25zM72.402 429.25l-24.615-16.39 3.85-5.781 5.253 3.498q-.819-1.506-1.248-3.05-.413-1.566-.483-3.103-.07-1.536.243-2.85.328-1.339.985-2.325l.52-.78q.167-.253.366-.451l5.712 3.803q-1.864 2.898-2.298 5.887-.441 2.951 1.012 5.343l14.888 9.914zM70.509 405.739q-2.638-1.757-4.36-4.195-1.744-2.452-2.357-5.31-.636-2.875-.064-5.97.564-3.135 2.565-6.14 2.001-3.006 4.63-4.666 2.62-1.698 5.464-2.189 2.835-.529 5.733.142 2.874.656 5.352 2.306.62.412 1.178.817.535.39.84.726L76.813 400.3q1.537.825 3.05 1.038 1.507.175 2.905-.185 1.399-.36 2.583-1.194 1.177-.872 1.987-2.088 1.252-1.88 1.434-4.143.198-2.286-.904-3.914l5.104-4.382q1.92 3.232 1.747 7.421-.197 4.174-2.946 8.303-1.97 2.96-4.584 4.696-2.598 1.713-5.449 2.265-2.874.537-5.779-.073-2.928-.625-5.451-2.305zm2.159-8.066l8.508-12.778q-2.928-1.619-5.787-.906-2.881.697-4.592 3.266-.84 1.262-1.13 2.692-.297 1.39-.06 2.774.238 1.384.996 2.683.772 1.276 2.065 2.269zM60.95 384.241l-3.902-6.273 3.91-5.873 3.896 8.918zM75.787 370.81l4.323-6.492 23.654 6.745-15.298-19.293 3.941-5.919 18.58 25.453-4.536 6.813zM119.206 358.962L94.591 342.57l4.186-6.286 24.615 16.391zM91.15 340.28l-6.24-4.155 4.186-6.286 6.24 4.155zM122.662 346.561l-2.387-4.967q3.102-1.179 5.349-2.762 2.239-1.622 3.644-3.733 1.253-1.88 1.26-3.432.006-1.552-1.301-2.423-1.308-.87-2.767-.021-1.46.849-4.15 3.197-2.253 1.943-3.98 3.243-1.75 1.285-3.217 1.798-1.468.513-2.798.323-1.315-.213-2.714-1.145-1.881-1.253-2.899-2.957-1.025-1.742-1.21-3.752-.169-2.034.434-4.182.603-2.148 1.977-4.213 1.849-2.776 4.256-4.65 2.422-1.897 5.555-2.724l2.113 5.082q-2.652.95-4.494 2.273-1.826 1.3-2.987 3.044-1.069 1.606-1.122 3.127-.075 1.506 1.393 2.483.665.443 1.246.466.581.023 1.307-.322.703-.36 1.62-1.04.91-.72 2.147-1.882 2.36-2.103 4.218-3.45 1.849-1.384 3.461-1.966 1.628-.605 3.08-.399 1.468.183 3.028 1.221 3.625 2.414 3.925 6.488.277 4.059-2.793 8.67-2.062 3.097-5.02 5.4-2.956 2.302-6.174 3.205zM133.379 317.738l-15.416-10.265 4.186-6.286 14.039 9.349q5.69 3.788 8.408-.295 1.222-1.836 1.267-4.29.044-2.453-1.509-5.044L129.1 290.75l4.185-6.285 17.389 11.578q.986.657 1.629.588.657-.092 1.26-.849l5.345 3.56q-.442 1.062-.824 1.735-.382.673-.718 1.177-1.13 1.698-2.59 2.25-1.483.535-2.981-.198l-2.065-1.176q1.447 3.347.982 6.78-.45 3.409-2.511 6.506-2.536 3.808-6.281 4.162-3.769.338-8.54-2.84zM153.59 291.462q-1.743-1.16-2.692-2.918-.971-1.773-1.087-3.837-.1-2.087.586-4.411.687-2.324 2.214-4.618 1.1-1.652 2.437-3.013 1.33-1.4 2.667-2.264l-1.423-.947q-2.431-1.62-4.67-1.09-2.248.49-4.066 3.22-1.313 1.972-1.855 4.327-.549 2.316-.486 5.206l-5.275-.731q.02-6.842 3.647-12.34 3.529-5.299 8.1-6.494 4.57-1.195 9.502 2.09l7.662 5.102q.986.656 1.628.587.658-.092 1.261-.849l5.345 3.56q-.748 1.82-1.527 2.989-1.191 1.79-2.613 2.233-1.444.43-2.928-.227l-1.445-.764q1.057 3.088.623 6.176-.434 3.089-2.222 5.773-1.191 1.789-2.803 2.967-1.62 1.14-3.44 1.584-1.803.421-3.63.132-1.835-.328-3.51-1.443zm3.445-6.316q1.605 1.07 3.47.556 1.88-.536 3.072-2.325 1.07-1.606 1.466-3.395.373-1.804-.033-3.233-.115-1.567-1.102-2.224l-2.821-1.879q-1.162.85-2.3 2.012-1.146 1.124-1.956 2.34-1.619 2.432-1.556 4.725.062 2.293 1.76 3.423zM174.283 263.917l-28.606-19.048 4.185-6.286 26.404 17.582q1.354.902 2.554.74 1.2-.16 2.01-1.377.381-.573.641-1.36.252-.826.374-1.606l5.36 2.344q-.221 1.674-1.03 3.585-.795 1.889-1.711 3.265-1.97 2.96-4.615 3.55-2.652.551-5.566-1.389zM189.902 252.795l-24.615-16.391 4.185-6.286 24.615 16.391zm-28.056-18.682l-6.24-4.155 4.185-6.286 6.24 4.155zM193.358 240.394l-2.388-4.967q3.103-1.179 5.35-2.762 2.238-1.622 3.643-3.733 1.253-1.88 1.26-3.433.007-1.551-1.301-2.422-1.308-.87-2.767-.021-1.46.849-4.15 3.197-2.253 1.943-3.98 3.243-1.75 1.285-3.217 1.798-1.467.513-2.797.323-1.315-.213-2.715-1.145-1.88-1.253-2.898-2.957-1.026-1.742-1.21-3.752-.17-2.034.433-4.182.603-2.148 1.978-4.213 1.848-2.776 4.255-4.65 2.422-1.897 5.556-2.724l2.112 5.082q-2.652.95-4.493 2.273-1.826 1.3-2.987 3.044-1.07 1.606-1.122 3.127-.076 1.506 1.392 2.483.665.443 1.246.466.581.023 1.307-.322.703-.36 1.62-1.04.91-.72 2.147-1.882 2.361-2.103 4.218-3.45 1.849-1.384 3.462-1.966 1.627-.605 3.08-.4 1.468.184 3.027 1.222 3.625 2.414 3.925 6.488.278 4.059-2.793 8.67-2.062 3.097-5.019 5.399-2.957 2.302-6.174 3.206zM204.978 214.291q-1.744-1.16-2.693-2.918-.971-1.773-1.087-3.837-.1-2.087.586-4.41.687-2.325 2.214-4.619 1.1-1.652 2.437-3.013 1.33-1.4 2.667-2.264l-1.423-.947q-2.431-1.62-4.67-1.09-2.248.49-4.066 3.22-1.313 1.973-1.855 4.327-.549 2.317-.486 5.206l-5.275-.731q.02-6.841 3.647-12.34 3.529-5.299 8.1-6.493 4.57-1.195 9.502 2.089l7.662 5.102q.986.657 1.628.588.658-.092 1.261-.85l5.345 3.56q-.748 1.82-1.527 2.99-1.191 1.789-2.613 2.233-1.444.429-2.928-.228l-1.445-.764q1.057 3.088.623 6.176-.434 3.089-2.222 5.773-1.191 1.79-2.803 2.967-1.62 1.14-3.44 1.584-1.803.422-3.63.132-1.835-.327-3.51-1.443zm3.444-6.315q1.605 1.069 3.47.556 1.88-.536 3.072-2.326 1.07-1.605 1.466-3.394.373-1.805-.033-3.234-.115-1.567-1.102-2.224l-2.821-1.878q-1.162.849-2.3 2.011-1.146 1.124-1.956 2.34-1.619 2.432-1.556 4.725.062 2.293 1.76 3.424zM210.271 179.34l-4.84-3.223 2.154-3.234-7.983-5.316 4.2-6.309 7.984 5.316 3.437-5.162 4.84 3.224-3.437 5.161 12.02 8.005q1.308.87 2.302.572 1.009-.322 1.665-1.308.657-.987.962-2.141.283-1.17.435-1.896l5.818 2.053q-.266 1.644-.938 3.845-.671 2.202-2.016 4.22-.87 1.309-1.97 2.265-1.085.933-2.4 1.316t-2.813.146q-1.483-.259-3.135-1.359l-14.13-9.41zM243.305 172.596l-24.615-16.39 4.186-6.287 24.614 16.391zm-28.056-18.682l-6.24-4.155 4.186-6.286 6.24 4.155zM237.998 153.963q-2.593-1.727-4.29-4.149-1.7-2.422-2.328-5.258-.65-2.85-.094-5.924.533-3.088 2.55-6.116 2-3.005 4.63-4.665 2.605-1.676 5.486-2.174 2.859-.514 5.772.134 2.89.633 5.459 2.344 2.546 1.695 4.267 4.133 1.698 2.422 2.365 5.25.659 2.79.087 5.886-.556 3.073-2.557 6.078-2.001 3.005-4.638 4.727-2.62 1.698-5.48 2.212-2.88.498-5.77-.135-2.913-.648-5.46-2.343zm4.323-6.492q1.651 1.1 3.326 1.519 1.666.381 3.233.166 1.567-.215 2.897-1.018 1.306-.819 2.223-2.195.901-1.353 1.152-2.875.229-1.536-.177-3.065-.406-1.528-1.439-2.911-1.04-1.422-2.692-2.521-1.606-1.07-3.295-1.466-1.674-.42-3.241-.205-1.567.215-2.874 1.034-1.33.803-2.23 2.156-.902 1.354-1.123 2.929-.228 1.536.178 3.065.406 1.528 1.423 2.934 1.033 1.383 2.639 2.453zM270.251 132.13l-24.615-16.391 3.789-5.69 4.565 3.04q-1.439-2.911-1.059-6.367.396-3.478 2.565-6.735 1.528-2.294 3.339-3.174 1.826-.903 3.737-.79 1.888.099 3.83.961 1.92.848 3.709 2.04l15.37 10.234-4.186 6.286-13.81-9.196q-2.959-1.97-5-1.84-2.064.116-3.286 1.951-.626.94-.893 2.187-.29 1.23-.182 2.56.085 1.315.552 2.653.482 1.314 1.377 2.407l14.384 9.578zM296.892 92.122l-6.768-4.507 3.422-5.138 6.767 4.506zM279.319 80.42l-6.767-4.507 3.422-5.138 6.767 4.506zM59.457 550.529l-33.355-22.21 8.066-12.113q2.719-4.083 6.096-6.271 3.355-2.204 6.978-2.771 3.638-.59 7.353.393 3.716.984 7.157 3.276 3.808 2.535 6.103 5.752 2.31 3.194 3.076 6.817.744 3.608-.08 7.43-.823 3.822-3.328 7.585zm-1.381-10.257l3.758-5.644q1.588-2.385 1.977-4.809.388-2.423-.255-4.64-.65-2.254-2.242-4.24-1.576-2.01-3.916-3.568-2.385-1.59-4.847-2.268-2.47-.717-4.77-.395-2.308.284-4.326 1.623-2.04 1.323-3.598 3.663l-3.758 5.644zM68.158 510.86q-2.593-1.726-4.29-4.149-1.7-2.422-2.328-5.257-.65-2.851-.094-5.924.533-3.089 2.55-6.117 2-3.005 4.63-4.665 2.605-1.676 5.486-2.174 2.859-.514 5.772.134 2.89.633 5.459 2.344 2.546 1.696 4.267 4.133 1.698 2.422 2.365 5.25.659 2.79.087 5.886-.556 3.073-2.557 6.078-2.001 3.006-4.638 4.727-2.62 1.698-5.48 2.212-2.88.498-5.77-.134-2.913-.649-5.46-2.344zm4.323-6.492q1.651 1.1 3.326 1.52 1.666.38 3.233.165 1.567-.214 2.897-1.018 1.306-.818 2.223-2.195.901-1.353 1.152-2.875.229-1.536-.177-3.065-.406-1.528-1.439-2.911-1.04-1.421-2.692-2.521-1.605-1.07-3.295-1.466-1.674-.42-3.241-.205-1.567.215-2.874 1.034-1.33.803-2.23 2.156-.902 1.354-1.123 2.929-.228 1.536.178 3.065.406 1.528 1.423 2.934 1.033 1.383 2.639 2.453zM87.053 482.383q-2.592-1.726-4.29-4.148-1.698-2.422-2.288-5.265-.614-2.859-.057-5.932.549-3.112 2.55-6.117 2.688-4.037 6.326-5.72 3.637-1.684 7.39-1.205l-2.212 7.4q-1.888-.098-3.508.744-1.605.819-2.659 2.402-.901 1.353-1.145 2.913-.251 1.52.132 3.034.383 1.514 1.423 2.935 1.033 1.383 2.661 2.467 1.652 1.1 3.365 1.512 1.704.374 3.271.159t2.897-1.018q1.306-.819 2.192-2.15 1.13-1.697 1.23-3.685.097-1.987-.736-3.37l5.974-4.896q1.982 3.141 1.831 7.246-.173 4.09-2.892 8.173-2.001 3.005-4.638 4.726-2.62 1.699-5.495 2.235-2.896.522-5.824-.104-2.951-.64-5.498-2.336zM108.718 456.612l-15.416-10.266 4.186-6.285 14.039 9.348q5.69 3.789 8.408-.295 1.222-1.835 1.267-4.289.044-2.453-1.509-5.044l-15.255-10.158 4.185-6.286 17.39 11.58q.986.656 1.628.587.657-.092 1.26-.85l5.345 3.56q-.442 1.063-.824 1.736-.382.672-.718 1.177-1.13 1.698-2.59 2.249-1.483.536-2.981-.197l-2.065-1.176q1.447 3.347.982 6.78-.449 3.409-2.511 6.506-2.536 3.808-6.281 4.161-3.769.339-8.54-2.839zM137.378 433.511l-24.615-16.39 3.788-5.69 4.566 3.04q-1.485-2.942-1.22-6.175.282-3.257 2.314-6.308 2.062-3.097 4.706-3.786 2.622-.705 5.152.318-1.538-3.21-1.34-6.39.173-3.195 2.144-6.154 1.497-2.248 3.323-3.151 1.827-.903 3.723-.767 1.888.099 3.83.961 1.934.825 3.723 2.016l15.37 10.235-4.185 6.286-13.81-9.196q-2.96-1.97-4.985-1.863-2.049.093-3.24 1.882-1.253 1.882-.907 4.496.322 2.598 2.158 4.814l14.338 9.547-4.201 6.309-13.81-9.196q-2.96-1.97-4.985-1.862-2.049.092-3.24 1.882-1.222 1.835-.915 4.457.3 2.583 2.12 4.822l14.383 9.578zM153.327 383.205q-2.638-1.756-4.36-4.194-1.744-2.453-2.357-5.311-.636-2.874-.064-5.97.564-3.134 2.565-6.14 2-3.005 4.63-4.665 2.62-1.698 5.464-2.19 2.835-.528 5.733.143 2.874.656 5.352 2.306.62.412 1.178.817.535.39.84.726l-12.678 19.04q1.537.825 3.05 1.038 1.506.175 2.905-.185 1.399-.36 2.583-1.194 1.177-.872 1.986-2.088 1.253-1.88 1.435-4.144.198-2.285-.904-3.913l5.104-4.383q1.92 3.233 1.747 7.422-.197 4.173-2.946 8.303-1.97 2.959-4.584 4.696-2.598 1.713-5.449 2.265-2.874.537-5.779-.073-2.928-.625-5.451-2.306zm2.159-8.065l8.508-12.778q-2.928-1.619-5.787-.906-2.881.697-4.592 3.266-.84 1.262-1.13 2.691-.297 1.392-.06 2.775.238 1.383.995 2.683.773 1.276 2.066 2.269zM185.282 361.57l-24.615-16.39 3.789-5.689 4.565 3.04q-1.439-2.912-1.059-6.367.396-3.478 2.565-6.736 1.528-2.294 3.339-3.174 1.826-.903 3.737-.79 1.888.1 3.83.962 1.92.847 3.709 2.039l15.37 10.235-4.186 6.285-13.81-9.196q-2.959-1.97-5-1.84-2.064.116-3.286 1.952-.626.94-.893 2.186-.29 1.231-.182 2.561.085 1.315.552 2.652.482 1.315 1.377 2.407l14.384 9.578zM183.044 322.068l-4.84-3.223 2.154-3.235-7.984-5.316 4.201-6.308 7.983 5.316 3.437-5.162 4.84 3.223-3.436 5.162 12.02 8.004q1.308.871 2.301.572 1.01-.321 1.666-1.308.657-.986.962-2.14.282-1.17.435-1.896l5.818 2.053q-.267 1.643-.938 3.845-.672 2.202-2.016 4.22-.87 1.308-1.97 2.264-1.086.933-2.4 1.316-1.315.383-2.813.147-1.483-.259-3.135-1.359l-14.131-9.41zM219.045 303.657l-2.388-4.967q3.103-1.179 5.35-2.762 2.238-1.622 3.644-3.733 1.252-1.88 1.26-3.433.006-1.551-1.302-2.422-1.307-.87-2.767-.021t-4.149 3.197q-2.254 1.943-3.98 3.243-1.75 1.285-3.218 1.798-1.467.513-2.797.323-1.315-.213-2.714-1.145-1.881-1.253-2.899-2.957-1.025-1.742-1.21-3.752-.17-2.034.434-4.182.602-2.148 1.977-4.213 1.848-2.776 4.255-4.65 2.422-1.897 5.556-2.724l2.113 5.082q-2.652.95-4.494 2.273-1.826 1.3-2.987 3.044-1.07 1.606-1.122 3.127-.076 1.506 1.392 2.483.666.443 1.247.466.58.022 1.307-.322.703-.36 1.62-1.04.909-.72 2.147-1.882 2.36-2.103 4.217-3.45 1.85-1.384 3.462-1.966 1.628-.605 3.08-.4 1.468.184 3.028 1.222 3.624 2.414 3.925 6.488.277 4.059-2.793 8.67-2.063 3.097-5.02 5.399-2.956 2.302-6.174 3.206zM230.665 277.554q-1.744-1.16-2.692-2.918-.972-1.773-1.088-3.837-.1-2.087.586-4.41.687-2.325 2.215-4.619 1.1-1.652 2.436-3.013 1.33-1.4 2.667-2.264l-1.422-.947q-2.432-1.62-4.671-1.09-2.247.49-4.065 3.22-1.314 1.972-1.855 4.327-.55 2.317-.487 5.206l-5.275-.731q.02-6.841 3.648-12.34 3.528-5.299 8.099-6.494 4.57-1.194 9.502 2.09l7.662 5.102q.987.657 1.629.588.657-.093 1.26-.85l5.346 3.56q-.748 1.82-1.527 2.99-1.192 1.789-2.614 2.233-1.444.429-2.927-.228l-1.445-.764q1.056 3.088.622 6.176-.434 3.089-2.221 5.773-1.192 1.79-2.804 2.967-1.62 1.14-3.439 1.584-1.804.422-3.63.132-1.835-.328-3.51-1.443zm3.444-6.315q1.606 1.069 3.47.556 1.88-.536 3.072-2.326 1.07-1.606 1.466-3.394.374-1.805-.032-3.234-.116-1.567-1.102-2.224l-2.822-1.879q-1.161.85-2.3 2.012-1.146 1.124-1.955 2.34-1.62 2.432-1.557 4.725.062 2.293 1.76 3.424zM257.077 253.752l-24.615-16.39 3.789-5.69 4.565 3.04q-1.439-2.912-1.058-6.367.395-3.478 2.564-6.736 1.528-2.294 3.34-3.174 1.825-.903 3.737-.789 1.888.098 3.83.961 1.919.848 3.708 2.04l15.37 10.234-4.185 6.285-13.81-9.196q-2.96-1.97-5-1.84-2.064.117-3.286 1.952-.627.94-.894 2.187-.29 1.23-.182 2.56.085 1.315.552 2.653.482 1.314 1.377 2.407l14.384 9.577zM271.41 225.018l-2.388-4.967q3.103-1.179 5.35-2.762 2.238-1.622 3.643-3.733 1.253-1.88 1.26-3.432.007-1.552-1.301-2.423-1.308-.87-2.767-.021-1.46.849-4.15 3.197-2.253 1.943-3.98 3.243-1.75 1.285-3.217 1.798-1.467.513-2.797.323-1.315-.213-2.715-1.145-1.88-1.253-2.898-2.957-1.026-1.742-1.21-3.752-.17-2.034.433-4.182.603-2.148 1.978-4.213 1.848-2.776 4.255-4.65 2.422-1.897 5.556-2.724l2.112 5.082q-2.652.95-4.493 2.273-1.826 1.3-2.987 3.044-1.07 1.606-1.122 3.127-.076 1.506 1.392 2.483.665.443 1.246.466.581.023 1.307-.322.703-.36 1.62-1.04.91-.72 2.147-1.882 2.361-2.103 4.218-3.45 1.849-1.384 3.461-1.966 1.628-.605 3.08-.4 1.469.184 3.028 1.222 3.625 2.414 3.925 6.488.278 4.059-2.793 8.67-2.062 3.097-5.019 5.4-2.957 2.302-6.174 3.205zM271.889 178.153l4.323-6.492 23.654 6.744-15.299-19.293 3.942-5.918 18.58 25.452-4.536 6.813zM306.432 163.771q-1.744-1.16-2.692-2.918-.972-1.773-1.088-3.837-.1-2.087.586-4.411.687-2.324 2.214-4.618 1.1-1.652 2.437-3.013 1.33-1.4 2.667-2.264l-1.423-.947q-2.431-1.62-4.67-1.09-2.248.49-4.065 3.22-1.314 1.972-1.856 4.327-.549 2.316-.486 5.206l-5.275-.731q.02-6.842 3.647-12.34 3.53-5.299 8.1-6.494 4.57-1.195 9.502 2.09l7.662 5.102q.987.656 1.629.587.657-.092 1.26-.849l5.346 3.56q-.749 1.819-1.528 2.989-1.191 1.79-2.613 2.233-1.444.43-2.927-.227l-1.446-.764q1.057 3.088.623 6.176-.434 3.088-2.221 5.772-1.192 1.79-2.804 2.968-1.62 1.14-3.44 1.584-1.803.421-3.63.132-1.835-.328-3.51-1.443zm3.444-6.316q1.606 1.07 3.47.556 1.88-.536 3.072-2.325 1.07-1.606 1.466-3.395.373-1.804-.032-3.233-.116-1.567-1.102-2.224l-2.822-1.879q-1.161.85-2.3 2.012-1.146 1.124-1.955 2.34-1.62 2.432-1.557 4.725.062 2.293 1.76 3.423zM327.124 136.226l-28.606-19.048 4.186-6.286 26.404 17.582q1.353.902 2.553.74 1.2-.16 2.01-1.377.382-.573.641-1.36.252-.826.374-1.606l5.36 2.344q-.221 1.674-1.03 3.585-.794 1.889-1.711 3.265-1.97 2.96-4.615 3.55-2.652.551-5.566-1.389zM329.546 118.567q-2.638-1.756-4.36-4.194-1.744-2.453-2.357-5.311-.636-2.874-.064-5.97.564-3.134 2.565-6.14 2-3.005 4.63-4.665 2.62-1.698 5.464-2.189 2.835-.529 5.733.142 2.874.656 5.352 2.306.62.412 1.178.817.535.39.84.726l-12.678 19.04q1.537.825 3.05 1.038 1.506.175 2.905-.185 1.399-.36 2.583-1.194 1.177-.872 1.986-2.088 1.253-1.88 1.435-4.143.198-2.286-.904-3.914l5.104-4.382q1.92 3.232 1.747 7.421-.197 4.174-2.946 8.303-1.97 2.96-4.584 4.696-2.598 1.713-5.45 2.265-2.873.537-5.778-.073-2.928-.625-5.451-2.306zm2.159-8.065l8.508-12.778q-2.928-1.619-5.787-.906-2.881.697-4.592 3.266-.84 1.262-1.13 2.691-.297 1.392-.06 2.775.238 1.384.995 2.683.773 1.276 2.066 2.269zM352.15 91.037l-15.416-10.265 4.185-6.286 14.04 9.349q5.689 3.788 8.408-.295 1.222-1.835 1.266-4.29.045-2.453-1.508-5.043l-15.256-10.159 4.186-6.285 17.389 11.579q.986.656 1.628.587.657-.092 1.26-.849l5.346 3.56q-.443 1.062-.825 1.735-.382.673-.718 1.178-1.13 1.697-2.59 2.248-1.482.536-2.981-.197l-2.064-1.176q1.446 3.347.982 6.78-.45 3.41-2.512 6.506-2.535 3.808-6.28 4.162-3.77.338-8.54-2.84zM380.81 67.937l-24.615-16.391 3.85-5.78 5.252 3.497q-.818-1.505-1.247-3.05-.414-1.566-.483-3.102-.07-1.537.243-2.852.328-1.338.984-2.324l.52-.78q.168-.252.366-.451l5.713 3.804q-1.864 2.898-2.298 5.887-.442 2.95 1.012 5.342l14.888 9.914zM98.985 608.174l-2.45-5.571q.88-.177 1.636-.766.741-.566 1.245-1.323.81-1.215.534-2.69-.276-1.476-1.63-2.377l-25.28-16.834 4.201-6.308 24.799 16.513q1.972 1.313 3.204 3.094 1.232 1.78 1.66 3.721.43 1.942.018 3.952-.373 2.003-1.565 3.793-1.191 1.789-2.796 3.005-1.597 1.255-3.576 1.79zm-29.386-31.852l-6.24-4.155 4.201-6.309 6.24 4.155zM96.338 577.041l-15.415-10.265 4.185-6.285 14.04 9.348q5.689 3.789 8.408-.295 1.222-1.835 1.266-4.289.045-2.453-1.508-5.044l-15.255-10.158 4.185-6.286 17.389 11.58q.986.656 1.628.587.658-.092 1.261-.85l5.345 3.56q-.443 1.063-.825 1.735-.381.673-.717 1.178-1.13 1.698-2.59 2.249-1.483.536-2.982-.197l-2.064-1.176q1.446 3.347.982 6.78-.45 3.409-2.512 6.506-2.535 3.808-6.28 4.161-3.769.339-8.54-2.839zM124.999 553.941l-24.615-16.39 3.85-5.782 5.252 3.499q-.818-1.506-1.247-3.05-.414-1.566-.483-3.103-.07-1.536.243-2.851.328-1.338.984-2.324l.52-.78q.168-.253.367-.452l5.712 3.804q-1.864 2.898-2.298 5.887-.442 2.95 1.012 5.343l14.888 9.913zM137.097 535.773l-24.615-16.391 4.185-6.286 24.615 16.39zM109.04 517.09l-6.24-4.154 4.186-6.286 6.24 4.155zM131.774 517.063q-2.684-1.787-4.428-4.14-1.744-2.354-2.525-4.96-.766-2.63-.408-5.305.358-2.676 1.962-5.084 1.817-2.73 4.6-4.024 2.758-1.308 5.678-1.119l-13.994-9.318 4.201-6.308 27.07 18.025q.986.657 1.613.61.627-.046 1.23-.803l5.345 3.56q-.779 1.865-1.466 2.897-1.13 1.698-2.674 2.226-1.567.513-3.035-.266l-1.629-.886q1.44 2.912 1.074 6.046-.35 3.112-2.046 5.658-1.695 2.546-4.118 4.046-2.422 1.5-5.181 1.914-2.767.376-5.665-.295-2.92-.687-5.604-2.474zm4.514-6.431q1.56 1.039 3.204 1.405 1.659.343 3.24.105 1.583-.238 2.981-1.095 1.376-.872 2.384-2.386.596-.895.924-2.034.305-1.154.274-2.3-.039-1.186-.345-2.317-.33-1.146-1.01-2.063l-5.873-3.91q-1.277-.32-2.607-.213-1.33.108-2.53.567-1.207.42-2.216 1.14-1.031.704-1.658 1.644-.932 1.4-1.122 3.028-.198 1.59.292 3.141.49 1.552 1.546 2.95 1.048 1.36 2.516 2.338zM165.265 493.47l-24.615-16.39 4.186-6.285 24.614 16.39zm-28.056-18.681l-6.24-4.155 4.186-6.286 6.24 4.155zM159.927 474.685q-2.684-1.787-4.398-4.187-1.713-2.399-2.41-5.082-.682-2.705-.263-5.473.434-2.79 2.053-5.222 1.88-2.821 4.623-4.107 2.72-1.3 5.747-1.272l-4.267-2.841 3.667-5.506 27.046 18.01q1.032.688 1.667.58.657-.092 1.33-1.002l5.367 3.575q-.397.894-.954 1.88-.558.987-1.046 1.721-.627.94-1.498 1.553-.87.612-1.857.849-.97.215-2.01.085-1.002-.137-1.942-.763l-10.002-6.66q1.484 2.942 1.226 5.915-.243 2.951-2.091 5.727-1.558 2.34-3.881 3.64-2.323 1.301-5.006 1.6-2.69.262-5.542-.478-2.875-.755-5.559-2.542zm4.499-6.309q1.56 1.039 3.188 1.428 1.644.366 3.21.151 1.568-.215 2.95-1.049 1.36-.85 2.37-2.363 1.343-2.019 1.212-4.258-.116-2.263-1.187-4.533l-5.827-3.88q-1.216-.412-2.538-.365-1.322.046-2.553.452-1.238.368-2.262 1.11-1.047.726-1.703 1.713-.963 1.445-1.153 3.073-.198 1.59.277 3.165.475 1.574 1.515 2.995 1.033 1.383 2.5 2.361zM183.776 445.732l-15.416-10.265 4.186-6.286 14.039 9.349q5.69 3.788 8.408-.295 1.222-1.836 1.267-4.29.044-2.453-1.509-5.043l-15.255-10.159 4.185-6.285 17.39 11.579q.985.656 1.628.587.657-.092 1.26-.849l5.345 3.56q-.442 1.062-.824 1.735-.382.673-.718 1.177-1.13 1.698-2.59 2.25-1.483.535-2.981-.198l-2.065-1.176q1.447 3.347.982 6.78-.45 3.41-2.511 6.506-2.536 3.808-6.281 4.162-3.769.338-8.54-2.84zM199.239 416.095q-2.638-1.756-4.36-4.194-1.744-2.453-2.357-5.311-.636-2.874-.064-5.97.564-3.134 2.565-6.14 2.001-3.005 4.63-4.665 2.62-1.698 5.464-2.189 2.836-.529 5.733.142 2.875.656 5.352 2.306.62.412 1.178.817.535.39.84.726l-12.678 19.04q1.537.825 3.05 1.038 1.507.175 2.905-.185 1.399-.36 2.583-1.194 1.177-.872 1.987-2.088 1.252-1.88 1.434-4.143.198-2.286-.904-3.914l5.104-4.382q1.92 3.232 1.747 7.42-.196 4.175-2.946 8.304-1.97 2.96-4.584 4.696-2.598 1.713-5.449 2.265-2.874.537-5.779-.073-2.928-.625-5.451-2.306zm2.159-8.065l8.508-12.778q-2.928-1.619-5.787-.906-2.881.697-4.592 3.266-.84 1.262-1.13 2.691-.297 1.392-.06 2.775.238 1.384.996 2.683.772 1.276 2.065 2.269zM225.398 376.562q-2.592-1.726-4.29-4.148-1.699-2.423-2.327-5.258-.651-2.851-.095-5.924.534-3.089 2.55-6.117 2.001-3.005 4.63-4.665 2.605-1.676 5.487-2.174 2.858-.514 5.771.135 2.89.632 5.46 2.343 2.546 1.696 4.267 4.133 1.698 2.423 2.365 5.25.658 2.79.087 5.886-.557 3.073-2.558 6.079-2 3.005-4.637 4.726-2.62 1.699-5.48 2.212-2.881.499-5.77-.134-2.913-.648-5.46-2.344zm4.323-6.492q1.652 1.1 3.326 1.52 1.667.38 3.234.166 1.566-.215 2.896-1.019 1.307-.818 2.223-2.195.902-1.353 1.153-2.874.228-1.537-.177-3.065-.406-1.529-1.44-2.912-1.04-1.421-2.691-2.521-1.606-1.07-3.295-1.466-1.675-.42-3.242-.205t-2.873 1.034q-1.33.803-2.231 2.157-.901 1.353-1.122 2.928-.229 1.537.177 3.065.406 1.529 1.424 2.935 1.032 1.383 2.638 2.452zM248.3 348.833l-15.416-10.266 4.186-6.285 14.039 9.348q5.69 3.789 8.408-.295 1.222-1.835 1.267-4.289.044-2.453-1.509-5.044l-15.255-10.158 4.185-6.286 17.39 11.58q.986.656 1.628.587.657-.092 1.26-.85l5.345 3.56q-.442 1.063-.824 1.736-.382.673-.718 1.177-1.13 1.698-2.59 2.249-1.483.536-2.981-.197l-2.065-1.176q1.447 3.347.982 6.78-.45 3.409-2.511 6.506-2.536 3.808-6.281 4.162-3.769.338-8.54-2.84zM284.475 314.446l-24.614-16.391 3.788-5.69 4.565 3.04q-1.484-2.941-1.219-6.175.281-3.256 2.313-6.307 2.062-3.097 4.707-3.787 2.621-.704 5.152.318-1.538-3.21-1.341-6.39.174-3.194 2.144-6.154 1.497-2.248 3.324-3.15 1.826-.904 3.722-.767 1.888.098 3.83.96 1.935.825 3.724 2.017l15.37 10.234-4.186 6.286-13.81-9.196q-2.959-1.97-4.985-1.862-2.048.093-3.24 1.882-1.252 1.881-.907 4.495.323 2.599 2.158 4.815l14.338 9.547-4.2 6.308-13.81-9.196q-2.96-1.97-4.986-1.862-2.048.093-3.24 1.882-1.222 1.835-.914 4.457.299 2.584 2.12 4.822l14.383 9.578zM305.173 267.5q-1.743-1.16-2.692-2.918-.972-1.773-1.088-3.837-.1-2.086.586-4.41.687-2.325 2.215-4.619 1.1-1.651 2.436-3.013 1.33-1.4 2.667-2.264l-1.422-.947q-2.432-1.62-4.671-1.09-2.247.49-4.065 3.22-1.314 1.973-1.855 4.327-.55 2.317-.487 5.206l-5.275-.73q.02-6.842 3.648-12.34 3.528-5.3 8.099-6.494 4.57-1.195 9.502 2.089l7.662 5.102q.987.657 1.629.588.657-.092 1.26-.85l5.346 3.56q-.748 1.82-1.527 2.99-1.192 1.789-2.613 2.233-1.445.429-2.928-.228l-1.445-.763q1.056 3.087.622 6.176-.434 3.088-2.221 5.772-1.192 1.79-2.804 2.967-1.62 1.14-3.439 1.584-1.804.422-3.63.132-1.835-.327-3.51-1.442zm3.444-6.315q1.606 1.07 3.47.556 1.88-.536 3.072-2.326 1.07-1.605 1.466-3.394.374-1.804-.032-3.234-.116-1.567-1.102-2.223l-2.822-1.88q-1.161.85-2.3 2.012-1.146 1.125-1.955 2.34-1.62 2.432-1.557 4.725.062 2.293 1.76 3.424zM331.585 243.698l-24.614-16.39 3.849-5.781 5.253 3.498q-.818-1.506-1.247-3.05-.414-1.566-.484-3.103-.07-1.536.244-2.851.327-1.338.984-2.324l.52-.78q.168-.253.366-.452l5.712 3.804q-1.863 2.898-2.297 5.887-.442 2.951 1.012 5.343l14.888 9.914zM329.532 220.08q-2.593-1.727-4.29-4.149-1.7-2.422-2.29-5.265-.612-2.859-.056-5.932.549-3.111 2.55-6.117 2.688-4.037 6.326-5.72 3.638-1.684 7.391-1.205l-2.213 7.4q-1.888-.098-3.508.744-1.605.819-2.659 2.402-.901 1.353-1.145 2.913-.251 1.521.132 3.034.383 1.514 1.423 2.935 1.033 1.383 2.662 2.467 1.651 1.1 3.364 1.512 1.705.374 3.272.159 1.566-.215 2.896-1.018 1.307-.819 2.193-2.15 1.13-1.697 1.228-3.685.099-1.987-.735-3.37l5.975-4.896q1.981 3.141 1.83 7.246-.173 4.09-2.892 8.173-2.001 3.005-4.637 4.726-2.621 1.699-5.495 2.235-2.897.522-5.825-.103-2.951-.64-5.497-2.337zM360.548 200.204l-34.296-22.837 4.186-6.286 14.246 9.486q-1.485-2.942-1.234-6.153.25-3.21 2.114-6.009 1.588-2.386 3.422-3.35t3.776-.896q1.919.052 3.876.892 1.934.825 3.77 2.047l15.37 10.234-4.186 6.286-13.81-9.196q-2.913-1.94-5.008-1.778-2.117.146-3.43 2.119-.566.849-.802 2.049-.26 1.185-.136 2.492.1 1.292.567 2.63.482 1.314 1.377 2.406l14.383 9.578zM370.98 168.674q-1.743-1.16-2.692-2.918-.972-1.773-1.088-3.837-.1-2.087.587-4.41.686-2.325 2.214-4.619 1.1-1.652 2.437-3.013 1.329-1.4 2.666-2.264l-1.422-.947q-2.432-1.62-4.671-1.09-2.247.49-4.065 3.22-1.314 1.972-1.855 4.327-.55 2.316-.487 5.206l-5.274-.731q.019-6.841 3.647-12.34 3.528-5.299 8.099-6.494 4.57-1.194 9.503 2.09l7.662 5.102q.986.657 1.628.587.657-.092 1.26-.849l5.346 3.56q-.748 1.82-1.527 2.99-1.192 1.788-2.613 2.233-1.445.428-2.928-.228l-1.445-.764q1.056 3.088.622 6.176-.434 3.089-2.221 5.773-1.192 1.789-2.804 2.967-1.62 1.14-3.439 1.584-1.803.422-3.63.132-1.835-.328-3.51-1.443zm3.444-6.316q1.606 1.07 3.47.557 1.881-.536 3.072-2.326 1.07-1.606 1.466-3.395.374-1.804-.032-3.233-.116-1.567-1.102-2.224l-2.822-1.879q-1.161.85-2.3 2.012-1.145 1.124-1.955 2.34-1.62 2.432-1.557 4.725.063 2.293 1.76 3.423zM397.393 144.872l-24.615-16.39 3.788-5.69 4.565 3.04q-1.438-2.912-1.058-6.367.395-3.478 2.565-6.736 1.527-2.294 3.338-3.174 1.827-.903 3.738-.789 1.888.098 3.83.961 1.919.847 3.708 2.039l15.37 10.235-4.185 6.285-13.81-9.196q-2.96-1.97-5-1.84-2.064.117-3.286 1.952-.627.94-.893 2.186-.29 1.231-.182 2.561.084 1.315.551 2.652.483 1.315 1.378 2.408l14.383 9.577zM402.946 109.829q-2.684-1.787-4.428-4.14-1.744-2.354-2.525-4.96-.766-2.63-.408-5.305.358-2.676 1.962-5.084 1.817-2.73 4.599-4.023 2.759-1.309 5.679-1.12L393.83 75.88l4.201-6.308 27.07 18.025q.986.657 1.613.61.627-.046 1.23-.803l5.345 3.56q-.779 1.865-1.466 2.897-1.13 1.698-2.674 2.226-1.567.513-3.035-.266l-1.629-.885q1.439 2.911 1.074 6.045-.35 3.112-2.046 5.658-1.695 2.546-4.118 4.046-2.422 1.5-5.181 1.914-2.767.376-5.665-.295-2.92-.687-5.604-2.474zm4.514-6.431q1.56 1.039 3.204 1.405 1.659.343 3.24.105 1.583-.238 2.981-1.095 1.376-.872 2.384-2.386.596-.895.924-2.034.305-1.154.274-2.3-.039-1.185-.345-2.317-.33-1.146-1.01-2.063l-5.873-3.91q-1.277-.32-2.607-.213-1.33.108-2.53.567-1.207.421-2.216 1.14-1.031.704-1.658 1.644-.932 1.4-1.122 3.028-.198 1.59.292 3.142.49 1.551 1.546 2.95 1.048 1.36 2.516 2.337zM423.24 79.7q-2.638-1.756-4.36-4.193-1.744-2.453-2.357-5.312-.636-2.874-.064-5.97.564-3.134 2.565-6.14 2.001-3.004 4.63-4.664 2.62-1.699 5.464-2.19 2.836-.529 5.733.143 2.875.655 5.352 2.305.62.413 1.178.817.535.39.84.726l-12.678 19.04q1.537.825 3.05 1.038 1.507.175 2.905-.185 1.399-.36 2.583-1.193 1.177-.872 1.987-2.088 1.252-1.881 1.434-4.144.198-2.286-.904-3.913l5.104-4.383q1.92 3.232 1.747 7.421-.197 4.174-2.946 8.303-1.97 2.96-4.584 4.696-2.598 1.714-5.449 2.266-2.874.536-5.779-.074-2.928-.625-5.451-2.305zm2.159-8.065l8.508-12.777q-2.928-1.62-5.787-.907-2.881.697-4.592 3.266-.84 1.262-1.13 2.692-.297 1.391-.06 2.775.238 1.383.996 2.682.772 1.276 2.065 2.27z" style="-inkscape-font-specification:'Raleway, Bold';font-variant-ligatures:normal;font-variant-caps:normal;font-variant-numeric:normal;font-variant-east-asian:normal;text-align:center"/></g></svg>