<svg xmlns="http://www.w3.org/2000/svg" width="1766.667" height="2437.333" viewBox="0 0 467.431 644.878"><g aria-label="Ce devis n’est pas valide" fill="#fdb140"><path d="M67.629 561.764q-3.814-2.54-6.625-6.398-2.792-3.887-3.96-8.473-1.197-4.605-.464-9.622.704-5.036 3.95-9.91 3.838-5.764 9.15-8.27 5.33-2.535 10.748-1.908l.138 9.116q-2.303-.333-4.29.04-1.997.326-3.582 1.216-1.615.87-2.923 2.151-1.29 1.252-2.225 2.658-2.024 3.04-2.3 6.126-.275 3.086.692 5.923.957 2.79 2.936 5.225 1.998 2.407 4.464 4.05 2.753 1.832 5.897 2.643 3.144.81 6.164.503 3.019-.308 5.703-1.79 2.655-1.502 4.45-4.197.936-1.405 1.604-3.154.687-1.778.858-3.65.142-1.893-.28-3.87-.42-1.978-1.664-3.84l8.225-4.085q1.683 2.57 2.248 5.636.556 3.02.242 6.163-.313 3.144-1.41 6.221-1.126 3.059-2.807 5.582-2.978 4.473-7.305 6.931-4.356 2.44-9.143 3.101-4.815.643-9.67-.396-4.835-1.068-8.821-3.722zM103.192 521.224q-3.298-2.196-5.45-5.242-2.18-3.066-2.946-6.64-.795-3.592-.08-7.462.705-3.918 3.206-7.674 2.501-3.757 5.787-5.832 3.276-2.123 6.83-2.736 3.545-.662 7.167.177 3.593.82 6.69 2.882.774.516 1.472 1.022.669.487 1.051.907l-15.848 23.8q1.921 1.031 3.813 1.298 1.883.219 3.63-.231 1.75-.45 3.23-1.493 1.47-1.09 2.483-2.61 1.565-2.351 1.793-5.18.247-2.856-1.13-4.89l6.38-5.48q2.4 4.041 2.183 9.277-.245 5.217-3.682 10.379-2.464 3.7-5.73 5.87-3.248 2.142-6.811 2.832-3.593.67-7.224-.092-3.66-.781-6.814-2.882zm2.698-10.082l10.636-15.972q-3.66-2.024-7.234-1.133-3.601.871-5.74 4.083-1.05 1.577-1.412 3.364-.372 1.74-.075 3.469.297 1.729 1.244 3.353.966 1.595 2.581 2.836zM154.065 444.39q-3.355-2.234-5.535-5.176t-3.157-6.2q-.957-3.286-.51-6.63.448-3.345 2.453-6.356 2.272-3.412 5.749-5.029 3.448-1.635 7.099-1.398l-17.492-11.648 5.25-7.886L181.76 416.6q1.233.82 2.017.763.783-.058 1.538-1.004l6.681 4.449q-.973 2.332-1.833 3.622-1.413 2.122-3.342 2.783-1.959.64-3.794-.333l-2.036-1.107q1.799 3.64 1.342 7.557-.437 3.89-2.557 7.072-2.12 3.183-5.147 5.058-3.028 1.874-6.477 2.392-3.459.47-7.08-.369-3.651-.858-7.006-3.092zm5.643-8.039q1.95 1.299 4.004 1.756 2.074.429 4.051.132 1.978-.298 3.726-1.369 1.72-1.09 2.98-2.982.744-1.119 1.155-2.543.381-1.443.342-2.876-.049-1.48-.432-2.895-.411-1.433-1.262-2.579l-7.341-4.888q-1.596-.4-3.258-.266-1.663.135-3.163.709-1.51.526-2.77 1.425-1.29.88-2.072 2.055-1.165 1.75-1.403 3.785-.247 1.988.365 3.927.613 1.94 1.932 3.687 1.31 1.7 3.146 2.922zM182.365 402.325q-3.298-2.196-5.449-5.243-2.18-3.066-2.947-6.639-.795-3.592-.08-7.462.705-3.918 3.206-7.674 2.502-3.757 5.787-5.832 3.277-2.123 6.83-2.737 3.545-.66 7.167.178 3.593.82 6.69 2.882.774.516 1.472 1.022.67.487 1.052.907l-15.849 23.8q1.921 1.031 3.813 1.298 1.883.218 3.631-.232 1.749-.45 3.229-1.492 1.47-1.09 2.483-2.61 1.566-2.351 1.793-5.18.247-2.857-1.13-4.891l6.38-5.478q2.4 4.04 2.184 9.276-.246 5.217-3.683 10.379-2.463 3.7-5.73 5.87-3.247 2.142-6.811 2.832-3.592.67-7.224-.092-3.66-.781-6.814-2.882zm2.699-10.082l10.635-15.972q-3.66-2.024-7.233-1.133-3.602.871-5.74 4.083-1.05 1.577-1.413 3.364-.372 1.74-.075 3.469.298 1.729 1.244 3.353.966 1.595 2.582 2.836zM191.896 354.26l5.404-8.115 29.568 8.43-19.123-24.115 4.926-7.398 23.226 31.815-5.67 8.516zM249.103 335.045l-30.769-20.488 5.232-7.857 30.769 20.488zm-35.07-23.353l-7.8-5.193 5.232-7.857 7.8 5.193zM256.356 315.14l-2.985-6.21q3.879-1.473 6.687-3.452 2.798-2.027 4.555-4.665 1.566-2.352 1.574-4.291.009-1.94-1.626-3.029-1.634-1.088-3.458-.026-1.825 1.061-5.187 3.996-2.817 2.429-4.976 4.054-2.187 1.607-4.021 2.248-1.834.641-3.497.403-1.644-.266-3.393-1.431-2.351-1.566-3.623-3.696-1.282-2.178-1.512-4.69-.212-2.542.541-5.228.754-2.685 2.472-5.266 2.31-3.47 5.32-5.812 3.027-2.371 6.944-3.405l2.64 6.352q-3.314 1.187-5.616 2.841-2.283 1.626-3.734 3.805-1.337 2.007-1.403 3.909-.094 1.882 1.741 3.104.832.554 1.558.582.726.029 1.634-.402.878-.45 2.025-1.3 1.136-.9 2.683-2.352 2.951-2.63 5.272-4.313 2.312-1.73 4.327-2.458 2.035-.755 3.85-.498 1.835.228 3.785 1.526 4.531 3.017 4.906 8.11.347 5.073-3.49 10.837-2.579 3.871-6.275 6.75-3.696 2.877-7.718 4.007zM309.029 245.05l-30.769-20.488 4.736-7.111 5.706 3.8q-1.798-3.64-1.323-7.959.495-4.348 3.206-8.42 1.91-2.867 4.174-3.967 2.283-1.129 4.672-.987 2.36.123 4.787 1.201 2.4 1.06 4.636 2.549l19.212 12.793-5.232 7.857-17.262-11.495q-3.7-2.463-6.25-2.299-2.58.145-4.108 2.439-.783 1.176-1.116 2.733-.362 1.539-.228 3.201.106 1.644.69 3.315.603 1.644 1.722 3.01l17.979 11.972zM299.442 182.931l-7.914-5.27 5.29-7.943 8.028 5.346 5.641 6.82-3.17 4.76-6.309-6.064zM330.095 180.47q-3.297-2.195-5.449-5.242-2.18-3.066-2.946-6.64-.795-3.592-.08-7.462.704-3.918 3.206-7.674 2.501-3.757 5.787-5.832 3.276-2.123 6.83-2.736 3.545-.661 7.166.177 3.594.82 6.69 2.882.775.516 1.473 1.022.669.487 1.051.907l-15.848 23.8q1.92 1.031 3.813 1.298 1.882.219 3.63-.231 1.749-.45 3.23-1.493 1.47-1.09 2.482-2.61 1.566-2.35 1.794-5.18.247-2.856-1.13-4.89l6.38-5.48q2.4 4.041 2.183 9.277-.246 5.218-3.683 10.38-2.463 3.698-5.73 5.869-3.247 2.142-6.81 2.832-3.593.67-7.224-.092-3.66-.781-6.815-2.882zm2.699-10.082l10.636-15.972q-3.661-2.023-7.234-1.133-3.602.872-5.74 4.083-1.05 1.577-1.413 3.364-.371 1.74-.074 3.469.297 1.73 1.244 3.353.966 1.595 2.581 2.836zM367.287 148.548l-2.984-6.209q3.878-1.473 6.686-3.453 2.799-2.027 4.556-4.665 1.565-2.352 1.574-4.291.008-1.94-1.626-3.028-1.635-1.089-3.46-.027-1.824 1.062-5.185 3.997-2.818 2.428-4.976 4.054-2.187 1.606-4.022 2.247-1.834.641-3.497.404-1.643-.267-3.392-1.432-2.352-1.566-3.624-3.696-1.281-2.178-1.512-4.69-.212-2.542.542-5.227.753-2.686 2.472-5.266 2.31-3.47 5.319-5.813 3.027-2.371 6.944-3.405l2.641 6.353q-3.315 1.186-5.617 2.84-2.283 1.626-3.734 3.805-1.336 2.008-1.402 3.91-.095 1.881 1.74 3.104.832.553 1.558.582.726.028 1.634-.403.879-.45 2.025-1.3 1.136-.899 2.684-2.352 2.95-2.63 5.272-4.312 2.31-1.731 4.327-2.458 2.034-.756 3.85-.5 1.835.23 3.785 1.528 4.53 3.016 4.906 8.11.346 5.073-3.492 10.836-2.577 3.871-6.274 6.75-3.696 2.878-7.718 4.007zM369.06 101.319l-6.05-4.03 2.692-4.042-9.98-6.645 5.252-7.886 9.979 6.645 4.296-6.452 6.05 4.029-4.296 6.452 15.026 10.005q1.635 1.089 2.877.716 1.26-.402 2.082-1.635.82-1.234 1.202-2.677.353-1.462.543-2.37l7.273 2.567q-.333 2.054-1.172 4.807-.84 2.752-2.52 5.275-1.089 1.635-2.464 2.83-1.356 1.166-3 1.645-1.642.479-3.515.184-1.854-.324-3.919-1.7l-17.664-11.761zM208.775 550.008l-43.271-28.814 4.582-6.882 5.277 3.514q-1.57-3.487-1.323-7.214.218-3.745 2.566-7.272 2.082-3.126 5.1-4.924 3.019-1.798 6.43-2.258 3.43-.49 7.08.369 3.622.838 6.833 2.977 3.355 2.234 5.64 5.204 2.257 2.952 3.233 6.21.967 3.21.558 6.497-.409 3.287-2.357 6.212-2.425 3.641-5.825 5.267-3.401 1.627-7.185 1.342l17.893 11.915zm-19.487-24.316q3.345.695 6.545-.32 3.172-1.033 4.852-3.556 1.165-1.75 1.413-3.737.237-2.035-.366-3.927-.584-1.92-1.894-3.62-1.32-1.748-3.154-2.97-1.95-1.299-4.053-1.747-2.083-.476-4.08-.15-1.996.326-3.716 1.416-1.748 1.071-2.97 2.906-.744 1.119-1.126 2.562-.39 1.395-.342 2.876.02 1.462.431 2.895.402 1.385 1.234 2.56zM213.468 496.031q-2.18-1.45-3.366-3.648-1.214-2.216-1.36-4.796-.125-2.608.734-5.513.858-2.906 2.767-5.773 1.375-2.065 3.046-3.766 1.662-1.75 3.334-2.83l-1.778-1.184q-3.04-2.024-5.84-1.364-2.808.614-5.08 4.026-1.642 2.466-2.32 5.41-.686 2.895-.607 6.507l-6.594-.914q.024-8.552 4.56-15.424 4.41-6.624 10.123-8.118 5.713-1.494 11.879 2.612l9.577 6.377q1.233.821 2.036.735.821-.115 1.576-1.062l6.681 4.45q-.935 2.274-1.909 3.736-1.49 2.237-3.266 2.792-1.806.536-3.66-.284l-1.806-.955q1.32 3.86.778 7.72-.543 3.86-2.777 7.216-1.49 2.236-3.505 3.709-2.024 1.425-4.298 1.98-2.255.527-4.539.165-2.293-.41-4.386-1.804zm4.305-7.894q2.007 1.336 4.338.695 2.35-.67 3.84-2.907 1.336-2.007 1.832-4.243.467-2.256-.04-4.042-.145-1.959-1.378-2.78l-3.527-2.349q-1.452 1.062-2.875 2.515-1.432 1.405-2.444 2.925-2.024 3.04-1.946 5.906.078 2.867 2.2 4.28zM243.73 461.4l-2.984-6.21q3.878-1.474 6.687-3.453 2.798-2.027 4.555-4.665 1.566-2.352 1.574-4.291.009-1.94-1.626-3.028-1.634-1.089-3.459-.027-1.824 1.062-5.186 3.997-2.817 2.428-4.976 4.054-2.187 1.606-4.021 2.247-1.835.641-3.497.403-1.644-.266-3.393-1.43-2.352-1.567-3.623-3.697-1.282-2.178-1.513-4.69-.211-2.542.542-5.227.754-2.686 2.472-5.266 2.31-3.47 5.319-5.813 3.028-2.371 6.945-3.405l2.64 6.353q-3.315 1.186-5.617 2.84-2.282 1.626-3.733 3.805-1.337 2.008-1.403 3.91-.095 1.881 1.74 3.104.832.553 1.558.582.727.028 1.634-.403.879-.45 2.025-1.3 1.137-.899 2.684-2.352 2.95-2.63 5.272-4.312 2.311-1.731 4.327-2.458 2.035-.756 3.85-.5 1.835.23 3.785 1.528 4.53 3.016 4.906 8.109.347 5.074-3.491 10.837-2.578 3.871-6.274 6.75-3.696 2.878-7.719 4.007zM262.523 375.495l5.403-8.115 29.568 8.431-19.123-24.116 4.927-7.398 23.226 31.815-5.671 8.516zM308.634 353.114q-2.179-1.451-3.365-3.648-1.215-2.216-1.36-4.796-.125-2.609.733-5.514.859-2.905 2.768-5.773 1.375-2.064 3.046-3.766 1.662-1.75 3.333-2.83l-1.777-1.184q-3.04-2.024-5.84-1.363-2.808.613-5.08 4.025-1.642 2.466-2.32 5.41-.686 2.895-.607 6.507l-6.594-.914q.024-8.551 4.56-15.424 4.41-6.624 10.123-8.118 5.713-1.493 11.878 2.612l9.578 6.378q1.233.82 2.036.734.821-.115 1.576-1.061l6.68 4.449q-.934 2.274-1.908 3.737-1.49 2.237-3.266 2.792-1.806.536-3.66-.285l-1.806-.954q1.32 3.859.778 7.72-.543 3.86-2.777 7.215-1.49 2.237-3.505 3.71-2.025 1.424-4.298 1.98-2.255.526-4.539.164-2.293-.41-4.387-1.803zm4.305-7.895q2.008 1.337 4.339.695 2.35-.67 3.84-2.907 1.336-2.007 1.832-4.243.467-2.255-.04-4.042-.145-1.958-1.378-2.78l-3.527-2.348q-1.452 1.061-2.875 2.514-1.432 1.406-2.444 2.926-2.024 3.04-1.946 5.906.078 2.866 2.2 4.28zM337.433 314.278l-35.758-23.81 5.232-7.858 33.005 21.978q1.692 1.127 3.192.925 1.5-.201 2.512-1.72.478-.718.802-1.702.315-1.032.467-2.007l6.7 2.93q-.276 2.092-1.288 4.482-.992 2.36-2.138 4.08-2.463 3.7-5.769 4.438-3.315.69-6.957-1.736zM359.889 295.97l-30.769-20.488 5.232-7.857 30.769 20.488zm-35.07-23.352l-7.8-5.194 5.232-7.857 7.8 5.194zM356.169 268.179q-3.355-2.234-5.536-5.176-2.18-2.942-3.156-6.2-.957-3.286-.51-6.63.447-3.345 2.452-6.356 2.272-3.412 5.75-5.029 3.448-1.636 7.098-1.399l-17.492-11.647 5.251-7.886 33.837 22.531q1.233.822 2.017.764.783-.058 1.537-1.004l6.682 4.449q-.974 2.332-1.833 3.622-1.413 2.122-3.343 2.782-1.958.642-3.793-.332l-2.036-1.107q1.798 3.64 1.342 7.557-.438 3.89-2.557 7.072-2.12 3.183-5.147 5.057-3.028 1.875-6.477 2.393-3.46.47-7.08-.37-3.651-.857-7.006-3.091zm5.642-8.039q1.95 1.298 4.005 1.756 2.073.429 4.051.132 1.978-.298 3.726-1.369 1.72-1.09 2.98-2.983.744-1.118 1.154-2.542.382-1.443.343-2.876-.049-1.481-.432-2.895-.412-1.433-1.263-2.58l-7.34-4.887q-1.596-.4-3.259-.266-1.662.135-3.162.709-1.51.526-2.77 1.425-1.29.88-2.073 2.055-1.164 1.75-1.402 3.785-.248 1.987.365 3.927.613 1.939 1.932 3.687 1.31 1.7 3.145 2.922zM384.469 226.114q-3.298-2.196-5.45-5.243-2.18-3.066-2.946-6.639-.795-3.592-.08-7.462.705-3.918 3.206-7.675 2.501-3.756 5.787-5.831 3.276-2.123 6.83-2.737 3.545-.661 7.167.178 3.593.82 6.69 2.882.774.515 1.472 1.021.669.487 1.051.908l-15.848 23.8q1.921 1.03 3.813 1.297 1.883.22 3.63-.23 1.75-.45 3.23-1.493 1.47-1.09 2.483-2.61 1.565-2.351 1.793-5.18.247-2.857-1.13-4.891l6.38-5.479q2.4 4.04 2.183 9.277-.245 5.217-3.682 10.379-2.464 3.699-5.73 5.87-3.248 2.142-6.811 2.831-3.593.671-7.224-.091-3.66-.782-6.814-2.882zm2.698-10.082l10.636-15.972q-3.66-2.024-7.234-1.133-3.601.871-5.74 4.083-1.05 1.577-1.412 3.364-.372 1.74-.075 3.468.297 1.73 1.244 3.354.966 1.595 2.581 2.836z"/></g></svg>