<svg xmlns="http://www.w3.org/2000/svg" width="1135" height="310" viewBox="0 0 1135 310">
  <defs>
    <style>
      .cls-1 {
        fill: #fff;
        fill-rule: evenodd;
      }
    </style>
  </defs>
  <path id="QALITA" class="cls-1" d="M259.9,111.557a120.214,120.214,0,0,0-63.75-63.6,116.864,116.864,0,0,0-46.8-9.45,115.768,115.768,0,0,0-46.65,9.45,121.618,121.618,0,0,0-37.95,25.65,119.532,119.532,0,0,0-25.5,37.95,120.9,120.9,0,0,0,0,93,120.212,120.212,0,0,0,63.45,63.9,115.768,115.768,0,0,0,46.65,9.45,112.208,112.208,0,0,0,49.2-10.8l27,27,42-42-22.2-22.2a118.079,118.079,0,0,0,24-72A115.069,115.069,0,0,0,259.9,111.557Zm-165.75,23.1a60.859,60.859,0,0,1,31.95-31.95,57.313,57.313,0,0,1,23.25-4.8,59.129,59.129,0,0,1,23.7,4.8,60.452,60.452,0,0,1,32.1,31.95,57.343,57.343,0,0,1,4.8,23.25,58.39,58.39,0,0,1-1.95,15.3,66.692,66.692,0,0,1-5.25,13.5l-31.8-31.2-42,42,20.4,21a57.225,57.225,0,0,1-23.25-4.8,60.453,60.453,0,0,1-31.95-32.1,59.028,59.028,0,0,1-4.8-23.7A57.266,57.266,0,0,1,94.154,134.657ZM348.4,47.357a119.817,119.817,0,0,0-63.45,64.05,121.275,121.275,0,0,0,0,93.15,119.484,119.484,0,0,0,25.5,37.95,121.621,121.621,0,0,0,37.95,25.65,119.4,119.4,0,0,0,46.65,9.75l60-60h-60a57.229,57.229,0,0,1-23.25-4.8,60.859,60.859,0,0,1-31.95-31.95,58.709,58.709,0,0,1,0-46.5,60.859,60.859,0,0,1,31.95-31.95,57.316,57.316,0,0,1,23.25-4.8,59.125,59.125,0,0,1,23.7,4.8,60.452,60.452,0,0,1,32.1,31.95,57.343,57.343,0,0,1,4.8,23.25v120h59.4v-120a116.129,116.129,0,0,0-9.45-46.5,123.085,123.085,0,0,0-25.65-38.25,119.984,119.984,0,0,0-38.1-25.8A120.239,120.239,0,0,0,348.4,47.357Zm264.146,171.15q-3.3,0-8.4-2.7a47.807,47.807,0,0,1-18.6-18.3,26.219,26.219,0,0,1-3.6-13.2V13.907l-59.4,59.4v111a83.087,83.087,0,0,0,8.25,36.6,103.826,103.826,0,0,0,50.4,49.65q16.046,7.354,31.35,7.35h24v-59.4h-24Zm32.1-121.8v181.2h59.4v-240Zm280.2-58.8h-207v59.4h57.6v180.6h59.4V97.307h30.6Zm19.351,9.45a119.817,119.817,0,0,0-63.45,64.05,121.275,121.275,0,0,0,0,93.15,119.484,119.484,0,0,0,25.5,37.95,121.621,121.621,0,0,0,37.95,25.65,119.4,119.4,0,0,0,46.65,9.75l60-60h-60a57.229,57.229,0,0,1-23.25-4.8,60.859,60.859,0,0,1-31.95-31.95,58.709,58.709,0,0,1,0-46.5,60.859,60.859,0,0,1,31.95-31.95,57.316,57.316,0,0,1,23.25-4.8,59.176,59.176,0,0,1,23.7,4.8,60.452,60.452,0,0,1,32.1,31.95,57.459,57.459,0,0,1,4.8,23.25v120h59.4v-120a116.129,116.129,0,0,0-9.45-46.5,123.085,123.085,0,0,0-25.65-38.25,120.062,120.062,0,0,0-38.1-25.8A120.249,120.249,0,0,0,944.2,47.357Z"/>
</svg>
