<?xml version="1.0" encoding="utf-8"?>
<!-- Generator: Adobe Illustrator 27.4.0, SVG Export Plug-In . SVG Version: 6.00 Build 0)  -->
<svg version="1.1" id="Layer_1" xmlns="http://www.w3.org/2000/svg" xmlns:xlink="http://www.w3.org/1999/xlink" x="0px" y="0px"
	 viewBox="0 0 844.5 154.9" style="enable-background:new 0 0 844.5 154.9;" xml:space="preserve">
<g>
	<path style="fill:var(--bs-body-color);" d="M237.9,71.3V21.7h7.5L260,66.5h0.1l14.4-44.7h7v49.5h-4.4V26H277l-14.5,45.3h-5.1l-15-45.3h-0.1
		v45.3H237.9z"/>
	<path style="fill:var(--bs-body-color);" d="M309.2,67h-0.1c-2.2,3.3-5.6,4.9-9.8,4.9c-6.2,0-9.5-4.2-9.5-10.2c0-12.1,12.2-10.9,19.2-11.5v-2.9
		c0-5.1-1.5-8.2-7-8.2c-3.8,0-6.8,1.9-6.8,6h-4.4c0.3-6.7,5.5-9.3,11.5-9.3c3.5,0,10.8,0.3,10.8,9.2v17.4c0,2.5,0,4.7,0.4,8.7h-4.3
		V67z M308.9,53.6c-5.9,0.2-14.8-0.5-14.8,8c0,3.9,2,7.1,6.2,7.1c4.7,0,8.6-4.3,8.6-8.8V53.6z"/>
	<path style="fill:var(--bs-body-color);" d="M329.2,52.8l-8.6-16.2h4.9l6.3,13l6.9-13h4.5l-9.1,16l10,18.7h-5l-7.6-15l-8,15H319L329.2,52.8z"/>
	<path style="fill:var(--bs-body-color);" d="M366.7,21.7h13.6c4.1,0,10.9,0.5,10.9,12c0,9.9-3.2,14.5-11.7,14.5H371v23.1h-4.4V21.7z M371,44.5
		h8.2c4.6,0,7.5-2.2,7.5-9.9c0-8.4-3.6-9.1-7.6-9.1H371V44.5z"/>
	<path style="fill:var(--bs-body-color);" d="M399,71.3V21.7h4.1v49.5H399z"/>
	<path style="fill:var(--bs-body-color);" d="M431.4,67h-0.1c-2.2,3.3-5.6,4.9-9.8,4.9c-6.2,0-9.5-4.2-9.5-10.2c0-12.1,12.2-10.9,19.2-11.5v-2.9
		c0-5.1-1.5-8.2-7-8.2c-3.8,0-6.8,1.9-6.8,6H413c0.3-6.7,5.5-9.3,11.5-9.3c3.5,0,10.8,0.3,10.8,9.2v17.4c0,2.5,0,4.7,0.4,8.7h-4.3
		V67z M431.2,53.6c-5.9,0.2-14.8-0.5-14.8,8c0,3.9,2,7.1,6.2,7.1c4.7,0,8.6-4.3,8.6-8.8V53.6z"/>
	<path style="fill:var(--bs-body-color);" d="M448.8,71.3h-4.1V36.6h4.1v4.3h0.1c2-2.9,4.7-4.9,8.4-4.9c8.6,0,9.5,6.4,9.5,10.9v24.4h-4.1V47.1
		c0-4-1.6-7.8-6.4-7.8c-3.7,0-7.5,2.5-7.5,10.3V71.3z"/>
	<path style="fill:var(--bs-body-color);" d="M491.3,46.6c0.2-4.3-1.4-7.3-6.1-7.3c-2.5,0-4.7,1.4-5.6,4c-0.6,1.6-1,6.3-1,10.9
		c0,6.2,0,14.5,6.4,14.5c5.4,0,6.1-3.4,6.3-7.6h4.1c0.3,9.3-6.2,10.9-9.5,10.9c-11.7,0-11.7-9.3-11.7-17.8c0-3.4,0.1-8.9,1-11.5
		c1.8-4.9,5.7-6.7,10.4-6.7c6,0,10,3.4,9.7,10.6H491.3z"/>
	<path style="fill:var(--bs-body-color);" d="M503.4,21.7h4.1v30.2h0.1l11.9-15.3h4.8l-12.3,15.4l13.1,19.2H520l-12.4-18.9h-0.1v18.9h-4.1V21.7z"
		/>
	<path style="fill:var(--bs-body-color);" d="M552.2,21.7v49.5h-4.4V21.7H552.2z"/>
	<path style="fill:var(--bs-body-color);" d="M566.6,71.3h-4.1V36.6h4.1v4.3h0.1c2-2.9,4.7-4.9,8.4-4.9c8.6,0,9.5,6.4,9.5,10.9v24.4h-4.1V47.1
		c0-4-1.6-7.8-6.4-7.8c-3.7,0-7.5,2.5-7.5,10.3V71.3z"/>
	<path style="fill:var(--bs-body-color);" d="M602.8,72c-7.5,0-10.4-3.6-10.4-11h4.2c0,4.7,1.1,7.9,6.4,7.9c4,0,5.9-2.3,5.9-6.1
		c0-9.1-15.6-6.7-15.6-18.2c0-6.4,4.4-8.6,10.4-8.6c6.9,0,9.1,4.7,9.1,10h-4c-0.2-4.4-1.4-6.7-6-6.7c-2.9,0-5.3,1.9-5.3,5
		c0,8.6,15.6,6.3,15.6,17.9C613,68.7,609.3,72,602.8,72z"/>
	<path style="fill:var(--bs-body-color);" d="M617.9,39.9v-3.3h5.6v-7.1l4.1-1.8v8.9h7v3.3h-7v22.2c0,4.6,0.5,5.7,3.8,5.7c1.4,0,2.3-0.1,3.2-0.2
		v3.6c-1.2,0.1-2.6,0.2-3.9,0.2c-5.6,0-7.2-2.5-7.2-6.7V39.9H617.9z"/>
	<path style="fill:var(--bs-body-color);" d="M641.6,27v-5.2h5.1V27H641.6z M642.1,71.3V36.6h4.1v34.6H642.1z"/>
	<path style="fill:var(--bs-body-color);" d="M653.6,39.9v-3.3h5.6v-7.1l4.1-1.8v8.9h7v3.3h-7v22.2c0,4.6,0.5,5.7,3.8,5.7c1.4,0,2.3-0.1,3.2-0.2
		v3.6c-1.2,0.1-2.6,0.2-3.9,0.2c-5.6,0-7.2-2.5-7.2-6.7V39.9H653.6z"/>
	<path style="fill:var(--bs-body-color);" d="M698.3,36.6v34.6h-3.6v-3.8h-0.1c-2.4,2.9-4.9,4.5-8.7,4.5c-7.1,0-9.1-5.2-9.1-10.8V36.6h4.1v23.8
		c0,1-0.2,8.2,5.8,8.2c5.6,0,7.5-5.2,7.5-7.6V36.6H698.3z"/>
	<path style="fill:var(--bs-body-color);" d="M704.5,39.9v-3.3h5.6v-7.1l4.1-1.8v8.9h7v3.3h-7v22.2c0,4.6,0.5,5.7,3.8,5.7c1.4,0,2.3-0.1,3.2-0.2
		v3.6c-1.2,0.1-2.6,0.2-3.9,0.2c-5.6,0-7.2-2.5-7.2-6.7V39.9H704.5z"/>
	<path style="fill:var(--bs-body-color);" d="M730.6,54.8v2.7c0,4.8,1.3,11.2,7.8,11.2c5.1,0,7.7-3.3,7.6-8h4.3c-0.5,8.4-5,11.3-11.9,11.3
		c-6,0-11.9-2.4-11.9-12.9v-8.5c0-10,4.2-14.6,11.9-14.6c11.9,0,11.9,8.6,11.9,18.9H730.6z M746.2,51.5c0-7.7-1.2-12.3-7.8-12.3
		c-6.6,0-7.8,4.6-7.8,12.3H746.2z"/>
	<path style="fill:var(--bs-body-color);" d="M239.9,104.4h-5.6v-3.3h5.6v-5.8c0-3.3,0.5-9.3,8.8-9.3c0.6,0,1.3,0.1,2.3,0.3v3.4H248
		c-4,0-4,3.6-4,5.6v5.9h7v3.3h-7v31.4h-4.1V104.4z"/>
	<path style="fill:var(--bs-body-color);" d="M256.1,122.2v-7.5c0-9,3.8-14.3,11.9-14.3c8.1,0,11.9,5.3,11.9,14.3v7.5c0,9-3.8,14.3-11.9,14.3
		C259.9,136.4,256.1,131.1,256.1,122.2z M260.2,118.4c0,9.1,1,14.7,7.8,14.7c6.8,0,7.8-5.7,7.8-14.7c0-9-1-14.7-7.8-14.7
		C261.2,103.7,260.2,109.4,260.2,118.4z"/>
	<path style="fill:var(--bs-body-color);" d="M292.5,105.8h0.1c1.7-3.3,5.4-5.4,9.5-5.4v4.2c-5.8-0.5-9.7,3-9.7,8.9v22.3h-4.1v-34.6h4.1V105.8z"
		/>
	<path style="fill:var(--bs-body-color);" d="M346.9,86.2v3.7h-18v18.5h17.2v3.7h-17.2V132h18.5v3.7h-22.9V86.2H346.9z"/>
	<path style="fill:var(--bs-body-color);" d="M358.7,135.7h-4.1V101h3.7v4.3h0.1c1.6-2.8,4.4-4.9,8.2-4.9c3.6,0,6.7,2,7.9,5.4
		c1.7-3.4,4.7-5.4,8.5-5.4c5.8,0,8.8,4,9,9.5v25.8h-4.1V111c-0.1-3.4-1.3-7.3-5.4-7.3c-5.2,0-7.2,5.2-7.2,9.7v22.3h-4.1V111
		c-0.1-3.4-1.3-7.3-5.4-7.3c-5.2,0-7.2,5.2-7.2,9.7V135.7z"/>
	<path style="fill:var(--bs-body-color);" d="M405.2,105.3l0.1-0.1c2.2-3.4,5.6-4.8,8.4-4.8c10.8,0,10.9,9.5,10.9,14v7.8c0,9-3.1,14.3-11.9,14.3
		c-2.5,0-5.1-1.2-7.2-4.5l-0.1-0.1v17h-4.1v-47.8h4V105.3z M405.4,121.5c0,7.9,3.6,11.7,7.3,11.7c6.8,0,7.8-5.7,7.8-14.7
		c0-9-1-14.7-7.8-14.7c-2.7,0-7.3,3-7.3,11.6V121.5z"/>
	<path style="fill:var(--bs-body-color);" d="M433.2,91.4v-5.2h5.1v5.2H433.2z M433.6,135.7v-34.6h4.1v34.6H433.6z"/>
	<path style="fill:var(--bs-body-color);" d="M452.6,105.8h0.1c1.7-3.3,5.4-5.4,9.5-5.4v4.2c-5.8-0.5-9.7,3-9.7,8.9v22.3h-4.1v-34.6h4.1V105.8z"
		/>
	<path style="fill:var(--bs-body-color);" d="M468.8,91.4v-5.2h5.1v5.2H468.8z M469.3,135.7v-34.6h4.1v34.6H469.3z"/>
	<path style="fill:var(--bs-body-color);" d="M499.3,111c0.2-4.3-1.4-7.3-6.1-7.3c-2.5,0-4.7,1.4-5.6,4c-0.6,1.6-1,6.3-1,10.9
		c0,6.2,0,14.5,6.4,14.5c5.4,0,6.1-3.4,6.3-7.6h4.1c0.3,9.3-6.2,10.9-9.5,10.9c-11.7,0-11.7-9.3-11.7-17.8c0-3.4,0.1-8.9,1-11.5
		c1.8-4.9,5.7-6.7,10.4-6.7c6,0,10,3.4,9.7,10.6H499.3z"/>
	<path style="fill:var(--bs-body-color);" d="M529.2,131.5H529c-2.2,3.3-5.6,4.9-9.8,4.9c-6.2,0-9.5-4.2-9.5-10.2c0-12.1,12.2-10.9,19.2-11.5
		v-2.9c0-5.1-1.5-8.2-7-8.2c-3.8,0-6.8,1.9-6.8,6h-4.4c0.3-6.7,5.5-9.3,11.5-9.3c3.5,0,10.8,0.3,10.8,9.2V127c0,2.5,0,4.7,0.4,8.7
		h-4.3V131.5z M528.9,118c-5.9,0.2-14.8-0.5-14.8,8c0,3.9,2,7.1,6.2,7.1c4.7,0,8.6-4.3,8.6-8.8V118z"/>
	<path style="fill:var(--bs-body-color);" d="M543.8,135.7V86.2h4.1v49.5H543.8z"/>
	<path style="fill:var(--bs-body-color);" d="M592.5,86.2l15.4,49.5h-4.6l-4-13h-19.4l-3.9,13h-4.4l15.6-49.5H592.5z M598.2,119l-8.4-28h-0.1
		l-8.4,28H598.2z"/>
	<path style="fill:var(--bs-body-color);" d="M617,119.3v2.7c0,4.8,1.3,11.2,7.8,11.2c5.1,0,7.7-3.3,7.6-8h4.3c-0.5,8.4-5,11.3-11.9,11.3
		c-6,0-11.9-2.4-11.9-12.9V115c0-10,4.2-14.6,11.9-14.6c11.9,0,11.9,8.6,11.9,18.9H617z M632.7,116c0-7.7-1.2-12.3-7.8-12.3
		c-6.6,0-7.8,4.6-7.8,12.3H632.7z"/>
	<path style="fill:var(--bs-body-color);" d="M654.1,136.4c-7.5,0-10.4-3.6-10.4-11h4.2c0,4.7,1.1,7.9,6.4,7.9c4,0,5.9-2.3,5.9-6.1
		c0-9.1-15.6-6.7-15.6-18.2c0-6.4,4.4-8.6,10.4-8.6c6.9,0,9.1,4.7,9.1,10h-4c-0.2-4.4-1.4-6.7-6-6.7c-2.9,0-5.3,1.9-5.3,5
		c0,8.6,15.6,6.3,15.6,17.9C664.4,133.1,660.6,136.4,654.1,136.4z"/>
	<path style="fill:var(--bs-body-color);" d="M669.2,104.4v-3.3h5.6V94l4.1-1.8v8.9h7v3.3h-7v22.2c0,4.6,0.5,5.7,3.8,5.7c1.4,0,2.3-0.1,3.2-0.2
		v3.6c-1.2,0.1-2.6,0.2-3.9,0.2c-5.6,0-7.2-2.5-7.2-6.7v-24.8H669.2z"/>
	<path style="fill:var(--bs-body-color);" d="M692.1,135.7V86.2h4.1v19.1h0.1c2-2.9,4.7-4.9,8.4-4.9c8.6,0,9.5,6.4,9.5,10.9v24.4h-4.1v-24.2
		c0-4-1.6-7.8-6.4-7.8c-3.7,0-7.5,2.5-7.5,10.3v21.7H692.1z"/>
	<path style="fill:var(--bs-body-color);" d="M726.5,119.3v2.7c0,4.8,1.3,11.2,7.8,11.2c5.1,0,7.7-3.3,7.6-8h4.3c-0.5,8.4-5,11.3-11.9,11.3
		c-6,0-11.9-2.4-11.9-12.9V115c0-10,4.2-14.6,11.9-14.6c11.9,0,11.9,8.6,11.9,18.9H726.5z M742.1,116c0-7.7-1.2-12.3-7.8-12.3
		s-7.8,4.6-7.8,12.3H742.1z"/>
	<path style="fill:var(--bs-body-color);" d="M751.3,104.4v-3.3h5.6V94l4.1-1.8v8.9h7v3.3h-7v22.2c0,4.6,0.5,5.7,3.8,5.7c1.4,0,2.3-0.1,3.2-0.2
		v3.6c-1.2,0.1-2.6,0.2-3.9,0.2c-5.6,0-7.2-2.5-7.2-6.7v-24.8H751.3z"/>
	<path style="fill:var(--bs-body-color);" d="M775.1,91.4v-5.2h5.1v5.2H775.1z M775.5,135.7v-34.6h4.1v34.6H775.5z"/>
	<path style="fill:var(--bs-body-color);" d="M805.5,111c0.2-4.3-1.4-7.3-6.1-7.3c-2.5,0-4.7,1.4-5.6,4c-0.6,1.6-1,6.3-1,10.9
		c0,6.2,0,14.5,6.4,14.5c5.4,0,6.1-3.4,6.3-7.6h4.1c0.3,9.3-6.2,10.9-9.5,10.9c-11.7,0-11.7-9.3-11.7-17.8c0-3.4,0.1-8.9,1-11.5
		c1.8-4.9,5.7-6.7,10.4-6.7c6,0,10,3.4,9.7,10.6H805.5z"/>
	<path style="fill:var(--bs-body-color);" d="M826.7,136.4c-7.5,0-10.4-3.6-10.4-11h4.2c0,4.7,1.1,7.9,6.4,7.9c4,0,5.9-2.3,5.9-6.1
		c0-9.1-15.6-6.7-15.6-18.2c0-6.4,4.4-8.6,10.4-8.6c6.9,0,9.1,4.7,9.1,10h-4c-0.2-4.4-1.4-6.7-6-6.7c-2.9,0-5.3,1.9-5.3,5
		c0,8.6,15.6,6.3,15.6,17.9C836.9,133.1,833.1,136.4,826.7,136.4z"/>
	<g id="PfefferMdiaeval_1_" style="opacity:0.1;">
		<path style="fill:var(--bs-body-color);" d="M192,46.1c0.8,0,1.3,0.5,1.3,0.8c0,1.3-3.9,3.4-9.1,5.5L116,78.9c1.3,4.7,2.6,9.4,4.2,13.8
			c6,18.5,22.1,31.5,37.7,31.5c8.6,0,13.3-2.9,19.5-8.6c2.9-2.6,14-7,19.5-7c1.3,0,1.8,0.3,1.8,0.5c0,0.5-0.3,0.8-0.8,1.3
			c-9.9,9.4-34.1,23.2-58.3,23.2c-14,0-27.1-7.5-35.1-19.3c-16.4,9.9-36.7,19.3-55.4,19.3c-9.4,0-17.7-2.9-17.7-14.6
			c0-6.5,3.4-12.7,6.5-17.9C49.4,82.2,66.1,64,83.5,49.7c-4.9-14.6-16.9-22.9-31-22.9l-4.9,0.3c-1,0-1.6,0-1.6-0.5
			c0-4.7,20-8.6,25-8.6c13.8,0,24.7,5.2,31.2,16.4c10.4-9.9,28.4-16.4,42.4-16.4c9.1,0,18.2,2.9,26.3,10.1
			c6.8,6.2,10.4,15.3,20.3,17.9H192z M86.9,60.1c-14.8,15.3-33,35.9-33,51.8c0,9.4,5.5,12.7,12.2,12.7c12.7,0,31-11.2,34.9-16.9
			c-4.4-9.4-7.5-20.6-9.6-30.4C90,71.6,88.4,65.8,86.9,60.1z M149,36.7c-7-6-14.8-9.6-22.6-9.6h-1.6c-7.8,5.5-13,15.3-13,27.6
			c0,6.8,1,13,2.9,19.5L167,53.9C158.2,50.2,155.8,42.7,149,36.7z"/>
	</g>
	<g id="Centaur_1_" style="opacity:0.2;">
		<path style="fill:var(--bs-body-color);" d="M26.3,45.7c-1.1-3.2-2.5-6.8-2.5-10c0-12.2,33.6-31.1,53.6-31.1c12.9,0,22.5,12.9,27.5,18.9
			c19.3-17.9,25.7-19.3,34.3-19.3c21.1,0,41.8,13.9,49,38.6c0.7,3.2,1.4,4.3,6.4,6.1v5.4C178.2,56.4,130,65,107.8,72.1
			c-0.4,46.8,37.5,54.7,46.8,54.7c6.8,0,15-3.9,22.2-8.2c7.9-5,8.6-5.7,10-5.7c2.5,0,3.2,2.5,3.2,3.6c0,4.6-27.9,23.9-54.7,23.9
			c-20.7,0-34-13.6-39.7-24.3C68.1,131.8,55.3,139,37.7,139c-15.7,0-21.8-9.3-21.8-23.6c0-7.1,1.8-15.7,5.7-23.6
			c13.6-6.1,32.9-14.7,65.1-19.3V57.8c0-22.5-3.9-26.8-6.4-29.7c-5-6.1-13.6-10-19.7-10C47,18.1,46,24.6,46,29.2
			c0,2.9,0.7,5.7,1.4,7.9L26.3,45.7z M92.4,109.6c-2.1-6.1-3.2-9.6-4.6-25.7c-3.6-0.4-7.1-0.4-10.4-0.4c-28.6,0-40.4,10.7-40.4,25
			c0,4.3,1.8,18.2,14.3,18.2c5,0,11.4-1.1,22.9-7.1L92.4,109.6z M163.9,51.4c2.1-0.4,4.6-1.8,4.6-3.9c0-6.1-11.1-32.5-36.5-32.5
			c-12.2,0-24.7,16.4-24.3,48.6L163.9,51.4z"/>
	</g>
	<g id="Garamond_1_" style="opacity:0.2;">
		<path style="fill:var(--bs-body-color);" d="M107.3,28.5c4-4.3,9.6-8.2,16.7-11.8c7.2-3.6,13.9-5.4,20.1-5.4c12.3,0,22.7,4.2,31,12.5
			c8.3,8.4,12.5,18.8,12.6,31.4L124,54.7c-4.9,0-9.3,0.3-13.3,0.8c-0.4,3.3-0.6,11.9-0.6,26c0,10.2,1.5,18.2,4.4,23.9
			c2.9,5.8,7.9,11,15.1,15.8c4.7,3.1,10.8,4.6,18.4,4.6c6.3,0,12-1,16.9-3c4.9-2,10.6-5.6,17.1-10.9l5.8-4.9c1.1,1.5,1.7,3,1.7,4.4
			c0,1.4-0.2,3-0.5,4.7c-4.5,4.9-9.6,9.5-15.4,13.8c-4.2,3-10.5,5.8-19,8.6c-5.4,1.7-12.1,2.6-20.2,2.6c-5.9,0-12.6-1.8-20-5.5
			c-7.4-3.7-14.7-10.3-21.7-19.9c-10.2,8.7-16.3,13.7-18.4,15.1c-5.1,3.6-10.3,6.3-15.8,8.3c-4,1.5-8.1,2.3-12.2,2.3
			c-5.3,0-9.8-1.7-13.5-5.2c-3.7-3.5-5.5-7.2-5.5-11.2c0-4.9,0.7-9.3,2.1-13.2c1.4-3.9,3.4-7.5,6.2-10.9c2.8-3.4,6.4-6.8,10.9-10
			c2.3-1.7,11-6.9,26-15.6c6.3-3.7,12.4-6.9,18.2-9.6l0.8-7V45c0.1-7.7-2.2-14.3-6.9-19.7c-3.4-3.9-8.2-5.8-14.5-5.8
			c-5,0-9.5,1.9-13.6,5.7c-4.2,3.8-7.1,9.4-8.7,16.9c-1.6,7.5-3.3,12.5-4.9,15.1c-0.9,1.3-2.9,2.6-5.8,3.8l-7.3,2.8
			c-1.2,0-2.3-0.5-3.2-1.5c-0.9-1-1.4-2.2-1.4-3.7c0-2.4,1.8-7.4,5.4-14.8c3.6-7.4,7.8-13.5,12.6-18c4.8-4.6,9.9-8.1,15.3-10.5
			c5.4-2.4,10.6-3.6,15.8-3.6c7.3,0,13.5,1.3,18.6,4C97.6,18.2,102.5,22.5,107.3,28.5z M90.5,106.2c0.1-2.4,0.2-3.9,0.2-4.4
			l-0.2-14.1V77.6c0-0.5-0.1-2-0.2-4.4c-5.4,2-12.5,5.9-21.4,11.6C60,90.5,54.2,95.4,51.5,99.5c-2.7,4.1-4.1,8.3-4.1,12.7
			c0,4.1,1.5,7.6,4.4,10.6c2.9,3,6.3,4.4,10.2,4.4c2.5,0,5.6-1,9.1-3c3.5-2,8.1-5.5,13.7-10.5C87.1,111.6,89,109.1,90.5,106.2z
			 M111.6,48.1c2.9,0.3,4.6,0.5,5.2,0.5l12.1-0.5c1.3,0,4.1,0.1,8.4,0.2c4.3,0.2,9.3,0.2,15.1,0.2c5.6,0,9.4-0.7,11.3-2.1
			c1.9-1.4,2.9-3.1,2.9-5.3c0-5.6-2.4-10.8-7.3-15.7c-4.8-4.8-10.5-7.3-16.9-7.3c-8,0-15.1,3.2-21.5,9.7c-6.4,6.5-9.6,12.8-9.6,19
			L111.6,48.1z"/>
	</g>
	<g id="Roboto_1_" style="opacity:0.25;">
		<path style="fill:var(--bs-body-color);" d="M146.9,141.1c-11.1,0-20.6-2.2-28.5-6.5c-7.9-4.3-14.3-10.4-19.1-18.1c-1.8,2.9-4.1,5.8-7.1,8.7
			c-3,3-6.6,5.6-10.8,8c-4.3,2.4-9.2,4.3-14.7,5.7s-11.7,2.2-18.6,2.2c-6.9,0-12.9-0.9-18.2-2.6c-5.3-1.8-9.7-4.3-13.3-7.5
			c-3.6-3.3-6.3-7.2-8.2-11.9c-1.9-4.6-2.8-9.8-2.8-15.4c0-6.2,1.1-11.8,3.4-16.8c2.2-5,5.6-9.3,10-12.8c4.4-3.5,9.9-6.3,16.5-8.1
			c6.5-1.9,14.1-2.8,22.7-2.8h30.8V52.5c0-10.5-2.5-18.8-7.6-24.7C76.3,22,68.7,19,58.7,19c-5.5,0-10.5,0.7-14.8,2.2
			c-4.4,1.5-8.1,3.5-11.2,6c-3.1,2.5-5.4,5.5-7,8.9c-1.6,3.4-2.4,7.1-2.4,11L9,45.6c0-5.6,1.2-10.8,3.5-15.5
			c2.4-4.7,5.7-8.8,10.1-12.3c4.3-3.4,9.6-6.1,15.7-8.1c6.1-2,12.9-2.9,20.4-2.9c10,0,18.5,2.1,25.6,6.4
			c7.1,4.3,12.2,10.6,15.4,19.1c4.8-8,11-14.2,18.5-18.7c7.5-4.5,15.9-6.8,25.2-6.8c8.1,0,15.2,1.3,21.5,3.9
			c6.3,2.6,11.6,6.3,15.9,11.1s7.6,10.6,9.8,17.5c2.2,6.9,3.4,14.6,3.4,23.1v12h-90.6v3.5c0,7.1,0.8,13.8,2.5,20
			c1.7,6.2,4.3,11.7,7.8,16.3c3.5,4.6,8.1,8.3,13.5,11c5.5,2.7,12,4,19.7,4c4.5,0,8.6-0.4,12.4-1.2c3.8-0.8,7.3-1.9,10.5-3.2
			c3.2-1.3,6.1-2.8,8.7-4.5c2.6-1.7,5-3.4,7.2-5.3l5.6,10.4c-1.8,1.6-3.9,3.3-6.5,5.2c-2.6,1.9-5.6,3.6-9.2,5.1
			c-3.6,1.6-7.8,2.9-12.5,3.9C158.4,140.6,152.9,141.1,146.9,141.1z M50.3,129.1c4.1,0,8.2-0.6,12.1-1.7c4-1.1,7.6-2.6,11.1-4.4
			c3.4-1.8,6.5-3.8,9.2-6c2.7-2.2,4.8-4.4,6.3-6.6V74.6H58.4c-6.5,0-12.1,0.8-16.9,2.4c-4.8,1.6-8.8,3.8-12,6.5
			c-3.2,2.7-5.6,5.9-7.1,9.5c-1.6,3.6-2.3,7.3-2.3,11.3c0,3.8,0.6,7.2,1.9,10.2c1.3,3.1,3.2,5.7,5.7,7.9c2.5,2.2,5.6,3.9,9.4,5.1
			C40.9,128.5,45.3,129.1,50.3,129.1z M143.3,19c-5.7,0-10.8,1.1-15.4,3.4c-4.6,2.2-8.6,5.3-11.9,9.2c-3.4,3.9-6.1,8.5-8.1,13.8
			c-2.1,5.3-3.5,11.1-4.2,17.3h76v-3.7c0-5.5-0.7-10.7-2.2-15.5c-1.4-4.8-3.7-9.1-6.6-12.7c-3-3.6-6.8-6.5-11.4-8.6
			C154.9,20.1,149.5,19,143.3,19z"/>
	</g>
	<g id="Bodoni_Book_1_" style="opacity:0.25;">
		<path style="fill:var(--bs-body-color);" d="M197.6,102c-3.1,14.6-9.7,25.5-19.6,32.5c-9.9,7-21.8,10.5-35.6,10.5c-4.6,0-9.3-0.7-14.1-2
			c-4.8-1.4-9.4-3.2-13.8-5.6c-4.4-2.4-8.3-5.2-11.8-8.5c-3.4-3.2-6.1-6.6-8-10.2c-6.3,8.6-14.2,15.1-23.7,19.6
			c-9.5,4.5-18.4,6.7-26.5,6.7c-5,0-9.7-0.5-14.1-1.6c-4.4-1.1-8.3-2.8-11.6-5.2c-3.3-2.4-6-5.5-8-9.4c-2-3.9-3-8.7-3-14.6
			c0.4-14.6,7.6-25.9,21.6-33.7c14-7.8,33-11.8,57.1-11.8V39c0-3.8-0.7-6.8-2-9.3c-1.4-2.4-3.1-4.3-5.2-5.8
			c-2.1-1.5-4.5-2.5-7.2-3.1c-2.7-0.6-5.4-0.9-8.2-0.9c-1.7,0-4.1,0.2-7.4,0.5c-3.2,0.3-6.5,0.9-9.7,1.7c-3.2,0.8-6.1,2-8.5,3.5
			c-2.4,1.5-3.6,3.3-3.6,5.6c0,0.6,0.5,1.3,1.4,1.9c0.9,0.6,2,1.4,3.3,2.4c1.3,0.9,2.4,2.3,3.3,3.9c0.9,1.7,1.4,3.8,1.4,6.3
			c0,4-1.2,7.2-3.5,9.6c-2.3,2.4-5.4,3.6-9.4,3.6c-4.2,0-7.4-1.4-9.7-4.2c-2.3-2.8-3.5-6.4-3.5-10.8c0-2.7,0.9-5.9,2.7-9.4
			c1.8-3.6,4.6-6.8,8.5-9.9c3.9-3,9-5.6,15.4-7.7c6.4-2.1,14.3-3.1,23.7-3.1c2.7,0,5.7,0.1,8.9,0.3c3.2,0.2,6.5,0.8,9.9,1.7
			c3.3,0.9,6.5,2.4,9.6,4.2c3,1.9,5.7,4.4,8,7.5c6.7-5.2,12.7-8.9,17.9-11c5.2-2.1,11.5-3,18.8-2.8c7.9,0,15.4,1.3,22.3,3.9
			c6.9,2.6,12.9,6.3,17.9,11.1c5,4.8,9,10.7,11.9,17.6c2.9,6.9,4.4,14.6,4.4,23.2h-87.5v12.9c0,7.7,0.3,15.1,0.9,22
			c0.6,6.9,2.2,12.9,4.7,18c2.5,5.1,6.2,9.2,11.1,12.1c4.9,2.9,11.7,4.4,20.2,4.4c4.4,0,8.9-0.9,13.6-2.8c4.7-1.9,9-4.4,13-7.7
			c4-3.2,7.5-7.1,10.5-11.6c3-4.5,5.1-9.4,6.1-14.6H197.6z M86.6,75.4c-5,0-10.7,0.4-17.1,1.1c-6.4,0.7-12.4,2.3-18,4.5
			c-5.6,2.3-10.4,5.6-14.3,9.9c-3.9,4.3-5.8,10-5.8,17.1c0,7.7,2.2,13.8,6.6,18.2c4.4,4.4,10.2,6.6,17.6,6.6c5,0,9.4-0.7,13-2
			c3.7-1.4,7.4-3.7,11.1-7.1c1.3-1.3,2.7-3.1,4.4-5.5c1.7-2.4,2.5-7,2.5-13.6V75.4z M169.4,60.3V49.6c0-5.6-0.8-10.4-2.4-14.1
			c-1.6-3.8-3.7-6.8-6.3-9.3c-2.6-2.4-5.6-4.1-9.1-5c-3.4-0.9-7.2-1.4-11.1-1.4c-4.8,0-8.8,0.9-12.1,2.8c-3.2,1.9-5.9,4-8,6.4
			c-2.1,2.4-3.6,4.7-4.5,6.7c-0.9,2.1-1.5,3.3-1.7,3.8c-1,2.9-1.8,6.1-2.2,9.6c-0.4,3.5-0.7,7.2-0.9,11.1H169.4z"/>
	</g>
</g>
</svg>
