<?xml version="1.0" encoding="utf-8"?>
<!-- Generator: Adobe Illustrator 27.4.0, SVG Export Plug-In . SVG Version: 6.00 Build 0)  -->
<svg version="1.1" id="Layer_1" xmlns="http://www.w3.org/2000/svg" xmlns:xlink="http://www.w3.org/1999/xlink" x="0px" y="0px"
	 viewBox="0 0 550.2 154.9" style="enable-background:new 0 0 550.2 154.9;" xml:space="preserve">
<path style="fill:#ED6D0B;" d="M36,123.9c7.8,9.9,16.9,18.7,27,26.2c10.2-7.5,19.2-16.4,27-26.2L63,97.6L36,123.9z"/>
<path style="fill:#ED6D0B;" d="M23.4,105.1l39.6-38l39.7,38.2c6.7-11.9,11.7-24.9,14.6-38.3c0.2-0.6,0.3-1.3,0.4-2H8.3
	C11.3,79.1,16.4,92.5,23.4,105.1z"/>
<path style="fill:#ED6D0B;" d="M23.4,105.1c3.7,6.6,7.9,12.9,12.7,18.9l27-26.2l27,26.3c4.7-5.9,8.9-12.2,12.6-18.8L62.9,67.1
	L23.4,105.1z"/>
<path d="M63,96.9l-27,26.2c-4.5-5.7-8.4-11.7-12-18l39-37.5l39.1,37.6c-3.5,6.3-7.5,12.3-12,18L63,96.9z"/>
<path d="M63,68.5l38.4,36.9c-3.4,5.9-7.2,11.7-11.4,17.1L63.8,96.9L63,96.2l-0.7,0.7l-26.1,25.4c-4.2-5.4-8.1-11.1-11.4-17.1
	L63,68.5 M63,67l-39.6,38c3.7,6.6,7.9,12.9,12.7,18.9l27-26.2l27,26.3c4.7-5.9,8.9-12.2,12.6-18.8L63,67L63,67z"/>
<path d="M120.3,24.4c-4.8,1.4-9.7,2.2-14.7,2.2C88.2,26.7,72.1,17.7,63,2.9C54,17.7,37.9,26.7,20.5,26.6c-4.9,0-10-0.7-14.7-2.2
	C4.6,38,5.4,51.7,8.2,65h109.4C120.6,51.7,121.4,38,120.3,24.4z"/>
<path style="fill:#FFFFFF;" d="M90.1,41.1v-4.7h-2.9v-3.3l-3-0.8H84v-2.8c0,0-1,1.3-5.7,1.3c-4.5,0-7.1-1.4-10.6-1.4
	c-1.7-0.2-3.4,0.5-4.5,2v1.2H63v-1.2c-1.1-1.4-2.7-2.2-4.5-2c-3.6,0-6.2,1.4-10.6,1.4c-4.7,0-5.6-1.3-5.6-1.3v3h-0.2L39,33.2v3.3
	h-2.9v4.7H39v7.5h-2.9v4.7H39v5.7c3.1,0.4,6.1,0.7,9.3,0.7c5.2,0,8.3-0.7,11.7-0.8v1.4c1,0.4,2.1,0.7,3.2,0.7c1.2,0,2.2-0.3,3.3-0.7
	v-1.4c3.4,0.1,6.4,0.8,11.7,0.8c3.1-0.1,6.1-0.3,9.2-0.7v-5.7h2.9v-4.7h-2.9v-7.5L90.1,41.1L90.1,41.1z"/>
<path d="M84.4,32.1v-3.6l-0.9,0.9c0,0-1.1,1.1-5.4,1.1l-5.8-0.8L67.5,29c-1.7-0.1-3.3,0.5-4.5,1.7c-1.2-1.3-2.9-1.9-4.5-1.7
	l-4.8,0.7l-5.8,0.8c-4.2,0-5.1-1-5.1-1l-0.9-1.1v1.3v2.4L38.4,33v26.8l0.4,0.1c3.1,0.4,6.2,0.7,9.3,0.7c3.8-0.1,7.5-0.4,11.1-0.8V61
	l0.3,0.2c1.1,0.4,2.2,0.7,3.4,0.7c1.2,0,2.4-0.3,3.5-0.7l0.3-0.2v-1.3c3.7,0.4,7.5,0.7,11.1,0.8c3.1-0.1,6.2-0.3,9.3-0.7l0.4-0.1
	V33.1L84.4,32.1z M63.6,31.8c1-1.3,2.5-1.9,4-1.7l4.6,0.6l6,0.8c1.8,0.1,3.6-0.2,5.3-0.9V56c-1.7,0.5-3.5,0.8-5.3,0.8L72.4,56
	l-4.8-0.6c-1.4-0.1-2.9,0.4-4,1.3L63.6,31.8z M42.8,30.7c1.6,0.6,3.3,0.9,5,0.8l6-0.8l4.6-0.6c1.5-0.2,3.1,0.4,4,1.7v24.8
	c-1.2-0.9-2.6-1.3-4-1.3l-4.8,0.7l-5.8,0.8c-4.2,0-5.1-1-5.1-1C42.7,55.7,42.8,32.4,42.8,30.7L42.8,30.7z M86.7,58.8
	c-2.9,0.4-5.7,0.6-8.7,0.7c-3.9-0.1-7.7-0.4-11.6-0.8l-0.5-0.1v1.7c-0.9,0.4-1.9,0.5-2.8,0.5c-0.9,0-1.8-0.2-2.7-0.5v-1.7l-0.5,0.1
	c-3.9,0.4-7.7,0.7-11.6,0.8c-2.9,0-5.8-0.3-8.7-0.7V33.8c0.4-0.1,1.8-0.4,2.5-0.5V56c0.3,0.5,1.3,1.7,6,1.7l6-0.8l4.6-0.6
	c1.5-0.2,3.1,0.4,4,1.7l0.2-0.1h0.7l0.2,0.1c1-1.3,2.5-1.9,4-1.7l4.6,0.6l6,0.8c4.9,0,6-1.3,6.1-1.4l0.1-23.2
	c0.6,0.2,1.8,0.5,2.2,0.6L86.7,58.8L86.7,58.8z"/>
<path d="M49.8,35.1c-0.4,0-0.6,0.2-0.7,0.5l-1.6,3.5l-0.1,0.1c-0.1,0-0.1-0.1-0.2-0.2c-0.1-0.1-0.3-0.6-0.6-1.6l-0.5-1.2
	c-0.2-0.4-0.4-0.7-0.4-0.8c-0.2-0.3-0.4-0.4-0.6-0.4V35V35h0.3c0.3,0,0.5,0,0.8,0s0.7,0,1,0h0.2V35v0.1c-0.2,0-0.6,0-0.6,0.3
	c0,0.1,0,0.2,0,0.3l1.1,2.5l0.9-2.1c0.1-0.2,0.1-0.4,0.1-0.5c0-0.3-0.2-0.4-0.6-0.4v-0.1V35h0.1c0.2,0,0.4,0,0.8,0
	c0.1,0,0.4,0,0.5,0L49.8,35.1L49.8,35.1C49.9,35.1,49.9,35.1,49.8,35.1z"/>
<path d="M54.3,39.2c-1.3,0-2,0-2.2,0c-0.2,0-0.4,0-0.6,0s-0.5,0-1,0h-0.3v-0.1V39c0.2,0,0.4-0.1,0.6-0.2c0.1-0.2,0.2-0.4,0.2-0.6
	c0-0.2,0-0.4,0-0.6c0-0.4,0-0.7,0-1.2v-0.6c0-0.4-0.3-0.4-0.7-0.5v-0.1V35h0.3c0.2,0,0.5,0,1.3,0c0.7,0,1.4,0,1.6,0
	c0.1,0,0.4,0,0.4,0s0.2,0,0.2,0.1l0.1,1c-0.1,0-0.1,0-0.1,0h-0.1c-0.2-0.3-0.4-0.5-0.6-0.7c-0.1-0.1-0.3-0.1-0.4-0.1
	c-0.1,0-0.2,0-0.5,0c-0.3,0-0.4,0-0.4,0s0,0-0.1,0.2c0,0.1,0,0.3,0,0.8v0.5h0.2c0.2,0,0.4,0,0.4-0.1c0.2-0.1,0.4-0.2,0.4-0.3
	c0-0.1,0.1-0.3,0.1-0.4c0,0,0.1,0,0.2,0h0.1c0,0.2,0,0.5,0,0.9c0,0.2,0,0.6,0,0.8h-0.1h-0.1c0-0.4-0.1-0.6-0.4-0.7
	C52.8,37,52.7,37,52.5,37c-0.1,0-0.2,0-0.3,0v1.1c0,0.2,0,0.4,0.1,0.5c0.1,0.1,0.2,0.2,0.3,0.3c0.1,0,0.3,0,0.4,0h0.6
	c0.2,0,0.3,0,0.4-0.1c0.3-0.3,0.5-0.5,0.6-0.9h0.1h0.1V39C54.5,39.1,54.5,39.2,54.3,39.2z"/>
<path d="M59.3,36.3L59.3,36.3c-0.2-0.2-0.3-0.4-0.4-0.6c-0.2-0.3-0.4-0.4-0.8-0.4c-0.1,0-0.4,0-0.4,0v1.9c0,0.3,0,0.6,0,1.3
	c0,0.4,0.2,0.4,0.7,0.5V39v0.1h-0.2c-0.3,0-0.9,0-1.1,0c-0.1,0-0.8,0-1.1,0V39v-0.1c0.6-0.1,0.7-0.2,0.7-0.4c0-0.2,0-0.7,0-1.3v-1.5
	c0-0.2,0-0.4,0-0.5c-0.2,0-0.4,0-0.6,0.1c-0.4,0.2-0.7,0.5-0.8,0.9h-0.1h-0.1v-1.1c0-0.1,0-0.1,0.1-0.1c0.1,0,0.3,0,0.4,0
	s0.7,0,1.5,0c1,0,1.8,0,2,0c0.1,0,0.2,0,0.2,0c0,0.1,0,0.1,0,0.2L59.3,36.3C59.4,36.2,59.4,36.3,59.3,36.3z"/>
<path d="M49.6,42.9L49.6,42.9c-0.2-0.2-0.3-0.4-0.4-0.6c-0.2-0.3-0.4-0.4-0.8-0.4c-0.1,0-0.4,0-0.4,0v1.9c0,0.3,0,0.6,0,1.3
	c0,0.4,0.3,0.4,0.7,0.5v0.1v0.1h-0.2c-0.3,0-0.9,0-1.1,0c-0.1,0-0.8,0-1.1,0v-0.1v-0.1c0.6-0.1,0.7-0.2,0.8-0.4c0-0.2,0-0.7,0-1.3
	v-1.5c0-0.2,0-0.4,0-0.5c-0.2,0-0.4,0-0.6,0.1c-0.4,0.2-0.7,0.5-0.8,0.9h-0.1h-0.1v-1.2c0-0.1,0-0.1,0.1-0.1c0.1,0,0.3,0,0.4,0
	s0.8,0,1.5,0c1,0,1.8,0,2,0c0.1,0,0.2,0,0.2,0s0,0.1,0,0.2L49.6,42.9C49.7,42.8,49.7,42.9,49.6,42.9z"/>
<path d="M54.5,45.7c-1.3,0-2,0-2.2,0c-0.2,0-0.4,0-0.6,0c-0.2,0-0.5,0-1,0h-0.3v-0.1c0-0.1,0-0.1,0-0.2c0.2,0,0.4-0.1,0.6-0.2
	c0.1-0.1,0.1-0.3,0.2-0.6c0-0.2,0-0.4,0-0.6c0-0.4,0-0.7,0-1.2c0-0.4,0-0.5,0-0.6c0-0.4-0.2-0.4-0.7-0.5v-0.1c0,0,0-0.1,0.1-0.1h0.2
	c0.2,0,0.5,0,1.3,0c0.7,0,1.4,0,1.6,0h0.4c0.1,0,0.2,0,0.2,0.1l0.1,1h-0.1h-0.1c-0.2-0.3-0.4-0.5-0.6-0.7c-0.1-0.1-0.3-0.1-0.4-0.1
	c-0.1,0-0.2,0-0.5,0c-0.3,0-0.4,0-0.4,0s-0.1,0-0.1,0.2c0,0.1,0,0.3,0,0.8v0.5h0.2c0.2,0,0.4,0,0.4-0.1c0.2-0.1,0.4-0.2,0.4-0.3
	c0-0.1,0.1-0.3,0.1-0.4c0,0,0.1,0,0.2,0h0.1c0,0.2-0.1,0.5-0.1,0.9c0,0.2,0,0.6,0,0.8h-0.1h-0.1c0-0.4-0.1-0.6-0.4-0.7
	c-0.2-0.1-0.3-0.1-0.4-0.1c-0.1,0-0.2,0-0.3,0v1.1c0,0.2,0,0.4,0.1,0.5c0,0.1,0.2,0.2,0.3,0.3c0.1,0,0.3,0,0.4,0h0.6
	c0.2,0,0.3,0,0.4-0.1c0.3-0.3,0.5-0.5,0.7-0.9h0.1H55v1.1C54.7,45.7,54.6,45.7,54.5,45.7z"/>
<path d="M57.4,45.8c-0.4,0-0.6-0.1-1-0.3c-0.1,0-0.1,0-0.2,0c-0.1,0-0.2,0.1-0.3,0.2c-0.1,0-0.2,0-0.3-0.1c0-0.1,0.1-0.4,0.1-0.5
	c0-0.1,0-0.5,0-0.7c0-0.1,0.1-0.1,0.2-0.1H56c0.1,0.3,0.3,0.5,0.4,0.8c0.3,0.3,0.5,0.4,0.9,0.4c0.3,0,0.4-0.1,0.7-0.2
	c0.2-0.1,0.3-0.3,0.3-0.5c0-0.2,0-0.3-0.1-0.4c-0.1-0.2-0.3-0.3-0.4-0.3c-0.2-0.1-0.8-0.3-1.1-0.4c-0.2-0.1-0.4-0.3-0.5-0.4
	c-0.2-0.2-0.3-0.4-0.3-0.8c0-0.6,0.5-1.2,1.3-1.2h0.1c0.4,0,0.7,0.1,1,0.3c0.1-0.1,0.2-0.2,0.3-0.3c0.1,0,0.2,0,0.2,0.1
	c0,0.2-0.1,0.4-0.1,0.5c0,0.1,0.1,0.5,0.1,0.6c-0.1,0-0.1,0.1-0.2,0.1h-0.1c-0.1-0.2-0.2-0.5-0.4-0.7c-0.2-0.3-0.5-0.4-0.8-0.4
	c-0.4,0-0.7,0.3-0.7,0.6l0,0c0,0.4,0.3,0.5,0.5,0.6c0.2,0.1,0.4,0.2,0.6,0.2c0.3,0.1,0.4,0.2,0.6,0.3c0.4,0.2,0.7,0.6,0.7,1.1
	C58.8,45.3,58.2,45.8,57.4,45.8C57.5,45.8,57.5,45.8,57.4,45.8z"/>
<path d="M51.4,52.3c-1.3,0-2,0-2.2,0c-0.2,0-0.4,0-0.6,0c-0.2,0-0.5,0-1,0h-0.3v-0.1v-0.1c0.2,0,0.4-0.1,0.6-0.2
	c0.1-0.2,0.2-0.4,0.2-0.6s0-0.4,0-0.6c0-0.4,0-0.7,0-1.2v-0.6c0-0.4-0.3-0.4-0.7-0.5v-0.1v-0.1h0.3c0.2,0,0.5,0,1.3,0
	c0.7,0,1.4,0,1.6,0c0.1,0,0.4,0,0.4,0c0.1,0,0.2,0,0.2,0.1l0.1,1c-0.1,0-0.1,0-0.1,0h-0.1c-0.2-0.3-0.4-0.5-0.6-0.7
	c-0.1-0.1-0.3-0.1-0.4-0.1c-0.1,0-0.2,0-0.5,0c-0.3,0-0.4,0-0.4,0s0,0-0.1,0.2c0,0.1,0,0.3,0,0.8V50h0.2c0.2,0,0.4,0,0.4-0.1
	c0.2-0.1,0.4-0.2,0.4-0.3c0-0.1,0.1-0.3,0.1-0.4c0,0,0.1,0,0.2,0h0.1c0,0.2,0,0.5,0,0.9c0,0.2,0,0.6,0,0.8h-0.1h-0.1
	c0-0.4-0.1-0.6-0.4-0.7c-0.2-0.1-0.3-0.1-0.4-0.1c-0.1,0-0.2,0-0.3,0v1.1c0,0.2,0,0.4,0.1,0.5c0.1,0.1,0.2,0.2,0.3,0.3
	c0.1,0,0.3,0,0.4,0h0.6c0.2,0,0.3,0,0.4-0.1c0.3-0.3,0.5-0.5,0.6-0.9c0.1,0,0.2,0,0.3,0v1.1C51.5,52.3,51.5,52.3,51.4,52.3z"/>
<path d="M57.5,48.3c-0.4,0-0.8,0.3-0.8,0.9v2.2c0,0.1,0,0.7,0,0.9c-0.1,0-0.1,0.1-0.2,0.1c0,0-0.1,0-0.1-0.1l-3-3.1v0.6v1.2
	c0,0.1,0,0.3,0,0.4c0,0.2,0.1,0.4,0.2,0.4c0.2,0.1,0.4,0.2,0.5,0.2v0.1v0.1h-0.4c-0.3,0-0.4,0-0.8,0c-0.2,0-0.4,0-0.6,0h-0.2v-0.1
	V52c0.3,0,0.4-0.1,0.6-0.3c0.1-0.2,0.1-0.4,0.1-0.5v-1.5c0-0.3,0-0.4,0-0.6c0-0.2-0.1-0.4-0.2-0.4c-0.1-0.1-0.1-0.2-0.2-0.2
	c-0.2-0.1-0.3-0.2-0.4-0.2v-0.1v-0.1h0.1c0.1,0,0.5,0,0.9,0h0.2c0.1,0,0.1,0.1,0.1,0.1l2.2,2.4c0.2,0.2,0.4,0.4,0.5,0.5v-1.7
	c0-0.3,0-0.4,0-0.4c0-0.2-0.1-0.3-0.1-0.4c-0.1-0.1-0.4-0.2-0.7-0.2v-0.1v-0.1h0.1c0.2,0,0.5,0,0.7,0c0.5,0,0.6,0,0.9,0h0.2v0.1
	C57.5,48.2,57.5,48.2,57.5,48.3z"/>
<path d="M71.3,35.1c-0.4,0-0.8,0.3-0.8,0.9v2.2c0,0.1,0,0.7,0,0.9c-0.1,0-0.1,0.1-0.2,0.1c0,0-0.1,0-0.1-0.1l-3-3.1v0.6v1.2
	c0,0.1,0,0.3,0,0.4s0.1,0.4,0.2,0.4c0.2,0.1,0.4,0.2,0.5,0.2v0.1V39h-0.2c-0.3,0-0.4,0-0.8,0c-0.2,0-0.4,0-0.6,0h-0.2v-0.1v-0.1
	c0.3,0,0.4-0.1,0.6-0.3c0.1-0.2,0.1-0.4,0.1-0.5v-1.5c0-0.3,0-0.4,0-0.6c0-0.2-0.1-0.4-0.2-0.4s-0.1-0.2-0.2-0.2
	c-0.2-0.1-0.3-0.2-0.4-0.2V35v-0.1h0.1c0.1,0,0.5,0,0.9,0h0.2c0.1,0,0.1,0.1,0.2,0.1l2.2,2.4c0.2,0.2,0.4,0.4,0.5,0.5v-1.7
	c0-0.2,0-0.4,0-0.4c0-0.2-0.1-0.3-0.1-0.4c-0.1-0.1-0.4-0.2-0.7-0.2V35V35h0.1c0.2,0,0.5,0,0.7,0c0.5,0,0.6,0,0.9,0h0.2L71.3,35.1
	C71.3,35,71.3,35.1,71.3,35.1z"/>
<path d="M75.7,38.6c-0.8,0.8-2.2,0.8-3,0l0,0c-0.8-0.9-0.8-2.2,0-3.1c0.4-0.4,0.9-0.6,1.4-0.6c0.4,0,0.8,0.1,1.1,0.3
	c0.6,0.4,1,1.1,1,1.9C76.3,37.6,76.1,38.2,75.7,38.6z M75,35.5c-0.2-0.3-0.5-0.4-0.8-0.4c-0.4,0-0.6,0.2-0.8,0.4
	c-0.3,0.4-0.4,1-0.4,1.5c0,0.5,0.1,1,0.4,1.4c0.2,0.3,0.4,0.4,0.8,0.4s0.7-0.2,0.9-0.5c0.2-0.4,0.3-0.9,0.3-1.3
	C75.4,36.5,75.3,35.9,75,35.5z"/>
<path d="M81.6,35.1c-0.4,0-0.6,0.2-0.7,0.5l-1.6,3.5l-0.1,0.1c-0.1,0-0.1-0.1-0.2-0.2c-0.1-0.1-0.3-0.6-0.6-1.6l-0.5-1.2
	c-0.2-0.4-0.4-0.7-0.4-0.8c-0.2-0.3-0.4-0.4-0.6-0.4V35V35h0.3c0.3,0,0.5,0,0.8,0c0.3,0,0.7,0,1,0h0.2l0.1,0.1v0.1
	c-0.2,0-0.6,0-0.6,0.3c0,0.1,0,0.2,0,0.3l1.1,2.5l0.9-2.1c0.1-0.2,0.1-0.4,0.1-0.5c0-0.3-0.2-0.4-0.6-0.4v-0.1V35h0.1
	c0.2,0,0.4,0,0.8,0c0.1,0,0.4,0,0.5,0L81.6,35.1C81.7,35,81.7,35.1,81.6,35.1L81.6,35.1z"/>
<path d="M69.9,42.9L69.9,42.9c-0.2-0.2-0.3-0.4-0.4-0.6c-0.2-0.3-0.4-0.4-0.8-0.4c-0.1,0-0.4,0-0.4,0v1.9c0,0.3,0,0.6,0,1.3
	c0,0.4,0.3,0.4,0.7,0.5v0.1v0.1h-0.2c-0.3,0-0.9,0-1.1,0c-0.1,0-0.8,0-1.1,0v-0.1v-0.1c0.6-0.1,0.7-0.2,0.8-0.4c0-0.2,0-0.7,0-1.3
	v-1.5c0-0.2,0-0.4,0-0.5c-0.2,0-0.4,0-0.6,0.1c-0.4,0.2-0.7,0.5-0.8,0.9H66h-0.1v-1.2c0-0.1,0-0.1,0.1-0.1c0.1,0,0.3,0,0.4,0
	c0.2,0,0.8,0,1.5,0c1,0,1.8,0,2,0c0.1,0,0.2,0,0.2,0s0,0.1,0,0.2L69.9,42.9C70,42.8,69.9,42.9,69.9,42.9z"/>
<path d="M75,45.7h-0.4c-0.2,0-0.4,0-0.7,0c-0.4,0-0.9,0-1.1,0v-0.1v-0.1c0.4,0,0.5-0.1,0.5-0.3c0-0.2-0.1-0.4-0.1-0.5
	c-0.1-0.3-0.2-0.4-0.2-0.5c0,0,0-0.1-0.1-0.1h-1.3c-0.2,0.3-0.3,0.5-0.3,0.8c0,0.1,0,0.2,0,0.3c0,0.2,0.1,0.3,0.6,0.3v0.1v0.1h-0.1
	c-0.3,0-0.4,0-0.7,0c-0.2,0-0.7,0-0.9,0v-0.1v-0.1c0.3,0,0.4-0.1,0.6-0.3c0.2-0.4,0.4-0.7,0.5-1.1c0.3-0.5,0.5-1.3,0.6-1.5
	c0.2-0.4,0.3-0.4,0.3-0.6c0.1-0.2,0.2-0.4,0.2-0.4s0.1-0.1,0.2-0.1c0.1,0,0.2,0,0.2,0.1s0.1,0.1,0.1,0.2c0.3,0.5,0.4,1.1,0.7,1.8
	c0.2,0.4,0.3,0.6,0.4,1c0.1,0.3,0.2,0.4,0.3,0.6c0.2,0.4,0.4,0.4,0.6,0.4v0.1C75,45.6,75,45.6,75,45.7z M72.3,42.4L72.3,42.4
	c-0.1,0.2-0.3,0.5-0.3,0.7c-0.2,0.5-0.3,0.7-0.4,0.8h1.3C72.8,43.6,72.5,42.9,72.3,42.4z"/>
<path d="M81.4,45.7h-1.7h-0.4v-0.1v-0.1c0.2,0,0.3,0,0.4,0c0.2-0.1,0.3-0.3,0.3-0.5V42l0,0l-0.9,2c-0.1,0.2-0.2,0.4-0.3,0.7
	c-0.2,0.3-0.3,0.6-0.4,1c0,0.1-0.1,0.1-0.2,0.1c-0.1,0-0.1,0-0.1-0.1c-0.1-0.3-0.2-0.4-0.3-0.5L76.5,42l0,0v0.8v2
	c0,0.6,0.3,0.9,0.8,0.9v0.1v0.1c0,0-0.1,0-0.2,0c-0.1,0-0.4,0-0.8,0c-0.1,0-0.4,0-0.6,0h-0.3v-0.1v-0.1c0.2,0,0.4-0.1,0.6-0.2
	c0.1-0.1,0.2-0.3,0.2-0.7v-2.2c0-0.4-0.1-0.4-0.2-0.6C75.9,42,75.7,42,75.5,42v-0.1v-0.1c0.2,0,0.4,0,0.7,0h1l0.1,0.1l1.3,2.9
	l0.2-0.5c0.2-0.4,0.4-1.2,0.9-1.9c0.1-0.2,0.2-0.4,0.3-0.4h1.6V42V42c-0.2,0-0.4,0-0.6,0.3c-0.1,0.1-0.1,0.2-0.1,0.5v2.1
	c0,0.8,0.2,0.9,0.3,0.9c0.2,0,0.3,0.1,0.4,0.1V46C81.4,45.6,81.4,45.6,81.4,45.7z"/>
<path d="M69.9,49.4L69.9,49.4c-0.2-0.2-0.3-0.4-0.4-0.6c-0.2-0.3-0.4-0.4-0.8-0.4c-0.1,0-0.4,0-0.4,0v1.9c0,0.3,0,0.6,0,1.3
	c0,0.4,0.3,0.4,0.7,0.5v0.1v0.1h-0.2c-0.3,0-0.9,0-1.1,0c-0.1,0-0.8,0-1.1,0v-0.1V52c0.6-0.1,0.7-0.2,0.8-0.4c0-0.2,0-0.7,0-1.3
	v-1.5c0-0.2,0-0.4,0-0.5c-0.2,0-0.4,0-0.6,0.1c-0.4,0.2-0.7,0.5-0.8,0.9h-0.1h-0.1v-1.1c0-0.1,0-0.1,0.1-0.1c0.1,0,0.3,0,0.4,0
	s0.8,0,1.5,0c1,0,1.8,0,2,0c0.1,0,0.2,0,0.2,0s0,0.1,0,0.2L69.9,49.4C69.9,49.4,69.9,49.4,69.9,49.4z"/>
<path d="M75.1,48.3c-0.4,0-0.6,0.2-0.7,0.5l-1.6,3.5l-0.1,0.1c-0.1,0-0.1-0.1-0.2-0.2c0-0.1-0.3-0.6-0.6-1.6l-0.5-1.2
	c-0.2-0.4-0.4-0.7-0.4-0.8c-0.2-0.3-0.4-0.4-0.6-0.4v-0.1v-0.1h0.2c0.3,0,0.5,0,0.8,0s0.7,0,1,0h0.2l0.1,0.1v0.1
	c-0.2,0-0.6,0-0.6,0.3c0,0.1,0,0.2,0,0.3l1.1,2.5l0.9-2.1C74,49.1,74,49,74,48.8c0-0.3-0.2-0.4-0.6-0.4v-0.1v-0.1h0.1
	c0.2,0,0.4,0,0.8,0c0.1,0,0.4,0,0.5,0L75.1,48.3C75.1,48.2,75.1,48.2,75.1,48.3L75.1,48.3z"/>
<path d="M81.5,52.3h-1.7h-0.4v-0.1v-0.1c0.2,0,0.3,0,0.4,0c0.2-0.1,0.3-0.3,0.3-0.5v-2.4c0,0,0-0.4,0-0.5l0,0l-0.9,2
	c-0.1,0.2-0.2,0.4-0.4,0.7c-0.2,0.4-0.3,0.8-0.4,1c0,0.1-0.1,0.1-0.2,0.1c-0.1,0-0.1,0-0.1-0.1C78.1,52,78,51.8,78,51.8l-1.4-3.1
	l0,0v0.8v2c0,0.6,0.3,0.9,0.8,0.9v0.1v0.1c0,0-0.1,0-0.2,0s-0.4,0-0.8,0c-0.2,0-0.4,0-0.6,0h-0.3v-0.1v-0.1c0.2,0,0.4-0.1,0.6-0.2
	c0.1-0.2,0.2-0.4,0.2-0.7v-1v-1.2c0-0.4,0-0.4-0.2-0.6c-0.2-0.1-0.4-0.1-0.5-0.1v-0.1v-0.1c0.2,0,0.4,0,0.7,0h1l0.1,0.1l1.3,2.9
	l0.3-0.5c0.3-0.6,0.5-1.3,0.9-1.9c0.1-0.2,0.2-0.4,0.3-0.4h1.6l0.1,0.1v0.1c-0.2,0-0.4,0-0.6,0.3c-0.1,0.1-0.1,0.2-0.1,0.5v2.1
	c0,0.8,0.2,0.9,0.3,0.9s0.3,0.1,0.4,0.1v0.1C81.5,52.2,81.5,52.3,81.5,52.3z"/>
<path style="fill:var(--bs-body-color);"  d="M543.5,27c0-0.3-0.1-0.5-0.2-0.7h-1.2c-2.7,0-4.4,0.1-9.3,0.1c-1.7,0-4.1-0.1-4.8-0.1h-1.4c-0.2,0.1-0.2,0.7-0.2,0.9
	c0,0.4,0.1,0.6,0.3,0.9c1.9,0.3,3.8,0.8,5.6,1.5c1,1.7,1.6,3.6,1.6,5.6c0.1,0.8,0.1,1.6,0.1,3.9v11.3c0,0.8,0,1.5-0.1,2.3
	c-0.9-1-2.2-3-4.4-5.4l-18.1-20c-0.3-0.3-0.5-0.5-0.8-0.7c-0.4,0-1.2-0.1-1.6-0.1c-3.5,0-9.8-0.2-10.7-0.2c-0.1,0.3-0.2,0.4-0.2,0.7
	c0,0.4,0.1,0.7,0.2,1.1c1.5,0.3,3,1,4,2.1c1.1,1,2.1,2.2,2.9,3.4c0.2,0.5,0.3,1.2,0.2,1.7c0,2.8-0.2,6.7-0.2,10.6V57
	c0,1.3-0.1,2.8-0.4,4.1c-1.6,1.4-3.6,2.4-5.7,2.8c-0.1,0.3-0.2,0.6-0.2,1c0,0.2,0.1,0.7,0.2,0.7h1c1.1,0,3.6-0.2,5.2-0.2
	c2.4,0,4,0.2,6.2,0.2h3.2c0.2-0.1,0.3-0.7,0.3-0.9c0-0.3-0.1-0.6-0.2-0.9c-2.5-0.3-4.9-1.5-6.5-3.3c-0.4-2.2-0.7-4.5-0.7-6.7
	c0-1.7-0.1-4.1-0.1-7.3c0-4.3,0.1-8,0.1-9.9c0.4,0.4,0.7,0.9,1,1.2l25.1,28.1c0.4,0.3,1,0.4,1.5,0.4c0.2,0,0.4,0,0.6-0.1
	c0.4-0.8,0.4-1.6,0.4-2.4c0-1.5-0.1-3.2-0.1-4V37c0-6.7,3.2-8.7,6.9-8.8C543.5,27.8,543.5,27.4,543.5,27 M481.4,44.3
	c0,8.2-2.2,15.4-5.4,18c-1.6,1.3-3.7,2-5.7,2c-2.9,0.2-5.7-1.3-7.2-3.6c-2.2-4.3-3.3-9.2-3.2-14.1c0-7.5,2-13.5,5.4-16.4
	c1.5-1.3,3.6-2.1,5.7-2.1c2.9,0,5.7,1.3,7.4,3.8C480.4,34.6,481.4,38.7,481.4,44.3 M491.2,45.4c0.3-7-3.4-13.6-9.6-16.9
	c-3.1-1.8-6.6-2.8-10.3-2.8c-7.4,0.1-14.3,3.9-18.2,10.1c-2.1,3.3-3.1,7.1-3.1,11c0,6.2,2.9,12,7.7,15.9c3.6,2.6,7.9,4,12.4,3.9
	c2.8,0,5.6-0.5,8.3-1.5c2.9-1.1,5.5-2.9,7.5-5.1C489.4,55.9,491.3,50.7,491.2,45.4 M443.6,38.5V27.5c0-0.8-0.4-1-1.2-1
	c-1.6,0-10.2,0.2-18.9,0.2c-6.7,0-12.3-0.1-15.4-0.1h-4c-0.7,0-0.9,0.2-0.9,0.9v10.3c0.3,0.2,0.5,0.3,0.9,0.2c0.4,0,0.8,0,1.2-0.1
	c2.4-4.9,4.7-7.5,7.5-9.1c1.6-0.2,4.9-0.2,5.7-0.2c0.1,0.6,0.1,2.5,0.2,4.8c0.1,3.9,0.1,5.6,0.1,14.8c0,8-0.1,11.6-0.2,12.4
	c-0.2,1.5,0.1,2.7-6.5,3c-0.2,0.4-0.2,0.8-0.2,1.3c0,0.3,0,0.5,0.1,0.9h2.1c2,0,6.7-0.2,8.7-0.2c1.5,0,6.6,0.2,9.9,0.2h1.5
	c0.2-0.4,0.2-0.7,0.2-1.2c0-0.4-0.1-0.7-0.2-1c-1.9,0.2-3.9-0.2-5.6-1c-0.4-1.3-0.5-2.7-0.4-4c-0.1-5.8-0.1-8.1-0.1-11.9
	c0-5,0.1-8.4,0.1-17.8c0.7,0,2.5-0.1,4.1,0c2.6,0.5,4.9,2,6.5,4.1c1.2,1.9,2.2,3.9,2.9,5.9c0.3,0.1,0.6,0.1,0.9,0.1
	C442.9,38.7,443.2,38.6,443.6,38.5 M396.9,56.2c0-0.5,0-1.1-0.1-1.5c-0.3-0.2-0.5-0.2-0.8-0.2c-0.4,0-0.8,0-1.2,0.1
	c-1.3,3.2-3.3,6-5.9,8.3c-1.3,0.5-2.7,0.7-4,0.6h-4.4c-1.2,0-2.4-0.1-3.6-0.3c-0.8-0.2-1.7-1.4-2.1-2.3c-0.5-1.1-0.7-2.2-0.6-3.4
	V45.6h2c1.2,0,2.2,0.3,3.3,0.7c1.1,0.4,1.9,1.3,2.4,2.2c0.4,1.4,0.8,3,0.9,4.5c0.4,0.2,0.9,0.3,1.4,0.2c0.4,0,0.7-0.1,1.1-0.3
	c0-1.4-0.4-5.4-0.4-7.5c0-2.7,0.4-6.5,0.5-8.4c-0.4-0.2-0.7-0.3-1.1-0.2c-0.4,0-1,0-1.4,0.2c-0.2,0.7-0.7,3.1-0.9,3.2
	c-0.8,1.3-2.2,2.3-3.7,2.8c-1,0.3-2.1,0.4-3.1,0.4h-1.1v-5c0-5.2,0.1-6.9,0.2-7.9c0.1-0.6,0.2-1.3,0.2-1.9c1.1-0.1,2.2-0.2,3.2-0.1
	c3.1,0,4.6,0.1,5.1,0.1c1.3,0,2.4,0.4,3.5,1.1c2.2,1.9,3.9,4.1,5.2,6.7c0.4,0.1,0.7,0.1,1.2,0.1c0.4,0,0.4-0.1,0.8-0.4
	c0-3.3-0.2-7.5-0.4-9c-0.1-0.5-0.2-0.7-1.3-0.7c-0.4,0-2.5-0.1-4.7-0.1c-3.1,0-4.3,0.1-9.1,0.1c-2.5,0-7.8,0.1-10.1,0.1
	c-3.2,0-6-0.1-7.5-0.1h-1.8c-0.2,0.3-0.3,0.5-0.3,0.9c0,0.4,0.1,0.7,0.3,1.1c1.3,0.1,2.7,0.3,4,0.6c1.2,0.8,1.9,2.1,2,3.5
	c0.1,1.2,0.2,4.3,0.2,6.7v11.1c0,2.2-0.1,5.6-0.1,6.9c-0.1,1.8-0.5,3.5-1.2,5.1c-1.5,0.5-3.2,0.8-4.9,0.8c-0.2,0.4-0.3,0.8-0.3,1.2
	s0.1,0.7,0.3,1h1.8c1.7,0,8.2-0.2,9.6-0.2c1.3,0,4,0.1,7.1,0.1c1.7,0,6.8,0.4,17.8,0.4c0.4,0,1,0,1.4-0.1c0.2-0.3,0.3-0.5,0.2-0.9
	C396.9,63.7,396.9,60.6,396.9,56.2 M351,58c-0.3-0.8-1-1.3-1.9-1.3c-0.1,0-0.3,0.1-0.4,0.1c-3.2,4.6-6.8,6.4-10.9,6.4
	c-4.8,0-9.1-2.8-11-7.2c-1.1-3.1-1.7-6.5-1.7-9.9c-0.1-3.2,0.4-6.5,1.6-9.5c2.4-6.3,5.8-8.3,10.1-8.3c3.5,0.2,6.7,2,8.7,4.9
	c1.3,2.1,2.2,4.2,2.8,6.6c0.4,0.1,0.8,0.2,1.2,0.2c0.4,0,0.9-0.2,1.3-0.4c-0.1-0.6-0.6-4.8-0.6-6.1c0-1.6,0.4-4.3,0.4-5.3
	c-0.6-0.4-1.3-0.5-2.1-0.6c-0.7,0.6-1.3,1.4-1.9,2.2c-3.4-2.7-7.7-4-12-3.9c-5.1-0.2-10,1.8-13.6,5.4c-4,4-6,9.6-5.8,15.3
	c-0.2,6.3,2.7,12.3,7.6,16.2c3.8,2.5,8.2,3.8,12.7,3.6c6.6,0,11.4-2.5,13.8-5.8C350.1,59.7,350.6,58.9,351,58 M308.8,27
	c0-0.3-0.1-0.5-0.2-0.7h-1.3c-2.7,0-4.4,0.1-9.3,0.1c-1.7,0-4.1-0.1-4.8-0.1h-1.4c-0.2,0.1-0.2,0.7-0.2,0.9c0,0.4,0.1,0.6,0.3,0.9
	c1.9,0.3,3.8,0.8,5.6,1.5c1,1.7,1.5,3.6,1.5,5.6c0.1,0.8,0.1,1.6,0.1,3.9v11.3c0,0.8,0,1.5-0.1,2.3c-0.9-1-2.2-3-4.4-5.4l-18.1-20
	c-0.3-0.3-0.5-0.5-0.8-0.7c-0.4,0-1.2-0.1-1.6-0.1c-3.5,0-9.8-0.2-10.7-0.2c-0.1,0.3-0.2,0.4-0.2,0.7c0,0.4,0.1,0.7,0.2,1.1
	c1.5,0.3,3,1,4,2.1c1.1,1,2.1,2.2,2.9,3.4c0.2,0.5,0.3,1.2,0.2,1.7c0,2.8-0.2,6.7-0.2,10.6V57c0,1.3-0.1,2.8-0.4,4.1
	c-1.6,1.4-3.6,2.4-5.7,2.8c-0.1,0.4-0.2,0.6-0.2,1c0,0.2,0.1,0.7,0.2,0.7h1c1.1,0,3.6-0.2,5.2-0.2c2.4,0,4,0.2,6.2,0.2h3.2
	c0.2-0.1,0.3-0.7,0.3-0.9c0-0.3-0.1-0.6-0.2-0.9c-2.5-0.3-4.8-1.5-6.5-3.3c-0.4-2.2-0.7-4.5-0.7-6.7c0-1.7-0.1-4.1-0.1-7.3
	c0-4.3,0.1-8,0.1-9.9c0.4,0.4,0.7,0.9,1,1.2l25,28.1c0.4,0.3,1,0.4,1.5,0.4c0.2,0,0.4,0,0.6-0.1c0.4-0.8,0.4-1.6,0.4-2.4
	c0-1.5-0.1-3.2-0.1-4V37c0-6.7,3.2-8.7,6.9-8.8C308.8,27.8,308.8,27.4,308.8,27 M255.2,64.6c0-0.4-0.1-0.7-0.2-1.1
	c-1.3-0.1-2.7-0.3-4-0.4c-1-1.2-1.6-2.6-1.9-4.1c-0.1-2.6-0.1-8-0.1-13V32.6c-0.1-1.1,0.3-2.1,1-3c1.4-0.9,3.1-1.3,4.9-1.4
	c0.1-0.4,0.2-0.7,0.2-1c0-0.3-0.1-0.6-0.3-0.9h-1.5c-2.2,0-7.5,0.3-9.4,0.3c-1.2,0-6.5-0.2-8.8-0.2h-1.2c-0.2,0.3-0.3,0.6-0.3,0.9
	c0,0.4,0,0.7,0.1,1c1.4,0,2.9,0.3,4.2,0.8c1.3,1.2,1.9,2.9,1.8,4.6c0.1,1,0.1,3.2,0.2,8.3c0.1,2.7,0.1,6.5,0.1,9.6
	c0,1.5-0.1,5.1-0.2,7c-0.1,1.1-0.3,2.2-0.7,3.2c-0.6,0.5-1.3,1.5-5.3,1.8c-0.1,0.4-0.2,0.7-0.2,1.2s0.1,0.6,0.1,0.9h0.9
	c2.2,0,7.5-0.3,10.4-0.3c0.8,0,6.5,0.2,8.3,0.2h1.8C255.1,65.2,255.2,65,255.2,64.6 M211.7,36.4c0,3.3-2.2,7.2-4.9,7.8
	c-1.4,0.4-3,0.4-4.5,0.4c-0.6,0-1.3,0-2-0.1l-0.1-4.6V29.9c0-0.4,0.1-0.8,0.4-1.2c0.7-0.3,1.5-0.4,2.2-0.4c4.2,0,6.1,0.4,7.5,3
	C211.4,32.9,211.8,34.6,211.7,36.4 M227.4,64.7c0-0.4-0.1-0.8-0.3-1.2c-1.3,0-2.4-0.2-3.6-0.7c-0.4-0.4-0.6-0.9-0.9-1.3
	c-0.6-2.2-1.4-4.2-2.3-6.2c-0.9-2.4-2.2-4.6-4-6.5c-1.3-0.8-2.6-1.3-4-1.8c-0.9-0.4-1.5-0.6-2.2-0.9c0.7-0.2,1.4-0.3,2.2-0.4
	c4-0.5,4.9-1.2,5.9-2c2.2-1.7,3.4-4.3,3.3-7c0.1-4.4-2.7-8.4-6.7-9.9c-2.2-0.4-4.3-0.6-6.5-0.6c-4,0-9.8,0.4-12.5,0.4
	c-0.8,0-5.6-0.1-7.5-0.1c-0.8,0-2.9-0.1-3.2-0.1c-0.2,0.4-0.3,0.6-0.3,1s0,0.6,0.1,1c0.9,0.1,2.6,0.4,3.5,0.4c1,0.7,1.8,1.8,2.2,3
	c0.4,4.6,0.4,9.3,0.4,13.8c0,5.6,0.1,11.9-0.2,14c0,1.5-0.9,2.9-2.2,3.6c-1,0.2-2.1,0.3-3.1,0.4c-0.2,0.4-0.3,0.7-0.3,1.1
	c0,0.3,0.1,0.6,0.2,0.9c0.8,0,9.1-0.2,10.8-0.2c3.5,0,6.4,0.2,9.5,0.2c0.1-0.3,0.2-0.5,0.2-0.8c0-0.4-0.1-0.8-0.2-1.2
	c-1.1-0.1-2.4-0.4-3.1-0.5c-1.5-0.7-2.4-2.2-2.3-3.9l-0.1-12.5c0.4-0.1,0.9-0.1,1.4-0.1c1,0,2,0.4,2.9,0.9c1.8,0.9,3.2,2.2,4.3,4
	c1.9,3.7,3,7.5,3.4,11.7c0.2,1.2,0.6,2.2,1.6,2.2c0.4,0.1,3.3,0.2,5.4,0.2h7.7C227.4,65.3,227.4,65,227.4,64.7 M168.6,36.7
	c0.1,2.5-0.9,5-2.8,6.7c-1.6,1.1-3.7,1.6-5.7,1.4c-0.8,0-1.5,0-2.3-0.1c-0.4-0.1-0.7-0.1-0.7-0.4l0.1-15.9c1.1-0.2,2.1-0.3,3.1-0.3
	c3.7,0,5.9,0.9,7,3.2C168.2,33.1,168.6,34.8,168.6,36.7 M178.3,36.8c0.1-4-2.2-7.6-5.8-9.4c-3.1-1-6.4-1.4-9.7-1.3
	c-4.1,0-10.7,0.4-13.6,0.4c-2,0-5-0.2-6.7-0.2c-0.2,0.3-0.3,0.5-0.3,0.9s0,0.7,0.2,1.1c1,0.4,2.7,0.6,3.8,0.9
	c0.9,0.8,1.3,1.9,1.4,3.1c0.2,1.9,0.3,4.3,0.3,8.4c0,11.4-0.1,17.4-0.2,18.8c-0.2,1.8-1.4,3.2-3.1,3.9c-1.1,0.3-2.1,0.4-3.1,0.5
	c-0.1,0.4-0.1,0.7-0.1,1.2c0,0.3,0,0.5,0.2,0.8c1.7,0,6.8-0.2,8.8-0.2c4.9,0,9.8,0.2,11.8,0.2h1.3c0.2-0.3,0.2-0.5,0.2-0.9
	c0-0.4,0-0.6-0.1-1c-1.8,0-3.6-0.6-5.1-1.7c-0.7-0.9-1.2-2.1-1.1-3.2l-0.2-11.9c3.2,0.2,6.7,0.4,8.6,0.4c2.2,0,4.2-0.4,6.3-1
	C175.9,44.7,178.4,41,178.3,36.8"/>
<path style="fill:var(--bs-body-color);"  d="M544.4,87.5c0-0.4-0.2-0.4-0.4-0.6c-2.2,0-5.1,0.2-6.3,0.2c-2.8,0-6.1-0.2-7.5-0.2c-0.2,0.4-0.2,0.4-0.2,0.6
	c0,0.2,0,0.4,0.1,0.6c1.5,0.4,3.9,0.7,4.3,1.4c0.4,0.6,0.5,1.3,0.4,2.1c0,0.7-0.1,1.3-0.4,2c-0.4,1.3-1.5,3.5-3,6.5
	c-2.5,5-4,8.2-4.9,9.4c-1.4-2.3-4.6-8.6-5.3-10.3l-3.1-6.6c-0.2-0.4-0.2-1-0.2-1.4c0-0.4,0-1,0.2-1.4c0.4-1,2.2-1.1,4.5-1.3
	c0.1-0.3,0.2-0.5,0.2-0.8c0-0.4-0.2-0.3-0.4-0.5h-1c-3.6,0-2.5,0.2-8.8,0.2c-2.6,0-5.8-0.2-6.3-0.2c-0.2,0.4-0.4,0.4-0.4,0.8
	c0,0.3,0.1,0.4,0.2,0.6c3.6,0.9,4.7,1.5,5.1,2.2l9.5,18.6c0.7,1.3,1.3,2.7,1.7,4c0.4,2.2,0.5,4.3,0.4,6.5c0.2,1.6-0.4,3.2-1.7,4.2
	c-1.4,0.4-2.9,0.6-4.3,0.7c-0.2,0.2-0.3,0.4-0.3,0.7c0,0.2,0.1,0.4,0.2,0.6c2.8,0,5.7-0.1,7.3-0.1c1.2,0,2.9,0.1,6.1,0.1
	c1.9,0.1,3.2,0.1,4.2,0.1c0.2-0.2,0.3-0.4,0.3-0.7s-0.1-0.5-0.2-0.7c-1.6-0.1-3.2-0.4-4.7-1.1c-1-0.9-1.5-2.2-1.4-3.5l-0.4-8.2
	c0-0.4,0.1-0.9,0.2-1.3c0.2-0.5,0.4-1.1,0.6-1.5l8.4-16.5c0.9-1.4,2.1-2.7,3.5-3.6c1.2-0.5,2.3-0.9,3.5-1.1
	C544.3,88,544.4,87.8,544.4,87.5 M500.7,98.7V88.2c0-0.8-0.4-1-1.2-1c-1.6,0-9.1,0.2-17.8,0.2c-6.7,0-11.2-0.1-14.3-0.1h-4
	c-0.7,0-0.9,0.2-0.9,0.9V98c0.2,0.2,0.4,0.2,0.6,0.2c0.2,0,0.4,0,0.6-0.1c2.1-4.7,3.2-7.2,6.8-9.1c1.6-0.2,7.3-0.2,8.2-0.2
	c0.1,0.6,0.1,2.5,0.2,4.8c0.1,3.9,0.1,6,0.1,15.3c0,8-0.1,12-0.2,12.9c-0.2,1.5,0.1,2.7-6.5,3c-0.2,0.3-0.2,0.6-0.2,0.9
	c0,0.2,0,0.4,0.1,0.6h2.1c2,0,4.7-0.2,6.6-0.2c1.5,0,4.6,0.2,7.8,0.2h1.5c0.1-0.3,0.2-0.5,0.2-0.8s-0.1-0.5-0.2-0.8
	c-1.9,0.2-3.9-0.2-5.6-1c-0.4-1.3-0.5-2.7-0.4-4c-0.1-5.8-0.1-8.6-0.1-12.5c0-5,0.1-8.9,0.1-18.2c0.7,0,4.8-0.1,6.4,0
	c2.5,0.5,4.7,2,6.1,4.1c1.2,1.8,2,3.8,2.4,5.9c0.3,0.1,0.5,0.1,0.8,0.1C500.2,98.9,500.5,98.8,500.7,98.7 M455.6,125.5
	c0-0.3-0.1-0.5-0.2-0.7c-0.8-0.1-3.1-0.3-4-0.4c-1-1.2-1.6-2.6-1.9-4.1c-0.1-2.6-0.1-8.5-0.1-13.6V92.9c0-1.1,0.3-2.1,1-3
	c1.4-0.9,3.1-1.3,4.9-1.4c0.1-0.2,0.2-0.4,0.2-0.7s-0.1-0.4-0.3-0.6h-1.5c-2.2,0-5.6,0.3-7.4,0.3c-1.2,0-4.4-0.2-6.7-0.2h-1.2
	c-0.2,0.2-0.3,0.4-0.3,0.7s0.1,0.4,0.1,0.7c1.4,0,2.9,0.3,4.2,0.7c1.3,1.2,1.9,2.9,1.8,4.6c0.1,1,0.1,3.8,0.2,8.8
	c0.1,2.7,0.1,6.4,0.1,9.5c0,1.6-0.1,5.7-0.2,7.5c-0.1,1.1-0.3,2.2-0.7,3.2c-0.6,0.5-1.3,1.5-5.3,1.8c-0.1,0.3-0.2,0.5-0.2,0.8
	c0,0.4,0.1,0.4,0.1,0.7h0.9c2.2,0,5.6-0.3,8.4-0.3c0.8,0,4.4,0.2,6.2,0.2h1.8C455.5,126,455.6,125.8,455.6,125.5 M428.8,115.5
	c0.1-4.1-2.3-7.9-6.1-9.5c-1.9-0.9-4-1.7-6-2.2c-2.7-0.7-5.4-1.7-7.8-3c-2.1-1.3-3.3-3.5-3.2-5.9c0-3.5,3.5-6.4,7.6-6.4
	c3,0,5.7,1.4,7.5,3.8c1.3,1.9,2.5,4,3.3,6.2c0.2,0.1,0.4,0.1,0.5,0.1c0.4,0,0.9-0.2,1.2-0.5c-0.3-1.6-0.4-3.2-0.4-4.9
	c0.1-1.4,0.2-2.9,0.4-4.2c-0.4-0.5-1-0.8-1.6-0.7c-0.8,0.5-1.5,1.3-2.2,2c-2.5-2.2-5.8-3.4-9.3-3.3c-6.6,0-11.4,4.5-11.4,10.3
	c0.1,2.2,0.7,4.2,2,5.9c1.3,1.8,3.1,3.1,5.3,4c1.5,0.6,8.6,2.8,9.6,3.1c4.3,1.7,5.9,3.1,5.9,7c-0.1,2.1-1,4-2.4,5.5
	c-1.5,1.7-3.7,2.7-6,2.5c-3.5,0-6.8-1.4-9.1-4c-1.6-2.2-2.9-4.7-3.7-7.3c-0.3-0.1-0.5-0.1-0.7-0.1c-0.4,0-0.7,0.1-1,0.4
	c0,0.7,0.2,4.3,0.2,5.4c0,1.6-0.3,3.2-0.6,4.9c0.4,0.6,1,1.1,1.7,1.1c0.8-0.8,1.7-1.3,2.7-1.7c0.4,0,0.9,0.2,1.3,0.4
	c2.7,1.8,5.8,2.8,9.1,2.7C423.3,126.9,428.8,123.1,428.8,115.5 M380.8,96.9c-0.1,3.7-2.5,6.9-5.9,8.1c-1.9,0.4-3.8,0.4-5.7,0.4
	c-1.1,0-2.2,0-3.3-0.1l-0.1-4.8V90.3c0-0.7,0.2-1.1,0.4-1.3c1.3-0.3,2.5-0.4,3.8-0.4c5.1,0,7.5,0.4,9.3,3.1
	C380.4,93.3,380.9,95.1,380.8,96.9 M392.2,125.5c0-0.3-0.1-0.5-0.3-0.8c-1.3,0-2.4-0.2-3.6-0.7c-0.4-0.4-0.6-0.9-0.9-1.3
	c-0.6-2.3-1.4-4.6-2.2-6.7c-0.9-2.4-2.2-4.6-4-6.5c-1.2-0.8-2.5-1.3-3.9-1.8c-0.9-0.4-1.5-0.6-2.2-0.9c0.7-0.2,1.4-0.3,2.2-0.4
	c2.1-0.1,4-0.7,5.7-2c2.2-1.6,3.6-4.2,3.6-7c0.1-4.4-2.7-8.3-6.7-9.8c-2.2-0.4-4.3-0.6-6.5-0.6c-4,0-7.1,0.4-9.8,0.4
	c-0.8,0-3.5-0.1-5.4-0.1c-0.8,0-2.9-0.1-3.2-0.1c-0.2,0.4-0.3,0.5-0.3,0.7c0,0.3,0.1,0.5,0.1,0.7c0.9,0.1,2.6,0.4,3.5,0.4
	c1.1,0.7,1.8,1.7,2.2,3c0.3,1.7,0.4,6.6,0.4,14.3c0,5.6,0.1,12.5-0.2,14.6c0,1.5-0.9,3-2.2,3.6c-1,0.2-2.1,0.3-3.1,0.4
	c-0.2,0.2-0.3,0.4-0.3,0.7c0,0.3,0.1,0.4,0.2,0.6c0.7,0,7-0.2,8.7-0.2c3.5,0,4.3,0.2,7.5,0.2c0.1-0.2,0.2-0.4,0.2-0.6
	c0-0.3-0.1-0.5-0.2-0.8c-1.1-0.1-2.4-0.4-3.1-0.5c-1.4-0.7-2.4-2.2-2.3-3.9l-0.1-13.6c0.4-0.1,2-0.1,2.4-0.1c1.5-0.1,3,0.2,4.3,0.8
	c2.2,0.9,4,2.4,5.3,4.4c1.9,3.7,3,7.7,3.4,11.8c0.2,1.2,0.6,2.2,1.6,2.2c1.1,0.2,2.1,0.2,3.1,0.2h5.7
	C392.1,126.1,392.2,125.8,392.2,125.5 M346.8,117.3c0-0.5,0-1.1-0.1-1.5c-0.3-0.2-0.5-0.2-0.8-0.2c-0.3,0-0.4,0-0.7,0.1
	c-0.8,3.3-2.8,6.3-5.6,8.3c-1.4,0.5-3.1,0.7-4.6,0.6h-6.1c-1.2,0-2.4-0.1-3.6-0.3c-0.8-0.2-1.7-1.4-2.1-2.3
	c-0.5-1.2-0.7-2.4-0.6-3.8v-12.4h1.7c1.5-0.1,3.1,0.2,4.6,0.8c1.2,0.4,2.2,1.3,3,2.3c0.4,1.4,0.7,3,0.7,4.5c0.3,0.2,0.5,0.3,0.9,0.2
	c0.3,0,0.6-0.1,0.9-0.3c0-1.4-0.4-5.4-0.4-7.5c0-2.7,0.4-6,0.5-8c-0.3-0.2-0.5-0.3-0.9-0.2c-0.3,0-0.6,0-0.9,0.2
	c-0.2,0.8-0.6,3.1-0.7,3.2c-1.1,1.3-2.5,2.4-4.1,2.9c-1.4,0.4-3,0.4-4.5,0.4h-0.9v-5.3c0-5.2,0.1-7.3,0.2-8.3
	c0.1-0.6,0.2-1.3,0.2-1.9c0.4-0.1,2.1-0.1,4.6-0.1c3.1,0,5.5,0.1,5.9,0.1c1.3,0,2.4,0.4,3.5,1.1c2.2,1.7,4,4,4.9,6.7
	c0.2,0.1,0.4,0.1,0.6,0.1c0.4,0,0.4-0.1,0.8-0.4c0-3.3-0.2-7-0.4-8.4c-0.1-0.5-0.2-0.7-1.3-0.7c-0.4,0-2.5-0.1-4.7-0.1
	c-3.1,0-4.3,0.1-9.1,0.1c-2.5,0-7,0.1-9.3,0.1c-3.2,0-4-0.1-5.4-0.1h-1.9c-0.2,0.2-0.3,0.4-0.3,0.6c0,0.3,0.1,0.5,0.3,0.8
	c1.3,0.1,2.7,0.3,4,0.6c0.7,0.6,1.4,0.8,2,3.4c0.1,1.2,0.2,4.9,0.2,7.3v11.1c0,2.2-0.1,6-0.1,7.4c-0.1,1.8-0.5,3.6-1.2,5.3
	c-1.6,0.5-3.2,0.8-4.9,0.8c-0.2,0.3-0.3,0.5-0.3,0.9c0,0.3,0.1,0.5,0.3,0.7h1.8c1.7,0,6.1-0.2,7.5-0.2c1.3,0,3.2,0.1,6.4,0.1
	c1.7,0,6.8,0.4,17.8,0.4c0.4,0,1,0,1.4-0.1c0.2-0.3,0.3-0.5,0.2-0.9C346.8,124.3,346.8,121.6,346.8,117.3 M306.6,87.7
	c0-0.2-0.1-0.5-0.3-0.6h-1.9c-1.3,0-3.3,0.1-4.3,0.1c-4.4,0-5.9-0.3-6.6-0.3h-1c-0.1,0.3-0.3,0.4-0.3,0.7c0,0.2,0.1,0.4,0.1,0.6
	c1.3,0.2,2.5,0.4,3.8,0.8c0.9,0.9,1.3,2.2,1.3,3.4c-0.3,1.7-0.6,3.3-1.3,4.9l-8.7,21.5l-10.7-27.1c0.1-1.3,0.7-2.3,1.8-3.1
	c1.2-0.3,2.3-0.4,3.5-0.4c0.1-0.3,0.2-0.4,0.2-0.7c0-0.2-0.1-0.5-0.3-0.6h-1.3c-1.6,0-4.2,0.2-7.1,0.2c-1.3,0-3.7-0.1-6.1-0.1h-1.9
	c-0.1,0.2-0.2,0.4-0.2,0.6c0,0.3,0,0.4,0.2,0.6c1.6,0.4,3.1,1.1,4.6,1.9c1.7,3.2,3.1,6.5,4.5,9.9l4.5,10.9c3.7,9,5.9,15,6.2,16.1
	c0.3,0.2,0,0.4,0.4,0.4c0.4,0,0.4-0.1,0.5-0.4l14-33.6c0.4-1.2,1.2-2.2,2-3.1c1.3-1,2.8-1.5,4.3-1.7C306.5,88.2,306.6,88,306.6,87.7
	 M259.2,125.5c0-0.3-0.1-0.5-0.2-0.7c-0.8-0.1-3.1-0.3-4-0.4c-1-1.2-1.6-2.6-1.9-4.1c-0.1-2.6-0.1-8.5-0.1-13.6V92.9
	c-0.1-1.1,0.3-2.1,1-3c1.4-0.9,3.1-1.4,4.9-1.4c0.1-0.2,0.2-0.4,0.2-0.7s-0.1-0.4-0.3-0.6h-1.5c-2.2,0-5.6,0.3-7.4,0.3
	c-1.2,0-4.4-0.2-6.7-0.2h-1.2c-0.2,0.2-0.3,0.4-0.3,0.7s0.1,0.4,0.1,0.7c1.4,0,2.9,0.3,4.2,0.7c1.3,1.2,1.9,2.9,1.8,4.6
	c0.1,1,0.1,3.8,0.2,8.8c0.1,2.7,0.1,6.4,0.1,9.5c0,1.6-0.1,5.7-0.2,7.5c-0.1,1.1-0.3,2.2-0.7,3.2c-0.6,0.5-1.3,1.5-5.2,1.8
	c-0.1,0.3-0.2,0.5-0.2,0.8c0,0.4,0.1,0.4,0.1,0.7h0.9c2.2,0,5.6-0.3,8.4-0.3c0.8,0,4.4,0.2,6.2,0.2h1.8
	C259.1,126,259.2,125.8,259.2,125.5 M234.6,87.6c0-0.2-0.1-0.4-0.2-0.5h-1.3c-2.7,0-3.9,0.1-8.8,0.1c-1.7,0-4.1-0.1-4.8-0.1h-1.4
	c-0.2,0.1-0.2,0.4-0.2,0.7c0,0.3,0.1,0.4,0.3,0.6c1.9,0.3,3.8,0.8,5.6,1.5c1,1.7,1.5,3.6,1.5,5.6c0.1,0.8,0.1,1.6,0.1,3.9v16.1
	c0,0.8,0,1.5-0.1,2.3c-0.9-1-2.5-3.1-4.6-5.6L200.1,88c-0.3-0.3-0.5-0.5-0.8-0.7c-0.4,0-1-0.1-1.4-0.1c-3.5,0-6.5-0.2-7.5-0.2
	c-0.1,0.2-0.2,0.4-0.2,0.5c0,0.3,0.1,0.4,0.1,0.7c1.5,0.2,3,0.7,4.2,1.5c1,1,1.9,2,2.6,3.2c0.2,0.5,0.3,1.2,0.2,1.7
	c0,2.8-0.2,8-0.2,11.8v11.6c0,1.3-0.1,2.8-0.4,4.1c-1.6,1.4-3.6,2.4-5.7,2.8c-0.1,0.2-0.2,0.4-0.2,0.6s0.1,0.4,0.2,0.5h1
	c1.1,0,3.6-0.2,5.2-0.2c2.3,0,3.5,0.2,5.7,0.2h3.2c0.2-0.1,0.3-0.4,0.3-0.7c0-0.2-0.1-0.4-0.2-0.5c-2.5-0.3-4.9-1.5-6.5-3.3
	c-0.4-2.2-0.7-4.5-0.7-6.8c0-1.7-0.1-4.6-0.1-7.7c0-4.3,0.1-10.2,0.1-12.1c0.4,0.4,0.8,1,1.2,1.4l25.7,30.1c0.2,0.2,0.4,0.4,0.6,0.4
	c0.3,0,0.1,0,0.4-0.1c0.2-0.8,0.3-1.6,0.3-2.4c0-1.5-0.1-3.2-0.1-4v-23c0-6.7,3.2-8.7,6.9-8.8C234.5,88.1,234.6,87.9,234.6,87.6
	 M184.4,87.9c0-0.3-0.1-0.5-0.3-0.7h-1.5c-1.7,0-4,0.1-5.9,0.1c-2.2,0-4.6-0.1-6.2-0.1h-2c-0.2,0.2-0.2,0.4-0.2,0.7s0.1,0.4,0.2,0.7
	c0.2,0,4.1,0.1,4.9,1c0.9,1.2,1.6,2.6,2.1,4c0.3,2,0.4,4,0.4,5.9c0,4.6,0,7.7-0.1,9.3c0,2.4-0.4,4.9-1,7.2c-1.5,4.7-5,7-10.6,7
	c-2.2,0-4.4-0.4-6.4-1.3c-2.8-1.3-4.8-3.8-5.2-6.8l-0.3-16.3V92c0-1.3,1.5-2.4,2.1-3.1c1.3-0.3,2.8-0.4,4.1-0.5
	c0.2-0.2,0.3-0.4,0.3-0.7s-0.2-0.5-0.4-0.7l-2.1,0.1c-2,0.1-4.7,0.1-6.4,0.1c-2.6,0-4.6-0.1-6.2-0.1h-2.2c-0.2,0.2-0.3,0.4-0.3,0.7
	c0,0.3,0.1,0.4,0.2,0.6c1.7,0.2,2.9,0.4,3.6,0.5c0.9,0.5,1.5,1.4,1.9,2.4c0.1,0.7,0.2,2.4,0.2,5.8v13c-0.1,2.4,0.1,4.9,0.5,7.3
	c0.6,2.8,2.3,5.1,4.7,6.6c3,1.8,6.5,2.7,9.9,2.6c3.2,0.1,6.5-0.7,9.3-2.2c2.7-1.5,4.7-4.1,5.4-7.2c0.5-2.1,0.9-4.3,0.9-6.5v-10.4
	c0-2,0.1-4.4,0.1-5.4c0-2.1,0.5-4.1,1.6-5.9c1.4-0.4,3-0.6,4.5-0.7C184.3,88.3,184.4,88.1,184.4,87.9"/>
</svg>
