<?xml version="1.0" standalone="no"?>
<!DOCTYPE svg PUBLIC "-//W3C//DTD SVG 20010904//EN"
 "http://www.w3.org/TR/2001/REC-SVG-20010904/DTD/svg10.dtd">
<svg version="1.0" xmlns="http://www.w3.org/2000/svg"
 width="1024.000000pt" height="1024.000000pt" viewBox="0 0 1024.000000 1024.000000"
 preserveAspectRatio="xMidYMid meet">

<g transform="translate(-500.000000,1068.000000) scale(0.1500000,-0.1500000)"
fill="#000000" stroke="none">
<path d="M8080 7269 c0 -5 5 -7 10 -4 6 3 10 8 10 11 0 2 -4 4 -10 4 -5 0 -10
-5 -10 -11z"/>
<path d="M8117 7189 c-12 -7 -15 -17 -11 -35 5 -19 2 -24 -12 -25 -11 -1 -5
-5 11 -8 17 -4 35 -3 42 1 18 14 53 -27 56 -67 1 -19 5 -35 10 -35 13 0 7 -23
-10 -36 -17 -13 -17 -13 0 -14 9 0 17 5 17 10 0 13 27 13 34 1 4 -5 7 -21 8
-34 1 -14 6 -23 10 -21 15 9 40 -26 32 -44 -4 -9 -8 -24 -8 -32 -1 -9 -9 -14
-21 -12 -11 2 -17 1 -13 -4 4 -4 0 -13 -10 -20 -16 -12 -16 -13 0 -14 38 0 32
-44 -8 -54 -13 -4 -24 -13 -24 -21 0 -28 -35 -16 -47 16 -13 33 -35 32 -26 -2
5 -18 2 -20 -35 -15 -38 4 -40 3 -30 -13 7 -12 20 -17 40 -15 37 5 47 -19 25
-57 -9 -17 -12 -31 -6 -34 15 -10 10 -21 -16 -33 -21 -10 -26 -9 -36 9 -8 16
-13 18 -25 9 -7 -7 -20 -10 -28 -7 -13 5 -13 2 -4 -18 12 -28 -6 -61 -26 -47
-13 9 -34 8 -59 -3 -28 -12 -50 15 -38 47 5 14 6 31 1 39 -6 8 -4 16 3 21 8 5
5 8 -8 8 -12 0 -27 13 -38 31 -10 18 -21 29 -25 25 -3 -4 -2 -10 4 -14 11 -7
34 -66 34 -87 0 -6 -17 -11 -40 -12 -22 0 -38 2 -35 6 2 4 -2 8 -9 8 -8 0 -12
-6 -9 -13 2 -7 -5 -17 -16 -23 -28 -15 -41 -14 -41 6 0 9 -3 14 -6 10 -4 -3
-3 -14 1 -24 5 -10 7 -24 6 -31 -2 -10 4 -9 22 2 13 9 27 13 30 9 4 -3 7 1 7
9 0 12 10 16 36 16 34 0 36 -1 30 -29 -3 -16 -1 -29 4 -29 6 0 10 -7 10 -15 0
-8 -7 -15 -15 -15 -9 0 -12 -6 -9 -15 4 -8 12 -15 20 -15 8 0 14 -10 14 -25 0
-14 5 -25 10 -25 12 0 13 -30 1 -49 -8 -12 -12 -13 -25 -1 -23 19 -66 22 -66
4 0 -8 6 -14 13 -14 7 -1 5 -6 -5 -14 -10 -7 -18 -19 -18 -25 0 -7 -4 -10 -9
-7 -5 3 -11 0 -14 -8 -8 -21 25 -30 40 -11 13 19 33 12 33 -10 0 -8 10 -20 22
-26 l22 -12 -23 -18 c-13 -11 -18 -19 -12 -19 8 0 9 -5 1 -19 -15 -29 -13 -32
18 -29 25 3 27 0 30 -34 2 -28 8 -38 20 -38 9 0 23 -12 30 -27 23 -50 19 -54
-60 -67 -21 -4 -39 -2 -43 4 -10 16 -41 12 -60 -10 -24 -27 -34 -25 -46 8 -8
24 -15 28 -50 28 -29 0 -38 -3 -35 -13 3 -7 -4 -17 -14 -23 -13 -7 -20 -21
-20 -40 0 -37 -31 -41 -54 -8 -9 12 -16 18 -16 13 0 -5 -5 -4 -12 3 -8 8 -8
15 0 24 10 13 2 41 -12 39 -23 -3 -26 0 -16 18 7 13 7 22 0 26 -14 8 -30 -3
-30 -21 0 -12 -4 -13 -21 -3 -17 9 -23 8 -30 -2 -6 -10 -10 -9 -16 6 -10 25
-39 28 -39 4 0 -10 5 -17 11 -16 5 1 10 -4 9 -10 -1 -7 -2 -22 -2 -33 -2 -13
-7 -17 -18 -13 -9 3 -20 0 -24 -8 -12 -18 4 -44 27 -44 11 0 17 -6 14 -15 -2
-8 -3 -30 -3 -47 1 -28 -2 -33 -22 -33 -14 0 -26 4 -28 9 -1 5 -15 7 -30 4
-22 -4 -29 -12 -34 -40 -5 -24 -14 -37 -32 -44 -33 -13 -52 -5 -52 20 0 11
-12 31 -26 44 -26 24 -26 25 -6 39 14 9 18 19 12 27 -4 8 -12 11 -16 8 -12 -7
-47 19 -41 30 3 5 2 15 -4 23 -7 13 -9 12 -9 -2 0 -18 -9 -22 -43 -18 -10 1
-17 -4 -16 -12 5 -43 -14 -50 -49 -18 -12 11 -32 20 -46 20 -14 0 -28 4 -31
10 -10 16 24 71 43 68 10 -2 16 3 14 10 -1 7 4 15 12 18 12 5 13 9 3 25 -10
16 -9 21 3 29 11 7 11 10 2 10 -7 0 -10 4 -7 10 3 6 -1 7 -10 4 -11 -4 -14 -2
-9 9 3 8 1 18 -4 21 -5 3 -8 -6 -6 -20 2 -20 -1 -24 -14 -20 -15 5 -15 4 1 -8
17 -13 25 -52 8 -41 -5 3 -13 0 -16 -6 -4 -5 -14 -8 -22 -5 -8 3 -11 1 -8 -4
3 -5 -4 -19 -16 -31 l-23 -23 -11 34 c-16 46 -33 49 -29 5 3 -38 -13 -46 -40
-20 -8 8 -22 15 -31 15 -9 0 -13 4 -10 10 3 6 -1 7 -9 4 -9 -3 -16 -1 -16 5 0
6 -7 11 -15 11 -8 0 -15 5 -15 10 0 18 -14 10 -34 -18 l-20 -27 22 18 c20 18
48 15 37 -4 -4 -5 1 -9 9 -9 9 0 13 -6 10 -14 -4 -11 0 -13 17 -9 17 5 20 3
14 -7 -5 -9 -4 -11 3 -6 7 4 21 -2 33 -13 18 -17 20 -23 9 -36 -7 -8 -16 -13
-20 -10 -5 3 -17 -6 -28 -20 -23 -29 -37 -31 -52 -7 -11 16 -11 16 -6 0 3 -10
1 -18 -4 -18 -6 0 -10 -7 -10 -16 0 -8 4 -13 9 -9 5 3 12 -5 14 -17 l4 -23 2
23 c1 21 21 33 21 12 0 -15 21 -8 50 18 14 12 34 21 45 20 16 -2 20 -11 20
-45 0 -23 3 -45 8 -49 4 -4 7 -16 7 -26 0 -16 -6 -19 -32 -16 -19 2 -33 -2
-35 -9 -3 -7 1 -13 7 -13 9 0 9 -4 2 -12 -6 -7 -12 -17 -14 -23 -1 -5 -6 -9
-10 -8 -3 1 -9 -5 -12 -14 -5 -12 -1 -14 19 -11 21 4 25 1 25 -18 0 -24 14
-32 25 -14 11 18 23 10 30 -20 5 -21 14 -32 31 -36 32 -8 30 -33 -5 -67 -26
-24 -31 -26 -44 -12 -18 18 -34 19 -39 4 -2 -5 -12 -11 -23 -13 -11 -2 -20 -7
-20 -12 0 -5 -4 -15 -8 -21 -5 -8 -4 -13 2 -13 17 0 13 -56 -4 -70 -13 -10
-19 -10 -33 4 -10 9 -23 16 -29 16 -6 0 -13 5 -15 11 -3 9 -9 9 -25 0 -41 -21
-53 -14 -53 29 0 30 4 40 16 40 8 0 12 5 9 11 -4 5 -12 8 -18 6 -7 -2 -22 0
-35 4 -15 6 -21 5 -17 -1 3 -6 1 -10 -5 -10 -8 0 -8 -6 0 -20 9 -16 7 -24 -5
-36 -14 -14 -16 -14 -21 0 -9 22 -24 20 -24 -4 0 -14 -5 -18 -17 -13 -11 4
-14 3 -9 -5 4 -7 2 -12 -6 -12 -22 0 -41 17 -34 29 4 6 3 11 -3 11 -5 0 -13
-5 -16 -11 -4 -6 -13 -8 -21 -5 -8 3 -14 1 -14 -4 0 -6 5 -10 11 -10 5 0 8 -4
5 -8 -2 -4 4 -9 15 -9 31 -3 51 -23 38 -39 -6 -7 -17 -10 -24 -8 -10 4 -12 0
-8 -15 6 -24 8 -25 34 -10 18 9 19 7 16 -25 -4 -35 13 -50 28 -26 3 6 13 10
21 10 8 0 13 -4 10 -9 -13 -20 7 -73 30 -82 31 -11 30 -23 -1 -47 -14 -11 -25
-27 -25 -35 0 -23 -15 -28 -45 -17 -20 8 -25 15 -20 30 7 22 -2 25 -39 10 -17
-6 -24 -14 -20 -25 4 -9 1 -15 -8 -15 -7 0 -19 -10 -27 -22 -12 -19 -14 -20
-23 -5 -8 15 -11 15 -24 3 -18 -18 -18 -26 0 -26 9 0 12 -8 8 -26 -3 -18 -1
-25 6 -20 6 3 15 -1 20 -10 5 -9 11 -16 13 -15 19 3 48 -15 53 -32 9 -35 7
-39 -16 -36 -35 4 -62 -8 -73 -33 -6 -12 -18 -23 -28 -24 -28 -4 -31 -11 -13
-29 9 -9 16 -21 16 -26 0 -5 6 -9 14 -9 26 0 27 -18 1 -44 -14 -14 -25 -30
-25 -36 0 -6 -4 -9 -9 -5 -19 11 -20 -14 -2 -36 15 -19 16 -27 7 -44 -6 -11
-16 -24 -23 -28 -9 -6 -10 -13 -1 -33 9 -19 9 -30 0 -45 -7 -10 -12 -29 -12
-43 0 -30 -36 -76 -60 -76 -23 0 -90 69 -90 92 0 10 -7 18 -15 18 -19 0 -34
28 -27 52 4 16 0 19 -19 16 -31 -4 -67 46 -48 68 16 19 -12 29 -40 15 -27 -15
-28 -15 -36 16 -3 15 -16 35 -28 46 -20 17 -20 19 -5 28 10 5 14 17 11 29 -4
16 -8 18 -19 9 -8 -7 -17 -9 -21 -6 -8 9 -32 -24 -33 -45 0 -21 -39 -25 -42
-5 -1 13 -2 18 -13 65 -7 31 -24 44 -26 20 0 -7 -5 -3 -11 8 -5 12 -21 27 -35
33 -31 14 -25 35 10 39 31 4 34 14 11 36 -20 20 -30 21 -14 1 11 -13 8 -15
-19 -15 -18 0 -30 -4 -27 -9 3 -5 -1 -11 -9 -14 -17 -7 -12 -43 10 -67 21 -23
19 -27 -16 -45 -25 -14 -33 -14 -46 -3 -9 7 -24 12 -35 10 -17 -3 -23 11 -19
46 1 6 -6 12 -15 12 -11 0 -14 5 -9 18 12 30 10 37 -7 34 -12 -2 -16 2 -12 12
3 8 0 17 -6 21 -8 5 -7 11 2 23 12 15 11 16 -4 3 -10 -7 -18 -20 -18 -27 0
-27 -31 -14 -45 19 -8 17 -14 26 -15 18 0 -9 -6 -11 -17 -6 -10 4 -28 7 -39 7
-22 -2 -42 36 -26 48 9 6 8 48 -1 56 -12 12 -28 -8 -22 -28 4 -12 0 -27 -12
-40 -10 -12 -12 -18 -5 -14 8 5 12 1 12 -12 0 -20 18 -32 50 -32 25 0 45 -27
32 -43 -7 -8 -7 -18 -2 -27 14 -22 -24 -54 -49 -41 -17 10 -18 7 -14 -26 l5
-36 -38 6 c-22 4 -45 7 -51 7 -7 0 -13 9 -13 19 0 11 -4 23 -10 26 -11 7 -21
-29 -17 -60 2 -17 -4 -20 -33 -20 -28 0 -34 4 -32 18 2 10 -3 17 -14 17 -12 0
-15 6 -11 21 4 14 1 19 -7 16 -6 -3 -17 6 -23 20 -9 19 -9 25 3 30 8 3 14 14
14 24 0 18 -1 18 -20 2 -11 -10 -20 -25 -20 -35 0 -25 -38 -44 -46 -23 -3 8
-12 15 -20 15 -16 0 -18 9 -4 30 6 10 3 25 -10 47 -11 18 -17 41 -14 51 5 15
4 15 -6 -1 -8 -13 -9 -22 -1 -31 14 -17 3 -49 -15 -42 -8 3 -14 -1 -14 -9 0
-25 -17 -25 -44 0 -14 13 -26 20 -26 15 0 -6 -4 -10 -10 -10 -5 0 -10 10 -10
21 0 17 -3 19 -14 10 -15 -13 -46 -5 -46 13 0 7 -3 6 -9 -2 -12 -20 -62 -21
-81 -2 -23 23 -33 52 -19 60 6 5 3 9 -10 13 -29 7 -49 -19 -22 -28 25 -7 27
-21 6 -29 -8 -3 -15 -11 -15 -18 0 -10 2 -10 9 0 7 12 12 12 30 1 11 -8 21
-17 21 -22 0 -4 21 -7 48 -5 31 2 46 -1 45 -8 -1 -7 6 -10 16 -7 13 3 20 -2
24 -19 10 -34 9 -38 -10 -38 -13 0 -14 -3 -5 -12 10 -10 17 -10 33 0 16 10 24
10 35 1 15 -13 19 -49 5 -49 -5 0 -7 -9 -4 -20 4 -16 0 -20 -17 -20 -15 0 -20
-5 -17 -14 3 -8 -4 -23 -17 -35 -19 -18 -24 -19 -42 -7 -13 10 -25 11 -35 5
-11 -7 -11 -9 -1 -9 7 0 20 -7 28 -15 9 -9 25 -13 37 -10 30 8 67 -19 50 -36
-10 -10 -9 -17 5 -32 16 -18 16 -20 -3 -33 -11 -9 -30 -13 -43 -11 -20 4 -23
1 -18 -19 3 -12 1 -26 -5 -29 -15 -10 -55 2 -75 22 -16 16 -16 16 -10 -4 8
-25 -2 -33 -47 -39 -41 -5 -67 3 -67 22 0 8 -4 12 -10 9 -5 -3 -10 1 -10 9 0
9 -7 16 -16 16 -13 0 -14 -3 -4 -15 6 -8 9 -19 5 -25 -3 -5 1 -10 10 -10 10 0
15 -6 12 -13 -3 -8 4 -12 22 -11 14 1 34 -7 44 -17 20 -21 22 -39 5 -39 -6 0
-8 -3 -4 -8 4 -4 13 -7 19 -7 7 0 13 -12 15 -27 2 -20 -1 -28 -12 -28 -9 0
-16 -6 -16 -14 0 -17 -27 -29 -35 -16 -8 13 -35 13 -35 0 0 -6 11 -15 25 -20
19 -7 25 -17 25 -40 0 -21 -5 -30 -16 -30 -9 0 -14 -8 -13 -17 3 -37 -1 -43
-36 -43 -29 0 -37 5 -46 28 l-11 27 -11 -22 c-5 -13 -14 -23 -19 -23 -15 0
-58 52 -59 71 -2 32 -4 37 -11 45 -5 4 -9 2 -9 -4 -1 -7 -2 -18 -3 -24 -1 -7
1 -21 6 -30 5 -11 3 -22 -7 -32 -9 -8 -14 -18 -13 -22 6 -15 -33 -11 -43 4 -7
12 -12 14 -15 5 -3 -7 -14 -13 -24 -13 -20 0 -36 43 -23 63 4 7 -1 5 -12 -3
-10 -8 -20 -14 -22 -13 -18 9 -73 74 -73 87 0 9 -5 16 -10 16 -6 0 -15 10 -20
23 l-9 22 0 -23 c-1 -12 6 -25 14 -28 8 -4 15 -12 15 -18 0 -7 13 -25 30 -41
16 -15 27 -32 24 -37 -3 -4 0 -8 6 -8 6 0 10 -10 8 -23 -1 -13 5 -35 14 -49
22 -34 17 -64 -11 -61 -18 2 -20 -1 -16 -20 7 -28 -31 -58 -41 -32 -3 8 -11
12 -16 9 -5 -4 -26 9 -46 27 -33 31 -30 21 7 -24 8 -9 15 -28 17 -42 3 -26
-20 -53 -31 -35 -10 16 -25 12 -19 -5 4 -8 2 -16 -2 -16 -41 -6 -56 -4 -64 10
-6 10 -10 11 -10 3 0 -15 -39 -32 -58 -24 -7 2 -11 11 -8 18 3 8 0 11 -10 7
-7 -3 -14 0 -14 6 0 6 -4 11 -10 11 -5 0 -9 -6 -7 -12 1 -7 -4 -12 -10 -11 -7
2 -12 -3 -10 -10 3 -18 -263 -23 -275 -5 -6 10 -8 10 -8 1 0 -9 -21 -13 -70
-13 -39 0 -70 4 -70 10 0 5 -11 9 -24 8 -14 -1 -23 -5 -20 -9 2 -4 -77 -8
-176 -9 -158 0 -180 2 -180 16 0 17 -23 44 -37 44 -5 0 -18 -8 -29 -17 -45
-42 -58 -43 -414 -46 l-345 -2 348 -3 c358 -2 363 -3 411 -44 11 -10 24 -18
29 -18 14 0 37 27 37 44 0 14 22 16 180 16 99 -1 178 -5 176 -9 -3 -4 6 -8 20
-9 13 -1 24 3 24 8 0 6 31 10 70 10 49 0 70 -4 70 -12 0 -10 2 -10 8 0 12 18
278 13 275 -5 -2 -7 3 -12 10 -10 6 1 11 -4 10 -10 -2 -7 2 -13 7 -13 6 0 10
5 10 11 0 6 7 9 14 6 10 -4 13 -1 10 7 -3 7 1 16 8 18 19 8 58 -9 58 -24 0 -8
4 -7 10 3 8 14 23 16 64 10 4 0 6 -8 2 -16 -6 -17 9 -21 19 -5 11 18 34 -9 31
-35 -2 -14 -9 -33 -17 -42 -37 -45 -40 -55 -7 -24 20 18 41 31 46 27 5 -3 13
1 16 9 10 26 48 -4 41 -32 -4 -19 -2 -22 16 -20 28 3 33 -27 11 -61 -9 -14
-15 -36 -14 -49 2 -13 -2 -23 -8 -23 -6 0 -9 -4 -6 -8 3 -5 -8 -22 -24 -37
-17 -16 -30 -34 -30 -41 0 -6 -7 -14 -15 -18 -8 -3 -15 -16 -14 -28 l0 -23 9
23 c5 12 14 22 20 22 5 0 10 7 10 16 0 18 59 80 75 79 6 0 16 -4 24 -9 9 -6
12 -5 7 2 -12 19 5 62 24 62 10 0 21 -6 24 -12 3 -10 8 -8 15 4 11 16 34 19
38 5 1 -4 9 -15 18 -23 10 -10 12 -21 7 -32 -5 -9 -7 -23 -6 -29 1 -7 2 -18 3
-25 0 -6 4 -8 9 -4 7 8 9 13 11 45 1 19 44 71 59 71 5 0 14 -10 19 -22 l11
-23 11 28 c9 22 17 27 46 27 35 0 39 -6 36 -42 -1 -10 4 -18 13 -18 11 0 16
-9 16 -30 0 -23 -6 -33 -25 -40 -14 -5 -25 -14 -25 -20 0 -13 27 -13 35 0 8
13 35 1 35 -16 0 -8 7 -14 16 -14 11 0 14 -8 12 -27 -2 -16 -8 -28 -15 -28 -6
0 -15 -3 -19 -8 -4 -4 -2 -7 4 -7 17 0 15 -18 -5 -39 -10 -10 -30 -18 -44 -17
-18 1 -25 -3 -22 -11 3 -7 -2 -13 -12 -13 -9 0 -13 -5 -10 -10 4 -6 1 -17 -5
-25 -10 -12 -9 -15 4 -15 9 0 16 7 16 16 0 8 5 12 10 9 6 -3 10 1 10 9 0 19
26 27 67 22 45 -6 55 -14 47 -39 -6 -20 -6 -20 10 -4 20 20 60 32 75 22 6 -3
8 -17 5 -29 -5 -20 -2 -23 18 -19 13 2 32 -2 43 -11 19 -13 19 -15 3 -33 -14
-15 -15 -22 -5 -32 17 -17 -20 -44 -50 -36 -12 3 -28 -1 -37 -10 -8 -8 -21
-15 -28 -15 -10 0 -10 -2 1 -9 10 -6 22 -5 35 5 18 12 23 11 42 -7 13 -12 20
-27 17 -35 -3 -9 2 -14 17 -14 17 0 21 -4 17 -20 -3 -11 -1 -20 4 -20 14 0 10
-36 -5 -49 -11 -9 -19 -9 -35 1 -16 10 -23 10 -33 0 -9 -9 -8 -12 6 -12 14 0
17 -5 12 -22 -3 -13 -6 -27 -6 -32 0 -4 -9 -6 -20 -3 -11 3 -18 0 -17 -7 1 -7
-14 -10 -45 -8 -27 2 -48 -1 -48 -5 0 -5 -10 -14 -21 -22 -18 -11 -23 -11 -30
1 -7 10 -9 10 -9 0 0 -7 7 -15 15 -18 21 -8 19 -22 -6 -29 -27 -9 -7 -35 22
-28 13 4 16 8 10 13 -14 8 -4 37 19 60 19 19 69 18 81 -2 6 -8 9 -9 9 -2 0 18
31 26 46 13 11 -9 14 -7 14 10 0 11 5 21 10 21 6 0 10 -4 10 -10 0 -5 12 2 26
15 27 25 44 25 44 0 0 -8 6 -12 14 -9 18 7 29 -25 15 -42 -8 -9 -7 -18 1 -31
10 -16 11 -16 6 -1 -3 10 3 33 14 51 13 22 16 37 10 47 -14 21 -12 30 4 30 8
0 17 7 20 15 8 21 46 2 46 -23 0 -10 9 -25 20 -35 19 -16 20 -16 20 2 0 10 -6
21 -14 24 -12 5 -12 11 -3 30 6 14 17 23 23 20 8 -3 11 2 7 16 -4 15 -1 21 11
21 11 0 16 7 14 18 -2 13 4 17 32 17 29 0 35 -3 33 -20 -4 -31 6 -67 17 -60 6
3 10 14 10 24 0 13 10 20 38 25 63 10 64 9 59 -29 -4 -31 -3 -34 14 -24 25 13
63 -19 49 -41 -5 -9 -5 -19 2 -27 13 -16 -7 -43 -32 -43 -32 0 -50 -12 -50
-32 0 -13 -4 -17 -12 -12 -7 4 -5 -2 5 -14 12 -13 16 -28 12 -40 -6 -20 10
-40 22 -28 9 8 10 50 1 56 -16 12 4 50 26 48 11 0 29 3 39 7 11 5 17 3 17 -6
1 -8 7 1 15 19 14 32 45 45 45 18 0 -7 8 -20 18 -27 15 -13 16 -12 4 3 -9 12
-10 18 -2 23 6 4 9 13 6 21 -4 10 0 14 12 12 17 -3 19 4 7 35 -5 12 -2 17 9
17 9 0 16 6 15 13 -4 34 2 48 19 45 11 -2 26 3 35 10 13 11 21 11 46 -3 35
-18 37 -22 16 -45 -22 -24 -27 -60 -10 -67 8 -3 12 -9 9 -14 -3 -5 9 -9 27 -9
27 0 30 -2 19 -15 -16 -20 -6 -19 14 1 23 22 20 32 -11 36 -35 4 -41 25 -10
39 14 6 30 21 35 33 6 11 11 15 11 9 2 -25 19 -12 26 20 11 46 12 51 13 65 3
19 42 15 42 -5 1 -22 25 -55 33 -46 4 3 13 1 21 -6 11 -9 15 -7 19 9 3 12 -1
24 -11 29 -15 9 -15 11 5 28 12 11 25 31 28 46 8 31 9 31 36 16 28 -14 56 -4
40 15 -19 22 17 72 48 68 19 -3 23 0 19 16 -7 24 8 52 27 52 8 0 15 8 15 18 0
23 67 92 90 92 24 0 60 -46 60 -76 0 -14 5 -33 12 -43 9 -15 9 -26 0 -45 -9
-20 -8 -27 1 -33 7 -4 17 -17 23 -28 9 -17 8 -25 -7 -44 -18 -22 -17 -47 2
-36 5 4 9 1 9 -5 0 -6 11 -22 25 -36 26 -26 25 -44 -1 -44 -8 0 -14 -4 -14 -9
0 -5 -7 -17 -16 -26 -18 -18 -15 -25 13 -29 10 -1 22 -12 28 -24 11 -25 39
-37 74 -33 21 2 23 0 18 -21 -4 -12 -7 -26 -7 -29 0 -6 -31 -17 -47 -17 -3 0
-10 -7 -15 -16 -5 -9 -14 -13 -20 -10 -7 5 -9 -2 -6 -20 4 -18 1 -26 -8 -26
-18 0 -18 -8 0 -26 13 -12 16 -12 24 3 9 15 11 14 23 -5 8 -12 20 -22 27 -22
9 0 12 -6 8 -15 -4 -11 3 -19 20 -25 37 -15 46 -12 39 10 -5 15 0 22 20 30 30
11 45 6 45 -17 0 -8 11 -24 25 -35 31 -24 32 -36 1 -47 -23 -9 -43 -62 -30
-82 3 -5 -2 -9 -10 -9 -8 0 -18 4 -21 10 -15 24 -32 9 -28 -26 3 -32 2 -34
-16 -25 -26 15 -28 14 -34 -10 -4 -15 -2 -19 8 -15 7 2 18 -1 24 -8 13 -16 -7
-36 -38 -39 -11 0 -17 -5 -15 -9 3 -4 0 -8 -5 -8 -6 0 -11 -4 -11 -10 0 -5 6
-7 14 -4 8 3 17 1 21 -5 3 -6 11 -11 16 -11 6 0 7 5 3 11 -7 12 12 29 34 29 8
0 10 -5 6 -12 -5 -8 -2 -9 9 -5 12 5 17 1 17 -13 0 -24 15 -26 24 -4 5 14 7
14 21 0 12 -12 14 -20 5 -36 -8 -14 -8 -20 0 -20 6 0 8 -4 5 -10 -4 -6 2 -7
17 -1 13 4 28 6 35 4 6 -2 14 1 18 6 3 6 -1 11 -9 11 -12 0 -16 10 -16 40 0
43 12 50 53 29 16 -9 22 -9 25 0 2 6 9 11 15 11 6 0 19 7 29 16 14 14 20 14
33 4 17 -14 20 -70 4 -70 -8 0 -8 -4 -1 -12 6 -7 12 -17 14 -23 1 -5 10 -11
18 -12 8 -1 16 -7 18 -12 5 -15 21 -14 39 4 13 14 18 12 44 -12 35 -34 37 -59
5 -67 -17 -4 -26 -15 -31 -36 -7 -30 -19 -38 -30 -20 -11 18 -25 10 -25 -14 0
-19 -4 -22 -25 -18 -20 3 -24 1 -19 -11 3 -9 11 -15 17 -14 6 1 11 -2 12 -8 0
-5 4 -16 8 -22 5 -8 3 -13 -3 -13 -7 0 -10 -6 -7 -12 2 -8 16 -12 35 -10 26 3
32 0 32 -16 0 -10 -3 -22 -7 -26 -5 -4 -8 -26 -8 -49 0 -34 -4 -43 -20 -45
-11 -1 -31 8 -45 20 -29 26 -50 33 -50 18 0 -20 -19 -10 -23 12 l-4 23 -2 -23
c0 -13 -5 -20 -11 -17 -5 3 -10 -1 -10 -9 0 -9 4 -16 10 -16 5 0 7 -8 4 -17
-5 -17 -5 -17 6 0 15 23 29 21 52 -8 11 -14 23 -23 28 -20 4 3 13 -2 20 -10
11 -13 9 -19 -9 -36 -12 -11 -26 -17 -33 -13 -7 5 -8 3 -3 -6 6 -10 3 -12 -14
-7 -17 4 -21 2 -17 -9 3 -8 -1 -14 -10 -14 -8 0 -13 -4 -9 -9 11 -19 -17 -22
-37 -4 l-22 18 20 -27 c20 -28 34 -36 34 -18 0 6 7 10 15 10 8 0 15 5 15 11 0
6 7 8 16 5 8 -3 12 -2 9 4 -3 6 1 10 10 10 9 0 23 7 31 15 27 26 43 18 40 -20
-4 -44 13 -41 29 5 l11 34 23 -23 c12 -12 19 -26 16 -31 -3 -5 0 -7 8 -4 8 3
18 0 22 -5 3 -6 11 -9 16 -6 17 11 9 -28 -8 -41 -16 -12 -16 -13 -1 -8 13 4
16 0 14 -20 -2 -14 1 -23 6 -20 5 3 7 13 4 21 -5 11 -2 13 9 9 9 -3 13 -2 10
4 -3 6 0 10 7 10 9 0 9 3 -2 10 -12 8 -13 13 -3 29 10 16 9 20 -3 25 -8 3 -13
11 -12 18 2 7 -4 12 -14 10 -19 -3 -53 52 -43 68 3 6 17 10 31 10 14 0 34 9
46 20 35 32 54 25 49 -18 -1 -8 6 -13 16 -12 34 4 43 0 43 -17 0 -15 2 -16 9
-3 6 8 7 18 4 23 -6 11 29 37 41 30 4 -3 12 0 16 8 6 8 2 18 -12 27 -20 14
-20 15 6 39 14 13 26 33 26 44 0 25 19 33 52 20 18 -7 27 -20 32 -44 5 -28 12
-36 34 -40 15 -3 29 -1 30 4 2 5 14 9 28 9 20 0 23 -5 22 -33 0 -17 1 -39 3
-47 3 -9 -3 -15 -14 -15 -23 0 -39 -26 -27 -44 4 -8 15 -11 24 -8 11 4 16 0
18 -13 0 -11 1 -26 2 -32 1 -7 -4 -12 -9 -11 -6 1 -11 -6 -11 -16 0 -24 29
-21 39 4 6 15 10 16 16 6 7 -10 13 -11 30 -2 17 10 21 9 21 -3 0 -18 16 -29
30 -21 7 4 7 13 0 26 -10 18 -7 21 16 18 14 -2 22 26 12 39 -8 9 -8 16 0 24 7
7 12 8 12 3 0 -5 7 1 16 13 23 33 54 29 54 -8 0 -19 7 -33 20 -40 10 -6 17
-16 14 -23 -3 -10 6 -13 35 -13 35 0 42 4 50 28 12 33 22 35 46 8 19 -22 50
-26 60 -10 4 6 22 8 43 4 79 -13 83 -17 60 -67 -7 -15 -21 -27 -30 -27 -12 0
-18 -10 -20 -37 -3 -35 -5 -38 -30 -35 -31 3 -33 0 -18 -29 8 -14 7 -19 -1
-19 -6 0 -1 -8 12 -19 l23 -18 -22 -12 c-12 -6 -22 -18 -22 -26 0 -22 -20 -29
-33 -10 -15 19 -48 10 -40 -11 3 -8 9 -11 14 -8 5 3 9 0 9 -7 0 -6 8 -18 18
-25 10 -8 12 -13 5 -14 -7 0 -13 -6 -13 -14 0 -18 43 -15 66 4 13 12 17 11 25
-1 12 -19 11 -49 -1 -49 -5 0 -10 -11 -10 -25 0 -15 -6 -25 -14 -25 -8 0 -16
-7 -20 -15 -3 -9 0 -15 9 -15 8 0 15 -7 15 -15 0 -8 -4 -15 -10 -15 -5 0 -7
-13 -4 -29 6 -28 4 -29 -30 -29 -26 0 -36 4 -36 16 0 8 -3 12 -7 9 -3 -4 -17
0 -30 9 -18 11 -24 12 -22 2 1 -7 -1 -21 -6 -31 -4 -10 -5 -21 -1 -24 3 -4 6
1 6 10 0 20 13 21 41 6 11 -6 18 -16 16 -23 -3 -7 1 -13 9 -13 7 0 11 4 9 8
-3 4 13 6 35 6 23 -1 40 -6 40 -12 0 -21 -23 -80 -34 -87 -6 -4 -7 -10 -4 -14
4 -4 15 7 25 25 11 18 26 31 38 31 13 0 16 3 8 8 -7 5 -9 13 -3 21 5 8 4 25
-1 39 -12 32 10 59 38 47 25 -11 46 -12 59 -3 20 14 38 -19 26 -47 -9 -20 -9
-23 4 -18 8 3 21 0 28 -7 12 -9 17 -7 25 9 10 18 15 19 36 9 26 -12 31 -23 16
-33 -6 -3 -3 -17 6 -34 22 -38 12 -62 -25 -57 -20 2 -33 -3 -40 -15 -10 -16
-8 -17 30 -13 37 5 40 3 35 -15 -9 -34 13 -35 26 -2 12 32 47 44 47 16 0 -8
11 -17 24 -21 40 -10 46 -54 8 -54 -16 -1 -16 -2 0 -14 10 -7 14 -16 10 -20
-4 -5 2 -6 13 -4 12 2 20 -3 21 -12 0 -8 4 -23 8 -32 8 -18 -17 -53 -32 -44
-4 2 -9 -7 -10 -21 -1 -13 -4 -29 -8 -34 -7 -12 -34 -12 -34 1 0 6 -8 10 -17
10 -17 -1 -17 -1 0 -14 17 -13 23 -36 10 -36 -5 0 -9 -16 -10 -35 -3 -40 -38
-81 -56 -67 -7 4 -25 5 -42 1 -16 -3 -22 -7 -11 -8 14 -1 17 -6 12 -26 -5 -18
-1 -27 15 -36 15 -8 19 -8 15 0 -4 6 0 11 8 11 9 0 17 5 17 10 1 6 2 14 3 20
3 27 56 65 56 40 0 -5 5 -10 12 -10 7 0 5 7 -4 18 -10 11 -14 28 -11 49 5 33
26 44 37 21 3 -7 3 -3 0 10 -3 13 -1 22 6 22 6 0 9 4 6 9 -3 4 9 24 27 45 32
35 33 36 57 19 14 -9 33 -26 43 -36 9 -11 17 -15 17 -8 0 8 5 8 20 -1 11 -7
20 -18 20 -25 0 -7 6 -10 14 -7 8 3 21 -4 29 -16 9 -13 17 -17 22 -11 3 6 3
11 -2 12 -4 1 3 5 17 9 l25 8 -23 7 c-19 6 -20 10 -10 23 11 13 10 14 -9 4
-12 -7 -23 -17 -25 -23 -2 -6 -15 0 -31 13 -22 20 -25 26 -15 38 11 12 10 12
-4 1 -14 -10 -18 -11 -18 -1 0 7 -7 10 -15 6 -8 -3 -18 1 -22 8 -5 8 -17 15
-28 17 -16 3 -21 13 -23 47 -3 42 -2 43 20 36 19 -6 21 -5 11 8 -10 11 -10 17
0 27 10 10 8 12 -8 9 -14 -2 -21 3 -23 19 -2 16 2 23 12 23 9 0 17 5 17 10 1
6 2 16 3 23 0 6 11 13 23 15 16 2 26 -4 35 -22 6 -14 14 -26 18 -26 15 0 19
14 8 33 -8 16 -7 23 6 32 23 17 20 23 -9 17 -14 -2 -25 0 -26 4 -8 83 -6 105
14 115 16 9 22 8 29 -5 12 -21 28 -21 28 0 0 10 6 14 15 10 18 -6 20 5 4 21
-18 18 -3 46 20 38 11 -3 26 1 35 10 9 9 24 15 33 13 20 -4 36 -65 20 -75 -6
-3 -1 -10 12 -15 18 -6 21 -13 15 -30 -7 -23 -6 -23 14 -5 19 18 22 18 44 3
13 -9 22 -20 21 -24 0 -4 3 -14 8 -22 5 -9 9 -10 9 -3 0 6 -4 14 -9 17 -5 4
-8 17 -7 30 2 14 -1 23 -8 20 -6 -2 -24 7 -41 20 -34 28 -26 47 19 49 17 1 26
8 26 19 0 23 20 34 31 17 5 -8 9 -9 9 -3 0 6 -6 17 -14 23 -11 9 -17 8 -28 -7
-21 -30 -46 -34 -54 -9 -4 12 -12 25 -18 29 -7 5 -4 12 9 22 19 14 19 15 -8
21 -17 5 -27 14 -27 26 0 10 -4 19 -10 19 -5 0 -10 11 -10 25 0 27 13 31 54
15 18 -6 26 -6 26 1 0 6 7 8 16 5 10 -4 14 -1 11 6 -2 7 -12 12 -21 12 -13 -2
-15 3 -10 20 4 11 11 24 16 27 6 4 5 9 -2 14 -6 4 -17 2 -23 -4 -14 -14 -27
-14 -27 0 0 7 -8 18 -17 25 -17 12 -17 14 2 29 14 11 16 18 8 21 -7 3 -13 12
-13 20 0 9 -7 14 -17 12 -11 -2 -19 5 -21 17 -2 11 -14 30 -27 42 -34 33 -41
64 -19 80 11 8 29 11 41 8 13 -3 31 0 42 7 17 10 22 9 38 -10 l18 -22 35 30
c19 16 41 30 48 30 11 0 17 -20 13 -43 -1 -4 6 -10 14 -13 8 -4 15 -14 15 -23
1 -13 5 -11 20 7 11 13 24 21 30 17 5 -3 10 3 10 14 0 13 7 21 16 21 13 0 15
7 10 33 -5 29 -3 34 25 46 34 15 39 12 42 -18 1 -11 6 -21 12 -22 22 -1 59
-10 64 -14 2 -3 -5 -15 -17 -28 -12 -13 -22 -25 -22 -28 0 -9 49 -8 55 1 4 6
11 8 16 5 13 -9 11 -53 -3 -58 -10 -4 -10 -6 -1 -6 7 -1 10 -8 7 -18 -5 -14
-4 -15 4 -4 6 8 15 10 22 6 8 -5 11 -4 6 3 -3 6 -1 14 5 18 8 5 8 9 -1 14 -19
12 -4 41 16 33 12 -4 15 -3 10 5 -12 19 15 14 30 -5 12 -17 13 -16 14 5 0 14
-6 22 -17 22 -13 0 -14 3 -6 11 6 6 9 18 6 25 -3 9 2 14 17 14 15 0 20 5 18
18 -2 12 -11 16 -32 14 -25 -3 -28 -1 -21 15 12 31 12 47 1 72 -8 19 -7 26 9
37 17 13 21 13 32 -2 6 -9 17 -13 23 -9 7 4 17 1 22 -6 7 -11 11 -11 15 -1 2
6 11 12 19 12 9 0 12 5 8 11 -3 6 -1 15 7 19 10 7 10 11 0 24 -14 17 -5 40 13
33 7 -3 21 8 30 24 19 32 56 40 56 11 0 -9 10 -23 21 -30 16 -10 18 -17 10
-25 -6 -6 -11 -18 -11 -26 0 -8 3 -11 6 -8 4 3 16 0 27 -8 16 -11 24 -12 34
-3 11 9 15 7 20 -10 3 -12 9 -22 14 -22 5 0 9 -7 9 -15 0 -13 -19 -20 -44 -16
-5 1 -6 -5 -2 -14 3 -9 6 -21 6 -26 0 -5 7 -9 15 -9 8 0 12 6 9 13 -3 10 4 14
26 15 17 0 28 -3 25 -8 -3 -5 0 -12 7 -16 7 -4 10 -4 6 0 -12 14 15 35 30 24
9 -8 12 -4 12 16 0 14 -4 26 -10 26 -24 0 -7 27 23 38 46 17 50 15 45 -13 -5
-25 5 -34 17 -15 4 6 10 8 15 5 5 -3 18 4 28 16 13 13 22 17 27 10 3 -6 17
-11 31 -11 18 0 24 -5 24 -23 0 -13 -4 -27 -10 -33 -6 -6 -4 -19 5 -38 20 -38
20 -39 -15 -54 -29 -13 -44 -37 -16 -26 18 7 31 -27 14 -38 -9 -5 -7 -8 7 -8
22 0 49 -35 40 -50 -4 -6 -4 -10 -1 -10 3 0 10 10 17 21 8 15 8 19 0 15 -6 -4
-14 1 -18 11 -4 10 -11 21 -17 26 -7 5 -6 11 5 17 11 6 15 18 11 36 -4 22 -2
26 11 21 11 -4 14 -2 10 9 -3 7 -9 14 -15 14 -9 0 -4 77 6 87 3 3 13 2 23 -2
22 -10 28 -11 73 -20 24 -4 32 -3 25 4 -6 6 -23 12 -38 13 -14 1 -36 10 -48
19 -22 16 -22 17 -4 35 10 11 22 19 27 19 4 0 8 3 8 8 0 4 0 17 -1 30 l0 22
-11 -22 c-6 -13 -15 -23 -21 -23 -5 0 -16 -8 -23 -17 -12 -17 -15 -16 -41 10
-25 25 -26 29 -12 40 15 12 15 14 -1 35 -10 12 -24 21 -31 20 -7 -2 -12 10
-13 32 -1 33 1 35 31 35 17 0 35 3 39 7 4 4 12 3 19 -2 8 -7 12 -5 12 5 0 9
-10 15 -24 15 -24 0 -31 14 -13 25 6 3 10 11 10 17 0 7 -6 6 -15 -2 -15 -12
-20 -4 -16 23 2 13 -19 8 -25 -7 -3 -8 -15 -11 -29 -8 -19 3 -23 8 -16 21 11
20 -7 38 -37 36 -12 -1 -22 2 -22 7 0 4 -9 8 -20 8 -28 0 -35 23 -15 54 13 20
21 24 35 16 14 -8 19 -5 24 13 3 12 6 32 6 43 0 26 28 40 36 19 4 -10 14 -13
32 -8 15 3 23 2 19 -4 -3 -5 -2 -15 3 -22 6 -10 9 -9 14 7 4 11 5 26 4 33 -2
8 3 13 9 12 16 -4 11 39 -5 45 -6 2 -8 10 -5 18 3 8 -1 14 -10 14 -24 0 -32
22 -14 35 10 7 17 26 17 43 0 31 20 56 28 34 2 -7 18 -12 36 -12 30 0 33 -3
31 -25 -4 -28 7 -32 25 -10 7 8 16 13 20 10 9 -6 25 33 22 50 -1 6 13 17 31
25 17 7 34 15 37 16 3 2 13 -8 23 -21 14 -19 15 -29 7 -45 -9 -16 -8 -20 5
-20 9 0 13 -4 10 -10 -3 -6 4 -10 17 -10 13 0 34 -8 48 -17 l24 -17 -17 25
c-10 13 -23 24 -30 24 -6 0 -11 8 -11 18 1 9 -2 17 -8 17 -5 0 -7 4 -3 9 3 5
1 12 -5 16 -5 3 -10 15 -10 27 0 15 5 19 19 15 10 -2 25 -1 32 4 11 7 9 9 -7
9 -31 0 -35 9 -16 39 l16 26 -22 -19 c-12 -11 -22 -17 -23 -15 0 2 -2 13 -4
24 -2 11 1 22 6 26 7 4 4 9 -5 12 -12 5 -18 -1 -23 -23 -5 -28 -23 -43 -23
-20 0 6 -6 10 -12 10 -7 0 -19 4 -27 9 -12 8 -12 12 2 26 25 24 4 40 -55 42
-28 1 -51 3 -53 5 -1 2 0 18 2 36 5 29 9 33 29 29 19 -3 22 0 22 25 -1 17 -9
35 -20 41 -22 14 -24 53 -2 61 22 9 24 8 24 -11 1 -16 2 -16 15 1 8 11 15 16
15 10 0 -5 5 -1 11 9 5 9 8 21 5 26 -8 12 21 34 34 26 6 -4 9 -13 6 -20 -3 -9
6 -16 25 -20 16 -4 27 -10 24 -15 -3 -4 3 -14 13 -21 15 -12 16 -12 5 2 -10
12 -10 18 0 28 9 9 7 13 -9 17 -11 3 -24 15 -29 27 -9 18 -6 24 15 34 24 11
25 11 3 12 -22 1 -31 15 -15 24 4 2 2 3 -5 1 -6 -1 -14 0 -17 4 -11 11 -46 12
-46 2 0 -6 -4 -10 -10 -10 -5 0 -10 7 -10 16 0 13 -7 15 -35 11 -32 -5 -39 0
-32 20 1 5 5 7 10 6 13 -5 7 14 -14 41 -15 19 -17 26 -6 26 7 0 19 11 26 24
11 19 18 22 40 16 16 -4 25 -13 25 -24 -1 -10 1 -14 5 -11 14 14 6 54 -11 58
-10 3 -18 11 -18 17 0 7 7 10 18 6 16 -6 16 -5 0 7 -10 8 -15 16 -13 19 3 3
-18 5 -47 4 -61 -1 -83 20 -64 62 10 24 43 26 38 1 -3 -11 -1 -11 9 -2 15 14
4 47 -13 37 -8 -5 -9 -2 -5 9 7 20 -21 30 -56 22 -17 -5 -26 -2 -31 10 -8 22
2 38 20 31 8 -3 14 0 14 7 0 18 -39 39 -61 32 -13 -5 -19 -2 -19 10 0 9 5 13
11 9 7 -4 10 1 7 12 -2 11 -14 21 -28 24 -14 3 -25 12 -25 20 0 8 -8 14 -17
14 -10 -1 -15 2 -12 7 3 5 -3 12 -13 16 -10 4 -20 10 -23 13 -3 4 -29 19 -57
34 -29 14 -53 33 -53 41 0 8 24 27 53 41 28 15 54 30 57 34 3 3 13 9 23 13 10
4 16 11 13 16 -3 5 2 8 12 7 9 0 17 6 17 14 0 8 11 17 25 20 14 3 26 13 28 24
3 11 0 16 -7 12 -6 -4 -11 0 -11 9 0 12 6 15 19 10 22 -7 61 14 61 32 0 7 -6
10 -14 7 -18 -7 -28 9 -20 31 5 12 14 15 31 10 35 -8 63 2 56 22 -4 11 -3 14
5 9 17 -10 28 23 13 37 -10 9 -12 9 -9 -2 5 -25 -28 -23 -38 1 -19 42 3 63 64
62 29 -1 50 1 47 4 -2 3 3 11 13 19 16 12 16 13 0 7 -11 -4 -18 -1 -18 6 0 6
8 14 18 17 17 4 25 44 11 58 -4 3 -6 -1 -5 -11 0 -11 -9 -20 -25 -24 -22 -6
-29 -3 -40 16 -7 13 -19 24 -26 24 -11 0 -9 7 6 26 21 27 27 46 14 42 -5 -2
-9 0 -10 5 -7 20 0 25 32 20 28 -4 35 -2 35 11 0 9 5 16 10 16 6 0 10 -4 10
-10 0 -10 35 -9 46 2 3 4 11 5 17 4 7 -2 9 -1 5 1 -16 9 -7 23 15 24 22 1 21
1 -3 12 -21 10 -24 16 -15 34 5 12 18 24 29 27 15 4 17 8 8 19 -9 10 -8 17 1
27 10 12 9 12 -5 1 -10 -7 -16 -17 -13 -21 3 -5 -8 -11 -24 -15 -19 -4 -28
-11 -25 -20 3 -7 0 -16 -6 -20 -13 -8 -42 14 -34 26 3 5 0 17 -5 26 -6 10 -11
14 -11 9 0 -6 -7 -1 -15 10 -14 18 -14 18 -15 0 0 -12 -5 -16 -16 -12 -9 3
-18 6 -20 6 -13 0 -1 47 14 57 11 6 19 24 20 41 0 25 -3 28 -22 25 -20 -4 -24
0 -29 29 -2 18 -3 34 -2 36 2 2 25 4 53 5 59 2 80 18 55 42 -14 14 -14 18 -2
26 8 5 20 9 27 9 6 0 12 5 12 10 0 23 18 8 23 -20 5 -22 11 -28 23 -23 9 3 12
8 5 12 -5 4 -8 15 -6 26 2 11 4 22 4 24 1 2 11 -4 23 -15 l22 -19 -16 26 c-19
30 -15 39 16 39 16 0 18 2 7 9 -7 5 -22 6 -32 4 -14 -4 -19 0 -19 15 0 12 5
24 10 27 6 4 8 11 5 16 -4 5 -2 9 3 9 6 0 9 8 8 17 0 10 5 18 11 18 7 0 20 11
30 24 l17 25 -24 -17 c-14 -9 -35 -17 -48 -17 -13 0 -20 -4 -17 -10 3 -5 -1
-10 -10 -10 -13 0 -14 -4 -5 -20 8 -16 7 -26 -7 -45 -10 -13 -20 -23 -23 -21
-3 1 -20 9 -37 16 -18 8 -32 19 -31 25 3 17 -13 56 -22 50 -4 -3 -13 2 -20 10
-18 22 -29 18 -25 -10 2 -22 -1 -25 -31 -25 -18 0 -34 -5 -36 -12 -8 -22 -28
3 -28 34 0 17 -7 36 -17 43 -18 13 -10 35 14 35 9 0 13 6 10 14 -3 8 -1 16 5
18 16 6 21 49 5 45 -6 -1 -11 4 -9 12 1 7 0 22 -4 33 -5 16 -8 17 -14 7 -5 -7
-6 -17 -3 -22 4 -6 -4 -7 -19 -4 -18 5 -28 2 -32 -8 -8 -21 -36 -7 -36 19 0
11 -3 31 -6 43 -5 18 -10 21 -24 13 -14 -8 -22 -4 -35 16 -20 31 -13 54 15 54
11 0 20 4 20 8 0 5 10 8 22 7 30 -2 48 16 37 36 -7 13 -3 18 16 21 14 3 26 0
29 -8 6 -15 27 -20 25 -6 -4 26 1 34 16 22 9 -8 15 -9 15 -2 0 6 -4 14 -10 17
-18 11 -11 25 13 25 14 0 24 6 24 15 0 10 -4 12 -12 5 -7 -5 -15 -6 -19 -2 -4
4 -22 7 -39 7 -30 0 -32 2 -31 35 1 22 6 34 13 32 7 -1 21 8 31 20 16 21 16
23 1 35 -14 11 -13 15 12 40 26 26 29 27 41 11 7 -10 18 -18 23 -18 6 0 15
-10 21 -22 l11 -23 0 23 c1 12 1 25 1 30 0 4 -4 7 -8 7 -5 0 -17 8 -27 19 -18
18 -18 19 4 35 12 9 34 18 48 19 15 1 32 7 38 13 7 7 -1 8 -25 4 -45 -9 -51
-10 -73 -20 -10 -4 -20 -5 -23 -2 -10 10 -15 87 -6 87 6 0 12 7 15 14 4 11 1
13 -10 9 -13 -5 -15 -1 -11 21 4 18 0 30 -11 36 -11 6 -12 12 -5 17 6 5 13 16
17 26 4 10 12 15 18 11 8 -4 8 0 0 15 -7 11 -14 21 -17 21 -3 0 -3 -4 1 -10 9
-15 -18 -50 -40 -50 -14 0 -16 -3 -7 -8 17 -11 4 -45 -14 -38 -28 11 -13 -13
16 -26 35 -15 35 -16 15 -54 -9 -19 -11 -32 -5 -38 6 -6 10 -20 10 -33 0 -18
-6 -23 -24 -23 -14 0 -28 -5 -31 -11 -5 -7 -14 -3 -27 10 -10 12 -23 19 -28
16 -5 -3 -11 -1 -15 5 -12 19 -22 10 -17 -15 5 -28 1 -30 -45 -13 -30 11 -47
38 -23 38 6 0 10 12 10 26 0 20 -3 24 -12 16 -15 -11 -42 10 -30 24 4 4 1 4
-6 0 -7 -4 -10 -11 -7 -16 3 -5 -8 -8 -25 -8 -22 1 -29 5 -26 15 3 7 -1 13 -9
13 -8 0 -15 -4 -15 -9 0 -5 -3 -17 -6 -26 -4 -9 -3 -15 2 -14 25 4 44 -3 44
-16 0 -8 -4 -15 -9 -15 -5 0 -11 -10 -14 -22 -5 -17 -9 -19 -20 -10 -10 9 -18
8 -34 -3 -11 -8 -23 -11 -27 -8 -3 3 -6 0 -6 -8 0 -8 5 -20 11 -26 8 -8 6 -15
-10 -25 -11 -7 -21 -21 -21 -30 0 -29 -37 -21 -56 11 -9 16 -23 27 -30 24 -18
-7 -27 16 -13 33 10 13 10 17 0 24 -8 4 -10 13 -7 19 4 6 1 11 -8 11 -8 0 -17
6 -19 13 -4 9 -8 9 -15 -2 -5 -7 -15 -10 -22 -6 -6 4 -17 0 -23 -9 -11 -15
-15 -15 -32 -2 -16 11 -17 18 -9 37 11 25 11 41 -1 72 -7 16 -4 18 21 15 21
-2 30 2 32 15 2 12 -3 17 -18 17 -15 0 -20 5 -17 14 3 7 0 19 -6 25 -8 8 -7
11 6 11 11 0 17 8 17 23 -1 20 -2 21 -14 5 -15 -20 -42 -25 -30 -6 5 8 2 9
-10 5 -20 -8 -35 21 -16 33 9 5 9 9 1 14 -6 4 -8 12 -5 18 5 7 2 8 -6 3 -7 -4
-16 -2 -22 6 -8 11 -9 10 -5 -3 3 -9 1 -19 -6 -22 -9 -3 -9 -5 1 -5 6 -1 12
-12 12 -25 0 -27 -15 -42 -25 -26 -6 9 -55 10 -55 1 0 -3 10 -15 22 -28 12
-13 19 -25 17 -28 -5 -4 -42 -13 -64 -14 -6 -1 -11 -11 -12 -22 -3 -30 -8 -33
-42 -18 -28 12 -30 17 -25 46 5 26 3 33 -10 33 -9 0 -16 8 -16 21 0 11 -5 17
-10 14 -6 -4 -19 4 -30 17 -15 18 -19 20 -20 7 0 -9 -7 -19 -15 -23 -8 -3 -15
-9 -14 -13 4 -23 -2 -43 -13 -43 -7 0 -29 14 -48 30 l-35 30 -18 -22 c-16 -19
-21 -20 -38 -10 -11 7 -29 10 -42 7 -12 -3 -30 0 -41 8 -22 16 -15 47 19 80
13 12 25 31 27 42 2 12 10 19 21 17 10 -2 17 3 17 12 0 8 6 17 13 20 8 3 6 10
-8 21 -19 15 -19 17 -2 29 9 7 17 18 17 25 0 14 13 14 27 0 6 -6 17 -8 23 -4
7 5 8 10 2 14 -5 3 -12 16 -16 27 -5 17 -3 22 10 20 9 0 19 5 21 12 3 7 -1 10
-11 6 -9 -3 -16 -1 -16 5 0 7 -8 7 -26 1 -41 -16 -54 -12 -54 15 0 14 5 25 10
25 6 0 10 9 10 19 0 12 10 21 27 26 27 6 27 7 8 21 -13 10 -16 17 -9 22 6 4
14 17 18 29 8 25 33 21 54 -9 11 -15 17 -16 28 -7 8 6 14 17 14 23 0 6 -4 5
-9 -3 -11 -17 -31 -6 -31 17 0 11 -9 18 -26 19 -45 2 -53 21 -19 49 17 13 35
22 41 20 7 -3 10 6 8 20 -1 13 2 26 7 30 5 3 9 11 9 17 -1 12 -16 -9 -20 -28
-2 -5 -11 -16 -22 -23 -17 -12 -22 -11 -40 5 -20 18 -21 18 -14 -5 6 -17 3
-24 -15 -30 -13 -5 -18 -12 -12 -15 16 -10 0 -71 -20 -75 -9 -2 -24 4 -33 13
-9 9 -24 13 -35 10 -23 -8 -38 20 -20 38 16 16 14 27 -4 21 -9 -4 -15 0 -15
10 0 21 -16 21 -28 0 -7 -13 -13 -14 -29 -5 -20 10 -22 32 -14 115 1 4 12 6
26 4 29 -6 32 0 9 17 -13 9 -14 16 -6 32 11 19 7 33 -8 33 -4 0 -12 -12 -18
-26 -9 -18 -19 -24 -35 -22 -12 2 -23 9 -23 16 -1 6 -2 17 -3 22 0 6 -8 10
-17 10 -10 0 -14 7 -12 23 2 16 9 21 22 19 16 -3 18 -1 8 10 -9 11 -9 17 1 27
10 11 8 12 -11 6 -22 -6 -23 -5 -20 37 2 34 7 44 23 47 11 2 23 9 28 17 4 7
14 11 22 8 8 -4 15 -1 15 6 0 10 4 9 18 -1 14 -11 15 -11 4 1 -10 12 -7 18 15
38 16 13 29 19 31 13 2 -6 13 -16 25 -23 19 -10 20 -9 9 4 -10 13 -9 17 10 23
l23 7 -23 6 c-13 4 -23 10 -23 15 2 20 0 20 -15 -1 -9 -13 -22 -21 -30 -18 -8
3 -14 0 -14 -7 0 -7 -9 -18 -20 -25 -15 -9 -20 -9 -20 -1 0 7 -8 3 -17 -8 -10
-10 -29 -27 -43 -36 -24 -17 -25 -16 -57 19 -18 21 -30 41 -27 45 3 5 0 9 -6
9 -7 0 -9 9 -6 23 3 12 3 16 0 10 -11 -24 -32 -13 -37 20 -3 21 1 38 11 50 9
10 11 17 4 17 -7 0 -12 -4 -12 -10 0 -25 -53 13 -56 40 -1 6 -2 15 -3 20 0 6
-8 10 -17 10 -8 0 -12 5 -9 10 8 12 5 12 -18 -1z"/>
<path d="M8584 7073 c3 -4 1 -12 -5 -20 -9 -9 -8 -13 0 -13 6 0 11 4 11 9 0 5
8 11 18 13 13 3 12 5 -6 10 -13 4 -21 4 -18 1z"/>
<path d="M9911 5651 c-9 -6 -10 -11 -2 -15 6 -4 11 -3 11 3 0 5 8 12 18 14 12
3 13 5 2 6 -8 0 -21 -3 -29 -8z"/>
<path d="M4616 5123 c-6 -14 -5 -15 5 -6 7 7 10 15 7 18 -3 3 -9 -2 -12 -12z"/>
<path d="M4627 5087 c-4 -11 -12 -15 -19 -11 -7 4 -5 -1 4 -11 21 -22 31 -16
26 17 -3 20 -4 21 -11 5z"/>
<path d="M5346 5083 c-4 -9 -3 -20 1 -24 4 -4 9 3 9 17 2 28 -1 31 -10 7z"/>
<path d="M5370 5030 c0 -11 -7 -20 -15 -20 -8 0 -15 -4 -15 -10 0 -14 12 -12
37 8 19 15 20 19 7 30 -12 11 -14 9 -14 -8z"/>
<path d="M4613 5020 c1 -19 -3 -26 -21 -28 -12 -2 -20 -8 -16 -13 3 -5 10 -6
16 -3 6 4 14 1 18 -6 12 -19 22 38 10 58 -8 14 -9 13 -7 -8z"/>
<path d="M4518 4973 c7 -3 16 -2 19 1 4 3 -2 6 -13 5 -11 0 -14 -3 -6 -6z"/>
<path d="M10135 4969 c-4 -6 -5 -12 -2 -15 2 -3 7 2 10 11 7 17 1 20 -8 4z"/>
<path d="M4135 4310 c-16 -7 -17 -9 -3 -9 9 -1 20 4 23 9 7 11 7 11 -20 0z"/>
<path d="M3891 3944 c0 -11 3 -14 6 -6 3 7 2 16 -1 19 -3 4 -6 -2 -5 -13z"/>
<path d="M3426 3905 c4 -8 8 -15 10 -15 2 0 4 7 4 15 0 8 -4 15 -10 15 -5 0
-7 -7 -4 -15z"/>
<path d="M3426 3785 c-3 -8 -1 -15 4 -15 6 0 10 7 10 15 0 8 -2 15 -4 15 -2 0
-6 -7 -10 -15z"/>
<path d="M3891 3744 c0 -11 3 -14 6 -6 3 7 2 16 -1 19 -3 4 -6 -2 -5 -13z"/>
<path d="M4120 3386 c0 -2 9 -6 20 -9 11 -3 18 -1 14 4 -5 9 -34 13 -34 5z"/>
<path d="M10130 2731 c0 -6 4 -13 10 -16 6 -3 7 1 4 9 -7 18 -14 21 -14 7z"/>
<path d="M4611 2721 c-1 -7 -7 -11 -16 -8 -8 4 -17 2 -20 -3 -3 -5 5 -10 17
-12 18 -2 22 -9 21 -28 -2 -22 -1 -23 8 -7 7 12 7 26 0 45 -5 15 -10 21 -10
13z"/>
<path d="M4518 2713 c7 -3 16 -2 19 1 4 3 -2 6 -13 5 -11 0 -14 -3 -6 -6z"/>
<path d="M5340 2690 c0 -5 7 -10 15 -10 8 0 15 -9 15 -20 0 -17 2 -19 14 -8
13 11 12 15 -7 30 -25 20 -37 22 -37 8z"/>
<path d="M4609 2623 c-8 -10 -9 -14 -2 -10 7 4 16 0 22 -10 9 -16 10 -14 11
10 0 31 -11 35 -31 10z"/>
<path d="M5345 2630 c-3 -5 -2 -18 4 -27 7 -14 9 -12 8 10 -2 30 -3 31 -12 17z"/>
<path d="M4616 2567 c3 -10 9 -15 12 -12 3 3 0 11 -7 18 -10 9 -11 8 -5 -6z"/>
<path d="M9907 2053 c-8 -12 30 -29 40 -19 4 3 -1 6 -9 6 -9 0 -18 5 -20 12
-3 9 -6 9 -11 1z"/>
<path d="M8579 637 c6 -8 8 -16 5 -20 -3 -3 5 -3 18 1 18 5 19 7 6 10 -10 2
-18 8 -18 13 0 5 -5 9 -11 9 -8 0 -9 -4 0 -13z"/>
<path d="M8080 420 c0 -5 5 -10 11 -10 5 0 7 5 4 10 -3 6 -8 10 -11 10 -2 0
-4 -4 -4 -10z"/>
</g>
</svg>
