<?xml version="1.0" encoding="UTF-8" standalone="no"?>
<!DOCTYPE svg PUBLIC "-//W3C//DTD SVG 1.1//EN"
 "http://www.w3.org/Graphics/SVG/1.1/DTD/svg11.dtd">
<!-- Generated by graphviz version 2.50.0 (0)
 -->
<!-- Pages: 1 -->
<svg width="1143pt" height="411pt"
 viewBox="0.00 0.00 1143.02 410.53" xmlns="http://www.w3.org/2000/svg" xmlns:xlink="http://www.w3.org/1999/xlink">
<g id="graph0" class="graph" transform="scale(1 1) rotate(0) translate(4 406.53)">
<polygon fill="white" stroke="transparent" points="-4,4 -4,-406.53 1139.02,-406.53 1139.02,4 -4,4"/>
<g id="clust1" class="cluster">
<title>cluster_legend</title>
<polygon fill="none" stroke="black" points="8,-8 8,-161 409.27,-161 409.27,-8 8,-8"/>
<text text-anchor="middle" x="208.64" y="-149" font-family="Times,serif" font-size="10.00">Legend</text>
</g>
<!-- legend_internal -->
<g id="node1" class="node">
<title>legend_internal</title>
<ellipse fill="none" stroke="black" cx="74.69" cy="-75" rx="58.88" ry="58.88"/>
<text text-anchor="middle" x="74.69" y="-81.4" font-family="Times,serif" font-size="7.00">Internal Node ID</text>
<text text-anchor="middle" x="74.69" y="-73.4" font-family="Times,serif" font-size="7.00">&#39;Prefix&#39;</text>
<text text-anchor="middle" x="74.69" y="-65.4" font-family="Times,serif" font-size="7.00">Mass (if provided)</text>
</g>
<!-- legend_leaf -->
<g id="node2" class="node">
<title>legend_leaf</title>
<ellipse fill="none" stroke="black" cx="342.83" cy="-75" rx="54.4" ry="54.4"/>
<ellipse fill="none" stroke="black" cx="342.83" cy="-75" rx="58.39" ry="58.39"/>
<text text-anchor="middle" x="342.83" y="-73.4" font-family="Times,serif" font-size="7.00">Complete Token</text>
</g>
<!-- legend_internal&#45;&gt;legend_leaf -->
<g id="edge1" class="edge">
<title>legend_internal&#45;&gt;legend_leaf</title>
<path fill="none" stroke="black" d="M133.44,-75C174.76,-75 230.54,-75 273.99,-75"/>
<polygon fill="black" stroke="black" points="274.19,-78.5 284.19,-75 274.19,-71.5 274.19,-78.5"/>
<text text-anchor="middle" x="208.88" y="-78" font-family="Times,serif" font-size="10.00">Character (Byte value)</text>
</g>
<!-- 0 -->
<g id="node3" class="node">
<title>0</title>
<ellipse fill="#ffffff" stroke="black" cx="874.98" cy="-366" rx="32.55" ry="32.55"/>
<ellipse fill="none" stroke="black" cx="874.98" cy="-366" rx="36.55" ry="36.55"/>
<text text-anchor="middle" x="874.98" y="-369.8" font-family="Times,serif" font-size="14.00">0</text>
<text text-anchor="middle" x="874.98" y="-354.8" font-family="Times,serif" font-size="14.00">&#39;cat&#39;</text>
</g>
<!-- 1 -->
<g id="node4" class="node">
<title>1</title>
<ellipse fill="#ffffff" stroke="black" cx="1090" cy="-274" rx="37.46" ry="37.46"/>
<ellipse fill="none" stroke="black" cx="1090" cy="-274" rx="41.45" ry="41.45"/>
<text text-anchor="middle" x="1090" y="-277.8" font-family="Times,serif" font-size="14.00">1</text>
<text text-anchor="middle" x="1090" y="-262.8" font-family="Times,serif" font-size="14.00">&#39;cats&#39;</text>
</g>
<!-- 2 -->
<g id="node5" class="node">
<title>2</title>
<ellipse fill="#ffffff" stroke="black" cx="874.98" cy="-274" rx="37.45" ry="37.45"/>
<text text-anchor="middle" x="874.98" y="-277.8" font-family="Times,serif" font-size="14.00">2</text>
<text text-anchor="middle" x="874.98" y="-262.8" font-family="Times,serif" font-size="14.00">&#39;cats&#39;</text>
</g>
<!-- 2&#45;&gt;1 -->
<g id="edge2" class="edge">
<title>2&#45;&gt;1</title>
<path fill="none" stroke="black" d="M912.6,-274C947.33,-274 999.8,-274 1038.49,-274"/>
<polygon fill="black" stroke="black" points="1038.51,-277.5 1048.51,-274 1038.51,-270.5 1038.51,-277.5"/>
<text text-anchor="middle" x="980.49" y="-277.8" font-family="Times,serif" font-size="14.00">End&#45;of&#45;Token</text>
</g>
<!-- 3 -->
<g id="node6" class="node">
<title>3</title>
<ellipse fill="#ffffff" stroke="black" cx="669.61" cy="-274" rx="32.55" ry="32.55"/>
<text text-anchor="middle" x="669.61" y="-277.8" font-family="Times,serif" font-size="14.00">3</text>
<text text-anchor="middle" x="669.61" y="-262.8" font-family="Times,serif" font-size="14.00">&#39;cat&#39;</text>
</g>
<!-- 3&#45;&gt;0 -->
<g id="edge3" class="edge">
<title>3&#45;&gt;0</title>
<path fill="none" stroke="black" d="M699.75,-287.18C734.42,-302.87 792.58,-329.17 832.07,-347.04"/>
<polygon fill="black" stroke="black" points="830.64,-350.23 841.19,-351.17 833.52,-343.86 830.64,-350.23"/>
<text text-anchor="middle" x="769.47" y="-341.8" font-family="Times,serif" font-size="14.00">End&#45;of&#45;Token</text>
</g>
<!-- 3&#45;&gt;2 -->
<g id="edge4" class="edge">
<title>3&#45;&gt;2</title>
<path fill="none" stroke="black" d="M702.39,-274C735.78,-274 788.66,-274 826.9,-274"/>
<polygon fill="black" stroke="black" points="827.27,-277.5 837.27,-274 827.27,-270.5 827.27,-277.5"/>
<text text-anchor="middle" x="769.47" y="-277.8" font-family="Times,serif" font-size="14.00">s (115)</text>
</g>
<!-- 4 -->
<g id="node7" class="node">
<title>4</title>
<ellipse fill="#ffffff" stroke="black" cx="517.27" cy="-271" rx="28.07" ry="28.07"/>
<text text-anchor="middle" x="517.27" y="-274.8" font-family="Times,serif" font-size="14.00">4</text>
<text text-anchor="middle" x="517.27" y="-259.8" font-family="Times,serif" font-size="14.00">&#39;ca&#39;</text>
</g>
<!-- 4&#45;&gt;3 -->
<g id="edge5" class="edge">
<title>4&#45;&gt;3</title>
<path fill="none" stroke="black" d="M545.84,-271.55C568.49,-272 600.94,-272.65 626.78,-273.17"/>
<polygon fill="black" stroke="black" points="626.98,-276.67 637.05,-273.37 627.12,-269.67 626.98,-276.67"/>
<text text-anchor="middle" x="590.26" y="-275.8" font-family="Times,serif" font-size="14.00">t (116)</text>
</g>
<!-- 5 -->
<g id="node8" class="node">
<title>5</title>
<ellipse fill="#ffffff" stroke="black" cx="342.83" cy="-269" rx="26.74" ry="26.74"/>
<text text-anchor="middle" x="342.83" y="-272.8" font-family="Times,serif" font-size="14.00">5</text>
<text text-anchor="middle" x="342.83" y="-257.8" font-family="Times,serif" font-size="14.00">&#39;c&#39;</text>
</g>
<!-- 5&#45;&gt;4 -->
<g id="edge6" class="edge">
<title>5&#45;&gt;4</title>
<path fill="none" stroke="black" d="M370.02,-269.3C399.01,-269.64 445.97,-270.18 478.84,-270.57"/>
<polygon fill="black" stroke="black" points="478.93,-274.07 488.97,-270.68 479.01,-267.07 478.93,-274.07"/>
<text text-anchor="middle" x="444.77" y="-273.8" font-family="Times,serif" font-size="14.00">a (97)</text>
</g>
<!-- 6 -->
<g id="node9" class="node">
<title>6</title>
<ellipse fill="#ffffff" stroke="black" cx="874.98" cy="-179" rx="35.23" ry="35.23"/>
<ellipse fill="none" stroke="black" cx="874.98" cy="-179" rx="39.21" ry="39.21"/>
<text text-anchor="middle" x="874.98" y="-182.8" font-family="Times,serif" font-size="14.00">6</text>
<text text-anchor="middle" x="874.98" y="-167.8" font-family="Times,serif" font-size="14.00">&#39;dog&#39;</text>
</g>
<!-- 7 -->
<g id="node10" class="node">
<title>7</title>
<ellipse fill="#ffffff" stroke="black" cx="1090" cy="-81" rx="41.02" ry="41.02"/>
<ellipse fill="none" stroke="black" cx="1090" cy="-81" rx="45.02" ry="45.02"/>
<text text-anchor="middle" x="1090" y="-84.8" font-family="Times,serif" font-size="14.00">7</text>
<text text-anchor="middle" x="1090" y="-69.8" font-family="Times,serif" font-size="14.00">&#39;dogs&#39;</text>
</g>
<!-- 8 -->
<g id="node11" class="node">
<title>8</title>
<ellipse fill="#ffffff" stroke="black" cx="874.98" cy="-81" rx="41.02" ry="41.02"/>
<text text-anchor="middle" x="874.98" y="-84.8" font-family="Times,serif" font-size="14.00">8</text>
<text text-anchor="middle" x="874.98" y="-69.8" font-family="Times,serif" font-size="14.00">&#39;dogs&#39;</text>
</g>
<!-- 8&#45;&gt;7 -->
<g id="edge7" class="edge">
<title>8&#45;&gt;7</title>
<path fill="none" stroke="black" d="M916.05,-81C949.54,-81 997.62,-81 1034.59,-81"/>
<polygon fill="black" stroke="black" points="1034.7,-84.5 1044.7,-81 1034.7,-77.5 1034.7,-84.5"/>
<text text-anchor="middle" x="980.49" y="-84.8" font-family="Times,serif" font-size="14.00">End&#45;of&#45;Token</text>
</g>
<!-- 9 -->
<g id="node12" class="node">
<title>9</title>
<ellipse fill="#ffffff" stroke="black" cx="669.61" cy="-179" rx="35.21" ry="35.21"/>
<text text-anchor="middle" x="669.61" y="-182.8" font-family="Times,serif" font-size="14.00">9</text>
<text text-anchor="middle" x="669.61" y="-167.8" font-family="Times,serif" font-size="14.00">&#39;dog&#39;</text>
</g>
<!-- 9&#45;&gt;6 -->
<g id="edge8" class="edge">
<title>9&#45;&gt;6</title>
<path fill="none" stroke="black" d="M705.11,-179C738.15,-179 788.33,-179 825.41,-179"/>
<polygon fill="black" stroke="black" points="825.49,-182.5 835.49,-179 825.49,-175.5 825.49,-182.5"/>
<text text-anchor="middle" x="769.47" y="-182.8" font-family="Times,serif" font-size="14.00">End&#45;of&#45;Token</text>
</g>
<!-- 9&#45;&gt;8 -->
<g id="edge9" class="edge">
<title>9&#45;&gt;8</title>
<path fill="none" stroke="black" d="M701.94,-163.9C735.74,-147.62 789.86,-121.54 828.37,-102.98"/>
<polygon fill="black" stroke="black" points="830.32,-105.93 837.81,-98.43 827.28,-99.62 830.32,-105.93"/>
<text text-anchor="middle" x="769.47" y="-156.8" font-family="Times,serif" font-size="14.00">s (115)</text>
</g>
<!-- 10 -->
<g id="node13" class="node">
<title>10</title>
<ellipse fill="#ffffff" stroke="black" cx="517.27" cy="-194" rx="28.98" ry="28.98"/>
<text text-anchor="middle" x="517.27" y="-197.8" font-family="Times,serif" font-size="14.00">10</text>
<text text-anchor="middle" x="517.27" y="-182.8" font-family="Times,serif" font-size="14.00">&#39;do&#39;</text>
</g>
<!-- 10&#45;&gt;9 -->
<g id="edge10" class="edge">
<title>10&#45;&gt;9</title>
<path fill="none" stroke="black" d="M546.19,-191.21C568.06,-189.03 598.9,-185.96 624.15,-183.44"/>
<polygon fill="black" stroke="black" points="624.63,-186.91 634.24,-182.43 623.94,-179.94 624.63,-186.91"/>
<text text-anchor="middle" x="590.26" y="-193.8" font-family="Times,serif" font-size="14.00">g (103)</text>
</g>
<!-- 11 -->
<g id="node14" class="node">
<title>11</title>
<ellipse fill="#ffffff" stroke="black" cx="342.83" cy="-196" rx="26.74" ry="26.74"/>
<text text-anchor="middle" x="342.83" y="-199.8" font-family="Times,serif" font-size="14.00">11</text>
<text text-anchor="middle" x="342.83" y="-184.8" font-family="Times,serif" font-size="14.00">&#39;d&#39;</text>
</g>
<!-- 11&#45;&gt;10 -->
<g id="edge11" class="edge">
<title>11&#45;&gt;10</title>
<path fill="none" stroke="black" d="M370.02,-195.7C398.75,-195.36 445.15,-194.82 477.97,-194.44"/>
<polygon fill="black" stroke="black" points="478.15,-197.94 488.11,-194.33 478.07,-190.94 478.15,-197.94"/>
<text text-anchor="middle" x="444.77" y="-198.8" font-family="Times,serif" font-size="14.00">o (111)</text>
</g>
<!-- 12 -->
<g id="node15" class="node">
<title>12</title>
<ellipse fill="#ffffff" stroke="black" cx="74.69" cy="-224" rx="26.74" ry="26.74"/>
<text text-anchor="middle" x="74.69" y="-227.8" font-family="Times,serif" font-size="14.00">12</text>
<text text-anchor="middle" x="74.69" y="-212.8" font-family="Times,serif" font-size="14.00">&#39;&#39;</text>
</g>
<!-- 12&#45;&gt;5 -->
<g id="edge12" class="edge">
<title>12&#45;&gt;5</title>
<path fill="none" stroke="black" d="M101.69,-228.4C149.61,-236.5 251.92,-253.8 306.23,-262.98"/>
<polygon fill="black" stroke="black" points="305.67,-266.44 316.11,-264.65 306.83,-259.53 305.67,-266.44"/>
<text text-anchor="middle" x="208.88" y="-258.8" font-family="Times,serif" font-size="14.00">c (99)</text>
</g>
<!-- 12&#45;&gt;11 -->
<g id="edge13" class="edge">
<title>12&#45;&gt;11</title>
<path fill="none" stroke="black" d="M101.69,-221.26C149.39,-216.25 250.97,-205.56 305.48,-199.82"/>
<polygon fill="black" stroke="black" points="306.14,-203.27 315.72,-198.75 305.41,-196.31 306.14,-203.27"/>
<text text-anchor="middle" x="208.88" y="-218.8" font-family="Times,serif" font-size="14.00">d (100)</text>
</g>
</g>
</svg>
