<?xml version="1.0" encoding="UTF-8" standalone="no"?>
<!DOCTYPE svg PUBLIC "-//W3C//DTD SVG 1.1//EN"
 "http://www.w3.org/Graphics/SVG/1.1/DTD/svg11.dtd">
<!-- Generated by graphviz version 2.50.0 (0)
 -->
<!-- Pages: 1 -->
<svg width="1232pt" height="502pt"
 viewBox="0.00 0.00 1231.63 501.67" xmlns="http://www.w3.org/2000/svg" xmlns:xlink="http://www.w3.org/1999/xlink">
<g id="graph0" class="graph" transform="scale(1 1) rotate(0) translate(4 497.67)">
<polygon fill="white" stroke="transparent" points="-4,4 -4,-497.67 1227.63,-497.67 1227.63,4 -4,4"/>
<g id="clust1" class="cluster">
<title>cluster_legend</title>
<polygon fill="none" stroke="black" points="8,-8 8,-161 409.27,-161 409.27,-8 8,-8"/>
<text text-anchor="middle" x="208.64" y="-149" font-family="Times,serif" font-size="10.00">Legend</text>
</g>
<!-- legend_internal -->
<g id="node1" class="node">
<title>legend_internal</title>
<ellipse fill="none" stroke="black" cx="74.69" cy="-75" rx="58.88" ry="58.88"/>
<text text-anchor="middle" x="74.69" y="-81.4" font-family="Times,serif" font-size="7.00">Internal Node ID</text>
<text text-anchor="middle" x="74.69" y="-73.4" font-family="Times,serif" font-size="7.00">&#39;Prefix&#39;</text>
<text text-anchor="middle" x="74.69" y="-65.4" font-family="Times,serif" font-size="7.00">Mass (if provided)</text>
</g>
<!-- legend_leaf -->
<g id="node2" class="node">
<title>legend_leaf</title>
<ellipse fill="none" stroke="black" cx="342.83" cy="-75" rx="54.4" ry="54.4"/>
<ellipse fill="none" stroke="black" cx="342.83" cy="-75" rx="58.39" ry="58.39"/>
<text text-anchor="middle" x="342.83" y="-73.4" font-family="Times,serif" font-size="7.00">Complete Token</text>
</g>
<!-- legend_internal&#45;&gt;legend_leaf -->
<g id="edge1" class="edge">
<title>legend_internal&#45;&gt;legend_leaf</title>
<path fill="none" stroke="black" d="M133.44,-75C174.76,-75 230.54,-75 273.99,-75"/>
<polygon fill="black" stroke="black" points="274.19,-78.5 284.19,-75 274.19,-71.5 274.19,-78.5"/>
<text text-anchor="middle" x="208.88" y="-78" font-family="Times,serif" font-size="10.00">Character (Byte value)</text>
</g>
<!-- 0 -->
<g id="node3" class="node">
<title>0</title>
<ellipse fill="#99ff99" stroke="black" cx="942.62" cy="-443" rx="46.83" ry="46.83"/>
<ellipse fill="none" stroke="black" cx="942.62" cy="-443" rx="50.84" ry="50.84"/>
<text text-anchor="middle" x="942.62" y="-454.3" font-family="Times,serif" font-size="14.00">0</text>
<text text-anchor="middle" x="942.62" y="-439.3" font-family="Times,serif" font-size="14.00">&#39;cat&#39;</text>
<text text-anchor="middle" x="942.62" y="-424.3" font-family="Times,serif" font-size="14.00">0.4000</text>
</g>
<!-- 1 -->
<g id="node4" class="node">
<title>1</title>
<ellipse fill="#e5ffe5" stroke="black" cx="1172.96" cy="-328" rx="46.83" ry="46.83"/>
<ellipse fill="none" stroke="black" cx="1172.96" cy="-328" rx="50.84" ry="50.84"/>
<text text-anchor="middle" x="1172.96" y="-339.3" font-family="Times,serif" font-size="14.00">1</text>
<text text-anchor="middle" x="1172.96" y="-324.3" font-family="Times,serif" font-size="14.00">&#39;cats&#39;</text>
<text text-anchor="middle" x="1172.96" y="-309.3" font-family="Times,serif" font-size="14.00">0.1000</text>
</g>
<!-- 2 -->
<g id="node5" class="node">
<title>2</title>
<ellipse fill="#e5ffe5" stroke="black" cx="942.62" cy="-328" rx="46.84" ry="46.84"/>
<text text-anchor="middle" x="942.62" y="-339.3" font-family="Times,serif" font-size="14.00">2</text>
<text text-anchor="middle" x="942.62" y="-324.3" font-family="Times,serif" font-size="14.00">&#39;cats&#39;</text>
<text text-anchor="middle" x="942.62" y="-309.3" font-family="Times,serif" font-size="14.00">0.1000</text>
</g>
<!-- 2&#45;&gt;1 -->
<g id="edge2" class="edge">
<title>2&#45;&gt;1</title>
<path fill="none" stroke="black" d="M989.55,-328C1024.82,-328 1073.81,-328 1112.14,-328"/>
<polygon fill="black" stroke="black" points="1112.14,-331.5 1122.14,-328 1112.14,-324.5 1112.14,-331.5"/>
<text text-anchor="middle" x="1057.79" y="-331.8" font-family="Times,serif" font-size="14.00">End&#45;of&#45;Token</text>
</g>
<!-- 3 -->
<g id="node6" class="node">
<title>3</title>
<ellipse fill="#7fff7f" stroke="black" cx="716.28" cy="-328" rx="46.84" ry="46.84"/>
<text text-anchor="middle" x="716.28" y="-339.3" font-family="Times,serif" font-size="14.00">3</text>
<text text-anchor="middle" x="716.28" y="-324.3" font-family="Times,serif" font-size="14.00">&#39;cat&#39;</text>
<text text-anchor="middle" x="716.28" y="-309.3" font-family="Times,serif" font-size="14.00">0.5000</text>
</g>
<!-- 3&#45;&gt;0 -->
<g id="edge3" class="edge">
<title>3&#45;&gt;0</title>
<path fill="none" stroke="black" d="M758.17,-348.96C794.63,-367.65 848.26,-395.14 888.12,-415.58"/>
<polygon fill="black" stroke="black" points="886.68,-418.77 897.17,-420.22 889.87,-412.54 886.68,-418.77"/>
<text text-anchor="middle" x="827.45" y="-408.8" font-family="Times,serif" font-size="14.00">End&#45;of&#45;Token</text>
</g>
<!-- 3&#45;&gt;2 -->
<g id="edge4" class="edge">
<title>3&#45;&gt;2</title>
<path fill="none" stroke="black" d="M763.22,-328C798.61,-328 847.69,-328 885.42,-328"/>
<polygon fill="black" stroke="black" points="885.74,-331.5 895.74,-328 885.74,-324.5 885.74,-331.5"/>
<text text-anchor="middle" x="827.45" y="-331.8" font-family="Times,serif" font-size="14.00">s (115)</text>
</g>
<!-- 4 -->
<g id="node7" class="node">
<title>4</title>
<ellipse fill="#7fff7f" stroke="black" cx="534.94" cy="-328" rx="46.84" ry="46.84"/>
<text text-anchor="middle" x="534.94" y="-339.3" font-family="Times,serif" font-size="14.00">4</text>
<text text-anchor="middle" x="534.94" y="-324.3" font-family="Times,serif" font-size="14.00">&#39;ca&#39;</text>
<text text-anchor="middle" x="534.94" y="-309.3" font-family="Times,serif" font-size="14.00">0.5000</text>
</g>
<!-- 4&#45;&gt;3 -->
<g id="edge5" class="edge">
<title>4&#45;&gt;3</title>
<path fill="none" stroke="black" d="M581.66,-328C605.29,-328 634.32,-328 659.27,-328"/>
<polygon fill="black" stroke="black" points="659.33,-331.5 669.33,-328 659.33,-324.5 659.33,-331.5"/>
<text text-anchor="middle" x="625.61" y="-331.8" font-family="Times,serif" font-size="14.00">t (116)</text>
</g>
<!-- 5 -->
<g id="node8" class="node">
<title>5</title>
<ellipse fill="#7fff7f" stroke="black" cx="342.83" cy="-328" rx="46.84" ry="46.84"/>
<text text-anchor="middle" x="342.83" y="-339.3" font-family="Times,serif" font-size="14.00">5</text>
<text text-anchor="middle" x="342.83" y="-324.3" font-family="Times,serif" font-size="14.00">&#39;c&#39;</text>
<text text-anchor="middle" x="342.83" y="-309.3" font-family="Times,serif" font-size="14.00">0.5000</text>
</g>
<!-- 5&#45;&gt;4 -->
<g id="edge6" class="edge">
<title>5&#45;&gt;4</title>
<path fill="none" stroke="black" d="M389.85,-328C416.37,-328 449.91,-328 477.96,-328"/>
<polygon fill="black" stroke="black" points="478.02,-331.5 488.02,-328 478.02,-324.5 478.02,-331.5"/>
<text text-anchor="middle" x="444.77" y="-331.8" font-family="Times,serif" font-size="14.00">a (97)</text>
</g>
<!-- 6 -->
<g id="node9" class="node">
<title>6</title>
<ellipse fill="#b2ffb2" stroke="black" cx="942.62" cy="-213" rx="46.83" ry="46.83"/>
<ellipse fill="none" stroke="black" cx="942.62" cy="-213" rx="50.84" ry="50.84"/>
<text text-anchor="middle" x="942.62" y="-224.3" font-family="Times,serif" font-size="14.00">6</text>
<text text-anchor="middle" x="942.62" y="-209.3" font-family="Times,serif" font-size="14.00">&#39;dog&#39;</text>
<text text-anchor="middle" x="942.62" y="-194.3" font-family="Times,serif" font-size="14.00">0.3000</text>
</g>
<!-- 7 -->
<g id="node10" class="node">
<title>7</title>
<ellipse fill="#ccffcc" stroke="black" cx="1172.96" cy="-98" rx="46.83" ry="46.83"/>
<ellipse fill="none" stroke="black" cx="1172.96" cy="-98" rx="50.84" ry="50.84"/>
<text text-anchor="middle" x="1172.96" y="-109.3" font-family="Times,serif" font-size="14.00">7</text>
<text text-anchor="middle" x="1172.96" y="-94.3" font-family="Times,serif" font-size="14.00">&#39;dogs&#39;</text>
<text text-anchor="middle" x="1172.96" y="-79.3" font-family="Times,serif" font-size="14.00">0.2000</text>
</g>
<!-- 8 -->
<g id="node11" class="node">
<title>8</title>
<ellipse fill="#ccffcc" stroke="black" cx="942.62" cy="-98" rx="46.84" ry="46.84"/>
<text text-anchor="middle" x="942.62" y="-109.3" font-family="Times,serif" font-size="14.00">8</text>
<text text-anchor="middle" x="942.62" y="-94.3" font-family="Times,serif" font-size="14.00">&#39;dogs&#39;</text>
<text text-anchor="middle" x="942.62" y="-79.3" font-family="Times,serif" font-size="14.00">0.2000</text>
</g>
<!-- 8&#45;&gt;7 -->
<g id="edge7" class="edge">
<title>8&#45;&gt;7</title>
<path fill="none" stroke="black" d="M989.55,-98C1024.82,-98 1073.81,-98 1112.14,-98"/>
<polygon fill="black" stroke="black" points="1112.14,-101.5 1122.14,-98 1112.14,-94.5 1112.14,-101.5"/>
<text text-anchor="middle" x="1057.79" y="-101.8" font-family="Times,serif" font-size="14.00">End&#45;of&#45;Token</text>
</g>
<!-- 9 -->
<g id="node12" class="node">
<title>9</title>
<ellipse fill="#7fff7f" stroke="black" cx="716.28" cy="-213" rx="46.84" ry="46.84"/>
<text text-anchor="middle" x="716.28" y="-224.3" font-family="Times,serif" font-size="14.00">9</text>
<text text-anchor="middle" x="716.28" y="-209.3" font-family="Times,serif" font-size="14.00">&#39;dog&#39;</text>
<text text-anchor="middle" x="716.28" y="-194.3" font-family="Times,serif" font-size="14.00">0.5000</text>
</g>
<!-- 9&#45;&gt;6 -->
<g id="edge8" class="edge">
<title>9&#45;&gt;6</title>
<path fill="none" stroke="black" d="M763.22,-213C797.44,-213 844.46,-213 881.64,-213"/>
<polygon fill="black" stroke="black" points="881.84,-216.5 891.84,-213 881.84,-209.5 881.84,-216.5"/>
<text text-anchor="middle" x="827.45" y="-216.8" font-family="Times,serif" font-size="14.00">End&#45;of&#45;Token</text>
</g>
<!-- 9&#45;&gt;8 -->
<g id="edge9" class="edge">
<title>9&#45;&gt;8</title>
<path fill="none" stroke="black" d="M758.17,-192.04C795.69,-172.81 851.37,-144.26 891.55,-123.67"/>
<polygon fill="black" stroke="black" points="893.33,-126.69 900.64,-119.01 890.14,-120.46 893.33,-126.69"/>
<text text-anchor="middle" x="827.45" y="-183.8" font-family="Times,serif" font-size="14.00">s (115)</text>
</g>
<!-- 10 -->
<g id="node13" class="node">
<title>10</title>
<ellipse fill="#7fff7f" stroke="black" cx="534.94" cy="-216" rx="46.84" ry="46.84"/>
<text text-anchor="middle" x="534.94" y="-227.3" font-family="Times,serif" font-size="14.00">10</text>
<text text-anchor="middle" x="534.94" y="-212.3" font-family="Times,serif" font-size="14.00">&#39;do&#39;</text>
<text text-anchor="middle" x="534.94" y="-197.3" font-family="Times,serif" font-size="14.00">0.5000</text>
</g>
<!-- 10&#45;&gt;9 -->
<g id="edge10" class="edge">
<title>10&#45;&gt;9</title>
<path fill="none" stroke="black" d="M581.66,-215.24C605.29,-214.84 634.32,-214.35 659.27,-213.94"/>
<polygon fill="black" stroke="black" points="659.39,-217.44 669.33,-213.77 659.28,-210.44 659.39,-217.44"/>
<text text-anchor="middle" x="625.61" y="-218.8" font-family="Times,serif" font-size="14.00">g (103)</text>
</g>
<!-- 11 -->
<g id="node14" class="node">
<title>11</title>
<ellipse fill="#7fff7f" stroke="black" cx="342.83" cy="-216" rx="46.84" ry="46.84"/>
<text text-anchor="middle" x="342.83" y="-227.3" font-family="Times,serif" font-size="14.00">11</text>
<text text-anchor="middle" x="342.83" y="-212.3" font-family="Times,serif" font-size="14.00">&#39;d&#39;</text>
<text text-anchor="middle" x="342.83" y="-197.3" font-family="Times,serif" font-size="14.00">0.5000</text>
</g>
<!-- 11&#45;&gt;10 -->
<g id="edge11" class="edge">
<title>11&#45;&gt;10</title>
<path fill="none" stroke="black" d="M389.85,-216C416.37,-216 449.91,-216 477.96,-216"/>
<polygon fill="black" stroke="black" points="478.02,-219.5 488.02,-216 478.02,-212.5 478.02,-219.5"/>
<text text-anchor="middle" x="444.77" y="-219.8" font-family="Times,serif" font-size="14.00">o (111)</text>
</g>
<!-- 12 -->
<g id="node15" class="node">
<title>12</title>
<ellipse fill="#00ff00" stroke="black" cx="74.69" cy="-253" rx="46.84" ry="46.84"/>
<text text-anchor="middle" x="74.69" y="-264.3" font-family="Times,serif" font-size="14.00">12</text>
<text text-anchor="middle" x="74.69" y="-249.3" font-family="Times,serif" font-size="14.00">&#39;&#39;</text>
<text text-anchor="middle" x="74.69" y="-234.3" font-family="Times,serif" font-size="14.00">1.0000</text>
</g>
<!-- 12&#45;&gt;5 -->
<g id="edge12" class="edge">
<title>12&#45;&gt;5</title>
<path fill="none" stroke="black" d="M119.94,-265.47C165.98,-278.45 238.15,-298.78 287.59,-312.72"/>
<polygon fill="black" stroke="black" points="286.9,-316.16 297.48,-315.5 288.8,-309.42 286.9,-316.16"/>
<text text-anchor="middle" x="208.88" y="-308.8" font-family="Times,serif" font-size="14.00">c (99)</text>
</g>
<!-- 12&#45;&gt;11 -->
<g id="edge13" class="edge">
<title>12&#45;&gt;11</title>
<path fill="none" stroke="black" d="M121.14,-246.68C166.88,-240.32 237.48,-230.51 286.46,-223.7"/>
<polygon fill="black" stroke="black" points="287.14,-227.14 296.57,-222.29 286.18,-220.2 287.14,-227.14"/>
<text text-anchor="middle" x="208.88" y="-245.8" font-family="Times,serif" font-size="14.00">d (100)</text>
</g>
</g>
</svg>
