<?xml version="1.0" encoding="UTF-8" standalone="no"?>
<!-- Created with Inkscape (http://www.inkscape.org/) -->

<svg
   width="200"
   height="100"
   viewBox="0 0 52.916664 26.458334"
   version="1.1"
   id="svg5"
   inkscape:version="1.1.2 (0a00cf5339, 2022-02-04)"
   sodipodi:docname="logo.svg"
   inkscape:export-filename="/home/luc/work/ss/docs/dl/logo.png"
   inkscape:export-xdpi="96"
   inkscape:export-ydpi="96"
   xmlns:inkscape="http://www.inkscape.org/namespaces/inkscape"
   xmlns:sodipodi="http://sodipodi.sourceforge.net/DTD/sodipodi-0.dtd"
   xmlns="http://www.w3.org/2000/svg"
   xmlns:svg="http://www.w3.org/2000/svg"
   xmlns:rdf="http://www.w3.org/1999/02/22-rdf-syntax-ns#"
   xmlns:cc="http://creativecommons.org/ns#">
  <sodipodi:namedview
     id="namedview7"
     pagecolor="#ffffff"
     bordercolor="#666666"
     borderopacity="1.0"
     inkscape:pageshadow="2"
     inkscape:pageopacity="0.0"
     inkscape:pagecheckerboard="0"
     inkscape:document-units="px"
     showgrid="false"
     units="px"
     width="200px"
     inkscape:zoom="4.2675"
     inkscape:cx="47.568834"
     inkscape:cy="54.950205"
     inkscape:window-width="1846"
     inkscape:window-height="1009"
     inkscape:window-x="0"
     inkscape:window-y="0"
     inkscape:window-maximized="1"
     inkscape:current-layer="layer1" />
  <defs
     id="defs2">
    <rect
       x="100.23624"
       y="8.9702263"
       width="93.501616"
       height="78.755985"
       id="rect20449" />
    <marker
       inkscape:stockid="DistanceStart"
       orient="auto"
       refY="0.0"
       refX="0.0"
       id="DistanceStart"
       style="overflow:visible"
       inkscape:isstock="true">
      <g
         id="g2300">
        <path
           id="path2306"
           d="M 0,0 L 2,0"
           style="fill:none;stroke:context-fill;stroke-width:1.15;stroke-linecap:square" />
        <path
           id="path2302"
           d="M 0,0 L 13,4 L 9,0 13,-4 L 0,0 z "
           style="fill:context-stroke;fill-rule:evenodd;stroke:none" />
        <path
           id="path2304"
           d="M 0,-4 L 0,40"
           style="fill:none;stroke:context-stroke;stroke-width:1;stroke-linecap:square" />
      </g>
    </marker>
    <linearGradient
       id="linearGradient4676"
       inkscape:swatch="gradient">
      <stop
         style="stop-color:#000000;stop-opacity:1;"
         offset="0"
         id="stop4672" />
      <stop
         style="stop-color:#000000;stop-opacity:0;"
         offset="1"
         id="stop4674" />
    </linearGradient>
  </defs>
  <g
     inkscape:groupmode="layer"
     id="layer2"
     inkscape:label="Layer 2"
     style="display:inline">
    <ellipse
       style="fill:#ffcc00;fill-rule:evenodd;stroke-width:0.264583"
       id="path3643"
       cx="17.526947"
       cy="8.4456768"
       rx="2.6463661"
       ry="2.6029541" />
    <path
       style="fill:#ffcc00;stroke:#000000;stroke-width:0.0414239;stroke-linejoin:round;stroke-miterlimit:4;stroke-dasharray:0,0.45566288;stroke-dashoffset:0"
       d="m 10.854554,85.261891 c 1.621075,-1.099752 5.314637,-3.142034 8.573277,-4.740423 5.932286,-2.909836 10.935793,-4.960182 24.647249,-10.099996 10.803035,-4.049576 13.861738,-5.296621 17.398058,-7.093256 2.439688,-1.239488 3.936043,-2.21299 5.016262,-3.263493 1.259796,-1.225138 1.691648,-2.410384 1.297263,-3.560422 -0.330752,-0.964484 -2.216502,-1.95332 -4.895418,-2.567024 -3.659428,-0.838327 -7.51738,-1.136922 -19.313253,-1.494794 -6.009472,-0.18232 -8.653306,-0.32068 -11.805824,-0.617837 -0.911327,-0.0859 -1.992492,-0.180037 -2.402589,-0.209192 -1.10388,-0.07848 -2.897943,-0.348915 -3.590515,-0.541239 -0.756954,-0.210201 -1.386857,-0.524057 -1.508701,-0.751724 -0.598315,-1.117962 3.553039,-3.345481 11.772895,-6.317056 4.340188,-1.569029 11.188075,-3.804629 19.336366,-6.31266 1.136852,-0.349921 2.107019,-0.651575 2.155927,-0.670343 0.04891,-0.01877 0.158597,0.08382 0.243753,0.227983 0.08516,0.144158 0.395411,0.557677 0.689456,0.91893 0.294044,0.361253 0.521777,0.667707 0.506072,0.681009 -0.0157,0.0133 -0.345448,0.127355 -0.732762,0.253452 -0.387314,0.126098 -1.822654,0.619181 -3.189644,1.09574 -7.458929,2.600327 -11.879651,4.550596 -13.213226,5.829216 -0.774234,0.742328 -0.744805,1.438431 0.07845,1.855606 0.959938,0.486437 2.08782,0.60723 6.589793,0.705747 5.136166,0.112396 11.728581,0.399102 16.279611,0.708004 12.171408,0.82614 18.385584,2.345661 20.393041,4.986609 0.612522,0.805815 0.766858,1.292761 0.768487,2.424656 0.0056,3.858472 -3.295005,7.540301 -11.136932,12.423436 -2.129639,1.326117 -3.943589,2.395074 -9.113269,5.370435 -8.131552,4.680037 -11.718201,6.847011 -15.95469,9.639472 l -1.99482,1.314876 H 29.157468 10.566067 Z"
       id="path9507"
       transform="scale(0.26458333)" />
    <path
       style="fill:#ffcc00;stroke:#000000;stroke-width:0.00343188;stroke-linejoin:round;stroke-miterlimit:4;stroke-dasharray:0, 0.0377507;stroke-dashoffset:0"
       d="m 10.894498,85.287265 c 1.431194,-0.974574 4.92054,-2.897997 8.289585,-4.569446 6.093669,-3.023187 10.397126,-4.79287 25.305236,-10.406107 9.984234,-3.759287 12.647414,-4.831945 15.90153,-6.404712 3.156386,-1.525532 4.836369,-2.582443 6.103475,-3.839818 1.039624,-1.031641 1.38113,-1.648872 1.428217,-2.581325 0.03767,-0.745889 -0.08143,-1.116809 -0.506728,-1.578204 -0.82491,-0.894922 -2.651838,-1.637771 -5.36274,-2.18055 -3.528808,-0.706539 -6.694783,-0.934424 -18.433657,-1.32684 -7.237335,-0.241935 -8.168778,-0.293017 -12.882847,-0.706518 -4.55616,-0.39965 -6.462136,-0.881733 -6.462136,-1.634481 0,-0.207451 0.09698,-0.353857 0.483123,-0.729373 1.688419,-1.641937 7.682133,-4.169085 17.826262,-7.51614 4.014443,-1.324565 5.056077,-1.657888 10.143985,-3.246072 4.573101,-1.427488 4.806737,-1.491423 4.936365,-1.350843 0.07484,0.08116 0.386723,0.473896 0.693079,0.872746 l 0.55701,0.725182 -0.232533,0.08869 c -0.127894,0.04878 -0.978166,0.343735 -1.889492,0.655459 -9.753229,3.336141 -14.689443,5.56734 -15.413153,6.96684 -0.283147,0.547547 -0.07141,1.088838 0.549906,1.405811 0.888986,0.453526 1.816766,0.547513 6.909849,0.699983 20.409677,0.611 29.544725,1.670397 33.998512,3.942828 1.183153,0.603673 1.904065,1.179905 2.426526,1.939541 0.536318,0.779784 0.686748,1.379622 0.623307,2.485436 -0.234767,4.092153 -3.874555,7.77915 -13.188152,13.359209 -1.139158,0.682505 -4.345372,2.556857 -7.124919,4.165229 -9.167554,5.30476 -12.89139,7.572638 -17.314325,10.54471 l -0.579051,0.389104 -18.517388,-5.46e-4 -18.51739,-5.46e-4 z"
       id="path9546"
       transform="scale(0.26458333)" />
    <path
       style="fill:#ff0000;stroke:#000000;stroke-width:0.00343188;stroke-linejoin:round;stroke-miterlimit:4;stroke-dasharray:0, 0.0377507;stroke-dashoffset:0"
       d="m 76.016791,34.163668 c 0.228875,-0.860858 0.319249,-2.142423 0.21935,-3.110541 -0.2495,-2.417896 -1.100323,-4.233605 -2.791483,-5.957189 -1.558712,-1.588599 -3.136136,-2.442158 -5.284491,-2.859489 -1.00366,-0.194968 -2.6385,-0.208799 -3.672941,-0.03107 -3.18241,0.546761 -5.8994,2.583773 -7.290377,5.465822 -0.93402,1.935253 -1.195198,3.925564 -0.810854,6.179149 l 0.05064,0.296948 -8.645504,0.05511 c -4.755027,0.03031 -15.235019,0.05513 -23.28887,0.05515 l -14.6433656,4.4e-5 V 23.031715 11.805825 H 48.300322 86.741745 v 11.297943 11.297943 l -4.494498,0.05357 c -2.471974,0.02946 -4.911684,0.07593 -5.421577,0.103267 l -0.927079,0.04969 z"
       id="path9622"
       transform="scale(0.26458333)" />
  </g>
  <g
     inkscape:label="Layer 1"
     inkscape:groupmode="layer"
     id="layer1">
    <path
       style="fill:none;stroke:#000000;stroke-width:0.13229166;stroke-linecap:butt;stroke-linejoin:miter;stroke-opacity:1;stroke-miterlimit:4;stroke-dasharray:none"
       d="M 17.177709,9.1215315 C 9.6064837,11.408423 3.0363945,13.480597 8.1043985,13.757567 c 3.2436615,0.382438 8.6637955,-0.03295 9.7309845,1.147315 0.991145,2.072723 -9.9342205,4.144865 -15.3084197,7.786605"
       id="path410"
       sodipodi:nodetypes="cccc" />
    <path
       style="fill:none;stroke:#000000;stroke-width:0.13229166;stroke-linecap:butt;stroke-linejoin:miter;stroke-opacity:1;stroke-miterlimit:4;stroke-dasharray:none"
       d="m 19.13998,9.2346362 c -7.321797,2.2582068 -10.4934039,3.5971728 -6.208446,3.5413158 7.000177,0.211893 9.844465,0.61411 9.901361,2.181328 -0.0029,2.535177 -4.812979,4.099665 -10.187178,7.741405"
       id="path410-6"
       sodipodi:nodetypes="cccc" />
    <rect
       style="display:inline;fill:none;fill-opacity:1;fill-rule:evenodd;stroke:#000000;stroke-width:0.13229166;stroke-linecap:butt;stroke-linejoin:round;stroke-miterlimit:4;stroke-dasharray:none;stroke-opacity:1;paint-order:normal"
       id="rect3751"
       width="20.495895"
       height="19.646467"
       x="2.5269632"
       y="3.0450201" />
    <path
       style="fill:#000000;fill-opacity:1;stroke:#000000;stroke-width:0.162382;stroke-linecap:butt;stroke-linejoin:round;stroke-miterlimit:4;stroke-dasharray:none;stroke-opacity:1;paint-order:normal"
       d=""
       id="path6577"
       transform="scale(0.26458333)" />
    <path
       style="fill:#000000;fill-opacity:1;stroke:#000000;stroke-width:0.162382;stroke-linecap:butt;stroke-linejoin:round;stroke-miterlimit:4;stroke-dasharray:none;stroke-opacity:1;paint-order:normal"
       d=""
       id="path6616"
       transform="scale(0.26458333)" />
    <path
       style="fill:#000000;fill-opacity:1;stroke:#000000;stroke-width:0.162382;stroke-linecap:butt;stroke-linejoin:round;stroke-miterlimit:4;stroke-dasharray:none;stroke-opacity:1;paint-order:normal"
       d=""
       id="path6655"
       transform="scale(0.26458333)" />
    <text
       xml:space="preserve"
       transform="matrix(0.26458333,0,0,0.26458333,-1.7468605,3.0478197)"
       id="text20447"
       style="font-style:normal;font-weight:normal;font-size:13.3333px;line-height:0;font-family:sans-serif;white-space:pre;fill:#000000;fill-opacity:1;stroke:none;shape-inside:url(#rect20449)"
       inkscape:export-filename="/home/luc/work/ss/docs/dl/text20447.png"
       inkscape:export-xdpi="96"
       inkscape:export-ydpi="96"><tspan
         x="100.23633"
         y="20.980732"
         id="tspan12538"><tspan
           style="font-weight:bold;font-family:'Liberation Sans';-inkscape-font-specification:'Liberation Sans Bold'"
           id="tspan12534">synodalsoft</tspan><tspan
           style="font-weight:bold;line-height:1.25;font-family:'Liberation Sans';-inkscape-font-specification:'Liberation Sans, Normal'"
           id="tspan12536">
</tspan></tspan><tspan
         x="100.23633"
         y="33.912067"
         id="tspan12544"><tspan
           style="font-size:10.6667px;line-height:1"
           id="tspan12540">make</tspan><tspan
           style="font-size:10.6667px;line-height:1"
           id="tspan12542"> software
</tspan></tspan><tspan
         x="100.23633"
         y="44.749315"
         id="tspan12550"><tspan
           style="font-size:10.6667px;line-height:1"
           id="tspan12546">together</tspan><tspan
           style="font-size:10.6667px;line-height:1;font-family:'Liberation Sans';-inkscape-font-specification:'Liberation Sans, Normal'"
           id="tspan12548">
</tspan></tspan><tspan
         x="100.23633"
         y="55.586561"
         id="tspan12554"><tspan
           style="font-size:10.6667px;line-height:1;font-family:'Liberation Sans';-inkscape-font-specification:'Liberation Sans, Normal'"
           id="tspan12552">step by step</tspan></tspan></text>
    <path
       style="fill:none;stroke:#000000;stroke-width:0.132292;stroke-linecap:butt;stroke-linejoin:miter;stroke-miterlimit:4;stroke-dasharray:none;stroke-opacity:1"
       d="M 17.177709,9.1215315 2.5266424,9.1434516"
       id="path8706"
       sodipodi:nodetypes="cc" />
    <path
       style="fill:#000000;stroke:#000000;stroke-width:0.132292;stroke-linecap:butt;stroke-linejoin:miter;stroke-miterlimit:4;stroke-dasharray:none;stroke-opacity:1"
       d="m 19.13998,9.2346361 3.870977,-0.058904"
       id="path8708"
       sodipodi:nodetypes="cc" />
    <path
       style="fill:#000000;stroke:#000000;stroke-width:0.0414239;stroke-linejoin:round;stroke-miterlimit:4;stroke-dasharray:none"
       d="M 9.8588994,60.020847 V 34.83754 l 11.9093846,-2.6e-5 c 6.550162,-1.5e-5 18.489579,-0.02028 26.532038,-0.04503 l 14.622654,-0.04501 -4.059547,1.248001 c -16.07781,4.9427 -23.633652,7.487948 -28.936757,9.747588 -3.604937,1.536054 -5.729462,2.839591 -6.181881,3.792993 -0.711295,1.498944 1.149584,2.330791 6.039027,2.699557 0.592362,0.04468 1.636246,0.135443 2.319741,0.201703 2.629895,0.254949 5.704643,0.412647 11.391586,0.584252 7.929844,0.239285 11.2003,0.402415 14.249837,0.710778 4.567148,0.46182 7.487061,1.242503 8.999573,2.406173 0.333979,0.25695 0.447072,0.406325 0.528899,0.69858 0.471516,1.684093 -1.547761,3.6723 -6.04886,5.955786 -3.470783,1.760787 -6.787154,3.107648 -18.102265,7.351777 -9.746549,3.655784 -13.810906,5.25795 -18.143689,7.152227 -5.882778,2.571928 -10.817565,5.117776 -14.311974,7.383521 l -0.8077666,0.52375 z"
       id="path9115"
       transform="scale(0.26458333)" />
    <path
       style="fill:#000000;stroke:#000000;stroke-width:0.0414239;stroke-linejoin:round;stroke-miterlimit:4;stroke-dasharray:none"
       d="m 49.504941,85.012629 c 3.633935,-2.432939 8.55962,-5.426597 15.282112,-9.28793 6.112043,-3.510696 8.496813,-4.914254 10.604531,-6.241299 7.158645,-4.50717 10.355371,-7.841755 11.055437,-11.532199 0.932974,-4.918241 -3.276794,-7.340986 -15.032136,-8.651081 -5.456496,-0.608109 -14.081116,-1.094146 -22.866019,-1.288604 -3.53403,-0.07823 -4.52536,-0.146393 -5.563728,-0.382565 -0.548331,-0.124715 -1.061092,-0.391983 -1.124838,-0.586303 -0.05142,-0.156733 0.529975,-0.740862 1.143051,-1.148434 2.910882,-1.93515 12.030342,-5.297229 26.920272,-9.924719 l 2.526861,-0.785297 6.213592,-0.09165 c 3.417475,-0.05041 6.633009,-0.09112 7.145631,-0.09048 l 0.932038,0.0012 V 60.230419 85.457603 H 67.791027 48.840309 Z"
       id="path9154"
       transform="scale(0.26458333)" />
  </g>
  <metadata
     id="metadata9">
    <rdf:RDF>
      <cc:License
         rdf:about="http://creativecommons.org/licenses/by-sa/4.0/">
        <cc:permits
           rdf:resource="http://creativecommons.org/ns#Reproduction" />
        <cc:permits
           rdf:resource="http://creativecommons.org/ns#Distribution" />
        <cc:requires
           rdf:resource="http://creativecommons.org/ns#Notice" />
        <cc:requires
           rdf:resource="http://creativecommons.org/ns#Attribution" />
        <cc:permits
           rdf:resource="http://creativecommons.org/ns#DerivativeWorks" />
        <cc:requires
           rdf:resource="http://creativecommons.org/ns#ShareAlike" />
      </cc:License>
      <cc:Work
         rdf:about="">
        <cc:license
           rdf:resource="http://creativecommons.org/licenses/by-sa/4.0/" />
      </cc:Work>
    </rdf:RDF>
  </metadata>
</svg>
