<?xml version="1.0" encoding="UTF-8"?>
<!DOCTYPE svg PUBLIC "-//W3C//DTD SVG 1.1//EN" "http://www.w3.org/Graphics/SVG/1.1/DTD/svg11.dtd">
<!-- Creator: CorelDRAW -->
<svg xmlns="http://www.w3.org/2000/svg" xml:space="preserve" width="2048px" height="2048px" style="shape-rendering:geometricPrecision; text-rendering:geometricPrecision; image-rendering:optimizeQuality; fill-rule:evenodd; clip-rule:evenodd"
viewBox="0 0 2048 2048"
 xmlns:xlink="http://www.w3.org/1999/xlink">
 <defs>
  <style type="text/css">
   <![CDATA[
    .fil2 {fill:none}
    .fil0 {fill:#424242}
    .fil1 {fill:#424242;fill-rule:nonzero}
   ]]>
  </style>
 </defs>
 <g id="Layer_x0020_1">
  <metadata id="CorelCorpID_0Corel-Layer"/>
  <g id="_324608240">
   <g>
    <path id="_324608792" class="fil0" d="M1094.26 1026.38l132.912 132.912c18.7394,18.7382 18.7394,49.1374 0,67.8756 -18.7382,18.7394 -49.1374,18.7394 -67.8756,0l-132.912 -132.912c-18.7394,-18.7382 -18.7394,-49.1374 0,-67.8756 18.7382,-18.7394 49.1374,-18.7394 67.8756,0z"/>
    <path id="_324608168" class="fil1" d="M1130.76 1210.45l82.6619 -82.6619c14.1662,-14.1638 32.8004,-21.248 51.4087,-21.248 18.6095,0 37.2425,7.08426 51.4063,21.248l454.513 454.513c14.1638,14.1638 21.248,32.7992 21.248,51.4075 0,18.6071 -7.08426,37.2425 -21.248,51.4063l-85.6394 85.6394c-14.165,14.165 -32.7992,21.248 -51.4063,21.248 -18.6083,0 -37.2437,-7.08426 -51.4075,-21.248l-451.537 -451.536c-14.9823,-14.9847 -22.4752,-34.6973 -22.4752,-54.3851 0,-19.6866 7.49292,-39.4016 22.4752,-54.3839z"/>
    <path id="_324608552" class="fil0" d="M740.304 255.999c267.475,0 484.304,216.829 484.304,484.304 0,267.475 -216.829,484.304 -484.304,484.304 -267.475,0 -484.304,-216.829 -484.304,-484.304 0,-267.475 216.829,-484.304 484.304,-484.304zm0 96.0001c214.455,0 388.304,173.849 388.304,388.304 0,214.455 -173.849,388.304 -388.304,388.304 -214.455,0 -388.304,-173.849 -388.304,-388.304 0,-214.455 173.849,-388.304 388.304,-388.304z"/>
   </g>
   <g>
    <path id="_324608672" class="fil1" d="M613.621 465.793l253.856 0c13.2543,0 24,10.7457 24,24 0,2.98701 -0.548032,5.84646 -1.54488,8.48386l-22.4516 67.8225 -22.7811 -7.50001 22.7835 7.54253c-3.38859,10.2366 -13.0075,16.6595 -23.2512,16.4575l-208.322 0c-10.9795,0 -20.2382,-7.37363 -23.0918,-17.439l-22.454 -67.8296 -0.0153543 0.00472441c-4.16457,-12.5835 2.65866,-26.1626 15.2421,-30.3272 2.66575,-0.882284 5.3752,-1.26969 8.03032,-1.21536z"/>
    <path id="_324608600" class="fil1" d="M897.845 815.115l-314.668 0c-1.89803,0.0318898 -3.82796,-0.161811 -5.76024,-0.603544 -12.9213,-2.95276 -21.0012,-15.8232 -18.0484,-28.7445l23.3965 5.34804 -23.3433 -5.34331 52.78 -230.916c1.79882,-11.4756 11.7284,-20.2559 23.7083,-20.2559l208.384 0c11.1142,-0.198425 21.2268,7.38662 23.8016,18.652l-0.0519685 0.011811 52.7776 230.902c0.66378,2.2004 1.02402,4.53307 1.02402,6.94961 0,13.2543 -10.7457,24 -24,24z"/>
    <path id="_324608288" class="fil1" d="M771.393 798.194c0,-17.1697 -13.9205,-31.0902 -31.0902,-31.0902 -17.1709,0 -31.0902,13.9205 -31.0902,31.0902l31.0902 289.805 31.0902 -289.805z"/>
   </g>
  </g>
 </g>
 <rect class="fil2" width="2048" height="2048"/>
</svg>
