<?xml version="1.0" encoding="UTF-8" standalone="no"?>
<!-- Created with Inkscape (http://www.inkscape.org/) -->

<svg
   width="171.97087mm"
   height="171.97917mm"
   viewBox="0 0 171.97087 171.97917"
   version="1.1"
   id="svg1"
   xml:space="preserve"
   xmlns="http://www.w3.org/2000/svg"
   xmlns:svg="http://www.w3.org/2000/svg"><defs
     id="defs1" /><g
     id="layer1"
     transform="translate(25.660447,-5.5562499)"><g
       style="fill:#4d4d4d"
       id="g2"
       transform="matrix(0.41341146,0,0,0.41341146,-45.5042,-14.2875)"><path
         d="m 441,336.2 -0.06,-0.05 c -9.93,-9.18 -22.78,-11.34 -32.16,-12.92 l -0.69,-0.12 c -9.05,-1.49 -10.48,-2.5 -14.58,-6.17 -2.44,-2.17 -5.35,-5.65 -5.35,-9.94 0,-4.29 2.91,-7.77 5.34,-9.94 l 30.28,-26.87 c 25.92,-22.91 40.2,-53.66 40.2,-86.59 0,-32.93 -14.25,-63.68 -40.2,-86.6 C 387.89,65.41 338.78,48 285.41,48 223.72,48 162,71.37 116,112.11 72.13,150.88 48,202.82 48,258.35 c 0,55.53 24.16,107.47 68,146.23 21.75,19.24 47.49,34.18 76.52,44.42 a 266.17,266.17 0 0 0 86.87,15 h 1.81 c 61,0 119.09,-20.57 159.39,-56.4 9.7,-8.56 15.15,-20.83 15.34,-34.56 0.21,-14.17 -5.37,-27.95 -14.93,-36.84 z M 112,208 a 32,32 0 1 1 32,32 32,32 0 0 1 -32,-32 z m 40,135 a 32,32 0 1 1 32,-32 32,32 0 0 1 -32,32 z m 40,-199 a 32,32 0 1 1 32,32 32,32 0 0 1 -32,-32 z m 64,271 a 48,48 0 1 1 48,-48 48,48 0 0 1 -48,48 z m 72,-239 a 32,32 0 1 1 32,-32 32,32 0 0 1 -32,32 z"
         id="path1-2"
         style="fill:#4d4d4d" /></g></g></svg>
