<?xml version="1.0" encoding="UTF-8" standalone="no"?>
<!-- Created with Inkscape (http://www.inkscape.org/) -->

<svg
   width="191.28085mm"
   height="141.11113mm"
   viewBox="0 0 191.28085 141.11113"
   version="1.1"
   id="svg1"
   xml:space="preserve"
   xmlns="http://www.w3.org/2000/svg"
   xmlns:svg="http://www.w3.org/2000/svg"><defs
     id="defs1" /><g
     id="layer1"
     transform="translate(-9.1345737,-77.875709)"><g
       style="fill:#666666"
       id="g2"
       transform="matrix(8.8194444,0,0,8.8194444,-1.0586084,42.597917)"><path
         fill-rule="evenodd"
         clip-rule="evenodd"
         d="m 19.7071,5.70711 c 0.3905,-0.39053 0.3905,-1.02369 0,-1.41422 -0.3905,-0.39052 -1.0237,-0.39052 -1.4142,0 L 14.032,8.55382 C 13.4365,8.20193 12.7418,8 12,8 9.79086,8 8,9.79086 8,12 c 0,0.7418 0.20193,1.4365 0.55382,2.032 l -4.26093,4.2609 c -0.39052,0.3905 -0.39052,1.0237 0,1.4142 0.39053,0.3905 1.02369,0.3905 1.41422,0 L 9.96803,15.4462 C 10.5635,15.7981 11.2582,16 12,16 c 2.2091,0 4,-1.7909 4,-4 0,-0.7418 -0.2019,-1.4365 -0.5538,-2.03197 z M 12.518,10.0677 C 12.3528,10.0236 12.1792,10 12,10 c -1.1046,0 -2,0.8954 -2,2 0,0.1792 0.0236,0.3528 0.0677,0.518 z m -1.036,3.8646 2.4503,-2.4503 C 13.9764,11.6472 14,11.8208 14,12 c 0,1.1046 -0.8954,2 -2,2 -0.1792,0 -0.3528,-0.0236 -0.518,-0.0677 z M 15.7651,4.8207 C 14.6287,4.32049 13.3675,4 12,4 9.14754,4 6.75717,5.39462 4.99812,6.90595 3.23268,8.42276 2.00757,10.1376 1.46387,10.9698 c -0.41081,0.6287 -0.41081,1.4317 0,2.0604 0.45889,0.7024 1.40319,2.0335 2.74807,3.3437 L 5.62626,14.9596 C 4.4555,13.8229 3.61144,12.6531 3.18002,12 3.6904,11.2274 4.77832,9.73158 6.30147,8.42294 7.87402,7.07185 9.81574,6 12,6 c 0.7719,0 1.5135,0.13385 2.2193,0.36658 z M 12,18 C 11.2282,18 10.4866,17.8661 9.78083,17.6334 L 8.23496,19.1793 C 9.37136,19.6795 10.6326,20 12,20 c 2.8525,0 5.2429,-1.3946 7.002,-2.9059 1.7654,-1.5169 2.9905,-3.2317 3.5342,-4.0639 0.4108,-0.6287 0.4108,-1.4317 0,-2.0604 C 22.0773,10.2674 21.133,8.93627 19.7881,7.62611 L 18.3738,9.04043 C 19.5446,10.1771 20.3887,11.3469 20.8201,12 20.3097,12.7726 19.2218,14.2684 17.6986,15.5771 16.1261,16.9282 14.1843,18 12,18 Z"
         fill="#000000"
         id="path1"
         style="fill:#666666" /></g></g></svg>
