<?xml version="1.0" encoding="UTF-8" standalone="no"?>
<!-- Created with Inkscape (http://www.inkscape.org/) -->

<svg
   width="191.28082mm"
   height="141.11113mm"
   viewBox="0 0 191.28082 141.11113"
   version="1.1"
   id="svg1"
   xml:space="preserve"
   xmlns="http://www.w3.org/2000/svg"
   xmlns:svg="http://www.w3.org/2000/svg"><defs
     id="defs1" /><g
     id="layer1"
     transform="translate(-5.9595735,-105.39238)"><path
       fill-rule="evenodd"
       clip-rule="evenodd"
       d="M 51.341855,207.49595 C 37.908519,195.95394 28.313669,182.76182 23.812401,175.94792 c 4.501268,-6.81391 14.096118,-20.00621 27.529454,-31.54769 13.869018,-11.91586 30.993909,-21.36898 50.257865,-21.36898 19.26431,0 36.38991,9.45312 50.25849,21.36898 13.43377,11.54148 23.02845,24.73378 27.52989,31.54769 -4.50144,6.8139 -14.09612,20.00602 -27.52989,31.54803 -13.86858,11.91595 -30.99418,21.36863 -50.25849,21.36863 -19.263956,0 -36.388847,-9.45268 -50.257865,-21.36863 z M 101.59972,105.39236 c -25.157109,0 -46.238844,12.29977 -61.752688,25.62886 -15.570199,13.37743 -26.374989,28.50136 -31.1701212,35.8409 -3.623116,5.54479 -3.623116,12.6268 0,18.17159 4.7951322,7.33954 15.5999222,22.46312 31.1701212,35.84133 15.513844,13.32883 36.595579,25.62843 61.752688,25.62843 25.15746,0 46.23946,-12.2996 61.75375,-25.62843 15.56985,-13.37821 26.37455,-28.50179 31.16968,-35.84133 3.62303,-5.54479 3.62303,-12.6268 0,-18.17159 -4.79513,-7.33954 -15.59983,-22.46347 -31.16968,-35.8409 -15.51429,-13.32909 -36.59629,-25.62886 -61.75375,-25.62886 z m -17.638885,70.55556 c 0,-9.74196 7.897812,-17.63889 17.638885,-17.63889 9.74196,0 17.63889,7.89693 17.63889,17.63889 0,9.74195 -7.89693,17.63888 -17.63889,17.63888 -9.741073,0 -17.638885,-7.89693 -17.638885,-17.63888 z m 17.638885,-35.27778 c -19.483031,0 -35.277421,15.79439 -35.277421,35.27778 0,19.48303 15.79439,35.27777 35.277421,35.27777 19.48392,0 35.27778,-15.79474 35.27778,-35.27777 0,-19.48339 -15.79386,-35.27778 -35.27778,-35.27778 z"
       fill="#000000"
       id="path1-5"
       style="fill:#666666;stroke-width:8.81944" /></g></svg>
