<?xml version="1.0" encoding="UTF-8" standalone="no"?>
<!-- Created with Inkscape (http://www.inkscape.org/) -->

<svg
   width="158.74998mm"
   height="158.74118mm"
   viewBox="0 0 158.74998 158.74118"
   version="1.1"
   id="svg1"
   xml:space="preserve"
   xmlns="http://www.w3.org/2000/svg"
   xmlns:svg="http://www.w3.org/2000/svg"><defs
     id="defs1" /><g
     id="layer1"
     transform="translate(10.155899,-14.062103)"><g
       style="fill:#4d4d4d"
       id="g2"
       transform="matrix(8.8194444,0,0,8.8194444,-36.614233,-12.396231)"><path
         fill-rule="evenodd"
         clip-rule="evenodd"
         d="m 6.205,3 h 11.59 c 1.114,0 1.519,0.116 1.926,0.334 0.407,0.218 0.727,0.538 0.945,0.945 C 20.884,4.686 21,5.09 21,6.205 v 7.51 L 16.609,9.662 a 1.5,1.5 0 0 0 -2.265,0.27 l -3.13,4.695 -2.303,-1.48 a 1.5,1.5 0 0 0 -1.96,0.298 L 3.005,18.15 A 12.98,12.98 0 0 1 3,17.795 V 6.205 C 3,5.09 3.116,4.686 3.334,4.279 3.552,3.872 3.872,3.552 4.279,3.334 4.686,3.116 5.09,3 6.205,3 Z m 9.477,8.53 5.318,4.907 v 1.357 c 0,1.114 -0.116,1.519 -0.334,1.926 a 2.272,2.272 0 0 1 -0.945,0.945 c -0.407,0.218 -0.811,0.334 -1.926,0.334 H 6.205 c -1.115,0 -1.519,-0.116 -1.926,-0.334 A 2.305,2.305 0 0 1 3.794,20.32 l 4.406,-5.253 2.346,1.508 a 1.5,1.5 0 0 0 2.059,-0.43 l 3.077,-4.616 z M 7.988,6 C 6.878,6 6,6.832 6,7.988 6,9.145 6.879,10 7.988,10 9.121,10 10,9.145 10,7.988 10,6.832 9.121,6 7.988,6 Z"
         fill="#000000"
         id="path1-7"
         style="fill:#4d4d4d" /></g></g></svg>
