<?xml version="1.0" encoding="UTF-8" standalone="no"?>
<!-- Created with Inkscape (http://www.inkscape.org/) -->

<svg
   width="211.66667mm"
   height="211.66667mm"
   viewBox="0 0 211.66667 211.66667"
   version="1.1"
   id="svg1"
   xml:space="preserve"
   xmlns="http://www.w3.org/2000/svg"
   xmlns:svg="http://www.w3.org/2000/svg"
   xmlns:sketch="http://www.bohemiancoding.com/sketch/ns"><defs
     id="defs1" /><g
     id="layer1"
     transform="translate(43.248801,-33.782062)"><path
       d="m 153.29882,215.21063 c -8.34572,0 -15.11905,6.77333 -15.11905,15.11905 0,8.34571 6.77333,15.11905 15.11905,15.11905 8.34571,0 15.11905,-6.77334 15.11905,-15.11905 0,-8.34572 -6.77334,-15.11905 -15.11905,-15.11905 z m -181.428573,0 c -8.345715,0 -15.119048,6.77333 -15.119048,15.11905 0,8.34571 6.773333,15.11905 15.119048,15.11905 8.345714,0 15.119047,-6.77334 15.119047,-15.11905 0,-8.34572 -6.773333,-15.11905 -15.119047,-15.11905 z M 153.29882,200.09158 c 2.63071,0 5.13292,0.44602 7.55952,1.07346 V 78.065753 c -2.4266,0.62744 -4.92881,1.07345 -7.55952,1.07345 -16.69899,0 -30.2381,-13.53911 -30.2381,-30.23809 0,-2.63072 0.43846,-5.13292 1.07346,-7.559528 H 1.0348888 c 0.635,2.426608 1.073453,4.928808 1.073453,7.559528 0,16.69898 -13.5391068,30.23809 -30.2380948,30.23809 -2.630715,0 -5.132917,-0.44601 -7.559525,-1.07345 V 201.16504 c 2.426608,-0.62744 4.92881,-1.07346 7.559525,-1.07346 16.698988,0 30.2380948,13.53911 30.2380948,30.2381 0,2.63071 -0.438453,5.13292 -1.073453,7.55952 H 124.13418 c -0.635,-2.4266 -1.07346,-4.92881 -1.07346,-7.55952 0,-16.69899 13.53911,-30.2381 30.2381,-30.2381 z M -28.129753,64.020153 c 8.345714,0 15.119047,-6.77333 15.119047,-15.11904 0,-8.345718 -6.773333,-15.119052 -15.119047,-15.119052 -8.345715,0 -15.119048,6.773334 -15.119048,15.119052 0,8.34571 6.773333,15.11904 15.119048,15.11904 z m 181.428573,0 c 8.34571,0 15.11905,-6.77333 15.11905,-15.11904 0,-8.345718 -6.77334,-15.119052 -15.11905,-15.119052 -8.34572,0 -15.11905,6.773334 -15.11905,15.119052 0,8.34571 6.77333,15.11904 15.11905,15.11904 z"
       id="resize"
       sketch:type="MSShapeGroup"
       style="fill:#4d4d4d;fill-rule:evenodd;stroke:none;stroke-width:7.55952" /></g></svg>
