<?xml version="1.0" encoding="UTF-8" standalone="no"?>
<!-- Created with Inkscape (http://www.inkscape.org/) -->

<svg
   width="129.43201mm"
   height="129.43201mm"
   viewBox="0 0 129.43201 129.43201"
   version="1.1"
   id="svg1"
   xml:space="preserve"
   xmlns="http://www.w3.org/2000/svg"
   xmlns:svg="http://www.w3.org/2000/svg"><defs
     id="defs1" /><g
     id="layer1"
     transform="translate(-27.293213,-25.128143)"><g
       style="fill:#4d4d4d"
       id="g1"
       transform="matrix(0.0674125,0,0,0.0674125,27.290651,25.12902)"><path
         d="m 928.806,512 -185.984,512 h 434.304 L 991.142,512 Z m 419.072,981.875 -124.16,-341.888 H 696.358 L 572.07,1493.875 451.878,1450.1 839.206,383.987 h 241.664 l 387.2,1066.112 z M 1728.038,-0.013 h -1536 c -105.856,0 -192,86.144 -192,192 v 1536 c 0,105.856 86.144,192 192,192 h 1536 c 105.856,0 192,-86.144 192,-192 v -1536 c 0,-105.856 -86.144,-192 -192,-192 z"
         fill-rule="evenodd"
         id="path1"
         style="fill:#4d4d4d" /></g></g></svg>
