<?xml version="1.0" encoding="UTF-8" standalone="no"?>
<!-- Created with Inkscape (http://www.inkscape.org/) -->

<svg
   version="1.1"
   id="svg544471"
   width="290.23999"
   height="96"
   viewBox="0 0 290.23999 96"
   xmlns="http://www.w3.org/2000/svg"
   xmlns:svg="http://www.w3.org/2000/svg">
  <defs
     id="defs544475" />
  <g
     id="g544477">
    <path
       style="fill:#000000;stroke-width:0.32"
       d="m 10.570776,87.843937 v -8.16 H 8.3097383 c -2.9472986,0 -3.4989629,-0.30449 -3.4989629,-1.93125 0,-1.26106 -0.00755,-1.26875 -1.2457634,-1.26875 -0.8407764,0 -1.3089082,-0.16455 -1.44,-0.50617 -0.10683,-0.27839 -0.1942364,-3.369331 -0.1942364,-6.868741 0,-5.96298 0.038873,-6.38337 0.6189627,-6.69383 0.3404295,-0.18219 0.9797367,-0.33126 1.4206829,-0.33126 0.6954429,0 0.8148861,-0.15907 0.9010374,-1.2 0.096176,-1.16205 0.1417667,-1.20308 1.4417747,-1.29754 1.3298467,-0.0966 1.343374,-0.11015 1.44,-1.44 0.096847,-1.33289 0.1072348,-1.34316 1.457542,-1.44086 1.1923427,-0.0863 1.3600007,-0.19248 1.3600007,-0.8616 0,-0.66911 -0.167658,-0.77533 -1.3600007,-0.8616 -1.3161718,-0.0952 -1.363167,-0.13651 -1.4582732,-1.28089 -0.094871,-1.14155 -0.1447271,-1.18587 -1.44,-1.28 l -1.3417267,-0.0975 -0.089288,-4.239996 -0.089288,-4.24 H 3.5275841 c -1.0841969,0 -1.2934446,-0.114867 -1.4666911,-0.805136 -0.1111418,-0.442822 -0.1273665,-1.090822 -0.036055,-1.44 C 2.1664162,41.057419 2.030378,40.96395 1.1008173,40.96395 H 0.01077563 v -5.44 -5.44 h 2.38537917 2.385379 l 0.094621,-2.16 0.094621,-2.16 1.52,-0.09753 c 1.2589683,-0.08078 1.5199999,-0.204431 1.5199999,-0.72 0,-0.522159 -0.2265321,-0.622467 -1.4057634,-0.622467 -1.4890086,0 -1.7942365,-0.303856 -1.7942365,-1.786172 0,-0.662108 -0.1524576,-0.773828 -1.0559999,-0.773828 -0.5807999,0 -1.2287999,-0.1728 -1.4399999,-0.384 -0.5209486,-0.520948 -0.5209486,-6.071052 0,-6.592 0.2569471,-0.256951 1.6833803,-0.384003 4.3112131,-0.384003 h 3.9272139 l 0.08879,-4.5600008 0.08879,-4.56 1.52,-0.09753 1.52,-0.09753 v -1.228231 c 0,-1.332103 0.342599,-1.616703 1.946171,-1.616703 0.853899,0 0.933828,-0.09586 0.933828,-1.12 V 0.00395525 h 13.28 13.28 l -3.2e-4,1.19999995 c -3.2e-4,1.198553 0.0013,1.2 1.359999,1.2 h 1.360413 l 0.09484,1.454011 0.09484,1.454012 1.109568,-0.129536 c 1.90993,-0.222985 2.060662,0.138401 2.060662,4.9406958 v 4.280818 h 4.120819 c 3.140739,0 4.2092,0.106496 4.492432,0.447771 0.239843,0.288993 0.338842,1.508804 0.279184,3.44 l -0.09243,2.992229 -1.502422,0.09681 -1.502423,0.09682 -0.09758,1.343184 c -0.09689,1.33374 -0.107143,1.343877 -1.457578,1.441584 -0.898006,0.06497 -1.36,0.248956 -1.36,0.541601 0,0.292645 0.461994,0.476628 1.36,0.541601 1.309123,0.09472 1.36361,0.141513 1.456483,1.250873 0.08619,1.029547 0.179427,1.136618 0.87409,1.003826 0.42768,-0.08176 1.143296,-0.05687 1.590253,0.05531 l 0.812652,0.203963 -0.08674,6.312213 -0.08674,6.312211 -1.512848,0.09724 -1.512848,0.09724 -0.08715,5.822759 -0.08715,5.822761 -1.36,0.0984 c -1.353389,0.0979 -1.36,0.10453 -1.36,1.36 v 1.2616 h -1.44 c -1.313625,0 -1.44,0.0686 -1.44,0.7816 0,0.69077 0.158061,0.79304 1.36,0.88 1.350307,0.0977 1.360695,0.10797 1.457543,1.44086 0.09662,1.32985 0.110153,1.34338 1.44,1.44 1.322569,0.0961 1.343875,0.11684 1.438038,1.39983 0.09036,1.23127 0.145085,1.29503 1.003251,1.16908 0.499219,-0.0733 1.214998,0.0313 1.590621,0.23228 0.669309,0.35821 0.681225,0.50419 0.596749,7.31093 l -0.0862,6.945425 -1.502422,0.0968 -1.502423,0.0968 -0.09758,1.34319 -0.09758,1.34318 -2.8,0.0925 -2.8,0.0925 v 5.42753 5.42754 h -1.44 c -1.380412,0 -1.44,0.039 -1.44,0.9416 0,0.879 0.09042,0.94815 1.36,1.04 l 1.36,0.0984 0.09672,1.68 0.09672,1.68 -9.056723,3.2e-4 -9.056723,5.9e-4 0.10543,-4.16046 0.10543,-4.16045 h -2.42543 -2.42543 v 2.3816 2.3816 l 1.36,0.0984 1.36,0.0984 0.09672,1.68 0.09672,1.68 h -9.456713 -9.456723 z m 12.2216,0.08 c 0.09792,-1.35339 0.105011,-1.36047 1.458399,-1.4584 1.35505,-0.098 1.36,-0.10302 1.36,-1.36855 v -1.27016 l 4.72,0.0886 4.72,0.0885 0.09294,2.64 0.09294,2.64 h 5.107059 5.107059 v -3.52 -3.52 h -15.359999 -15.36 v 3.52 3.52 h 3.981601 3.9816 z m 8.578399,-12.4 c 0,-0.81066 -0.124445,-0.96 -0.8,-0.96 -0.675556,0 -0.8,0.14934 -0.8,0.96 0,0.81067 0.124444,0.96 0.8,0.96 0.675555,0 0.8,-0.14933 0.8,-0.96 z m 22.719999,-1.12 v -1.440001 h -1.44 -1.44 v -4.76499 -4.76499 l -1.12,-0.13075 -1.12,-0.13075 v 6.33574 6.335741 h 2.56 2.56 z m -40.89338,-4.959641 c -0.0885,-5.76286 -0.125655,-6.08036 -0.711445,-6.08036 -0.578815,0 -0.623688,0.29974 -0.706619,4.72 l -0.08855,4.72 -2.7273697,0.0914 -2.7273692,0.0914 0.1209805,1.268601 0.1209805,1.2686 3.406389,3.2e-4 3.4063889,3.2e-4 -0.09338,-6.080351 z m 18.333381,-0.16036 c 0,-1.00848 -0.08762,-1.12 -0.88,-1.12 -0.792381,0 -0.88,0.11152 -0.88,1.12 0,1.00849 0.08762,1.12 0.88,1.12 0.792381,0 0.88,-0.11151 0.88,-1.12 z m -2.72,-5.93596 v -1.29598 l 1.84,0.096 1.84,0.096 0.09932,1.2 c 0.08538,1.03161 0.208864,1.2 0.88,1.2 0.674186,0 0.780682,-0.14811 0.780682,-1.08576 0,-1.16353 0.39352,-1.47436 1.866173,-1.47406 0.845472,1.7e-4 0.853363,-0.021 0.806486,-2.16 -0.04468,-2.03858 -0.08953,-2.16018 -0.79686,-2.16018 -0.582659,0 -0.786384,0.21372 -0.915129,0.96 l -0.165616,0.96 -3.117528,0.0916 -3.117528,0.0916 v -1.13159 -1.13159 h -2.56 -2.56 v 2.37005 c 0,2.2061 0.04391,2.35855 0.634865,2.20402 0.349176,-0.0913 0.997176,-0.0751 1.44,0.0361 0.66728,0.16747 0.805135,0.39279 0.805135,1.31598 0,1.05969 0.0545,1.1139 1.12,1.1139 1.095634,0 1.12,-0.0282 1.12,-1.29597 z m 19.199999,-10.86404 v -1.6 h 1.6 1.6 v -3.519996 -3.52 h -6.4 -6.399999 v 0.7816 c 0,0.690762 0.15806,0.793037 1.36,0.88 l 1.36,0.0984 0.09753,1.52 c 0.09242,1.440253 0.146061,1.52 1.022468,1.52 0.876406,0 0.930051,-0.07975 1.022467,-1.52 0.09734,-1.517027 0.09998,-1.520202 1.34703,-1.622269 0.687222,-0.05625 1.594275,-0.01574 2.01567,0.09003 0.711712,0.178627 0.759373,0.322371 0.670503,2.022266 l -0.09567,1.829971 -1.342457,0.09754 c -1.329847,0.09662 -1.343376,0.110158 -1.44,1.439998 l -0.09754,1.34246 h -4.959999 -4.96 l -0.09932,-1.2 -0.09931,-1.2 H 32.011738 29.81133 l -0.100274,1.04 -0.100275,1.04 -5.2,0.0879 -5.2,0.0879 v -1.1086 c 0,-1.05008 -0.06336,-1.11386 -1.2,-1.20793 l -1.2,-0.0993 -0.09527,-2.000001 -0.09527,-2 h 2.09527 2.095269 v 1.44 c 0,1.386666 0.03556,1.44 0.96,1.44 0.924445,0 0.96,-0.05333 0.96,-1.44 v -1.44 h 1.44 c 1.384296,0 1.44,-0.03686 1.44,-0.952938 v -0.95294 l -6,-0.08706 -6.000002,-0.08707 -0.09753,-1.52 -0.09753,-1.52 h -1.262467 -1.262466 v -3.04 -3.04 l -0.88,-1.22e-4 -0.8800007,-1.18e-4 v 8.240118 8.240118 l 1.2800007,0.16 c 1.247866,0.15599 1.28247,0.19414 1.378399,1.52 l 0.0984,1.36 h 18.0616 18.0616 z M 37.130775,41.76394 c 0,-1.093334 -0.03046,-1.12 -1.28,-1.12 h -1.28 v -3.04 -3.04 h -2.547991 -2.547992 l -0.09201,2.96 -0.09201,2.96 -1.36,0.0984 c -1.31757,0.09533 -1.36,0.132768 -1.36,1.2 v 1.1016 h 5.28 5.28 z m -31.9999996,-4.64 c 0,-2.517334 -0.013334,-2.56 -0.7999999,-2.56 -0.7866666,0 -0.8,0.04267 -0.8,2.56 0,2.517334 0.013334,2.56 0.8,2.56 0.7866665,0 0.7999999,-0.04267 0.7999999,-2.56 z m 20.4799996,-1.6 v -4.16 h -5.44 -5.44 v 4.16 4.16 h 5.44 5.44 z m -5.748741,1.301037 c -0.372215,-0.695491 -0.41862,-1.742266 -0.125712,-2.835776 0.179848,-0.671427 0.351814,-0.726579 1.99563,-0.64 l 1.798823,0.09474 0.09855,1.544861 c 0.125081,1.960802 -0.286972,2.455138 -2.046473,2.455138 -1.046311,0 -1.471386,-0.152896 -1.720818,-0.618963 z m 31.34907,-1.381037 3.29e-4,-4.24 -6.400329,0.09285 -6.400329,0.09285 v 4.147148 4.147152 h 6.399999 6.4 l 3.2e-4,-4.24 z m -10.818777,1.724813 c -0.282346,-0.179069 -0.386426,-0.827981 -0.32,-1.995101 l 0.09845,-1.729712 h 3.04 3.039999 l 0.09845,1.729712 c 0.06643,1.16712 -0.03765,1.816032 -0.32,1.995101 -0.230147,0.145961 -1.498448,0.265385 -2.818447,0.265385 -1.32,0 -2.588301,-0.119424 -2.818448,-0.265385 z m -29.760868,-8.284813 0.09932,-1.2 8.639999,-0.08985 c 4.752,-0.04942 8.964,-0.01067 9.36,0.0861 0.575076,0.140534 0.72,0.400161 0.72,1.289854 v 1.113896 h 2.4 c 2.212125,0 2.4,-0.05175 2.4,-0.661037 0,-0.363571 0.149065,-0.939571 0.331257,-1.28 0.314192,-0.587074 0.751085,-0.618963 8.48,-0.618963 5.219162,0 8.148742,-0.115044 8.148742,-0.32 0,-0.176 -0.648,-0.32 -1.44,-0.32 h -1.44 l 6.1e-5,-1.36 5.8e-5,-1.36 -18.240058,0.08518 -18.240059,0.08517 v 1.050823 c 0,1.330215 -0.489998,1.818822 -1.824,1.818822 -1.0382227,0 -1.0560007,0.02424 -1.0560007,1.44 0,1.313165 0.06876,1.44 0.780683,1.44 0.6711337,0 0.7946207,-0.168391 0.8800007,-1.2 z M 75.850773,50.403936 V 39.36394 h -3.679999 -3.68 v -1.92 -1.92 h 11.199999 11.2 v 1.92 1.92 h -3.68 -3.68 v 11.039996 11.04 h -3.84 -3.84 z m 25.599997,9.12 v -1.92 h 3.68 3.68 v -9.119996 -9.12 h -3.68 -3.68 v -1.92 -1.92 h 11.2 11.2 v 1.92 1.92 h -3.68 -3.68 v 9.12 9.119996 h 3.68 3.68 v 1.92 1.92 h -11.2 -11.2 z m 25.92,-11.039996 v -12.96 h 3.68 3.68 v 1.92 1.92 h 1.92 1.92 v 1.76 1.76 h 1.92 1.92 v 1.92 1.92 h 1.6 1.59999 v -5.6 -5.6 h 3.84 3.84 v 12.96 12.959996 h -3.68 -3.68 v -1.76 -1.76 h -1.91999 -1.92 v -1.92 -1.92 h -1.92 -1.92 v -1.76 -1.76 h -1.6 -1.6 v 5.44 5.44 h -3.84 -3.84 z m 37.75999,7.359996 v -5.6 h -1.92 -1.92 v -1.759996 -1.76 h -1.92 -1.92 v -5.6 -5.6 h 3.84 3.84 v 5.44 5.44 h 3.52 3.52 v -5.44 -5.44 h 3.84 3.84 v 5.44 5.44 h -1.76 -1.76 v 1.92 1.919996 h -1.76 -1.76 v 5.6 5.6 h -3.84 -3.84 z m 26.56,3.84 v -1.76 h -1.92 -1.92 v -1.76 -1.76 h -1.76 -1.76 v -5.759996 -5.76 h 1.76 1.76 v -1.76 -1.76 h 1.76 1.76 v -1.92 -1.92 h 9.44 9.44 v 1.92 1.92 h -7.2 -7.2 v 1.76 1.76 h -1.92 -1.92 v 5.6 5.599996 h 1.76 1.76 v 1.76 1.76 h 3.52 3.52 v -3.52 -3.52 h -1.76 -1.76 v -1.919996 -1.92 h 5.6 5.6 v 7.359996 7.36 h -9.28 -9.28 z m 21.12,-11.199996 v -12.96 h 13.28 13.28 v 1.92 1.92 h -9.28 -9.28 v 3.52 3.52 h 5.44 5.44 v 1.92 1.919996 h -5.44 -5.44 v 3.68 3.68 h 9.28 9.28 v 1.92 1.92 h -13.28 -13.28 z m 28.48,0 v -12.96 h 3.68 3.68 v 1.92 1.92 h 1.92 1.92 v 1.76 1.76 h 1.92 1.92 v 1.92 1.92 h 1.6 1.6 v -5.6 -5.6 h 3.84 3.84 v 12.96 12.959996 h -3.68 -3.68 v -1.76 -1.76 h -1.92 -1.92 v -1.92 -1.92 h -1.92 -1.92 v -1.76 -1.76 h -1.6 -1.6 v 5.44 5.44 h -3.84 -3.84 z m 33.92,1.919996 V 39.36394 h -3.68 -3.68 v -1.92 -1.92 h 11.2 11.2 v 1.92 1.92 h -3.68 -3.68 v 11.039996 11.04 h -3.84 -3.84 z"
       id="path544481" />
  </g>
</svg>
