<svg width="388" height="222" viewBox="0 0 388 222" fill="none" xmlns="http://www.w3.org/2000/svg">
<path d="M166.321 221.113L138.642 193.434L166.321 165.756L194 193.434L166.321 221.113Z" fill="#EE6C45"/>
<path fill-rule="evenodd" clip-rule="evenodd" d="M194 193.434L221.679 165.756L249.357 193.434L221.679 221.113L194 193.434Z" fill="#EE6C45"/>
<path fill-rule="evenodd" clip-rule="evenodd" d="M249.357 28.5654L221.679 56.2441L194 28.5654L221.679 0.886719L249.357 28.5654Z" fill="#EE6C45"/>
<path fill-rule="evenodd" clip-rule="evenodd" d="M166.321 56.2441L138.642 28.5654L166.321 0.886719L194 28.5654L166.321 56.2441Z" fill="#EE6C45"/>
<path fill-rule="evenodd" clip-rule="evenodd" d="M221.679 165.756L194 138.077L221.077 111L194 83.9228L221.679 56.2441L276.434 111L221.679 165.756Z" fill="#EE6C45"/>
<path fill-rule="evenodd" clip-rule="evenodd" d="M111.565 111L166.321 56.2441L194 83.9228L166.923 111L194 138.077L166.321 165.756L111.565 111Z" fill="#EE6C45"/>
<path fill-rule="evenodd" clip-rule="evenodd" d="M56.208 111L138.642 193.434L110.964 221.113L0.850586 111L110.964 0.886719L138.642 28.5654L56.208 111Z" fill="#009292"/>
<path fill-rule="evenodd" clip-rule="evenodd" d="M331.792 111L249.357 28.5654L277.036 0.886719L387.149 111L277.036 221.113L249.357 193.434L331.792 111Z" fill="#009292"/>
</svg>
