<svg width="1258" height="518" viewBox="0 0 1258 518" fill="none" xmlns="http://www.w3.org/2000/svg">
<path d="M601.322 220.769L573.643 193.091L601.322 165.412L629.001 193.091L601.322 220.769Z" fill="#EE6C45"/>
<path fill-rule="evenodd" clip-rule="evenodd" d="M629.001 193.091L656.68 165.412L684.358 193.091L656.68 220.769L629.001 193.091Z" fill="#EE6C45"/>
<path fill-rule="evenodd" clip-rule="evenodd" d="M684.358 28.2217L656.68 55.9004L629.001 28.2217L656.68 0.542969L684.358 28.2217Z" fill="#EE6C45"/>
<path fill-rule="evenodd" clip-rule="evenodd" d="M601.322 55.9004L573.643 28.2217L601.322 0.542969L629.001 28.2217L601.322 55.9004Z" fill="#EE6C45"/>
<path fill-rule="evenodd" clip-rule="evenodd" d="M656.68 165.412L629.001 137.733L656.078 110.656L629.001 83.5791L656.68 55.9004L711.435 110.656L656.68 165.412Z" fill="#EE6C45"/>
<path fill-rule="evenodd" clip-rule="evenodd" d="M546.566 110.656L601.322 55.9004L629.001 83.5791L601.924 110.656L629.001 137.733L601.322 165.412L546.566 110.656Z" fill="#EE6C45"/>
<path fill-rule="evenodd" clip-rule="evenodd" d="M491.209 110.656L573.643 193.091L545.965 220.769L435.852 110.656L545.965 0.542969L573.643 28.2217L491.209 110.656Z" fill="#009292"/>
<path fill-rule="evenodd" clip-rule="evenodd" d="M766.793 110.656L684.358 28.2217L712.037 0.542969L822.15 110.656L712.037 220.769L684.358 193.091L766.793 110.656Z" fill="#009292"/>
<path d="M1230.49 475.38V309.555H1257.71V475.38H1230.49Z" fill="#009292"/>
<path d="M1191.89 344.879V316.754H1219.12V344.879H1191.89ZM1191.89 475.379V357.704H1219.12V475.379H1191.89Z" fill="#009292"/>
<path d="M1096.37 475.382L1071.4 450.407V424.982L1096.37 399.782H1153.3V389.882L1143.4 379.982H1086.92V357.707H1155.55L1180.52 382.907V475.382H1153.3V458.282L1135.97 475.382H1096.37ZM1108.52 454.457L1129.67 454.232L1153.3 430.607V420.932H1108.52L1098.62 430.832V444.332L1108.52 454.457Z" fill="#009292"/>
<path d="M1000.67 475.382V357.707H1027.89V378.632L1049.04 357.707H1075.59V384.932H1049.27L1027.89 406.307V475.382H1000.67Z" fill="#009292"/>
<path d="M902.671 475.38L877.696 450.405V382.905L902.671 357.705H944.746L962.071 375.03V309.555H989.296V475.38H962.071V458.28L944.746 475.38H902.671ZM937.996 454.23L962.071 430.605V402.705L937.996 378.855H914.821L904.921 388.755V444.33L914.821 454.23H937.996Z" fill="#009292"/>
<path d="M791.228 475.382V357.707H818.453V378.632L839.603 357.707H866.153V384.932H839.828L818.453 406.307V475.382H791.228Z" fill="#009292"/>
<path d="M695.703 475.382L670.728 450.407V424.982L695.703 399.782H752.628V389.882L742.728 379.982H686.253V357.707H754.878L779.853 382.907V475.382H752.628V458.282L735.303 475.382H695.703ZM707.853 454.457L729.003 454.232L752.628 430.607V420.932H707.853L697.953 430.832V444.332L707.853 454.457Z" fill="#009292"/>
<path d="M573.851 475.382L548.876 450.407V357.707H576.101V443.882L585.551 454.232H608.276L632.126 430.832V357.707H659.351V475.382H632.126V458.507L615.026 475.382H573.851Z" fill="#009292"/>
<path d="M434.456 517.457V495.182H500.381L510.506 485.282L510.281 458.057L492.956 475.382H450.881L425.906 450.407V382.907L450.881 357.707H492.956L510.281 375.032V357.707H537.506V492.482L512.531 517.457H434.456ZM486.206 454.232L510.281 430.382V402.707L486.206 378.857H463.031L453.131 388.757V444.332L463.031 454.232H486.206Z" fill="#009292"/>
<path d="M358.536 427.818V405.543H414.536V427.818H358.536Z" fill="#EE6C45"/>
<path d="M270.937 517.457L291.637 468.632H281.287L235.837 357.707H265.762L297.262 441.857H302.662L334.162 357.707H364.087L298.387 517.457H270.937Z" fill="#009292"/>
<path d="M120.412 475.382V357.707H147.637V378.632L168.787 357.707H210.862L235.837 382.907V475.382H208.612V389.207L199.162 378.857H175.312L147.637 406.307V475.382H120.412Z" fill="#009292"/>
<path d="M25.2621 475.382L0.287109 450.407V424.982L25.2621 399.782H82.1871V389.882L72.2871 379.982H15.8121V357.707H84.4371L109.412 382.907V475.382H82.1871V458.282L64.8621 475.382H25.2621ZM37.4121 454.457L58.5621 454.232L82.1871 430.607V420.932H37.4121L27.5121 430.832V444.332L37.4121 454.457Z" fill="#009292"/>
</svg>
