<svg xmlns="http://www.w3.org/2000/svg" viewBox="0 0 350 350">
  <defs>
    <symbol id="pin" viewBox="0 0 200 200">
      <path d="M 100 0 C 100 24.745 100 55.2 100 100 C 55.2 100 30.483 100 0 100 C -55.228 100 -100 55.228 -100 0 C -100 -55.228 -55.228 -100 0 -100 C 55.228 -100 100 -55.228 100 0 Z M 0 -50 C -27.5 -50 -50 -27.5 -50 0 C -50 27.5 -27.5 50 0 50 C 27.5 50 25 50 50 50 C 50 25 50.019 24.239 50 0 C 50 -27.5 27.5 -50 0 -50 Z" transform="matrix(1, 0, 0, 1, 100.00000000000006, 100)"></path>
    </symbol>
  </defs>
  <rect width="350" height="350" style="pointer-events: none; fill: rgb(34, 34, 34);"></rect>
  <use id="cyan" class="pin" href="#pin" width="200" height="200" transform="matrix(0.500001, -0.866031, 0.866019, 0.5, 76.472734, 0.503188)" style="transform-box: fill-box; transform-origin: 50% 50%; fill: rgb(0, 255, 255); mix-blend-mode: screen;"></use>
  <use id="yellow" class="pin" href="#pin" width="200" height="200" transform="matrix(-0.707108, 0.707111, -0.707102, -0.707107, 79.887956, 149.88904)" style="transform-box: fill-box; transform-origin: 50% 50%; fill: rgb(255, 255, 0); mix-blend-mode: screen;"></use>
  <path d="M 176.758 0.397 C 201.503 0.397 231.958 0.397 276.757 0.397 C 276.757 25.928 226.758 55.22 226.758 50.398 C 201.758 50.398 200.997 50.379 176.758 50.398 C 149.258 50.398 126.758 72.898 126.758 100.398 C 126.758 127.898 149.258 150.398 176.758 150.398 C 195.526 150.398 223.668 200.399 176.758 200.399 C 121.53 200.399 76.759 155.626 76.759 100.398 C 76.759 45.17 121.53 0.397 176.758 0.397 Z" style="stroke-width: 1; fill: rgb(255, 0, 255); mix-blend-mode: screen; transform-origin: 176.758px 100.398px;"></path>
  <path d="M 179.807 349.719 C 155.062 349.719 124.607 349.719 79.808 349.719 C 79.808 324.388 129.808 295.099 129.807 299.718 C 154.807 299.719 155.568 299.737 179.807 299.718 C 207.307 299.718 229.807 277.218 229.807 249.719 C 229.807 222.218 207.307 199.718 179.807 199.718 C 153.942 199.718 126.204 149.717 179.807 149.717 C 235.035 149.717 279.806 194.49 279.806 249.718 C 279.806 304.946 235.035 349.719 179.807 349.719 Z" style="stroke-width: 1; fill: rgb(255, 0, 255); mix-blend-mode: screen; transform-origin: 179.807px 249.718px;"></path>
</svg>