<svg xmlns="http://www.w3.org/2000/svg" x="0px" y="0px"
	 viewBox="0 0 800 468" width="20" height="10">
<g>
	<path fill="#e9ecef" d="M338.1,172.4v39.8c0,3.5-5.7,5.3-12.4,5.3c-6.2-31.8-23.4-43.8-43.3-43.8c-18.6,0-26.5,11.9-26.5,24.3
		c0,41.6,90.2,37.1,90.2,100.8c0,45.1-34.5,69-77,69c-40.7,0-61-10.2-61-19.5v-40.2c0-4.9,5.8-6.2,12.4-6.2
		c6.2,31.4,23.4,46,51.7,46c19.9,0,30.1-11.1,30.1-24.3c0-48.6-90.7-38.9-90.7-104.8c0-34.9,27.4-65,73-65
		C316,153.8,338.1,163.1,338.1,172.4z"/>
	<path fill="#e9ecef" d="M518.5,153.8c58.4,0,88.9,44.7,88.9,94.2c0,67.7-46.4,119.9-115.4,119.9c-14.2,0-28.7-2.2-44.7-7.1V443
		c0,6.2,0.9,11.1,8.4,11.1h26.5v13.7H368.6v-13.7h18.6c7.1,0,9.3-4.9,9.3-11.1V211.3c0-6.6-1.3-10.2-8.8-11.9l-11.5-2.7
		c-4.9-1.3-7.5-2.7-7.5-7.5c0-1.8,0.4-3.1,1.8-4c36.7-5.3,58.4-18.6,69-32.3c2.2,0,8,0.4,8,2.7v29.6
		C468.6,164,492.5,153.8,518.5,153.8z M447.3,288.3c0,39.8,14.1,60.1,45.6,60.1c41.6,0,62.4-38.5,62.4-80.5c0-46.9-23.9-80-65-80
		c-23.9,0-42.9,10.6-42.9,24.3V288.3z"/>
</g>
<g>
	<path fill="#e9ecef" d="M650.1,466.6c-4,0-5.3-4.9-5.3-10.2c0-5.7,1.3-11.9,5.3-11.9h87.1V21.7h-87.1c-4,0-5.3-5.7-5.3-11.9c0-4.9,1.3-9.7,5.3-9.7
		H800v466.6H650.1z"/>
</g>
<g>
	<path fill="#e9ecef" d="M0.1,0H150c3.5,0,4.9,4.9,4.9,9.7c0,6.2-1.3,11.9-4.9,11.9H62.5v422.8H150c3.5,0,4.9,6.2,4.9,11.9c0,5.3-1.3,10.2-4.9,10.2
		H0.1V0z"/>
</g>
</svg>
