<?xml version="1.0" encoding="UTF-8" standalone="no"?>
<!--version="1.0" encoding="UTF-8"-->

<svg
   version="1.1"
   width="100"
   height="101.56152"
   id="svg47"
   sodipodi:docname="logo.svg"
   inkscape:version="1.3 (0e150ed6c4, 2023-07-21)"
   xml:space="preserve"
   xmlns:inkscape="http://www.inkscape.org/namespaces/inkscape"
   xmlns:sodipodi="http://sodipodi.sourceforge.net/DTD/sodipodi-0.dtd"
   xmlns="http://www.w3.org/2000/svg"
   xmlns:svg="http://www.w3.org/2000/svg"><defs
     id="defs47" /><sodipodi:namedview
     id="namedview47"
     pagecolor="#ffffff"
     bordercolor="#666666"
     borderopacity="1.0"
     inkscape:showpageshadow="2"
     inkscape:pageopacity="0.0"
     inkscape:pagecheckerboard="0"
     inkscape:deskcolor="#d1d1d1"
     showgrid="false"
     inkscape:zoom="0.79394532"
     inkscape:cx="133.51045"
     inkscape:cy="158.07134"
     inkscape:window-width="1920"
     inkscape:window-height="1009"
     inkscape:window-x="-8"
     inkscape:window-y="-8"
     inkscape:window-maximized="1"
     inkscape:current-layer="svg47" /><path
     d="m 27.82962,82.473862 c 3.013858,6.126891 14.411977,11.358014 24.705369,11.27475 9.160622,0.291682 17.111397,-3.56507 24.118075,-9.287483 3.669744,-3.141331 8.370186,-4.832384 12.698753,-6.872642 C 86.313245,83.374762 82.191784,88.356194 77.083362,92.397511 51.691619,112.45384 26.451681,93.809956 22.466028,90.602456 20.128248,89.165778 15.974209,90.008431 12.347981,87.972331 11.371614,87.429492 10.846036,87.037161 10.3087,86.598567 l 0.136517,-0.273033 c 3.091473,0.808364 5.233683,-0.136375 6.689302,-0.136375 V 85.916122 C 12.870873,85.504558 8.0586985,84.348822 5.4068066,80.743379 -0.01390142,71.722361 20.295311,66.691744 27.82962,82.473862 Z"
     fill="#faaf15"
     id="path2"
     sodipodi:nodetypes="ccccccccccccc"
     style="stroke-width:0.136517" /><circle
     style="fill:#000000;fill-opacity:1;stroke:#000000;stroke-width:0.202312;stroke-dashoffset:9.99999;stroke-opacity:1"
     id="path49"
     cx="50"
     cy="50.780754"
     r="27.912395" /><g
     id="g48"
     transform="matrix(0.09765625,0,0,0.09765625,17.402258,18.630179)"><g
       id="g49"
       transform="matrix(5.729551,0,0,5.729551,-42.883593,-23.465133)"><path
         d="m 109.766,7.281 a 7.691,7.691 0 0 1 -1.09,4.282 7.583,7.583 0 0 1 -3.262,2.949 7.49,7.49 0 0 1 -4.34,0.62 A 7.525,7.525 0 0 1 97.121,13.219 7.642,7.642 0 0 1 95.137,5 a 7.606,7.606 0 0 1 2.629,-3.531 7.509,7.509 0 0 1 4.136,-1.461 7.51,7.51 0 0 1 5.422,1.996 7.627,7.627 0 0 1 2.438,5.273 z m 0,0"
         fill="#767677"
         id="path1" /><path
         d="M 65.758,96.79 C 45.66,96.79 28.109,89.426 18.992,78.523 a 49.95,49.95 0 0 0 18.102,24.254 49.251,49.251 0 0 0 28.676,9.215 49.279,49.279 0 0 0 28.675,-9.215 49.917,49.917 0 0 0 18.094,-24.254 C 103.406,89.426 85.855,96.79 65.758,96.79 Z m 0,0 M 65.75,25.883 c 20.098,0 37.652,7.367 46.766,18.265 A 49.95,49.95 0 0 0 94.414,19.895 49.27,49.27 0 0 0 65.742,10.675 49.27,49.27 0 0 0 37.07,19.895 49.909,49.909 0 0 0 18.97,44.148 C 28.102,33.27 45.652,25.883 65.75,25.883 Z m 0,0"
         fill="#f37726"
         id="path2-4" /><path
         d="m 38.164,117.984 a 9.671,9.671 0 0 1 -1.371,5.399 9.5,9.5 0 0 1 -9.59,4.504 9.405,9.405 0 0 1 -4.98,-2.418 9.671,9.671 0 0 1 -2.809,-4.797 9.73,9.73 0 0 1 0.313,-5.567 9.624,9.624 0 0 1 3.328,-4.453 9.466,9.466 0 0 1 12.043,0.688 9.63,9.63 0 0 1 3.066,6.648 z m 0,0"
         fill="#989798"
         id="path3-2" /><path
         d="m 21.285,23.418 a 5.53,5.53 0 0 1 -3.14,-0.816 5.627,5.627 0 0 1 -2.618,-5.672 5.612,5.612 0 0 1 1.407,-2.95 5.593,5.593 0 0 1 2.789,-1.664 5.46,5.46 0 0 1 3.238,0.184 5.539,5.539 0 0 1 2.586,1.969 5.66,5.66 0 0 1 -0.399,7.129 5.557,5.557 0 0 1 -3.867,1.82 z m 0,0"
         fill="#6f7070"
         id="path4" /></g></g><path
     d="m 87.030944,10.012847 c 0.912768,0.751823 5.10584,4.468708 5.624884,9.698532 0.109125,1.629735 -0.113766,2.41791 -0.983326,3.406904 1.50482,0.46297 2.613625,1.85814 3.617684,3.011823 1.361614,1.564206 2.676542,1.97198 4.709814,2.175527 l -0.136516,0.409548 c -1.865507,0.741822 -3.733529,-0.387192 -4.505042,-0.955616 0.284745,1.479221 0.278977,3.053677 -0.136656,4.505179 -0.656781,-0.53733 -0.715756,-1.35206 -0.810634,-2.150135 -0.244677,-3.163009 -3.482319,-6.160355 -3.830924,-6.313881 -4.254534,1.180792 -8.27352,-0.065 -12.015625,-2.214569 C 75.769845,19.818272 73.548723,17.666773 71.9179,14.789555 69.400264,10.363967 63.428628,8.2886446 58.754853,6.9794525 51.754345,5.0759247 45.515342,5.6018522 41.19052,6.5198019 30.205314,8.9262466 23.598842,15.705394 23.488714,15.819025 c -1.105372,1.126806 -2.432994,1.667411 -3.853173,2.312042 -3.617168,1.669742 -6.396977,3.274555 -9.190556,5.123869 L 10.30847,22.981903 C 10.55092,22.407325 13.626452,15.411227 22.649413,7.8569797 45.672028,-10.663063 86.19483,9.2682013 87.030944,10.012847 Z"
     fill="#236da8"
     id="path3"
     sodipodi:nodetypes="cccccccccccccccccccc"
     style="stroke-width:0.136517" /><path
     d="m 17.953616,22.982073 c -4.138663,6.322966 -8.7552438,12.665892 -6.338045,20.515271 2.753549,4.986712 8.744079,7.047703 14.119479,8.562717 0.82647,4.054264 0.82647,4.054264 0.819098,5.187622 C 25.691503,57.12494 13.855188,55.357287 6.3497253,49.739283 3.2599542,47.435262 0.92543822,44.600715 0.20648837,41.138751 -0.15036542,38.188359 0.66272611,35.606972 2.4078149,33.236228 5.594573,29.206661 10.351908,25.877928 16.690839,23.220976 c 0.419288,-0.17032 0.819213,-0.446632 1.262641,-0.238903 z"
     fill="#236da8"
     id="path5"
     sodipodi:nodetypes="cccccccccc"
     style="stroke-width:0.136517" /><path
     d="M 78.703403,28.988794 C 111.01289,32.625429 99.71083,62.099223 70.92197,63.39092 71.712805,61.780734 72.217186,58.31537 73.379537,57.385839 81.14772,55.193469 91.687486,50.83542 92.627936,43.186633 93.444855,34.095358 80.803925,29.778367 78.703403,29.125309 Z"
     fill="#f9af15"
     id="path6"
     sodipodi:nodetypes="cccccc"
     style="stroke-width:0.136517" /><path
     d="m 98.08873,52.742644 c 1.175948,0.998207 1.770089,3.076873 1.888857,4.520534 0.331353,11.591973 -13.581378,18.738528 -18.69689,20.947686 -1.411035,0.606406 -1.411035,0.606406 -1.894849,0.606406 1.065647,-3.436117 3.467516,-6.355792 5.634441,-9.165298 5.639666,-7.326735 3.799097,-8.801908 5.640994,-10.201871 2.924273,-1.714043 5.530994,-3.857151 7.427447,-6.707457 z"
     fill="#236da8"
     id="path9"
     sodipodi:nodetypes="ccccccc"
     style="stroke-width:0.136517" /><path
     d="m 1.571652,48.237603 c 4.9428296,4.675764 5.6879774,2.991031 5.5630424,5.793481 0,8.295336 12.0894146,13.108825 16.0545976,14.464319 0.811863,0.278495 1.611303,0.586339 2.409241,0.902373 v 0.136516 C 15.823706,69.872078 8.1327313,69.043348 1.8756741,60.313978 0.21973047,57.635526 -0.422033,54.356403 0.28321058,51.266764 0.55187481,50.175862 1.0213546,49.213422 1.571652,48.237603 Z"
     fill="#f9af15"
     id="path11"
     sodipodi:nodetypes="cccccccc"
     style="stroke-width:0.136517" /><path
     d="m 22.322141,28.852278 c -6.615478,2.463642 -9.537827,5.34348 -11.057827,7.508264 -1.3544684,-5.03022 6.443489,-7.887639 11.057827,-7.508264 z"
     fill="#f5b416"
     id="path15"
     sodipodi:nodetypes="ccc"
     style="stroke-width:0.136517" /><ellipse
     style="fill:#f9f9f9;fill-opacity:1;stroke:#f2f2f2;stroke-width:0.257983;stroke-dashoffset:9.99999"
     id="path47"
     cx="14.592929"
     cy="79.146179"
     rx="2.1277332"
     ry="1.9149599" /><ellipse
     style="fill:#f9f9f9;fill-opacity:1;stroke:#f2f2f2;stroke-width:0.257983;stroke-dashoffset:9.99999"
     id="path47-0"
     cx="86.263481"
     cy="15.711979"
     rx="2.1277332"
     ry="1.9149599" /></svg>
