<?xml version="1.0" encoding="UTF-8"?>
<svg id="_Слой_2" data-name="Слой 2" xmlns="http://www.w3.org/2000/svg" viewBox="0 0 1000 331.43">
  <defs>
    <style>
      .cls-1 {
        fill: none;
      }

      .cls-2 {
        fill: #00b4c8;
      }
    </style>
  </defs>
  <g id="_Слой_1-2" data-name="Слой 1">
    <g>
      <rect class="cls-1" width="1000" height="331.12"/>
      <path class="cls-2" d="M468.73,154.14c0-31.55-25.58-57.14-57.13-57.14s-57.14,25.59-57.14,57.14v120.13c0,31.55,25.58,57.15,57.14,57.15s57.13-25.59,57.13-57.14h-.01v-9.21c0-.58-.47-1.05-1.04-1.05h-36c-.57,0-1.04,.47-1.04,1.05v9.21h.01c0,10.48-8.56,19.05-19.05,19.05s-19.05-8.57-19.05-19.06v-30.76h75.15c.57,0,1.04-.47,1.04-1.05v-37.04h0v-51.28Zm-38.09,0v51.28h-38.1v-51.28c0-10.5,8.55-19.05,19.05-19.05s19.05,8.57,19.05,19.05Z"/>
      <path class="cls-2" d="M188.99,98.01h-16.11c-31.55,0-57.14,25.58-57.14,57.14v168.49c0,1.62,1.31,2.93,2.93,2.93h32.23c1.62,0,2.93-1.31,2.93-2.93V155.15c0-10.49,8.55-19.05,19.05-19.05h16.11c1.62,0,2.93-1.31,2.93-2.93v-32.24c0-1.62-1.31-2.93-2.93-2.93h0Z"/>
      <path class="cls-2" d="M326.69,274.09V100.05c0-.58-.47-1.05-1.05-1.05h-36c-.57,0-1.05,.47-1.05,1.05v174.03h0c0,10.49-8.55,19.05-19.05,19.05-1.31,0-2.59-.13-3.83-.39-8.67-1.78-15.22-9.48-15.22-18.66V100.05c0-.58-.47-1.05-1.04-1.05h-36c-.57,0-1.04,.47-1.04,1.05v174.03c0,1.97,.1,3.92,.3,5.84,2.93,28.81,27.26,51.3,56.84,51.3s53.92-22.49,56.84-51.3c.2-1.92,.3-3.87,.3-5.84h0Z"/>
      <path class="cls-2" d="M608.74,274.28h.01c0,31.55-25.59,57.15-57.14,57.15s-57.14-25.6-57.14-57.15v-120.14c0-31.55,25.58-57.14,57.14-57.14s57.14,25.59,57.14,57.14h-.01v20.93c0,.58-.47,1.05-1.04,1.05h-36c-.57,0-1.04-.47-1.04-1.05v-20.93c0-10.49-8.56-19.05-19.05-19.05s-19.05,8.55-19.05,19.05v120.14c0,10.49,8.55,19.06,19.05,19.06s19.05-8.58,19.05-19.06v-23.86c0-.58,.47-1.05,1.04-1.05h36c.57,0,1.04,.47,1.04,1.05v23.86Z"/>
      <path class="cls-2" d="M687.92,97c-31.49,0-57.03,25.48-57.13,56.95v120.96h.02c.33,31.27,25.78,56.52,57.12,56.52s56.79-25.25,57.12-56.52h.02v-120.76c0-31.55-25.59-57.14-57.14-57.14h-.01Zm0,196.32c-10.5,0-19.05-8.55-19.05-19.05v-120.14c0-10.5,8.55-19.05,19.05-19.05s19.05,8.56,19.05,19.05v120.14c0,10.49-8.55,19.05-19.05,19.05Z"/>
      <path class="cls-2" d="M887.37,155.14v-.33c-.18-31.4-25.69-56.81-57.13-56.81h-56.09c-.57,0-1.05,.47-1.05,1.05v226.47c0,.57,.47,1.05,1.05,1.05h36c.57,0,1.04-.47,1.04-1.05V136.09h19.05c10.49,0,19.04,8.55,19.05,19.03v170.4c0,.58,.47,1.05,1.05,1.05h36c.57,0,1.05-.47,1.05-1.05V155.14h-.02Z"/>
      <path class="cls-2" d="M980.95,38.09h16.11c1.62,0,2.93-1.31,2.93-2.93V2.93c0-1.62-1.31-2.93-2.93-2.93h-16.11c-31.56,0-57.14,25.58-57.14,57.14v41.75h-13.61c-.58,0-1.05,.47-1.05,1.05v36c0,.58,.47,1.05,1.05,1.05h13.61v190.47h38.09V136.98h37.04c.58,0,1.04-.47,1.04-1.05v-36c0-.58-.46-1.05-1.04-1.05h-37.04V57.14c0-10.48,8.57-19.05,19.05-19.05Z"/>
      <path class="cls-2" d="M87.91,136.98c1.62,0,2.93-1.31,2.93-2.93v-32.24c0-1.62-1.31-2.93-2.93-2.93H52.74V39.05c0-.58-.47-1.05-1.05-1.05H15.69c-.58,0-1.05,.47-1.05,1.05v59.84H2.93c-1.62,0-2.93,1.31-2.93,2.93v32.24c0,1.62,1.31,2.93,2.93,2.93H14.66v133.33c0,31.55,25.58,57.14,57.14,57.14h16.11c1.62,0,2.93-1.31,2.93-2.93v-32.23c0-1.62-1.31-2.93-2.93-2.93h-16.11c-10.48,0-19.05-8.57-19.05-19.05V136.98h35.16Z"/>
    </g>
  </g>
</svg>