<?xml version="1.0" encoding="UTF-8" standalone="no"?>
<!DOCTYPE svg PUBLIC "-//W3C//DTD SVG 1.1//EN"
 "http://www.w3.org/Graphics/SVG/1.1/DTD/svg11.dtd">
<!-- Generated by graphviz version 12.2.1 (0)
 -->
<!-- Pages: 1 -->
<svg width="955pt" height="538pt"
 viewBox="0.00 0.00 954.69 537.66" xmlns="http://www.w3.org/2000/svg" xmlns:xlink="http://www.w3.org/1999/xlink">
<g id="graph0" class="graph" transform="scale(1 1) rotate(0) translate(4 533.66)">
<polygon fill="white" stroke="none" points="-4,4 -4,-533.66 950.69,-533.66 950.69,4 -4,4"/>
<!-- Value -->
<g id="node1" class="node">
<title>Value</title>
<ellipse fill="none" stroke="black" cx="262.22" cy="-495.16" rx="31.9" ry="18"/>
<text text-anchor="middle" x="262.22" y="-490.11" font-family="Times,serif" font-size="14.00">Value</text>
</g>
<!-- StringValue -->
<g id="node2" class="node">
<title>StringValue</title>
<ellipse fill="none" stroke="black" cx="435.21" cy="-282.16" rx="54.42" ry="18"/>
<text text-anchor="middle" x="435.21" y="-277.11" font-family="Times,serif" font-size="14.00">StringValue</text>
</g>
<!-- Value&#45;&gt;StringValue -->
<g id="edge1" class="edge">
<title>Value&#45;&gt;StringValue</title>
<path fill="none" stroke="black" d="M291.26,-487.26C308.4,-481.28 329.83,-471.58 344.79,-457.16 387.75,-415.74 413.75,-349.23 425.91,-311.25"/>
<polygon fill="black" stroke="black" points="429.2,-312.47 428.8,-301.88 422.51,-310.41 429.2,-312.47"/>
</g>
<!-- JSONValue -->
<g id="node3" class="node">
<title>JSONValue</title>
<ellipse fill="none" stroke="black" cx="892.78" cy="-274.16" rx="53.91" ry="18"/>
<text text-anchor="middle" x="892.78" y="-269.11" font-family="Times,serif" font-size="14.00">JSONValue</text>
</g>
<!-- Value&#45;&gt;JSONValue -->
<g id="edge2" class="edge">
<title>Value&#45;&gt;JSONValue</title>
<path fill="none" stroke="black" d="M291.96,-502.5C379.43,-523.02 646.01,-571.79 802.87,-449.16 850.29,-412.09 874.6,-342.85 885.12,-303.49"/>
<polygon fill="black" stroke="black" points="888.46,-304.56 887.52,-294.01 881.67,-302.84 888.46,-304.56"/>
</g>
<!-- StringValue&#45;&gt;StringValue -->
<g id="edge6" class="edge">
<title>StringValue&#45;&gt;StringValue</title>
<path fill="none" stroke="black" d="M408.79,-298.08C401.9,-308.31 410.7,-318.16 435.21,-318.16 450.15,-318.16 459.25,-314.5 462.53,-309.33"/>
<polygon fill="black" stroke="black" points="466.03,-309.28 461.76,-299.59 459.06,-309.83 466.03,-309.28"/>
</g>
<!-- StringValue&#45;&gt;JSONValue -->
<g id="edge7" class="edge">
<title>StringValue&#45;&gt;JSONValue</title>
<path fill="none" stroke="black" d="M487.59,-276.79C571.38,-272.41 737.24,-269.37 828.28,-270.43"/>
<polygon fill="black" stroke="black" points="827.98,-273.92 838.03,-270.56 828.08,-266.92 827.98,-273.92"/>
</g>
<!-- BooleanValue -->
<g id="node4" class="node">
<title>BooleanValue</title>
<ellipse fill="none" stroke="black" cx="588.25" cy="-219.16" rx="62.61" ry="18"/>
<text text-anchor="middle" x="588.25" y="-214.11" font-family="Times,serif" font-size="14.00">BooleanValue</text>
</g>
<!-- StringValue&#45;&gt;BooleanValue -->
<g id="edge3" class="edge">
<title>StringValue&#45;&gt;BooleanValue</title>
<path fill="none" stroke="black" d="M462.18,-266.09C481.19,-256.78 507.72,-245.28 531.44,-235.9"/>
<polygon fill="black" stroke="black" points="532.65,-239.18 540.7,-232.3 530.11,-232.66 532.65,-239.18"/>
</g>
<!-- FloatValue -->
<g id="node5" class="node">
<title>FloatValue</title>
<ellipse fill="none" stroke="black" cx="588.25" cy="-385.16" rx="50.84" ry="18"/>
<text text-anchor="middle" x="588.25" y="-380.11" font-family="Times,serif" font-size="14.00">FloatValue</text>
</g>
<!-- StringValue&#45;&gt;FloatValue -->
<g id="edge5" class="edge">
<title>StringValue&#45;&gt;FloatValue</title>
<path fill="none" stroke="black" d="M462.98,-297.91C480.24,-311.22 503.51,-329.82 525.64,-344.16 535.72,-350.7 547.31,-357 557.68,-362.79"/>
<polygon fill="black" stroke="black" points="555.82,-365.76 566.25,-367.65 559.28,-359.67 555.82,-365.76"/>
</g>
<!-- IntegerValue -->
<g id="node6" class="node">
<title>IntegerValue</title>
<ellipse fill="none" stroke="black" cx="744.86" cy="-330.16" rx="58" ry="18"/>
<text text-anchor="middle" x="744.86" y="-325.11" font-family="Times,serif" font-size="14.00">IntegerValue</text>
</g>
<!-- StringValue&#45;&gt;IntegerValue -->
<g id="edge4" class="edge">
<title>StringValue&#45;&gt;IntegerValue</title>
<path fill="none" stroke="black" d="M490.1,-282.56C501.81,-284.3 514.13,-286.33 525.64,-288.16 582.37,-297.21 647.52,-306.98 691.75,-315.33"/>
<polygon fill="black" stroke="black" points="690.84,-318.72 701.32,-317.19 692.17,-311.85 690.84,-318.72"/>
</g>
<!-- JSONValue&#45;&gt;StringValue -->
<g id="edge8" class="edge">
<title>JSONValue&#45;&gt;StringValue</title>
<path fill="none" stroke="black" d="M840.94,-279.5C757.47,-283.89 591.56,-286.94 500.22,-285.9"/>
<polygon fill="black" stroke="black" points="500.48,-282.4 490.43,-285.76 500.38,-289.4 500.48,-282.4"/>
</g>
<!-- JSONValue&#45;&gt;JSONValue -->
<g id="edge9" class="edge">
<title>JSONValue&#45;&gt;JSONValue</title>
<path fill="none" stroke="black" d="M867,-290.45C860.78,-300.55 869.38,-310.16 892.78,-310.16 906.67,-310.16 915.35,-306.77 918.8,-301.91"/>
<polygon fill="black" stroke="black" points="922.3,-301.89 918.59,-291.96 915.3,-302.04 922.3,-301.89"/>
</g>
<!-- BooleanValue&#45;&gt;StringValue -->
<g id="edge10" class="edge">
<title>BooleanValue&#45;&gt;StringValue</title>
<path fill="none" stroke="black" d="M560.6,-235.57C540.75,-245.25 513.02,-257.21 488.78,-266.7"/>
<polygon fill="black" stroke="black" points="487.77,-263.34 479.7,-270.19 490.29,-269.87 487.77,-263.34"/>
</g>
<!-- BooleanValue&#45;&gt;JSONValue -->
<g id="edge11" class="edge">
<title>BooleanValue&#45;&gt;JSONValue</title>
<path fill="none" stroke="black" d="M646.65,-226.11C689.82,-231.73 750.32,-240.46 802.87,-251.16 814.95,-253.62 827.84,-256.69 839.96,-259.78"/>
<polygon fill="black" stroke="black" points="838.8,-263.1 849.35,-262.23 840.56,-256.32 838.8,-263.1"/>
</g>
<!-- FloatValue&#45;&gt;StringValue -->
<g id="edge13" class="edge">
<title>FloatValue&#45;&gt;StringValue</title>
<path fill="none" stroke="black" d="M546.84,-374.44C539.64,-370.71 532.31,-366.49 525.64,-362.16 500.76,-346.04 474.44,-324.53 456.84,-307.63"/>
<polygon fill="black" stroke="black" points="459.57,-305.41 450.02,-300.82 454.62,-310.36 459.57,-305.41"/>
</g>
<!-- FloatValue&#45;&gt;JSONValue -->
<g id="edge14" class="edge">
<title>FloatValue&#45;&gt;JSONValue</title>
<path fill="none" stroke="black" d="M639.15,-387.07C684.05,-386.87 750.77,-381.73 802.87,-357.16 830.28,-344.23 854.9,-319.71 871.24,-300.66"/>
<polygon fill="black" stroke="black" points="873.92,-302.92 877.61,-292.99 868.53,-298.45 873.92,-302.92"/>
</g>
<!-- FloatValue&#45;&gt;IntegerValue -->
<g id="edge12" class="edge">
<title>FloatValue&#45;&gt;IntegerValue</title>
<path fill="none" stroke="black" d="M616.89,-370.01C636.1,-361.87 662.4,-352.1 686.08,-344.16"/>
<polygon fill="black" stroke="black" points="686.9,-347.57 695.31,-341.12 684.72,-340.92 686.9,-347.57"/>
</g>
<!-- IntegerValue&#45;&gt;StringValue -->
<g id="edge16" class="edge">
<title>IntegerValue&#45;&gt;StringValue</title>
<path fill="none" stroke="black" d="M686.85,-329.18C642.79,-324.27 580.31,-314.88 525.64,-306.16 511.28,-303.87 495.65,-301.28 481.53,-298.49"/>
<polygon fill="black" stroke="black" points="482.57,-295.13 472.07,-296.51 481.14,-301.98 482.57,-295.13"/>
</g>
<!-- IntegerValue&#45;&gt;JSONValue -->
<g id="edge17" class="edge">
<title>IntegerValue&#45;&gt;JSONValue</title>
<path fill="none" stroke="black" d="M782.31,-316.17C801.48,-308.81 825.19,-299.71 845.64,-291.87"/>
<polygon fill="black" stroke="black" points="846.81,-295.17 854.89,-288.32 844.3,-288.63 846.81,-295.17"/>
</g>
<!-- IntegerValue&#45;&gt;FloatValue -->
<g id="edge15" class="edge">
<title>IntegerValue&#45;&gt;FloatValue</title>
<path fill="none" stroke="black" d="M714.7,-345.95C694.55,-354.42 667.15,-364.51 643.09,-372.47"/>
<polygon fill="black" stroke="black" points="642.19,-369.09 633.76,-375.5 644.35,-375.74 642.19,-369.09"/>
</g>
<!-- NullValue -->
<g id="node7" class="node">
<title>NullValue</title>
<ellipse fill="none" stroke="black" cx="262.22" cy="-430.16" rx="48.28" ry="18"/>
<text text-anchor="middle" x="262.22" y="-425.11" font-family="Times,serif" font-size="14.00">NullValue</text>
</g>
<!-- NullValue&#45;&gt;StringValue -->
<g id="edge18" class="edge">
<title>NullValue&#45;&gt;StringValue</title>
<path fill="none" stroke="black" d="M291.33,-415.53C307.69,-406.4 328.27,-393.81 344.79,-380.16 370.81,-358.66 396.35,-329.66 413.42,-308.79"/>
<polygon fill="black" stroke="black" points="416.15,-310.99 419.7,-301.01 410.7,-306.6 416.15,-310.99"/>
</g>
<!-- NullValue&#45;&gt;JSONValue -->
<g id="edge19" class="edge">
<title>NullValue&#45;&gt;JSONValue</title>
<path fill="none" stroke="black" d="M301.85,-440.9C395.83,-464.66 640.6,-512.02 802.87,-412.16 843.69,-387.04 869.25,-335.37 881.98,-302.87"/>
<polygon fill="black" stroke="black" points="885.19,-304.26 885.42,-293.67 878.64,-301.81 885.19,-304.26"/>
</g>
<!-- StringMapValue -->
<g id="node8" class="node">
<title>StringMapValue</title>
<ellipse fill="none" stroke="black" cx="71.82" cy="-312.16" rx="71.82" ry="18"/>
<text text-anchor="middle" x="71.82" y="-307.11" font-family="Times,serif" font-size="14.00">StringMapValue</text>
</g>
<!-- StringMapValue&#45;&gt;StringValue -->
<g id="edge22" class="edge">
<title>StringMapValue&#45;&gt;StringValue</title>
<path fill="none" stroke="black" d="M140.37,-306.55C206.38,-301.07 306.1,-292.8 370.69,-287.43"/>
<polygon fill="black" stroke="black" points="370.75,-290.94 380.42,-286.63 370.17,-283.97 370.75,-290.94"/>
</g>
<!-- StringMapValue&#45;&gt;JSONValue -->
<g id="edge23" class="edge">
<title>StringMapValue&#45;&gt;JSONValue</title>
<path fill="none" stroke="black" d="M73.6,-293.77C76.85,-242.92 93.59,-99.97 179.65,-36.16 270.78,31.41 320.76,-17.16 434.21,-17.16 434.21,-17.16 434.21,-17.16 589.25,-17.16 685.53,-17.16 727.86,7.2 802.87,-53.16 862.87,-101.44 882.62,-196.42 888.93,-244.61"/>
<polygon fill="black" stroke="black" points="885.43,-244.78 890.09,-254.3 892.38,-243.95 885.43,-244.78"/>
</g>
<!-- StringMapValue&#45;&gt;StringMapValue -->
<g id="edge20" class="edge">
<title>StringMapValue&#45;&gt;StringMapValue</title>
<path fill="none" stroke="black" d="M38.64,-328.45C30.64,-338.55 41.7,-348.16 71.82,-348.16 89.71,-348.16 100.87,-344.77 105.32,-339.91"/>
<polygon fill="black" stroke="black" points="108.82,-339.86 105.05,-329.96 101.82,-340.06 108.82,-339.86"/>
</g>
<!-- DataValue -->
<g id="node9" class="node">
<title>DataValue</title>
<ellipse fill="none" stroke="black" cx="262.22" cy="-335.16" rx="49.3" ry="18"/>
<text text-anchor="middle" x="262.22" y="-330.11" font-family="Times,serif" font-size="14.00">DataValue</text>
</g>
<!-- StringMapValue&#45;&gt;DataValue -->
<g id="edge21" class="edge">
<title>StringMapValue&#45;&gt;DataValue</title>
<path fill="none" stroke="black" d="M143.51,-314.23C165.61,-316.56 189.55,-319.65 210.04,-322.83"/>
<polygon fill="black" stroke="black" points="209.42,-326.28 219.85,-324.42 210.53,-319.37 209.42,-326.28"/>
</g>
<!-- DataValue&#45;&gt;StringValue -->
<g id="edge26" class="edge">
<title>DataValue&#45;&gt;StringValue</title>
<path fill="none" stroke="black" d="M300.74,-323.53C325.11,-315.98 357.16,-306.04 383.75,-297.8"/>
<polygon fill="black" stroke="black" points="384.43,-301.25 392.95,-294.95 382.36,-294.57 384.43,-301.25"/>
</g>
<!-- DataValue&#45;&gt;JSONValue -->
<g id="edge27" class="edge">
<title>DataValue&#45;&gt;JSONValue</title>
<path fill="none" stroke="black" d="M296.91,-348.43C346.2,-367.06 441.28,-400.04 525.64,-412.16 580.72,-420.08 595.42,-417.05 650.86,-412.16 719.21,-406.14 743.86,-420.18 802.87,-385.16 836.27,-365.34 862.2,-327.96 877.22,-302.09"/>
<polygon fill="black" stroke="black" points="880.23,-303.88 882.06,-293.44 874.12,-300.46 880.23,-303.88"/>
</g>
<!-- DataValue&#45;&gt;StringMapValue -->
<g id="edge25" class="edge">
<title>DataValue&#45;&gt;StringMapValue</title>
<path fill="none" stroke="black" d="M212.45,-335.2C189.2,-333.2 161.11,-329.91 136.23,-326.32"/>
<polygon fill="black" stroke="black" points="136.96,-322.89 126.55,-324.88 135.92,-329.81 136.96,-322.89"/>
</g>
<!-- DataValue&#45;&gt;DataValue -->
<g id="edge24" class="edge">
<title>DataValue&#45;&gt;DataValue</title>
<path fill="none" stroke="black" d="M233.28,-349.95C223.85,-360.58 233.5,-371.16 262.22,-371.16 280.62,-371.16 291.19,-366.82 293.93,-360.9"/>
<polygon fill="black" stroke="black" points="297.38,-360.26 291.53,-351.42 290.59,-361.97 297.38,-360.26"/>
</g>
<!-- FileValue -->
<g id="node10" class="node">
<title>FileValue</title>
<ellipse fill="none" stroke="black" cx="262.22" cy="-243.16" rx="46.23" ry="18"/>
<text text-anchor="middle" x="262.22" y="-238.11" font-family="Times,serif" font-size="14.00">FileValue</text>
</g>
<!-- FileValue&#45;&gt;StringValue -->
<g id="edge28" class="edge">
<title>FileValue&#45;&gt;StringValue</title>
<path fill="none" stroke="black" d="M302.88,-252.21C325.38,-257.34 353.89,-263.84 378.6,-269.48"/>
<polygon fill="black" stroke="black" points="377.65,-272.85 388.17,-271.66 379.2,-266.02 377.65,-272.85"/>
</g>
<!-- FileValue&#45;&gt;JSONValue -->
<g id="edge29" class="edge">
<title>FileValue&#45;&gt;JSONValue</title>
<path fill="none" stroke="black" d="M299.78,-232.36C368.46,-213.4 521.53,-177.46 650.86,-192.16 719.74,-199.99 737.89,-202.98 802.87,-227.16 821.12,-233.95 840.35,-243.75 856.24,-252.65"/>
<polygon fill="black" stroke="black" points="854.42,-255.64 864.84,-257.57 857.9,-249.56 854.42,-255.64"/>
</g>
<!-- SequenceValue -->
<g id="node11" class="node">
<title>SequenceValue</title>
<ellipse fill="none" stroke="black" cx="262.22" cy="-171.16" rx="67.22" ry="18"/>
<text text-anchor="middle" x="262.22" y="-166.11" font-family="Times,serif" font-size="14.00">SequenceValue</text>
</g>
<!-- SequenceValue&#45;&gt;StringValue -->
<g id="edge31" class="edge">
<title>SequenceValue&#45;&gt;StringValue</title>
<path fill="none" stroke="black" d="M294.77,-187.31C310.14,-195.5 328.72,-205.86 344.79,-216.16 365.21,-229.25 387.14,-245.4 404.18,-258.45"/>
<polygon fill="black" stroke="black" points="401.84,-261.07 411.89,-264.41 406.12,-255.53 401.84,-261.07"/>
</g>
<!-- SequenceValue&#45;&gt;JSONValue -->
<g id="edge32" class="edge">
<title>SequenceValue&#45;&gt;JSONValue</title>
<path fill="none" stroke="black" d="M318.75,-161.07C419.7,-145.32 638.04,-123.35 802.87,-192.16 830.84,-203.84 855.54,-228.43 871.76,-247.65"/>
<polygon fill="black" stroke="black" points="869.04,-249.85 878.07,-255.4 874.47,-245.43 869.04,-249.85"/>
</g>
<!-- SequenceValue&#45;&gt;SequenceValue -->
<g id="edge30" class="edge">
<title>SequenceValue&#45;&gt;SequenceValue</title>
<path fill="none" stroke="black" d="M232.07,-187.45C224.8,-197.55 234.85,-207.16 262.22,-207.16 278.47,-207.16 288.61,-203.77 292.65,-198.91"/>
<polygon fill="black" stroke="black" points="296.15,-198.87 292.4,-188.96 289.15,-199.05 296.15,-198.87"/>
</g>
<!-- ValueSchemaValue -->
<g id="node12" class="node">
<title>ValueSchemaValue</title>
<ellipse fill="none" stroke="black" cx="262.22" cy="-117.16" rx="82.57" ry="18"/>
<text text-anchor="middle" x="262.22" y="-112.11" font-family="Times,serif" font-size="14.00">ValueSchemaValue</text>
</g>
<!-- ValueSchemaValue&#45;&gt;StringValue -->
<g id="edge33" class="edge">
<title>ValueSchemaValue&#45;&gt;StringValue</title>
<path fill="none" stroke="black" d="M319.72,-130.26C328.64,-133.86 337.35,-138.42 344.79,-144.16 382.38,-173.2 408.88,-222.78 422.83,-253.94"/>
<polygon fill="black" stroke="black" points="419.45,-254.95 426.64,-262.74 425.88,-252.17 419.45,-254.95"/>
</g>
<!-- ValueSchemaValue&#45;&gt;JSONValue -->
<g id="edge34" class="edge">
<title>ValueSchemaValue&#45;&gt;JSONValue</title>
<path fill="none" stroke="black" d="M325.89,-105.45C431.78,-89.03 649.51,-70.03 802.87,-156.16 838.96,-176.43 864.88,-218.04 879.11,-246.03"/>
<polygon fill="black" stroke="black" points="875.79,-247.2 883.32,-254.65 882.08,-244.13 875.79,-247.2"/>
</g>
<!-- WorkflowValue -->
<g id="node13" class="node">
<title>WorkflowValue</title>
<ellipse fill="none" stroke="black" cx="262.22" cy="-63.16" rx="69.78" ry="18"/>
<text text-anchor="middle" x="262.22" y="-58.11" font-family="Times,serif" font-size="14.00">WorkflowValue</text>
</g>
<!-- WorkflowValue&#45;&gt;StringValue -->
<g id="edge35" class="edge">
<title>WorkflowValue&#45;&gt;StringValue</title>
<path fill="none" stroke="black" d="M317.9,-74.38C327.63,-78.2 337.1,-83.32 344.79,-90.16 394.15,-134.09 418.27,-210.94 428.27,-252.86"/>
<polygon fill="black" stroke="black" points="424.82,-253.48 430.44,-262.46 431.65,-251.94 424.82,-253.48"/>
</g>
<!-- WorkflowValue&#45;&gt;JSONValue -->
<g id="edge36" class="edge">
<title>WorkflowValue&#45;&gt;JSONValue</title>
<path fill="none" stroke="black" d="M316.45,-51.55C420.29,-32.08 652.85,-4.43 802.87,-108.16 850.02,-140.76 874.29,-206.59 884.91,-244.83"/>
<polygon fill="black" stroke="black" points="881.46,-245.49 887.39,-254.28 888.23,-243.72 881.46,-245.49"/>
</g>
</g>
</svg>
