<?xml version="1.0" encoding="UTF-8" standalone="no"?>
<svg
   version="1.1"
   style="display:block"
   viewBox="0 0 1153.701 581.00049"
   width="576.85052"
   height="290.50024"
   preserveAspectRatio="none"
   id="svg19"
   sodipodi:docname="svg-ai-a-simple-logo-with-a-transparent-background-for-a--2026-01-19.svg"
   inkscape:version="1.4.3 (0d15f75, 2025-12-25)"
   xmlns:inkscape="http://www.inkscape.org/namespaces/inkscape"
   xmlns:sodipodi="http://sodipodi.sourceforge.net/DTD/sodipodi-0.dtd"
   xmlns="http://www.w3.org/2000/svg"
   xmlns:svg="http://www.w3.org/2000/svg">
  <defs
     id="defs19" />
  <sodipodi:namedview
     id="namedview19"
     pagecolor="#ffffff"
     bordercolor="#000000"
     borderopacity="0.25"
     inkscape:showpageshadow="2"
     inkscape:pageopacity="0.0"
     inkscape:pagecheckerboard="0"
     inkscape:deskcolor="#d1d1d1"
     inkscape:export-bgcolor="#ffffffff"
     inkscape:zoom="1.1064453"
     inkscape:cx="288.31068"
     inkscape:cy="-6.7784643"
     inkscape:window-width="2560"
     inkscape:window-height="1351"
     inkscape:window-x="2551"
     inkscape:window-y="-9"
     inkscape:window-maximized="1"
     inkscape:current-layer="svg19">
    <inkscape:page
       x="0"
       y="0"
       width="1153.701"
       height="581.00049"
       id="page2"
       margin="0"
       bleed="0" />
  </sodipodi:namedview>
  <g
     id="g22"
     transform="translate(-447.17434,-604.14)">
    <path
       fill="#2678b8"
       d="m 747.798,739.865 c 12.725,-32.02 34.418,-59.69 62.476,-79.69 40.939,-29.564 91.918,-41.715 141.79,-33.796 56.816,9.38 95.756,37.311 128.826,83.179 0.03,33.87 -1.97,80.529 0,113.069 8.35,8.013 17.23,13.914 26.61,20.695 -1.41,10.442 2.07,25.182 -3.02,32.168 -22.13,-15.735 -44.05,-31.758 -65.75,-48.065 -10.73,-7.99 -24.19,-18.626 -35,-25.758 l 0.34,79.126 c -14.921,0.353 -32.124,4.291 -46.583,7.927 -53.462,13.444 -104.655,41.215 -142.914,81.285 -49.624,51.975 -80.527,127.395 -79.579,199.675 36.829,-113.66 155.863,-168.74 268.246,-171.618 0.08,25.868 0.57,52.838 0.23,78.618 l 98.62,-74.28 c 7.76,6.45 3.77,20.42 5.32,30.07 -8.3,7.02 -17.41,13.62 -26.23,20.01 l -0.11,56.46 c -0.11,21.19 -2.71,41 8.55,59.88 l -347.131,-0.2 -97.254,-0.07 c -45.916,-0.05 -80.479,3.12 -121.912,-21.36 -35.483,-21.24 -61.121,-55.65 -71.315,-95.73 -21.96,-88.152 33.163,-167.733 119.572,-189.103 -1.204,-15.711 1.979,-35.61 7.424,-50.389 11.444,-31.798 35.283,-57.603 66.078,-71.525 35.327,-15.899 67.065,-14.063 102.716,-0.578 z"
       id="path1" />
    <path
       fill="#747778"
       d="m 1107.5,843.322 0.07,-0.936 c 0.86,-14.557 -0.07,-35.799 -0.06,-50.958 l 0.26,-106.719 c 0,-18.22 -0.68,-37.26 0.55,-55.467 0.82,-12.003 10.4,-22.866 22.85,-23.884 19.83,-1.62 40.85,-0.917 60.99,-0.987 l 137.69,-0.021 c 18.04,0.039 53.36,1.277 69.16,-0.21 l -0.15,67.747 c -0.06,42.043 -3.72,77.518 53,77.191 8.06,-0.046 16.78,0.005 24.9,-0.014 l 68.17,-0.04 0.13,211.973 c -12.49,-15.874 -18.48,-22.822 -35.58,-34.911 -12.45,-8.807 -28.07,-11.332 -36.87,-19.694 -3.54,-3.356 -5,-6.54 -11.58,-6.701 -23.65,-0.58 -47.84,-0.433 -71.47,-0.453 l -147.64,0.129 c -16,0.02 -44.34,1.086 -58.67,-0.081 9.35,7.979 24.45,19.397 34.88,26.004 53.42,-0.902 107.43,0.553 160.69,-0.287 -22.36,14.642 -31.23,25.018 -43.32,48.962 l -96.37,-0.315 c -15.68,-0.052 -32.46,-0.702 -47.98,0.28 -17.32,1.096 -17.69,24.958 1.6,25.766 14.29,0.594 28.44,0.394 42.73,0.364 29.99,-0.321 59.99,-0.403 89.99,-0.247 -4.3,20.087 -3.72,28.857 -2.26,48.877 -31.2,-0.57 -62.4,-0.8 -93.61,-0.69 -12.6,-0.03 -27.1,-1.73 -39.44,0.25 -3.39,0.54 -6.28,2.13 -8.7,4.55 -2.23,2.22 -3.67,4.99 -3.37,8.21 0.35,3.75 2.62,8.66 5.74,10.91 6.84,4.91 128.2,1.63 146.77,2.26 17.61,33.33 39.76,57.22 76.75,69.07 24.52,7.86 54.21,7.1 78.38,-1.96 8.13,7.69 20.19,21.66 27.54,27.72 -91.13,-0.65 -182.25,-0.84 -273.37,-0.55 l -75.98,0.06 c -10.82,0.03 -23.32,0.89 -33.81,0.1 -10.82,-0.82 -21.62,-15.06 -22.2,-25.5 -2.06,-36.57 0.1,-74.04 -0.5,-110.65 -1.55,-9.65 2.44,-23.62 -5.32,-30.07 28.9,-19.926 56.69,-44.115 86.15,-63.385 -24.45,-20.388 -57.73,-43.366 -83.76,-63.525 5.09,-6.986 1.61,-21.726 3.02,-32.168 z m 356.68,7.636 c 7.45,-3.507 13.5,-9.957 9.05,-18.593 -1.75,-3.345 -4.85,-5.777 -8.51,-6.679 -5.62,-1.342 -69.8,-0.908 -78.58,-0.826 -65.25,0.609 -131.22,-0.625 -196.38,0.207 -18.88,8.524 -8.86,24.971 -1.04,25.016 89.88,0.515 185.9,2.835 275.46,0.875 z m -270.94,-73.599 c 50.14,-2.216 101.47,1.765 151.63,-0.563 15.04,-0.698 20.44,-24.675 -3.51,-26.29 -34.18,0.326 -68.35,0.37 -102.52,0.132 -15.91,-0.027 -31.81,-0.508 -47.71,0.44 -20.93,1.249 -11.29,29.158 2.11,26.281 z"
       id="path2" />
    <path
       fill="#747778"
       d="m 1434.69,932.405 c 16.1,-2.313 39.29,2.805 53.2,10.869 53.91,31.247 62.25,88.436 33.69,139.756 l 7.51,9.09 c 4.39,0.31 8.9,0.91 13.28,1.42 14.72,11.82 27.83,28.62 42.91,41.88 22.02,19.35 22.64,43.81 -10.57,49.6 -10.66,1.86 -27.12,-18.31 -35.05,-26.67 -8.02,-7.5 -25.8,-23.19 -30.95,-31.88 -0.16,-3.58 -0.12,-7.43 -0.16,-11.04 -3.33,-4.54 -5.29,-6.24 -9.33,-9.99 -15.16,9.29 -26.28,14.79 -44.42,16.93 -25.32,3.12 -50.84,-4.01 -70.88,-19.81 -20.11,-15.95 -33.05,-39.26 -35.95,-64.77 -5.82,-54.554 32.68,-99.731 86.72,-105.385 z m 14.79,159.555 c 35.7,-3.47 61.75,-35.33 58.06,-71 -3.69,-35.674 -35.72,-61.525 -71.37,-57.611 -35.33,3.879 -60.91,35.56 -57.25,70.921 3.66,35.36 35.18,61.13 70.56,57.69 z"
       id="path3" />
  </g>
  <path
     fill="#747778"
     d="m 977.62566,11.078 c 4.17,2.622 102.92004,99.407 109.85004,108.833 l -61.52,-0.172 c -10.48,-0.039 -23.15,0.406 -33.45004,-0.953 -6.9,-0.91 -10.48,-5.673 -14.25,-11.031 -3.04,-16.197 -1.73,-78.569 -0.63,-96.677 z"
     id="path18" />
</svg>
