<!DOCTYPE svg PUBLIC "-//W3C//DTD SVG 20000303 Stylable//EN" "http://www.w3.org/TR/2000/03/WD-SVG-20000303/DTD/svg-20000303-stylable.dtd"[]><svg xmlns="http://www.w3.org/2000/svg" width="64px" height="64px" viewBox="0 0 366 999"><path style="fill:#e5e5e5;stroke:#000;stroke-width:2" d="M203,350 l11,0 0,52 -11,0 0,-52z" /><path style="fill:#fff;stroke:#000;stroke-width:2" d="M173,350 l30,0 0,52 -30,0 0,-52z" /><path style="fill:#ccc;stroke:#000;stroke-width:2" d="M152,350 l21,0 0,52 -21,0 0,-52z" /><path style="fill:#ccc;stroke:#000;stroke-width:2" d="M193,433 l10,0 0,537 -10,0 0,-537z" /><path style="fill:#ccc;stroke:#000;stroke-width:2" d="M167,402 l-10,0 0,31 10,0 0,-31z" /><path style="fill:#f00;stroke:#000;stroke-width:2" d="M48,149 l271,0 0,-116 -271,0 0,116z" /><path style="fill:#f00;stroke:#000;stroke-width:2" d="M86,42 l194,0 0,48 -194,0 0,-48z" /><circle style="fill:#f00;stroke:#000;stroke-width:2" cx="183" cy="207" r="153" /><path style="fill:#f00;stroke:#000;stroke-width:2" d="M30,190 l2,-14 3,-14 5,-14 5,-12 7,-12 8,-12 10,-11 9,-9 11,-9 12,-8 12,-7 13,-6 13,-4 14,-4 14,-2 15,0 15,0 14,2 14,4 13,4 13,6 12,7 12,8 11,9 10,9 8,11 8,12 7,12 6,12 5,14 3,14 3,14 -28,0 -2,-12 -3,-10 -4,-11 -5,-10 -6,-10 -7,-9 -7,-8 -9,-8 -8,-7 -9,-6 -10,-5 -11,-5 -11,-3 -11,-3 -11,-1 -12,-1 -11,1 -12,1 -11,3 -11,3 -10,5 -10,5 -9,6 -9,7 -8,8 -7,9 -7,8 -6,10 -5,10 -4,11 -3,11 -2,11 -28,0z" /><path style="fill:#f00;stroke:#000;stroke-width:2" d="M337,223 l-2,15 -4,14 -4,13 -6,13 -7,13 -8,11 -9,10 -10,10 -11,9 -11,8 -12,7 -13,5 -14,5 -14,3 -14,2 -15,1 -15,-1 -14,-2 -14,-3 -13,-5 -13,-5 -12,-7 -12,-8 -10,-9 -10,-10 -9,-10 -8,-12 -7,-12 -6,-13 -4,-13 -4,-14 -2,-14 28,0 2,11 3,11 4,11 5,10 6,10 7,9 7,8 8,8 9,7 9,6 10,5 10,5 11,3 11,3 12,1 11,1 12,-1 11,-1 11,-3 11,-3 11,-5 10,-5 9,-7 8,-6 9,-8 7,-9 7,-9 6,-9 5,-10 4,-11 3,-11 2,-12 28,0z" /><circle style="fill:#333;stroke:#000;stroke-width:2" cx="183" cy="207" r="97" /><path style="fill:#b2b2b2;stroke:#000;stroke-width:2" d="M115,231 l136,0 0,-48 -136,0 0,48z" /><path style="fill:#b2b2b2;stroke:#000;stroke-width:2" d="M162,433 l11,0 0,537 -11,0 0,-537z" /><path style="fill:#4c4c4c" d="M164,171 l39,0 0,-35 -39,0 0,35z" /><path style="fill:#f00;stroke:#000;stroke-width:2" d="M176,81 l15,0 0,-53 -15,0 0,53z" /><path style="fill:#e5e5e5;stroke:#000;stroke-width:2" d="M209,402 l-11,0 0,31 11,0 0,-31z" /><path style="fill:#e5e5e5;stroke:#000;stroke-width:2" d="M172,433 l20,0 0,537 -20,0 0,-537z" /><path style="fill:#ccc;stroke:#000;stroke-width:2" d="M157,748 l10,0 0,26 -10,0 0,-26z" /><path style="fill:#ccc;stroke:#000;stroke-width:2" d="M157,712 l10,0 0,26 -10,0 0,-26z" /><path style="fill:#e5e5e5;stroke:#000;stroke-width:2" d="M198,748 l11,0 0,26 -11,0 0,-26z" /><path style="fill:#e5e5e5;stroke:#000;stroke-width:2" d="M198,712 l11,0 0,26 -11,0 0,-26z" /><path style="fill:#fff;stroke:#000;stroke-width:2" d="M167,402 l31,0 0,31 -31,0 0,-31z" /><path style="fill:#fff;stroke:#000;stroke-width:2" d="M167,712 l31,0 0,26 -31,0 0,-26z" /><path style="fill:#fff;stroke:#000;stroke-width:2" d="M167,748 l31,0 0,26 -31,0 0,-26z" /><path style="fill:#fff;stroke:#000;stroke-width:2" d="M318,42 l20,6 0,51 -20,6 0,-63z" /><path style="fill:#fff;stroke:#000;stroke-width:2" d="M48,105 l-20,-6 0,-51 20,-6 0,63z" /><path style="fill:#000" d="M214,402 l0,-5 -62,0 0,9 62,0 0,-4z" /></svg>