<?xml version="1.0" encoding="UTF-8"?>
<svg id="Layer_1" data-name="Layer 1" xmlns="http://www.w3.org/2000/svg" viewBox="0 0 1888.85 450.24">
  <g>
    <g>
      <path d="M1079.46,350.45c11.33,0,20.51-9.15,20.51-20.45s-9.18-20.45-20.51-20.45-20.51,9.15-20.51,20.45,9.18,20.45,20.51,20.45Z"/>
      <path d="M1079.46,240.08c11.33,0,20.51-9.15,20.51-20.45s-9.18-20.45-20.51-20.45-20.51,9.15-20.51,20.45,9.18,20.45,20.51,20.45Z"/>
      <path d="M1128.67,240.08c11.33,0,20.51-9.15,20.51-20.45s-9.18-20.45-20.51-20.45-20.51,9.15-20.51,20.45,9.18,20.45,20.51,20.45Z"/>
      <path d="M1177.91,240.08c11.33,0,20.51-9.15,20.51-20.45s-9.18-20.45-20.51-20.45-20.51,9.15-20.51,20.45,9.18,20.45,20.51,20.45Z"/>
      <path d="M1192.29,144.05c11.33,0,20.51-9.15,20.51-20.45s-9.18-20.45-20.51-20.45-20.51,9.15-20.51,20.45,9.18,20.45,20.51,20.45Z"/>
      <path d="M1138.92,144.05c11.32,0,20.51-9.15,20.51-20.45s-9.19-20.45-20.51-20.45-20.51,9.15-20.51,20.45,9.18,20.45,20.51,20.45Z"/>
      <path d="M1085.62,144.05c11.33,0,20.51-9.15,20.51-20.45s-9.18-20.45-20.51-20.45-20.51,9.15-20.51,20.45,9.18,20.45,20.51,20.45Z"/>
      <path d="M1128.67,350.45c11.33,0,20.51-9.15,20.51-20.45s-9.18-20.45-20.51-20.45-20.51,9.15-20.51,20.45,9.18,20.45,20.51,20.45Z"/>
      <path d="M1177.91,350.45c11.33,0,20.51-9.15,20.51-20.45s-9.18-20.45-20.51-20.45-20.51,9.15-20.51,20.45,9.18,20.45,20.51,20.45Z"/>
      <path d="M1034.35,321.86c11.33,0,20.51-9.15,20.51-20.45s-9.18-20.45-20.51-20.45-20.51,9.15-20.51,20.45,9.18,20.45,20.51,20.45Z"/>
      <path d="M1034.35,268.71c11.33,0,20.51-9.15,20.51-20.45s-9.18-20.45-20.51-20.45-20.51,9.15-20.51,20.45,9.18,20.45,20.51,20.45Z"/>
      <path d="M1229.16,350.45c11.33,0,20.51-9.15,20.51-20.45s-9.18-20.45-20.51-20.45-20.51,9.15-20.51,20.45,9.18,20.45,20.51,20.45Z"/>
      <path d="M1229.16,295.27c11.33,0,20.51-9.15,20.51-20.45s-9.18-20.45-20.51-20.45-20.51,9.15-20.51,20.45,9.18,20.45,20.51,20.45Z"/>
      <path d="M1229.16,240.08c11.33,0,20.51-9.15,20.51-20.45s-9.18-20.45-20.51-20.45-20.51,9.15-20.51,20.45,9.18,20.45,20.51,20.45Z"/>
      <path d="M1229.16,184.94c11.33,0,20.51-9.15,20.51-20.45s-9.18-20.45-20.51-20.45-20.51,9.15-20.51,20.45,9.18,20.45,20.51,20.45Z"/>
    </g>
    <g>
      <path d="M310.56,350.45c11.33,0,20.52-9.15,20.52-20.45s-9.19-20.45-20.52-20.45-20.52,9.15-20.52,20.45,9.18,20.45,20.52,20.45Z"/>
      <path d="M310.56,301.41c11.33,0,20.52-9.15,20.52-20.45s-9.19-20.45-20.52-20.45-20.52,9.15-20.52,20.45,9.18,20.45,20.52,20.45Z"/>
      <path d="M310.56,252.38c11.33,0,20.52-9.15,20.52-20.45s-9.19-20.45-20.52-20.45-20.52,9.15-20.52,20.45,9.18,20.45,20.52,20.45Z"/>
      <path d="M310.56,203.34c11.33,0,20.52-9.15,20.52-20.45s-9.19-20.45-20.52-20.45-20.52,9.15-20.52,20.45,9.18,20.45,20.52,20.45Z"/>
      <path d="M310.56,154.27c11.33,0,20.52-9.15,20.52-20.45s-9.19-20.45-20.52-20.45-20.52,9.15-20.52,20.45,9.18,20.45,20.52,20.45Z"/>
      <path d="M310.56,105.17c11.33,0,20.52-9.15,20.52-20.45s-9.19-20.45-20.52-20.45-20.52,9.15-20.52,20.45,9.18,20.45,20.52,20.45Z"/>
      <path d="M310.56,56.13c11.33,0,20.52-9.15,20.52-20.45s-9.19-20.45-20.52-20.45-20.52,9.15-20.52,20.45,9.18,20.45,20.52,20.45Z"/>
    </g>
    <g>
      <path d="M137.34,350.45c11.33,0,20.52-9.15,20.52-20.45s-9.18-20.45-20.52-20.45-20.52,9.15-20.52,20.45,9.19,20.45,20.52,20.45Z"/>
      <path d="M186.54,344.36c11.33,0,20.52-9.15,20.52-20.45s-9.18-20.45-20.52-20.45-20.52,9.15-20.52,20.45,9.19,20.45,20.52,20.45Z"/>
      <path d="M88.1,350.45c11.33,0,20.52-9.15,20.52-20.45s-9.18-20.45-20.52-20.45-20.52,9.15-20.52,20.45,9.19,20.45,20.52,20.45Z"/>
      <path d="M137.39,203.31c11.33,0,20.52-9.15,20.52-20.45s-9.19-20.45-20.52-20.45-20.52,9.15-20.52,20.45,9.19,20.45,20.52,20.45Z"/>
      <path d="M186.66,203.31c11.33,0,20.52-9.15,20.52-20.45s-9.19-20.45-20.52-20.45-20.52,9.15-20.52,20.45,9.19,20.45,20.52,20.45Z"/>
      <path d="M88.21,203.31c11.33,0,20.52-9.15,20.52-20.45s-9.19-20.45-20.52-20.45-20.52,9.15-20.52,20.45,9.19,20.45,20.52,20.45Z"/>
      <path d="M38.89,350.45c11.33,0,20.52-9.15,20.52-20.45s-9.19-20.45-20.52-20.45-20.52,9.15-20.52,20.45,9.18,20.45,20.52,20.45Z"/>
      <path d="M38.89,301.41c11.33,0,20.52-9.15,20.52-20.45s-9.19-20.45-20.52-20.45-20.52,9.15-20.52,20.45,9.18,20.45,20.52,20.45Z"/>
      <path d="M38.89,252.38c11.33,0,20.52-9.15,20.52-20.45s-9.19-20.45-20.52-20.45-20.52,9.15-20.52,20.45,9.18,20.45,20.52,20.45Z"/>
      <path d="M38.89,203.34c11.33,0,20.52-9.15,20.52-20.45s-9.19-20.45-20.52-20.45-20.52,9.15-20.52,20.45,9.18,20.45,20.52,20.45Z"/>
      <path d="M38.89,154.27c11.33,0,20.52-9.15,20.52-20.45s-9.19-20.45-20.52-20.45-20.52,9.15-20.52,20.45,9.18,20.45,20.52,20.45Z"/>
      <path d="M38.89,105.17c11.33,0,20.52-9.15,20.52-20.45s-9.19-20.45-20.52-20.45-20.52,9.15-20.52,20.45,9.18,20.45,20.52,20.45Z"/>
      <path d="M137.34,56.13c11.33,0,20.52-9.15,20.52-20.45s-9.18-20.45-20.52-20.45-20.52,9.15-20.52,20.45,9.19,20.45,20.52,20.45Z"/>
      <path d="M186.54,63.83c11.33,0,20.52-9.15,20.52-20.45s-9.18-20.45-20.52-20.45-20.52,9.15-20.52,20.45,9.19,20.45,20.52,20.45Z"/>
      <path d="M88.1,56.13c11.33,0,20.52-9.15,20.52-20.45s-9.18-20.45-20.52-20.45-20.52,9.15-20.52,20.45,9.19,20.45,20.52,20.45Z"/>
      <path d="M38.89,56.13c11.33,0,20.52-9.15,20.52-20.45s-9.19-20.45-20.52-20.45-20.52,9.15-20.52,20.45,9.18,20.45,20.52,20.45Z"/>
      <g>
        <path d="M214.48,205.83c-11.33,0-20.51,9.15-20.51,20.45s9.18,20.45,20.51,20.45,20.51-9.15,20.51-20.45-9.18-20.45-20.51-20.45Z"/>
        <path d="M214.48,258.97c-11.33,0-20.51,9.15-20.51,20.45s9.18,20.45,20.51,20.45,20.51-9.15,20.51-20.45-9.18-20.45-20.51-20.45Z"/>
      </g>
      <g>
        <path d="M214.48,62.34c-11.33,0-20.51,9.15-20.51,20.45s9.18,20.45,20.51,20.45,20.51-9.15,20.51-20.45-9.18-20.45-20.51-20.45Z"/>
        <path d="M214.48,115.48c-11.33,0-20.51,9.15-20.51,20.45s9.18,20.45,20.51,20.45,20.51-9.15,20.51-20.45-9.18-20.45-20.51-20.45Z"/>
      </g>
    </g>
    <g>
      <path d="M513.46,309.56c-11.33,0-20.52,9.15-20.52,20.45s9.19,20.45,20.52,20.45,20.52-9.15,20.52-20.45-9.19-20.45-20.52-20.45Z"/>
      <path d="M548.15,315.94c-.04,11.29,9.12,20.47,20.45,20.51,11.33,.04,20.54-9.09,20.58-20.38,.04-11.29-9.12-20.47-20.45-20.51-11.33-.04-20.54,9.09-20.58,20.38Z"/>
      <path d="M458.8,294.89c-11.33,0-20.52,9.15-20.52,20.45s9.19,20.45,20.52,20.45,20.52-9.15,20.52-20.45-9.19-20.45-20.52-20.45Z"/>
      <path d="M622.82,202.9c-11.33,0-20.52,9.15-20.52,20.45s9.18,20.45,20.52,20.45,20.52-9.15,20.52-20.45-9.19-20.45-20.52-20.45Z"/>
      <path d="M609.42,256.11c-11.33,0-20.52,9.15-20.52,20.45s9.18,20.45,20.52,20.45,20.52-9.15,20.52-20.45-9.19-20.45-20.52-20.45Z"/>
      <path d="M406.74,202.9c-11.33,0-20.52,9.15-20.52,20.45s9.19,20.45,20.52,20.45,20.52-9.15,20.52-20.45-9.19-20.45-20.52-20.45Z"/>
      <path d="M420.6,256.11c-11.33,0-20.52,9.15-20.52,20.45s9.19,20.45,20.52,20.45,20.52-9.15,20.52-20.45-9.19-20.45-20.52-20.45Z"/>
      <path d="M515.01,134.42c11.33,0,20.52-9.15,20.52-20.45s-9.19-20.45-20.52-20.45-20.52,9.15-20.52,20.45,9.19,20.45,20.52,20.45Z"/>
      <path d="M480.32,128.04c.04-11.29-9.12-20.47-20.45-20.51-11.33-.04-20.54,9.09-20.58,20.38-.04,11.29,9.12,20.47,20.45,20.51,11.33,.04,20.54-9.09,20.58-20.38Z"/>
      <path d="M569.68,149.09c11.33,0,20.52-9.15,20.52-20.45s-9.19-20.45-20.52-20.45-20.52,9.15-20.52,20.45,9.19,20.45,20.52,20.45Z"/>
      <path d="M419.05,187.87c11.33,0,20.52-9.15,20.52-20.45s-9.18-20.45-20.52-20.45-20.52,9.15-20.52,20.45,9.19,20.45,20.52,20.45Z"/>
      <path d="M607.88,187.87c11.33,0,20.52-9.15,20.52-20.45s-9.19-20.45-20.52-20.45-20.52,9.15-20.52,20.45,9.19,20.45,20.52,20.45Z"/>
    </g>
    <g>
      <path d="M1849.96,202.9c-11.33,0-20.52,9.15-20.52,20.45s9.18,20.45,20.52,20.45,20.52-9.15,20.52-20.45-9.19-20.45-20.52-20.45Z"/>
      <path d="M1640.36,202.9c-11.33,0-20.52,9.15-20.52,20.45s9.19,20.45,20.52,20.45,20.52-9.15,20.52-20.45-9.19-20.45-20.52-20.45Z"/>
      <path d="M1692.76,202.9c-11.33,0-20.52,9.15-20.52,20.45s9.19,20.45,20.52,20.45,20.52-9.15,20.52-20.45-9.19-20.45-20.52-20.45Z"/>
      <path d="M1745.16,202.9c-11.33,0-20.52,9.15-20.52,20.45s9.19,20.45,20.52,20.45,20.52-9.15,20.52-20.45-9.19-20.45-20.52-20.45Z"/>
      <path d="M1797.56,202.9c-11.33,0-20.52,9.15-20.52,20.45s9.19,20.45,20.52,20.45,20.52-9.15,20.52-20.45-9.19-20.45-20.52-20.45Z"/>
      <path d="M1748.63,134.42c11.33,0,20.52-9.15,20.52-20.45s-9.19-20.45-20.52-20.45-20.52,9.15-20.52,20.45,9.19,20.45,20.52,20.45Z"/>
      <path d="M1713.94,128.04c.04-11.29-9.12-20.47-20.45-20.51-11.33-.04-20.54,9.09-20.58,20.38-.04,11.29,9.12,20.47,20.45,20.51,11.33,.04,20.54-9.09,20.58-20.38Z"/>
      <path d="M1803.3,149.09c11.33,0,20.52-9.15,20.52-20.45s-9.19-20.45-20.52-20.45-20.52,9.15-20.52,20.45,9.19,20.45,20.52,20.45Z"/>
      <path d="M1652.67,187.87c11.33,0,20.52-9.15,20.52-20.45s-9.18-20.45-20.52-20.45-20.52,9.15-20.52,20.45,9.19,20.45,20.52,20.45Z"/>
      <path d="M1748.63,311.06c11.33,0,20.52,9.15,20.52,20.45s-9.19,20.45-20.52,20.45-20.52-9.15-20.52-20.45,9.19-20.45,20.52-20.45Z"/>
      <path d="M1713.94,317.45c.04,11.29-9.12,20.47-20.45,20.51-11.33,.04-20.54-9.09-20.58-20.38-.04-11.29,9.12-20.47,20.45-20.51,11.33-.04,20.54,9.09,20.58,20.38Z"/>
      <path d="M1803.3,296.39c11.33,0,20.52,9.15,20.52,20.45s-9.19,20.45-20.52,20.45-20.52-9.15-20.52-20.45,9.19-20.45,20.52-20.45Z"/>
      <path d="M1652.67,257.62c11.33,0,20.52,9.15,20.52,20.45s-9.18,20.45-20.52,20.45-20.52-9.15-20.52-20.45,9.19-20.45,20.52-20.45Z"/>
      <path d="M1841.78,188.98c11.33,0,20.52-9.15,20.52-20.45s-9.19-20.45-20.52-20.45-20.52,9.15-20.52,20.45,9.19,20.45,20.52,20.45Z"/>
    </g>
    <g>
      <g>
        <path d="M937.11,443.33c11.33,0,20.52-9.15,20.52-20.45s-9.19-20.45-20.52-20.45-20.52,9.15-20.52,20.45,9.18,20.45,20.52,20.45Z"/>
        <path d="M937.11,394.3c11.33,0,20.52-9.15,20.52-20.45s-9.19-20.45-20.52-20.45-20.52,9.15-20.52,20.45,9.18,20.45,20.52,20.45Z"/>
        <path d="M937.11,345.26c11.33,0,20.52-9.15,20.52-20.45s-9.19-20.45-20.52-20.45-20.52,9.15-20.52,20.45,9.18,20.45,20.52,20.45Z"/>
        <path d="M937.11,296.23c11.33,0,20.52-9.15,20.52-20.45s-9.19-20.45-20.52-20.45-20.52,9.15-20.52,20.45,9.18,20.45,20.52,20.45Z"/>
        <path d="M937.11,247.16c11.33,0,20.52-9.15,20.52-20.45s-9.19-20.45-20.52-20.45-20.52,9.15-20.52,20.45,9.18,20.45,20.52,20.45Z"/>
        <path d="M937.11,198.05c11.33,0,20.52-9.15,20.52-20.45s-9.19-20.45-20.52-20.45-20.52,9.15-20.52,20.45,9.18,20.45,20.52,20.45Z"/>
        <path d="M937.11,149.02c11.33,0,20.52-9.15,20.52-20.45s-9.19-20.45-20.52-20.45-20.52,9.15-20.52,20.45,9.18,20.45,20.52,20.45Z"/>
      </g>
      <path d="M783.56,108.12c11.33,0,20.51,9.15,20.51,20.45s-9.18,20.45-20.51,20.45-20.51-9.15-20.51-20.45,9.18-20.45,20.51-20.45Z"/>
      <path d="M833.83,108.12c11.33,0,20.51,9.15,20.51,20.45s-9.18,20.45-20.51,20.45-20.51-9.15-20.51-20.45,9.18-20.45,20.51-20.45Z"/>
      <path d="M885.22,108.12c11.33,0,20.51,9.15,20.51,20.45s-9.18,20.45-20.51,20.45-20.51-9.15-20.51-20.45,9.18-20.45,20.51-20.45Z"/>
      <path d="M740.47,138.15c11.33,0,20.51,9.15,20.51,20.45s-9.18,20.45-20.51,20.45-20.51-9.15-20.51-20.45,9.18-20.45,20.51-20.45Z"/>
      <path d="M719.44,187.97c11.33,0,20.51,9.15,20.51,20.45s-9.18,20.45-20.51,20.45-20.51-9.15-20.51-20.45,9.18-20.45,20.51-20.45Z"/>
      <path d="M740.47,236.87c11.33,0,20.51,9.15,20.51,20.45s-9.18,20.45-20.51,20.45-20.51-9.15-20.51-20.45,9.18-20.45,20.51-20.45Z"/>
      <path d="M885.22,273.63c11.33,0,20.51,9.15,20.51,20.45s-9.18,20.45-20.51,20.45-20.51-9.15-20.51-20.45,9.18-20.45,20.51-20.45Z"/>
      <path d="M833.83,273.63c11.32,0,20.51,9.15,20.51,20.45s-9.19,20.45-20.51,20.45-20.51-9.15-20.51-20.45,9.18-20.45,20.51-20.45Z"/>
      <path d="M783.56,267.78c11.33,0,20.51,9.15,20.51,20.45s-9.18,20.45-20.51,20.45-20.51-9.15-20.51-20.45,9.18-20.45,20.51-20.45Z"/>
    </g>
    <g>
      <g>
        <path d="M1543.55,15.24c11.33,0,20.52,9.15,20.52,20.45s-9.19,20.45-20.52,20.45-20.52-9.15-20.52-20.45,9.18-20.45,20.52-20.45Z"/>
        <path d="M1543.55,64.28c11.33,0,20.52,9.15,20.52,20.45s-9.19,20.45-20.52,20.45-20.52-9.15-20.52-20.45,9.18-20.45,20.52-20.45Z"/>
        <path d="M1543.55,113.31c11.33,0,20.52,9.15,20.52,20.45s-9.19,20.45-20.52,20.45-20.52-9.15-20.52-20.45,9.18-20.45,20.52-20.45Z"/>
        <path d="M1543.55,162.34c11.33,0,20.52,9.15,20.52,20.45s-9.19,20.45-20.52,20.45-20.52-9.15-20.52-20.45,9.18-20.45,20.52-20.45Z"/>
        <path d="M1543.55,211.41c11.33,0,20.52,9.15,20.52,20.45s-9.19,20.45-20.52,20.45-20.52-9.15-20.52-20.45,9.18-20.45,20.52-20.45Z"/>
        <path d="M1543.55,260.52c11.33,0,20.52,9.15,20.52,20.45s-9.19,20.45-20.52,20.45-20.52-9.15-20.52-20.45,9.18-20.45,20.52-20.45Z"/>
        <path d="M1543.55,309.56c11.33,0,20.52,9.15,20.52,20.45s-9.19,20.45-20.52,20.45-20.52-9.15-20.52-20.45,9.18-20.45,20.52-20.45Z"/>
      </g>
      <path d="M1390,350.45c11.33,0,20.51-9.15,20.51-20.45s-9.18-20.45-20.51-20.45-20.51,9.15-20.51,20.45,9.18,20.45,20.51,20.45Z"/>
      <path d="M1440.27,350.45c11.33,0,20.51-9.15,20.51-20.45s-9.18-20.45-20.51-20.45-20.51,9.15-20.51,20.45,9.18,20.45,20.51,20.45Z"/>
      <path d="M1491.67,350.45c11.33,0,20.51-9.15,20.51-20.45s-9.18-20.45-20.51-20.45-20.51,9.15-20.51,20.45,9.18,20.45,20.51,20.45Z"/>
      <path d="M1346.92,320.42c11.33,0,20.51-9.15,20.51-20.45s-9.18-20.45-20.51-20.45-20.51,9.15-20.51,20.45,9.18,20.45,20.51,20.45Z"/>
      <path d="M1325.88,270.6c11.33,0,20.51-9.15,20.51-20.45s-9.18-20.45-20.51-20.45-20.51,9.15-20.51,20.45,9.18,20.45,20.51,20.45Z"/>
      <path d="M1346.92,221.7c11.33,0,20.51-9.15,20.51-20.45s-9.18-20.45-20.51-20.45-20.51,9.15-20.51,20.45,9.18,20.45,20.51,20.45Z"/>
      <path d="M1491.67,184.94c11.33,0,20.51-9.15,20.51-20.45s-9.18-20.45-20.51-20.45-20.51,9.15-20.51,20.45,9.18,20.45,20.51,20.45Z"/>
      <path d="M1440.27,184.94c11.32,0,20.51-9.15,20.51-20.45s-9.19-20.45-20.51-20.45-20.51,9.15-20.51,20.45,9.18,20.45,20.51,20.45Z"/>
      <path d="M1390,190.79c11.33,0,20.51-9.15,20.51-20.45s-9.18-20.45-20.51-20.45-20.51,9.15-20.51,20.45,9.18,20.45,20.51,20.45Z"/>
    </g>
  </g>
</svg>
