<?xml version="1.0" encoding="utf-8" standalone="no"?>
<!DOCTYPE svg PUBLIC "-//W3C//DTD SVG 1.1//EN"
  "http://www.w3.org/Graphics/SVG/1.1/DTD/svg11.dtd">
<svg xmlns:xlink="http://www.w3.org/1999/xlink" width="460.8pt" height="345.6pt" viewBox="0 0 460.8 345.6" xmlns="http://www.w3.org/2000/svg" version="1.1">
 <metadata>
  <rdf:RDF xmlns:dc="http://purl.org/dc/elements/1.1/" xmlns:cc="http://creativecommons.org/ns#" xmlns:rdf="http://www.w3.org/1999/02/22-rdf-syntax-ns#">
   <cc:Work>
    <dc:type rdf:resource="http://purl.org/dc/dcmitype/StillImage"/>
    <dc:date>2026-01-16T12:16:43.347672</dc:date>
    <dc:format>image/svg+xml</dc:format>
    <dc:creator>
     <cc:Agent>
      <dc:title>Matplotlib v3.10.8, https://matplotlib.org/</dc:title>
     </cc:Agent>
    </dc:creator>
   </cc:Work>
  </rdf:RDF>
 </metadata>
 <defs>
  <style type="text/css">*{stroke-linejoin: round; stroke-linecap: butt}</style>
 </defs>
 <g id="figure_1">
  <g id="patch_1">
   <path d="M 0 345.6 
L 460.8 345.6 
L 460.8 0 
L 0 0 
z
" style="fill: #ffffff"/>
  </g>
  <g id="axes_1">
   <g id="patch_2">
    <path d="M 57.6 307.584 
L 414.72 307.584 
L 414.72 41.472 
L 57.6 41.472 
z
" style="fill: #ffffff"/>
   </g>
   <g id="matplotlib.axis_1">
    <g id="xtick_1">
     <g id="line2d_1">
      <defs>
       <path id="m659f403a18" d="M 0 0 
L 0 3.5 
" style="stroke: #000000; stroke-width: 0.8"/>
      </defs>
      <g>
       <use xlink:href="#m659f403a18" x="73.832727" y="307.584" style="stroke: #000000; stroke-width: 0.8"/>
      </g>
     </g>
     <g id="text_1">
      <!-- 0.0 -->
      <g transform="translate(65.881165 322.182437) scale(0.1 -0.1)">
       <defs>
        <path id="DejaVuSans-30" d="M 2034 4250 
Q 1547 4250 1301 3770 
Q 1056 3291 1056 2328 
Q 1056 1369 1301 889 
Q 1547 409 2034 409 
Q 2525 409 2770 889 
Q 3016 1369 3016 2328 
Q 3016 3291 2770 3770 
Q 2525 4250 2034 4250 
z
M 2034 4750 
Q 2819 4750 3233 4129 
Q 3647 3509 3647 2328 
Q 3647 1150 3233 529 
Q 2819 -91 2034 -91 
Q 1250 -91 836 529 
Q 422 1150 422 2328 
Q 422 3509 836 4129 
Q 1250 4750 2034 4750 
z
" transform="scale(0.015625)"/>
        <path id="DejaVuSans-2e" d="M 684 794 
L 1344 794 
L 1344 0 
L 684 0 
L 684 794 
z
" transform="scale(0.015625)"/>
       </defs>
       <use xlink:href="#DejaVuSans-30"/>
       <use xlink:href="#DejaVuSans-2e" transform="translate(63.623047 0)"/>
       <use xlink:href="#DejaVuSans-30" transform="translate(95.410156 0)"/>
      </g>
     </g>
    </g>
    <g id="xtick_2">
     <g id="line2d_2">
      <g>
       <use xlink:href="#m659f403a18" x="138.763636" y="307.584" style="stroke: #000000; stroke-width: 0.8"/>
      </g>
     </g>
     <g id="text_2">
      <!-- 0.2 -->
      <g transform="translate(130.812074 322.182437) scale(0.1 -0.1)">
       <defs>
        <path id="DejaVuSans-32" d="M 1228 531 
L 3431 531 
L 3431 0 
L 469 0 
L 469 531 
Q 828 903 1448 1529 
Q 2069 2156 2228 2338 
Q 2531 2678 2651 2914 
Q 2772 3150 2772 3378 
Q 2772 3750 2511 3984 
Q 2250 4219 1831 4219 
Q 1534 4219 1204 4116 
Q 875 4013 500 3803 
L 500 4441 
Q 881 4594 1212 4672 
Q 1544 4750 1819 4750 
Q 2544 4750 2975 4387 
Q 3406 4025 3406 3419 
Q 3406 3131 3298 2873 
Q 3191 2616 2906 2266 
Q 2828 2175 2409 1742 
Q 1991 1309 1228 531 
z
" transform="scale(0.015625)"/>
       </defs>
       <use xlink:href="#DejaVuSans-30"/>
       <use xlink:href="#DejaVuSans-2e" transform="translate(63.623047 0)"/>
       <use xlink:href="#DejaVuSans-32" transform="translate(95.410156 0)"/>
      </g>
     </g>
    </g>
    <g id="xtick_3">
     <g id="line2d_3">
      <g>
       <use xlink:href="#m659f403a18" x="203.694545" y="307.584" style="stroke: #000000; stroke-width: 0.8"/>
      </g>
     </g>
     <g id="text_3">
      <!-- 0.4 -->
      <g transform="translate(195.742983 322.182437) scale(0.1 -0.1)">
       <defs>
        <path id="DejaVuSans-34" d="M 2419 4116 
L 825 1625 
L 2419 1625 
L 2419 4116 
z
M 2253 4666 
L 3047 4666 
L 3047 1625 
L 3713 1625 
L 3713 1100 
L 3047 1100 
L 3047 0 
L 2419 0 
L 2419 1100 
L 313 1100 
L 313 1709 
L 2253 4666 
z
" transform="scale(0.015625)"/>
       </defs>
       <use xlink:href="#DejaVuSans-30"/>
       <use xlink:href="#DejaVuSans-2e" transform="translate(63.623047 0)"/>
       <use xlink:href="#DejaVuSans-34" transform="translate(95.410156 0)"/>
      </g>
     </g>
    </g>
    <g id="xtick_4">
     <g id="line2d_4">
      <g>
       <use xlink:href="#m659f403a18" x="268.625455" y="307.584" style="stroke: #000000; stroke-width: 0.8"/>
      </g>
     </g>
     <g id="text_4">
      <!-- 0.6 -->
      <g transform="translate(260.673892 322.182437) scale(0.1 -0.1)">
       <defs>
        <path id="DejaVuSans-36" d="M 2113 2584 
Q 1688 2584 1439 2293 
Q 1191 2003 1191 1497 
Q 1191 994 1439 701 
Q 1688 409 2113 409 
Q 2538 409 2786 701 
Q 3034 994 3034 1497 
Q 3034 2003 2786 2293 
Q 2538 2584 2113 2584 
z
M 3366 4563 
L 3366 3988 
Q 3128 4100 2886 4159 
Q 2644 4219 2406 4219 
Q 1781 4219 1451 3797 
Q 1122 3375 1075 2522 
Q 1259 2794 1537 2939 
Q 1816 3084 2150 3084 
Q 2853 3084 3261 2657 
Q 3669 2231 3669 1497 
Q 3669 778 3244 343 
Q 2819 -91 2113 -91 
Q 1303 -91 875 529 
Q 447 1150 447 2328 
Q 447 3434 972 4092 
Q 1497 4750 2381 4750 
Q 2619 4750 2861 4703 
Q 3103 4656 3366 4563 
z
" transform="scale(0.015625)"/>
       </defs>
       <use xlink:href="#DejaVuSans-30"/>
       <use xlink:href="#DejaVuSans-2e" transform="translate(63.623047 0)"/>
       <use xlink:href="#DejaVuSans-36" transform="translate(95.410156 0)"/>
      </g>
     </g>
    </g>
    <g id="xtick_5">
     <g id="line2d_5">
      <g>
       <use xlink:href="#m659f403a18" x="333.556364" y="307.584" style="stroke: #000000; stroke-width: 0.8"/>
      </g>
     </g>
     <g id="text_5">
      <!-- 0.8 -->
      <g transform="translate(325.604801 322.182437) scale(0.1 -0.1)">
       <defs>
        <path id="DejaVuSans-38" d="M 2034 2216 
Q 1584 2216 1326 1975 
Q 1069 1734 1069 1313 
Q 1069 891 1326 650 
Q 1584 409 2034 409 
Q 2484 409 2743 651 
Q 3003 894 3003 1313 
Q 3003 1734 2745 1975 
Q 2488 2216 2034 2216 
z
M 1403 2484 
Q 997 2584 770 2862 
Q 544 3141 544 3541 
Q 544 4100 942 4425 
Q 1341 4750 2034 4750 
Q 2731 4750 3128 4425 
Q 3525 4100 3525 3541 
Q 3525 3141 3298 2862 
Q 3072 2584 2669 2484 
Q 3125 2378 3379 2068 
Q 3634 1759 3634 1313 
Q 3634 634 3220 271 
Q 2806 -91 2034 -91 
Q 1263 -91 848 271 
Q 434 634 434 1313 
Q 434 1759 690 2068 
Q 947 2378 1403 2484 
z
M 1172 3481 
Q 1172 3119 1398 2916 
Q 1625 2713 2034 2713 
Q 2441 2713 2670 2916 
Q 2900 3119 2900 3481 
Q 2900 3844 2670 4047 
Q 2441 4250 2034 4250 
Q 1625 4250 1398 4047 
Q 1172 3844 1172 3481 
z
" transform="scale(0.015625)"/>
       </defs>
       <use xlink:href="#DejaVuSans-30"/>
       <use xlink:href="#DejaVuSans-2e" transform="translate(63.623047 0)"/>
       <use xlink:href="#DejaVuSans-38" transform="translate(95.410156 0)"/>
      </g>
     </g>
    </g>
    <g id="xtick_6">
     <g id="line2d_6">
      <g>
       <use xlink:href="#m659f403a18" x="398.487273" y="307.584" style="stroke: #000000; stroke-width: 0.8"/>
      </g>
     </g>
     <g id="text_6">
      <!-- 1.0 -->
      <g transform="translate(390.53571 322.182437) scale(0.1 -0.1)">
       <defs>
        <path id="DejaVuSans-31" d="M 794 531 
L 1825 531 
L 1825 4091 
L 703 3866 
L 703 4441 
L 1819 4666 
L 2450 4666 
L 2450 531 
L 3481 531 
L 3481 0 
L 794 0 
L 794 531 
z
" transform="scale(0.015625)"/>
       </defs>
       <use xlink:href="#DejaVuSans-31"/>
       <use xlink:href="#DejaVuSans-2e" transform="translate(63.623047 0)"/>
       <use xlink:href="#DejaVuSans-30" transform="translate(95.410156 0)"/>
      </g>
     </g>
    </g>
    <g id="text_7">
     <!-- t -->
     <g transform="translate(234.199844 335.860562) scale(0.1 -0.1)">
      <defs>
       <path id="DejaVuSans-74" d="M 1172 4494 
L 1172 3500 
L 2356 3500 
L 2356 3053 
L 1172 3053 
L 1172 1153 
Q 1172 725 1289 603 
Q 1406 481 1766 481 
L 2356 481 
L 2356 0 
L 1766 0 
Q 1100 0 847 248 
Q 594 497 594 1153 
L 594 3053 
L 172 3053 
L 172 3500 
L 594 3500 
L 594 4494 
L 1172 4494 
z
" transform="scale(0.015625)"/>
      </defs>
      <use xlink:href="#DejaVuSans-74"/>
     </g>
    </g>
   </g>
   <g id="matplotlib.axis_2">
    <g id="ytick_1">
     <g id="line2d_7">
      <defs>
       <path id="ma062f3263f" d="M 0 0 
L -3.5 0 
" style="stroke: #000000; stroke-width: 0.8"/>
      </defs>
      <g>
       <use xlink:href="#ma062f3263f" x="57.6" y="303.360081" style="stroke: #000000; stroke-width: 0.8"/>
      </g>
     </g>
     <g id="text_8">
      <!-- −0.03 -->
      <g transform="translate(19.954687 307.1593) scale(0.1 -0.1)">
       <defs>
        <path id="DejaVuSans-2212" d="M 678 2272 
L 4684 2272 
L 4684 1741 
L 678 1741 
L 678 2272 
z
" transform="scale(0.015625)"/>
        <path id="DejaVuSans-33" d="M 2597 2516 
Q 3050 2419 3304 2112 
Q 3559 1806 3559 1356 
Q 3559 666 3084 287 
Q 2609 -91 1734 -91 
Q 1441 -91 1130 -33 
Q 819 25 488 141 
L 488 750 
Q 750 597 1062 519 
Q 1375 441 1716 441 
Q 2309 441 2620 675 
Q 2931 909 2931 1356 
Q 2931 1769 2642 2001 
Q 2353 2234 1838 2234 
L 1294 2234 
L 1294 2753 
L 1863 2753 
Q 2328 2753 2575 2939 
Q 2822 3125 2822 3475 
Q 2822 3834 2567 4026 
Q 2313 4219 1838 4219 
Q 1578 4219 1281 4162 
Q 984 4106 628 3988 
L 628 4550 
Q 988 4650 1302 4700 
Q 1616 4750 1894 4750 
Q 2613 4750 3031 4423 
Q 3450 4097 3450 3541 
Q 3450 3153 3228 2886 
Q 3006 2619 2597 2516 
z
" transform="scale(0.015625)"/>
       </defs>
       <use xlink:href="#DejaVuSans-2212"/>
       <use xlink:href="#DejaVuSans-30" transform="translate(83.789062 0)"/>
       <use xlink:href="#DejaVuSans-2e" transform="translate(147.412109 0)"/>
       <use xlink:href="#DejaVuSans-30" transform="translate(179.199219 0)"/>
       <use xlink:href="#DejaVuSans-33" transform="translate(242.822266 0)"/>
      </g>
     </g>
    </g>
    <g id="ytick_2">
     <g id="line2d_8">
      <g>
       <use xlink:href="#ma062f3263f" x="57.6" y="267.158691" style="stroke: #000000; stroke-width: 0.8"/>
      </g>
     </g>
     <g id="text_9">
      <!-- −0.02 -->
      <g transform="translate(19.954687 270.95791) scale(0.1 -0.1)">
       <use xlink:href="#DejaVuSans-2212"/>
       <use xlink:href="#DejaVuSans-30" transform="translate(83.789062 0)"/>
       <use xlink:href="#DejaVuSans-2e" transform="translate(147.412109 0)"/>
       <use xlink:href="#DejaVuSans-30" transform="translate(179.199219 0)"/>
       <use xlink:href="#DejaVuSans-32" transform="translate(242.822266 0)"/>
      </g>
     </g>
    </g>
    <g id="ytick_3">
     <g id="line2d_9">
      <g>
       <use xlink:href="#ma062f3263f" x="57.6" y="230.957301" style="stroke: #000000; stroke-width: 0.8"/>
      </g>
     </g>
     <g id="text_10">
      <!-- −0.01 -->
      <g transform="translate(19.954687 234.75652) scale(0.1 -0.1)">
       <use xlink:href="#DejaVuSans-2212"/>
       <use xlink:href="#DejaVuSans-30" transform="translate(83.789062 0)"/>
       <use xlink:href="#DejaVuSans-2e" transform="translate(147.412109 0)"/>
       <use xlink:href="#DejaVuSans-30" transform="translate(179.199219 0)"/>
       <use xlink:href="#DejaVuSans-31" transform="translate(242.822266 0)"/>
      </g>
     </g>
    </g>
    <g id="ytick_4">
     <g id="line2d_10">
      <g>
       <use xlink:href="#ma062f3263f" x="57.6" y="194.755911" style="stroke: #000000; stroke-width: 0.8"/>
      </g>
     </g>
     <g id="text_11">
      <!-- 0.00 -->
      <g transform="translate(28.334375 198.55513) scale(0.1 -0.1)">
       <use xlink:href="#DejaVuSans-30"/>
       <use xlink:href="#DejaVuSans-2e" transform="translate(63.623047 0)"/>
       <use xlink:href="#DejaVuSans-30" transform="translate(95.410156 0)"/>
       <use xlink:href="#DejaVuSans-30" transform="translate(159.033203 0)"/>
      </g>
     </g>
    </g>
    <g id="ytick_5">
     <g id="line2d_11">
      <g>
       <use xlink:href="#ma062f3263f" x="57.6" y="158.554521" style="stroke: #000000; stroke-width: 0.8"/>
      </g>
     </g>
     <g id="text_12">
      <!-- 0.01 -->
      <g transform="translate(28.334375 162.35374) scale(0.1 -0.1)">
       <use xlink:href="#DejaVuSans-30"/>
       <use xlink:href="#DejaVuSans-2e" transform="translate(63.623047 0)"/>
       <use xlink:href="#DejaVuSans-30" transform="translate(95.410156 0)"/>
       <use xlink:href="#DejaVuSans-31" transform="translate(159.033203 0)"/>
      </g>
     </g>
    </g>
    <g id="ytick_6">
     <g id="line2d_12">
      <g>
       <use xlink:href="#ma062f3263f" x="57.6" y="122.353131" style="stroke: #000000; stroke-width: 0.8"/>
      </g>
     </g>
     <g id="text_13">
      <!-- 0.02 -->
      <g transform="translate(28.334375 126.15235) scale(0.1 -0.1)">
       <use xlink:href="#DejaVuSans-30"/>
       <use xlink:href="#DejaVuSans-2e" transform="translate(63.623047 0)"/>
       <use xlink:href="#DejaVuSans-30" transform="translate(95.410156 0)"/>
       <use xlink:href="#DejaVuSans-32" transform="translate(159.033203 0)"/>
      </g>
     </g>
    </g>
    <g id="ytick_7">
     <g id="line2d_13">
      <g>
       <use xlink:href="#ma062f3263f" x="57.6" y="86.151741" style="stroke: #000000; stroke-width: 0.8"/>
      </g>
     </g>
     <g id="text_14">
      <!-- 0.03 -->
      <g transform="translate(28.334375 89.95096) scale(0.1 -0.1)">
       <use xlink:href="#DejaVuSans-30"/>
       <use xlink:href="#DejaVuSans-2e" transform="translate(63.623047 0)"/>
       <use xlink:href="#DejaVuSans-30" transform="translate(95.410156 0)"/>
       <use xlink:href="#DejaVuSans-33" transform="translate(159.033203 0)"/>
      </g>
     </g>
    </g>
    <g id="ytick_8">
     <g id="line2d_14">
      <g>
       <use xlink:href="#ma062f3263f" x="57.6" y="49.950351" style="stroke: #000000; stroke-width: 0.8"/>
      </g>
     </g>
     <g id="text_15">
      <!-- 0.04 -->
      <g transform="translate(28.334375 53.74957) scale(0.1 -0.1)">
       <use xlink:href="#DejaVuSans-30"/>
       <use xlink:href="#DejaVuSans-2e" transform="translate(63.623047 0)"/>
       <use xlink:href="#DejaVuSans-30" transform="translate(95.410156 0)"/>
       <use xlink:href="#DejaVuSans-34" transform="translate(159.033203 0)"/>
      </g>
     </g>
    </g>
    <g id="text_16">
     <!-- current -->
     <g transform="translate(13.875 192.562375) rotate(-90) scale(0.1 -0.1)">
      <defs>
       <path id="DejaVuSans-63" d="M 3122 3366 
L 3122 2828 
Q 2878 2963 2633 3030 
Q 2388 3097 2138 3097 
Q 1578 3097 1268 2742 
Q 959 2388 959 1747 
Q 959 1106 1268 751 
Q 1578 397 2138 397 
Q 2388 397 2633 464 
Q 2878 531 3122 666 
L 3122 134 
Q 2881 22 2623 -34 
Q 2366 -91 2075 -91 
Q 1284 -91 818 406 
Q 353 903 353 1747 
Q 353 2603 823 3093 
Q 1294 3584 2113 3584 
Q 2378 3584 2631 3529 
Q 2884 3475 3122 3366 
z
" transform="scale(0.015625)"/>
       <path id="DejaVuSans-75" d="M 544 1381 
L 544 3500 
L 1119 3500 
L 1119 1403 
Q 1119 906 1312 657 
Q 1506 409 1894 409 
Q 2359 409 2629 706 
Q 2900 1003 2900 1516 
L 2900 3500 
L 3475 3500 
L 3475 0 
L 2900 0 
L 2900 538 
Q 2691 219 2414 64 
Q 2138 -91 1772 -91 
Q 1169 -91 856 284 
Q 544 659 544 1381 
z
M 1991 3584 
L 1991 3584 
z
" transform="scale(0.015625)"/>
       <path id="DejaVuSans-72" d="M 2631 2963 
Q 2534 3019 2420 3045 
Q 2306 3072 2169 3072 
Q 1681 3072 1420 2755 
Q 1159 2438 1159 1844 
L 1159 0 
L 581 0 
L 581 3500 
L 1159 3500 
L 1159 2956 
Q 1341 3275 1631 3429 
Q 1922 3584 2338 3584 
Q 2397 3584 2469 3576 
Q 2541 3569 2628 3553 
L 2631 2963 
z
" transform="scale(0.015625)"/>
       <path id="DejaVuSans-65" d="M 3597 1894 
L 3597 1613 
L 953 1613 
Q 991 1019 1311 708 
Q 1631 397 2203 397 
Q 2534 397 2845 478 
Q 3156 559 3463 722 
L 3463 178 
Q 3153 47 2828 -22 
Q 2503 -91 2169 -91 
Q 1331 -91 842 396 
Q 353 884 353 1716 
Q 353 2575 817 3079 
Q 1281 3584 2069 3584 
Q 2775 3584 3186 3129 
Q 3597 2675 3597 1894 
z
M 3022 2063 
Q 3016 2534 2758 2815 
Q 2500 3097 2075 3097 
Q 1594 3097 1305 2825 
Q 1016 2553 972 2059 
L 3022 2063 
z
" transform="scale(0.015625)"/>
       <path id="DejaVuSans-6e" d="M 3513 2113 
L 3513 0 
L 2938 0 
L 2938 2094 
Q 2938 2591 2744 2837 
Q 2550 3084 2163 3084 
Q 1697 3084 1428 2787 
Q 1159 2491 1159 1978 
L 1159 0 
L 581 0 
L 581 3500 
L 1159 3500 
L 1159 2956 
Q 1366 3272 1645 3428 
Q 1925 3584 2291 3584 
Q 2894 3584 3203 3211 
Q 3513 2838 3513 2113 
z
" transform="scale(0.015625)"/>
      </defs>
      <use xlink:href="#DejaVuSans-63"/>
      <use xlink:href="#DejaVuSans-75" transform="translate(54.980469 0)"/>
      <use xlink:href="#DejaVuSans-72" transform="translate(118.359375 0)"/>
      <use xlink:href="#DejaVuSans-72" transform="translate(157.722656 0)"/>
      <use xlink:href="#DejaVuSans-65" transform="translate(196.585938 0)"/>
      <use xlink:href="#DejaVuSans-6e" transform="translate(258.109375 0)"/>
      <use xlink:href="#DejaVuSans-74" transform="translate(321.488281 0)"/>
     </g>
    </g>
   </g>
   <g id="line2d_15">
    <path d="M 73.832727 194.755911 
L 74.641477 194.66353 
L 75.152024 194.358738 
L 75.675024 193.688031 
L 76.198024 192.53089 
L 76.721024 190.778806 
L 77.244024 188.342563 
L 78.028523 183.26463 
L 78.813023 176.376574 
L 79.597523 167.682985 
L 80.643523 153.535328 
L 82.212522 128.309055 
L 84.840127 84.716291 
L 85.891169 70.633278 
L 86.94221 60.284382 
L 87.467731 56.796388 
L 87.993252 54.541085 
L 88.518773 53.568 
L 89.044294 53.899475 
L 89.569815 55.529999 
L 90.095336 58.426247 
L 90.620857 62.527824 
L 91.671899 73.979321 
L 92.722941 88.93065 
L 94.825024 124.249891 
L 96.401587 150.003664 
L 97.452629 164.450899 
L 98.503671 175.652392 
L 99.4442 182.511277 
L 99.914465 184.784789 
L 100.38473 186.305928 
L 100.854995 187.109468 
L 101.32526 187.246168 
L 101.795525 186.781549 
L 102.26579 185.794319 
L 103.206319 182.621679 
L 105.557644 172.703747 
L 106.027909 171.268575 
L 106.498173 170.258615 
L 106.968438 169.761879 
L 107.438703 169.854668 
L 107.908968 170.599847 
L 108.379233 172.045417 
L 108.849498 174.223385 
L 109.319763 177.148991 
L 110.260292 185.218027 
L 111.200822 196.031985 
L 112.611617 216.291559 
L 115.903471 268.080184 
L 116.844 279.809157 
L 117.78453 288.62534 
L 118.254795 291.753597 
L 118.72506 293.958472 
L 119.195325 295.20808 
L 119.66559 295.488 
L 120.135854 294.801589 
L 120.606119 293.16993 
L 121.076384 290.631412 
L 122.016914 283.068889 
L 122.957444 272.72939 
L 124.368238 253.820818 
L 126.719563 221.246763 
L 127.660092 210.559915 
L 128.600622 202.324044 
L 129.070887 199.27557 
L 129.541152 196.988076 
L 130.011417 195.476138 
L 130.481682 194.736853 
L 130.901436 194.713581 
L 131.321191 195.264245 
L 131.740945 196.352889 
L 132.1607 197.93406 
L 133.000209 202.349541 
L 134.259472 211.082749 
L 135.93849 223.367248 
L 136.777999 228.328553 
L 137.617508 231.721864 
L 138.037263 232.680783 
L 138.457017 233.084278 
L 138.876772 232.896354 
L 139.296526 232.091179 
L 139.716281 230.653569 
L 140.136035 228.579277 
L 140.975544 222.558864 
L 141.815053 214.214442 
L 143.074317 198.140263 
L 145.173089 166.472269 
L 146.852107 142.750668 
L 147.691616 133.239307 
L 148.531125 126.011784 
L 149.370634 121.443572 
L 149.790389 120.230335 
L 150.210143 119.74861 
L 150.629898 119.997597 
L 151.049652 120.965279 
L 151.469407 122.628618 
L 152.308916 127.897517 
L 153.148425 135.418545 
L 154.407688 149.756611 
L 157.34597 185.981847 
L 158.185479 194.082005 
L 159.024988 200.195307 
L 159.444743 202.397161 
L 159.864497 203.990707 
L 160.284252 204.960532 
L 160.704006 205.30227 
L 161.123761 205.02265 
L 161.543515 204.139351 
L 161.96327 202.680682 
L 162.802779 198.200424 
L 163.642288 191.997678 
L 164.901551 180.663259 
L 166.580569 165.127618 
L 167.420078 158.65442 
L 168.259587 153.832069 
L 168.679342 152.190446 
L 169.099096 151.125574 
L 169.518851 150.673391 
L 169.938605 150.859563 
L 170.35836 151.69903 
L 170.778114 153.195727 
L 171.197869 155.34249 
L 172.037378 161.502785 
L 172.876887 169.908655 
L 174.13615 185.764379 
L 177.913941 237.09494 
L 178.75345 245.067933 
L 179.592959 250.641672 
L 180.012713 252.431707 
L 180.432468 253.52617 
L 180.852222 253.915522 
L 181.271977 253.601428 
L 181.691731 252.596717 
L 182.111486 250.925165 
L 182.950995 245.728796 
L 183.790504 238.401933 
L 185.049767 224.586267 
L 187.988049 190.602774 
L 188.827558 183.370297 
L 189.667067 178.203216 
L 190.086822 176.499224 
L 190.506576 175.417387 
L 190.926331 174.971075 
L 191.346085 175.162587 
L 191.76584 175.98313 
L 192.185594 177.412982 
L 193.025103 181.969318 
L 193.864612 188.47267 
L 195.123876 200.768373 
L 197.642403 226.674845 
L 198.481912 233.304928 
L 199.321421 237.988939 
L 199.741175 239.471406 
L 200.16093 240.33015 
L 200.580684 240.539926 
L 201.000439 240.086282 
L 201.420193 238.96581 
L 201.839948 237.186225 
L 202.679457 231.735358 
L 203.518966 224.009122 
L 204.778229 209.124115 
L 208.55602 160.36208 
L 209.395529 152.868059 
L 210.235038 147.725317 
L 210.654792 146.130059 
L 211.074547 145.215051 
L 211.494301 144.9887 
L 211.914056 145.448232 
L 212.33381 146.579749 
L 212.753565 148.358466 
L 213.593074 153.706617 
L 214.432583 161.096878 
L 215.691847 174.833396 
L 218.210374 203.782022 
L 219.049883 211.45236 
L 219.889392 217.201281 
L 220.309146 219.230386 
L 220.728901 220.648422 
L 221.148655 221.432783 
L 221.56841 221.571767 
L 221.988164 221.064756 
L 222.407919 219.922226 
L 222.827673 218.165561 
L 223.667182 212.947544 
L 224.506691 205.781769 
L 225.765955 192.513771 
L 228.284482 164.825587 
L 229.123991 157.661168 
L 229.9635 152.471492 
L 230.383254 150.745893 
L 230.803009 149.64974 
L 231.222763 149.207634 
L 231.642518 149.433339 
L 232.062272 150.329543 
L 232.482027 151.887802 
L 232.901781 154.088667 
L 233.74129 160.287464 
L 234.580799 168.566574 
L 235.840063 183.767328 
L 238.778344 220.918357 
L 239.617853 228.998332 
L 240.457362 234.942114 
L 240.877117 236.997051 
L 241.296871 238.398623 
L 241.716626 239.128605 
L 242.13638 239.179822 
L 242.556135 238.556263 
L 242.975889 237.273006 
L 243.395644 235.355966 
L 244.235153 229.775557 
L 245.074662 222.218142 
L 246.333926 208.364132 
L 248.852453 179.674875 
L 249.691962 172.226519 
L 250.531471 166.755899 
L 250.951225 164.884082 
L 251.37098 163.633669 
L 251.790734 163.025865 
L 252.210489 163.070942 
L 252.630243 163.768066 
L 253.049998 165.105315 
L 253.469752 167.059882 
L 254.309261 172.677782 
L 255.14877 180.240488 
L 256.408034 194.079803 
L 258.926561 222.761065 
L 259.76607 230.207411 
L 260.605579 235.658319 
L 261.025333 237.508293 
L 261.445088 238.725639 
L 261.864842 239.286565 
L 262.284597 239.178156 
L 262.704351 238.39859 
L 263.124106 236.957182 
L 263.54386 234.874228 
L 264.383369 228.917637 
L 265.222878 220.893922 
L 266.482142 206.110043 
L 269.000669 174.618453 
L 269.840178 165.999345 
L 270.679687 159.291608 
L 271.519196 154.91131 
L 271.938951 153.682464 
L 272.358705 153.120719 
L 272.77846 153.231989 
L 273.198214 154.011039 
L 273.617969 155.44157 
L 274.037723 157.496497 
L 274.877232 163.320189 
L 275.716741 171.07129 
L 276.976005 185.110566 
L 279.074777 209.498055 
L 279.914286 217.657489 
L 280.753795 224.027981 
L 281.593304 228.175711 
L 282.013059 229.320866 
L 282.432813 229.816748 
L 282.852568 229.654385 
L 283.272322 228.835925 
L 283.692077 227.374596 
L 284.111831 225.294486 
L 284.95134 219.425985 
L 285.790849 211.62072 
L 287.050113 197.448503 
L 289.56864 168.260419 
L 290.408149 160.692615 
L 291.247658 155.13824 
L 291.667412 153.241428 
L 292.087167 151.979365 
L 292.506921 151.374913 
L 292.926676 151.440026 
L 293.34643 152.175549 
L 293.766185 153.571198 
L 294.185939 155.605727 
L 295.025448 161.45392 
L 295.864957 169.348614 
L 297.124221 183.89002 
L 299.642748 214.703404 
L 300.482257 223.047595 
L 301.321766 229.465637 
L 302.161275 233.549842 
L 302.58103 234.631167 
L 303.000784 235.04739 
L 303.420539 234.793849 
L 303.840293 233.877029 
L 304.260048 232.314449 
L 305.099557 227.375306 
L 305.939066 220.321627 
L 307.198329 206.867773 
L 310.136611 173.21517 
L 310.97612 165.965731 
L 311.815629 160.776351 
L 312.235383 159.0708 
L 312.655138 158.000645 
L 313.074892 157.584628 
L 313.494647 157.830495 
L 313.914401 158.734864 
L 314.334156 160.283278 
L 315.173665 165.200698 
L 316.013174 172.259313 
L 317.272437 185.808472 
L 320.210719 220.224964 
L 321.050228 227.815791 
L 321.889737 233.375466 
L 322.309491 235.270356 
L 322.729246 236.52871 
L 323.149 237.128674 
L 323.568755 237.059334 
L 323.988509 236.320895 
L 324.408264 234.924684 
L 324.828018 232.892959 
L 325.667527 227.064282 
L 326.507036 219.213243 
L 327.7663 204.793712 
L 330.284827 174.447974 
L 331.124336 166.318465 
L 331.963845 160.135165 
L 332.3836 157.904026 
L 332.803354 156.297539 
L 333.223109 155.341057 
L 333.642863 155.049089 
L 334.062618 155.425055 
L 334.482372 156.461238 
L 334.902127 158.138912 
L 335.741636 163.29085 
L 336.581145 170.527238 
L 337.840408 184.184233 
L 340.77869 217.929929 
L 341.618199 225.113985 
L 342.457708 230.206725 
L 342.877462 231.854712 
L 343.297217 232.862612 
L 343.716971 233.212843 
L 344.136726 232.89885 
L 344.55648 231.92521 
L 344.976235 230.30756 
L 345.815744 225.256318 
L 346.655253 218.077029 
L 347.914516 204.386558 
L 350.852798 169.884202 
L 351.692307 162.328632 
L 352.531816 156.822595 
L 352.95157 154.959192 
L 353.371325 153.734102 
L 353.791079 153.168114 
L 354.210834 153.271053 
L 354.630588 154.041613 
L 355.050343 155.46738 
L 355.470097 157.525038 
L 356.309606 163.39075 
L 357.149115 171.253213 
L 358.408379 185.630186 
L 360.926906 215.65267 
L 361.766415 223.610843 
L 362.605924 229.600134 
L 363.025679 231.728248 
L 363.445433 233.229176 
L 363.865188 234.078743 
L 364.284942 234.263653 
L 364.704697 233.781707 
L 365.124451 232.641837 
L 365.544206 230.863961 
L 366.383715 225.526578 
L 367.223224 218.131469 
L 368.482487 204.300701 
L 371.001014 174.705667 
L 371.840523 166.700816 
L 372.680032 160.591056 
L 373.099787 158.381199 
L 373.519541 156.787947 
L 373.939296 155.838504 
L 374.35905 155.549303 
L 374.778805 155.925728 
L 375.198559 156.962028 
L 375.618314 158.641408 
L 376.457823 163.808886 
L 377.297332 171.088042 
L 378.556595 184.883218 
L 381.494877 219.366754 
L 382.334386 226.853812 
L 383.173895 232.272105 
L 383.593649 234.086751 
L 384.013404 235.261212 
L 384.433158 235.775798 
L 384.852913 235.621808 
L 385.272667 234.801678 
L 385.692422 233.328937 
L 386.112177 231.227986 
L 386.951686 225.29079 
L 387.791195 217.382946 
L 389.050458 202.998804 
L 391.568985 173.205659 
L 392.408494 165.389434 
L 393.248003 159.565843 
L 393.667758 157.527032 
L 394.087512 156.118243 
L 394.507267 155.362485 
L 394.927021 155.271859 
L 395.346776 155.847356 
L 395.76653 157.078843 
L 396.186285 158.945232 
L 397.025794 164.445885 
L 397.865303 171.979281 
L 398.487273 178.578152 
L 398.487273 178.578152 
" clip-path="url(#p0eb16c172c)" style="fill: none; stroke: #1f77b4; stroke-width: 1.5; stroke-linecap: square"/>
   </g>
   <g id="patch_3">
    <path d="M 57.6 307.584 
L 57.6 41.472 
" style="fill: none; stroke: #000000; stroke-width: 0.8; stroke-linejoin: miter; stroke-linecap: square"/>
   </g>
   <g id="patch_4">
    <path d="M 414.72 307.584 
L 414.72 41.472 
" style="fill: none; stroke: #000000; stroke-width: 0.8; stroke-linejoin: miter; stroke-linecap: square"/>
   </g>
   <g id="patch_5">
    <path d="M 57.6 307.584 
L 414.72 307.584 
" style="fill: none; stroke: #000000; stroke-width: 0.8; stroke-linejoin: miter; stroke-linecap: square"/>
   </g>
   <g id="patch_6">
    <path d="M 57.6 41.472 
L 414.72 41.472 
" style="fill: none; stroke: #000000; stroke-width: 0.8; stroke-linejoin: miter; stroke-linecap: square"/>
   </g>
  </g>
 </g>
 <defs>
  <clipPath id="p0eb16c172c">
   <rect x="57.6" y="41.472" width="357.12" height="266.112"/>
  </clipPath>
 </defs>
</svg>
