<?xml version="1.0" encoding="utf-8" standalone="no"?>
<!DOCTYPE svg PUBLIC "-//W3C//DTD SVG 1.1//EN"
  "http://www.w3.org/Graphics/SVG/1.1/DTD/svg11.dtd">
<svg xmlns:xlink="http://www.w3.org/1999/xlink" width="460.8pt" height="345.6pt" viewBox="0 0 460.8 345.6" xmlns="http://www.w3.org/2000/svg" version="1.1">
 <metadata>
  <rdf:RDF xmlns:dc="http://purl.org/dc/elements/1.1/" xmlns:cc="http://creativecommons.org/ns#" xmlns:rdf="http://www.w3.org/1999/02/22-rdf-syntax-ns#">
   <cc:Work>
    <dc:type rdf:resource="http://purl.org/dc/dcmitype/StillImage"/>
    <dc:date>2025-10-10T15:48:48.528443</dc:date>
    <dc:format>image/svg+xml</dc:format>
    <dc:creator>
     <cc:Agent>
      <dc:title>Matplotlib v3.10.7, https://matplotlib.org/</dc:title>
     </cc:Agent>
    </dc:creator>
   </cc:Work>
  </rdf:RDF>
 </metadata>
 <defs>
  <style type="text/css">*{stroke-linejoin: round; stroke-linecap: butt}</style>
 </defs>
 <g id="figure_1">
  <g id="patch_1">
   <path d="M 0 345.6 
L 460.8 345.6 
L 460.8 0 
L 0 0 
z
" style="fill: #ffffff"/>
  </g>
  <g id="axes_1">
   <g id="patch_2">
    <path d="M 57.6 307.584 
L 414.72 307.584 
L 414.72 41.472 
L 57.6 41.472 
z
" style="fill: #ffffff"/>
   </g>
   <g id="matplotlib.axis_1">
    <g id="xtick_1">
     <g id="line2d_1">
      <defs>
       <path id="m613762e076" d="M 0 0 
L 0 3.5 
" style="stroke: #000000; stroke-width: 0.8"/>
      </defs>
      <g>
       <use xlink:href="#m613762e076" x="73.832727" y="307.584" style="stroke: #000000; stroke-width: 0.8"/>
      </g>
     </g>
     <g id="text_1">
      <!-- 0 -->
      <g transform="translate(70.651477 322.182437) scale(0.1 -0.1)">
       <defs>
        <path id="DejaVuSans-30" d="M 2034 4250 
Q 1547 4250 1301 3770 
Q 1056 3291 1056 2328 
Q 1056 1369 1301 889 
Q 1547 409 2034 409 
Q 2525 409 2770 889 
Q 3016 1369 3016 2328 
Q 3016 3291 2770 3770 
Q 2525 4250 2034 4250 
z
M 2034 4750 
Q 2819 4750 3233 4129 
Q 3647 3509 3647 2328 
Q 3647 1150 3233 529 
Q 2819 -91 2034 -91 
Q 1250 -91 836 529 
Q 422 1150 422 2328 
Q 422 3509 836 4129 
Q 1250 4750 2034 4750 
z
" transform="scale(0.015625)"/>
       </defs>
       <use xlink:href="#DejaVuSans-30"/>
      </g>
     </g>
    </g>
    <g id="xtick_2">
     <g id="line2d_2">
      <g>
       <use xlink:href="#m613762e076" x="114.414545" y="307.584" style="stroke: #000000; stroke-width: 0.8"/>
      </g>
     </g>
     <g id="text_2">
      <!-- 5 -->
      <g transform="translate(111.233295 322.182437) scale(0.1 -0.1)">
       <defs>
        <path id="DejaVuSans-35" d="M 691 4666 
L 3169 4666 
L 3169 4134 
L 1269 4134 
L 1269 2991 
Q 1406 3038 1543 3061 
Q 1681 3084 1819 3084 
Q 2600 3084 3056 2656 
Q 3513 2228 3513 1497 
Q 3513 744 3044 326 
Q 2575 -91 1722 -91 
Q 1428 -91 1123 -41 
Q 819 9 494 109 
L 494 744 
Q 775 591 1075 516 
Q 1375 441 1709 441 
Q 2250 441 2565 725 
Q 2881 1009 2881 1497 
Q 2881 1984 2565 2268 
Q 2250 2553 1709 2553 
Q 1456 2553 1204 2497 
Q 953 2441 691 2322 
L 691 4666 
z
" transform="scale(0.015625)"/>
       </defs>
       <use xlink:href="#DejaVuSans-35"/>
      </g>
     </g>
    </g>
    <g id="xtick_3">
     <g id="line2d_3">
      <g>
       <use xlink:href="#m613762e076" x="154.996364" y="307.584" style="stroke: #000000; stroke-width: 0.8"/>
      </g>
     </g>
     <g id="text_3">
      <!-- 10 -->
      <g transform="translate(148.633864 322.182437) scale(0.1 -0.1)">
       <defs>
        <path id="DejaVuSans-31" d="M 794 531 
L 1825 531 
L 1825 4091 
L 703 3866 
L 703 4441 
L 1819 4666 
L 2450 4666 
L 2450 531 
L 3481 531 
L 3481 0 
L 794 0 
L 794 531 
z
" transform="scale(0.015625)"/>
       </defs>
       <use xlink:href="#DejaVuSans-31"/>
       <use xlink:href="#DejaVuSans-30" transform="translate(63.623047 0)"/>
      </g>
     </g>
    </g>
    <g id="xtick_4">
     <g id="line2d_4">
      <g>
       <use xlink:href="#m613762e076" x="195.578182" y="307.584" style="stroke: #000000; stroke-width: 0.8"/>
      </g>
     </g>
     <g id="text_4">
      <!-- 15 -->
      <g transform="translate(189.215682 322.182437) scale(0.1 -0.1)">
       <use xlink:href="#DejaVuSans-31"/>
       <use xlink:href="#DejaVuSans-35" transform="translate(63.623047 0)"/>
      </g>
     </g>
    </g>
    <g id="xtick_5">
     <g id="line2d_5">
      <g>
       <use xlink:href="#m613762e076" x="236.16" y="307.584" style="stroke: #000000; stroke-width: 0.8"/>
      </g>
     </g>
     <g id="text_5">
      <!-- 20 -->
      <g transform="translate(229.7975 322.182437) scale(0.1 -0.1)">
       <defs>
        <path id="DejaVuSans-32" d="M 1228 531 
L 3431 531 
L 3431 0 
L 469 0 
L 469 531 
Q 828 903 1448 1529 
Q 2069 2156 2228 2338 
Q 2531 2678 2651 2914 
Q 2772 3150 2772 3378 
Q 2772 3750 2511 3984 
Q 2250 4219 1831 4219 
Q 1534 4219 1204 4116 
Q 875 4013 500 3803 
L 500 4441 
Q 881 4594 1212 4672 
Q 1544 4750 1819 4750 
Q 2544 4750 2975 4387 
Q 3406 4025 3406 3419 
Q 3406 3131 3298 2873 
Q 3191 2616 2906 2266 
Q 2828 2175 2409 1742 
Q 1991 1309 1228 531 
z
" transform="scale(0.015625)"/>
       </defs>
       <use xlink:href="#DejaVuSans-32"/>
       <use xlink:href="#DejaVuSans-30" transform="translate(63.623047 0)"/>
      </g>
     </g>
    </g>
    <g id="xtick_6">
     <g id="line2d_6">
      <g>
       <use xlink:href="#m613762e076" x="276.741818" y="307.584" style="stroke: #000000; stroke-width: 0.8"/>
      </g>
     </g>
     <g id="text_6">
      <!-- 25 -->
      <g transform="translate(270.379318 322.182437) scale(0.1 -0.1)">
       <use xlink:href="#DejaVuSans-32"/>
       <use xlink:href="#DejaVuSans-35" transform="translate(63.623047 0)"/>
      </g>
     </g>
    </g>
    <g id="xtick_7">
     <g id="line2d_7">
      <g>
       <use xlink:href="#m613762e076" x="317.323636" y="307.584" style="stroke: #000000; stroke-width: 0.8"/>
      </g>
     </g>
     <g id="text_7">
      <!-- 30 -->
      <g transform="translate(310.961136 322.182437) scale(0.1 -0.1)">
       <defs>
        <path id="DejaVuSans-33" d="M 2597 2516 
Q 3050 2419 3304 2112 
Q 3559 1806 3559 1356 
Q 3559 666 3084 287 
Q 2609 -91 1734 -91 
Q 1441 -91 1130 -33 
Q 819 25 488 141 
L 488 750 
Q 750 597 1062 519 
Q 1375 441 1716 441 
Q 2309 441 2620 675 
Q 2931 909 2931 1356 
Q 2931 1769 2642 2001 
Q 2353 2234 1838 2234 
L 1294 2234 
L 1294 2753 
L 1863 2753 
Q 2328 2753 2575 2939 
Q 2822 3125 2822 3475 
Q 2822 3834 2567 4026 
Q 2313 4219 1838 4219 
Q 1578 4219 1281 4162 
Q 984 4106 628 3988 
L 628 4550 
Q 988 4650 1302 4700 
Q 1616 4750 1894 4750 
Q 2613 4750 3031 4423 
Q 3450 4097 3450 3541 
Q 3450 3153 3228 2886 
Q 3006 2619 2597 2516 
z
" transform="scale(0.015625)"/>
       </defs>
       <use xlink:href="#DejaVuSans-33"/>
       <use xlink:href="#DejaVuSans-30" transform="translate(63.623047 0)"/>
      </g>
     </g>
    </g>
    <g id="xtick_8">
     <g id="line2d_8">
      <g>
       <use xlink:href="#m613762e076" x="357.905455" y="307.584" style="stroke: #000000; stroke-width: 0.8"/>
      </g>
     </g>
     <g id="text_8">
      <!-- 35 -->
      <g transform="translate(351.542955 322.182437) scale(0.1 -0.1)">
       <use xlink:href="#DejaVuSans-33"/>
       <use xlink:href="#DejaVuSans-35" transform="translate(63.623047 0)"/>
      </g>
     </g>
    </g>
    <g id="xtick_9">
     <g id="line2d_9">
      <g>
       <use xlink:href="#m613762e076" x="398.487273" y="307.584" style="stroke: #000000; stroke-width: 0.8"/>
      </g>
     </g>
     <g id="text_9">
      <!-- 40 -->
      <g transform="translate(392.124773 322.182437) scale(0.1 -0.1)">
       <defs>
        <path id="DejaVuSans-34" d="M 2419 4116 
L 825 1625 
L 2419 1625 
L 2419 4116 
z
M 2253 4666 
L 3047 4666 
L 3047 1625 
L 3713 1625 
L 3713 1100 
L 3047 1100 
L 3047 0 
L 2419 0 
L 2419 1100 
L 313 1100 
L 313 1709 
L 2253 4666 
z
" transform="scale(0.015625)"/>
       </defs>
       <use xlink:href="#DejaVuSans-34"/>
       <use xlink:href="#DejaVuSans-30" transform="translate(63.623047 0)"/>
      </g>
     </g>
    </g>
    <g id="text_10">
     <!-- t -->
     <g transform="translate(234.199844 335.860562) scale(0.1 -0.1)">
      <defs>
       <path id="DejaVuSans-74" d="M 1172 4494 
L 1172 3500 
L 2356 3500 
L 2356 3053 
L 1172 3053 
L 1172 1153 
Q 1172 725 1289 603 
Q 1406 481 1766 481 
L 2356 481 
L 2356 0 
L 1766 0 
Q 1100 0 847 248 
Q 594 497 594 1153 
L 594 3053 
L 172 3053 
L 172 3500 
L 594 3500 
L 594 4494 
L 1172 4494 
z
" transform="scale(0.015625)"/>
      </defs>
      <use xlink:href="#DejaVuSans-74"/>
     </g>
    </g>
   </g>
   <g id="matplotlib.axis_2">
    <g id="ytick_1">
     <g id="line2d_10">
      <defs>
       <path id="mb1f3148cbe" d="M 0 0 
L -3.5 0 
" style="stroke: #000000; stroke-width: 0.8"/>
      </defs>
      <g>
       <use xlink:href="#mb1f3148cbe" x="57.6" y="295.973643" style="stroke: #000000; stroke-width: 0.8"/>
      </g>
     </g>
     <g id="text_11">
      <!-- 0.2 -->
      <g transform="translate(34.696875 299.772861) scale(0.1 -0.1)">
       <defs>
        <path id="DejaVuSans-2e" d="M 684 794 
L 1344 794 
L 1344 0 
L 684 0 
L 684 794 
z
" transform="scale(0.015625)"/>
       </defs>
       <use xlink:href="#DejaVuSans-30"/>
       <use xlink:href="#DejaVuSans-2e" transform="translate(63.623047 0)"/>
       <use xlink:href="#DejaVuSans-32" transform="translate(95.410156 0)"/>
      </g>
     </g>
    </g>
    <g id="ytick_2">
     <g id="line2d_11">
      <g>
       <use xlink:href="#mb1f3148cbe" x="57.6" y="265.335269" style="stroke: #000000; stroke-width: 0.8"/>
      </g>
     </g>
     <g id="text_12">
      <!-- 0.4 -->
      <g transform="translate(34.696875 269.134488) scale(0.1 -0.1)">
       <use xlink:href="#DejaVuSans-30"/>
       <use xlink:href="#DejaVuSans-2e" transform="translate(63.623047 0)"/>
       <use xlink:href="#DejaVuSans-34" transform="translate(95.410156 0)"/>
      </g>
     </g>
    </g>
    <g id="ytick_3">
     <g id="line2d_12">
      <g>
       <use xlink:href="#mb1f3148cbe" x="57.6" y="234.696896" style="stroke: #000000; stroke-width: 0.8"/>
      </g>
     </g>
     <g id="text_13">
      <!-- 0.6 -->
      <g transform="translate(34.696875 238.496115) scale(0.1 -0.1)">
       <defs>
        <path id="DejaVuSans-36" d="M 2113 2584 
Q 1688 2584 1439 2293 
Q 1191 2003 1191 1497 
Q 1191 994 1439 701 
Q 1688 409 2113 409 
Q 2538 409 2786 701 
Q 3034 994 3034 1497 
Q 3034 2003 2786 2293 
Q 2538 2584 2113 2584 
z
M 3366 4563 
L 3366 3988 
Q 3128 4100 2886 4159 
Q 2644 4219 2406 4219 
Q 1781 4219 1451 3797 
Q 1122 3375 1075 2522 
Q 1259 2794 1537 2939 
Q 1816 3084 2150 3084 
Q 2853 3084 3261 2657 
Q 3669 2231 3669 1497 
Q 3669 778 3244 343 
Q 2819 -91 2113 -91 
Q 1303 -91 875 529 
Q 447 1150 447 2328 
Q 447 3434 972 4092 
Q 1497 4750 2381 4750 
Q 2619 4750 2861 4703 
Q 3103 4656 3366 4563 
z
" transform="scale(0.015625)"/>
       </defs>
       <use xlink:href="#DejaVuSans-30"/>
       <use xlink:href="#DejaVuSans-2e" transform="translate(63.623047 0)"/>
       <use xlink:href="#DejaVuSans-36" transform="translate(95.410156 0)"/>
      </g>
     </g>
    </g>
    <g id="ytick_4">
     <g id="line2d_13">
      <g>
       <use xlink:href="#mb1f3148cbe" x="57.6" y="204.058523" style="stroke: #000000; stroke-width: 0.8"/>
      </g>
     </g>
     <g id="text_14">
      <!-- 0.8 -->
      <g transform="translate(34.696875 207.857741) scale(0.1 -0.1)">
       <defs>
        <path id="DejaVuSans-38" d="M 2034 2216 
Q 1584 2216 1326 1975 
Q 1069 1734 1069 1313 
Q 1069 891 1326 650 
Q 1584 409 2034 409 
Q 2484 409 2743 651 
Q 3003 894 3003 1313 
Q 3003 1734 2745 1975 
Q 2488 2216 2034 2216 
z
M 1403 2484 
Q 997 2584 770 2862 
Q 544 3141 544 3541 
Q 544 4100 942 4425 
Q 1341 4750 2034 4750 
Q 2731 4750 3128 4425 
Q 3525 4100 3525 3541 
Q 3525 3141 3298 2862 
Q 3072 2584 2669 2484 
Q 3125 2378 3379 2068 
Q 3634 1759 3634 1313 
Q 3634 634 3220 271 
Q 2806 -91 2034 -91 
Q 1263 -91 848 271 
Q 434 634 434 1313 
Q 434 1759 690 2068 
Q 947 2378 1403 2484 
z
M 1172 3481 
Q 1172 3119 1398 2916 
Q 1625 2713 2034 2713 
Q 2441 2713 2670 2916 
Q 2900 3119 2900 3481 
Q 2900 3844 2670 4047 
Q 2441 4250 2034 4250 
Q 1625 4250 1398 4047 
Q 1172 3844 1172 3481 
z
" transform="scale(0.015625)"/>
       </defs>
       <use xlink:href="#DejaVuSans-30"/>
       <use xlink:href="#DejaVuSans-2e" transform="translate(63.623047 0)"/>
       <use xlink:href="#DejaVuSans-38" transform="translate(95.410156 0)"/>
      </g>
     </g>
    </g>
    <g id="ytick_5">
     <g id="line2d_14">
      <g>
       <use xlink:href="#mb1f3148cbe" x="57.6" y="173.420149" style="stroke: #000000; stroke-width: 0.8"/>
      </g>
     </g>
     <g id="text_15">
      <!-- 1.0 -->
      <g transform="translate(34.696875 177.219368) scale(0.1 -0.1)">
       <use xlink:href="#DejaVuSans-31"/>
       <use xlink:href="#DejaVuSans-2e" transform="translate(63.623047 0)"/>
       <use xlink:href="#DejaVuSans-30" transform="translate(95.410156 0)"/>
      </g>
     </g>
    </g>
    <g id="ytick_6">
     <g id="line2d_15">
      <g>
       <use xlink:href="#mb1f3148cbe" x="57.6" y="142.781776" style="stroke: #000000; stroke-width: 0.8"/>
      </g>
     </g>
     <g id="text_16">
      <!-- 1.2 -->
      <g transform="translate(34.696875 146.580995) scale(0.1 -0.1)">
       <use xlink:href="#DejaVuSans-31"/>
       <use xlink:href="#DejaVuSans-2e" transform="translate(63.623047 0)"/>
       <use xlink:href="#DejaVuSans-32" transform="translate(95.410156 0)"/>
      </g>
     </g>
    </g>
    <g id="ytick_7">
     <g id="line2d_16">
      <g>
       <use xlink:href="#mb1f3148cbe" x="57.6" y="112.143403" style="stroke: #000000; stroke-width: 0.8"/>
      </g>
     </g>
     <g id="text_17">
      <!-- 1.4 -->
      <g transform="translate(34.696875 115.942621) scale(0.1 -0.1)">
       <use xlink:href="#DejaVuSans-31"/>
       <use xlink:href="#DejaVuSans-2e" transform="translate(63.623047 0)"/>
       <use xlink:href="#DejaVuSans-34" transform="translate(95.410156 0)"/>
      </g>
     </g>
    </g>
    <g id="ytick_8">
     <g id="line2d_17">
      <g>
       <use xlink:href="#mb1f3148cbe" x="57.6" y="81.505029" style="stroke: #000000; stroke-width: 0.8"/>
      </g>
     </g>
     <g id="text_18">
      <!-- 1.6 -->
      <g transform="translate(34.696875 85.304248) scale(0.1 -0.1)">
       <use xlink:href="#DejaVuSans-31"/>
       <use xlink:href="#DejaVuSans-2e" transform="translate(63.623047 0)"/>
       <use xlink:href="#DejaVuSans-36" transform="translate(95.410156 0)"/>
      </g>
     </g>
    </g>
    <g id="ytick_9">
     <g id="line2d_18">
      <g>
       <use xlink:href="#mb1f3148cbe" x="57.6" y="50.866656" style="stroke: #000000; stroke-width: 0.8"/>
      </g>
     </g>
     <g id="text_19">
      <!-- 1.8 -->
      <g transform="translate(34.696875 54.665875) scale(0.1 -0.1)">
       <use xlink:href="#DejaVuSans-31"/>
       <use xlink:href="#DejaVuSans-2e" transform="translate(63.623047 0)"/>
       <use xlink:href="#DejaVuSans-38" transform="translate(95.410156 0)"/>
      </g>
     </g>
    </g>
    <g id="text_20">
     <!-- population -->
     <g transform="translate(28.617187 201.135031) rotate(-90) scale(0.1 -0.1)">
      <defs>
       <path id="DejaVuSans-70" d="M 1159 525 
L 1159 -1331 
L 581 -1331 
L 581 3500 
L 1159 3500 
L 1159 2969 
Q 1341 3281 1617 3432 
Q 1894 3584 2278 3584 
Q 2916 3584 3314 3078 
Q 3713 2572 3713 1747 
Q 3713 922 3314 415 
Q 2916 -91 2278 -91 
Q 1894 -91 1617 61 
Q 1341 213 1159 525 
z
M 3116 1747 
Q 3116 2381 2855 2742 
Q 2594 3103 2138 3103 
Q 1681 3103 1420 2742 
Q 1159 2381 1159 1747 
Q 1159 1113 1420 752 
Q 1681 391 2138 391 
Q 2594 391 2855 752 
Q 3116 1113 3116 1747 
z
" transform="scale(0.015625)"/>
       <path id="DejaVuSans-6f" d="M 1959 3097 
Q 1497 3097 1228 2736 
Q 959 2375 959 1747 
Q 959 1119 1226 758 
Q 1494 397 1959 397 
Q 2419 397 2687 759 
Q 2956 1122 2956 1747 
Q 2956 2369 2687 2733 
Q 2419 3097 1959 3097 
z
M 1959 3584 
Q 2709 3584 3137 3096 
Q 3566 2609 3566 1747 
Q 3566 888 3137 398 
Q 2709 -91 1959 -91 
Q 1206 -91 779 398 
Q 353 888 353 1747 
Q 353 2609 779 3096 
Q 1206 3584 1959 3584 
z
" transform="scale(0.015625)"/>
       <path id="DejaVuSans-75" d="M 544 1381 
L 544 3500 
L 1119 3500 
L 1119 1403 
Q 1119 906 1312 657 
Q 1506 409 1894 409 
Q 2359 409 2629 706 
Q 2900 1003 2900 1516 
L 2900 3500 
L 3475 3500 
L 3475 0 
L 2900 0 
L 2900 538 
Q 2691 219 2414 64 
Q 2138 -91 1772 -91 
Q 1169 -91 856 284 
Q 544 659 544 1381 
z
M 1991 3584 
L 1991 3584 
z
" transform="scale(0.015625)"/>
       <path id="DejaVuSans-6c" d="M 603 4863 
L 1178 4863 
L 1178 0 
L 603 0 
L 603 4863 
z
" transform="scale(0.015625)"/>
       <path id="DejaVuSans-61" d="M 2194 1759 
Q 1497 1759 1228 1600 
Q 959 1441 959 1056 
Q 959 750 1161 570 
Q 1363 391 1709 391 
Q 2188 391 2477 730 
Q 2766 1069 2766 1631 
L 2766 1759 
L 2194 1759 
z
M 3341 1997 
L 3341 0 
L 2766 0 
L 2766 531 
Q 2569 213 2275 61 
Q 1981 -91 1556 -91 
Q 1019 -91 701 211 
Q 384 513 384 1019 
Q 384 1609 779 1909 
Q 1175 2209 1959 2209 
L 2766 2209 
L 2766 2266 
Q 2766 2663 2505 2880 
Q 2244 3097 1772 3097 
Q 1472 3097 1187 3025 
Q 903 2953 641 2809 
L 641 3341 
Q 956 3463 1253 3523 
Q 1550 3584 1831 3584 
Q 2591 3584 2966 3190 
Q 3341 2797 3341 1997 
z
" transform="scale(0.015625)"/>
       <path id="DejaVuSans-69" d="M 603 3500 
L 1178 3500 
L 1178 0 
L 603 0 
L 603 3500 
z
M 603 4863 
L 1178 4863 
L 1178 4134 
L 603 4134 
L 603 4863 
z
" transform="scale(0.015625)"/>
       <path id="DejaVuSans-6e" d="M 3513 2113 
L 3513 0 
L 2938 0 
L 2938 2094 
Q 2938 2591 2744 2837 
Q 2550 3084 2163 3084 
Q 1697 3084 1428 2787 
Q 1159 2491 1159 1978 
L 1159 0 
L 581 0 
L 581 3500 
L 1159 3500 
L 1159 2956 
Q 1366 3272 1645 3428 
Q 1925 3584 2291 3584 
Q 2894 3584 3203 3211 
Q 3513 2838 3513 2113 
z
" transform="scale(0.015625)"/>
      </defs>
      <use xlink:href="#DejaVuSans-70"/>
      <use xlink:href="#DejaVuSans-6f" transform="translate(63.476562 0)"/>
      <use xlink:href="#DejaVuSans-70" transform="translate(124.658203 0)"/>
      <use xlink:href="#DejaVuSans-75" transform="translate(188.134766 0)"/>
      <use xlink:href="#DejaVuSans-6c" transform="translate(251.513672 0)"/>
      <use xlink:href="#DejaVuSans-61" transform="translate(279.296875 0)"/>
      <use xlink:href="#DejaVuSans-74" transform="translate(340.576172 0)"/>
      <use xlink:href="#DejaVuSans-69" transform="translate(379.785156 0)"/>
      <use xlink:href="#DejaVuSans-6f" transform="translate(407.568359 0)"/>
      <use xlink:href="#DejaVuSans-6e" transform="translate(468.75 0)"/>
     </g>
    </g>
   </g>
   <g id="line2d_19">
    <path d="M 73.832727 173.420149 
L 75.204277 189.646929 
L 76.302902 201.061075 
L 77.456458 211.494601 
L 78.610015 220.396731 
L 79.763571 227.877644 
L 80.917127 234.071705 
L 82.070683 239.11822 
L 83.224239 243.149628 
L 84.377796 246.285196 
L 85.531352 248.628415 
L 86.684908 250.266644 
L 87.261686 250.844479 
L 88.435658 251.563533 
L 89.609629 251.713701 
L 90.783601 251.337791 
L 91.957572 250.468149 
L 93.131544 249.128186 
L 94.305515 247.333882 
L 95.479487 245.095009 
L 96.653458 242.416034 
L 97.82743 239.2969 
L 99.001401 235.733795 
L 100.175373 231.719889 
L 101.349344 227.246017 
L 102.523316 222.301342 
L 104.871259 210.952187 
L 107.219202 197.581779 
L 109.567145 182.131514 
L 111.915088 164.624185 
L 114.263031 145.239069 
L 117.784945 113.735342 
L 121.30686 82.678032 
L 123.36176 67.474841 
L 124.242688 62.25226 
L 125.123616 58.080149 
L 126.004545 55.155323 
L 126.885473 53.668662 
L 127.766401 53.792349 
L 128.519288 55.278375 
L 129.272174 58.098915 
L 130.025061 62.274849 
L 130.777947 67.78495 
L 131.530833 74.562435 
L 132.895788 89.691745 
L 134.731992 114.196311 
L 139.016469 173.882773 
L 140.864389 195.15959 
L 142.096336 207.103523 
L 143.433431 218.048934 
L 144.770526 227.041121 
L 146.107621 234.282622 
L 147.444716 239.988648 
L 148.781811 244.363575 
L 150.118907 247.586165 
L 150.787454 248.813425 
L 151.456002 249.806682 
L 152.124549 250.58027 
L 152.793097 251.146909 
L 153.461644 251.517822 
L 154.130192 251.702836 
L 154.798739 251.710484 
L 155.467287 251.548115 
L 156.135834 251.222 
L 156.804382 250.737423 
L 158.141477 249.309609 
L 159.478572 247.290379 
L 160.815667 244.694573 
L 162.152762 241.52808 
L 163.490594 237.787262 
L 164.828426 233.466356 
L 166.166257 228.553343 
L 167.504089 223.032935 
L 168.841921 216.887948 
L 170.179753 210.100739 
L 171.517585 202.654936 
L 174.193249 185.742087 
L 176.868913 166.142087 
L 179.544577 144.081666 
L 183.558073 108.0317 
L 186.233737 84.493279 
L 187.299713 76.003005 
L 189.129353 63.695982 
L 189.893016 59.72678 
L 190.656679 56.631872 
L 191.420341 54.538615 
L 192.184004 53.568 
L 192.947667 53.828149 
L 193.71133 55.406074 
L 194.474992 58.358785 
L 195.238655 62.70515 
L 196.002318 68.419547 
L 197.349459 81.582666 
L 198.696601 97.988774 
L 200.717313 126.202493 
L 203.343531 163.258027 
L 205.160049 185.839479 
L 206.371061 198.829298 
L 207.582073 210.066331 
L 208.793085 219.602516 
L 210.004097 227.55925 
L 211.215109 234.090586 
L 212.426121 239.357565 
L 213.637133 243.512979 
L 214.848146 246.693447 
L 216.059158 249.016312 
L 217.27017 250.57944 
L 217.875676 251.10166 
L 218.481182 251.462507 
L 219.086688 251.669419 
L 219.692194 251.728957 
L 220.2977 251.646862 
L 220.903206 251.428127 
L 221.508712 251.077049 
L 222.719724 249.991919 
L 223.930736 248.414011 
L 225.149878 246.342564 
L 226.36902 243.794638 
L 227.588161 240.772537 
L 228.807303 237.273848 
L 230.026445 233.29236 
L 231.245586 228.818815 
L 232.464728 223.841668 
L 233.68387 218.34794 
L 236.122153 205.757531 
L 238.560436 190.955185 
L 240.99872 173.906606 
L 243.437003 154.707048 
L 245.875286 133.691704 
L 251.970995 79.700211 
L 253.897082 65.952882 
L 254.860126 60.589169 
L 255.637 57.226275 
L 256.413875 54.871107 
L 257.190749 53.65401 
L 257.967623 53.692027 
L 258.744497 55.080641 
L 259.521371 57.885134 
L 260.298245 62.131644 
L 261.07512 67.799475 
L 262.431332 80.856789 
L 263.787545 97.247492 
L 265.821864 125.582298 
L 268.462895 162.883703 
L 270.28303 185.560115 
L 271.496453 198.609554 
L 272.709877 209.89917 
L 273.9233 219.47961 
L 275.136723 227.472233 
L 276.350146 234.031774 
L 277.56357 239.320262 
L 278.776993 243.491529 
L 279.990416 246.68315 
L 281.203839 249.013278 
L 282.417263 250.580431 
L 283.023974 251.103612 
L 283.630686 251.464788 
L 284.237397 251.671439 
L 284.844109 251.730161 
L 285.450821 251.646727 
L 286.057532 251.426151 
L 286.664244 251.07275 
L 287.877667 249.981583 
L 289.091091 248.395832 
L 290.310484 246.318815 
L 291.529878 243.765178 
L 292.749272 240.737167 
L 293.968666 237.232322 
L 295.188059 233.244385 
L 296.407453 228.764063 
L 297.626847 223.779782 
L 298.846241 218.27854 
L 301.285028 205.671946 
L 303.723816 190.852007 
L 306.162603 173.784964 
L 308.601391 154.567292 
L 311.040178 133.536515 
L 317.137147 79.550649 
L 319.059683 65.857549 
L 320.020951 60.521291 
L 320.797367 57.176031 
L 321.573784 54.839534 
L 322.3502 53.641779 
L 323.126617 53.699354 
L 323.903033 55.107195 
L 324.67945 57.929968 
L 325.455866 62.193169 
L 326.232283 67.875478 
L 327.586933 80.942849 
L 328.941582 97.330412 
L 330.973557 125.641248 
L 333.612134 162.906475 
L 335.431943 185.576486 
L 336.645148 198.622021 
L 337.858354 209.908288 
L 339.071559 219.486001 
L 340.284765 227.476504 
L 341.497971 234.034472 
L 342.711176 239.321858 
L 343.924382 243.492418 
L 345.137587 246.683658 
L 346.350793 249.013677 
L 347.563998 250.58095 
L 348.170601 251.104266 
L 348.777204 251.465623 
L 349.383807 251.6725 
L 349.990409 251.731489 
L 350.597012 251.648362 
L 351.203615 251.428133 
L 351.810218 251.075118 
L 353.023423 249.984835 
L 354.236629 248.40012 
L 355.455966 246.323995 
L 356.675303 243.771285 
L 357.894639 240.744248 
L 359.113976 237.240428 
L 360.333313 233.253575 
L 361.55265 228.774402 
L 362.771987 223.791337 
L 363.991324 218.291383 
L 366.429998 205.687575 
L 368.868671 190.870671 
L 371.307345 173.806801 
L 373.746019 154.592201 
L 376.184693 133.563948 
L 382.281377 79.575883 
L 384.204575 65.872166 
L 385.166174 60.530575 
L 385.942665 57.181922 
L 386.719156 54.841846 
L 387.495647 53.640397 
L 388.272138 53.694251 
L 389.048629 55.098452 
L 389.825121 57.917786 
L 390.601612 62.177873 
L 391.378103 67.857514 
L 392.733032 80.923233 
L 394.087961 97.311752 
L 396.120356 125.627814 
L 398.487273 159.234394 
L 398.487273 159.234394 
" clip-path="url(#pc4a9fdaf49)" style="fill: none; stroke: #1f77b4; stroke-width: 1.5; stroke-linecap: square"/>
   </g>
   <g id="line2d_20">
    <path d="M 73.832727 173.420149 
L 74.213397 173.531253 
L 74.668043 173.947358 
L 75.204277 174.814579 
L 75.75359 176.09678 
L 76.302902 177.744018 
L 77.456458 182.231376 
L 78.610015 187.832831 
L 80.340349 197.626737 
L 87.261686 239.315633 
L 89.609629 251.278338 
L 91.957572 261.575561 
L 94.305515 270.231773 
L 96.653458 277.362326 
L 97.82743 280.40215 
L 99.001401 283.117385 
L 100.175373 285.526388 
L 101.349344 287.64615 
L 102.523316 289.491878 
L 103.697287 291.076632 
L 104.871259 292.411004 
L 106.04523 293.502821 
L 107.219202 294.356841 
L 108.393173 294.974391 
L 109.567145 295.352937 
L 110.741116 295.485565 
L 111.915088 295.360342 
L 113.089059 294.959545 
L 114.263031 294.258731 
L 115.437002 293.225658 
L 116.610974 291.81908 
L 117.784945 289.987516 
L 118.958917 287.668156 
L 120.132888 284.786248 
L 121.30686 281.255514 
L 122.480831 276.980472 
L 123.36176 273.225143 
L 124.242688 268.954383 
L 126.004545 258.737087 
L 127.766401 246.215568 
L 129.272174 233.875602 
L 134.119924 192.143688 
L 135.34406 184.074865 
L 136.568196 178.1102 
L 137.180264 176.01622 
L 137.792333 174.538369 
L 138.404401 173.676509 
L 139.016469 173.417464 
L 139.632442 173.739337 
L 140.248416 174.613328 
L 140.864389 175.996181 
L 141.480363 177.841071 
L 142.764884 182.954566 
L 144.101979 189.67438 
L 146.107621 201.386102 
L 151.456002 234.013858 
L 153.461644 244.881454 
L 155.467287 254.572454 
L 157.472929 263.040321 
L 159.478572 270.319199 
L 161.484214 276.485588 
L 162.152762 278.309874 
L 163.490594 281.63484 
L 164.828426 284.548816 
L 166.166257 287.0782 
L 167.504089 289.246566 
L 168.841921 291.07381 
L 170.179753 292.575729 
L 171.517585 293.763586 
L 172.855417 294.643455 
L 174.193249 295.215403 
L 175.531081 295.472588 
L 176.868913 295.400194 
L 178.206745 294.974067 
L 179.544577 294.158996 
L 180.882409 292.906642 
L 182.220241 291.153231 
L 183.558073 288.817224 
L 184.895905 285.797476 
L 186.233737 281.972887 
L 187.299713 278.258508 
L 189.129353 270.275468 
L 190.656679 261.843902 
L 192.184004 251.677332 
L 193.71133 239.84337 
L 196.002318 219.849821 
L 198.696601 196.493674 
L 200.043742 186.80405 
L 201.390883 179.466321 
L 202.064454 176.840903 
L 202.738025 174.956128 
L 203.343531 173.900545 
L 203.949037 173.440633 
L 204.554543 173.556036 
L 205.160049 174.216955 
L 205.765555 175.386028 
L 206.371061 177.020138 
L 207.582073 181.493965 
L 208.793085 187.249713 
L 210.609603 197.473652 
L 217.875676 241.03776 
L 219.692194 250.266412 
L 221.508712 258.497385 
L 223.32523 265.730736 
L 225.149878 272.033684 
L 226.36902 275.738171 
L 227.588161 279.061592 
L 228.807303 282.025795 
L 230.026445 284.65175 
L 231.245586 286.959021 
L 232.464728 288.965368 
L 233.68387 290.68627 
L 234.903011 292.134431 
L 236.122153 293.319389 
L 237.341295 294.247184 
L 238.560436 294.919965 
L 239.779578 295.335482 
L 240.99872 295.486457 
L 242.217861 295.359822 
L 243.437003 294.935801 
L 244.656145 294.186795 
L 245.875286 293.076074 
L 247.094428 291.556314 
L 248.31357 289.568116 
L 249.532711 287.038742 
L 250.751853 283.881558 
L 251.970995 279.996949 
L 252.934039 276.343507 
L 253.897082 272.113457 
L 255.637 262.849956 
L 257.190749 252.686811 
L 258.744497 240.780508 
L 261.07512 220.522106 
L 263.787545 196.939676 
L 265.143758 187.107158 
L 266.499971 179.635586 
L 267.178077 176.953104 
L 267.856183 175.020364 
L 268.462895 173.934121 
L 269.069607 173.446609 
L 269.676318 173.537833 
L 270.28303 174.178193 
L 270.889742 175.330395 
L 271.496453 176.951249 
L 272.709877 181.408605 
L 273.9233 187.159334 
L 275.743435 197.391352 
L 283.023974 241.042408 
L 284.844109 250.288126 
L 286.664244 258.532105 
L 288.484379 265.774584 
L 290.310484 272.07625 
L 291.529878 275.777261 
L 292.749272 279.097283 
L 293.968666 282.058175 
L 295.188059 284.680911 
L 296.407453 286.985047 
L 297.626847 288.98833 
L 298.846241 290.70622 
L 300.065634 292.151391 
L 301.285028 293.33335 
L 302.504422 294.258093 
L 303.723816 294.927719 
L 304.94321 295.339915 
L 306.162603 295.487329 
L 307.381997 295.356801 
L 308.601391 294.928445 
L 309.820785 294.17453 
L 311.040178 293.058163 
L 312.259572 291.53183 
L 313.478966 289.535909 
L 314.69836 286.997416 
L 315.917753 283.829456 
L 317.137147 279.932172 
L 318.098415 276.275365 
L 319.059683 272.043116 
L 320.797367 262.774016 
L 322.3502 252.602302 
L 323.903033 240.690732 
L 326.232283 220.434872 
L 328.941582 196.886762 
L 330.296232 187.073643 
L 331.650882 179.618533 
L 332.328207 176.942304 
L 333.005532 175.014196 
L 333.612134 173.929873 
L 334.218737 173.444052 
L 334.82534 173.536721 
L 335.431943 174.178268 
L 336.038546 175.331397 
L 336.645148 176.952929 
L 337.858354 181.410968 
L 339.071559 187.161641 
L 340.891368 197.39263 
L 348.170601 241.037484 
L 349.990409 250.282276 
L 351.810218 258.525672 
L 353.630026 265.767877 
L 355.455966 272.070053 
L 356.675303 275.7716 
L 357.894639 279.092148 
L 359.113976 282.053558 
L 360.333313 284.676802 
L 361.55265 286.981439 
L 362.771987 288.985217 
L 363.991324 290.7036 
L 365.210661 292.149268 
L 366.429998 293.331732 
L 367.649334 294.256997 
L 368.868671 294.92717 
L 370.088008 295.339951 
L 371.307345 295.488 
L 372.526682 295.358175 
L 373.746019 294.930609 
L 374.965356 294.177595 
L 376.184693 293.06227 
L 377.40403 291.537156 
L 378.623366 289.54267 
L 379.842703 287.005873 
L 381.06204 283.839916 
L 382.281377 279.944982 
L 383.242976 276.288749 
L 384.204575 272.056837 
L 385.942665 262.788647 
L 387.495647 252.618427 
L 389.048629 240.707674 
L 391.378103 220.45094 
L 394.087961 196.895611 
L 395.442891 187.078436 
L 396.79782 179.619856 
L 397.475285 176.942286 
L 398.487273 174.341159 
L 398.487273 174.341159 
" clip-path="url(#pc4a9fdaf49)" style="fill: none; stroke: #ff7f0e; stroke-width: 1.5; stroke-linecap: square"/>
   </g>
   <g id="patch_3">
    <path d="M 57.6 307.584 
L 57.6 41.472 
" style="fill: none; stroke: #000000; stroke-width: 0.8; stroke-linejoin: miter; stroke-linecap: square"/>
   </g>
   <g id="patch_4">
    <path d="M 414.72 307.584 
L 414.72 41.472 
" style="fill: none; stroke: #000000; stroke-width: 0.8; stroke-linejoin: miter; stroke-linecap: square"/>
   </g>
   <g id="patch_5">
    <path d="M 57.6 307.584 
L 414.72 307.584 
" style="fill: none; stroke: #000000; stroke-width: 0.8; stroke-linejoin: miter; stroke-linecap: square"/>
   </g>
   <g id="patch_6">
    <path d="M 57.6 41.472 
L 414.72 41.472 
" style="fill: none; stroke: #000000; stroke-width: 0.8; stroke-linejoin: miter; stroke-linecap: square"/>
   </g>
  </g>
 </g>
 <defs>
  <clipPath id="pc4a9fdaf49">
   <rect x="57.6" y="41.472" width="357.12" height="266.112"/>
  </clipPath>
 </defs>
</svg>
