<?xml version="1.0" encoding="utf-8" standalone="no"?>
<!DOCTYPE svg PUBLIC "-//W3C//DTD SVG 1.1//EN"
  "http://www.w3.org/Graphics/SVG/1.1/DTD/svg11.dtd">
<svg xmlns:xlink="http://www.w3.org/1999/xlink" width="460.8pt" height="345.6pt" viewBox="0 0 460.8 345.6" xmlns="http://www.w3.org/2000/svg" version="1.1">
 <metadata>
  <rdf:RDF xmlns:dc="http://purl.org/dc/elements/1.1/" xmlns:cc="http://creativecommons.org/ns#" xmlns:rdf="http://www.w3.org/1999/02/22-rdf-syntax-ns#">
   <cc:Work>
    <dc:type rdf:resource="http://purl.org/dc/dcmitype/StillImage"/>
    <dc:date>2025-10-10T15:48:48.565674</dc:date>
    <dc:format>image/svg+xml</dc:format>
    <dc:creator>
     <cc:Agent>
      <dc:title>Matplotlib v3.10.7, https://matplotlib.org/</dc:title>
     </cc:Agent>
    </dc:creator>
   </cc:Work>
  </rdf:RDF>
 </metadata>
 <defs>
  <style type="text/css">*{stroke-linejoin: round; stroke-linecap: butt}</style>
 </defs>
 <g id="figure_1">
  <g id="patch_1">
   <path d="M 0 345.6 
L 460.8 345.6 
L 460.8 0 
L 0 0 
z
" style="fill: #ffffff"/>
  </g>
  <g id="axes_1">
   <g id="patch_2">
    <path d="M 57.6 307.584 
L 414.72 307.584 
L 414.72 41.472 
L 57.6 41.472 
z
" style="fill: #ffffff"/>
   </g>
   <g id="matplotlib.axis_1">
    <g id="xtick_1">
     <g id="line2d_1">
      <defs>
       <path id="m34820d476f" d="M 0 0 
L 0 3.5 
" style="stroke: #000000; stroke-width: 0.8"/>
      </defs>
      <g>
       <use xlink:href="#m34820d476f" x="73.820243" y="307.584" style="stroke: #000000; stroke-width: 0.8"/>
      </g>
     </g>
     <g id="text_1">
      <!-- 0 -->
      <g transform="translate(70.638993 322.182437) scale(0.1 -0.1)">
       <defs>
        <path id="DejaVuSans-30" d="M 2034 4250 
Q 1547 4250 1301 3770 
Q 1056 3291 1056 2328 
Q 1056 1369 1301 889 
Q 1547 409 2034 409 
Q 2525 409 2770 889 
Q 3016 1369 3016 2328 
Q 3016 3291 2770 3770 
Q 2525 4250 2034 4250 
z
M 2034 4750 
Q 2819 4750 3233 4129 
Q 3647 3509 3647 2328 
Q 3647 1150 3233 529 
Q 2819 -91 2034 -91 
Q 1250 -91 836 529 
Q 422 1150 422 2328 
Q 422 3509 836 4129 
Q 1250 4750 2034 4750 
z
" transform="scale(0.015625)"/>
       </defs>
       <use xlink:href="#DejaVuSans-30"/>
      </g>
     </g>
    </g>
    <g id="xtick_2">
     <g id="line2d_2">
      <g>
       <use xlink:href="#m34820d476f" x="137.992038" y="307.584" style="stroke: #000000; stroke-width: 0.8"/>
      </g>
     </g>
     <g id="text_2">
      <!-- 2 -->
      <g transform="translate(134.810788 322.182437) scale(0.1 -0.1)">
       <defs>
        <path id="DejaVuSans-32" d="M 1228 531 
L 3431 531 
L 3431 0 
L 469 0 
L 469 531 
Q 828 903 1448 1529 
Q 2069 2156 2228 2338 
Q 2531 2678 2651 2914 
Q 2772 3150 2772 3378 
Q 2772 3750 2511 3984 
Q 2250 4219 1831 4219 
Q 1534 4219 1204 4116 
Q 875 4013 500 3803 
L 500 4441 
Q 881 4594 1212 4672 
Q 1544 4750 1819 4750 
Q 2544 4750 2975 4387 
Q 3406 4025 3406 3419 
Q 3406 3131 3298 2873 
Q 3191 2616 2906 2266 
Q 2828 2175 2409 1742 
Q 1991 1309 1228 531 
z
" transform="scale(0.015625)"/>
       </defs>
       <use xlink:href="#DejaVuSans-32"/>
      </g>
     </g>
    </g>
    <g id="xtick_3">
     <g id="line2d_3">
      <g>
       <use xlink:href="#m34820d476f" x="202.163834" y="307.584" style="stroke: #000000; stroke-width: 0.8"/>
      </g>
     </g>
     <g id="text_3">
      <!-- 4 -->
      <g transform="translate(198.982584 322.182437) scale(0.1 -0.1)">
       <defs>
        <path id="DejaVuSans-34" d="M 2419 4116 
L 825 1625 
L 2419 1625 
L 2419 4116 
z
M 2253 4666 
L 3047 4666 
L 3047 1625 
L 3713 1625 
L 3713 1100 
L 3047 1100 
L 3047 0 
L 2419 0 
L 2419 1100 
L 313 1100 
L 313 1709 
L 2253 4666 
z
" transform="scale(0.015625)"/>
       </defs>
       <use xlink:href="#DejaVuSans-34"/>
      </g>
     </g>
    </g>
    <g id="xtick_4">
     <g id="line2d_4">
      <g>
       <use xlink:href="#m34820d476f" x="266.33563" y="307.584" style="stroke: #000000; stroke-width: 0.8"/>
      </g>
     </g>
     <g id="text_4">
      <!-- 6 -->
      <g transform="translate(263.15438 322.182437) scale(0.1 -0.1)">
       <defs>
        <path id="DejaVuSans-36" d="M 2113 2584 
Q 1688 2584 1439 2293 
Q 1191 2003 1191 1497 
Q 1191 994 1439 701 
Q 1688 409 2113 409 
Q 2538 409 2786 701 
Q 3034 994 3034 1497 
Q 3034 2003 2786 2293 
Q 2538 2584 2113 2584 
z
M 3366 4563 
L 3366 3988 
Q 3128 4100 2886 4159 
Q 2644 4219 2406 4219 
Q 1781 4219 1451 3797 
Q 1122 3375 1075 2522 
Q 1259 2794 1537 2939 
Q 1816 3084 2150 3084 
Q 2853 3084 3261 2657 
Q 3669 2231 3669 1497 
Q 3669 778 3244 343 
Q 2819 -91 2113 -91 
Q 1303 -91 875 529 
Q 447 1150 447 2328 
Q 447 3434 972 4092 
Q 1497 4750 2381 4750 
Q 2619 4750 2861 4703 
Q 3103 4656 3366 4563 
z
" transform="scale(0.015625)"/>
       </defs>
       <use xlink:href="#DejaVuSans-36"/>
      </g>
     </g>
    </g>
    <g id="xtick_5">
     <g id="line2d_5">
      <g>
       <use xlink:href="#m34820d476f" x="330.507425" y="307.584" style="stroke: #000000; stroke-width: 0.8"/>
      </g>
     </g>
     <g id="text_5">
      <!-- 8 -->
      <g transform="translate(327.326175 322.182437) scale(0.1 -0.1)">
       <defs>
        <path id="DejaVuSans-38" d="M 2034 2216 
Q 1584 2216 1326 1975 
Q 1069 1734 1069 1313 
Q 1069 891 1326 650 
Q 1584 409 2034 409 
Q 2484 409 2743 651 
Q 3003 894 3003 1313 
Q 3003 1734 2745 1975 
Q 2488 2216 2034 2216 
z
M 1403 2484 
Q 997 2584 770 2862 
Q 544 3141 544 3541 
Q 544 4100 942 4425 
Q 1341 4750 2034 4750 
Q 2731 4750 3128 4425 
Q 3525 4100 3525 3541 
Q 3525 3141 3298 2862 
Q 3072 2584 2669 2484 
Q 3125 2378 3379 2068 
Q 3634 1759 3634 1313 
Q 3634 634 3220 271 
Q 2806 -91 2034 -91 
Q 1263 -91 848 271 
Q 434 634 434 1313 
Q 434 1759 690 2068 
Q 947 2378 1403 2484 
z
M 1172 3481 
Q 1172 3119 1398 2916 
Q 1625 2713 2034 2713 
Q 2441 2713 2670 2916 
Q 2900 3119 2900 3481 
Q 2900 3844 2670 4047 
Q 2441 4250 2034 4250 
Q 1625 4250 1398 4047 
Q 1172 3844 1172 3481 
z
" transform="scale(0.015625)"/>
       </defs>
       <use xlink:href="#DejaVuSans-38"/>
      </g>
     </g>
    </g>
    <g id="xtick_6">
     <g id="line2d_6">
      <g>
       <use xlink:href="#m34820d476f" x="394.679221" y="307.584" style="stroke: #000000; stroke-width: 0.8"/>
      </g>
     </g>
     <g id="text_6">
      <!-- 10 -->
      <g transform="translate(388.316721 322.182437) scale(0.1 -0.1)">
       <defs>
        <path id="DejaVuSans-31" d="M 794 531 
L 1825 531 
L 1825 4091 
L 703 3866 
L 703 4441 
L 1819 4666 
L 2450 4666 
L 2450 531 
L 3481 531 
L 3481 0 
L 794 0 
L 794 531 
z
" transform="scale(0.015625)"/>
       </defs>
       <use xlink:href="#DejaVuSans-31"/>
       <use xlink:href="#DejaVuSans-30" transform="translate(63.623047 0)"/>
      </g>
     </g>
    </g>
    <g id="text_7">
     <!-- prey -->
     <g transform="translate(225.006875 335.860562) scale(0.1 -0.1)">
      <defs>
       <path id="DejaVuSans-70" d="M 1159 525 
L 1159 -1331 
L 581 -1331 
L 581 3500 
L 1159 3500 
L 1159 2969 
Q 1341 3281 1617 3432 
Q 1894 3584 2278 3584 
Q 2916 3584 3314 3078 
Q 3713 2572 3713 1747 
Q 3713 922 3314 415 
Q 2916 -91 2278 -91 
Q 1894 -91 1617 61 
Q 1341 213 1159 525 
z
M 3116 1747 
Q 3116 2381 2855 2742 
Q 2594 3103 2138 3103 
Q 1681 3103 1420 2742 
Q 1159 2381 1159 1747 
Q 1159 1113 1420 752 
Q 1681 391 2138 391 
Q 2594 391 2855 752 
Q 3116 1113 3116 1747 
z
" transform="scale(0.015625)"/>
       <path id="DejaVuSans-72" d="M 2631 2963 
Q 2534 3019 2420 3045 
Q 2306 3072 2169 3072 
Q 1681 3072 1420 2755 
Q 1159 2438 1159 1844 
L 1159 0 
L 581 0 
L 581 3500 
L 1159 3500 
L 1159 2956 
Q 1341 3275 1631 3429 
Q 1922 3584 2338 3584 
Q 2397 3584 2469 3576 
Q 2541 3569 2628 3553 
L 2631 2963 
z
" transform="scale(0.015625)"/>
       <path id="DejaVuSans-65" d="M 3597 1894 
L 3597 1613 
L 953 1613 
Q 991 1019 1311 708 
Q 1631 397 2203 397 
Q 2534 397 2845 478 
Q 3156 559 3463 722 
L 3463 178 
Q 3153 47 2828 -22 
Q 2503 -91 2169 -91 
Q 1331 -91 842 396 
Q 353 884 353 1716 
Q 353 2575 817 3079 
Q 1281 3584 2069 3584 
Q 2775 3584 3186 3129 
Q 3597 2675 3597 1894 
z
M 3022 2063 
Q 3016 2534 2758 2815 
Q 2500 3097 2075 3097 
Q 1594 3097 1305 2825 
Q 1016 2553 972 2059 
L 3022 2063 
z
" transform="scale(0.015625)"/>
       <path id="DejaVuSans-79" d="M 2059 -325 
Q 1816 -950 1584 -1140 
Q 1353 -1331 966 -1331 
L 506 -1331 
L 506 -850 
L 844 -850 
Q 1081 -850 1212 -737 
Q 1344 -625 1503 -206 
L 1606 56 
L 191 3500 
L 800 3500 
L 1894 763 
L 2988 3500 
L 3597 3500 
L 2059 -325 
z
" transform="scale(0.015625)"/>
      </defs>
      <use xlink:href="#DejaVuSans-70"/>
      <use xlink:href="#DejaVuSans-72" transform="translate(63.476562 0)"/>
      <use xlink:href="#DejaVuSans-65" transform="translate(102.339844 0)"/>
      <use xlink:href="#DejaVuSans-79" transform="translate(163.863281 0)"/>
     </g>
    </g>
   </g>
   <g id="matplotlib.axis_2">
    <g id="ytick_1">
     <g id="line2d_7">
      <defs>
       <path id="m7270b2e099" d="M 0 0 
L -3.5 0 
" style="stroke: #000000; stroke-width: 0.8"/>
      </defs>
      <g>
       <use xlink:href="#m7270b2e099" x="57.6" y="295.488223" style="stroke: #000000; stroke-width: 0.8"/>
      </g>
     </g>
     <g id="text_8">
      <!-- 0 -->
      <g transform="translate(44.2375 299.287441) scale(0.1 -0.1)">
       <use xlink:href="#DejaVuSans-30"/>
      </g>
     </g>
    </g>
    <g id="ytick_2">
     <g id="line2d_8">
      <g>
       <use xlink:href="#m7270b2e099" x="57.6" y="260.717462" style="stroke: #000000; stroke-width: 0.8"/>
      </g>
     </g>
     <g id="text_9">
      <!-- 1 -->
      <g transform="translate(44.2375 264.51668) scale(0.1 -0.1)">
       <use xlink:href="#DejaVuSans-31"/>
      </g>
     </g>
    </g>
    <g id="ytick_3">
     <g id="line2d_9">
      <g>
       <use xlink:href="#m7270b2e099" x="57.6" y="225.9467" style="stroke: #000000; stroke-width: 0.8"/>
      </g>
     </g>
     <g id="text_10">
      <!-- 2 -->
      <g transform="translate(44.2375 229.745919) scale(0.1 -0.1)">
       <use xlink:href="#DejaVuSans-32"/>
      </g>
     </g>
    </g>
    <g id="ytick_4">
     <g id="line2d_10">
      <g>
       <use xlink:href="#m7270b2e099" x="57.6" y="191.175939" style="stroke: #000000; stroke-width: 0.8"/>
      </g>
     </g>
     <g id="text_11">
      <!-- 3 -->
      <g transform="translate(44.2375 194.975158) scale(0.1 -0.1)">
       <defs>
        <path id="DejaVuSans-33" d="M 2597 2516 
Q 3050 2419 3304 2112 
Q 3559 1806 3559 1356 
Q 3559 666 3084 287 
Q 2609 -91 1734 -91 
Q 1441 -91 1130 -33 
Q 819 25 488 141 
L 488 750 
Q 750 597 1062 519 
Q 1375 441 1716 441 
Q 2309 441 2620 675 
Q 2931 909 2931 1356 
Q 2931 1769 2642 2001 
Q 2353 2234 1838 2234 
L 1294 2234 
L 1294 2753 
L 1863 2753 
Q 2328 2753 2575 2939 
Q 2822 3125 2822 3475 
Q 2822 3834 2567 4026 
Q 2313 4219 1838 4219 
Q 1578 4219 1281 4162 
Q 984 4106 628 3988 
L 628 4550 
Q 988 4650 1302 4700 
Q 1616 4750 1894 4750 
Q 2613 4750 3031 4423 
Q 3450 4097 3450 3541 
Q 3450 3153 3228 2886 
Q 3006 2619 2597 2516 
z
" transform="scale(0.015625)"/>
       </defs>
       <use xlink:href="#DejaVuSans-33"/>
      </g>
     </g>
    </g>
    <g id="ytick_5">
     <g id="line2d_11">
      <g>
       <use xlink:href="#m7270b2e099" x="57.6" y="156.405178" style="stroke: #000000; stroke-width: 0.8"/>
      </g>
     </g>
     <g id="text_12">
      <!-- 4 -->
      <g transform="translate(44.2375 160.204397) scale(0.1 -0.1)">
       <use xlink:href="#DejaVuSans-34"/>
      </g>
     </g>
    </g>
    <g id="ytick_6">
     <g id="line2d_12">
      <g>
       <use xlink:href="#m7270b2e099" x="57.6" y="121.634417" style="stroke: #000000; stroke-width: 0.8"/>
      </g>
     </g>
     <g id="text_13">
      <!-- 5 -->
      <g transform="translate(44.2375 125.433636) scale(0.1 -0.1)">
       <defs>
        <path id="DejaVuSans-35" d="M 691 4666 
L 3169 4666 
L 3169 4134 
L 1269 4134 
L 1269 2991 
Q 1406 3038 1543 3061 
Q 1681 3084 1819 3084 
Q 2600 3084 3056 2656 
Q 3513 2228 3513 1497 
Q 3513 744 3044 326 
Q 2575 -91 1722 -91 
Q 1428 -91 1123 -41 
Q 819 9 494 109 
L 494 744 
Q 775 591 1075 516 
Q 1375 441 1709 441 
Q 2250 441 2565 725 
Q 2881 1009 2881 1497 
Q 2881 1984 2565 2268 
Q 2250 2553 1709 2553 
Q 1456 2553 1204 2497 
Q 953 2441 691 2322 
L 691 4666 
z
" transform="scale(0.015625)"/>
       </defs>
       <use xlink:href="#DejaVuSans-35"/>
      </g>
     </g>
    </g>
    <g id="ytick_7">
     <g id="line2d_13">
      <g>
       <use xlink:href="#m7270b2e099" x="57.6" y="86.863656" style="stroke: #000000; stroke-width: 0.8"/>
      </g>
     </g>
     <g id="text_14">
      <!-- 6 -->
      <g transform="translate(44.2375 90.662874) scale(0.1 -0.1)">
       <use xlink:href="#DejaVuSans-36"/>
      </g>
     </g>
    </g>
    <g id="ytick_8">
     <g id="line2d_14">
      <g>
       <use xlink:href="#m7270b2e099" x="57.6" y="52.092894" style="stroke: #000000; stroke-width: 0.8"/>
      </g>
     </g>
     <g id="text_15">
      <!-- 7 -->
      <g transform="translate(44.2375 55.892113) scale(0.1 -0.1)">
       <defs>
        <path id="DejaVuSans-37" d="M 525 4666 
L 3525 4666 
L 3525 4397 
L 1831 0 
L 1172 0 
L 2766 4134 
L 525 4134 
L 525 4666 
z
" transform="scale(0.015625)"/>
       </defs>
       <use xlink:href="#DejaVuSans-37"/>
      </g>
     </g>
    </g>
    <g id="text_16">
     <!-- predator -->
     <g transform="translate(38.157812 196.035031) rotate(-90) scale(0.1 -0.1)">
      <defs>
       <path id="DejaVuSans-64" d="M 2906 2969 
L 2906 4863 
L 3481 4863 
L 3481 0 
L 2906 0 
L 2906 525 
Q 2725 213 2448 61 
Q 2172 -91 1784 -91 
Q 1150 -91 751 415 
Q 353 922 353 1747 
Q 353 2572 751 3078 
Q 1150 3584 1784 3584 
Q 2172 3584 2448 3432 
Q 2725 3281 2906 2969 
z
M 947 1747 
Q 947 1113 1208 752 
Q 1469 391 1925 391 
Q 2381 391 2643 752 
Q 2906 1113 2906 1747 
Q 2906 2381 2643 2742 
Q 2381 3103 1925 3103 
Q 1469 3103 1208 2742 
Q 947 2381 947 1747 
z
" transform="scale(0.015625)"/>
       <path id="DejaVuSans-61" d="M 2194 1759 
Q 1497 1759 1228 1600 
Q 959 1441 959 1056 
Q 959 750 1161 570 
Q 1363 391 1709 391 
Q 2188 391 2477 730 
Q 2766 1069 2766 1631 
L 2766 1759 
L 2194 1759 
z
M 3341 1997 
L 3341 0 
L 2766 0 
L 2766 531 
Q 2569 213 2275 61 
Q 1981 -91 1556 -91 
Q 1019 -91 701 211 
Q 384 513 384 1019 
Q 384 1609 779 1909 
Q 1175 2209 1959 2209 
L 2766 2209 
L 2766 2266 
Q 2766 2663 2505 2880 
Q 2244 3097 1772 3097 
Q 1472 3097 1187 3025 
Q 903 2953 641 2809 
L 641 3341 
Q 956 3463 1253 3523 
Q 1550 3584 1831 3584 
Q 2591 3584 2966 3190 
Q 3341 2797 3341 1997 
z
" transform="scale(0.015625)"/>
       <path id="DejaVuSans-74" d="M 1172 4494 
L 1172 3500 
L 2356 3500 
L 2356 3053 
L 1172 3053 
L 1172 1153 
Q 1172 725 1289 603 
Q 1406 481 1766 481 
L 2356 481 
L 2356 0 
L 1766 0 
Q 1100 0 847 248 
Q 594 497 594 1153 
L 594 3053 
L 172 3053 
L 172 3500 
L 594 3500 
L 594 4494 
L 1172 4494 
z
" transform="scale(0.015625)"/>
       <path id="DejaVuSans-6f" d="M 1959 3097 
Q 1497 3097 1228 2736 
Q 959 2375 959 1747 
Q 959 1119 1226 758 
Q 1494 397 1959 397 
Q 2419 397 2687 759 
Q 2956 1122 2956 1747 
Q 2956 2369 2687 2733 
Q 2419 3097 1959 3097 
z
M 1959 3584 
Q 2709 3584 3137 3096 
Q 3566 2609 3566 1747 
Q 3566 888 3137 398 
Q 2709 -91 1959 -91 
Q 1206 -91 779 398 
Q 353 888 353 1747 
Q 353 2609 779 3096 
Q 1206 3584 1959 3584 
z
" transform="scale(0.015625)"/>
      </defs>
      <use xlink:href="#DejaVuSans-70"/>
      <use xlink:href="#DejaVuSans-72" transform="translate(63.476562 0)"/>
      <use xlink:href="#DejaVuSans-65" transform="translate(102.339844 0)"/>
      <use xlink:href="#DejaVuSans-64" transform="translate(163.863281 0)"/>
      <use xlink:href="#DejaVuSans-61" transform="translate(227.339844 0)"/>
      <use xlink:href="#DejaVuSans-74" transform="translate(288.619141 0)"/>
      <use xlink:href="#DejaVuSans-6f" transform="translate(327.828125 0)"/>
      <use xlink:href="#DejaVuSans-72" transform="translate(389.009766 0)"/>
     </g>
    </g>
   </g>
   <g id="line2d_15">
    <path d="M 105.906141 260.717462 
L 104.104957 260.802958 
L 102.507456 261.033962 
L 100.686016 261.502075 
L 98.982943 262.171748 
L 96.96038 263.326204 
L 95.247989 264.696132 
L 93.819541 266.211758 
L 92.645977 267.812436 
L 91.69861 269.447939 
L 90.950974 271.078378 
L 90.153837 273.450178 
L 89.689685 275.674105 
L 89.507627 278.389343 
L 89.768507 280.726557 
L 90.049161 281.75416 
L 90.424976 282.691303 
L 90.893906 283.541758 
L 91.455015 284.309762 
L 92.108315 284.999727 
L 92.854604 285.616018 
L 94.632361 286.643936 
L 96.804759 287.42257 
L 99.391355 287.973255 
L 102.408825 288.307265 
L 105.86249 288.423289 
L 109.733591 288.303896 
L 113.959904 287.910346 
L 118.407069 287.175368 
L 120.642235 286.648931 
L 122.829132 285.994809 
L 124.911995 285.19342 
L 126.822847 284.223091 
L 128.096289 283.370724 
L 129.190154 282.401367 
L 130.063999 281.307048 
L 130.676601 280.082294 
L 130.987981 278.725455 
L 130.962075 277.240219 
L 130.650828 275.87703 
L 130.060069 274.439353 
L 129.185423 272.94403 
L 128.031337 271.413207 
L 126.611799 269.874011 
L 124.950296 268.357667 
L 123.442979 267.16497 
L 121.818021 266.028671 
L 120.09894 264.967241 
L 118.31052 263.997872 
L 116.477937 263.135818 
L 114.625935 262.393894 
L 112.777932 261.781987 
L 110.955203 261.306705 
L 109.176313 260.97127 
L 107.45683 260.775649 
L 105.809244 260.716852 
L 104.23342 260.789909 
L 102.746461 260.988283 
L 101.352834 261.302157 
L 100.054398 261.720901 
L 98.851188 262.233095 
L 97.651673 262.881538 
L 96.558682 263.610623 
L 94.675276 265.256054 
L 93.158551 267.06504 
L 91.963429 268.950741 
L 91.047104 270.844809 
L 90.372136 272.696678 
L 89.90705 274.470733 
L 89.548654 276.937408 
L 89.542309 279.137026 
L 89.845873 281.059022 
L 90.207383 282.189477 
L 90.690954 283.204731 
L 91.294459 284.110764 
L 91.640996 284.524832 
L 92.424507 285.279517 
L 93.329517 285.940918 
L 94.358543 286.515025 
L 95.514787 287.007191 
L 96.801849 287.42193 
L 99.782941 288.032442 
L 103.325322 288.361969 
L 107.430524 288.403912 
L 112.051059 288.122191 
L 117.047218 287.439956 
L 119.601692 286.909741 
L 122.121802 286.224333 
L 124.531793 285.356245 
L 126.310073 284.513173 
L 127.900221 283.517463 
L 128.887768 282.701221 
L 129.719114 281.792657 
L 130.36734 280.787464 
L 130.80577 279.68319 
L 131.009065 278.479905 
L 130.954577 277.180968 
L 130.624082 275.793888 
L 130.005639 274.331123 
L 129.095297 272.810603 
L 127.898422 271.255848 
L 126.61688 269.878774 
L 125.141418 268.519863 
L 123.494969 267.203472 
L 121.705174 265.95458 
L 119.803171 264.797616 
L 117.822168 263.755276 
L 115.795836 262.847365 
L 113.756721 262.089793 
L 111.734876 261.493888 
L 109.756816 261.066091 
L 108.034588 260.826499 
L 106.378913 260.722111 
L 104.799901 260.748305 
L 103.304923 260.898317 
L 101.898831 261.163667 
L 100.584217 261.53457 
L 98.230631 262.550018 
L 96.233286 263.85643 
L 94.566755 265.36835 
L 93.198772 267.009264 
L 92.095608 268.71471 
L 91.225261 270.432967 
L 90.559115 272.124328 
L 89.890132 274.549622 
L 89.560239 276.787808 
L 89.521626 278.807817 
L 89.741459 280.599991 
L 90.198744 282.168068 
L 90.632607 283.100293 
L 91.166268 283.941119 
L 91.799244 284.695454 
L 92.532041 285.368254 
L 93.36596 285.964281 
L 95.345399 286.943366 
L 97.757727 287.662664 
L 100.624485 288.142207 
L 103.960427 288.389224 
L 107.761471 288.394748 
L 111.986073 288.1285 
L 116.526726 287.531446 
L 118.854009 287.080174 
L 121.168482 286.506069 
L 123.417682 285.789467 
L 125.535697 284.907756 
L 127.064002 284.078516 
L 128.415062 283.118399 
L 129.538487 282.015683 
L 130.242842 281.015814 
L 130.73613 279.913824 
L 130.99105 278.709031 
L 130.983087 277.404234 
L 130.692243 276.006595 
L 130.104845 274.528404 
L 129.215417 272.987681 
L 128.028295 271.408439 
L 126.760191 270.021469 
L 125.293453 268.650435 
L 123.650939 267.32006 
L 121.860435 266.055812 
L 119.953449 264.8827 
L 117.963755 263.824074 
L 115.925735 262.900402 
L 113.872724 262.128212 
L 111.835571 261.519355 
L 109.841544 261.080671 
L 108.11299 260.83412 
L 106.450715 260.723467 
L 104.865019 260.744173 
L 103.363436 260.889519 
L 101.950946 261.15104 
L 100.630242 261.518934 
L 99.402077 261.982512 
L 97.218932 263.152115 
L 95.382371 264.571446 
L 93.862648 266.158331 
L 92.626058 267.841494 
L 91.63923 269.562386 
L 90.871509 271.275068 
L 90.073228 273.755967 
L 89.635409 276.06604 
L 89.504179 278.164589 
L 89.641873 280.035768 
L 90.023763 281.679632 
L 90.637581 283.109954 
L 91.172438 283.949992 
L 91.806652 284.703555 
L 92.540739 285.375604 
L 93.376008 285.9709 
L 95.358361 286.948577 
L 97.773918 287.666514 
L 100.644221 288.144683 
L 103.98396 288.39023 
L 107.788878 288.394063 
L 112.017074 288.125716 
L 116.560389 287.525889 
L 118.888337 287.072864 
L 121.202795 286.496689 
L 123.451078 285.777641 
L 125.567022 284.893054 
L 127.089742 284.063049 
L 128.43503 283.102433 
L 129.552704 281.999569 
L 130.253366 280.998577 
L 130.742743 279.895549 
L 130.993612 278.68985 
L 130.981553 277.384333 
L 130.686682 275.986218 
L 130.095454 274.507853 
L 129.202531 272.96731 
L 128.012376 271.38864 
L 126.742865 270.003278 
L 125.275427 268.634125 
L 123.632914 267.305839 
L 121.843067 266.043802 
L 119.937317 264.872928 
L 117.949337 263.816466 
L 115.913388 262.89479 
L 113.862683 262.124341 
L 111.827947 261.516903 
L 109.836338 261.079271 
L 108.10822 260.833156 
L 106.446395 260.722887 
L 104.86115 260.74392 
L 103.360007 260.889536 
L 101.947939 261.151267 
L 100.627631 261.519315 
L 99.399832 261.982995 
L 97.217324 263.152664 
L 95.38127 264.571915 
L 93.861932 266.158621 
L 92.62562 267.841548 
L 91.638979 269.562179 
L 90.87137 271.274598 
L 90.073145 273.75514 
L 89.635273 276.064923 
L 89.503901 278.163261 
L 89.641378 280.034308 
L 90.022978 281.678109 
L 90.636496 283.108547 
L 91.171159 283.948707 
L 91.805169 284.702389 
L 92.539041 285.374556 
L 93.374084 285.969967 
L 95.355941 286.947871 
L 97.770943 287.666032 
L 100.640635 288.144434 
L 103.97972 288.390238 
L 107.783975 288.394374 
L 112.01157 288.126412 
L 116.554468 287.527098 
L 118.882338 287.074399 
L 121.196846 286.498609 
L 123.445352 285.780015 
L 125.561737 284.895961 
L 127.085553 284.066087 
L 128.431968 283.105548 
L 129.55076 282.002688 
L 130.252132 281.001898 
L 130.742259 279.899053 
L 130.993901 278.69351 
L 130.982622 277.38811 
L 130.688513 275.990064 
L 130.098006 274.511706 
L 129.205735 272.971099 
L 128.016139 271.392287 
L 126.746871 270.006583 
L 125.279536 268.637033 
L 123.636987 267.30831 
L 121.846975 266.04581 
L 119.940947 264.874469 
L 117.952593 263.817554 
L 115.916202 262.895459 
L 113.865008 262.124641 
L 111.829761 261.516899 
L 108.877334 260.926508 
L 108.877334 260.926508 
" clip-path="url(#p80df6fa295)" style="fill: none; stroke: #1f77b4; stroke-width: 1.5; stroke-linecap: square"/>
   </g>
   <g id="line2d_16">
    <path d="M 137.992038 225.9467 
L 133.318826 223.525244 
L 129.044263 221.516705 
L 124.014103 219.436935 
L 122.406382 218.844238 
L 119.151048 217.763533 
L 116.066205 216.902645 
L 113.156918 216.256331 
L 110.425003 215.81682 
L 107.869436 215.574248 
L 104.938223 215.530353 
L 102.262452 215.747538 
L 99.829624 216.201453 
L 97.623991 216.866046 
L 95.629155 217.716138 
L 93.828335 218.727491 
L 92.204838 219.877144 
L 90.742497 221.143722 
L 89.425995 222.50764 
L 88.241035 223.951151 
L 87.1744 225.458297 
L 86.060956 227.282409 
L 85.075487 229.154181 
L 83.42766 232.974434 
L 82.001994 237.2296 
L 80.803695 241.808448 
L 79.891862 246.200133 
L 78.905458 252.331251 
L 78.235014 257.854069 
L 77.661284 264.264988 
L 77.271867 270.864392 
L 77.105299 277.020664 
L 77.139654 281.019026 
L 77.347888 284.690868 
L 77.721479 287.406904 
L 78.263441 289.411458 
L 78.726626 290.445789 
L 79.280714 291.289582 
L 79.936342 291.977778 
L 80.70649 292.538923 
L 82.111022 293.192073 
L 83.872731 293.671564 
L 85.284553 293.917169 
L 88.834403 294.276079 
L 93.578836 294.498697 
L 103.793423 294.64141 
L 117.944794 294.565496 
L 130.478298 294.333204 
L 142.892997 293.917832 
L 151.177435 293.487631 
L 160.113781 292.806648 
L 167.021977 292.039127 
L 173.981109 290.91576 
L 177.38545 290.163653 
L 180.666001 289.242313 
L 183.748142 288.110375 
L 186.537841 286.717112 
L 188.918646 285.001472 
L 190.406954 283.387982 
L 191.48116 281.495519 
L 191.948847 279.945814 
L 192.126071 278.217428 
L 191.97845 276.296282 
L 191.471988 274.169833 
L 190.574401 271.828082 
L 189.256647 269.264658 
L 187.494928 266.478179 
L 185.272931 263.473711 
L 182.584036 260.264094 
L 179.433295 256.870998 
L 175.838962 253.325548 
L 172.259564 250.045163 
L 168.381351 246.709992 
L 164.245879 243.360373 
L 159.901744 240.040009 
L 155.402837 236.794339 
L 150.80624 233.668732 
L 146.169834 230.706539 
L 141.549855 227.947212 
L 136.998677 225.424723 
L 132.563016 223.166415 
L 128.282653 221.192324 
L 124.628058 219.684088 
L 121.139516 218.415207 
L 117.829497 217.385356 
L 114.706049 216.590512 
L 111.773187 216.023459 
L 109.031343 215.674295 
L 106.477937 215.531029 
L 104.108005 215.5802 
L 101.914754 215.807403 
L 99.89005 216.197731 
L 98.024826 216.736139 
L 96.309461 217.407758 
L 94.734087 218.198146 
L 93.288841 219.093477 
L 91.964043 220.080665 
L 90.750339 221.14745 
L 88.620979 223.475129 
L 87.688968 224.715906 
L 86.520376 226.507276 
L 85.485891 228.354054 
L 83.756238 232.143794 
L 82.297463 236.269152 
L 81.088619 240.627793 
L 80.15678 244.835902 
L 79.133356 250.760474 
L 78.42451 256.151693 
L 77.802361 262.482561 
L 77.357876 269.09424 
L 77.129434 275.368038 
L 77.156351 281.507211 
L 77.362818 284.834408 
L 77.71159 287.348353 
L 78.205355 289.244233 
L 78.857894 290.672504 
L 79.692116 291.74787 
L 80.739646 292.557149 
L 81.577874 292.982538 
L 83.65475 293.623892 
L 86.39144 294.058327 
L 89.979455 294.346962 
L 94.667004 294.528612 
L 104.478024 294.642585 
L 117.25716 294.573253 
L 131.049053 294.31812 
L 144.380356 293.850635 
L 153.67194 293.323333 
L 160.565484 292.762137 
L 167.70103 291.945725 
L 171.2975 291.400773 
L 174.862645 290.733745 
L 178.343626 289.913777 
L 181.671804 288.902039 
L 184.759139 287.650141 
L 187.49453 286.09871 
L 189.163668 284.763034 
L 190.522771 283.207371 
L 191.505038 281.39927 
L 192.037525 279.304997 
L 192.091612 277.455089 
L 191.789061 275.396697 
L 191.093528 273.117123 
L 189.97147 270.60716 
L 188.394096 267.862429 
L 186.339545 264.884812 
L 183.795406 261.684016 
L 180.761216 258.27903 
L 177.250529 254.699129 
L 173.292222 250.984181 
L 169.638957 247.783223 
L 165.733759 244.556465 
L 161.618253 241.342236 
L 157.339088 238.18079 
L 152.946316 235.112867 
L 148.491615 232.178226 
L 144.026276 229.41405 
L 139.59919 226.853451 
L 135.255126 224.524283 
L 131.033437 222.448375 
L 126.967199 220.641153 
L 123.082758 219.111619 
L 119.569087 217.915318 
L 116.248913 216.971279 
L 113.129779 216.273577 
L 110.213827 215.812681 
L 107.499674 215.576447 
L 104.762251 215.559124 
L 102.250477 215.771686 
L 99.954153 216.194155 
L 97.860029 216.80463 
L 95.954502 217.582074 
L 94.223613 218.506141 
L 92.653348 219.557389 
L 91.230028 220.717574 
L 89.940615 221.969859 
L 88.772853 223.298865 
L 86.757422 226.132543 
L 85.607712 228.134305 
L 84.600098 230.182757 
L 82.938658 234.341697 
L 81.533159 238.915413 
L 80.376775 243.771727 
L 79.511826 248.381331 
L 78.59508 254.73546 
L 77.836068 262.097227 
L 77.333274 269.604822 
L 77.113103 276.494026 
L 77.160362 281.583974 
L 77.414922 285.32595 
L 77.859205 288.03243 
L 78.264211 289.404036 
L 78.764247 290.506917 
L 79.3697 291.393415 
L 80.094003 292.105804 
L 80.95371 292.678088 
L 81.968741 293.137546 
L 83.835357 293.661676 
L 86.203619 294.035798 
L 89.19722 294.299038 
L 94.434333 294.522018 
L 103.672334 294.640091 
L 117.080031 294.574865 
L 131.854436 294.296568 
L 145.123058 293.81543 
L 154.270266 293.280697 
L 161.870377 292.633038 
L 169.72159 291.651962 
L 173.647908 290.976239 
L 177.496339 290.130232 
L 180.538291 289.27522 
L 183.412299 288.240536 
L 186.044591 286.986288 
L 188.344885 285.46494 
L 190.204966 283.621219 
L 191.211939 282.039597 
L 191.864085 280.228347 
L 192.103143 278.161448 
L 191.86922 275.814282 
L 191.294484 273.69831 
L 190.342786 271.37659 
L 188.987968 268.843935 
L 187.209177 266.100056 
L 184.992671 263.150699 
L 182.333538 260.008652 
L 179.237439 256.694655 
L 175.722013 253.237988 
L 171.817613 249.676477 
L 167.735123 246.19502 
L 160.701829 240.657425 
L 153.215492 235.30271 
L 149.383393 232.758364 
L 145.085872 230.060183 
L 140.814379 227.544414 
L 136.608247 225.235817 
L 132.504714 223.156015 
L 128.534984 221.320508 
L 124.724605 219.739288 
L 121.093456 218.417107 
L 117.278714 217.249098 
L 113.715076 216.39507 
L 111.32629 215.971078 
L 109.068185 215.695027 
L 106.939166 215.560047 
L 104.936578 215.558634 
L 103.056898 215.68285 
L 100.764874 216.023642 
L 98.666422 216.54754 
L 96.749709 217.235537 
L 95.001919 218.068667 
L 93.410401 219.029018 
L 91.962672 220.099619 
L 90.64662 221.264566 
L 89.45072 222.509174 
L 87.376933 225.185063 
L 86.225617 227.024656 
L 85.208421 228.9162 
L 83.51215 232.784507 
L 82.072257 237.025298 
L 80.876528 241.529383 
L 79.962664 245.857284 
L 78.969006 251.914328 
L 78.289366 257.387259 
L 77.702879 263.763089 
L 77.297997 270.356266 
L 77.113218 276.540198 
L 77.17536 281.958439 
L 77.417722 285.344391 
L 77.819984 287.858233 
L 78.388446 289.721062 
L 78.868938 290.68569 
L 79.440365 291.474859 
L 80.113492 292.12034 
L 80.901332 292.648146 
L 82.332604 293.264575 
L 84.120722 293.718886 
L 87.212053 294.14233 
L 91.330411 294.413842 
L 96.79637 294.573745 
L 108.45984 294.639291 
L 121.936881 294.50692 
L 135.446863 294.191703 
L 147.03938 293.719174 
L 155.652444 293.177908 
L 163.612797 292.446437 
L 170.566551 291.516576 
L 174.02962 290.898185 
L 177.426367 290.143612 
L 180.698201 289.219466 
L 183.770443 288.084381 
L 186.549049 286.687655 
L 188.917637 284.968321 
L 190.392169 283.356723 
L 191.454715 281.467874 
L 191.916976 279.916554 
L 192.088706 278.186643 
L 191.935614 276.264128 
L 191.423817 274.136537 
L 190.521161 271.793953 
L 189.198755 269.230098 
L 187.432966 266.443685 
L 185.207647 263.439873 
L 182.516345 260.231581 
L 179.364253 256.840539 
L 175.769737 253.297896 
L 172.191835 250.021212 
L 168.316206 246.690313 
L 164.184347 243.345445 
L 159.844746 240.030186 
L 155.633586 236.987993 
L 155.633586 236.987993 
" clip-path="url(#p80df6fa295)" style="fill: none; stroke: #ff7f0e; stroke-width: 1.5; stroke-linecap: square"/>
   </g>
   <g id="line2d_17">
    <path d="M 170.077936 191.175939 
L 162.413146 186.318993 
L 155.393976 182.108838 
L 147.131997 177.48347 
L 141.914777 174.773596 
L 136.71064 172.258666 
L 131.800711 170.08361 
L 127.192612 168.24476 
L 122.888333 166.733918 
L 118.88494 165.539035 
L 114.777006 164.563447 
L 111.017485 163.93543 
L 107.59014 163.630588 
L 104.474392 163.62144 
L 101.649034 163.880959 
L 99.092296 164.382498 
L 96.782361 165.100197 
L 94.697933 166.009425 
L 92.81867 167.087109 
L 91.125415 168.311875 
L 89.600286 169.664054 
L 88.226721 171.125667 
L 86.71959 173.053975 
L 85.394226 175.09675 
L 84.227683 177.230123 
L 83.199901 179.433411 
L 82.293272 181.688758 
L 81.357446 184.398261 
L 79.845305 189.889985 
L 78.702204 195.374636 
L 77.829321 200.764297 
L 76.877452 208.550842 
L 76.217644 215.887549 
L 75.625372 224.893553 
L 75.094807 236.728601 
L 74.694265 251.12722 
L 74.437971 268.816513 
L 74.41757 283.324968 
L 74.566802 289.254415 
L 74.791189 291.824542 
L 75.136652 293.324679 
L 75.501911 294.024065 
L 75.988033 294.492004 
L 76.631647 294.805518 
L 77.820618 295.069413 
L 80.073336 295.252615 
L 85.571094 295.370758 
L 102.882864 295.42057 
L 152.500786 295.332992 
L 179.794174 295.127933 
L 196.993742 294.834351 
L 207.986486 294.508449 
L 217.83793 294.054677 
L 226.189716 293.475563 
L 234.609998 292.592624 
L 238.765487 291.982936 
L 242.278786 291.333206 
L 245.675113 290.541557 
L 248.901481 289.574448 
L 251.891677 288.39043 
L 254.563732 286.938733 
L 256.817282 285.15789 
L 258.531084 282.974609 
L 259.489862 280.610841 
L 259.782394 278.470642 
L 259.616733 276.021258 
L 258.92893 273.22734 
L 257.653278 270.054083 
L 255.724644 266.46909 
L 253.081661 262.44483 
L 250.304153 258.753158 
L 246.972369 254.739342 
L 243.070731 250.405343 
L 238.594429 245.761831 
L 233.551333 240.829399 
L 227.963449 235.639353 
L 221.867936 230.234095 
L 215.860051 225.119998 
L 209.520735 219.918348 
L 197.689271 210.674947 
L 187.021357 202.811513 
L 176.273601 195.327598 
L 169.361623 190.75513 
L 162.593412 186.47371 
L 156.025893 182.521019 
L 149.709015 178.927627 
L 143.682146 175.714429 
L 137.974776 172.89356 
L 132.014678 170.216342 
L 127.563513 168.427263 
L 123.393596 166.942417 
L 119.502531 165.751313 
L 115.884552 164.840934 
L 112.531155 164.1964 
L 108.172991 163.704653 
L 104.296574 163.672228 
L 100.862876 164.048797 
L 98.404833 164.610143 
L 96.182686 165.376373 
L 94.176218 166.324189 
L 92.365882 167.431523 
L 90.733189 168.677843 
L 89.261058 170.044437 
L 87.679453 171.825472 
L 86.283181 173.729747 
L 85.049735 175.733648 
L 83.959263 177.816501 
L 82.994197 179.960295 
L 82.058803 182.370378 
L 80.518862 187.287496 
L 79.326873 192.243952 
L 78.39687 197.160508 
L 77.358639 204.345577 
L 76.620675 211.20601 
L 75.941935 219.751298 
L 75.397875 229.40684 
L 74.952372 241.075922 
L 74.59077 256.702964 
L 74.407443 273.535073 
L 74.453361 285.760379 
L 74.660285 290.63182 
L 74.966697 292.753191 
L 75.331036 293.751858 
L 75.840249 294.378799 
L 76.545817 294.773039 
L 77.245784 294.969648 
L 79.293105 295.209568 
L 84.113602 295.353971 
L 99.615354 295.418596 
L 149.947469 295.343074 
L 183.237583 295.082049 
L 200.014831 294.755743 
L 210.637709 294.400038 
L 220.167472 293.908111 
L 228.282468 293.280118 
L 236.408074 292.331035 
L 240.391525 291.680489 
L 243.796983 290.978158 
L 247.06657 290.124113 
L 250.144392 289.083164 
L 252.961103 287.812109 
L 255.431503 286.258432 
L 257.45215 284.359114 
L 258.899301 282.039814 
L 259.570493 279.677688 
L 259.667873 277.485198 
L 259.313295 274.990623 
L 258.448284 272.162132 
L 257.013544 268.968946 
L 254.951189 265.383085 
L 252.20767 261.381614 
L 249.263907 257.590386 
L 245.759134 253.476249 
L 241.680732 249.043646 
L 237.027497 244.306164 
L 231.811499 239.287667 
L 226.059418 234.022979 
L 219.813318 228.558057 
L 213.183089 222.993142 
L 201.773062 213.890477 
L 195.825471 209.357919 
L 189.779903 204.890535 
L 183.685752 200.527608 
L 177.077726 195.957092 
L 170.532686 191.600466 
L 164.104679 187.495898 
L 157.845273 183.678263 
L 151.797906 180.174664 
L 145.998419 177.005121 
L 140.474949 174.18272 
L 134.976655 171.591442 
L 129.821435 169.391973 
L 125.016795 167.577753 
L 121.408361 166.390592 
L 118.023079 165.435603 
L 114.855758 164.702618 
L 111.899617 164.180438 
L 109.146643 163.85714 
L 105.307913 163.719283 
L 101.887708 163.971527 
L 98.849902 164.569158 
L 96.157497 165.468421 
L 93.775343 166.628767 
L 91.670183 168.012675 
L 89.810977 169.585777 
L 88.169269 171.317085 
L 86.755201 173.128327 
L 85.502164 175.041122 
L 84.390678 177.035403 
L 83.403967 179.093798 
L 82.527115 181.201119 
L 81.606724 183.759583 
L 80.104408 188.956454 
L 78.954119 194.165469 
L 78.065435 199.304952 
L 77.083858 206.76892 
L 76.394045 213.845897 
L 75.766496 222.594901 
L 75.195449 234.203743 
L 74.754199 248.583809 
L 74.46016 266.683232 
L 74.407857 281.807618 
L 74.559171 289.042712 
L 74.826759 292.031058 
L 75.162467 293.377692 
L 75.509605 294.024581 
L 75.963466 294.468344 
L 76.554112 294.77313 
L 77.623552 295.03698 
L 79.598502 295.226818 
L 84.254317 295.355285 
L 98.20392 295.417042 
L 147.38986 295.352351 
L 181.306209 295.107122 
L 199.372428 294.77152 
L 209.645317 294.43835 
L 220.457215 293.88663 
L 228.173563 293.285679 
L 235.902288 292.396285 
L 239.700794 291.796326 
L 243.401097 291.057595 
L 246.948235 290.145036 
L 249.949646 289.139883 
L 252.707719 287.919326 
L 255.145156 286.435684 
L 257.168398 284.631893 
L 258.665817 282.440773 
L 259.387977 280.403293 
L 259.636494 278.039529 
L 259.334048 275.305648 
L 258.398896 272.156896 
L 257.165585 269.362352 
L 255.449696 266.265017 
L 253.213637 262.848276 
L 250.424413 259.100043 
L 247.055731 255.014286 
L 243.090236 250.592592 
L 238.522016 245.845856 
L 233.359001 240.795826 
L 227.624848 235.476166 
L 221.360013 229.932826 
L 215.311901 224.797966 
L 203.571714 215.329303 
L 192.46478 206.896727 
L 181.112419 198.766343 
L 174.285832 194.115775 
L 167.552423 189.71316 
L 160.970469 185.598852 
L 154.593496 181.807882 
L 148.465617 178.36642 
L 142.621938 175.292413 
L 137.088623 172.595913 
L 130.816986 169.834161 
L 126.473984 168.138338 
L 122.407409 166.739517 
L 118.614026 165.626764 
L 115.087504 164.786869 
L 111.819048 164.205001 
L 107.853408 163.803734 
L 104.294925 163.789773 
L 101.11307 164.123765 
L 98.274754 164.76559 
L 95.748023 165.677583 
L 93.502036 166.824314 
L 91.507495 168.172839 
L 89.737131 169.69303 
L 88.166007 171.357756 
L 86.702235 173.240002 
L 85.410931 175.230649 
L 84.270656 177.307535 
L 83.262817 179.451455 
L 82.37101 181.645743 
L 81.442608 184.297349 
L 79.936583 189.675444 
L 78.792448 195.053276 
L 77.914809 200.345514 
L 76.952989 208.005694 
L 76.282712 215.239791 
L 75.936765 219.961033 
L 75.936765 219.961033 
" clip-path="url(#p80df6fa295)" style="fill: none; stroke: #2ca02c; stroke-width: 1.5; stroke-linecap: square"/>
   </g>
   <g id="line2d_18">
    <path d="M 202.163834 156.405178 
L 193.414526 150.400547 
L 185.634441 145.221649 
L 177.719399 140.123132 
L 170.107923 135.400257 
L 162.835429 131.073876 
L 155.593129 126.972219 
L 148.774543 123.328923 
L 142.391063 120.143039 
L 136.44568 117.406775 
L 130.934025 115.106463 
L 125.714374 113.17941 
L 120.923174 111.667855 
L 116.541953 110.547467 
L 112.546773 109.789666 
L 108.91304 109.366082 
L 105.615335 109.248315 
L 102.627967 109.408366 
L 99.925649 109.819188 
L 97.484045 110.45512 
L 95.280049 111.292085 
L 93.291905 112.307638 
L 91.499289 113.481001 
L 89.883381 114.793083 
L 87.94322 116.763692 
L 86.257895 118.918932 
L 84.793124 121.224852 
L 83.519053 123.652067 
L 82.409731 126.175284 
L 81.329633 129.103658 
L 80.40318 132.100713 
L 79.606462 135.143653 
L 78.327676 141.297999 
L 77.370328 147.454605 
L 76.647073 153.537342 
L 75.869599 162.416176 
L 75.203884 173.652845 
L 74.714168 186.600695 
L 74.351481 202.649651 
L 74.100217 223.592806 
L 73.938697 256.562928 
L 73.961298 291.456338 
L 74.100021 294.251235 
L 74.284775 294.927293 
L 74.60264 295.232276 
L 75.146547 295.370203 
L 76.762044 295.449865 
L 84.962421 295.4806 
L 201.690152 295.441815 
L 243.748299 295.268522 
L 262.225674 295.035392 
L 278.545943 294.609215 
L 288.607031 294.143432 
L 298.763924 293.380315 
L 306.314398 292.480897 
L 309.98215 291.878183 
L 313.52991 291.140584 
L 316.909807 290.235814 
L 320.062251 289.123932 
L 322.913342 287.755689 
L 325.371909 286.070678 
L 327.326451 283.995497 
L 328.642266 281.442148 
L 329.128998 278.979501 
L 329.007786 276.082473 
L 328.173452 272.684738 
L 326.949344 269.629567 
L 325.161334 266.189937 
L 322.751595 262.332001 
L 319.663851 258.024325 
L 315.845777 253.239765 
L 311.251894 247.95767 
L 305.847135 242.166548 
L 299.61077 235.866943 
L 292.540303 229.074192 
L 284.654909 221.820739 
L 275.998061 214.157709 
L 267.804147 207.137561 
L 259.130181 199.914446 
L 250.053532 192.557787 
L 240.663199 185.144558 
L 231.056949 177.756766 
L 221.33789 170.478557 
L 211.610484 163.392939 
L 201.976415 156.578469 
L 192.530767 150.10628 
L 183.358851 144.037712 
L 174.533825 138.422653 
L 166.942255 133.791086 
L 159.713005 129.575461 
L 152.870091 125.7863 
L 146.428933 122.426891 
L 140.396971 119.493953 
L 134.774492 116.978449 
L 129.555684 114.866565 
L 124.729789 113.140764 
L 120.282195 111.780747 
L 116.195396 110.7643 
L 112.449851 110.068026 
L 109.024756 109.668001 
L 105.898698 109.540316 
L 103.050195 109.661512 
L 100.458099 110.008904 
L 98.101915 110.560818 
L 95.962026 111.296753 
L 94.019855 112.19749 
L 92.257965 113.245142 
L 90.660104 114.423165 
L 88.751847 116.177824 
L 87.077994 118.106108 
L 85.609234 120.178869 
L 84.319734 122.370566 
L 83.186755 124.658911 
L 82.076841 127.317756 
L 81.115029 130.050907 
L 80.279918 132.837805 
L 78.921305 138.508457 
L 77.886665 144.223807 
L 77.092698 149.909379 
L 76.224442 158.273008 
L 75.623051 166.345656 
L 75.086318 176.558487 
L 74.611973 190.599926 
L 74.2871 207.080273 
L 74.036095 233.042129 
L 73.91132 273.984566 
L 74.00458 292.971352 
L 74.176247 294.628863 
L 74.386705 295.066569 
L 74.729406 295.280067 
L 75.471963 295.400819 
L 78.135365 295.464861 
L 97.070784 295.483692 
L 221.692194 295.391111 
L 251.357609 295.188723 
L 269.468178 294.873 
L 280.605369 294.515425 
L 290.437899 294.008653 
L 298.731429 293.347261 
L 302.839276 292.897286 
L 306.88128 292.340156 
L 310.816954 291.6482 
L 314.18688 290.89116 
L 317.386333 289.969147 
L 320.358901 288.844419 
L 323.035136 287.470766 
L 325.33018 285.792052 
L 327.141302 283.740743 
L 328.345538 281.236624 
L 328.797935 278.186065 
L 328.494416 275.21694 
L 327.47748 271.749303 
L 326.082342 268.581035 
L 324.106806 265.018798 
L 321.493656 261.029576 
L 318.187874 256.583258 
L 314.13926 251.654677 
L 309.305515 246.225941 
L 303.655888 240.289155 
L 297.175107 233.849266 
L 289.867148 226.926693 
L 281.758449 219.559434 
L 272.900153 211.804325 
L 264.735991 204.878408 
L 256.136818 197.779967 
L 247.178591 190.576296 
L 237.947045 183.340844 
L 228.53499 176.15086 
L 219.039198 169.084788 
L 209.556811 162.219337 
L 200.181651 155.626534 
L 191.000894 149.371159 
L 182.09237 143.508748 
L 173.522582 138.084233 
L 165.345474 133.131212 
L 158.40524 129.123014 
L 151.83179 125.517406 
L 145.637844 122.316242 
L 139.829292 119.515768 
L 134.405868 117.107299 
L 129.361965 115.077978 
L 124.687572 113.411635 
L 120.369265 112.089653 
L 116.391075 111.091739 
L 112.735226 110.396549 
L 109.382778 109.982235 
L 106.314198 109.826919 
L 103.509832 109.909079 
L 100.950286 110.207846 
L 98.616699 110.70322 
L 96.490958 111.376217 
L 94.555839 112.208972 
L 92.795113 113.184795 
L 91.193593 114.288187 
L 89.295165 115.920091 
L 87.62112 117.720415 
L 86.144568 119.662348 
L 84.841659 121.72224 
L 83.691248 123.879298 
L 82.558608 126.392925 
L 81.571905 128.984133 
L 80.710902 131.63339 
L 79.300313 137.043902 
L 78.216485 142.521402 
L 77.377942 147.992126 
L 76.452629 156.075411 
L 75.805422 163.91439 
L 75.222261 173.879717 
L 74.767879 185.465961 
L 74.408262 200.099403 
L 74.126703 221.21679 
L 73.952449 252.503056 
L 73.952713 290.729721 
L 74.093406 294.16031 
L 74.289735 294.918831 
L 74.553543 295.197597 
L 74.9079 295.325842 
L 74.9079 295.325842 
" clip-path="url(#p80df6fa295)" style="fill: none; stroke: #d62728; stroke-width: 1.5; stroke-linecap: square"/>
   </g>
   <g id="line2d_19">
    <path d="M 234.249732 121.634417 
L 222.992733 113.596665 
L 212.985786 106.619902 
L 202.810395 99.704656 
L 193.03252 93.249377 
L 183.699247 87.284361 
L 174.416381 81.570727 
L 165.690125 76.431911 
L 157.535478 71.869673 
L 149.95618 67.876574 
L 144.374829 65.116393 
L 139.141579 62.690881 
L 134.247084 60.587627 
L 129.680038 58.792811 
L 125.4276 57.29156 
L 120.112428 55.689907 
L 115.316466 54.562633 
L 111.000948 53.868982 
L 107.125925 53.568 
L 103.652946 53.620772 
L 100.545004 53.990284 
L 97.766914 54.641702 
L 95.285777 55.54271 
L 93.07124 56.663688 
L 90.903159 58.123863 
L 88.992343 59.786566 
L 87.308041 61.622384 
L 85.823136 63.605376 
L 84.513529 65.712619 
L 83.210171 68.233987 
L 82.079014 70.864601 
L 81.095995 73.58182 
L 80.240906 76.366831 
L 78.846594 82.077404 
L 77.783094 87.892839 
L 76.967165 93.738402 
L 76.077321 102.449806 
L 75.465112 110.99048 
L 74.925295 121.994016 
L 74.517743 135.019485 
L 74.21003 151.872942 
L 73.987218 177.170173 
L 73.859965 223.003693 
L 73.892892 295.018574 
L 74.031107 295.394738 
L 74.338503 295.463694 
L 76.445897 295.485846 
L 173.094941 295.487285 
L 295.453688 295.396422 
L 325.374613 295.17616 
L 343.235003 294.825673 
L 354.082454 294.427254 
L 365.002565 293.752885 
L 373.808726 292.849334 
L 378.07633 292.217371 
L 382.190167 291.420581 
L 386.08528 290.413497 
L 389.003701 289.411738 
L 391.673426 288.199358 
L 394.029153 286.731163 
L 395.991948 284.952716 
L 397.467212 282.799041 
L 398.342793 280.193478 
L 398.487273 277.04675 
L 397.874829 273.694611 
L 396.436574 269.748125 
L 394.645655 266.18146 
L 392.197972 262.152008 
L 389.024421 257.615961 
L 385.056653 252.531273 
L 380.229716 246.85976 
L 374.485293 240.569622 
L 367.775769 233.638566 
L 360.068828 226.057279 
L 351.35217 217.832915 
L 341.637949 208.992262 
L 330.96648 199.584255 
L 319.408668 189.681387 
L 309.027414 180.999172 
L 298.164084 172.10192 
L 286.910513 163.069285 
L 275.368997 153.987767 
L 263.649174 144.948051 
L 251.864539 136.042112 
L 240.128395 127.359918 
L 228.549699 118.986107 
L 217.229368 110.997108 
L 206.257315 103.458905 
L 195.710283 96.425506 
L 185.650493 89.938079 
L 176.125122 84.024783 
L 166.883957 78.537324 
L 158.26619 73.682402 
L 151.809285 70.241338 
L 145.756036 67.19504 
L 140.09951 64.531771 
L 134.82934 62.237194 
L 129.932394 60.294962 
L 123.648318 58.125763 
L 118.022632 56.563589 
L 113.005125 55.5546 
L 108.542599 55.04363 
L 104.583419 54.978024 
L 101.077761 55.307699 
L 97.978305 55.985636 
L 95.519741 56.84898 
L 93.320553 57.926765 
L 91.354267 59.193255 
L 89.596618 60.62499 
L 88.02551 62.200707 
L 86.620996 63.901289 
L 85.365151 65.709626 
L 84.241883 67.610418 
L 83.23676 69.589999 
L 81.530724 73.738216 
L 80.159793 78.072515 
L 79.054872 82.528793 
L 78.161383 87.057014 
L 77.125983 93.901672 
L 76.362671 100.726677 
L 75.639398 109.687293 
L 75.046492 120.537013 
L 74.666481 130.968552 
L 74.311838 146.57901 
L 74.038155 170.638594 
L 73.889661 206.154377 
L 73.836284 288.407333 
L 73.940837 295.255415 
L 74.126761 295.430843 
L 74.715709 295.476439 
L 81.486421 295.487571 
L 292.094556 295.402567 
L 323.14125 295.183792 
L 340.484038 294.856524 
L 352.431774 294.428434 
L 361.079131 293.926682 
L 369.643859 293.157311 
L 373.831065 292.62636 
L 377.905733 291.963187 
L 381.376657 291.238528 
L 384.677653 290.353087 
L 387.755307 289.269685 
L 390.543705 287.942609 
L 392.961984 286.315969 
L 394.911623 284.321937 
L 396.273585 281.878923 
L 396.905628 278.889985 
L 396.768629 275.991914 
L 395.942307 272.593878 
L 394.31477 268.621614 
L 392.361756 264.988497 
L 389.758203 260.898707 
L 386.439182 256.311466 
L 382.341211 251.188227 
L 377.404815 245.494688 
L 371.577602 239.203187 
L 364.818051 232.295585 
L 357.09972 224.766435 
L 348.4155 216.6261 
L 338.781521 207.903525 
L 328.240309 198.648331 
L 316.862733 188.931886 
L 306.571546 180.34913 
L 295.821199 171.566979 
L 284.701728 162.663272 
L 273.312827 153.722094 
L 261.760826 144.8312 
L 250.155348 136.079252 
L 238.605472 127.552695 
L 227.215839 119.33265 
L 216.083199 111.492229 
L 205.293652 104.094463 
L 194.920646 97.190888 
L 185.023736 90.820763 
L 175.648114 85.010933 
L 166.344873 79.498564 
L 157.67745 74.63157 
L 151.269857 71.231166 
L 145.263164 68.222892 
L 139.650346 65.594955 
L 134.421003 63.33301 
L 129.562026 61.420755 
L 123.467168 59.332838 
L 117.995787 57.81995 
L 113.101606 56.832374 
L 108.735478 56.31905 
L 104.849645 56.231178 
L 101.397896 56.522208 
L 98.336202 57.148304 
L 95.623393 58.068855 
L 93.221572 59.246761 
L 91.146146 60.610633 
L 89.304837 62.159311 
L 87.670864 63.867198 
L 86.22074 65.711751 
L 84.933402 67.672873 
L 83.615161 70.078284 
L 82.466298 72.593198 
L 81.463905 75.196002 
L 80.588541 77.868528 
L 79.153259 83.361812 
L 78.050603 88.971999 
L 77.198858 94.625289 
L 76.537067 100.267932 
L 75.804325 108.630165 
L 75.155731 119.464893 
L 74.664204 132.356252 
L 74.339165 146.332535 
L 74.339165 146.332535 
" clip-path="url(#p80df6fa295)" style="fill: none; stroke: #9467bd; stroke-width: 1.5; stroke-linecap: square"/>
   </g>
   <g id="patch_3">
    <path d="M 57.6 307.584 
L 57.6 41.472 
" style="fill: none; stroke: #000000; stroke-width: 0.8; stroke-linejoin: miter; stroke-linecap: square"/>
   </g>
   <g id="patch_4">
    <path d="M 414.72 307.584 
L 414.72 41.472 
" style="fill: none; stroke: #000000; stroke-width: 0.8; stroke-linejoin: miter; stroke-linecap: square"/>
   </g>
   <g id="patch_5">
    <path d="M 57.6 307.584 
L 414.72 307.584 
" style="fill: none; stroke: #000000; stroke-width: 0.8; stroke-linejoin: miter; stroke-linecap: square"/>
   </g>
   <g id="patch_6">
    <path d="M 57.6 41.472 
L 414.72 41.472 
" style="fill: none; stroke: #000000; stroke-width: 0.8; stroke-linejoin: miter; stroke-linecap: square"/>
   </g>
  </g>
 </g>
 <defs>
  <clipPath id="p80df6fa295">
   <rect x="57.6" y="41.472" width="357.12" height="266.112"/>
  </clipPath>
 </defs>
</svg>
