<svg width="19" height="18" viewBox="0 0 19 18" fill="none" xmlns="http://www.w3.org/2000/svg">
<rect x="0.815918" width="18" height="18" rx="4" fill="#F5F5F9"/>
<path d="M11.3984 4.74458C11.7436 4.31354 12.3726 4.24333 12.8037 4.58833L13.8076 5.39204C14.2386 5.73716 14.3078 6.36621 13.9629 6.79731L9.06738 12.9125C8.72809 13.3363 8.11484 13.4108 7.68457 13.0854L7.2207 13.6655H5.5127L6.64355 12.2514C6.22647 11.9037 6.16219 11.2857 6.50293 10.8598L11.3984 4.74458ZM7.02344 11.2758C6.90839 11.4195 6.93148 11.6295 7.0752 11.7446L8.0791 12.5483C8.22264 12.6629 8.43183 12.6397 8.54688 12.4965L9.40723 11.4204L7.88379 10.2006L7.02344 11.2758ZM12.3867 5.10883C12.2432 4.99422 12.034 5.01741 11.9189 5.16059L8.30078 9.68012L9.82422 10.8998L13.4424 6.38129C13.5574 6.23758 13.5343 6.02759 13.3906 5.91254L12.3867 5.10883Z" fill="black"/>
</svg>
