<svg width="19" height="18" viewBox="0 0 19 18" fill="none" xmlns="http://www.w3.org/2000/svg">
<rect x="0.538086" y="-0.000488281" width="18" height="18" rx="4" fill="#F5F5F9"/>
<path d="M13.5381 12.3325H14.8711V12.9995H13.5381V14.3325H12.8711V12.9995H11.5381V12.3325H12.8711V10.9995H13.5381V12.3325ZM12.8711 9.66553C13.3932 9.66553 13.8436 9.96671 14.0625 10.4038C13.8952 10.3584 13.7197 10.3325 13.5381 10.3325H6.2041C5.83628 10.3327 5.53844 10.6308 5.53809 10.9985V12.3325C5.53826 12.7005 5.83617 12.9984 6.2041 12.9985H10.8711C10.8711 13.2325 10.9135 13.4569 10.9873 13.6655H6.2041C5.46798 13.6654 4.87127 13.0686 4.87109 12.3325V10.9985C4.87145 10.2626 5.46809 9.6657 6.2041 9.66553H12.8711ZM12.8711 4.33252C13.6074 4.33252 14.2039 4.9293 14.2041 5.66553V6.99951C14.2039 7.73574 13.6074 8.33252 12.8711 8.33252H6.2041C5.46798 8.33234 4.87127 7.73563 4.87109 6.99951V5.66553C4.87127 4.92941 5.46798 4.3327 6.2041 4.33252H12.8711ZM6.2041 4.99951C5.83617 4.99969 5.53826 5.2976 5.53809 5.66553V6.99951C5.53826 7.36744 5.83617 7.66535 6.2041 7.66553H12.8711C13.2392 7.66553 13.5379 7.36755 13.5381 6.99951V5.66553C13.5379 5.29749 13.2392 4.99951 12.8711 4.99951H6.2041Z" fill="black"/>
</svg>
