<svg width="19" height="18" viewBox="0 0 19 18" fill="none" xmlns="http://www.w3.org/2000/svg">
<rect x="0.538086" y="-0.000488281" width="18" height="18" rx="4" fill="#F5F5F9"/>
<g clip-path="url(#clip0_4193_235628)">
<path d="M9.53809 3.6665C12.4835 3.6665 14.8719 6.05414 14.8721 8.99951C14.8721 11.945 12.4836 14.3335 9.53809 14.3335C6.59272 14.3333 4.20508 11.9449 4.20508 8.99951C4.20525 6.05425 6.59283 3.66668 9.53809 3.6665ZM6.87988 9.3335C6.93129 10.5634 7.26324 11.6433 7.74707 12.4175C8.0721 12.9375 8.44119 13.2869 8.81738 13.481C8.47202 12.5877 8.23584 11.0739 8.20898 9.3335H6.87988ZM10.8682 9.3335C10.8413 11.0739 10.6051 12.5877 10.2598 13.481C10.6359 13.2868 11.0051 12.9374 11.3301 12.4175C11.8139 11.6433 12.1459 10.5633 12.1973 9.3335H10.8682ZM8.87598 9.3335C8.89665 10.6319 9.03516 11.7817 9.24219 12.6099C9.33753 12.9911 9.44075 13.2781 9.53809 13.4731C9.63545 13.2781 9.73861 12.9912 9.83398 12.6099C10.041 11.7817 10.1805 10.6319 10.2012 9.3335H8.87598ZM4.88477 9.3335C5.00438 11.0262 6.02607 12.4685 7.47266 13.1841C6.75199 12.2718 6.27211 10.8937 6.21191 9.3335H4.88477ZM12.8643 9.3335C12.8041 10.8939 12.3243 12.2718 11.6035 13.1841C13.0504 12.4686 14.0718 11.0264 14.1914 9.3335H12.8643ZM7.47266 4.81494C6.02585 5.53048 5.00428 6.97355 4.88477 8.6665H6.21191C6.27207 7.10591 6.75176 5.7273 7.47266 4.81494ZM8.81738 4.51807C8.4412 4.71207 8.07211 5.06162 7.74707 5.58154C7.26319 6.35575 6.93125 7.43648 6.87988 8.6665H8.20898C8.23583 6.92558 8.47188 5.41129 8.81738 4.51807ZM9.53809 4.52588C9.44068 4.72102 9.3376 5.00853 9.24219 5.39014C9.03514 6.21833 8.89664 7.36799 8.87598 8.6665H10.2012C10.1805 7.36799 10.041 6.21833 9.83398 5.39014C9.73859 5.0086 9.63548 4.721 9.53809 4.52588ZM10.2598 4.51807C10.6052 5.41131 10.8413 6.92564 10.8682 8.6665H12.1973C12.1459 7.43647 11.814 6.35576 11.3301 5.58154C11.0051 5.06166 10.6359 4.71211 10.2598 4.51807ZM11.6035 4.81494C12.3245 5.72729 12.8041 7.10574 12.8643 8.6665H14.1924C14.0729 6.97334 13.0506 5.5304 11.6035 4.81494Z" fill="black"/>
</g>
<defs>
<clipPath id="clip0_4193_235628">
<rect width="12" height="12" fill="white" transform="translate(3.53809 2.99951)"/>
</clipPath>
</defs>
</svg>
