<svg width="19" height="18" viewBox="0 0 19 18" fill="none" xmlns="http://www.w3.org/2000/svg">
<rect x="0.538086" width="18" height="18" rx="4" fill="#F5F5F9"/>
<path d="M12.9238 4.33301C13.2787 4.33311 13.5808 4.45748 13.8301 4.70605C14.0795 4.95495 14.2041 5.25772 14.2041 5.61328C14.204 5.90356 14.1199 6.15941 13.9512 6.38086C13.7821 6.60245 13.5679 6.75357 13.3086 6.83301V11.167C13.5678 11.2516 13.7822 11.4042 13.9512 11.625C14.12 11.8459 14.2041 12.1 14.2041 12.3867C14.204 12.7422 14.0796 13.0441 13.8311 13.293C13.5825 13.5417 13.2809 13.666 12.9258 13.666C12.5707 13.666 12.268 13.5418 12.0186 13.293C11.8645 13.1392 11.7581 12.965 11.6992 12.7705H7.37109C7.28645 13.0298 7.13294 13.2441 6.91211 13.4131C6.69137 13.5818 6.43785 13.6659 6.15137 13.666C5.79581 13.666 5.49304 13.5418 5.24414 13.293C4.9955 13.0442 4.87116 12.7421 4.87109 12.3867C4.87109 12.0999 4.95605 11.8459 5.125 11.625C5.29391 11.4044 5.50757 11.2516 5.7666 11.167V6.83301C5.50742 6.74834 5.29397 6.59477 5.125 6.37402C4.95615 6.15322 4.87117 5.8999 4.87109 5.61328C4.87109 5.25772 4.99533 4.95495 5.24414 4.70605C5.49304 4.45724 5.79581 4.33301 6.15137 4.33301C6.43798 4.33308 6.6913 4.41806 6.91211 4.58691C7.13286 4.75589 7.28643 4.96933 7.37109 5.22852H11.6992C11.7579 5.03407 11.864 4.8598 12.0176 4.70605C12.2662 4.45726 12.5687 4.33301 12.9238 4.33301ZM6.15137 11.874C6.00633 11.874 5.88425 11.9234 5.78613 12.0215C5.68801 12.1196 5.63867 12.2417 5.63867 12.3867C5.63874 12.5316 5.68818 12.6529 5.78613 12.751C5.88426 12.8491 6.00631 12.8984 6.15137 12.8984C6.29626 12.8984 6.41758 12.849 6.51562 12.751C6.61366 12.6529 6.66302 12.5316 6.66309 12.3867C6.66309 12.2417 6.61375 12.1196 6.51562 12.0215C6.41761 11.9235 6.29618 11.8741 6.15137 11.874ZM12.9248 11.874C12.7797 11.874 12.6577 11.9234 12.5596 12.0215C12.4614 12.1196 12.4121 12.2417 12.4121 12.3867C12.4122 12.5315 12.4616 12.653 12.5596 12.751C12.6577 12.8491 12.7797 12.8984 12.9248 12.8984C13.0697 12.8984 13.191 12.849 13.2891 12.751C13.3871 12.6529 13.4365 12.5316 13.4365 12.3867C13.4365 12.2417 13.3872 12.1196 13.2891 12.0215C13.191 11.9236 13.0696 11.8741 12.9248 11.874ZM7.37109 5.99707C7.30744 6.19918 7.20236 6.37292 7.05664 6.51855C6.911 6.66428 6.73727 6.76935 6.53516 6.83301V11.167C6.73711 11.2306 6.91108 11.3349 7.05664 11.4805C7.20238 11.6261 7.30744 11.8008 7.37109 12.0029H11.7002C11.7422 11.8649 11.8082 11.7365 11.8984 11.6182C12.0674 11.3967 12.2819 11.2464 12.541 11.167V6.83301C12.2818 6.75357 12.0675 6.60245 11.8984 6.38086C11.8084 6.26276 11.7432 6.13475 11.7012 5.99707H7.37109ZM10.7881 9L8.28809 10.4434V7.55664L10.7881 9ZM6.15137 5.10059C6.00631 5.10059 5.88426 5.14992 5.78613 5.24805C5.68801 5.34617 5.63867 5.46823 5.63867 5.61328C5.63875 5.75812 5.68817 5.87952 5.78613 5.97754C5.88426 6.07567 6.00631 6.125 6.15137 6.125C6.29626 6.12492 6.41758 6.07558 6.51562 5.97754C6.61367 5.8795 6.663 5.75818 6.66309 5.61328C6.66309 5.46823 6.61375 5.34617 6.51562 5.24805C6.4176 5.15008 6.2962 5.10067 6.15137 5.10059ZM12.9248 5.10059C12.7797 5.10059 12.6577 5.14992 12.5596 5.24805C12.4615 5.34617 12.4121 5.46825 12.4121 5.61328C12.4122 5.7581 12.4616 5.87952 12.5596 5.97754C12.6577 6.07567 12.7797 6.125 12.9248 6.125C13.0697 6.12494 13.191 6.07557 13.2891 5.97754C13.3871 5.8795 13.4364 5.75818 13.4365 5.61328C13.4365 5.46823 13.3872 5.34617 13.2891 5.24805C13.191 5.15009 13.0697 5.10065 12.9248 5.10059Z" fill="black"/>
</svg>
