<svg width="19" height="18" viewBox="0 0 19 18" fill="none" xmlns="http://www.w3.org/2000/svg">
<rect x="0.538086" y="-0.000488281" width="18" height="18" rx="4" fill="#F5F5F9"/>
<path d="M12.8711 9.66553C13.6075 9.66553 14.2041 10.2631 14.2041 10.9995V12.3325C14.2041 13.0689 13.6075 13.6655 12.8711 13.6655H6.2041C5.46787 13.6654 4.87109 13.0688 4.87109 12.3325V10.9995C4.87109 10.2632 5.46787 9.6657 6.2041 9.66553H12.8711ZM6.2041 10.3325C5.83606 10.3327 5.53809 10.6314 5.53809 10.9995V12.3325C5.53809 12.7006 5.83606 12.9993 6.2041 12.9995H12.8711C13.2393 12.9995 13.5381 12.7007 13.5381 12.3325V10.9995C13.5381 10.6313 13.2393 10.3325 12.8711 10.3325H6.2041ZM12.8711 4.33252C13.6074 4.33252 14.2039 4.9293 14.2041 5.66553V6.99951C14.2039 7.73574 13.6074 8.33252 12.8711 8.33252H6.2041C5.46798 8.33234 4.87127 7.73563 4.87109 6.99951V5.66553C4.87127 4.92941 5.46798 4.3327 6.2041 4.33252H12.8711Z" fill="black"/>
</svg>
