<svg width="24" height="25" viewBox="0 0 24 25" fill="none" xmlns="http://www.w3.org/2000/svg">
<rect y="0.5" width="24" height="24" rx="12" fill="#6985FF"/>
<g transform="translate(12, 12.5) scale(0.015) translate(-512, -512)">
<path fill="white" d="M512 896a320 320 0 100-640 320 320 0 000 640zm0 64a384 384 0 110-768 384 384 0 010 768z"/><path fill="white" d="M512 320a32 32 0 0132 32l-.512 224a32 32 0 11-64 0L480 352a32 32 0 0132-32z"/><path fill="white" d="M448 576a64 64 0 10128 0 64 64 0 10-128 0zM544 128v128h-64V128h-96a32 32 0 010-64h256a32 32 0 110 64h-96z"/>
</g>
</svg>
