<svg width="19" height="18" viewBox="0 0 19 18" fill="none" xmlns="http://www.w3.org/2000/svg">
<rect x="0.538086" y="-0.000488281" width="18" height="18" rx="4" fill="#F5F5F9"/>
<path d="M8.75977 4.33252C10.9075 4.33252 12.6483 6.07352 12.6484 8.22119C12.6484 9.21304 12.2762 10.1172 11.665 10.8042L14.7549 13.894L14.2051 14.4438L11.0938 11.3325L11.0977 11.3286C10.4469 11.819 9.63739 12.1099 8.75977 12.1099C6.61209 12.1097 4.87109 10.3689 4.87109 8.22119C4.87121 6.07359 6.61216 4.33264 8.75977 4.33252ZM8.75977 5.10986C7.04172 5.10998 5.64855 6.50314 5.64844 8.22119C5.64844 9.93934 7.04165 11.3324 8.75977 11.3325C10.478 11.3325 11.8711 9.93941 11.8711 8.22119C11.871 6.50307 10.4779 5.10986 8.75977 5.10986ZM8.36523 7.15869L7.30371 8.22119L8.36523 9.28369L7.95312 9.6958L6.47852 8.22119L7.95312 6.74658L8.36523 7.15869ZM11.043 8.22119L9.56836 9.6958L9.15625 9.28369L10.2178 8.22119L9.15625 7.15869L9.56836 6.74658L11.043 8.22119Z" fill="black"/>
</svg>
