<svg width="19" height="18" viewBox="0 0 19 18" fill="none" xmlns="http://www.w3.org/2000/svg">
<rect x="0.538086" width="18" height="18" rx="4" fill="#F5F5F9"/>
<path d="M8.06408 12.9061L7.53883 12.3932L8.4476 11.4844H8.06408C7.17544 11.4844 6.42112 11.1736 5.80111 10.552C5.1811 9.93046 4.87109 9.17536 4.87109 8.28673C4.87109 7.3981 5.1811 6.64378 5.80111 6.02377C6.42112 5.40376 7.17544 5.09375 8.06408 5.09375H11.0114C11.9001 5.09375 12.6544 5.40376 13.2744 6.02377C13.8944 6.64378 14.2044 7.3981 14.2044 8.28673C14.2044 9.17536 13.8944 9.93046 13.2744 10.552C12.6544 11.1736 11.9001 11.4844 11.0114 11.4844V10.7475C11.6941 10.7475 12.2741 10.5081 12.7515 10.0291C13.2289 9.55017 13.4676 8.96938 13.4676 8.28673C13.4676 7.60409 13.2289 7.02407 12.7515 6.54668C12.2741 6.06929 11.6941 5.83059 11.0114 5.83059H8.06408C7.38143 5.83059 6.80142 6.06929 6.32402 6.54668C5.84663 7.02407 5.60794 7.60409 5.60794 8.28673C5.60794 8.96938 5.84663 9.55271 6.32402 10.0367C6.80142 10.5208 7.38143 10.7779 8.06408 10.8081H8.51564L7.55111 9.83877L8.06408 9.32593L9.85423 11.116L8.06408 12.9061Z" fill="black"/>
</svg>
