<svg width="19" height="18" viewBox="0 0 19 18" fill="none" xmlns="http://www.w3.org/2000/svg">
<rect x="0.815918" width="18" height="18" rx="4" fill="#F5F5F9"/>
<path d="M6.93113 9.74998C6.72489 9.74998 6.54833 9.67654 6.40145 9.52966C6.25459 9.38279 6.18115 9.20623 6.18115 8.99999C6.18115 8.79375 6.25459 8.61719 6.40145 8.47031C6.54833 8.32344 6.72489 8.25 6.93113 8.25C7.13738 8.25 7.31394 8.32344 7.4608 8.47031C7.60768 8.61719 7.68111 8.79375 7.68111 8.99999C7.68111 9.20623 7.60768 9.38279 7.4608 9.52966C7.31394 9.67654 7.13738 9.74998 6.93113 9.74998ZM9.81574 9.74998C9.6095 9.74998 9.43294 9.67654 9.28606 9.52966C9.13919 9.38279 9.06575 9.20623 9.06575 8.99999C9.06575 8.79375 9.13919 8.61719 9.28606 8.47031C9.43294 8.32344 9.6095 8.25 9.81574 8.25C10.022 8.25 10.1985 8.32344 10.3454 8.47031C10.4923 8.61719 10.5657 8.79375 10.5657 8.99999C10.5657 9.20623 10.4923 9.38279 10.3454 9.52966C10.1985 9.67654 10.022 9.74998 9.81574 9.74998ZM12.7004 9.74998C12.4941 9.74998 12.3175 9.67654 12.1707 9.52966C12.0238 9.38279 11.9504 9.20623 11.9504 8.99999C11.9504 8.79375 12.0238 8.61719 12.1707 8.47031C12.3175 8.32344 12.4941 8.25 12.7004 8.25C12.9066 8.25 13.0832 8.32344 13.23 8.47031C13.3769 8.61719 13.4503 8.79375 13.4503 8.99999C13.4503 9.20623 13.3769 9.38279 13.23 9.52966C13.0832 9.67654 12.9066 9.74998 12.7004 9.74998Z" fill="black"/>
</svg>
