<svg width="19" height="18" viewBox="0 0 19 18" fill="none" xmlns="http://www.w3.org/2000/svg">
<rect x="0.815918" width="18" height="18" rx="4" fill="#F5F5F9"/>
<mask id="mask0_4193_235759" style="mask-type:alpha" maskUnits="userSpaceOnUse" x="3" y="3" width="13" height="12">
<rect x="3.81592" y="3" width="12" height="12" fill="#D9D9D9"/>
</mask>
<g mask="url(#mask0_4193_235759)">
<path d="M6.46979 13.25C6.21721 13.25 6.00342 13.1625 5.82842 12.9875C5.65342 12.8125 5.56592 12.5987 5.56592 12.3461V5.65387C5.56592 5.40129 5.65342 5.1875 5.82842 5.0125C6.00342 4.8375 6.21721 4.75 6.46979 4.75H13.162C13.4146 4.75 13.6284 4.8375 13.8034 5.0125C13.9784 5.1875 14.0659 5.40129 14.0659 5.65387V12.3461C14.0659 12.5987 13.9784 12.8125 13.8034 12.9875C13.6284 13.1625 13.4146 13.25 13.162 13.25H6.46979ZM6.46979 12.5H9.44092V5.5H6.46979C6.43129 5.5 6.39604 5.51604 6.36404 5.54812C6.33196 5.58012 6.31592 5.61537 6.31592 5.65387V12.3461C6.31592 12.3846 6.33196 12.4199 6.36404 12.4519C6.39604 12.484 6.43129 12.5 6.46979 12.5ZM10.1909 12.5H13.162C13.2005 12.5 13.2358 12.484 13.2678 12.4519C13.2999 12.4199 13.3159 12.3846 13.3159 12.3461V9H10.1909V12.5ZM10.1909 8.25H13.3159V5.65387C13.3159 5.61537 13.2999 5.58012 13.2678 5.54812C13.2358 5.51604 13.2005 5.5 13.162 5.5H10.1909V8.25Z" fill="black"/>
</g>
</svg>
