<svg width="19" height="18" viewBox="0 0 19 18" fill="none" xmlns="http://www.w3.org/2000/svg">
<rect x="0.815918" width="18" height="18" rx="4" fill="#F5F5F9"/>
<path fill-rule="evenodd" clip-rule="evenodd" d="M14.4827 8C14.4827 5.60677 12.5426 3.66667 10.1494 3.66667C7.75618 3.66667 5.81608 5.60677 5.81608 8C5.81608 9.42658 6.50544 10.6922 7.56922 11.4818H12.7296C13.7934 10.6922 14.4827 9.42658 14.4827 8ZM5.14941 8C5.14941 9.41634 5.73831 10.6951 6.68461 11.6049C6.34079 11.7814 6.10018 12.1306 6.07716 12.5379C5.70336 12.7195 5.44572 13.1025 5.44572 13.5462C5.44572 14.1649 5.94733 14.6665 6.56609 14.6665H13.8068C14.4256 14.6665 14.9272 14.1649 14.9272 13.5462C14.9272 13.1025 14.6696 12.7195 14.2958 12.5379C14.2717 12.1113 14.0089 11.7486 13.6389 11.581C14.5707 10.6728 15.1494 9.404 15.1494 8C15.1494 5.23858 12.9108 3 10.1494 3C7.38799 3 5.14941 5.23858 5.14941 8ZM7.19572 12.1484C6.94515 12.1484 6.74202 12.3516 6.74202 12.6021C6.74202 12.6361 6.74569 12.6688 6.75253 12.7L6.82673 13.0386L6.48547 13.0995C6.27339 13.1374 6.11239 13.3233 6.11239 13.5462C6.11239 13.7967 6.31552 13.9999 6.56609 13.9999H13.8068C14.0574 13.9999 14.2605 13.7967 14.2605 13.5462C14.2605 13.3233 14.0995 13.1374 13.8874 13.0995L13.5462 13.0386L13.6204 12.7C13.6272 12.6688 13.6309 12.6361 13.6309 12.6021C13.6309 12.3516 13.4278 12.1484 13.1772 12.1484H7.19572ZM8.48275 7C8.85094 7 9.14941 6.70152 9.14941 6.33333C9.14941 5.96514 8.85094 5.66667 8.48275 5.66667C8.11456 5.66667 7.81608 5.96514 7.81608 6.33333C7.81608 6.70152 8.11456 7 8.48275 7Z" fill="black"/>
</svg>
