<svg width="19" height="18" viewBox="0 0 19 18" fill="none" xmlns="http://www.w3.org/2000/svg">
<rect x="0.815918" width="18" height="18" rx="4" fill="#F5F5F9"/>
<g clip-path="url(#clip0_4193_236388)">
<path d="M14.0627 4.77536C14.6618 5.37405 14.6623 6.34544 14.0634 6.94432L12.326 8.68171L13.116 9.47168L12.645 9.94262L11.8571 9.15472L7.72016 13.2917C7.58402 13.4278 7.41119 13.5219 7.22297 13.5624L6.22791 13.7758C5.51838 13.9281 4.88783 13.2976 5.04019 12.5881L5.25426 11.5937C5.2947 11.4054 5.38875 11.2327 5.52495 11.0965L9.66194 6.95952L8.87404 6.17162L9.34498 5.70067L10.1577 6.51343L11.8951 4.77605C12.4937 4.17746 13.4639 4.17701 14.0627 4.77536ZM10.1329 7.43046L5.99589 11.5674C5.95049 11.6128 5.91891 11.6711 5.90543 11.7339L5.69275 12.7282C5.64196 12.9648 5.8519 13.1747 6.08842 13.1239L7.0821 12.9105C7.14488 12.8971 7.20312 12.8655 7.24852 12.8201L11.3855 8.68309L10.1329 7.43046ZM13.5911 5.24699C13.2526 4.909 12.7043 4.90874 12.3661 5.24699L10.6287 6.98437L11.8544 8.21007L13.5918 6.47269C13.9302 6.13421 13.9297 5.58536 13.5911 5.24699Z" fill="black"/>
</g>
<defs>
<clipPath id="clip0_4193_236388">
<rect width="12" height="12" fill="white" transform="translate(3.81592 3)"/>
</clipPath>
</defs>
</svg>
