<svg width="19" height="18" viewBox="0 0 19 18" fill="none" xmlns="http://www.w3.org/2000/svg">
<rect x="0.815918" width="18" height="18" rx="4" fill="#F5F5F9"/>
<path fill-rule="evenodd" clip-rule="evenodd" d="M7.48291 5.82219C7.48291 4.88944 8.23905 4.1333 9.1718 4.1333C10.1045 4.1333 10.8607 4.88944 10.8607 5.82219V11.0444C10.8607 11.6212 10.3931 12.0889 9.81624 12.0889C9.23941 12.0889 8.7718 11.6212 8.7718 11.0444V7.1333H9.43847V11.0444C9.43847 11.2531 9.6076 11.4222 9.81624 11.4222C10.0249 11.4222 10.194 11.2531 10.194 11.0444V5.82219C10.194 5.25763 9.73636 4.79997 9.1718 4.79997C8.60724 4.79997 8.14958 5.25763 8.14958 5.82219V11.5333C8.14958 12.4538 8.89577 13.2 9.81624 13.2C10.7367 13.2 11.4829 12.4538 11.4829 11.5333V7.1333H12.1496V11.5333C12.1496 12.822 11.1049 13.8666 9.81624 13.8666C8.52758 13.8666 7.48291 12.822 7.48291 11.5333V5.82219Z" fill="black"/>
</svg>
