<svg width="19" height="18" viewBox="0 0 19 18" fill="none" xmlns="http://www.w3.org/2000/svg">
<rect x="0.815918" width="18" height="18" rx="4" fill="#F5F5F9"/>
<path d="M8.48193 5C8.85012 5 9.14893 5.2988 9.14893 5.66699V12.333C9.14893 12.7012 8.85012 13 8.48193 13H5.81592C5.44773 13 5.14893 12.7012 5.14893 12.333V5.66699C5.14893 5.2988 5.44773 5 5.81592 5H8.48193ZM13.8149 5C14.1831 5 14.4819 5.2988 14.4819 5.66699V12.333C14.4819 12.7012 14.1831 13 13.8149 13H11.1489C10.7807 13 10.4819 12.7012 10.4819 12.333V5.66699C10.4819 5.2988 10.7807 5 11.1489 5H13.8149ZM5.81592 12.333H8.48193V5.66699H5.81592V12.333ZM11.1489 12.333H13.8149V5.66699H11.1489V12.333Z" fill="black"/>
</svg>
