<svg width="19" height="18" viewBox="0 0 19 18" fill="none" xmlns="http://www.w3.org/2000/svg">
<rect x="0.815918" width="18" height="18" rx="4" fill="#F5F5F9"/>
<mask id="mask0_4193_236731" style="mask-type:alpha" maskUnits="userSpaceOnUse" x="3" y="3" width="13" height="12">
<rect x="3.81592" y="3" width="12" height="12" fill="#D9D9D9"/>
</mask>
<g mask="url(#mask0_4193_236731)">
<path d="M3.854 10.4234V7.57715H4.45013V8.57715H5.604V7.57715H6.20013V10.4234H5.604V9.1734H4.45013V10.4234H3.854ZM7.729 10.4234V8.1734H6.80588V7.57715H9.24813V8.1734H8.32513V10.4234H7.729ZM9.854 10.4234V8.01952C9.854 7.89419 9.89638 7.78915 9.98113 7.7044C10.0659 7.61957 10.1709 7.57715 10.2963 7.57715H12.5078C12.6331 7.57715 12.7382 7.61957 12.823 7.7044C12.9078 7.78915 12.9501 7.89419 12.9501 8.01952V10.4234H12.354V8.1734H11.7001V9.9234H11.104V8.1734H10.4501V10.4234H9.854ZM13.8733 10.4234V7.57715H14.4694V9.82715H15.777V10.4234H13.8733Z" fill="black"/>
</g>
</svg>
