<svg width="19" height="18" viewBox="0 0 19 18" fill="none" xmlns="http://www.w3.org/2000/svg">
<rect x="0.815918" width="18" height="18" rx="4" fill="#F5F5F9"/>
<g clip-path="url(#clip0_4193_236509)">
<path fill-rule="evenodd" clip-rule="evenodd" d="M10.8454 4.63278C11.767 3.71113 13.2613 3.71113 14.1829 4.63278C15.1046 5.55442 15.1046 7.0487 14.1829 7.97035L12.0964 10.0569C11.1699 10.9834 9.66778 10.9834 8.74128 10.0569L9.21269 9.58546C9.87884 10.2516 10.9589 10.2516 11.625 9.58546L13.7115 7.49894C14.3728 6.83765 14.3728 5.76548 13.7115 5.10418C13.0502 4.44288 11.9781 4.44288 11.3168 5.10418L9.92075 6.50021L9.44934 6.0288L10.8454 4.63278Z" fill="black"/>
<path fill-rule="evenodd" clip-rule="evenodd" d="M8.78646 13.3672C7.86482 14.2889 6.37053 14.2889 5.44889 13.3672C4.52724 12.4456 4.52724 10.9513 5.44889 10.0297L7.5354 7.94314C8.4619 7.01664 9.96405 7.01664 10.8906 7.94314L10.4191 8.41454C9.753 7.74839 8.67296 7.74839 8.00681 8.41454L5.92029 10.5011C5.259 11.1624 5.259 12.2345 5.92029 12.8958C6.58159 13.5571 7.65376 13.5571 8.31506 12.8958L9.71109 11.4998L10.1825 11.9712L8.78646 13.3672Z" fill="black"/>
</g>
<defs>
<clipPath id="clip0_4193_236509">
<rect width="12" height="12" fill="white" transform="translate(3.81592 3)"/>
</clipPath>
</defs>
</svg>
