<svg width="19" height="18" viewBox="0 0 19 18" fill="none" xmlns="http://www.w3.org/2000/svg">
<rect x="0.815918" width="18" height="18" rx="4" fill="#F5F5F9"/>
<path d="M14.4819 13.6665H5.14893V4.3335H14.4819V13.6665ZM5.81592 13.0005H13.8159V5.00049H5.81592V13.0005ZM12.1382 6.44385L11.6899 7.67432H12.481V8.34033H11.4468L10.9585 9.6792H12.481V10.3452H10.7163L10.1851 11.8022L9.55908 11.5737L10.0073 10.3452H8.69873L8.16748 11.8022L7.5415 11.5737L7.98975 10.3452H7.14697V9.6792H8.23193L8.72021 8.34033H7.14697V7.67432H8.9624L9.49463 6.21533L10.1206 6.44385L9.67236 7.67432H10.98L11.5122 6.21533L12.1382 6.44385ZM9.4292 8.34033L8.94092 9.6792H10.2495L10.7378 8.34033H9.4292Z" fill="black"/>
</svg>
