<svg width="19" height="18" viewBox="0 0 19 18" fill="none" xmlns="http://www.w3.org/2000/svg">
<rect x="0.815918" width="18" height="18" rx="4" fill="#F5F5F9"/>
<path d="M10.1489 7.00024H12.4819C13.5865 7.00024 14.4819 7.89567 14.4819 9.00024C14.4818 10.1047 13.5864 11.0002 12.4819 11.0002H10.1489V13.6663H9.48193V11.0002H7.14893C6.04446 11.0002 5.1491 10.1047 5.14893 9.00024C5.14893 7.89567 6.04436 7.00024 7.14893 7.00024H9.48193V4.33325H10.1489V7.00024ZM7.14893 7.66724C6.41255 7.66724 5.81592 8.26386 5.81592 9.00024C5.81609 9.73647 6.41265 10.3333 7.14893 10.3333H12.4819C13.2182 10.3333 13.8157 9.73647 13.8159 9.00024C13.8159 8.26386 13.2183 7.66724 12.4819 7.66724H7.14893Z" fill="black"/>
</svg>
