<svg width="19" height="18" viewBox="0 0 19 18" fill="none" xmlns="http://www.w3.org/2000/svg">
<rect x="0.815918" width="18" height="18" rx="4" fill="#F5F5F9"/>
<path d="M13.4155 3.99976C14.1887 3.99976 14.8159 4.62695 14.8159 5.40015C14.8157 6.17317 14.1886 6.79956 13.4155 6.79956H7.70459V7.59937H11.4155C12.1887 7.59937 12.8159 8.22656 12.8159 8.99976C12.8158 9.77284 12.1886 10.3992 11.4155 10.3992H7.79346V11.2H13.4155C14.1887 11.2 14.8159 11.8271 14.8159 12.6003C14.8158 13.3734 14.1887 13.9998 13.4155 13.9998H6.21631C5.44318 13.9998 4.81603 13.3734 4.81592 12.6003C4.81592 11.8271 5.44311 11.2 6.21631 11.2H7.21533V10.3992H6.21631C5.44319 10.3992 4.81606 9.77284 4.81592 8.99976C4.81592 8.22656 5.44311 7.59937 6.21631 7.59937H7.12744V6.79956H6.21631C5.44324 6.79956 4.81613 6.17317 4.81592 5.40015C4.81592 4.62695 5.44311 3.99976 6.21631 3.99976H13.4155ZM6.21631 11.7781C5.76221 11.7781 5.39404 12.1462 5.39404 12.6003C5.39416 13.0543 5.76228 13.4226 6.21631 13.4226H13.4155C13.8696 13.4226 14.2377 13.0543 14.2378 12.6003C14.2378 12.1462 13.8696 11.7781 13.4155 11.7781H6.21631ZM6.21631 8.17749C5.76221 8.17749 5.39404 8.54565 5.39404 8.99976C5.39418 9.45374 5.76229 9.82202 6.21631 9.82202H11.4155C11.8695 9.82202 12.2377 9.45374 12.2378 8.99976C12.2378 8.54565 11.8696 8.17749 11.4155 8.17749H6.21631ZM6.21631 4.57788C5.76221 4.57788 5.39404 4.94605 5.39404 5.40015C5.39425 5.85407 5.76234 6.22241 6.21631 6.22241H13.4155C13.8695 6.22241 14.2376 5.85407 14.2378 5.40015C14.2378 4.94605 13.8696 4.57788 13.4155 4.57788H6.21631Z" fill="black"/>
</svg>
