<svg width="19" height="18" viewBox="0 0 19 18" fill="none" xmlns="http://www.w3.org/2000/svg">
<rect x="0.815918" width="18" height="18" rx="4" fill="#F5F5F9"/>
<path d="M13.6206 6.02368L12.7231 6.92017C13.4002 7.63661 13.8158 8.60273 13.8159 9.66626C13.8159 11.8754 12.0251 13.6663 9.81592 13.6663C7.60678 13.6663 5.81592 11.8754 5.81592 9.66626C5.81609 7.45727 7.60689 5.66626 9.81592 5.66626C10.7212 5.66626 11.5557 5.96787 12.2261 6.47485L13.1489 5.552L13.6206 6.02368ZM9.81592 6.33325C7.97508 6.33325 6.48309 7.82546 6.48291 9.66626C6.48291 11.5072 7.97497 13.0002 9.81592 13.0002C11.6569 13.0002 13.1489 11.5072 13.1489 9.66626C13.1487 7.82546 11.6568 6.33325 9.81592 6.33325ZM10.147 10.344H9.47998V7.67798H10.147V10.344ZM11.1489 5.00024H8.48193V4.33325H11.1489V5.00024Z" fill="black"/>
</svg>
