<svg width="512" height="512" viewBox="0 0 512 512" fill="none" xmlns="http://www.w3.org/2000/svg">
  <rect width="512" height="512" fill="#F2F0E9"/>
  <path d="M448 65.5C483.346 65.5 512 94.1538 512 129.5V133.447L422.022 324.913L354.604 191.319L290.019 324.913L243.562 235.473L226 292.646L290.019 421.146L354.604 289.816L422.022 421.146L512 235.345V382.5C512 417.846 483.346 446.5 448 446.5H64C28.6538 446.5 0 417.846 0 382.5V258.995C6.43806 242.868 17.1246 228.136 33.041 221.03C38.6546 218.754 44.9553 218.106 50.8516 219.573C60.0837 221.708 60.8869 233.033 60.8623 241.25C60.7403 250.041 59.5458 258.741 58.3086 267.439C55.745 284.831 52.7245 302.164 50.7119 319.657C49.5496 332.235 46.9566 345.913 46.002 359.33C44.7241 372.507 44.9956 382.108 48.8311 391.61C51.5294 399.875 56.2121 407.48 63.875 413.985L63.8877 413.998C80.1616 427.375 103.705 424.568 121.809 416.499C122.285 416.241 122.759 415.98 123.232 415.719C139.831 407.572 154.742 395.22 167.969 379.986C195.562 349.505 213.331 310.205 225.569 269.646C237.56 231.656 244.268 192.596 245.704 159.841C245.496 164.706 245.178 169.569 244.761 174.425C245.342 167.68 245.736 160.921 245.902 154.161C246.021 149.516 246.03 145.014 245.927 140.676C245.914 140.079 245.9 139.482 245.883 138.886C245.386 134.921 244.535 131.041 243.388 127.256C241.417 120.216 238.626 114.071 234.019 106.799C231.918 103.372 229.622 100.062 227.186 96.881C224.541 94.0505 221.534 91.7605 218.278 89.9414C212.346 86.292 206.206 84.5995 197.938 84.2266C194.073 83.9438 190.178 84.0199 186.375 84.3838C182.993 84.8879 179.796 85.8936 176.788 87.29C171.644 89.462 167.475 92.5465 163.018 97.3398C160.57 99.8476 158.336 102.571 156.321 105.385C154.963 108.424 153.699 111.551 152.638 114.74C150.949 119.496 149.872 123.869 149.629 128.955C149.387 132.248 149.499 135.567 150.073 138.891C155.917 164.2 173.872 184.192 182.349 208.455C184.44 226.482 182.535 243.911 177.938 260.727C173.072 278.036 165.348 295.014 156.337 311.141C145.939 329.498 133.665 346.976 121.66 363.544C117.18 367.706 112.766 374.836 105.951 372.569C102.281 371.69 100.378 367.926 100.022 364.365C99.5391 360.755 99.7037 357.073 99.2783 353.418C101.044 307.232 113.901 261.957 111.85 215.494L111.84 215.434C110.183 207.745 106.78 200.625 102.157 194.373C102.041 194.215 101.924 194.059 101.806 193.903C101.772 193.859 101.738 193.814 101.704 193.77C101.659 193.71 101.614 193.651 101.568 193.592C96.7631 187.308 90.7184 181.933 83.9844 177.785L83.9082 177.747C66.7208 171.224 46.9665 167.017 29.3721 174.652L29.3252 174.673C18.9707 180.3 9.09239 186.837 0 194.345V129.5C0 94.1538 28.6538 65.5 64 65.5H448Z" fill="#ef7d45"/>
</svg>
