<svg width="1093" height="890" xmlns="http://www.w3.org/2000/svg" xmlns:xlink="http://www.w3.org/1999/xlink"
    overflow="hidden">
    <defs>
        <clipPath id="clip0">
            <rect x="196" y="1301" width="1093" height="890" />
        </clipPath>
    </defs>
    <g clip-path="url(#clip0)" transform="translate(-196 -1301)">
        <path
            d="M201.023 1575.33C201.85 1459.77 345.365 1316.71 487.161 1306L1283.12 1307.18C1286.27 1388.83 1279.97 1452.59 1279.68 1507.12 1109.97 1515.89 657.758 1513.01 479.737 1516.25 447.842 1517.78 404.863 1568.49 407.533 1629.71 530.543 1634.2 1148.94 1630.69 1281.4 1634.32 1279.77 1691.24 1274.81 1790.46 1269.37 1911.07 1265.64 2000.75 1119.93 2176.84 971.383 2180.38L204.461 2185 205.223 1974.67 967.971 1973.5C1035.21 1978.17 1074.18 1895.95 1072.84 1837.7 952.877 1832.74 363.133 1839.63 203.504 1833.72 203.823 1658.21 200.704 1750.85 201.023 1575.33Z"
            stroke="none" />
    </g>
</svg>