<?xml version="1.0" encoding="UTF-8"?>
<svg xmlns="http://www.w3.org/2000/svg" xmlns:xlink="http://www.w3.org/1999/xlink" width="512" height="512" viewBox="0 0 512 512">
<path fill-rule="nonzero" fill="rgb(18.823529%, 40.392157%, 84.313725%)" fill-opacity="1" d="M 512 256 C 512 397.386719 397.386719 512 256 512 C 114.613281 512 0 397.386719 0 256 C 0 114.613281 114.613281 0 256 0 C 397.386719 0 512 114.613281 512 256 Z M 512 256 "/>
<path fill="none" stroke-width="8" stroke-linecap="butt" stroke-linejoin="miter" stroke="rgb(100%, 100%, 100%)" stroke-opacity="1" stroke-miterlimit="10" d="M 509 256 C 509 395.726562 395.726562 509 256 509 C 116.273438 509 3 395.726562 3 256 C 3 116.273438 116.273438 3 256 3 C 395.726562 3 509 116.273438 509 256 Z M 509 256 "/>
<path fill-rule="nonzero" fill="rgb(0%, 47.843137%, 42.352941%)" fill-opacity="1" d="M 483.359375 325.144531 C 483.359375 412.523438 412.523438 483.359375 325.144531 483.359375 C 237.761719 483.359375 166.925781 412.523438 166.925781 325.144531 C 166.925781 237.761719 237.761719 166.925781 325.144531 166.925781 C 412.523438 166.925781 483.359375 237.761719 483.359375 325.144531 Z M 483.359375 325.144531 "/>
<path fill="none" stroke-width="8" stroke-linecap="butt" stroke-linejoin="miter" stroke="rgb(100%, 100%, 100%)" stroke-opacity="1" stroke-miterlimit="10" d="M 480.359375 325.144531 C 480.359375 410.867188 410.867188 480.359375 325.144531 480.359375 C 239.417969 480.359375 169.925781 410.867188 169.925781 325.144531 C 169.925781 239.417969 239.417969 169.925781 325.144531 169.925781 C 410.867188 169.925781 480.359375 239.417969 480.359375 325.144531 Z M 480.359375 325.144531 "/>
<path fill-rule="nonzero" fill="rgb(61.960784%, 13.72549%, 69.803922%)" fill-opacity="1" d="M 465.660156 367.875 C 465.660156 421.878906 421.878906 465.660156 367.875 465.660156 C 313.871094 465.660156 270.09375 421.878906 270.09375 367.875 C 270.09375 313.871094 313.871094 270.09375 367.875 270.09375 C 421.878906 270.09375 465.660156 313.871094 465.660156 367.875 Z M 465.660156 367.875 "/>
<path fill="none" stroke-width="8" stroke-linecap="butt" stroke-linejoin="miter" stroke="rgb(100%, 100%, 100%)" stroke-opacity="1" stroke-miterlimit="10" d="M 462.660156 367.875 C 462.660156 420.222656 420.222656 462.660156 367.875 462.660156 C 315.527344 462.660156 273.09375 420.222656 273.09375 367.875 C 273.09375 315.527344 315.527344 273.09375 367.875 273.09375 C 420.222656 273.09375 462.660156 315.527344 462.660156 367.875 Z M 462.660156 367.875 "/>
<path fill-rule="nonzero" fill="rgb(79.6%, 23.5%, 20%)" fill-opacity="1" d="M 454.71875 394.285156 C 454.71875 427.664062 427.664062 454.71875 394.285156 454.71875 C 360.910156 454.71875 333.851562 427.664062 333.851562 394.285156 C 333.851562 360.910156 360.910156 333.851562 394.285156 333.851562 C 427.664062 333.851562 454.71875 360.910156 454.71875 394.285156 Z M 454.71875 394.285156 "/>
<path fill="none" stroke-width="8" stroke-linecap="butt" stroke-linejoin="miter" stroke="rgb(100%, 100%, 100%)" stroke-opacity="1" stroke-miterlimit="10" d="M 451.71875 394.285156 C 451.71875 426.007812 426.007812 451.71875 394.285156 451.71875 C 362.566406 451.71875 336.851562 426.007812 336.851562 394.285156 C 336.851562 362.566406 362.566406 336.851562 394.285156 336.851562 C 426.007812 336.851562 451.71875 362.566406 451.71875 394.285156 Z M 451.71875 394.285156 "/>
</svg>
