<svg width="622" height="640" viewBox="0 0 622 640" fill="none" xmlns="http://www.w3.org/2000/svg">
<path d="M2.10418 310.57C-0.934685 289.37 0.0930109 269 8.72199 249.509C10.1996 246.171 11.6653 242.634 13.9755 239.897C20.3963 232.29 21.0901 223.102 22.3783 213.897C27.3854 178.12 42.8781 146.628 62.8041 117.095C88.9883 78.2863 122.84 48.2109 165.349 28.1491C188.812 17.0762 213.317 9.17588 238.874 4.95265C258.078 1.77912 277.506 -0.294135 297.01 0.747781C356.808 3.94227 411.187 22.0799 457.885 60.5378C476.995 76.2766 493.027 94.6152 503.048 117.597C505.577 123.397 507.663 129.393 507.368 135.895C507.211 139.342 509.112 141.906 510.993 144.447C532.774 173.865 548.08 206.314 556.599 241.927C560.158 256.804 563.162 271.799 563.245 287.164C563.269 291.723 565.121 293.134 569.318 293.739C581.751 295.529 593.769 298.558 604.019 306.514C626.989 324.343 627.34 355.208 604.744 373.505C591.696 384.071 576.384 388.487 560.072 390.28C557.101 390.607 554.022 391.375 551.151 390.927C543.16 389.68 540.271 393.495 537.697 400.676C529.543 423.424 514.615 441.756 497.236 458.151C494.777 460.471 493.957 462.768 493.873 465.957C492.891 503.275 493.479 540.598 493.47 577.918C493.469 582.989 491.623 585.744 487.421 588.162C447.18 611.311 404.214 626.755 358.429 634.438C341.016 637.36 323.519 638.726 305.868 639.565C268.783 641.327 232.581 636.363 196.766 627.495C165.389 619.727 135.914 607.071 107.4 592.043C102.394 589.405 97.3961 586.78 92.6006 583.729C87.7699 580.655 85.6844 576.862 85.7109 570.978C85.8878 531.653 85.7008 492.326 85.8123 453C85.825 448.523 84.5875 445.159 81.5434 441.851C61.9352 420.545 46.7841 396.415 36.4225 369.336C35.7276 367.52 34.3957 366.381 33.0133 365.154C16.6022 350.599 6.80415 332.271 2.10418 310.57ZM338.252 412.021C345.79 413.241 353.315 414.56 360.878 415.607C362.677 415.856 365.136 416.869 366.333 414.592C367.328 412.698 365.58 411.165 364.641 409.664C360.531 403.102 357.435 396.094 356.243 388.443C353.563 371.244 357.912 357.829 373.869 349.903C379.559 347.077 385.718 345.538 392.018 344.632C394.241 344.313 396.588 344.237 398.857 341.676C392.053 337.761 385.316 334.712 378.456 331.922C376.114 330.97 373.818 330.024 372.23 327.948C369.185 323.966 370.657 319.459 375.565 318.409C378.305 317.823 381.184 317.81 384.006 317.706C391.516 317.431 398.932 316.396 406.16 314.436C419.88 310.715 427.989 301.631 429.538 288.277C430.617 278.966 428.522 270.117 424.994 261.517C422.277 254.895 419.638 248.233 417.257 241.485C415.578 236.725 417.695 234.668 422.682 235.441C426.412 236.02 429.789 238.118 433.901 238.057C433.76 237.207 433.759 236.535 433.527 235.955C433.095 234.877 432.597 233.814 432.01 232.814C412.453 199.472 384.82 177.468 345.557 172.837C327.757 170.737 309.965 172.077 292.871 178.293C257.299 191.229 234.086 216.775 219.129 250.716C207.675 276.705 204.736 304.096 205.179 332.166C205.279 338.519 207.169 343.221 211.429 347.724C245.828 384.079 289.213 402.663 338.252 412.021ZM455.814 501.387C412.975 522.095 367.667 531.855 320.186 532.35C295.691 532.605 271.228 532.353 246.914 529.158C231.436 527.124 215.794 525.489 200.66 521.859C173.392 515.318 147.325 505.186 122.667 491.643C121.178 490.824 119.727 489.321 117.166 490.484C117.166 493.609 117.461 496.946 117.097 500.21C116.546 505.147 118.632 508.229 122.578 510.97C132.982 518.195 143.638 525.011 154.365 531.737C157.694 533.824 160.692 534.351 164.631 533.242C175.596 530.156 184.632 537.057 184.338 547.806C184.035 558.88 171.198 567.764 159.765 564.906C150.104 562.491 142.705 556.061 134.591 550.908C128.764 547.207 123.064 543.305 116.404 538.894C116.404 544.766 116.613 549.568 116.341 554.342C116.104 558.506 117.632 561.052 121.28 563.195C135.236 571.394 149.503 579.056 164.584 584.844C202.786 599.507 242.536 607.135 283.375 608.543C308.854 609.421 334.193 607.178 359.342 602.784C394.678 596.61 428.291 585.39 460.28 569.188C463.533 567.54 464.759 565.437 464.728 561.765C464.564 542.438 464.667 523.109 464.618 503.78C464.614 502.05 465.272 500.068 463.418 498.608C460.867 498.673 458.8 500.209 455.814 501.387ZM187.139 125.621C245.532 77.1432 313.555 55.0233 389.317 52.0652C383.845 48.8773 378.425 47.3399 373.152 45.5138C345.486 35.9328 317.1 29.745 287.755 29.5173C268.78 29.3701 250 31.9941 231.454 36.3122C185.392 47.037 145.201 68.3406 111.977 102.22C89.2281 125.417 72.8863 152.676 61.8746 183.153C59.7838 188.94 57.5932 194.791 56.7558 201.798C78.9041 191.4 101.014 190.06 123.663 196.196C126.416 196.941 127.152 194.887 128.127 193.222C143.39 167.156 164.049 145.792 187.139 125.621ZM229.836 492.607C249.385 496.738 269.231 498.864 289.126 499.443C308.738 500.013 328.387 500.142 348.039 498.999C371.68 497.623 394.916 493.962 417.924 488.609C421.798 487.708 425.941 487.279 429.638 484.515C426.672 484.515 424.145 484.127 421.777 484.575C400.405 488.621 378.951 487.008 357.607 484.996C329.08 482.307 301.113 476.588 273.848 467.483C223.701 450.737 180.595 423.746 147.677 381.741C145.374 378.801 143.539 377.991 139.783 379.685C124.467 386.591 108.594 391.018 91.4548 389.473C86.9882 389.07 82.5509 387.532 77.5566 388.222C81.2485 395.898 86.2277 402.145 91.1921 408.366C117.004 440.716 147.774 466.515 187.212 480.846C200.849 485.802 214.975 488.953 229.836 492.607ZM488.601 357.692C496.889 359.428 505.201 360.946 513.618 362.025C531.038 364.257 548.428 364.84 565.737 361.533C574.786 359.803 583.523 356.885 590.277 350.122C597.419 342.97 596.569 334.836 588.324 329.026C582.636 325.018 576.171 322.887 569.523 321.297C551.764 317.048 533.703 313.913 517.381 304.953C496.778 293.641 478.544 279.162 461.769 262.922C453.982 255.384 444.498 257.454 434.39 254.342C442.156 270.852 445.037 286.013 438.588 302.102C431.78 319.087 418.029 325.582 401.081 328.014C403.012 329.324 404.631 330.169 406.33 330.798C433.148 340.723 459.84 351.034 488.601 357.692ZM168.676 300.05C168.786 298.054 168.939 296.06 168.999 294.062C169.887 264.798 158.061 241.953 132.574 227.741C107.1 213.537 80.673 214.242 56.4042 230.581C23.44 252.775 14.7981 300.794 40.6424 336.02C55.0673 355.681 75.3678 364.591 99.629 363.61C126.656 362.517 147.212 350.268 160.528 326.443C162.029 323.758 163.333 321.035 159.448 318.556C164.817 313.578 167.999 307.878 168.676 300.05ZM309.847 89.443C308.895 89.745 307.944 90.0515 306.991 90.3483C252.733 107.239 206.157 135.927 169.54 179.89C163.031 187.706 156.805 195.734 151.902 204.696C150.947 206.442 149.656 208.192 151.912 209.976C155.915 213.141 159.888 216.343 164.021 219.648C164.825 218.562 165.345 217.93 165.79 217.248C187.198 184.414 215.133 158.284 248.536 138.113C286.388 115.256 327.403 101.133 371.472 96.6675C393.884 94.3966 416.31 94.6857 438.501 99.5765C448.247 101.725 457.532 105.186 467.457 109.375C465.608 105.296 463.409 102.664 461.053 100.113C445.719 83.5104 425.816 78.3934 404.236 77.3378C372.322 75.7767 341.147 79.9174 309.847 89.443ZM285.453 424.229C278.816 421.552 272.079 419.099 265.562 416.159C237.193 403.362 211.376 386.984 190.691 363.214C186.083 357.919 183.005 351.698 178.728 345.699C175.478 349.888 172.635 353.76 169.564 357.441C167.314 360.137 167.216 362.223 169.424 365.283C185.489 387.547 205.846 404.98 229.377 418.779C269.64 442.392 313.244 455.37 359.627 459.9C385.117 462.389 410.394 462.329 435.602 457.649C460.359 453.052 481.972 443.21 496.237 421.168C497.9 418.599 499.906 416.161 500.067 412.206C498.599 412.987 497.697 413.364 496.905 413.902C467.73 433.714 434.866 441.948 400.245 443.152C361.109 444.512 323.154 437.195 285.453 424.229Z" fill="#0032a0"/>
<path d="M355.255 233.352C355.345 244.476 348.458 252.568 338.699 253.286C329.168 253.987 321.269 247.668 319.574 237.986C317.99 228.943 322.899 220.838 331.569 218.181C340.242 215.524 350.27 220.045 353.652 228.189C354.287 229.719 354.699 231.343 355.255 233.352Z" fill="#0032a0"/>
<path d="M241.62 558.72C244.178 555.945 247.172 554.873 250.403 554.868C282.057 554.814 313.712 554.712 345.365 554.94C353.472 554.999 357.581 559.748 357.326 567.17C357.137 572.66 353.653 576.99 348.202 578.195C346.104 578.659 343.907 578.853 341.754 578.856C311.932 578.905 282.111 578.872 252.289 578.93C246.424 578.941 241.837 577.096 239.551 571.295C237.805 566.863 238.763 562.814 241.62 558.72Z" fill="#0032a0"/>
<path d="M433.541 561.104C427.028 561.197 422.54 558.269 420.766 553.121C419.241 548.697 420.783 543.488 424.485 540.555C429.888 536.274 437.817 537.568 441.477 543.328C445.009 548.888 443.027 556.492 437.168 559.69C436.154 560.243 435.021 560.578 433.541 561.104Z" fill="#0032a0"/>
<path d="M490.133 299.73C492.725 301.046 494.708 302.425 495.656 304.976C497.068 308.777 495.694 311.934 491.893 313.293C482.375 316.696 467.565 311.495 462.414 302.871C461.661 301.61 461.152 300.173 460.716 298.759C459.591 295.119 460.018 291.731 463.33 289.441C466.768 287.064 470.433 287.706 473.55 290.03C478.632 293.818 483.873 297.251 490.133 299.73Z" fill="#0032a0"/>
<path d="M114.295 342.58C96.7011 347.769 80.5303 345.534 65.9599 335.009C52.9648 325.622 46.3944 312.497 44.5076 296.584C41.6132 272.171 57.1835 248.039 78.8931 240.591C108.305 230.5 139.411 245.949 149.167 275.936C158.204 303.712 143.019 332.998 114.295 342.58ZM73.0942 295.665C78.2548 295.669 83.4188 295.787 88.5749 295.636C91.9251 295.537 93.4735 296.706 93.3616 300.236C93.1981 305.392 93.3478 310.557 93.3474 315.717C93.3472 318.691 94.3043 321.39 97.5837 321.371C100.894 321.352 101.718 318.588 101.715 315.645C101.711 310.484 101.817 305.322 101.724 300.163C101.667 296.979 103.032 295.651 106.204 295.703C111.53 295.791 116.859 295.728 122.185 295.646C125.174 295.599 126.8 294.011 126.852 290.973C126.905 287.824 124.906 287.089 122.252 287.097C117.758 287.11 113.263 287.093 108.768 287.074C101.7 287.044 101.701 287.039 101.684 279.753C101.675 275.591 101.628 271.429 101.66 267.267C101.683 264.273 100.79 261.584 97.4489 261.68C94.1963 261.773 93.3088 264.476 93.3313 267.452C93.369 272.446 93.2005 277.446 93.3803 282.433C93.5052 285.898 92.0836 287.247 88.6944 287.162C83.537 287.033 78.3738 287.073 73.2139 287.12C70.9664 287.141 68.7452 287.455 68.4257 290.353C68.1098 293.217 68.9956 295.296 73.0942 295.665Z" fill="#0032a0"/>
</svg>
