<?xml version="1.0" encoding="UTF-8" standalone="no"?>
<svg
   viewBox="0 0 13 16.000935"
   version="1.1"
   id="svg1"
   sodipodi:docname="cancel.svg"
   width="13"
   height="16.000935"
   inkscape:export-filename="cancel.png"
   inkscape:export-xdpi="191.98878"
   inkscape:export-ydpi="191.98878"
   inkscape:version="1.3.2 (1:1.3.2+202404261509+091e20ef0f)"
   xmlns:inkscape="http://www.inkscape.org/namespaces/inkscape"
   xmlns:sodipodi="http://sodipodi.sourceforge.net/DTD/sodipodi-0.dtd"
   xmlns="http://www.w3.org/2000/svg"
   xmlns:svg="http://www.w3.org/2000/svg">
  <defs
     id="defs1" />
  <sodipodi:namedview
     id="namedview1"
     pagecolor="#ffffff"
     bordercolor="#666666"
     borderopacity="1.0"
     inkscape:showpageshadow="2"
     inkscape:pageopacity="0.0"
     inkscape:pagecheckerboard="0"
     inkscape:deskcolor="#d1d1d1"
     inkscape:zoom="53.934131"
     inkscape:cx="6.9900079"
     inkscape:cy="8.0004997"
     inkscape:window-width="1504"
     inkscape:window-height="1255"
     inkscape:window-x="26"
     inkscape:window-y="23"
     inkscape:window-maximized="0"
     inkscape:current-layer="svg1" />
  <path
     d="M 6.5,0 C 5.4,0 4.355,0.32 4.355,0.32 L 4,0.428 V 2.111 A 13.88,13.88 0 0 0 1.002,3 L 1,4 H 0 v 1 h 1 l 0.004,9 c 0,0.439 0.04,0.788 0.15,1.082 0.111,0.294 0.311,0.528 0.563,0.668 C 2.22,16.03 2.837,16 3.67,16 h 5.664 c 0.833,0 1.45,0.03 1.953,-0.25 0.252,-0.14 0.45,-0.374 0.56,-0.668 C 11.957,14.788 12,14.439 12,14 L 11.998,6 h -1 L 11,14 c 0,0.376 -0.04,0.603 -0.088,0.729 -0.034,0.09 -0.078,0.129 -0.11,0.146 C 10.629,14.972 10.191,15 9.334,15 H 3.67 C 2.813,15 2.375,14.972 2.201,14.875 A 0.267,0.267 0 0 1 2.088,14.729 V 14.727 C 2.042,14.605 2.004,14.379 2.004,14 V 13.998 L 2,5 H 13 V 4 H 11.998 L 12,3 A 13.855,13.855 0 0 0 9,2.111 V 0.45 L 8.67,0.331 c 0,0 -0.913,-0.33 -2.17,-0.33 z m 0,1 C 7.39,1 7.79,1.155 8,1.22 V 1.959 A 14.05,14.05 0 0 0 6.502,1.875 C 6,1.875 5.499,1.907 5,1.961 V 1.227 C 5.266,1.157 5.772,1 6.5,1 Z M 4,6 v 6 H 5 V 6 Z m 2,0 v 6 H 7 V 6 Z m 2,0 v 6 H 9 V 6 Z"
     fill="#808080"
     font-family="Ubuntu"
     font-size="15px"
     font-weight="400"
     letter-spacing="0"
     text-anchor="middle"
     word-spacing="0"
     id="path1" />
</svg>
