<?xml version="1.0" encoding="UTF-8" standalone="no"?>
<!-- Created with Inkscape (http://www.inkscape.org/) -->

<svg
   width="1.549017in"
   height="0.57633466in"
   version="1.1"
   viewBox="0 0 39.345888 14.638594"
   id="svg20"
   sodipodi:docname="pythtb_logo2_dark.svg"
   inkscape:version="1.4.2 (ebf0e940, 2025-05-08)"
   xmlns:inkscape="http://www.inkscape.org/namespaces/inkscape"
   xmlns:sodipodi="http://sodipodi.sourceforge.net/DTD/sodipodi-0.dtd"
   xmlns="http://www.w3.org/2000/svg"
   xmlns:svg="http://www.w3.org/2000/svg">
  <defs
     id="defs20" />
  <sodipodi:namedview
     id="namedview20"
     pagecolor="#ffffff"
     bordercolor="#000000"
     borderopacity="0.25"
     inkscape:showpageshadow="2"
     inkscape:pageopacity="0.0"
     inkscape:pagecheckerboard="0"
     inkscape:deskcolor="#d1d1d1"
     inkscape:document-units="in"
     inkscape:zoom="2.4245442"
     inkscape:cx="71.353618"
     inkscape:cy="49.493839"
     inkscape:window-width="1512"
     inkscape:window-height="945"
     inkscape:window-x="241"
     inkscape:window-y="1117"
     inkscape:window-maximized="0"
     inkscape:current-layer="g6" />
  <g
     transform="translate(-314.37371,-231.512)"
     id="g20">
    <g
       transform="translate(261.85,131.55)"
       id="g6">
      <rect
         x="46.27"
         y="94.477997"
         width="47.023998"
         height="25.436001"
         display="none"
         fill="#222832"
         id="rect1" />
      <path
         transform="matrix(0.93842,0,0,0.91441,-20.347,9.6892)"
         d="m 91.229,110.45 -6.312,3.6235 -6.294,-3.6546 0.01796,-7.2781 6.312,-3.6235 6.294,3.6546 z"
         fill="none"
         stroke="#607d8b"
         stroke-width="0.46527"
         id="path1"
         style="stroke:#4a5e68;stroke-opacity:1" />
      <g
         fill="#607d8b"
         id="g5"
         style="fill:#4a5e68;fill-opacity:1">
        <ellipse
           cx="59.355"
           cy="113.69"
           rx="0.97728997"
           ry="0.90960997"
           id="ellipse1"
           style="fill:#4a5e68;fill-opacity:1" />
        <ellipse
           cx="65.280998"
           cy="110.72"
           rx="0.97728997"
           ry="0.90960997"
           id="ellipse2"
           style="fill:#4a5e68;fill-opacity:1" />
        <ellipse
           cx="53.500999"
           cy="110.54"
           rx="0.97728997"
           ry="0.90960997"
           id="ellipse3"
           style="fill:#4a5e68;fill-opacity:1" />
        <ellipse
           cx="59.41"
           cy="100.87"
           rx="0.97728997"
           ry="0.90960997"
           id="ellipse4"
           style="fill:#4a5e68;fill-opacity:1" />
        <ellipse
           cx="53.544998"
           cy="103.99"
           rx="0.97728997"
           ry="0.90960997"
           id="ellipse5"
           style="fill:#4a5e68;fill-opacity:1" />
      </g>
      <ellipse
         cx="65.204002"
         cy="103.99"
         rx="0.97728997"
         ry="0.90960997"
         fill="#ef2845"
         id="ellipse6"
         style="fill:#cc4452;fill-opacity:1" />
    </g>
    <g
       transform="translate(180.2,66.125)"
       id="g8">
      <path
         d="m 80.422,110.08 c 0,0 1.6385,-4.0388 3.4666,-4.7338 1.6965,-0.64499 5.323,1.1462 5.323,1.1462"
         fill="none"
         stroke="#000000"
         stroke-width="0.365"
         id="path6" />
      <path
         d="m 80.706,110.61 c 0,0 4.4586,1.754 6.2413,0.96083 1.7827,-0.79317 2.57,-4.3952 2.57,-4.3952"
         fill="none"
         stroke="#000000"
         stroke-width="0.365"
         id="path7" />
      <ellipse
         cx="89.342003"
         cy="106.88"
         rx="1.2258"
         ry="1.2557"
         fill="#cd002f"
         id="ellipse7" />
      <ellipse
         cx="80.512001"
         cy="110.38"
         rx="1.2258"
         ry="1.2557"
         fill="#cd002f"
         id="ellipse8" />
    </g>
    <g
       fill="none"
       stroke="#000000"
       stroke-width="0.365"
       id="g12">
      <path
         d="m 279.1,181.62 c -0.0429,-0.0429 -0.11013,-0.17062 -0.12087,-0.18132 -0.0143,-0.0142 -0.0462,0.0142 -0.0604,0 -0.0302,-0.0303 -0.0302,-0.0907 -0.0604,-0.12087 -0.0302,-0.0302 -0.0907,-0.0302 -0.12088,-0.0604 -0.0399,-0.0399 -0.0854,-0.19376 -0.18131,-0.24176 -0.018,-0.009 -0.0462,0.0142 -0.0604,0 -0.0285,-0.0285 0.0285,-0.0924 0,-0.12087 -0.0143,-0.0142 -0.0462,0.0142 -0.0604,0 -0.0302,-0.0302 -0.0302,-0.0907 -0.0604,-0.12088 -0.0143,-0.0142 -0.0424,0.009 -0.0604,0 -0.0714,-0.0357 -0.11465,-0.13681 -0.18132,-0.18131 -0.075,-0.05 -0.16679,-0.0709 -0.24175,-0.12088 -0.12926,-0.0862 -0.23911,-0.20959 -0.36263,-0.30219 -0.036,-0.027 -0.089,-0.0285 -0.12088,-0.0604 -0.14678,-0.14682 0.018,-0.0887 -0.12088,-0.18132 -0.0319,-0.0213 -0.35563,-0.23475 -0.36263,-0.24175 -0.12505,-0.12488 0.19109,0.005 -0.0604,-0.12088 -0.0846,-0.0423 -0.17747,-0.0849 -0.24175,-0.18131 -0.10076,-0.15115 -0.27179,-0.27167 -0.36263,-0.42307 -0.0328,-0.0546 -0.0222,-0.13031 -0.0604,-0.18131 -0.0604,-0.0806 -0.17727,-0.10392 -0.24176,-0.18132 -0.0645,-0.0774 -0.12087,-0.16115 -0.18131,-0.24175 -0.0202,-0.0403 -0.0334,-0.0849 -0.0604,-0.12088 -0.27985,-0.37313 -0.75673,-0.66732 -0.96701,-1.0879 -0.0829,-0.1658 -0.81511,-1.0274 -0.90658,-1.0274 -0.0201,0 0.0142,0.0462 0,0.0604 -0.24175,0.24172 0.10073,-0.26193 -0.0604,0.0604 -0.0441,0.0882 -0.0967,0.0967 -0.12088,0.12088 -0.0142,0.0142 0.0142,0.0462 0,0.0604 -0.0143,0.0142 -0.0462,-0.0142 -0.0604,0 -0.0285,0.0285 0.0224,0.0874 0,0.12087 -0.062,0.093 -0.17976,0.14876 -0.24175,0.24176 -0.20157,0.30235 -0.40204,0.60306 -0.60438,0.90658 -0.0474,0.0711 -0.13004,0.11291 -0.18132,0.18131 -0.0755,0.10064 -0.0927,0.27403 -0.18131,0.36263 -0.0319,0.0318 -0.089,0.0285 -0.12088,0.0604 -0.1093,0.1093 -0.13468,0.31599 -0.24175,0.42307 -0.0319,0.0318 -0.089,0.0285 -0.12088,0.0604 -0.0319,0.0319 -0.0355,0.0834 -0.0604,0.12087 -0.14429,0.21644 -0.57438,0.62721 -0.7857,0.7857 -0.24106,0.1808 -0.4845,0.36337 -0.72526,0.54395 -0.0912,0.0684 -0.15058,0.17335 -0.24175,0.24175 -0.12061,0.0905 -0.3874,0.20609 -0.48351,0.30219 -0.0319,0.0319 -0.0286,0.089 -0.0604,0.12088 -0.0927,0.0927 -0.25146,0.16765 -0.36263,0.24175 -0.23252,0.15502 -0.37816,0.43986 -0.60438,0.60438 -0.17624,0.12818 -0.50497,0.14824 -0.54395,0.36263 -0.031,0.17051 0.28205,0.20147 0.42307,0.3022 0.0202,0 0.0462,-0.0142 0.0604,0 0.0142,0.0142 -0.0142,0.0462 0,0.0604 0.0285,0.0285 0.0848,-0.018 0.12088,0 0.051,0.0255 0.0668,0.10288 0.12087,0.12088 0.0875,0.0291 0.21657,0.0176 0.30219,0.0604 0.27661,0.13828 -0.25646,-0.025 0.18132,0.12088 0.0382,0.0127 0.0924,-0.0285 0.12088,0 0.0142,0.0142 -0.0142,0.0461 0,0.0604 0.0434,0.0434 0.88392,0.42306 0.90657,0.42306 0.30726,0 1.0684,0.24888 1.3296,0.42307 0.0989,0.0659 0.11506,0.13912 0.24176,0.18132 0.11142,0.0372 0.2041,0.0719 0.30219,0.12088 0.0541,0.027 0.12397,-0.0191 0.18131,0 0.0626,0.0209 0.12136,0.0909 0.18132,0.12087 0.0541,0.027 0.12268,-0.0147 0.18131,0 0.0874,0.0219 0.15629,0.0924 0.24176,0.12088 0.0382,0.0128 0.0848,-0.018 0.12087,0 0.0873,0.0437 0.1545,0.0773 0.24176,0.12088 4e-5,1e-5 0.92135,0.0228 0.96701,0 0.0255,-0.0127 0.035,-0.0476 0.0604,-0.0604 0.0365,-0.0183 0.15338,0.0279 0.18132,0 0.0142,-0.0142 -0.0142,-0.0462 0,-0.0604 0.0224,-0.0224 0.20441,-0.0417 0.24175,-0.0604 0.14213,-0.0711 0.28229,-0.19485 0.42307,-0.24175 0.0382,-0.0128 0.0827,0.0127 0.12088,0 0.027,-0.009 0.0403,-0.0403 0.0604,-0.0604 0,-0.0201 -0.018,-0.0514 0,-0.0604 0.036,-0.018 0.0827,0.0127 0.12087,0 0.13707,-0.0457 0.23921,-0.21989 0.36263,-0.30219 0.48257,-0.32171 1.2099,-0.83132 1.7527,-0.96702 0.0437,-0.0109 0.0806,-0.0402 0.12087,-0.0604 0.0202,-0.0201 0.0334,-0.0514 0.0604,-0.0604 0.0382,-0.0127 0.0818,0.01 0.12088,0 0.0437,-0.0109 0.0806,-0.0403 0.12087,-0.0604 0.0202,-0.0201 0.0334,-0.0514 0.0604,-0.0604 0.0382,-0.0127 0.0827,0.0127 0.12088,0 0.22672,-0.0756 0.54828,-0.34397 0.7857,-0.42307 0.0118,-0.004 0.32024,-0.0424 0.24175,-0.12088 -0.0279,-0.0279 -0.14482,0.0183 -0.18131,0 -0.23911,-0.11955 -0.59054,-0.15655 -0.84614,-0.24175 -0.0855,-0.0285 -0.15434,-0.099 -0.24175,-0.12088 -0.59702,-0.14925 -1.171,-0.43211 -1.7527,-0.66482 -0.42005,-0.16802 -0.81255,-0.40627 -1.2088,-0.60438 -0.22393,-0.11196 -0.49256,-0.14865 -0.72526,-0.24175 -0.13691,-0.0548 -0.66831,-0.33066 -0.84614,-0.24176 -0.32003,0.16002 -0.63657,0.31829 -0.96701,0.48351 -0.051,0.0255 -0.0735,0.0893 -0.12088,0.12088 -0.13312,0.0888 -0.16863,0.0764 -0.30219,0.12087 -0.14678,0.0489 -0.28351,0.23239 -0.42307,0.30219 -0.30585,0.15293 -0.68714,0.29693 -0.96701,0.48351 -0.10772,0.0718 -0.23501,0.19925 -0.36263,0.24175 -0.0382,0.0128 -0.0827,-0.0127 -0.12088,0 -0.0963,0.0321 -0.18957,0.15312 -0.30219,0.18132 -0.25629,0.0641 -0.52278,0.12871 -0.7857,0.18131 -0.0625,0.0125 -0.12088,0.0403 -0.18132,0.0604 -0.0202,0.0201 -0.0334,0.0514 -0.0604,0.0604 -0.0382,0.0127 -0.0824,-0.0119 -0.12087,0 -2.2651,0.69696 0.35445,-0.033 -0.66483,0.24175 0.13124,0.40831 0.54724,0.58863 0.7857,0.90658 0.027,0.036 0.0286,0.089 0.0604,0.12088 0.0319,0.0318 0.089,0.0286 0.12088,0.0604 0.0319,0.0318 0.0286,0.089 0.0604,0.12087 0.0514,0.0514 0.12995,0.0695 0.18131,0.12088 0.0143,0.0143 -0.0112,0.0437 0,0.0604 0.16413,0.24619 0.45486,0.45486 0.66483,0.66482 0.21315,0.21315 0.42311,0.48354 0.66482,0.66482 0.30833,0.23125 0.67086,0.53186 0.90657,0.84614 0.36441,0.48587 0.82213,0.97943 1.0879,1.511 0.0683,0.13671 0.21819,0.23662 0.3022,0.36263 0.0774,0.11613 0.24201,0.24227 0.30219,0.36263 0.0183,0.0366 0.0351,0.15599 0.0604,0.18131 0.0143,0.0143 0.0462,-0.0142 0.0604,0 0.006,0.006 0.082,0.38421 0.12088,0.42307 0.0143,0.0143 0.0462,-0.0142 0.0604,0 0.0143,0.0143 -0.0202,0.0604 0,0.0604 0.0202,0 -0.009,-0.0424 0,-0.0604 0.13756,-0.13756 0.016,0.0125 0.0604,-0.12087 0.0575,-0.1724 0.1863,-0.31717 0.24175,-0.48351 0.0127,-0.0382 -0.0127,-0.0827 0,-0.12088 0.023,-0.0689 0.0979,-0.1124 0.12088,-0.18131 0.0234,-0.0703 0.0284,-0.17775 0.0604,-0.24176 0.0255,-0.051 0.0954,-0.0699 0.12087,-0.12087 0.0631,-0.12625 0.0802,-0.24064 0.12088,-0.36263 0.0459,-0.13778 0.22044,-0.30045 0.30219,-0.42307 0.0611,-0.0917 0.0775,-0.21549 0.12088,-0.30219 0.0357,-0.0714 0.13686,-0.11464 0.18131,-0.18132 0.0971,-0.1456 0.13684,-0.28318 0.24176,-0.42307 0.0738,-0.0984 0.24607,-0.18996 0.30219,-0.30219 0.12624,-0.25249 0.38282,-0.42314 0.54394,-0.66482 0.0112,-0.0168 -0.0143,-0.0462 0,-0.0604 0.0143,-0.0142 0.0424,0.009 0.0604,0 0.11183,-0.0559 0.17917,-0.20832 0.24176,-0.30219 0.0615,-0.0923 0.18024,-0.0891 0.24175,-0.18132 0.025,-0.0375 0.0286,-0.089 0.0604,-0.12087 0.15919,-0.15919 0.44787,-0.20612 0.60438,-0.36263 0.0319,-0.0319 0.0286,-0.089 0.0604,-0.12088 0.0637,-0.0637 0.16679,-0.0709 0.24176,-0.12088 0.0697,-0.0465 0.11158,-0.13482 0.18131,-0.18131 0.21007,-0.14004 0.40636,-0.29105 0.60439,-0.42307 0.0806,-0.0537 0.15179,-0.19677 0.24175,-0.24175 0.0357,-0.0178 0.2217,-0.10083 0.24175,-0.12088 0.0143,-0.0143 -0.009,-0.0424 0,-0.0604 0.12577,-0.25153 -0.004,0.0646 0.12088,-0.0604 0.12505,-0.12505 -0.19109,0.005 0.0604,-0.12087 0.018,-0.009 0.0462,0.0142 0.0604,0 0.0142,-0.0143 -0.0143,-0.0462 0,-0.0604 0.0142,-0.0143 0.0525,0.0185 0.0604,0 0.0578,-0.13483 0.0806,-0.28208 0.12089,-0.42312 z"
         id="path8" />
      <path
         d="m 273.84,176.48 c -0.0201,0.12087 -0.0493,0.24059 -0.0604,0.36263 -0.0322,0.35449 0,0.73176 0,1.0879 v 1.8132 c 0,0.47531 0.0751,1.0603 0,1.511 -0.0105,0.0628 -0.0514,0.11825 -0.0604,0.18131 -0.0327,0.22879 0,0.4918 0,0.72526 v 1.5714"
         id="path9" />
      <path
         d="m 273.96,184.22 c 0,0.0806 -0.0806,0.24175 0,0.24175 0.0806,0 0,-0.32234 0,-0.24175 0,0.27066 0.0658,0.77489 -0.0604,1.0274 -0.0634,0.12675 0,0.45384 0,0.60438 0,0.45077 0.006,1.0157 -0.18131,1.3901 -0.0322,0.0645 0.0322,0.17728 0,0.24175 -0.0537,0.10729 -0.12767,0.1949 -0.18132,0.30219 -0.018,0.036 0.0285,0.0924 0,0.12088 -0.0142,0.0142 -0.0462,-0.0142 -0.0604,0 -0.0285,0.0285 0.0285,0.0924 0,0.12087 -0.0457,0.0457 -0.12087,0.0262 -0.12087,0.12088"
         id="path10" />
      <path
         d="m 238.25,187.49 0.035,9.8676"
         id="path11" />
      <path
         d="m 245.3,187.37 3.0442,5.2559 -3.0092,4.8217"
         id="path12" />
    </g>
    <ellipse
       cx="242.57001"
       cy="192.06"
       rx="2.5246"
       ry="2.5467999"
       fill="#cd002f"
       id="ellipse12" />
    <g
       transform="translate(235.12,96.552)"
       id="g15">
      <path
         d="m 80.422,110.08 c 0,0 1.6385,-4.0388 3.4666,-4.7338 1.6965,-0.64499 5.323,1.1462 5.323,1.1462"
         fill="none"
         stroke="#000000"
         stroke-width="0.365"
         id="path13" />
      <path
         d="m 80.706,110.61 c 0,0 4.4586,1.754 6.2413,0.96083 1.7827,-0.79317 2.57,-4.3952 2.57,-4.3952"
         fill="none"
         stroke="#000000"
         stroke-width="0.365"
         id="path14" />
      <ellipse
         cx="89.342003"
         cy="106.88"
         rx="1.2258"
         ry="1.2557"
         fill="#cd002f"
         id="ellipse14" />
      <ellipse
         cx="80.512001"
         cy="110.38"
         rx="1.2258"
         ry="1.2557"
         fill="#cd002f"
         id="ellipse15" />
    </g>
    <g
       transform="translate(205.75,78.632)"
       id="g19">
      <g
         fill="#cd002f"
         id="g18">
        <ellipse
           cx="93.501999"
           cy="109.03"
           rx="1.2258"
           ry="1.2557"
           id="ellipse16" />
        <ellipse
           cx="102.11"
           cy="108.91"
           rx="1.2258"
           ry="1.2557"
           id="ellipse17" />
        <ellipse
           cx="110.68"
           cy="108.89"
           rx="1.2258"
           ry="1.2557"
           id="ellipse18" />
      </g>
      <path
         d="m 88.997,108.98 c 0,0 2.1338,-4.9825 4.3267,-5.0266 2.1929,-0.0441 4.4539,4.7721 4.4539,4.7721 0,0 1.9845,4.9423 4.1994,5.0266 2.2149,0.0843 4.263,-4.8357 4.263,-4.8357 0,0 2.2438,-4.8641 4.5812,-4.963 2.3374,-0.0989 5.0902,5.5992 5.0902,5.5992"
         fill="none"
         stroke="#25292e"
         stroke-linecap="round"
         stroke-width="0.465"
         id="path18" />
    </g>
    <text
       transform="matrix(0.99863,0,0,1.0014,-1.1458e-5,-4.1667e-8)"
       x="330.3465"
       y="240.61789"
       fill="#607d8b"
       font-family="Menlo"
       font-size="6.7629px"
       stroke-width="0.31701"
       xml:space="preserve"
       id="text19"
       style="fill:#cc4452;fill-opacity:1"><tspan
         x="330.3465"
         y="240.61789"
         fill="#607d8b"
         font-family="Monaco"
         stroke-width="0.31701"
         id="tspan19"
         style="fill:#cc4452;fill-opacity:1">PythTB</tspan></text>
    <text
       x="345.13382"
       y="251.72934"
       fill="#7989a7"
       font-size="3.175px"
       stroke="#202020"
       stroke-linecap="round"
       stroke-width="0.03"
       xml:space="preserve"
       id="text20"><tspan
         stroke-width="0.03"
         id="tspan20" /></text>
  </g>
</svg>
