<svg xmlns="http://www.w3.org/2000/svg" xmlns:xlink="http://www.w3.org/1999/xlink" width="1510" zoomAndPan="magnify" viewBox="0 0 1132.5 353.999987" height="472" preserveAspectRatio="xMidYMid meet" version="1.0"><defs><g/><clipPath id="292d178661"><path d="M 32.945312 229.472656 L 1090.726562 229.472656 L 1090.726562 353.917969 L 32.945312 353.917969 Z M 32.945312 229.472656 " clip-rule="nonzero"/></clipPath></defs><path fill="#ffffff" d="M 120.71875 329.34375 L 60.675781 329.34375 L 97.488281 292.117188 L 157.53125 292.117188 Z M 120.71875 329.34375 " fill-opacity="1" fill-rule="nonzero"/><path fill="#ffffff" d="M 217.574219 292.117188 L 157.53125 292.117188 L 194.339844 254.894531 L 254.382812 254.894531 Z M 217.574219 292.117188 " fill-opacity="1" fill-rule="nonzero"/><path fill="#ffffff" d="M 240.804688 329.34375 L 180.761719 329.34375 L 217.574219 292.117188 L 277.617188 292.117188 Z M 240.804688 329.34375 " fill-opacity="1" fill-rule="nonzero"/><path fill="#ffffff" d="M 337.660156 292.117188 L 277.617188 292.117188 L 314.425781 254.894531 L 374.472656 254.894531 Z M 337.660156 292.117188 " fill-opacity="1" fill-rule="nonzero"/><path fill="#ffffff" d="M 360.894531 329.34375 L 300.851562 329.34375 L 337.660156 292.117188 L 397.703125 292.117188 Z M 360.894531 329.34375 " fill-opacity="1" fill-rule="nonzero"/><path fill="#ffffff" d="M 457.746094 292.117188 L 397.703125 292.117188 L 434.515625 254.894531 L 494.558594 254.894531 Z M 457.746094 292.117188 " fill-opacity="1" fill-rule="nonzero"/><path fill="#ffffff" d="M 480.980469 329.34375 L 420.9375 329.34375 L 457.746094 292.117188 L 517.789062 292.117188 Z M 480.980469 329.34375 " fill-opacity="1" fill-rule="nonzero"/><path fill="#ffffff" d="M 630.632812 329.34375 L 570.589844 329.34375 L 607.402344 292.117188 L 667.445312 292.117188 Z M 630.632812 329.34375 " fill-opacity="1" fill-rule="nonzero"/><path fill="#ffffff" d="M 727.488281 292.117188 L 667.445312 292.117188 L 704.253906 254.894531 L 764.296875 254.894531 Z M 727.488281 292.117188 " fill-opacity="1" fill-rule="nonzero"/><path fill="#ffffff" d="M 750.722656 329.34375 L 690.675781 329.34375 L 727.488281 292.117188 L 787.53125 292.117188 Z M 750.722656 329.34375 " fill-opacity="1" fill-rule="nonzero"/><path fill="#ffffff" d="M 847.574219 292.117188 L 787.53125 292.117188 L 824.34375 254.894531 L 884.386719 254.894531 Z M 847.574219 292.117188 " fill-opacity="1" fill-rule="nonzero"/><path fill="#ffffff" d="M 870.808594 329.34375 L 810.765625 329.34375 L 847.574219 292.117188 L 907.617188 292.117188 Z M 870.808594 329.34375 " fill-opacity="1" fill-rule="nonzero"/><path fill="#ffffff" d="M 967.660156 292.117188 L 907.617188 292.117188 L 944.429688 254.894531 L 1004.472656 254.894531 Z M 967.660156 292.117188 " fill-opacity="1" fill-rule="nonzero"/><path fill="#ffffff" d="M 990.894531 329.34375 L 930.851562 329.34375 L 967.660156 292.117188 L 1027.703125 292.117188 Z M 990.894531 329.34375 " fill-opacity="1" fill-rule="nonzero"/><g clip-path="url(#292d178661)"><path fill="#ffffff" d="M 32.945312 348.40625 C 152.355469 345.730469 273.5625 344.394531 393.023438 343.734375 C 433.03125 343.503906 473.039062 343.289062 513.046875 343.273438 L 509.292969 344.902344 C 535.625 316.519531 588.761719 259.550781 615.25 231.324219 C 615.25 231.324219 616.785156 229.683594 616.785156 229.683594 L 619.019531 229.6875 L 677.988281 229.796875 C 814.886719 230.449219 953.988281 231.613281 1090.777344 234.839844 C 954.007812 238.0625 814.875 239.238281 677.988281 239.882812 C 677.988281 239.882812 619.019531 239.992188 619.019531 239.992188 L 622.785156 238.355469 C 595.664062 267.585938 542.558594 324.476562 515.273438 353.542969 C 354.8125 353.230469 193.378906 351.960938 32.945312 348.40625 Z M 32.945312 348.40625 " fill-opacity="1" fill-rule="nonzero"/></g><g fill="#ffffff" fill-opacity="1"><g transform="translate(32.968981, 180.72839)"><g><path d="M 49.90625 -124.6875 C 63.632812 -124.6875 75.21875 -122.898438 84.65625 -119.328125 C 94.101562 -115.765625 101.765625 -110.71875 107.640625 -104.1875 C 113.515625 -97.65625 117.742188 -89.800781 120.328125 -80.625 C 122.910156 -71.457031 124.203125 -61.21875 124.203125 -49.90625 C 124.203125 -38.375 122.910156 -27.96875 120.328125 -18.6875 C 117.742188 -9.414062 113.515625 -1.539062 107.640625 4.9375 C 101.765625 11.414062 94.101562 16.382812 84.65625 19.84375 C 75.21875 23.300781 63.632812 25.03125 49.90625 25.03125 L 10.046875 25.03125 L 10.046875 -124.6875 Z M 44.46875 1.984375 C 53.800781 1.984375 61.429688 0.96875 67.359375 -1.0625 C 73.296875 -3.101562 77.9375 -6.234375 81.28125 -10.453125 C 84.632812 -14.679688 86.914062 -20.0625 88.125 -26.59375 C 89.332031 -33.132812 89.9375 -40.90625 89.9375 -49.90625 C 89.9375 -58.695312 89.273438 -66.332031 87.953125 -72.8125 C 86.640625 -79.289062 84.28125 -84.671875 80.875 -88.953125 C 77.46875 -93.234375 72.828125 -96.414062 66.953125 -98.5 C 61.078125 -100.582031 53.582031 -101.625 44.46875 -101.625 Z M 44.46875 1.984375 "/></g></g></g><g fill="#ffffff" fill-opacity="1"><g transform="translate(165.400872, 180.72839)"><g><path d="M 49.421875 -43.15625 L 78.578125 -43.15625 C 78.347656 -46.226562 77.929688 -49.191406 77.328125 -52.046875 C 76.722656 -54.898438 75.734375 -57.425781 74.359375 -59.625 C 72.992188 -61.820312 71.128906 -63.578125 68.765625 -64.890625 C 66.410156 -66.210938 63.421875 -66.875 59.796875 -66.875 C 56.941406 -66.875 54.382812 -66.378906 52.125 -65.390625 C 49.875 -64.398438 47.976562 -62.585938 46.4375 -59.953125 C 44.90625 -57.316406 43.703125 -53.75 42.828125 -49.25 C 41.953125 -44.75 41.457031 -39.039062 41.34375 -32.125 C 41.238281 -24.65625 41.539062 -18.445312 42.25 -13.5 C 42.96875 -8.5625 44.117188 -4.632812 45.703125 -1.71875 C 47.296875 1.1875 49.273438 3.242188 51.640625 4.453125 C 54.003906 5.660156 56.722656 6.265625 59.796875 6.265625 C 66.160156 6.265625 70.660156 4.78125 73.296875 1.8125 C 75.929688 -1.15625 77.523438 -5.65625 78.078125 -11.6875 L 112.015625 -11.6875 C 110.910156 2.46875 105.9375 12.726562 97.09375 19.09375 C 88.257812 25.46875 75.828125 28.65625 59.796875 28.65625 C 51.335938 28.65625 43.894531 27.691406 37.46875 25.765625 C 31.050781 23.847656 25.644531 20.640625 21.25 16.140625 C 16.851562 11.640625 13.554688 5.601562 11.359375 -1.96875 C 9.171875 -9.550781 8.078125 -19.050781 8.078125 -30.46875 C 8.078125 -41.125 9.0625 -50.1875 11.03125 -57.65625 C 13.007812 -65.125 16.082031 -71.191406 20.25 -75.859375 C 24.425781 -80.523438 29.78125 -83.953125 36.3125 -86.140625 C 42.851562 -88.335938 50.679688 -89.4375 59.796875 -89.4375 C 69.679688 -89.4375 77.972656 -88.226562 84.671875 -85.8125 C 91.367188 -83.394531 96.75 -79.769531 100.8125 -74.9375 C 104.875 -70.113281 107.753906 -64.160156 109.453125 -57.078125 C 111.160156 -49.992188 112.015625 -41.835938 112.015625 -32.609375 L 112.015625 -22.890625 L 49.421875 -22.734375 Z M 49.421875 -43.15625 "/></g></g></g><g fill="#ffffff" fill-opacity="1"><g transform="translate(283.502461, 180.72839)"><g><path d="M 49.421875 -43.15625 L 78.578125 -43.15625 C 78.347656 -46.226562 77.929688 -49.191406 77.328125 -52.046875 C 76.722656 -54.898438 75.734375 -57.425781 74.359375 -59.625 C 72.992188 -61.820312 71.128906 -63.578125 68.765625 -64.890625 C 66.410156 -66.210938 63.421875 -66.875 59.796875 -66.875 C 56.941406 -66.875 54.382812 -66.378906 52.125 -65.390625 C 49.875 -64.398438 47.976562 -62.585938 46.4375 -59.953125 C 44.90625 -57.316406 43.703125 -53.75 42.828125 -49.25 C 41.953125 -44.75 41.457031 -39.039062 41.34375 -32.125 C 41.238281 -24.65625 41.539062 -18.445312 42.25 -13.5 C 42.96875 -8.5625 44.117188 -4.632812 45.703125 -1.71875 C 47.296875 1.1875 49.273438 3.242188 51.640625 4.453125 C 54.003906 5.660156 56.722656 6.265625 59.796875 6.265625 C 66.160156 6.265625 70.660156 4.78125 73.296875 1.8125 C 75.929688 -1.15625 77.523438 -5.65625 78.078125 -11.6875 L 112.015625 -11.6875 C 110.910156 2.46875 105.9375 12.726562 97.09375 19.09375 C 88.257812 25.46875 75.828125 28.65625 59.796875 28.65625 C 51.335938 28.65625 43.894531 27.691406 37.46875 25.765625 C 31.050781 23.847656 25.644531 20.640625 21.25 16.140625 C 16.851562 11.640625 13.554688 5.601562 11.359375 -1.96875 C 9.171875 -9.550781 8.078125 -19.050781 8.078125 -30.46875 C 8.078125 -41.125 9.0625 -50.1875 11.03125 -57.65625 C 13.007812 -65.125 16.082031 -71.191406 20.25 -75.859375 C 24.425781 -80.523438 29.78125 -83.953125 36.3125 -86.140625 C 42.851562 -88.335938 50.679688 -89.4375 59.796875 -89.4375 C 69.679688 -89.4375 77.972656 -88.226562 84.671875 -85.8125 C 91.367188 -83.394531 96.75 -79.769531 100.8125 -74.9375 C 104.875 -70.113281 107.753906 -64.160156 109.453125 -57.078125 C 111.160156 -49.992188 112.015625 -41.835938 112.015625 -32.609375 L 112.015625 -22.890625 L 49.421875 -22.734375 Z M 49.421875 -43.15625 "/></g></g></g><g fill="#ffffff" fill-opacity="1"><g transform="translate(401.60404, 180.72839)"><g><path d="M 43.65625 47.609375 C 43.65625 51.335938 42.910156 53.890625 41.421875 55.265625 C 39.941406 56.640625 37.28125 57.328125 33.4375 57.328125 L 9.890625 57.328125 L 9.890625 -85.65625 L 37.0625 -85.65625 L 40.6875 -78.234375 C 44.3125 -81.097656 48.398438 -83.546875 52.953125 -85.578125 C 57.515625 -87.609375 62.539062 -88.625 68.03125 -88.625 C 75.601562 -88.625 82.351562 -87.632812 88.28125 -85.65625 C 94.21875 -83.675781 99.1875 -80.378906 103.1875 -75.765625 C 107.195312 -71.160156 110.269531 -65.066406 112.40625 -57.484375 C 114.550781 -49.910156 115.625 -40.578125 115.625 -29.484375 C 115.625 -18.941406 114.632812 -9.9375 112.65625 -2.46875 C 110.6875 5 107.695312 11.09375 103.6875 15.8125 C 99.675781 20.53125 94.675781 23.957031 88.6875 26.09375 C 82.707031 28.238281 75.765625 29.3125 67.859375 29.3125 C 63.910156 29.3125 59.710938 28.570312 55.265625 27.09375 C 50.816406 25.613281 46.945312 23.554688 43.65625 20.921875 Z M 81.859375 -29.484375 C 81.859375 -36.953125 81.363281 -43.046875 80.375 -47.765625 C 79.394531 -52.484375 78.050781 -56.21875 76.34375 -58.96875 C 74.644531 -61.71875 72.585938 -63.582031 70.171875 -64.5625 C 67.753906 -65.550781 65.117188 -66.046875 62.265625 -66.046875 C 56.660156 -66.046875 52.101562 -64.207031 48.59375 -60.53125 C 45.082031 -56.851562 43.328125 -52.050781 43.328125 -46.125 L 43.328125 -12.84375 C 43.328125 -7.03125 45.164062 -2.3125 48.84375 1.3125 C 52.519531 4.9375 57.101562 6.75 62.59375 6.75 C 65.445312 6.75 68.050781 6.226562 70.40625 5.1875 C 72.769531 4.144531 74.800781 2.28125 76.5 -0.40625 C 78.207031 -3.101562 79.523438 -6.785156 80.453125 -11.453125 C 81.390625 -16.117188 81.859375 -22.128906 81.859375 -29.484375 Z M 81.859375 -29.484375 "/></g></g></g><g fill="#ffffff" fill-opacity="1"><g transform="translate(524.482378, 180.72839)"><g><path d="M 60.609375 -124.53125 C 71.378906 -124.53125 80.441406 -123.179688 87.796875 -120.484375 C 95.148438 -117.796875 101.101562 -114.144531 105.65625 -109.53125 C 110.21875 -104.925781 113.488281 -99.492188 115.46875 -93.234375 C 117.445312 -86.972656 118.4375 -80.328125 118.4375 -73.296875 C 118.4375 -64.515625 116.84375 -56.332031 113.65625 -48.75 C 110.46875 -41.175781 105.25 -34.921875 98 -29.984375 L 123.875 25.03125 L 88.953125 25.03125 L 67.53125 -20.59375 C 66.4375 -20.476562 65.335938 -20.421875 64.234375 -20.421875 C 63.140625 -20.421875 61.988281 -20.421875 60.78125 -20.421875 L 44.796875 -20.421875 L 44.796875 15.3125 C 44.796875 19.050781 44.054688 21.601562 42.578125 22.96875 C 41.097656 24.34375 38.4375 25.03125 34.59375 25.03125 L 10.21875 25.03125 L 10.21875 -124.53125 Z M 57.8125 -43.65625 C 62.539062 -43.65625 66.601562 -44.503906 70 -46.203125 C 73.40625 -47.898438 76.175781 -50.125 78.3125 -52.875 C 80.457031 -55.625 82.023438 -58.78125 83.015625 -62.34375 C 84.003906 -65.914062 84.5 -69.515625 84.5 -73.140625 C 84.5 -76.648438 84.003906 -80.109375 83.015625 -83.515625 C 82.023438 -86.921875 80.429688 -89.941406 78.234375 -92.578125 C 76.046875 -95.210938 73.25 -97.351562 69.84375 -99 C 66.4375 -100.644531 62.375 -101.46875 57.65625 -101.46875 L 44.796875 -101.46875 L 44.796875 -43.65625 Z M 57.8125 -43.65625 "/></g></g></g><g fill="#ffffff" fill-opacity="1"><g transform="translate(652.137498, 180.72839)"><g><path d="M 81.859375 25.859375 L 73.625 19.109375 C 70 22.515625 65.6875 24.957031 60.6875 26.4375 C 55.695312 27.914062 50.785156 28.65625 45.953125 28.65625 C 39.472656 28.65625 33.875 27.75 29.15625 25.9375 C 24.4375 24.125 20.566406 21.65625 17.546875 18.53125 C 14.523438 15.40625 12.328125 11.695312 10.953125 7.40625 C 9.578125 3.125 9 -1.539062 9.21875 -6.59375 C 9.4375 -12.851562 11.109375 -18.34375 14.234375 -23.0625 C 17.367188 -27.78125 21.738281 -31.703125 27.34375 -34.828125 C 32.945312 -37.960938 39.644531 -40.40625 47.4375 -42.15625 C 55.238281 -43.914062 63.96875 -44.960938 73.625 -45.296875 L 73.625 -53.703125 C 73.625 -58.421875 72.71875 -62.066406 70.90625 -64.640625 C 69.09375 -67.222656 65.71875 -68.515625 60.78125 -68.515625 C 56.820312 -68.515625 53.691406 -67.664062 51.390625 -65.96875 C 49.085938 -64.269531 47.769531 -60.835938 47.4375 -55.671875 L 13.171875 -55.671875 C 13.285156 -61.828125 14.601562 -67.046875 17.125 -71.328125 C 19.65625 -75.609375 23.0625 -79.117188 27.34375 -81.859375 C 31.625 -84.609375 36.675781 -86.585938 42.5 -87.796875 C 48.320312 -89.003906 54.632812 -89.660156 61.4375 -89.765625 C 69.894531 -89.878906 77.03125 -89.113281 82.84375 -87.46875 C 88.664062 -85.820312 93.363281 -83.597656 96.9375 -80.796875 C 100.507812 -77.992188 103.085938 -74.804688 104.671875 -71.234375 C 106.265625 -67.671875 107.0625 -64.019531 107.0625 -60.28125 L 107.0625 25.859375 Z M 51.5625 7.734375 C 55.289062 7.734375 58.910156 7.265625 62.421875 6.328125 C 65.941406 5.398438 69.675781 3.785156 73.625 1.484375 L 73.625 -23.890625 C 69.34375 -23.773438 65.332031 -23.359375 61.59375 -22.640625 C 57.863281 -21.929688 54.597656 -20.890625 51.796875 -19.515625 C 49.003906 -18.140625 46.78125 -16.351562 45.125 -14.15625 C 43.476562 -11.96875 42.601562 -9.335938 42.5 -6.265625 C 42.28125 -1.316406 42.960938 2.25 44.546875 4.4375 C 46.140625 6.632812 48.476562 7.734375 51.5625 7.734375 Z M 51.5625 7.734375 "/></g></g></g><g fill="#ffffff" fill-opacity="1"><g transform="translate(770.239053, 180.72839)"><g><path d="M 41.015625 -30.46875 C 41.015625 -23.882812 41.285156 -18.285156 41.828125 -13.671875 C 42.378906 -9.054688 43.3125 -5.265625 44.625 -2.296875 C 45.945312 0.660156 47.734375 2.828125 49.984375 4.203125 C 52.242188 5.578125 55.128906 6.265625 58.640625 6.265625 C 61.828125 6.265625 64.488281 5.878906 66.625 5.109375 C 68.769531 4.335938 70.472656 3.15625 71.734375 1.5625 C 72.992188 -0.03125 73.953125 -2.0625 74.609375 -4.53125 C 75.273438 -7 75.71875 -9.988281 75.9375 -13.5 L 109.875 -13.5 C 109.320312 -6.039062 107.863281 0.347656 105.5 5.671875 C 103.144531 11.003906 99.820312 15.375 95.53125 18.78125 C 91.25 22.1875 86.035156 24.679688 79.890625 26.265625 C 73.742188 27.859375 66.660156 28.65625 58.640625 28.65625 C 50.179688 28.65625 42.765625 27.691406 36.390625 25.765625 C 30.023438 23.847656 24.703125 20.640625 20.421875 16.140625 C 16.140625 11.640625 12.925781 5.601562 10.78125 -1.96875 C 8.644531 -9.550781 7.578125 -19.050781 7.578125 -30.46875 C 7.578125 -41.125 8.59375 -50.1875 10.625 -57.65625 C 12.65625 -65.125 15.785156 -71.21875 20.015625 -75.9375 C 24.242188 -80.65625 29.539062 -84.082031 35.90625 -86.21875 C 42.28125 -88.363281 49.859375 -89.4375 58.640625 -89.4375 C 67.097656 -89.4375 74.425781 -88.554688 80.625 -86.796875 C 86.832031 -85.046875 91.992188 -82.441406 96.109375 -78.984375 C 100.234375 -75.523438 103.390625 -71.210938 105.578125 -66.046875 C 107.773438 -60.890625 109.148438 -54.90625 109.703125 -48.09375 L 76.265625 -48.09375 C 76.046875 -51.164062 75.601562 -53.851562 74.9375 -56.15625 C 74.28125 -58.46875 73.265625 -60.421875 71.890625 -62.015625 C 70.523438 -63.609375 68.769531 -64.816406 66.625 -65.640625 C 64.488281 -66.460938 61.828125 -66.875 58.640625 -66.875 C 55.128906 -66.875 52.242188 -66.1875 49.984375 -64.8125 C 47.734375 -63.445312 45.945312 -61.304688 44.625 -58.390625 C 43.3125 -55.484375 42.378906 -51.722656 41.828125 -47.109375 C 41.285156 -42.492188 41.015625 -36.945312 41.015625 -30.46875 Z M 41.015625 -30.46875 "/></g></g></g><g fill="#ffffff" fill-opacity="1"><g transform="translate(888.340653, 180.72839)"><g><path d="M 49.421875 -43.15625 L 78.578125 -43.15625 C 78.347656 -46.226562 77.929688 -49.191406 77.328125 -52.046875 C 76.722656 -54.898438 75.734375 -57.425781 74.359375 -59.625 C 72.992188 -61.820312 71.128906 -63.578125 68.765625 -64.890625 C 66.410156 -66.210938 63.421875 -66.875 59.796875 -66.875 C 56.941406 -66.875 54.382812 -66.378906 52.125 -65.390625 C 49.875 -64.398438 47.976562 -62.585938 46.4375 -59.953125 C 44.90625 -57.316406 43.703125 -53.75 42.828125 -49.25 C 41.953125 -44.75 41.457031 -39.039062 41.34375 -32.125 C 41.238281 -24.65625 41.539062 -18.445312 42.25 -13.5 C 42.96875 -8.5625 44.117188 -4.632812 45.703125 -1.71875 C 47.296875 1.1875 49.273438 3.242188 51.640625 4.453125 C 54.003906 5.660156 56.722656 6.265625 59.796875 6.265625 C 66.160156 6.265625 70.660156 4.78125 73.296875 1.8125 C 75.929688 -1.15625 77.523438 -5.65625 78.078125 -11.6875 L 112.015625 -11.6875 C 110.910156 2.46875 105.9375 12.726562 97.09375 19.09375 C 88.257812 25.46875 75.828125 28.65625 59.796875 28.65625 C 51.335938 28.65625 43.894531 27.691406 37.46875 25.765625 C 31.050781 23.847656 25.644531 20.640625 21.25 16.140625 C 16.851562 11.640625 13.554688 5.601562 11.359375 -1.96875 C 9.171875 -9.550781 8.078125 -19.050781 8.078125 -30.46875 C 8.078125 -41.125 9.0625 -50.1875 11.03125 -57.65625 C 13.007812 -65.125 16.082031 -71.191406 20.25 -75.859375 C 24.425781 -80.523438 29.78125 -83.953125 36.3125 -86.140625 C 42.851562 -88.335938 50.679688 -89.4375 59.796875 -89.4375 C 69.679688 -89.4375 77.972656 -88.226562 84.671875 -85.8125 C 91.367188 -83.394531 96.75 -79.769531 100.8125 -74.9375 C 104.875 -70.113281 107.753906 -64.160156 109.453125 -57.078125 C 111.160156 -49.992188 112.015625 -41.835938 112.015625 -32.609375 L 112.015625 -22.890625 L 49.421875 -22.734375 Z M 49.421875 -43.15625 "/></g></g></g><g fill="#ffffff" fill-opacity="1"><g transform="translate(1006.442254, 180.72839)"><g><path d="M 43.984375 -86.640625 L 43.984375 -80.375 C 48.484375 -82.90625 53.640625 -84.992188 59.453125 -86.640625 C 65.273438 -88.285156 70.820312 -89.109375 76.09375 -89.109375 C 77.96875 -89.109375 79.8125 -89 81.625 -88.78125 C 83.4375 -88.5625 85.21875 -88.125 86.96875 -87.46875 L 86.96875 -65.234375 C 85.539062 -65.335938 83.921875 -65.441406 82.109375 -65.546875 C 80.296875 -65.660156 78.785156 -65.71875 77.578125 -65.71875 C 71.429688 -65.71875 65.804688 -64.945312 60.703125 -63.40625 C 55.597656 -61.875 50.023438 -59.679688 43.984375 -56.828125 L 43.984375 15.3125 C 43.984375 19.050781 43.238281 21.601562 41.75 22.96875 C 40.269531 24.34375 37.609375 25.03125 33.765625 25.03125 L 9.890625 25.03125 L 9.890625 -86.640625 Z M 43.984375 -86.640625 "/></g></g></g></svg>