<?xml version="1.0" encoding="UTF-8" standalone="no"?>
<svg
   version="1.1"
   viewBox="0 0 6.374818383891665 6.6213154567324475"
   id="svg8"
   sodipodi:docname="logo.svg"
   inkscape:version="1.3 (0e150ed6c4, 2023-07-21)"
   xmlns:inkscape="http://www.inkscape.org/namespaces/inkscape"
   xmlns:sodipodi="http://sodipodi.sourceforge.net/DTD/sodipodi-0.dtd"
   xmlns="http://www.w3.org/2000/svg"
   xmlns:svg="http://www.w3.org/2000/svg">
  <sodipodi:namedview
     id="namedview8"
     pagecolor="#ffffff"
     bordercolor="#666666"
     borderopacity="1.0"
     inkscape:showpageshadow="2"
     inkscape:pageopacity="0.0"
     inkscape:pagecheckerboard="0"
     inkscape:deskcolor="#d1d1d1"
     inkscape:zoom="181.78363"
     inkscape:cx="3.3693903"
     inkscape:cy="5.3992761"
     inkscape:window-width="1920"
     inkscape:window-height="1011"
     inkscape:window-x="0"
     inkscape:window-y="0"
     inkscape:window-maximized="1"
     inkscape:current-layer="g7" />
  <g
     transform="matrix(1,0,0,1,0.5413886841333331,4.533426772599114)"
     id="g7">
    <g
       id="g1">
      <path
         d=" M 1.2750000000000001 0.3442499999999997 Q 1.35 0.3839999999999997 1.3935 0.4634999999999997 Q 1.437 0.5429999999999997 1.437 0.6569999999999998 L 1.437 1.1414999999999997 L 1.302 1.1414999999999997 L 1.302 0.6764999999999997 Q 1.302 0.5534999999999998 1.24125 0.48824999999999974 Q 1.1805 0.4229999999999997 1.077 0.4229999999999997 Q 0.9705 0.4229999999999997 0.9075 0.49124999999999974 Q 0.8445 0.5594999999999998 0.8445 0.6884999999999997 L 0.8445 1.1414999999999997 L 0.7095 1.1414999999999997 L 0.7095 0.6764999999999997 Q 0.7095 0.5534999999999998 0.64875 0.48824999999999974 Q 0.588 0.4229999999999997 0.4845 0.4229999999999997 Q 0.378 0.4229999999999997 0.315 0.49124999999999974 Q 0.252 0.5594999999999998 0.252 0.6884999999999997 L 0.252 1.1414999999999997 L 0.1155 1.1414999999999997 L 0.1155 0.3194999999999997 L 0.252 0.3194999999999997 L 0.252 0.4379999999999997 Q 0.2925 0.3734999999999997 0.36075 0.33899999999999975 Q 0.429 0.30449999999999977 0.5115000000000001 0.30449999999999977 Q 0.615 0.30449999999999977 0.6945 0.35099999999999976 Q 0.774 0.39749999999999974 0.8130000000000001 0.4874999999999997 Q 0.8475 0.40049999999999975 0.927 0.3524999999999997 Q 1.0065 0.30449999999999977 1.104 0.30449999999999977 Q 1.2 0.30449999999999977 1.2750000000000001 0.3442499999999997 M 1.8247939453125002 1.1024999999999998 Q 1.7310439453125002 1.0499999999999998 1.6777939453125001 0.9532499999999997 Q 1.6245439453125001 0.8564999999999997 1.6245439453125001 0.7289999999999996 Q 1.6245439453125001 0.6029999999999998 1.6792939453125002 0.5062499999999998 Q 1.7340439453125 0.40949999999999975 1.8285439453125 0.3577499999999997 Q 1.9230439453125001 0.3059999999999997 2.0400439453125 0.3059999999999997 Q 2.1570439453125 0.3059999999999997 2.2515439453125 0.3577499999999997 Q 2.3460439453125 0.40949999999999975 2.4007939453125 0.5054999999999997 Q 2.4555439453125003 0.6014999999999997 2.4555439453125003 0.7289999999999996 Q 2.4555439453125003 0.8564999999999997 2.3992939453125004 0.9532499999999997 Q 2.3430439453125 1.0499999999999998 2.2470439453125 1.1024999999999998 Q 2.1510439453125 1.1549999999999998 2.0340439453125003 1.1549999999999998 Q 1.9185439453125002 1.1549999999999998 1.8247939453125002 1.1024999999999998 M 2.1720439453125002 1.0004999999999997 Q 2.2365439453125 0.9659999999999997 2.2762939453125 0.8969999999999998 Q 2.3160439453125 0.8279999999999997 2.3160439453125 0.7289999999999996 Q 2.3160439453125 0.6299999999999997 2.2770439453125 0.5609999999999997 Q 2.2380439453125 0.49199999999999977 2.1750439453125 0.4582499999999997 Q 2.1120439453125 0.42449999999999977 2.0385439453125 0.42449999999999977 Q 1.9635439453125 0.42449999999999977 1.9012939453125002 0.4582499999999997 Q 1.8390439453125 0.49199999999999977 1.8015439453125002 0.5609999999999997 Q 1.7640439453125 0.6299999999999997 1.7640439453125 0.7289999999999996 Q 1.7640439453125 0.8294999999999997 1.8007939453125001 0.8984999999999997 Q 1.8375439453125002 0.9674999999999997 1.8990439453125 1.0012499999999998 Q 1.9605439453125002 1.0349999999999997 2.0340439453125003 1.0349999999999997 Q 2.1075439453125 1.0349999999999997 2.1720439453125002 1.0004999999999997 M 2.79981591796875 1.1024999999999998 Q 2.70606591796875 1.0499999999999998 2.6528159179687503 0.9532499999999997 Q 2.59956591796875 0.8564999999999997 2.59956591796875 0.7289999999999996 Q 2.59956591796875 0.6029999999999998 2.6543159179687503 0.5062499999999998 Q 2.70906591796875 0.40949999999999975 2.80356591796875 0.3577499999999997 Q 2.8980659179687502 0.3059999999999997 3.0150659179687502 0.3059999999999997 Q 3.1320659179687502 0.3059999999999997 3.2265659179687503 0.3577499999999997 Q 3.3210659179687503 0.40949999999999975 3.37581591796875 0.5054999999999997 Q 3.4305659179687504 0.6014999999999997 3.4305659179687504 0.7289999999999996 Q 3.4305659179687504 0.8564999999999997 3.37431591796875 0.9532499999999997 Q 3.31806591796875 1.0499999999999998 3.2220659179687505 1.1024999999999998 Q 3.1260659179687504 1.1549999999999998 3.0090659179687504 1.1549999999999998 Q 2.89356591796875 1.1549999999999998 2.79981591796875 1.1024999999999998 M 3.1470659179687503 1.0004999999999997 Q 3.21156591796875 0.9659999999999997 3.2513159179687503 0.8969999999999998 Q 3.2910659179687505 0.8279999999999997 3.2910659179687505 0.7289999999999996 Q 3.2910659179687505 0.6299999999999997 3.2520659179687503 0.5609999999999997 Q 3.21306591796875 0.49199999999999977 3.1500659179687505 0.4582499999999997 Q 3.0870659179687503 0.42449999999999977 3.01356591796875 0.42449999999999977 Q 2.9385659179687504 0.42449999999999977 2.8763159179687503 0.4582499999999997 Q 2.81406591796875 0.49199999999999977 2.77656591796875 0.5609999999999997 Q 2.7390659179687504 0.6299999999999997 2.7390659179687504 0.7289999999999996 Q 2.7390659179687504 0.8294999999999997 2.77581591796875 0.8984999999999997 Q 2.81256591796875 0.9674999999999997 2.87406591796875 1.0012499999999998 Q 2.9355659179687503 1.0349999999999997 3.0090659179687504 1.0349999999999997 Q 3.08256591796875 1.0349999999999997 3.1470659179687503 1.0004999999999997 M 4.151337890625 0.3524999999999997 Q 4.231587890625001 0.3989999999999997 4.270587890625 0.4694999999999997 L 4.270587890625 0.3194999999999997 L 4.408587890625 0.3194999999999997 L 4.408587890625 1.1594999999999998 Q 4.408587890625 1.2719999999999998 4.360587890625 1.3597499999999998 Q 4.312587890625 1.4474999999999998 4.223337890625 1.4969999999999997 Q 4.1340878906250005 1.5464999999999998 4.015587890625 1.5464999999999998 Q 3.8535878906250005 1.5464999999999998 3.7455878906250004 1.4699999999999998 Q 3.6375878906250003 1.3934999999999997 3.6180878906250005 1.2614999999999998 L 3.7530878906250003 1.2614999999999998 Q 3.775587890625 1.3364999999999998 3.8460878906250002 1.3822499999999998 Q 3.9165878906250002 1.4279999999999997 4.015587890625 1.4279999999999997 Q 4.128087890625 1.4279999999999997 4.199337890625 1.3574999999999997 Q 4.270587890625 1.2869999999999997 4.270587890625 1.1594999999999998 L 4.270587890625 0.9869999999999998 Q 4.230087890625001 1.0589999999999997 4.150587890625 1.1069999999999998 Q 4.071087890625001 1.1549999999999998 3.9645878906250003 1.1549999999999998 Q 3.8550878906250006 1.1549999999999998 3.7658378906250003 1.1009999999999998 Q 3.6765878906250005 1.0469999999999997 3.6255878906250003 0.9494999999999998 Q 3.5745878906250006 0.8519999999999998 3.5745878906250006 0.7274999999999997 Q 3.5745878906250006 0.6014999999999997 3.6255878906250003 0.5062499999999998 Q 3.6765878906250005 0.4109999999999997 3.7658378906250003 0.3584999999999997 Q 3.8550878906250006 0.3059999999999997 3.9645878906250003 0.3059999999999997 Q 4.071087890625001 0.3059999999999997 4.151337890625 0.3524999999999997 M 4.233087890625001 0.5669999999999997 Q 4.195587890625 0.4979999999999998 4.131837890625 0.4612499999999997 Q 4.068087890625001 0.42449999999999977 3.9915878906250004 0.42449999999999977 Q 3.915087890625 0.42449999999999977 3.8520878906250005 0.4604999999999997 Q 3.7890878906250003 0.4964999999999997 3.751587890625 0.5654999999999997 Q 3.7140878906250006 0.6344999999999997 3.7140878906250006 0.7274999999999997 Q 3.7140878906250006 0.8219999999999997 3.751587890625 0.8917499999999997 Q 3.7890878906250003 0.9614999999999998 3.8520878906250005 0.9982499999999997 Q 3.915087890625 1.0349999999999997 3.9915878906250004 1.0349999999999997 Q 4.068087890625001 1.0349999999999997 4.131837890625 0.9982499999999997 Q 4.195587890625 0.9614999999999998 4.233087890625001 0.8917499999999997 Q 4.270587890625 0.8219999999999997 4.270587890625 0.7289999999999996 Q 4.270587890625 0.6359999999999997 4.233087890625001 0.5669999999999997 M 4.7911259765625 0.03149999999999964 L 4.7911259765625 1.1414999999999997 L 4.6546259765625 1.1414999999999997 L 4.6546259765625 0.03149999999999964 L 4.7911259765625 0.03149999999999964 M 5.04308349609375 0.1589999999999997 Q 5.01608349609375 0.13199999999999967 5.01608349609375 0.09299999999999975 Q 5.01608349609375 0.053999999999999604 5.04308349609375 0.02699999999999969 Q 5.07008349609375 -2.220446049250313e-16 5.10908349609375 -2.220446049250313e-16 Q 5.14658349609375 -2.220446049250313e-16 5.17283349609375 0.02699999999999969 Q 5.19908349609375 0.053999999999999604 5.19908349609375 0.09299999999999975 Q 5.19908349609375 0.13199999999999967 5.17283349609375 0.1589999999999997 Q 5.14658349609375 0.18599999999999972 5.10908349609375 0.18599999999999972 Q 5.07008349609375 0.18599999999999972 5.04308349609375 0.1589999999999997 M 5.17508349609375 0.3194999999999997 L 5.17508349609375 1.1414999999999997 L 5.03858349609375 1.1414999999999997 L 5.03858349609375 0.3194999999999997 L 5.17508349609375 0.3194999999999997"
         fill="#173054"
         fill-rule="nonzero"
         id="path1" />
    </g>
    <g
       id="g2" />
    <g
       clip-path="url(#SvgjsClipPath1012)"
       id="g6">
      <g
         clip-path="url(#SvgjsClipPath1008c6866c52-9d47-489b-8b57-4ac50b80cb5a)"
         id="g3">
        <path
           d=" M 2.6858258689178633 -1.7459330793404364 C 3.279584745952516 -2.1164386186100552 3.107225026219021 -2.921236365082163 2.5063410426599653 -3.4135472968406035 C 3.4607660261447974 -2.109313512085647 2.381142742302372 -1.4208925055123305 1.8616885475937734 -1.9807223038592823 C 2.5440023200032975 -2.223654507263174 2.2145509659457883 -3.311760060777521 1.386681445966062 -3.97337709518756 C 3.669769150860993 -4.232595256361538 4.608247467362615 -1.6784142127519255 2.6858258689178633 -1.7459330793404364 Z"
           fill="#225777"
           transform="matrix(1,0,0,1,0,0)"
           fill-rule="evenodd"
           id="path2" />
      </g>
      <g
         clip-path="url(#SvgjsClipPath1008c6866c52-9d47-489b-8b57-4ac50b80cb5a)"
         id="g4">
        <path
           d=" M 1.7839909573989632 -3.1180250214707845 C 1.166481725282935 -3.4471370847414184 0.5554190181175584 -2.8954502652795124 0.4295421361862141 -2.1286530869376294 C 1.0819983193505704 -3.60762162693421 2.217604583027695 -3.0169163669814587 1.9923155005414077 -2.288119756769789 C 1.4406286810794966 -2.7576982058074755 0.6629741975575472 -1.9284715226802307 0.5045254000860198 -0.8793844096567294 C -0.8597628539461583 -2.7264834534148 0.8814774643062909 -4.816514700576752 1.7839909573989632 -3.1180250214707845 Z"
           fill="#173054"
           transform="matrix(1,0,0,1,0,0)"
           fill-rule="evenodd"
           id="path3" />
      </g>
      <g
         clip-path="url(#SvgjsClipPath1008c6866c52-9d47-489b-8b57-4ac50b80cb5a)"
         id="g5">
        <path
           d=" M 1.0467120775153722 -1.650931659014892 C 1.0708017233836287 -0.9516533472615145 1.8538848594956088 -0.698203129464448 2.5809850157728897 -0.9723500852610152 C 0.9737645583368201 -0.7976153300193856 0.9184601600758829 -2.076741596545453 1.6615069833363747 -2.246047699197052 C 1.5308800303887617 -1.533537046755474 2.6376465771813398 -1.2746581763683666 3.6256613485669873 -1.6617889641949581 C 2.708558351638628 0.4445282407370956 0.027143262950152538 -0.01996084649744123 1.0467120775153722 -1.650931659014892 Z"
           fill="#173054"
           transform="matrix(1,0,0,1,0,0)"
           fill-rule="evenodd"
           id="path4" />
      </g>
    </g>
    <path
       style="fill:#296f04;stroke-width:0.00858796;fill-opacity:1"
       d="M 2.1598714,4.2759579 C 1.7419666,4.2335509 1.4634778,4.0323141 1.3817382,3.7136764 1.3742297,3.6844065 1.3698697,3.6223152 1.3700221,3.5468266 1.3702303,3.443781 1.3736757,3.4133805 1.3941262,3.3341455 1.428409,3.2013176 1.4961861,3.0413503 1.5655104,2.9296457 l 0.020604,-0.0332 0.00529,0.058964 c 0.0077,0.085833 0.028729,0.1603375 0.069973,0.2478987 0.1065757,0.2262582 0.3192724,0.3788253 0.6187267,0.443812 0.1123123,0.024374 0.3301848,0.030105 0.4654244,0.012244 0.113594,-0.015003 0.2733853,-0.05325 0.3418436,-0.081823 l 0.04294,-0.017922 -0.08588,0.00592 C 2.6403567,3.5934101 2.3113155,3.5341312 2.0810952,3.391991 1.9947664,3.3386907 1.8769192,3.2213592 1.8312034,3.1431926 1.6588853,2.8485562 1.7630698,2.4924974 2.0650772,2.3439105 c 0.04269,-0.021003 0.089212,-0.040381 0.1033821,-0.043062 l 0.025764,-0.00487 -0.00292,0.08546 C 2.1820933,2.6510537 2.3526252,2.8547085 2.6838424,2.969656 2.8681922,3.033634 3.055203,3.057768 3.3100402,3.05047 3.5734111,3.04293 3.8263562,2.996826 4.0663137,2.9126338 4.1135017,2.8960768 4.1532497,2.8836698 4.1546427,2.8850628 4.1596827,2.8901028 4.0212268,3.1537905 3.9717479,3.233371 3.6277879,3.7865871 3.0874145,4.1675154 2.51627,4.2593889 2.434,4.2726229 2.2234458,4.2824139 2.1598698,4.2759629 Z"
       id="path9"
       transform="translate(-0.54138868,-4.5334268)" />
    <path
       style="fill:#296f04;fill-opacity:1;stroke-width:0.00858796"
       d="M 0.98591386,3.5591551 C 0.84316127,3.3536578 0.71277025,3.0852707 0.64522637,2.8579094 0.57872434,2.6340551 0.5496293,2.4381545 0.5496293,2.2142424 c 0,-0.227485 0.0280354,-0.4064839 0.095273,-0.6082943 0.13332063,-0.4001552 0.3887545,-0.69073472 0.6905251,-0.78553592 0.075682,-0.0237756 0.2111594,-0.0321445 0.2921223,-0.0180454 0.2315348,0.0403201 0.4579318,0.22386202 0.6353499,0.51508372 0.025994,0.042667 0.047261,0.079411 0.047261,0.081653 0,0.00224 -0.021194,-0.00563 -0.047098,-0.017485 C 2.1729807,1.3403778 2.10562,1.3254546 1.9880094,1.3206832 1.8088606,1.3134151 1.6743969,1.351452 1.5220645,1.4524891 1.2702043,1.6195397 1.0758593,1.9268973 0.98789604,2.2972787 c -0.0295354,0.124363 -0.020928,0.121222 0.0492588,-0.017976 0.2536048,-0.5029609 0.591673,-0.7826929 0.9466635,-0.7833096 0.098272,-1.707e-4 0.1668201,0.01614 0.2654415,0.063159 0.1009444,0.048127 0.197789,0.1449321 0.2487149,0.2486123 0.059477,0.1210884 0.075342,0.2629646 0.043533,0.3892887 L 2.531727,2.2358983 2.490655,2.2063911 C 2.1706094,1.9764612 1.7497299,2.1535578 1.4108702,2.6607401 1.2577428,2.8899309 1.1275091,3.2152806 1.0657447,3.5229319 l -0.02354,0.1172554 z"
       id="path10"
       transform="translate(-0.54138868,-4.5334268)" />
    <path
       style="fill:#8cc850;fill-opacity:1;stroke-width:0.00858796"
       d="M 3.267718,2.7680189 C 3.4349692,2.6390135 3.5159839,2.5274717 3.5693881,2.3526767 3.5908471,2.2824401 3.592897,2.2635846 3.5931506,2.1341075 3.5933966,2.0085031 3.5908195,1.9819998 3.5704647,1.9007979 3.5175337,1.6896403 3.4139896,1.4970712 3.254836,1.313799 3.1883466,1.2372335 3.0596029,1.1155759 3.0525407,1.1226381 c -0.0022,0.0022 0.029159,0.053876 0.069687,0.1148356 0.085759,0.1289946 0.1972448,0.3503352 0.2353388,0.4672359 0.077401,0.2375231 0.0857,0.4415889 0.025303,0.6221881 C 3.3141792,2.5322982 3.1637574,2.6763903 2.9649422,2.7272386 2.785874,2.7730365 2.6027026,2.7236747 2.4439736,2.5868457 l -0.033652,-0.029009 0.068004,-0.033509 C 2.6116982,2.4586089 2.7128384,2.331393 2.7544233,2.1770473 2.7754861,2.0988709 2.7754035,1.8912024 2.7542697,1.7905892 2.698156,1.5234456 2.5435606,1.2172802 2.3314118,0.953149 2.2538483,0.85658026 2.0954627,0.69361183 2.0041209,0.61638814 l -0.061283,-0.0518109 0.039813,-0.005537 c 0.021897,-0.003045 0.1055109,-0.007884 0.1858083,-0.0107516 0.6260324,-0.0223609 1.223669,0.19046798 1.6299956,0.58046996 0.2340687,0.2246649 0.3838249,0.475915 0.4405494,0.7391221 0.021156,0.098165 0.021146,0.2728962 -1.96e-5,0.3564003 C 4.2119767,2.3308332 4.1565403,2.432753 4.08317,2.5107461 3.9194335,2.6847991 3.7002025,2.7672573 3.3605219,2.7825524 l -0.1185678,0.00534 z"
       id="path11"
       transform="translate(-0.54138868,-4.5334268)" />
    <path
       style="fill:#8cc850;fill-opacity:1;stroke-width:0.00858796"
       d="M 2.4455236,5.6642575 C 2.2762836,5.6101557 2.1727533,5.4583962 2.1727533,5.2644181 c 0,-0.2491992 0.1643235,-0.4172966 0.407928,-0.4172966 0.1267101,0 0.2220423,0.037939 0.2971804,0.1182677 0.086095,0.092043 0.1147329,0.1762645 0.1087791,0.3199133 -0.00444,0.107087 -0.022967,0.1631736 -0.079089,0.2394107 -0.04493,0.061033 -0.1227705,0.1151688 -0.1998149,0.1389653 -0.073009,0.02255 -0.192657,0.022814 -0.2622133,5.79e-4 z M 2.6819491,5.552046 c 0.065604,-0.024545 0.1120126,-0.0678 0.1452753,-0.1354012 0.027008,-0.054889 0.028272,-0.061879 0.028272,-0.1563698 0,-0.090495 -0.00201,-0.1030004 -0.023591,-0.1469489 C 2.7802218,5.0080867 2.6987253,4.9572886 2.5803705,4.9565406 c -0.062578,-3.955e-4 -0.076788,0.00267 -0.1269147,0.027343 -0.1007525,0.0496 -0.1515372,0.1421425 -0.1517812,0.2765827 -1.941e-4,0.1069855 0.04196,0.2108435 0.1042776,0.256917 0.071872,0.053137 0.1877284,0.067688 0.2759969,0.034663 z"
       id="path12"
       transform="translate(-0.54138868,-4.5334268)" />
    <path
       style="fill:#8cc850;fill-opacity:1;stroke-width:0.00858796"
       d="m 5.5821726,5.2644181 v -0.407928 h 0.06441 0.06441 v 0.407928 0.407928 h -0.06441 -0.06441 z"
       id="path13"
       transform="translate(-0.54138868,-4.5334268)" />
    <path
       style="fill:#8cc850;fill-opacity:1;stroke-width:0.00858796"
       d="m 5.5900999,4.6853916 c -0.052091,-0.052091 -0.023709,-0.1341299 0.049815,-0.1439915 0.033002,-0.00443 0.038957,-0.00215 0.066543,0.025436 0.033591,0.033591 0.038213,0.060501 0.017327,0.1008908 -0.026191,0.050647 -0.092006,0.059344 -0.133685,0.017665 z"
       id="path14"
       transform="translate(-0.54138868,-4.5334268)" />
    <path
       style="fill:#8cc850;fill-opacity:1;stroke-width:0.00858796"
       d=""
       id="path15"
       transform="translate(-0.54138868,-4.5334268)" />
    <path
       style="fill:#8cc850;fill-opacity:1;stroke-width:0.00858796"
       d="M 2.4431619,5.6573325 C 2.3132871,5.6111134 2.2191291,5.506357 2.1897903,5.3754417 c -0.011959,-0.053362 -0.011956,-0.1686973 5.1e-6,-0.2220699 0.041595,-0.1856062 0.1947,-0.3003129 0.3994739,-0.2992873 0.1650489,8.266e-4 0.2897802,0.079103 0.3596361,0.2256926 0.02407,0.050509 0.026898,0.065289 0.029721,0.1553022 0.00399,0.1271533 -0.01056,0.1887813 -0.062675,0.2655077 -0.042681,0.062837 -0.097816,0.1086247 -0.1727743,0.1434808 -0.045127,0.020984 -0.062456,0.023925 -0.1539081,0.026116 -0.081753,0.00196 -0.1119546,-6.975e-4 -0.1461071,-0.012851 z M 2.6910826,5.5518419 c 0.052335,-0.019581 0.1110726,-0.075782 0.1442936,-0.1380617 0.018245,-0.034204 0.02012,-0.048523 0.02012,-0.153656 0,-0.1153775 -1.36e-4,-0.1161727 -0.028155,-0.1646425 -0.032964,-0.057025 -0.075764,-0.097046 -0.1302863,-0.1218264 -0.056672,-0.025757 -0.1779264,-0.025677 -0.2338199,1.54e-4 -0.05675,0.026228 -0.1133368,0.081577 -0.1370729,0.1340757 -0.017859,0.0395 -0.020296,0.057778 -0.020296,0.1522392 0,0.099738 0.00172,0.1110797 0.024312,0.1599602 0.048012,0.1038961 0.1204207,0.1481022 0.2437393,0.1488046 0.050661,2.885e-4 0.083666,-0.00451 0.1171652,-0.017047 z"
       id="path16"
       transform="translate(-0.54138868,-4.5334268)" />
    <path
       style="fill:#296f04;fill-opacity:1;stroke-width:0.00858796"
       d=""
       id="path17"
       transform="translate(-0.54138868,-4.5334268)" />
    <path
       style="fill:#296f04;fill-opacity:1;stroke-width:0.00858796"
       d="m 0.66127275,5.2644181 v -0.407928 h 0.0644097 0.0644097 v 0.061325 0.061325 l 0.0346572,-0.039373 c 0.0640234,-0.072734 0.17490844,-0.1092805 0.28130945,-0.092715 0.1070593,0.016667 0.1922279,0.074184 0.23582,0.1592559 l 0.01296,0.025292 0.018263,-0.035799 c 0.054337,-0.1065094 0.1915177,-0.1696123 0.3239142,-0.149 0.1465266,0.022812 0.2422924,0.1146107 0.2695602,0.2583935 0.00476,0.025097 0.00865,0.1629729 0.00865,0.3063912 V 5.6723461 H 1.9112613 1.8472922 L 1.8447046,5.3947483 1.842117,5.1171505 1.8163531,5.067368 C 1.7825574,5.002066 1.7383587,4.97015 1.6641078,4.9574314 1.5503346,4.9379429 1.4603657,4.9801925 1.4127191,5.075484 l -0.025764,0.051527 -0.00259,0.2726677 -0.00259,0.2726676 H 1.3182458 1.2547231 L 1.2521355,5.3947483 1.2495479,5.1171505 1.223784,5.067368 C 1.1899883,5.002066 1.1457896,4.97015 1.0715387,4.9574314 0.95776559,4.9379429 0.8677966,4.9801925 0.82014997,5.075484 l -0.0257639,0.051527 -0.002593,0.2726677 -0.002593,0.2726676 h -0.0639634 -0.0639634 z"
       id="path18"
       transform="translate(-0.54138868,-4.5334268)" />
    <path
       style="fill:#296f04;fill-opacity:1;stroke-width:0.00858796"
       d=""
       id="path19"
       transform="translate(-0.54138868,-4.5334268)" />
    <path
       style="fill:#296f04;fill-opacity:1;stroke-width:0.00858796"
       d="M 3.4160466,5.6607983 C 3.2687849,5.6106112 3.1747162,5.4947002 3.1508116,5.3339769 3.1108802,5.0654971 3.2895993,4.8479658 3.5508472,4.847066 3.6368362,4.8467699 3.6878428,4.857982 3.7552124,4.89199 3.9175179,4.973922 4.0009215,5.1736934 3.9546889,5.3697848 3.9201469,5.5162928 3.8093906,5.6302543 3.6638943,5.6689955 3.5940483,5.6875935 3.4839898,5.6839535 3.4160466,5.6607955 Z M 3.6500331,5.5547369 C 3.7133524,5.534287 3.7779157,5.4732112 3.8090295,5.4043287 3.8306548,5.3564529 3.8334223,5.3405144 3.8333231,5.2644181 3.8331891,5.1617213 3.8139983,5.1027817 3.7611424,5.0427343 3.6510483,4.9176608 3.4364136,4.9268652 3.3346343,5.0610247 c -0.042394,0.055881 -0.056446,0.1155163 -0.052727,0.2237647 0.00271,0.078765 0.00643,0.097997 0.02716,0.1403476 0.029032,0.059305 0.085084,0.1108075 0.1408118,0.1293845 0.054506,0.01817 0.1442624,0.018266 0.200154,2.154e-4 z"
       id="path20"
       transform="translate(-0.54138868,-4.5334268)" />
    <path
       style="fill:#296f04;fill-opacity:1;stroke-width:0.00858796"
       d="M 4.4404791,6.0626199 C 4.3025957,6.0327216 4.198393,5.940997 4.168924,5.8235831 l -0.00563,-0.022418 0.063194,1.238e-4 0.063194,1.237e-4 0.023776,0.043106 c 0.06071,0.1100655 0.2525839,0.1558645 0.3746521,0.089427 0.097045,-0.052818 0.1219151,-0.1094397 0.1276266,-0.2905648 l 0.00403,-0.1277263 -0.054636,0.055394 C 4.6883425,5.6489015 4.6317174,5.6749723 4.5297225,5.6794332 4.4017545,5.68503 4.3174341,5.6525575 4.2357994,5.5662408 4.1584049,5.4844075 4.1222198,5.3869323 4.1222198,5.260281 c 0,-0.2646248 0.186356,-0.4398406 0.4367193,-0.4106127 0.090008,0.010508 0.1841166,0.061789 0.2258445,0.1230671 0.011098,0.016298 0.023077,0.029659 0.02662,0.029691 0.00354,3.23e-5 0.00644,-0.03279 0.00644,-0.072939 v -0.072998 h 0.06441 0.06441 L 4.9465368,5.296623 C 4.9464014,5.7660943 4.9438803,5.799744 4.9028121,5.8802444 4.8775194,5.9298222 4.8087713,6.0001366 4.7592246,6.0271033 4.6742468,6.073354 4.552529,6.0869166 4.4404791,6.0626199 Z M 4.6557662,5.5453734 C 4.7712889,5.4885861 4.8351102,5.3489975 4.8112861,5.2052236 4.7933057,5.0967152 4.745034,5.0270393 4.6582354,4.9843085 4.6112974,4.961201 4.5923406,4.9567212 4.5404567,4.9564756 4.4204891,4.9559078 4.3354753,5.0067976 4.2849538,5.1094213 c -0.050405,0.1023864 -0.042368,0.2461663 0.019116,0.3419807 0.031424,0.04897 0.067872,0.078604 0.1246749,0.1013661 0.058644,0.0235 0.1716613,0.019819 0.2270211,-0.00739 z"
       id="path21"
       transform="translate(-0.54138868,-4.5334268)" />
    <path
       style="fill:#296f04;fill-opacity:1;stroke-width:0.00858796;stroke:none"
       d="M 5.2043024,5.1227168 V 4.5730875 h 0.060116 0.060116 v 0.5496293 0.5496293 h -0.060116 -0.060116 z"
       id="path22"
       transform="translate(-0.54138868,-4.5334268)" />
    <path
       style="fill:#296f04;fill-opacity:1;stroke:none;stroke-width:0.00858796"
       d="M 4.4236968,6.0543075 C 4.3003477,6.0197904 4.2036845,5.9313135 4.1732019,5.8250269 l -0.00684,-0.023861 h 0.058232 0.058233 l 0.026341,0.042374 c 0.052835,0.084994 0.1403514,0.1247899 0.2625951,0.1194099 0.1145217,-0.00504 0.1954798,-0.056892 0.2242989,-0.1436585 0.013134,-0.039542 0.03479,-0.291386 0.025828,-0.3003487 -0.00197,-0.00197 -0.028961,0.020161 -0.059981,0.049179 -0.03102,0.029018 -0.076533,0.063373 -0.1011393,0.076345 -0.041879,0.022078 -0.0516,0.023585 -0.1520881,0.023585 -0.098489,0 -0.1114028,-0.0019 -0.156456,-0.023016 C 4.2948174,5.6181305 4.2279529,5.5584124 4.1919446,5.501889 4.1118122,5.3761025 4.1067385,5.1861349 4.1796676,5.0422163 4.2866523,4.831092 4.5980554,4.7855123 4.7630617,4.9568256 c 0.024188,0.025113 0.04641,0.04566 0.049381,0.04566 0.00297,0 0.0054,-0.032849 0.0054,-0.072998 v -0.072998 h 0.06441 0.06441 l -7.745e-4,0.203964 c -4.26e-4,0.1121802 -0.00366,0.3237661 -0.00719,0.4701907 -0.0078,0.3237723 -0.00992,0.3322762 -0.1070647,0.4291371 -0.082372,0.08213 -0.1280388,0.1002754 -0.2628453,0.1044404 -0.070041,0.00216 -0.1122362,-7.194e-4 -0.1450968,-0.00991 z M 4.6589671,5.5475536 c 0.049221,-0.023716 0.1050514,-0.083014 0.1315575,-0.1397293 0.02043,-0.043714 0.022867,-0.059024 0.022831,-0.1434062 -3.7e-5,-0.085798 -0.0023,-0.099391 -0.024703,-0.1481206 C 4.7604131,5.0548618 4.7076132,5.0015358 4.6475938,4.9738331 4.5872088,4.9459616 4.478448,4.9478618 4.4136385,4.9779206 4.3547064,5.0052534 4.3098631,5.0503268 4.278924,5.1133261 4.257347,5.1572621 4.255333,5.1697941 4.255333,5.2601242 c 0,0.090257 0.00208,0.1031987 0.024102,0.1502892 0.034532,0.073825 0.084631,0.1227775 0.1509637,0.1475102 0.046073,0.017178 0.1844194,0.010902 0.2285684,-0.01037 z"
       id="path23"
       transform="translate(-0.54138868,-4.5334268)" />
  </g>
  <defs
     id="defs8">
    <clipPath
       id="SvgjsClipPath1012">
      <path
         d=" M 0 -3.992038088465781 h 3.721680641253164 v 3.742038088465781 h -3.721680641253164 Z"
         id="path7" />
    </clipPath>
    <clipPath
       id="SvgjsClipPath1008c6866c52-9d47-489b-8b57-4ac50b80cb5a">
      <path
         d=" M 0 -3.992038088465781 L 3.721680641253164 -3.992038088465781 L 3.721680641253164 -0.25 L 0 -0.25 Z"
         id="path8" />
    </clipPath>
  </defs>
</svg>
