<?xml version="1.0" standalone="no"?><!DOCTYPE svg PUBLIC "-//W3C//DTD SVG 1.1//EN" "http://www.w3.org/Graphics/SVG/1.1/DTD/svg11.dtd"><svg t="1757920809989" class="icon" viewBox="0 0 1024 1024" version="1.1" xmlns="http://www.w3.org/2000/svg" p-id="16385" xmlns:xlink="http://www.w3.org/1999/xlink" width="256" height="256"><path d="M512 1023.99969a510.510391 510.510391 0 1 1 199.307576-40.339382A508.896815 508.896815 0 0 1 512 1023.99969z m0-941.366018A429.366173 429.366173 0 1 0 941.366173 511.999845 429.831627 429.831627 0 0 0 512 82.633672z" fill="#FFFFFF" p-id="16386"></path><path d="M512 63.115617A448.884228 448.884228 0 1 0 960.884228 511.999845 449.411743 449.411743 0 0 0 512 63.115617z" fill="#F5C607" p-id="16387"></path><path d="M284.485887 775.540129l18.835388 29.695991 43.442411 21.503993 16.725329-112.888208z m81.082157-63.270769l-2.016969 1.582545-16.725328 112.888208 32.395627 16.011632 22.993447-155.151469z" fill="#F5A107" p-id="16388"></path><path d="M400.756397 687.476155l-22.993447 155.151468 32.395626 16.011632 29.199507-197.135455z" fill="#F4A207" p-id="16389"></path><path d="M438.706446 657.780164l-29.199506 197.135456 32.395627 16.011631 35.436595-239.150473z" fill="#F3A207" p-id="16390"></path><path d="M476.656496 631.776778l-35.436596 239.150473 32.395627 16.011632 41.642654-281.134461z" fill="#F2A307" p-id="16391"></path><path d="M514.606545 605.804422l-41.642654 281.134461 32.395626 16.011631 47.879743-323.149478z" fill="#F1A307" p-id="16392"></path><path d="M552.556594 579.832067L504.676851 902.981545l32.395626 16.011631 54.085802-365.164495z" fill="#F0A407" p-id="16393"></path><path d="M590.444582 553.859711l-54.085802 365.133465 32.395627 16.011632 60.322891-407.148483z" fill="#EFA407" p-id="16394"></path><path d="M628.394631 527.887355l-60.32289 407.148483 32.395626 16.011631 66.52895-449.1635z" fill="#EEA507" p-id="16395"></path><path d="M666.28262 501.914999L599.660579 951.0785l1.210182 0.589575q17.532116-3.599514 34.753929-8.564361l69.197555-467.16107z" fill="#EDA607" p-id="16396"></path><path d="M704.139578 475.942644l-69.197555 467.16107q18.618176-5.337211 36.584717-12.225935l71.369675-480.969552z" fill="#ECA607" p-id="16397"></path><path d="M742.027567 450.032348l-71.369676 480.969552q18.928479-7.230058 37.236353-16.135753l72.703978-490.744094z" fill="#EBA707" p-id="16398"></path><path d="M779.884525 423.966902L707.180547 914.710996q19.393934-9.46424 37.856958-20.728237l73.479735-495.988213-38.632715 25.972356z" fill="#EAA707" p-id="16399"></path><path d="M817.741483 397.994546L744.261748 893.982759a459.962042 459.962042 0 0 0 38.694776-26.406779l73.417675-495.55379-38.632716 25.972356z" fill="#E9A807" p-id="16400"></path><path d="M854.202078 376.490553l-1.272242 0.868848-73.417675 495.553789a461.544587 461.544587 0 0 0 39.811867-34.133323l66.063495-445.905319-31.030293-16.477086z" fill="#E8A907" p-id="16401"></path><path d="M885.387523 393.588244l-66.063495 445.90532a462.351375 462.351375 0 0 0 41.487503-45.39732l56.816467-383.472368-32.240475-17.035632z" fill="#E6A906" p-id="16402"></path><path d="M917.534907 411.337572l-56.816467 383.472369a459.962042 459.962042 0 0 0 44.776713-67.459858l44.280229-298.976879z" fill="#E5AA06" p-id="16403"></path><path d="M949.899504 429.304112l-44.280229 298.976879a458.348467 458.348467 0 0 0 48.500349-296.742698z" fill="#E4AA06" p-id="16404"></path><path d="M169.797922 384.310187l2.203151-6.206059a42.821805 42.821805 0 0 1 78.785915-5.926786 41.952957 41.952957 0 0 1-5.709574 46.762652c-1.334303 1.489454-2.668605 3.103029-4.158059 4.685575 31.74399 19.362903 63.332829 38.477564 94.797547 57.747376 11.915633 7.323149 23.924356 14.677329 35.839989 21.721206a9.991755 9.991755 0 0 0 15.763389-3.816727q54.427135-98.707364 108.761179-197.445758a43.907865 43.907865 0 0 1-26.903264-38.167261 40.804836 40.804836 0 0 1 12.846541-32.302536 42.976957 42.976957 0 0 1 62.867375 3.506423c18.028601 22.000478 11.512239 47.755622-17.097692 67.118526 9.309088 17.004601 18.618176 34.133323 28.237568 51.106893q39.408473 71.369675 78.630764 142.739351c6.050907 11.015754 9.867633 12.008724 20.697206 5.616483q60.912466-36.98811 121.762872-74.224462l5.895756-3.661575a44.031987 44.031987 0 0 1-14.335996-29.416718 42.821805 42.821805 0 0 1 83.781793-14.584238c0.465454 1.644606 1.179151 3.351272 1.799757 4.995877v14.677329a44.43538 44.43538 0 0 1-45.45938 34.971141c-0.868848 2.482423-1.799757 4.995877-2.513454 7.4783q-35.622777 121.638751-71.369676 243.432654c-3.103029 10.61236-6.826665 13.343026-17.563146 13.343026H307.138001c-11.512239 0-15.049692-2.637575-18.183752-13.343026-19.362903-65.784222-38.508594-131.816687-57.871497-197.60091-5.182059-17.780358-10.51927-35.591747-15.763389-53.465196a42.635623 42.635623 0 0 1-40.339382-22.776235 127.87584 127.87584 0 0 1-5.026908-12.163875v-14.73939m-0.155151-0.06206z m341.953836 356.600134h191.674123a31.806051 31.806051 0 0 1 7.199029 62.991496 28.268597 28.268597 0 0 1-7.199029 0.713697h-383.534429a31.961202 31.961202 0 0 1-31.030293-21.721206 30.316597 30.316597 0 0 1 11.357087-35.436595 41.766775 41.766775 0 0 1 21.1006-6.485331c63.581072-0.310303 127.224204 0 190.494972 0m-0.06206-0.062061z" fill="#FFFFFF" p-id="16405"></path></svg>