<svg width="757" height="757" viewBox="0 0 757 757" fill="none" xmlns="http://www.w3.org/2000/svg">
<path d="M215.386 76.6982C217.313 78.4493 219.239 80.3755 221.165 82.1266C230.096 90.1816 239.201 97.8865 248.832 105.241C250.233 106.292 251.634 107.342 253.21 108.393C262.141 115.047 271.422 121.176 281.053 127.13C282.979 128.356 284.73 129.581 286.656 130.632C296.988 136.761 307.844 142.54 318.876 147.968C319.752 148.493 320.803 148.843 321.678 149.369C322.203 148.668 322.904 147.793 323.429 147.092C330.784 137.111 337.613 126.955 343.917 116.623C344.968 114.697 346.018 112.946 347.244 111.02C352.848 101.389 358.276 91.4074 363.004 81.4262C363.704 79.8502 364.58 78.2742 365.456 76.6982C370.534 65.8414 375.087 54.6343 379.114 43.4273C379.99 40.9758 380.865 38.3491 381.741 35.8976C385.593 24.3403 389.27 12.7831 391.897 1.0507C391.897 0.875585 391.897 0.875585 391.897 0.700475C321.503 -1.75106 251.284 15.5848 189.82 50.957L189.995 51.1321C197.875 59.7125 206.456 68.2929 215.386 76.6982Z" fill="#1AB67E"/>
<path d="M50.6073 408.706C61.9894 409.932 73.5467 411.508 84.9288 413.784C86.855 414.135 88.7812 414.485 90.8826 414.835C103.666 417.462 116.273 420.614 128.706 424.291C131.683 425.167 134.66 426.042 137.637 427.093C149.719 430.945 161.802 435.148 173.71 439.876C174.06 440.051 174.41 440.051 174.76 440.226C175.11 436.899 175.811 433.747 175.986 430.42C176.336 427.268 176.511 423.941 176.686 420.789C177.562 408.006 178.087 395.223 177.912 382.79C177.737 370.357 176.686 357.574 175.286 344.966C174.935 341.639 174.585 338.487 174.06 335.16C173.71 332.008 172.834 328.681 172.309 325.529C171.783 325.704 171.433 325.879 170.908 326.054C159.351 331.308 147.443 336.036 135.536 340.238C132.559 341.289 129.757 342.34 126.78 343.39C114.347 347.593 101.739 351.27 89.1315 354.422C87.5555 354.772 85.8044 354.948 84.2284 355.473C72.496 358.1 60.9388 360.376 49.0313 362.127C46.4046 362.477 43.778 363.003 41.3265 363.353C28.3683 365.104 15.5853 366.155 2.62717 366.68C1.75163 366.68 1.05119 366.855 0.175636 366.855C-0.174584 379.988 0.00052631 392.946 1.05119 406.08C1.92674 406.08 2.80228 406.255 3.67783 406.255C16.4609 406.255 29.2439 406.78 42.0269 408.006C44.8287 408.006 47.6304 408.356 50.6073 408.706Z" fill="#1AB67E"/>
<path d="M130.631 471.396C128.53 470.695 126.429 470.17 124.152 469.47C113.471 466.142 102.789 463.166 92.1073 460.714C90.3562 460.364 88.6051 459.839 86.854 459.488C75.1216 457.037 63.2142 455.111 51.4818 453.71C48.8552 453.359 46.2285 453.184 43.4268 452.834C31.3442 451.608 19.4367 450.733 7.35413 450.733C7.17902 450.733 7.17902 450.733 7.00391 450.733C20.4874 519.901 53.2329 584.342 101.213 636.174L101.388 635.999C108.393 626.193 114.872 615.862 121 605.355C122.401 603.079 123.627 600.802 124.853 598.526C130.631 588.019 136.06 577.337 141.138 566.481C141.839 564.905 142.539 563.153 143.239 561.402C147.617 551.246 151.47 540.915 155.147 530.408C155.847 528.307 156.723 526.205 157.423 524.104C161.101 512.547 164.253 500.814 167.054 488.907C167.229 487.856 167.405 486.805 167.755 485.93C166.879 485.58 165.829 485.054 164.953 484.704C153.396 479.626 142.014 475.248 130.631 471.396Z" fill="#1AB67E"/>
<path d="M48.505 317.124C60.2373 315.198 71.9697 312.921 83.5269 309.944C85.278 309.419 87.0291 308.894 88.7802 308.368C99.4619 305.392 109.969 302.064 120.475 298.387C122.576 297.687 124.678 296.986 126.779 296.111C138.161 291.733 149.368 287.005 160.4 281.577C161.276 281.226 162.151 280.701 163.027 280.176C162.852 279.125 162.502 278.249 162.326 277.199C159.174 265.466 155.497 253.734 151.294 242.352C150.594 240.251 149.718 238.149 148.843 236.048C144.815 225.716 140.438 215.56 135.71 205.579C135.009 204.003 134.134 202.252 133.433 200.676C128.005 189.994 122.226 179.487 115.922 169.331C114.696 167.055 113.296 164.778 111.895 162.677C105.241 152.345 98.4113 142.539 91.0567 132.908L90.8816 132.733C49.3805 181.063 20.8376 238.85 7.87946 301.189C6.47858 307.843 5.25281 314.672 4.20215 322.027C4.37726 322.027 4.55237 322.027 4.72748 322.027C16.635 321.502 28.7175 320.101 40.625 318.35C43.0765 317.824 45.8783 317.474 48.505 317.124Z" fill="#1AB67E"/>
<path d="M661.742 210.132C650.36 214.159 638.978 217.661 627.245 220.813C625.669 221.164 623.918 221.689 622.342 222.214C609.559 225.366 596.601 227.993 583.468 230.094C580.491 230.62 577.689 230.97 574.712 231.32C561.754 233.071 548.796 234.647 535.663 235.348C535.312 235.348 535.137 235.348 534.787 235.348C535.838 238.324 536.713 241.301 537.764 244.103C538.815 247.08 540.04 250.057 541.266 252.859C545.994 264.591 551.072 276.148 556.676 287.18C562.279 298.212 568.934 309.244 575.588 319.926C577.339 322.727 579.09 325.529 581.016 328.156C582.767 330.782 584.869 333.409 586.795 336.036C586.97 335.686 587.32 335.51 587.67 335.16C595.9 325.179 604.481 315.723 613.411 306.617C615.513 304.341 617.614 302.24 619.891 300.138C629.171 290.857 638.802 282.102 648.959 273.697C650.36 272.471 651.936 271.42 653.337 270.37C662.442 263.015 671.898 256.011 681.704 249.356C683.981 247.78 686.257 246.204 688.534 244.628C699.39 237.624 710.422 230.97 721.629 224.841C722.33 224.491 723.03 223.965 723.731 223.615C718.653 212.408 713.224 201.551 707.27 191.045C706.57 191.395 705.694 191.57 704.994 191.92C693.262 197.524 681.354 202.602 669.096 207.155C666.645 208.381 664.193 209.256 661.742 210.132Z" fill="#1AB67E"/>
<path d="M510.794 62.1641C510.619 64.7908 510.444 67.5925 510.269 70.2192C509.568 82.3018 509.393 94.2092 509.743 106.292C509.743 108.218 509.919 109.969 510.094 111.895C510.619 122.927 511.67 134.134 513.071 145.341C513.421 147.618 513.596 149.719 513.946 151.995C515.697 164.078 517.974 176.161 520.95 188.243C521.126 189.294 521.476 190.169 521.651 191.22C522.702 191.22 523.752 191.22 524.803 191.22C537.236 190.695 549.493 189.819 561.576 188.418C563.677 188.243 565.779 187.718 567.88 187.543C579.087 185.967 590.119 184.041 601.151 181.589C602.902 181.239 604.653 180.889 606.404 180.538C618.137 177.737 629.869 174.234 641.251 170.557C643.703 169.682 646.329 168.806 648.781 167.93C660.338 163.728 671.72 159.35 682.752 154.097C682.927 154.097 682.927 153.922 683.102 153.922C640.375 96.1354 582.064 51.6575 515.522 25.9164C515.522 26.0915 515.522 26.0915 515.522 26.2666C513.071 37.8239 511.67 50.0815 510.794 62.1641Z" fill="#1AB67E"/>
<path d="M382.267 172.658C406.607 180.188 431.473 185.266 456.688 188.243C459.84 188.593 462.992 188.943 466.144 189.294C469.121 189.644 472.273 189.644 475.25 189.819C475.25 189.469 475.075 189.119 475.075 188.768C472.273 175.985 470.347 163.202 468.771 150.419C468.421 147.442 468.071 144.466 467.72 141.489C466.319 128.355 465.444 115.222 465.094 102.089C465.094 100.163 465.094 98.2365 465.094 96.3103C464.919 84.5779 465.444 72.8456 466.319 61.1132C466.495 58.3115 466.67 55.5097 466.845 52.7079C468.071 39.9249 469.646 27.1419 472.098 14.3589C472.273 13.4833 472.273 12.6078 472.448 11.7322C460.366 8.58026 448.984 6.30383 436.726 4.37762C436.551 5.25317 436.201 5.95361 436.025 6.82916C433.224 19.4371 429.721 31.8699 425.694 44.1276C424.818 46.7542 423.943 49.2058 423.067 51.8324C419.215 63.0394 415.012 74.0713 410.109 84.9282C409.409 86.5041 408.708 88.2553 408.008 89.8312C402.579 101.739 396.626 113.471 390.147 124.853C388.746 127.48 387.17 130.107 385.594 132.733C379.115 143.94 372.11 154.972 364.581 165.654C364.406 165.829 364.23 166.179 364.23 166.354C367.207 167.405 370.359 168.806 373.336 169.681C376.313 170.732 379.29 171.608 382.267 172.658Z" fill="#1AB67E"/>
<path d="M657.01 578.738C654.559 578.038 651.932 577.162 649.481 576.462C637.923 573.135 626.366 570.158 614.459 567.882C612.708 567.531 610.956 567.356 609.03 567.006C598.173 565.08 587.317 563.504 576.11 562.453C573.833 562.278 571.557 561.928 569.28 561.753C557.198 560.702 545.115 560.352 533.033 560.352C531.982 560.352 530.931 560.352 529.706 560.352C529.53 561.402 529.355 562.453 529.005 563.504C526.904 575.411 525.153 587.494 523.927 599.576C523.752 601.853 523.577 604.129 523.402 606.406C522.526 617.438 522.176 628.47 522.176 639.501C522.176 641.253 522.176 643.179 522.176 644.93C522.351 657.012 523.226 668.92 524.452 680.827C524.802 683.454 524.978 686.081 525.328 688.707C526.904 700.79 528.655 712.697 531.282 724.43C531.282 724.605 531.282 724.605 531.282 724.78C595.897 696.062 651.407 649.658 690.982 591.521C690.982 591.521 690.807 591.521 690.807 591.346C680.125 586.268 668.743 582.416 657.01 578.738Z" fill="#1AB67E"/>
<path d="M739.665 265.817C739.49 265.817 739.49 265.992 739.315 265.992C728.808 271.77 718.477 278.249 708.495 285.079C706.219 286.655 704.118 288.056 701.841 289.632C692.035 296.461 682.579 303.815 673.473 311.52C672.072 312.746 670.847 313.972 669.446 315.198C661.041 322.552 652.985 330.082 645.281 338.137C643.705 339.713 642.129 341.289 640.553 342.865C632.147 351.62 624.267 360.901 616.563 370.532C615.862 371.233 615.337 372.108 614.812 372.984C615.512 373.859 616.212 374.56 616.913 375.435C624.968 384.716 633.373 393.472 642.129 401.877C643.705 403.453 645.281 404.854 646.857 406.255C655.087 413.959 663.667 421.314 672.423 428.143C673.824 429.194 675.049 430.245 676.275 431.295C685.906 438.65 695.887 445.479 706.044 451.958C708.145 453.359 710.422 454.585 712.523 455.986C723.029 462.29 733.536 468.419 744.568 473.672H744.743C746.319 467.543 747.72 461.764 748.946 455.811C762.254 392.771 758.927 327.455 739.665 265.817Z" fill="#1AB67E"/>
<path d="M694.489 497.312C692.213 495.911 689.761 494.51 687.485 492.934C677.504 486.806 667.698 480.151 658.067 473.147C656.666 472.096 655.09 471.221 653.689 470.17C643.182 462.29 633.026 453.885 623.22 445.129C620.943 443.203 618.842 441.102 616.741 439.176C607.285 430.42 598.004 421.139 589.248 411.508C589.073 411.333 588.898 411.158 588.723 410.983C586.972 413.785 585.046 416.411 583.47 419.213C581.719 422.015 580.143 424.992 578.392 427.793C572.088 438.825 566.134 450.208 561.056 461.59C555.977 472.972 551.425 484.879 547.222 496.962C546.171 500.114 545.121 503.091 544.07 506.243C543.019 509.395 542.319 512.547 541.443 515.699C541.794 515.699 542.144 515.699 542.319 515.699C554.927 515.874 567.535 516.749 579.967 517.975C583.295 518.325 586.447 518.676 589.599 519.026C602.382 520.602 614.989 522.528 627.597 525.155C627.948 525.155 628.298 525.155 628.648 525.33C629.699 525.505 630.574 525.855 631.625 526.205C643.707 528.832 655.615 531.984 667.347 535.661C670.149 536.537 672.951 537.237 675.577 538.113C688.01 542.14 700.268 546.693 712.175 551.771C712.876 552.122 713.751 552.297 714.627 552.647C720.756 540.914 726.184 529.007 730.912 516.924C730.212 516.574 729.336 516.049 728.636 515.699C716.903 509.92 705.696 503.966 694.489 497.312Z" fill="#1AB67E"/>
<path d="M482.429 699.739C482.079 696.937 481.729 694.311 481.379 691.509C479.978 679.952 478.927 668.219 478.577 656.487C478.577 654.561 478.402 652.81 478.227 650.883C477.876 637.925 478.227 624.792 478.927 611.659C479.102 608.507 479.277 605.53 479.627 602.553C480.678 589.77 482.079 576.987 484.005 564.204C484.005 563.854 484.005 563.504 484.18 563.153C481.028 563.504 477.701 563.679 474.374 564.029C471.047 564.554 467.895 564.904 464.568 565.43C451.96 567.356 439.527 569.807 427.445 572.784C415.362 575.936 403.105 579.789 391.022 583.991C388.045 585.042 384.893 586.093 381.916 587.318C378.764 588.544 375.787 589.945 372.811 591.171C372.986 591.346 373.161 591.696 373.336 592.046C381.216 602.378 388.395 612.884 395.4 623.741C397.151 626.368 398.727 628.995 400.303 631.621C407.132 642.828 413.611 654.035 419.39 665.768C420.265 667.519 420.966 669.27 421.841 670.846C426.919 681.353 431.647 692.034 435.85 702.891C436.901 705.518 437.951 708.144 438.827 710.596C443.38 722.678 447.232 734.761 450.559 747.194C450.734 748.069 451.085 748.77 451.435 749.645C464.393 747.194 477.001 743.867 489.609 740.014C489.434 739.139 489.259 738.263 489.083 737.563C486.457 725.13 484.18 712.522 482.429 699.739Z" fill="#1AB67E"/>
<path d="M227.467 626.368C237.449 617.963 247.955 610.083 258.637 602.553C261.088 600.802 263.715 599.051 266.167 597.475C276.848 590.295 287.705 583.466 298.912 576.987C299.262 576.812 299.438 576.637 299.788 576.462C297.511 574.185 295.235 571.559 292.958 569.282C290.682 567.006 288.23 564.905 285.954 562.628C276.498 554.048 266.867 545.642 256.886 537.938C247.08 530.408 236.398 523.403 225.716 516.574C222.914 514.823 220.113 513.072 217.136 511.321C214.334 509.745 211.357 508.169 208.555 506.593C208.555 506.943 208.38 507.293 208.205 507.644C205.053 520.251 201.376 532.509 197.173 544.592C196.123 547.394 195.247 550.37 194.196 553.172C189.644 565.605 184.916 577.688 179.312 589.595C178.612 591.171 177.736 592.747 177.036 594.323C171.957 605.005 166.354 615.511 160.4 625.668C158.999 627.944 157.774 630.396 156.373 632.672C149.719 643.704 142.539 654.386 135.009 664.717C134.484 665.418 134.134 666.118 133.608 666.819C143.59 675.224 154.096 683.279 164.778 690.634C165.303 689.933 165.829 689.408 166.354 688.707C174.409 678.726 182.814 668.92 191.745 659.639C193.671 657.713 195.597 655.787 197.524 653.86C205.754 645.455 214.334 637.4 223.265 629.695C224.666 628.82 226.066 627.594 227.467 626.368Z" fill="#1AB67E"/>
<path d="M278.425 198.575C280.701 196.298 282.978 194.022 285.254 191.57C287.531 189.294 289.632 186.667 291.733 184.216C291.383 184.04 291.033 183.865 290.683 183.515C279.3 177.736 268.268 171.257 257.412 164.603C254.785 163.027 252.158 161.276 249.532 159.7C238.5 152.696 227.643 145.166 217.487 137.286C215.911 136.06 214.51 134.835 213.109 133.609C204.003 126.254 195.073 118.724 186.667 110.669C184.566 108.918 182.465 106.992 180.363 105.066C171.083 95.9602 162.327 86.6794 153.922 77.0483C153.396 76.3479 152.696 75.8225 152.171 75.1221C141.839 83.002 131.858 91.4073 122.052 100.338C122.577 101.038 123.102 101.914 123.628 102.614C131.508 112.596 139.037 122.927 146.042 133.609C147.618 135.885 149.194 138.337 150.77 140.788C156.899 150.594 162.852 160.576 168.281 170.907C169.156 172.658 170.207 174.234 171.083 175.985C177.036 187.543 182.29 199.45 187.368 211.533C188.593 214.334 189.644 217.311 190.695 220.113C195.248 232.021 199.625 244.103 203.128 256.536C203.303 256.886 203.303 257.236 203.478 257.587C206.28 255.835 209.256 254.259 211.883 252.508C214.51 250.757 217.312 249.006 219.938 247.08C230.445 239.9 240.776 232.371 250.407 224.316C260.038 216.436 269.319 207.68 278.425 198.575Z" fill="#1AB67E"/>
<path d="M395.401 721.277C394.351 718.826 393.475 716.199 392.424 713.748C387.872 702.716 382.968 691.859 377.365 681.177C376.489 679.601 375.614 678.025 374.738 676.449C369.485 666.643 363.881 657.187 357.753 647.731C356.527 645.805 355.476 644.054 354.25 642.128C347.596 631.971 340.242 622.165 332.537 612.534C331.836 611.834 331.311 610.958 330.611 610.258C329.735 610.783 328.859 611.133 327.984 611.659C317.127 617.437 306.621 623.741 296.464 630.22C294.713 631.446 292.787 632.672 291.036 633.898C281.755 640.202 272.824 646.681 264.069 653.685C262.668 654.736 261.267 655.786 259.866 657.012C250.585 664.717 241.655 672.772 233.249 681.177C231.323 683.104 229.572 684.855 227.646 686.781C219.241 695.536 211.011 704.292 203.481 713.748L203.306 713.923C266.345 747.019 336.039 761.378 406.959 755.774C406.959 755.599 406.959 755.599 406.959 755.424C403.807 744.042 399.779 732.66 395.401 721.277Z" fill="#1AB67E"/>
</svg>
