<svg xmlns="http://www.w3.org/2000/svg" width="376" height="106"><path d="M128.753 28.758c-3.925-3.265-8.919-4.897-14.981-4.897-7.773 0-14.107 3.304-19.003 9.909l-1.866-8.744H80.195v59.576h17.022V47.994c0-3.265 1.087-6.042 3.264-8.336 2.175-2.292 4.779-3.439 7.811-3.439 2.72 0 4.955.991 6.704 2.972 1.748 1.983 2.623 4.49 2.623 7.52v37.891h17.022V42.981c0-6.217-1.964-10.959-5.888-14.223M234.252 31.741h-7.084v44.98h7.084v7.881h-22.845v-7.881h7.085v-44.98h-7.085v-7.88h22.845zM199.814 57.33c0 5.55-1.033 10.375-3.099 14.477-2.066 4.104-4.988 7.261-8.765 9.475-3.779 2.213-8.206 3.32-13.282 3.32h-21.074V23.861h21.074c5.076 0 9.503 1.106 13.282 3.32 3.777 2.213 6.699 5.372 8.765 9.474 2.066 4.104 3.099 8.93 3.099 14.477zM142.823 106h232.828V.186H142.823z" fill-rule="evenodd"/><path d="M174.668 31.741h-12.396v44.98h12.396c5.252 0 9.311-1.638 12.175-4.914 2.862-3.276 4.295-8.102 4.295-14.477v-6.198c0-6.257-1.404-11.053-4.206-14.389-2.805-3.334-6.893-5.002-12.264-5.002M24.533 48.343c.31-3.73 1.534-6.8 3.673-9.21 2.137-2.408 4.915-3.614 8.335-3.614 4.042 0 6.976 1.148 8.803 3.439 1.825 2.294 2.739 5.422 2.739 9.385zm27.165-21.51c-4.121-1.982-8.589-2.972-13.408-2.972h-1.865c-5.52 0-10.475 1.165-14.865 3.497-4.392 2.332-7.869 5.713-10.434 10.143-2.564 4.431-3.848 9.638-3.848 15.622v3.381c0 6.063 1.263 11.291 3.79 15.681 2.524 4.393 6.004 7.753 10.434 10.085 4.431 2.332 9.403 3.497 14.923 3.497h1.865c4.819 0 9.27-.836 13.35-2.506s7.363-4.273 9.851-7.811c1.967-2.798 3.125-6.141 3.536-9.986H48.61c-.425 2.361-1.341 4.267-2.8 5.673-2.06 1.981-4.878 2.972-8.453 2.972-3.962 0-7.093-1.301-9.384-3.905-2.294-2.604-3.44-5.848-3.44-9.735v-2.798h40.805V48.81c0-5.129-1.244-9.578-3.73-13.349-2.489-3.77-5.792-6.645-9.91-8.628z" fill-rule="evenodd"/></svg>