<svg xmlns="http://www.w3.org/2000/svg" width="256" height="256" viewBox="0 0 256 256" role="img" aria-label="BrkRaw favicon"><rect width="256" height="256" fill="#ffffff"/><rect x="17" y="24" width="13" height="13" fill="#111111"/><rect x="30" y="24" width="13" height="13" fill="#111111"/><rect x="43" y="24" width="13" height="13" fill="#111111"/><rect x="56" y="24" width="13" height="13" fill="#111111"/><rect x="95" y="24" width="13" height="13" fill="#111111"/><rect x="108" y="24" width="13" height="13" fill="#111111"/><rect x="121" y="24" width="13" height="13" fill="#111111"/><rect x="134" y="24" width="13" height="13" fill="#111111"/><rect x="173" y="24" width="13" height="13" fill="#111111"/><rect x="225" y="24" width="13" height="13" fill="#111111"/><rect x="17" y="37" width="13" height="13" fill="#111111"/><rect x="69" y="37" width="13" height="13" fill="#111111"/><rect x="95" y="37" width="13" height="13" fill="#111111"/><rect x="147" y="37" width="13" height="13" fill="#111111"/><rect x="173" y="37" width="13" height="13" fill="#111111"/><rect x="212" y="37" width="13" height="13" fill="#111111"/><rect x="17" y="50" width="13" height="13" fill="#111111"/><rect x="30" y="50" width="13" height="13" fill="#111111"/><rect x="43" y="50" width="13" height="13" fill="#111111"/><rect x="56" y="50" width="13" height="13" fill="#111111"/><rect x="95" y="50" width="13" height="13" fill="#111111"/><rect x="108" y="50" width="13" height="13" fill="#111111"/><rect x="121" y="50" width="13" height="13" fill="#111111"/><rect x="134" y="50" width="13" height="13" fill="#111111"/><rect x="173" y="50" width="13" height="13" fill="#111111"/><rect x="199" y="50" width="13" height="13" fill="#111111"/><rect x="17" y="63" width="13" height="13" fill="#111111"/><rect x="69" y="63" width="13" height="13" fill="#111111"/><rect x="95" y="63" width="13" height="13" fill="#111111"/><rect x="121" y="63" width="13" height="13" fill="#111111"/><rect x="173" y="63" width="13" height="13" fill="#111111"/><rect x="186" y="63" width="13" height="13" fill="#111111"/><rect x="17" y="76" width="13" height="13" fill="#111111"/><rect x="69" y="76" width="13" height="13" fill="#111111"/><rect x="95" y="76" width="13" height="13" fill="#111111"/><rect x="134" y="76" width="13" height="13" fill="#111111"/><rect x="173" y="76" width="13" height="13" fill="#111111"/><rect x="199" y="76" width="13" height="13" fill="#111111"/><rect x="17" y="89" width="13" height="13" fill="#111111"/><rect x="69" y="89" width="13" height="13" fill="#111111"/><rect x="95" y="89" width="13" height="13" fill="#111111"/><rect x="147" y="89" width="13" height="13" fill="#111111"/><rect x="173" y="89" width="13" height="13" fill="#111111"/><rect x="212" y="89" width="13" height="13" fill="#111111"/><rect x="17" y="102" width="13" height="13" fill="#111111"/><rect x="30" y="102" width="13" height="13" fill="#111111"/><rect x="43" y="102" width="13" height="13" fill="#111111"/><rect x="56" y="102" width="13" height="13" fill="#111111"/><rect x="95" y="102" width="13" height="13" fill="#111111"/><rect x="147" y="102" width="13" height="13" fill="#111111"/><rect x="173" y="102" width="13" height="13" fill="#111111"/><rect x="225" y="102" width="13" height="13" fill="#111111"/><rect x="17" y="141" width="13" height="13" fill="#111111"/><rect x="30" y="141" width="13" height="13" fill="#111111"/><rect x="43" y="141" width="13" height="13" fill="#111111"/><rect x="56" y="141" width="13" height="13" fill="#111111"/><rect x="108" y="141" width="13" height="13" fill="#111111"/><rect x="121" y="141" width="13" height="13" fill="#111111"/><rect x="134" y="141" width="13" height="13" fill="#111111"/><rect x="173" y="141" width="13" height="13" fill="#111111"/><rect x="225" y="141" width="13" height="13" fill="#111111"/><rect x="17" y="154" width="13" height="13" fill="#111111"/><rect x="69" y="154" width="13" height="13" fill="#111111"/><rect x="95" y="154" width="13" height="13" fill="#111111"/><rect x="147" y="154" width="13" height="13" fill="#111111"/><rect x="173" y="154" width="13" height="13" fill="#111111"/><rect x="225" y="154" width="13" height="13" fill="#111111"/><rect x="17" y="167" width="13" height="13" fill="#111111"/><rect x="30" y="167" width="13" height="13" fill="#111111"/><rect x="43" y="167" width="13" height="13" fill="#111111"/><rect x="56" y="167" width="13" height="13" fill="#111111"/><rect x="95" y="167" width="13" height="13" fill="#111111"/><rect x="147" y="167" width="13" height="13" fill="#111111"/><rect x="173" y="167" width="13" height="13" fill="#111111"/><rect x="225" y="167" width="13" height="13" fill="#111111"/><rect x="17" y="180" width="13" height="13" fill="#111111"/><rect x="43" y="180" width="13" height="13" fill="#111111"/><rect x="95" y="180" width="13" height="13" fill="#111111"/><rect x="108" y="180" width="13" height="13" fill="#111111"/><rect x="121" y="180" width="13" height="13" fill="#111111"/><rect x="134" y="180" width="13" height="13" fill="#111111"/><rect x="147" y="180" width="13" height="13" fill="#111111"/><rect x="173" y="180" width="13" height="13" fill="#111111"/><rect x="199" y="180" width="13" height="13" fill="#111111"/><rect x="225" y="180" width="13" height="13" fill="#111111"/><rect x="17" y="193" width="13" height="13" fill="#111111"/><rect x="56" y="193" width="13" height="13" fill="#111111"/><rect x="95" y="193" width="13" height="13" fill="#111111"/><rect x="147" y="193" width="13" height="13" fill="#111111"/><rect x="173" y="193" width="13" height="13" fill="#111111"/><rect x="199" y="193" width="13" height="13" fill="#111111"/><rect x="225" y="193" width="13" height="13" fill="#111111"/><rect x="17" y="206" width="13" height="13" fill="#111111"/><rect x="69" y="206" width="13" height="13" fill="#111111"/><rect x="95" y="206" width="13" height="13" fill="#111111"/><rect x="147" y="206" width="13" height="13" fill="#111111"/><rect x="173" y="206" width="13" height="13" fill="#111111"/><rect x="199" y="206" width="13" height="13" fill="#111111"/><rect x="225" y="206" width="13" height="13" fill="#111111"/><rect x="17" y="219" width="13" height="13" fill="#111111"/><rect x="69" y="219" width="13" height="13" fill="#111111"/><rect x="95" y="219" width="13" height="13" fill="#111111"/><rect x="147" y="219" width="13" height="13" fill="#111111"/><rect x="186" y="219" width="13" height="13" fill="#111111"/><rect x="212" y="219" width="13" height="13" fill="#111111"/></svg>