<?xml version="1.0" encoding="UTF-8" standalone="no"?>
<!-- Created with Inkscape (http://www.inkscape.org/) -->

<svg
   width="14.059209mm"
   height="16.059294mm"
   viewBox="0 0 14.059209 16.059293"
   version="1.1"
   id="svg6950"
   inkscape:version="1.1.2 (0a00cf5339, 2022-02-04)"
   sodipodi:docname="unac_logo.svg"
   xmlns:inkscape="http://www.inkscape.org/namespaces/inkscape"
   xmlns:sodipodi="http://sodipodi.sourceforge.net/DTD/sodipodi-0.dtd"
   xmlns="http://www.w3.org/2000/svg"
   xmlns:svg="http://www.w3.org/2000/svg">
  <sodipodi:namedview
     id="namedview6952"
     pagecolor="#ffffff"
     bordercolor="#666666"
     borderopacity="1.0"
     inkscape:pageshadow="2"
     inkscape:pageopacity="0.0"
     inkscape:pagecheckerboard="0"
     inkscape:document-units="mm"
     showgrid="false"
     inkscape:zoom="5.6568543"
     inkscape:cx="22.008699"
     inkscape:cy="36.239222"
     inkscape:window-width="1920"
     inkscape:window-height="1165"
     inkscape:window-x="0"
     inkscape:window-y="1"
     inkscape:window-maximized="1"
     inkscape:current-layer="use6751"
     fit-margin-top="0"
     fit-margin-left="0"
     fit-margin-right="0"
     fit-margin-bottom="0" />
  <defs
     id="defs6947" />
  <g
     inkscape:label="Ebene 1"
     inkscape:groupmode="layer"
     id="layer1"
     transform="translate(-72.063108,-59.03755)">
    <g
       id="use6751"
       style="fill:#003a63;fill-opacity:1"
       transform="matrix(2.2069909,0,0,2.2069909,70.661318,74.636486)"
       inkscape:export-filename="/home/malte/work/uNAC/logo/var1.png"
       inkscape:export-xdpi="493.57001"
       inkscape:export-ydpi="493.57001">
      <path
         style="stroke:#ffffff;stroke-width:0.135932;stroke-miterlimit:4;stroke-dasharray:none;stroke-opacity:1;paint-order:stroke fill markers"
         d="m 5.34375,-7 c -0.234375,0 -0.4375,0.203125 -0.4375,0.4375 v 3.71875 C 4.90625,-2 4.5,-1.546875 3.84375,-1.546875 3.21875,-1.546875 2.734375,-2 2.734375,-2.84375 V -6.5625 C 2.734375,-6.796875 2.53125,-7 2.296875,-7 h -1.15625 c -0.25,0 -0.4375,0.203125 -0.4375,0.4375 v 3.421875 c 0,1.96875 0.71875,3.28125 2.421875,3.28125 0.921875,0 1.390625,-0.296875 1.78125,-0.796875 V -0.4375 C 4.90625,-0.203125 5.109375,0 5.34375,0 H 6.515625 C 6.75,0 6.9375,-0.203125 6.9375,-0.4375 v -6.125 C 6.9375,-6.796875 6.75,-7 6.515625,-7 Z m 0,0"
         id="path7049" />
    </g>
    <g
       style="fill:#ffffff;fill-opacity:0.99"
       id="g6755"
       transform="matrix(0.41731987,0,0,0.41731987,-43.976923,9.1799127)"
       inkscape:export-filename="/home/malte/work/uNAC/logo/var1.png"
       inkscape:export-xdpi="493.57001"
       inkscape:export-ydpi="493.57001">
      <g
         id="use6753"
         style="fill:#ffffff;fill-opacity:0.99"
         transform="translate(301.4646,143.1004)">
        <path
           style="stroke:none"
           d="m 5.734375,-3.75 h -2.4375 l 1.25,-3.6875 z M 2.6875,-1.9375 h 3.640625 l 0.5625,1.703125 C 6.921875,-0.125 7.03125,0 7.25,0 h 1.40625 c 0.171875,0 0.3125,-0.125 0.3125,-0.3125 0,-0.09375 -0.09375,-0.328125 -0.109375,-0.375 L 5.78125,-9.484375 C 5.734375,-9.625 5.59375,-9.796875 5.359375,-9.796875 h -1.5625 c -0.234375,0 -0.375,0.171875 -0.421875,0.3125 l -3.171875,8.90625 c -0.015625,0.09375 -0.0625,0.1875 -0.0625,0.265625 C 0.140625,-0.125 0.28125,0 0.46875,0 H 1.796875 C 1.90625,0 2.078125,-0.0625 2.125,-0.25 Z m 0,0"
           id="path7061" />
      </g>
    </g>
    <g
       style="fill:#ffffff;fill-opacity:0.99"
       id="g6759"
       transform="matrix(0.41731987,0,0,0.41731987,-52.420106,14.226025)"
       inkscape:export-filename="/home/malte/work/uNAC/logo/var1.png"
       inkscape:export-xdpi="493.57001"
       inkscape:export-ydpi="493.57001">
      <g
         id="use6757"
         style="fill:#ffffff;fill-opacity:0.99"
         transform="translate(321.89899,143.1004)">
        <path
           style="stroke:none"
           d="M 6.390625,-3.5 C 6.125,-3.5 6.0625,-3.28125 6.03125,-3.0625 c -0.0625,0.671875 -0.578125,1.296875 -1.59375,1.296875 -1.015625,0 -1.84375,-0.75 -1.84375,-2.203125 V -5.8125 c 0,-1.4375 0.828125,-2.21875 1.84375,-2.21875 1.015625,0 1.484375,0.6875 1.59375,1.359375 0.046875,0.28125 0.203125,0.375 0.359375,0.375 H 7.8125 c 0.203125,0 0.328125,-0.140625 0.3125,-0.359375 -0.109375,-1.6875 -1.453125,-3.28125 -3.6875,-3.28125 -2.234375,0 -3.875,1.65625 -3.875,4.09375 v 1.875 c 0,2.453125 1.640625,4.109375 3.875,4.109375 2.234375,0 3.578125,-1.65625 3.703125,-3.296875 C 8.15625,-3.3125 8.03125,-3.5 7.84375,-3.5 Z m 0,0"
           id="path7057" />
      </g>
    </g>
    <g
       id="use6761"
       style="fill:#ffffff;fill-opacity:0.99"
       transform="matrix(0.41731987,0,0,0.41731987,81.77482,63.910981)"
       inkscape:export-filename="/home/malte/work/uNAC/logo/var1.png"
       inkscape:export-xdpi="493.57001"
       inkscape:export-ydpi="493.57001">
      <path
         style="stroke:none"
         d="m 6.96875,0 h 1.125 c 0.234375,0 0.4375,-0.203125 0.4375,-0.4375 v -8.921875 c 0,-0.25 -0.203125,-0.4375 -0.4375,-0.4375 H 6.984375 c -0.234375,0 -0.4375,0.1875 -0.4375,0.4375 V -3.625 l -3.25,-5.84375 c -0.0625,-0.125 -0.265625,-0.328125 -0.5,-0.328125 H 1.28125 c -0.25,0 -0.4375,0.1875 -0.4375,0.4375 V -0.4375 C 0.84375,-0.203125 1.03125,0 1.28125,0 H 2.375 c 0.25,0 0.4375,-0.203125 0.4375,-0.4375 V -6.671875 L 6.296875,-0.5 C 6.609375,0.03125 6.8125,0 6.96875,0 Z m 0,0"
         id="path7053" />
    </g>
  </g>
</svg>
