<svg xmlns="http://www.w3.org/2000/svg" viewBox="0 0 576 482"><path d="M560 0h-80v96l-32-21.3L416 96V0h-80c-8.8 0-16 7.2-16 16v192c0 8.8 7.2 16 16 16h224c8.8 0 16-7.2 16-16V16c0-8.8-7.2-16-16-16zM240 0c8.8 0 16 7.2 16 16v192c0 8.8-7.2 16-16 16H16c-8.8 0-16-7.2-16-16V16C0 7.2 7.2 0 16 0h80v96l32-21.3L160 96V0h80zm325.3 298.1c15.1 13.6 13.9 36.8-1.3 48.9L412.8 468c-11.4 9.1-25.5 14-40 14H16c-8.8 0-16-7.2-16-16v-96c0-8.8 7.2-16 16-16h55.4l46.5-37.7c21-17 47.1-26.3 74.1-26.3h160c19.5 0 34.9 17.4 31.6 37.4-2.6 15.7-17.4 26.6-33.3 26.6H272c-8.8 0-16 7.2-16 16s7.2 16 16 16h118.3c14.6 0 28.7-4.9 40-14l92.4-73.9c12.4-10 30.8-10.7 42.6 0z"/></svg>