<svg xmlns="http://www.w3.org/2000/svg" width="500" height="500">
    <g fill="#FFF">
        <path
            d="M190.53736355 137.3035038c-29.49302134.07918817-52.97070987 24.2345129-53.03816607 53.04727519-.02346302 11.03061878 0 290.5237982 0 290.5237982h20.46855569s-.0146644-274.85333924-.0146644-291.45059308c.07918771-16.78789203 14.40629683-31.68406667 32.0475581-31.67820088 8.93061357.02932895 296.91283897.00586579 296.91283897.00586579V137.3005709h-296.3761223z" />
        <path
            d="M363.45691858 365.2862451c-.0791877-29.49612686-24.23730394-52.9739528-53.0469647-53.0384765-11.03055423-.02639605-290.52503065 0-290.52503065 0v20.46867549s274.8546634-.01759737 291.4518201-.01759737c16.78779377.07918817 31.68094835 14.40638114 31.67801547 32.04774567-.03226166 8.93359873-.00879864 114.52662402-.00879864 114.52662402h20.45095842v-113.9869713z" />
        <path
            d="M144.97217067 78.93888965c-36.30023122 0-65.77272242 29.49026107-65.81084983 65.61766394-.01173151 11.03941747-.00879864 330.61354246-.00879864 330.61354246l20.46855569 5.848193s.01466439-319.92607242.01466439-336.52919205c.04985892-24.38702345 21.1196546-44.92608842 44.89063093-44.90849105 8.94234508.03226185 341.0438545-.15837634 341.0438545-.15837634V78.97115149l-340.59805704-.03226184z" />
        <path
            d="M235.46905478 195.91448115s-15.49439457-.73908959-27.80075073 11.5673386c-12.31222192 12.30936109-11.55260651 27.59267789-11.55260651 27.59267789v242.99916464h20.46855568s-.27569053-226.41070948-.27569053-242.99916464c.0410603-10.35312 8.390964-18.76466339 18.82027824-18.82625418 8.9511437.02932895 246.06553278.13198028 246.06553278.13198028v-20.46867549H235.46905478z" />
        <path
            d="M421.81825825 319.72078553c0-36.30337658-29.49302135-65.77604028-65.61727989-65.81123502-11.03935285-.01173158-330.60867451-.00879869-330.60867451-.00879869l-5.85109165 20.46867549s319.92713278.01759737 336.53015524.01759737c24.38981359.04692632 44.92582547 21.11684532 44.9082282 44.89089368-.03226166 8.94239741.15544253 160.0891507.15544253 160.0891507h20.45095842l.03226166-159.64628353z" />
        <path
            d="M304.5911239 410.32671644s.74201813-15.49155236-11.56727091-27.80091345c-12.30928904-12.31229398-27.58958351-11.55560702-27.58958351-11.55560702H22.43359422v20.46867549s226.40645144-.27569215 242.99774238-.27569215c10.35012653.04106053 18.76162068 8.39101312 18.82321112 18.8203884-.02932878 8.9482632-.13197951 68.95236576-.13197951 68.95236576h20.4656228v-68.60921703z" />
        <path
            d="M98.55057741.00001578C43.79081195-.02638028-.01172124 44.31312911.00001027 98.5188979c.00293288 14.8609799 0 401.48108879 0 401.48108879h499.99997729V.00001578H98.5505774zm360.73519751 459.29431864H41.16295324s.01173152-347.31051474 0-359.6374732C41.1306916 66.8494957 66.98987707 41.2218576 99.64160804 41.17786416h359.64416688v418.11647026z" />
    </g>
</svg>
