<?xml version="1.0" encoding="utf-8"?>
<!-- Generator: Adobe Illustrator 27.4.0, SVG Export Plug-In . SVG Version: 6.00 Build 0)  -->
<svg version="1.1" id="Layer_1" xmlns="http://www.w3.org/2000/svg" xmlns:xlink="http://www.w3.org/1999/xlink" x="0px" y="0px"
	 viewBox="0 0 529 154.9" style="enable-background:new 0 0 529 154.9;" xml:space="preserve">
<path style="fill:var(--bs-body-color);" d="M150.4,115.6c-4.2,0-7.9,1.6-10.7,4.2L97.4,92.5c1.2-2.9,1.8-6.1,1.8-9.4c0-7.4-3.3-14.1-8.4-18.7L111.7,38
	c2.6,1.3,5.6,2,8.7,2c11,0,20-9,20-20s-9-20-20-20s-20,9-20,20c0,4.7,1.6,9,4.3,12.4L83,59.7c-2.7-1-5.7-1.6-8.8-1.6
	c-7.9,0-15,3.7-19.5,9.4L32.6,57.3c0-0.3,0-0.7,0-1c0-9-7.3-16.3-16.3-16.3S0,47.3,0,56.3s7.3,16.3,16.3,16.3
	c5.4,0,10.2-2.7,13.2-6.8l20.9,9.6c-0.8,2.4-1.2,5-1.2,7.6c0,4.2,1,8.1,2.8,11.6L32.6,114c-2.3-1.4-5.1-2.3-8-2.3
	c-8.5,0-15.5,7-15.5,15.5s6.9,15.5,15.5,15.5s15.5-7,15.5-15.5c0-2.3-0.5-4.5-1.5-6.5l19-19c4.4,3.9,10.2,6.3,16.6,6.3
	c0.2,0,0.4,0,0.7,0l7.1,26.2c-2.8,2.1-4.7,5.4-4.7,9.2c0,6.3,5.1,11.4,11.4,11.4s11.4-5.1,11.4-11.4c0-5.6-4.1-10.3-9.4-11.2
	l-7.1-26.1c3.4-1.4,6.4-3.5,8.9-6.2l42.6,27.6c-0.3,1.2-0.4,2.4-0.4,3.7c0,8.7,7,15.7,15.7,15.7s15.7-7.1,15.7-15.7
	C166.1,122.6,159.1,115.6,150.4,115.6L150.4,115.6z"/>
<path style="fill:var(--bs-body-color);" d="M238.3,34.5c14.4,0,24.4,9.6,24.4,24.1s-10.3,24.1-25.1,24.1h-13.2v22.2h-14.8V34.5H238.3L238.3,34.5z M224.4,71.2h10
	c8.4,0,13.4-4.5,13.4-12.5s-4.9-12.5-13.3-12.5h-10L224.4,71.2L224.4,71.2z"/>
<path style="fill:var(--bs-body-color);" d="M289.9,51.4c13.1,0,21.7,6.6,21.9,16.8h-13.1c-0.3-4.2-3.7-6.8-8.9-6.8c-4.9,0-8.1,2.2-8.1,5.6c0,2.6,2.2,4.3,6.8,5.4
	l10,2.2c10.5,2.3,14.8,6.5,14.8,14.3c0,10.3-9.5,17.1-23.3,17.1s-22.6-6.7-23.3-16.9h13.9c0.7,4.4,4.1,6.9,9.8,6.9s8.7-2.2,8.7-5.6
	c0-2.6-1.8-4.1-6.5-5.2l-9.7-2.2c-9.9-2.2-15-7.4-15-15.1C267.9,58,276.5,51.5,289.9,51.4L289.9,51.4z"/>
<path style="fill:var(--bs-body-color);" d="M321.3,124.2v-11c0.4,0.1,3,0.1,3.6,0.1c5.2,0,7.8-1.7,8.8-5.8c0-0.2,0.5-2.3,0.4-2.5l-18.2-52.4h15.7l11.1,40.9h0.2
	l11.1-40.9h15l-18,53.5c-4.5,13.4-11,18.2-24.4,18.2C326.2,124.3,321.8,124.3,321.3,124.2L321.3,124.2z"/>
<path style="fill:var(--bs-body-color);" d="M375.5,104.9V34.5h12.3l32.9,45.9h0.4V34.5h14.1v70.5H423l-33-46.1h-0.4v46.1H375.5L375.5,104.9z"/>
<path style="fill:var(--bs-body-color);" d="M493.5,88.9c-1.6,10.2-10.9,17.1-23.9,17.1c-16.1,0-25.8-10.3-25.8-27s9.8-27.5,25.2-27.5s24.9,10.3,24.9,26.2V82h-36.1v0.9
	c0,7.5,4.7,12.6,12,12.6c5.2,0,9.2-2.6,10.5-6.6L493.5,88.9L493.5,88.9z M458,73.3h22.2c-0.3-6.7-4.6-11.3-11-11.3
	S458.5,66.7,458,73.3z"/>
<path style="fill:var(--bs-body-color);" d="M519.3,40.5v12.1h9.7v10.7h-9.7v25c0,4,2,5.9,6.2,5.9c1.3,0,2.6-0.1,3.5-0.2v10.5c-1.5,0.3-3.9,0.6-6.8,0.6
	c-12.3,0-17.1-4.1-17.1-14.3V63.3h-7.4V52.6h7.4V40.5L519.3,40.5L519.3,40.5z"/>
</svg>
