<?xml version="1.0" encoding="utf-8"?>
<!-- Generator: Adobe Illustrator 23.1.1, SVG Export Plug-In . SVG Version: 6.00 Build 0)  -->
<svg version="1.1" id="Layer_1" xmlns="http://www.w3.org/2000/svg" xmlns:xlink="http://www.w3.org/1999/xlink" x="0px" y="0px"
	 viewBox="0 0 288 108" style="enable-background:new 0 0 288 108;" xml:space="preserve">
<style type="text/css">
	.st0{clip-path:url(#SVGID_2_);}
	.st1{fill:#D2232A;}
	.st2{clip-path:url(#SVGID_4_);fill:#7791B3;}
</style>
<g>
	<defs>
		<rect id="SVGID_1_" x="29" y="19.16" width="216.2" height="71.65"/>
	</defs>
	<clipPath id="SVGID_2_">
		<use xlink:href="#SVGID_1_"  style="overflow:visible;"/>
	</clipPath>
	<path class="st0" d="M212.94,64.59l17.93-38.38h0.14l2.09,32.26c0.29,3.82-3.03,4.75-6.41,4.75v1.37h18.5v-1.37
		c-5.26,0-5.83,0-6.26-6.62l-2.3-32.62c-0.14-2.45,1.22-2.52,4.75-2.81v-1.3H230.8l-17.28,36.29l-17.35-36.29H185.3v1.3
		c4.46,0.29,4.61,1.58,4.32,6.34l-1.73,28.01c-0.36,6.55-1.01,7.7-6.26,7.7v1.37h14.98v-1.37c-3.24-0.14-5.98-0.94-5.76-4.61
		l1.94-32.4h0.15l18.36,38.38H212.94z M135.9,19.81v1.37c5.98,0.29,7.06,1.51,7.06,8.42v16.78c0,12.24-8.28,15.62-16.42,15.62
		c-10.73,0-16.42-5.83-16.42-15.55V26.43c0-4.18,1.73-5.26,5.69-5.26h0.65v-1.37h-18.5v1.37c4.9,0.07,6.19,0.79,6.19,5.4V47.6
		c0,10.3,7.06,18.14,20.81,18.14c15.62,0,21.31-9.58,21.31-18.5V27.8c0-4.61,1.73-6.55,6.55-6.62v-1.37H135.9z M42.21,20.82
		c1.73-0.29,3.31-0.29,4.97-0.29c9.58,0,11.81,5.54,11.81,11.16c0,7.27-5.04,12.6-12.89,12.6c-1.37,0-2.95-0.36-3.89-0.58V20.82z
		 M42.21,45.08c2.16,0.43,3.96,0.58,6.12,0.58c10.66,0,17.42-5.33,17.42-13.75c0-5.54-3.46-12.74-18.5-12.74
		c-1.94,0-5.4,0.07-8.93,0.22c-3.53,0.14-7.06,0.36-9.07,0.43v1.37h3.6c2.52,0,3.38,1.15,3.38,3.82v34.06
		c0,3.38-1.08,4.18-4.82,4.18H30.4v1.37h19.94v-1.37h-2.38c-4.54,0-5.76-1.51-5.76-5.54V45.08z"/>
</g>
<rect x="82.3" y="26.39" class="st1" width="2.27" height="31.74"/>
<rect x="166.02" y="26.39" class="st1" width="2.27" height="31.74"/>
<g>
	<defs>
		<rect id="SVGID_3_" x="29" y="19.16" width="216.2" height="71.65"/>
	</defs>
	<clipPath id="SVGID_4_">
		<use xlink:href="#SVGID_3_"  style="overflow:visible;"/>
	</clipPath>
	<path class="st2" d="M243.1,90.68h1.47v-8.25h-1.47V90.68z M237.59,89.04c0-0.87,0.98-0.98,1.64-0.98h0.64
		c0,0.44-0.07,0.85-0.31,1.17c-0.23,0.31-0.58,0.51-1.03,0.51C238,89.73,237.59,89.52,237.59,89.04 M236.85,86.57
		c0.49-0.38,1.12-0.62,1.75-0.62c0.87,0,1.28,0.31,1.28,1.22h-0.81c-0.62,0-1.34,0.05-1.9,0.33c-0.56,0.27-0.97,0.77-0.97,1.62
		c0,1.08,0.98,1.68,1.98,1.68c0.67,0,1.41-0.35,1.75-0.98h0.02c0.01,0.18,0.01,0.55,0.07,0.85h1.3c-0.03-0.44-0.05-0.83-0.07-1.26
		c-0.01-0.42-0.02-0.85-0.02-1.42v-0.73c0-1.67-0.71-2.39-2.44-2.39c-0.63,0-1.4,0.17-1.97,0.43L236.85,86.57z M234.58,89.16
		c-0.55,0.31-1.17,0.57-1.88,0.57c-0.91,0-1.55-0.52-1.62-1.43h3.92c0-1.98-0.59-3.42-2.69-3.42c-1.76,0-2.63,1.35-2.63,2.99
		c0,1.86,1.09,2.94,2.96,2.94c0.79,0,1.41-0.15,1.95-0.45V89.16z M231.08,87.29c0.07-0.76,0.48-1.33,1.31-1.33
		c0.83,0,1.16,0.62,1.2,1.33H231.08z M231.52,84.24h0.91l1.51-1.6h-1.51L231.52,84.24z M225.34,90.68h1.47V88.6
		c0-0.81,0-2.31,1.2-2.31c0.27,0,0.53,0.04,0.66,0.12v-1.48c-0.15-0.04-0.31-0.04-0.45-0.04c-0.88,0-1.48,0.89-1.55,1.42h-0.02
		v-1.29h-1.31V90.68z M221.08,88.97c0,1.12,0.64,1.84,1.79,1.84c0.44,0,0.78-0.04,1.09-0.13l-0.04-1.17
		c-0.15,0.1-0.41,0.15-0.67,0.15c-0.56,0-0.69-0.45-0.69-0.94v-2.64h1.31v-1.08h-1.31v-1.61l-1.47,0.47v1.13h-1.09v1.08h1.09V88.97z
		 M213.53,90.68H215V87.9c0-0.73,0.23-1.88,1.3-1.88c0.95,0,0.96,0.94,0.96,1.63v3.03h1.47V87.1c0-1.28-0.58-2.22-1.93-2.22
		c-0.77,0-1.4,0.25-1.86,0.9h-0.02v-0.77h-1.39V90.68z M207.56,87.71c0-0.85,0.46-1.68,1.42-1.68c0.97,0,1.43,0.81,1.43,1.68
		c0,0.95-0.3,1.96-1.43,1.96C207.86,89.67,207.56,88.64,207.56,87.71 M206.02,87.88c0,1.63,1.09,2.92,2.96,2.92
		c1.88,0,2.97-1.3,2.97-2.92c0-1.87-1.29-3-2.97-3C207.31,84.88,206.02,86.01,206.02,87.88 M195.67,90.68h1.47v-6.31l0.02-0.02
		l2.07,6.34h1.47l2.07-6.34h0.02v6.34h1.47V83h-2.46l-1.83,5.82h-0.02L198.13,83h-2.46V90.68z M190.1,89.16
		c-0.55,0.31-1.17,0.57-1.88,0.57c-0.91,0-1.55-0.52-1.62-1.43h3.92c0-1.98-0.59-3.42-2.69-3.42c-1.76,0-2.63,1.35-2.63,2.99
		c0,1.86,1.09,2.94,2.96,2.94c0.79,0,1.41-0.15,1.95-0.45V89.16z M186.6,87.29c0.07-0.76,0.48-1.33,1.31-1.33
		c0.83,0,1.16,0.62,1.2,1.33H186.6z M182.15,90.68h1.43v-8.25h-1.47v3.25h-0.02c-0.44-0.54-0.96-0.79-1.7-0.79
		c-1.74,0-2.38,1.38-2.38,2.95c0,1.55,0.64,2.98,2.38,2.98c0.69,0,1.3-0.22,1.74-0.77h0.02V90.68z M179.55,87.83
		c0-0.76,0.26-1.8,1.22-1.8c0.95,0,1.32,1.01,1.32,1.8c0,0.8-0.32,1.84-1.3,1.84C179.83,89.67,179.55,88.61,179.55,87.83
		 M172.93,89.16c-0.55,0.31-1.17,0.57-1.88,0.57c-0.91,0-1.55-0.52-1.62-1.43h3.91c0-1.98-0.59-3.42-2.69-3.42
		c-1.76,0-2.63,1.35-2.63,2.99c0,1.86,1.09,2.94,2.96,2.94c0.79,0,1.41-0.15,1.95-0.45V89.16z M169.43,87.29
		c0.06-0.76,0.48-1.33,1.31-1.33c0.83,0,1.16,0.62,1.2,1.33H169.43z M169.87,84.24h0.91l1.51-1.6h-1.51L169.87,84.24z M164.21,88.97
		c0,1.12,0.64,1.84,1.79,1.84c0.44,0,0.78-0.04,1.09-0.13l-0.04-1.17c-0.15,0.1-0.41,0.15-0.67,0.15c-0.56,0-0.69-0.45-0.69-0.94
		v-2.64h1.31v-1.08h-1.31v-1.61l-1.47,0.47v1.13h-1.09v1.08h1.09V88.97z M160.34,83.98h1.47v-1.41h-1.47V83.98z M160.34,90.68h1.47
		v-5.66h-1.47V90.68z M158.48,85.09c-0.46-0.1-0.91-0.21-1.61-0.21c-1.16,0-2.22,0.54-2.22,1.76c0,2.05,2.56,1.29,2.56,2.4
		c0,0.55-0.59,0.69-0.97,0.69c-0.51,0-0.99-0.14-1.45-0.37l-0.09,1.21c0.54,0.14,1.11,0.24,1.67,0.24c1.2,0,2.38-0.53,2.38-1.85
		c0-2.05-2.56-1.47-2.56-2.38c0-0.48,0.47-0.63,0.87-0.63c0.54,0,0.87,0.09,1.32,0.24L158.48,85.09z M150.21,90.68h1.47V88.6
		c0-0.81,0-2.31,1.2-2.31c0.27,0,0.53,0.04,0.66,0.12v-1.48c-0.15-0.04-0.31-0.04-0.45-0.04c-0.88,0-1.48,0.89-1.55,1.42h-0.02
		v-1.29h-1.31V90.68z M148.18,89.16c-0.55,0.31-1.17,0.57-1.88,0.57c-0.91,0-1.55-0.52-1.62-1.43h3.92c0-1.98-0.59-3.42-2.7-3.42
		c-1.76,0-2.63,1.35-2.63,2.99c0,1.86,1.09,2.94,2.96,2.94c0.79,0,1.41-0.15,1.95-0.45V89.16z M144.68,87.29
		c0.07-0.76,0.48-1.33,1.31-1.33c0.83,0,1.16,0.62,1.2,1.33H144.68z M138.77,90.68h1.66l2.09-5.66h-1.47l-1.36,4.12h-0.02
		l-1.41-4.12h-1.58L138.77,90.68z M133.9,83.98h1.47v-1.41h-1.47V83.98z M133.9,90.68h1.47v-5.66h-1.47V90.68z M126.77,90.68h1.47
		V87.9c0-0.73,0.23-1.88,1.3-1.88c0.95,0,0.96,0.94,0.96,1.63v3.03h1.47V87.1c0-1.28-0.58-2.22-1.92-2.22c-0.77,0-1.4,0.25-1.86,0.9
		h-0.02v-0.77h-1.4V90.68z M118.48,87.9c0,2.06,1.17,2.9,3.13,2.9c1.97,0,3.13-0.85,3.13-2.9V83h-1.54v4.43
		c0,1.31-0.42,2.17-1.6,2.17c-1.18,0-1.6-0.86-1.6-2.17V83h-1.54V87.9z M114.47,85.75h1.3l1.01-2.75h-1.6L114.47,85.75z
		 M111.24,90.68h1.47v-8.25h-1.47V90.68z M105.76,89.16c-0.55,0.31-1.17,0.57-1.88,0.57c-0.91,0-1.55-0.52-1.62-1.43h3.92
		c0-1.98-0.59-3.42-2.69-3.42c-1.76,0-2.63,1.35-2.63,2.99c0,1.86,1.09,2.94,2.96,2.94c0.79,0,1.41-0.15,1.95-0.45V89.16z
		 M102.26,87.29c0.07-0.76,0.48-1.33,1.31-1.33c0.83,0,1.16,0.62,1.2,1.33H102.26z M97.81,90.68h1.43v-8.25h-1.47v3.25h-0.02
		c-0.44-0.54-0.96-0.79-1.7-0.79c-1.74,0-2.38,1.38-2.38,2.95c0,1.55,0.64,2.98,2.38,2.98c0.69,0,1.3-0.22,1.74-0.77h0.02V90.68z
		 M95.22,87.83c0-0.76,0.26-1.8,1.22-1.8c0.95,0,1.32,1.01,1.32,1.8c0,0.8-0.32,1.84-1.3,1.84C95.49,89.67,95.22,88.61,95.22,87.83
		 M88.75,85.09c-0.46-0.1-0.91-0.21-1.6-0.21c-1.16,0-2.22,0.54-2.22,1.76c0,2.05,2.56,1.29,2.56,2.4c0,0.55-0.59,0.69-0.97,0.69
		c-0.51,0-0.99-0.14-1.45-0.37l-0.09,1.21c0.54,0.14,1.11,0.24,1.67,0.24c1.2,0,2.38-0.53,2.38-1.85c0-2.05-2.56-1.47-2.56-2.38
		c0-0.48,0.47-0.63,0.87-0.63c0.54,0,0.87,0.09,1.32,0.24L88.75,85.09z M83.24,89.16c-0.55,0.31-1.17,0.57-1.88,0.57
		c-0.91,0-1.55-0.52-1.62-1.43h3.92c0-1.98-0.59-3.42-2.69-3.42c-1.76,0-2.63,1.35-2.63,2.99c0,1.86,1.09,2.94,2.96,2.94
		c0.79,0,1.41-0.15,1.95-0.45V89.16z M79.74,87.29c0.07-0.76,0.48-1.33,1.31-1.33c0.83,0,1.16,0.62,1.2,1.33H79.74z M76.86,85.09
		c-0.46-0.1-0.91-0.21-1.6-0.21c-1.16,0-2.22,0.54-2.22,1.76c0,2.05,2.56,1.29,2.56,2.4c0,0.55-0.59,0.69-0.97,0.69
		c-0.51,0-0.99-0.14-1.45-0.37l-0.09,1.21c0.54,0.14,1.11,0.24,1.67,0.24c1.2,0,2.38-0.53,2.38-1.85c0-2.05-2.56-1.47-2.56-2.38
		c0-0.48,0.47-0.63,0.87-0.63c0.54,0,0.87,0.09,1.32,0.24L76.86,85.09z M71.53,85.09c-0.46-0.1-0.91-0.21-1.61-0.21
		c-1.16,0-2.22,0.54-2.22,1.76c0,2.05,2.56,1.29,2.56,2.4c0,0.55-0.6,0.69-0.97,0.69c-0.51,0-0.99-0.14-1.45-0.37l-0.09,1.21
		c0.54,0.14,1.11,0.24,1.67,0.24c1.2,0,2.38-0.53,2.38-1.85c0-2.05-2.56-1.47-2.56-2.38c0-0.48,0.47-0.63,0.87-0.63
		c0.54,0,0.87,0.09,1.32,0.24L71.53,85.09z M66.03,89.16c-0.55,0.31-1.17,0.57-1.88,0.57c-0.91,0-1.55-0.52-1.62-1.43h3.92
		c0-1.98-0.59-3.42-2.69-3.42c-1.76,0-2.63,1.35-2.63,2.99c0,1.86,1.09,2.94,2.96,2.94c0.79,0,1.41-0.15,1.95-0.45V89.16z
		 M62.53,87.29c0.07-0.76,0.48-1.33,1.31-1.33s1.16,0.62,1.2,1.33H62.53z M56.79,90.68h1.47V88.6c0-0.81,0-2.31,1.2-2.31
		c0.26,0,0.53,0.04,0.66,0.12v-1.48c-0.15-0.04-0.31-0.04-0.45-0.04c-0.88,0-1.48,0.89-1.55,1.42H58.1v-1.29h-1.31V90.68z
		 M50.24,90.68h1.54v-2.92h0.65c1.65,0,2.96-0.65,2.96-2.44c0-1.84-1.53-2.32-3.2-2.32h-1.95V90.68z M51.78,84.21h0.54
		c0.79,0,1.46,0.31,1.46,1.2c0,0.89-0.69,1.14-1.46,1.14h-0.54V84.21z M44.95,85.09c-0.46-0.1-0.91-0.21-1.61-0.21
		c-1.15,0-2.22,0.54-2.22,1.76c0,2.05,2.56,1.29,2.56,2.4c0,0.55-0.6,0.69-0.97,0.69c-0.5,0-0.99-0.14-1.45-0.37l-0.09,1.21
		c0.54,0.14,1.11,0.24,1.67,0.24c1.2,0,2.38-0.53,2.38-1.85c0-2.05-2.56-1.47-2.56-2.38c0-0.48,0.47-0.63,0.87-0.63
		c0.54,0,0.87,0.09,1.32,0.24L44.95,85.09z M39.44,89.16c-0.55,0.31-1.17,0.57-1.88,0.57c-0.91,0-1.55-0.52-1.62-1.43h3.92
		c0-1.98-0.59-3.42-2.69-3.42c-1.76,0-2.63,1.35-2.63,2.99c0,1.86,1.09,2.94,2.96,2.94c0.79,0,1.41-0.15,1.95-0.45V89.16z
		 M35.94,87.29c0.07-0.76,0.48-1.33,1.31-1.33c0.83,0,1.16,0.62,1.2,1.33H35.94z M29,90.68h4.52v-1.21h-2.98V83H29V90.68z"/>
</g>
</svg>
