<svg width="512" height="512" viewBox="0 0 512 512" xmlns="http://www.w3.org/2000/svg">
  <rect width="512" height="512" fill="#f5f5f5"/>

  <!-- Trash can body (tapered) -->
  <path d="M 160 200 L 352 200 L 332 440 Q 332 460 312 460 L 200 460 Q 180 460 180 440 L 160 200 Z"
        fill="none" stroke="black" stroke-width="24" stroke-linejoin="round"/>

  <!-- Trash can lid (tilted open) -->
  <ellipse cx="150" cy="140" rx="136" ry="20"
           transform="rotate(-15 150 140)"
           fill="none" stroke="black" stroke-width="24"/>

  <!-- Handle (on tilted lid) -->
  <rect x="105" y="100" width="112" height="40" rx="20" ry="20"
        transform="rotate(-15 161 120)"
        fill="black" stroke="none"/>

  <!-- Vertical indents -->
  <line x1="220" y1="220" x2="210" y2="420" stroke="black" stroke-width="16" stroke-linecap="round"/>
  <line x1="256" y1="220" x2="256" y2="420" stroke="black" stroke-width="16" stroke-linecap="round"/>
  <line x1="292" y1="220" x2="302" y2="420" stroke="black" stroke-width="16" stroke-linecap="round"/>

  <!-- Overflow items -->
  <circle cx="300" cy="120" r="16" fill="none" stroke="black" stroke-width="12"/>
  <rect x="340" y="100" width="32" height="32" rx="8" fill="none" stroke="black" stroke-width="12"/>
  <circle cx="380" cy="80" r="12" fill="none" stroke="black" stroke-width="10"/>
  <rect x="320" y="60" width="24" height="24" rx="6" fill="none" stroke="black" stroke-width="10"/>

  <!-- Additional overflow down the right side -->
  <circle cx="390" cy="140" r="14" fill="none" stroke="black" stroke-width="10"/>
  <rect x="400" y="170" width="28" height="28" rx="7" fill="none" stroke="black" stroke-width="10"/>
  <circle cx="420" cy="210" r="10" fill="none" stroke="black" stroke-width="8"/>
  <rect x="410" y="240" width="20" height="20" rx="5" fill="none" stroke="black" stroke-width="8"/>
  <circle cx="430" cy="270" r="8" fill="none" stroke="black" stroke-width="6"/>
</svg>
