<?xml version="1.0" encoding="utf-8" standalone="no"?>
<!DOCTYPE svg PUBLIC "-//W3C//DTD SVG 1.1//EN"
  "http://www.w3.org/Graphics/SVG/1.1/DTD/svg11.dtd">
<svg xmlns:xlink="http://www.w3.org/1999/xlink" width="460.8pt" height="345.6pt" viewBox="0 0 460.8 345.6" xmlns="http://www.w3.org/2000/svg" version="1.1">
 <metadata>
  <rdf:RDF xmlns:dc="http://purl.org/dc/elements/1.1/" xmlns:cc="http://creativecommons.org/ns#" xmlns:rdf="http://www.w3.org/1999/02/22-rdf-syntax-ns#">
   <cc:Work>
    <dc:type rdf:resource="http://purl.org/dc/dcmitype/StillImage"/>
    <dc:date>2025-03-21T11:08:13.264720</dc:date>
    <dc:format>image/svg+xml</dc:format>
    <dc:creator>
     <cc:Agent>
      <dc:title>Matplotlib v3.9.2, https://matplotlib.org/</dc:title>
     </cc:Agent>
    </dc:creator>
   </cc:Work>
  </rdf:RDF>
 </metadata>
 <defs>
  <style type="text/css">*{stroke-linejoin: round; stroke-linecap: butt}</style>
 </defs>
 <g id="figure_1">
  <g id="patch_1">
   <path d="M 0 345.6 
L 460.8 345.6 
L 460.8 0 
L 0 0 
L 0 345.6 
z
" style="fill: none"/>
  </g>
  <g id="axes_1">
   <g id="patch_2">
    <path d="M 57.6 307.584 
L 414.72 307.584 
L 414.72 41.472 
L 57.6 41.472 
L 57.6 307.584 
z
" style="fill: none"/>
   </g>
   <g id="matplotlib.axis_1">
    <g id="xtick_1">
     <g id="line2d_1">
      <defs>
       <path id="m50f51bd11b" d="M 0 0 
L 0 6 
" style="stroke: #000000; stroke-width: 0.5"/>
      </defs>
      <g>
       <use xlink:href="#m50f51bd11b" x="87.36" y="307.584" style="stroke: #000000; stroke-width: 0.5"/>
      </g>
     </g>
     <g id="text_1">
      <!-- −1 -->
      <g transform="translate(81.56 324.449625) scale(0.1 -0.1)">
       <defs>
        <path id="Lato-Regular-2212" d="M 480 2365 
L 3232 2365 
L 3232 1933 
L 480 1933 
L 480 2365 
z
" transform="scale(0.015625)"/>
        <path id="Lato-Regular-31" d="M 800 435 
L 1782 435 
L 1782 3562 
Q 1782 3696 1792 3846 
L 976 3146 
Q 934 3110 892 3102 
Q 851 3094 816 3100 
Q 781 3107 750 3126 
Q 720 3146 704 3168 
L 525 3414 
L 1891 4595 
L 2355 4595 
L 2355 435 
L 3258 435 
L 3258 0 
L 800 0 
L 800 435 
z
" transform="scale(0.015625)"/>
       </defs>
       <use xlink:href="#Lato-Regular-2212"/>
       <use xlink:href="#Lato-Regular-31" x="58"/>
      </g>
     </g>
    </g>
    <g id="xtick_2">
     <g id="line2d_2">
      <g>
       <use xlink:href="#m50f51bd11b" x="136.96" y="307.584" style="stroke: #000000; stroke-width: 0.5"/>
      </g>
     </g>
     <g id="text_2">
      <!-- 0 -->
      <g transform="translate(134.06 324.449625) scale(0.1 -0.1)">
       <defs>
        <path id="Lato-Regular-30" d="M 3520 2291 
Q 3520 1690 3390 1250 
Q 3261 810 3037 522 
Q 2813 234 2507 93 
Q 2202 -48 1853 -48 
Q 1501 -48 1198 93 
Q 896 234 672 522 
Q 448 810 320 1250 
Q 192 1690 192 2291 
Q 192 2893 320 3334 
Q 448 3776 672 4065 
Q 896 4355 1198 4496 
Q 1501 4637 1853 4637 
Q 2202 4637 2507 4496 
Q 2813 4355 3037 4065 
Q 3261 3776 3390 3334 
Q 3520 2893 3520 2291 
z
M 2928 2291 
Q 2928 2816 2840 3173 
Q 2752 3530 2603 3747 
Q 2454 3965 2259 4059 
Q 2064 4154 1853 4154 
Q 1642 4154 1446 4059 
Q 1251 3965 1104 3747 
Q 957 3530 869 3173 
Q 781 2816 781 2291 
Q 781 1766 869 1411 
Q 957 1056 1104 838 
Q 1251 621 1446 526 
Q 1642 432 1853 432 
Q 2064 432 2259 526 
Q 2454 621 2603 838 
Q 2752 1056 2840 1411 
Q 2928 1766 2928 2291 
z
" transform="scale(0.015625)"/>
       </defs>
       <use xlink:href="#Lato-Regular-30"/>
      </g>
     </g>
    </g>
    <g id="xtick_3">
     <g id="line2d_3">
      <g>
       <use xlink:href="#m50f51bd11b" x="186.56" y="307.584" style="stroke: #000000; stroke-width: 0.5"/>
      </g>
     </g>
     <g id="text_3">
      <!-- 1 -->
      <g transform="translate(183.66 324.449625) scale(0.1 -0.1)">
       <use xlink:href="#Lato-Regular-31"/>
      </g>
     </g>
    </g>
    <g id="xtick_4">
     <g id="line2d_4">
      <g>
       <use xlink:href="#m50f51bd11b" x="236.16" y="307.584" style="stroke: #000000; stroke-width: 0.5"/>
      </g>
     </g>
     <g id="text_4">
      <!-- 2 -->
      <g transform="translate(233.26 324.449625) scale(0.1 -0.1)">
       <defs>
        <path id="Lato-Regular-32" d="M 1891 4637 
Q 2182 4637 2435 4550 
Q 2688 4464 2873 4299 
Q 3059 4134 3164 3897 
Q 3270 3661 3270 3360 
Q 3270 3104 3193 2885 
Q 3117 2666 2985 2467 
Q 2854 2269 2683 2080 
Q 2512 1891 2320 1699 
L 1110 464 
Q 1238 499 1369 520 
Q 1501 541 1622 541 
L 3158 541 
Q 3251 541 3305 486 
Q 3360 432 3360 346 
L 3360 0 
L 301 0 
L 301 195 
Q 301 256 326 320 
Q 352 384 406 438 
L 1875 1914 
Q 2058 2099 2208 2270 
Q 2358 2442 2464 2614 
Q 2570 2787 2627 2964 
Q 2685 3142 2685 3344 
Q 2685 3546 2621 3698 
Q 2557 3850 2446 3949 
Q 2336 4048 2185 4097 
Q 2035 4147 1862 4147 
Q 1686 4147 1539 4096 
Q 1392 4045 1278 3953 
Q 1165 3862 1088 3737 
Q 1011 3613 979 3462 
Q 941 3350 875 3313 
Q 810 3277 691 3293 
L 394 3344 
Q 438 3658 568 3899 
Q 698 4141 894 4304 
Q 1091 4467 1344 4552 
Q 1597 4637 1891 4637 
z
" transform="scale(0.015625)"/>
       </defs>
       <use xlink:href="#Lato-Regular-32"/>
      </g>
     </g>
    </g>
    <g id="xtick_5">
     <g id="line2d_5">
      <g>
       <use xlink:href="#m50f51bd11b" x="285.76" y="307.584" style="stroke: #000000; stroke-width: 0.5"/>
      </g>
     </g>
     <g id="text_5">
      <!-- 3 -->
      <g transform="translate(282.86 324.449625) scale(0.1 -0.1)">
       <defs>
        <path id="Lato-Regular-33" d="M 1914 4637 
Q 2205 4637 2451 4553 
Q 2698 4470 2875 4316 
Q 3053 4163 3152 3945 
Q 3251 3728 3251 3462 
Q 3251 3245 3195 3073 
Q 3139 2902 3035 2772 
Q 2931 2643 2784 2553 
Q 2637 2464 2454 2410 
Q 2902 2291 3128 2012 
Q 3354 1734 3354 1315 
Q 3354 998 3234 745 
Q 3114 493 2906 315 
Q 2698 138 2421 43 
Q 2144 -51 1827 -51 
Q 1462 -51 1203 40 
Q 944 131 765 291 
Q 586 451 470 670 
Q 355 890 275 1146 
L 522 1248 
Q 618 1290 709 1270 
Q 800 1251 842 1165 
Q 883 1075 945 950 
Q 1008 826 1117 710 
Q 1226 595 1394 515 
Q 1562 435 1821 435 
Q 2061 435 2241 513 
Q 2422 592 2542 717 
Q 2662 842 2723 995 
Q 2784 1149 2784 1299 
Q 2784 1485 2736 1638 
Q 2688 1792 2557 1904 
Q 2426 2016 2197 2080 
Q 1968 2144 1610 2144 
L 1610 2557 
Q 1904 2560 2110 2621 
Q 2317 2682 2446 2787 
Q 2576 2893 2635 3040 
Q 2694 3187 2694 3366 
Q 2694 3565 2632 3712 
Q 2570 3859 2461 3955 
Q 2352 4051 2203 4099 
Q 2054 4147 1882 4147 
Q 1709 4147 1560 4096 
Q 1411 4045 1297 3953 
Q 1184 3862 1107 3737 
Q 1030 3613 998 3462 
Q 957 3350 894 3313 
Q 832 3277 714 3293 
L 416 3344 
Q 461 3658 589 3899 
Q 717 4141 913 4304 
Q 1110 4467 1364 4552 
Q 1619 4637 1914 4637 
z
" transform="scale(0.015625)"/>
       </defs>
       <use xlink:href="#Lato-Regular-33"/>
      </g>
     </g>
    </g>
    <g id="xtick_6">
     <g id="line2d_6">
      <g>
       <use xlink:href="#m50f51bd11b" x="335.36" y="307.584" style="stroke: #000000; stroke-width: 0.5"/>
      </g>
     </g>
     <g id="text_6">
      <!-- 4 -->
      <g transform="translate(332.46 324.449625) scale(0.1 -0.1)">
       <defs>
        <path id="Lato-Regular-34" d="M 2835 1654 
L 3530 1654 
L 3530 1328 
Q 3530 1277 3499 1241 
Q 3469 1206 3405 1206 
L 2835 1206 
L 2835 0 
L 2336 0 
L 2336 1206 
L 301 1206 
Q 237 1206 190 1243 
Q 144 1280 131 1334 
L 74 1626 
L 2304 4586 
L 2835 4586 
L 2835 1654 
z
M 2336 3546 
Q 2336 3629 2341 3726 
Q 2346 3824 2362 3926 
L 691 1654 
L 2336 1654 
L 2336 3546 
z
" transform="scale(0.015625)"/>
       </defs>
       <use xlink:href="#Lato-Regular-34"/>
      </g>
     </g>
    </g>
    <g id="xtick_7">
     <g id="line2d_7">
      <g>
       <use xlink:href="#m50f51bd11b" x="384.96" y="307.584" style="stroke: #000000; stroke-width: 0.5"/>
      </g>
     </g>
     <g id="text_7">
      <!-- 5 -->
      <g transform="translate(382.06 324.449625) scale(0.1 -0.1)">
       <defs>
        <path id="Lato-Regular-35" d="M 3142 4336 
Q 3142 4214 3067 4136 
Q 2992 4058 2810 4058 
L 1370 4058 
L 1158 2854 
Q 1341 2896 1502 2913 
Q 1664 2931 1818 2931 
Q 2176 2931 2451 2825 
Q 2726 2720 2910 2534 
Q 3094 2349 3188 2096 
Q 3283 1843 3283 1546 
Q 3283 1181 3156 886 
Q 3030 592 2808 382 
Q 2586 173 2285 61 
Q 1984 -51 1635 -51 
Q 1434 -51 1248 -11 
Q 1062 29 900 96 
Q 739 163 601 249 
Q 464 336 358 432 
L 534 675 
Q 592 758 685 758 
Q 749 758 829 708 
Q 909 659 1024 598 
Q 1139 538 1294 488 
Q 1450 438 1664 438 
Q 1904 438 2096 515 
Q 2288 592 2425 734 
Q 2563 877 2636 1075 
Q 2710 1274 2710 1520 
Q 2710 1734 2648 1907 
Q 2586 2080 2459 2201 
Q 2333 2323 2144 2390 
Q 1955 2458 1702 2458 
Q 1530 2458 1342 2429 
Q 1155 2400 960 2336 
L 602 2442 
L 970 4586 
L 3142 4586 
L 3142 4336 
z
" transform="scale(0.015625)"/>
       </defs>
       <use xlink:href="#Lato-Regular-35"/>
      </g>
     </g>
    </g>
    <g id="xtick_8">
     <g id="line2d_8">
      <defs>
       <path id="m1e73f572b7" d="M 0 0 
L 0 3 
" style="stroke: #000000; stroke-width: 0.5"/>
      </defs>
      <g>
       <use xlink:href="#m1e73f572b7" x="57.6" y="307.584" style="stroke: #000000; stroke-width: 0.5"/>
      </g>
     </g>
    </g>
    <g id="xtick_9">
     <g id="line2d_9">
      <g>
       <use xlink:href="#m1e73f572b7" x="67.52" y="307.584" style="stroke: #000000; stroke-width: 0.5"/>
      </g>
     </g>
    </g>
    <g id="xtick_10">
     <g id="line2d_10">
      <g>
       <use xlink:href="#m1e73f572b7" x="77.44" y="307.584" style="stroke: #000000; stroke-width: 0.5"/>
      </g>
     </g>
    </g>
    <g id="xtick_11">
     <g id="line2d_11">
      <g>
       <use xlink:href="#m1e73f572b7" x="97.28" y="307.584" style="stroke: #000000; stroke-width: 0.5"/>
      </g>
     </g>
    </g>
    <g id="xtick_12">
     <g id="line2d_12">
      <g>
       <use xlink:href="#m1e73f572b7" x="107.2" y="307.584" style="stroke: #000000; stroke-width: 0.5"/>
      </g>
     </g>
    </g>
    <g id="xtick_13">
     <g id="line2d_13">
      <g>
       <use xlink:href="#m1e73f572b7" x="117.12" y="307.584" style="stroke: #000000; stroke-width: 0.5"/>
      </g>
     </g>
    </g>
    <g id="xtick_14">
     <g id="line2d_14">
      <g>
       <use xlink:href="#m1e73f572b7" x="127.04" y="307.584" style="stroke: #000000; stroke-width: 0.5"/>
      </g>
     </g>
    </g>
    <g id="xtick_15">
     <g id="line2d_15">
      <g>
       <use xlink:href="#m1e73f572b7" x="146.88" y="307.584" style="stroke: #000000; stroke-width: 0.5"/>
      </g>
     </g>
    </g>
    <g id="xtick_16">
     <g id="line2d_16">
      <g>
       <use xlink:href="#m1e73f572b7" x="156.8" y="307.584" style="stroke: #000000; stroke-width: 0.5"/>
      </g>
     </g>
    </g>
    <g id="xtick_17">
     <g id="line2d_17">
      <g>
       <use xlink:href="#m1e73f572b7" x="166.72" y="307.584" style="stroke: #000000; stroke-width: 0.5"/>
      </g>
     </g>
    </g>
    <g id="xtick_18">
     <g id="line2d_18">
      <g>
       <use xlink:href="#m1e73f572b7" x="176.64" y="307.584" style="stroke: #000000; stroke-width: 0.5"/>
      </g>
     </g>
    </g>
    <g id="xtick_19">
     <g id="line2d_19">
      <g>
       <use xlink:href="#m1e73f572b7" x="196.48" y="307.584" style="stroke: #000000; stroke-width: 0.5"/>
      </g>
     </g>
    </g>
    <g id="xtick_20">
     <g id="line2d_20">
      <g>
       <use xlink:href="#m1e73f572b7" x="206.4" y="307.584" style="stroke: #000000; stroke-width: 0.5"/>
      </g>
     </g>
    </g>
    <g id="xtick_21">
     <g id="line2d_21">
      <g>
       <use xlink:href="#m1e73f572b7" x="216.32" y="307.584" style="stroke: #000000; stroke-width: 0.5"/>
      </g>
     </g>
    </g>
    <g id="xtick_22">
     <g id="line2d_22">
      <g>
       <use xlink:href="#m1e73f572b7" x="226.24" y="307.584" style="stroke: #000000; stroke-width: 0.5"/>
      </g>
     </g>
    </g>
    <g id="xtick_23">
     <g id="line2d_23">
      <g>
       <use xlink:href="#m1e73f572b7" x="246.08" y="307.584" style="stroke: #000000; stroke-width: 0.5"/>
      </g>
     </g>
    </g>
    <g id="xtick_24">
     <g id="line2d_24">
      <g>
       <use xlink:href="#m1e73f572b7" x="256" y="307.584" style="stroke: #000000; stroke-width: 0.5"/>
      </g>
     </g>
    </g>
    <g id="xtick_25">
     <g id="line2d_25">
      <g>
       <use xlink:href="#m1e73f572b7" x="265.92" y="307.584" style="stroke: #000000; stroke-width: 0.5"/>
      </g>
     </g>
    </g>
    <g id="xtick_26">
     <g id="line2d_26">
      <g>
       <use xlink:href="#m1e73f572b7" x="275.84" y="307.584" style="stroke: #000000; stroke-width: 0.5"/>
      </g>
     </g>
    </g>
    <g id="xtick_27">
     <g id="line2d_27">
      <g>
       <use xlink:href="#m1e73f572b7" x="295.68" y="307.584" style="stroke: #000000; stroke-width: 0.5"/>
      </g>
     </g>
    </g>
    <g id="xtick_28">
     <g id="line2d_28">
      <g>
       <use xlink:href="#m1e73f572b7" x="305.6" y="307.584" style="stroke: #000000; stroke-width: 0.5"/>
      </g>
     </g>
    </g>
    <g id="xtick_29">
     <g id="line2d_29">
      <g>
       <use xlink:href="#m1e73f572b7" x="315.52" y="307.584" style="stroke: #000000; stroke-width: 0.5"/>
      </g>
     </g>
    </g>
    <g id="xtick_30">
     <g id="line2d_30">
      <g>
       <use xlink:href="#m1e73f572b7" x="325.44" y="307.584" style="stroke: #000000; stroke-width: 0.5"/>
      </g>
     </g>
    </g>
    <g id="xtick_31">
     <g id="line2d_31">
      <g>
       <use xlink:href="#m1e73f572b7" x="345.28" y="307.584" style="stroke: #000000; stroke-width: 0.5"/>
      </g>
     </g>
    </g>
    <g id="xtick_32">
     <g id="line2d_32">
      <g>
       <use xlink:href="#m1e73f572b7" x="355.2" y="307.584" style="stroke: #000000; stroke-width: 0.5"/>
      </g>
     </g>
    </g>
    <g id="xtick_33">
     <g id="line2d_33">
      <g>
       <use xlink:href="#m1e73f572b7" x="365.12" y="307.584" style="stroke: #000000; stroke-width: 0.5"/>
      </g>
     </g>
    </g>
    <g id="xtick_34">
     <g id="line2d_34">
      <g>
       <use xlink:href="#m1e73f572b7" x="375.04" y="307.584" style="stroke: #000000; stroke-width: 0.5"/>
      </g>
     </g>
    </g>
    <g id="xtick_35">
     <g id="line2d_35">
      <g>
       <use xlink:href="#m1e73f572b7" x="394.88" y="307.584" style="stroke: #000000; stroke-width: 0.5"/>
      </g>
     </g>
    </g>
    <g id="xtick_36">
     <g id="line2d_36">
      <g>
       <use xlink:href="#m1e73f572b7" x="404.8" y="307.584" style="stroke: #000000; stroke-width: 0.5"/>
      </g>
     </g>
    </g>
    <g id="xtick_37">
     <g id="line2d_37">
      <g>
       <use xlink:href="#m1e73f572b7" x="414.72" y="307.584" style="stroke: #000000; stroke-width: 0.5"/>
      </g>
     </g>
    </g>
    <g id="text_8">
     <!-- x -->
     <g transform="translate(233.549844 337.594937) scale(0.1 -0.1)">
      <defs>
       <path id="Lato-Bold-78" d="M 1142 1693 
L 64 3283 
L 826 3283 
Q 912 3283 953 3259 
Q 995 3235 1027 3181 
L 1715 2083 
Q 1731 2138 1755 2192 
Q 1779 2246 1814 2301 
L 2368 3165 
Q 2438 3283 2550 3283 
L 3277 3283 
L 2195 1728 
L 3322 0 
L 2560 0 
Q 2474 0 2421 45 
Q 2368 90 2333 147 
L 1635 1290 
Q 1606 1174 1555 1098 
L 941 147 
Q 906 93 854 46 
Q 803 0 726 0 
L 19 0 
L 1142 1693 
z
" transform="scale(0.015625)"/>
      </defs>
      <use xlink:href="#Lato-Bold-78"/>
     </g>
    </g>
   </g>
   <g id="matplotlib.axis_2">
    <g id="ytick_1">
     <g id="line2d_38">
      <path d="M 57.6 307.584 
L 414.72 307.584 
" clip-path="url(#pbe1b8b8625)" style="fill: none; stroke: #cccccc; stroke-width: 0.5; stroke-linecap: square"/>
     </g>
     <g id="text_9">
      <!-- 0.0 -->
      <g transform="translate(40.140625 311.266812) scale(0.1 -0.1)">
       <defs>
        <path id="Lato-Regular-2e" d="M 355 352 
Q 355 435 385 508 
Q 416 582 469 636 
Q 522 691 595 723 
Q 669 755 752 755 
Q 835 755 908 723 
Q 982 691 1036 636 
Q 1091 582 1123 508 
Q 1155 435 1155 352 
Q 1155 266 1123 194 
Q 1091 122 1036 67 
Q 982 13 908 -17 
Q 835 -48 752 -48 
Q 669 -48 595 -17 
Q 522 13 469 67 
Q 416 122 385 194 
Q 355 266 355 352 
z
" transform="scale(0.015625)"/>
       </defs>
       <use xlink:href="#Lato-Regular-30"/>
       <use xlink:href="#Lato-Regular-2e" x="58"/>
       <use xlink:href="#Lato-Regular-30" x="81.600006"/>
      </g>
     </g>
    </g>
    <g id="ytick_2">
     <g id="line2d_39">
      <path d="M 57.6 266.539208 
L 414.72 266.539208 
" clip-path="url(#pbe1b8b8625)" style="fill: none; stroke: #cccccc; stroke-width: 0.5; stroke-linecap: square"/>
     </g>
     <g id="text_10">
      <!-- 0.1 -->
      <g transform="translate(40.140625 270.22202) scale(0.1 -0.1)">
       <use xlink:href="#Lato-Regular-30"/>
       <use xlink:href="#Lato-Regular-2e" x="58"/>
       <use xlink:href="#Lato-Regular-31" x="81.600006"/>
      </g>
     </g>
    </g>
    <g id="ytick_3">
     <g id="line2d_40">
      <path d="M 57.6 225.494416 
L 414.72 225.494416 
" clip-path="url(#pbe1b8b8625)" style="fill: none; stroke: #cccccc; stroke-width: 0.5; stroke-linecap: square"/>
     </g>
     <g id="text_11">
      <!-- 0.2 -->
      <g transform="translate(40.140625 229.177228) scale(0.1 -0.1)">
       <use xlink:href="#Lato-Regular-30"/>
       <use xlink:href="#Lato-Regular-2e" x="58"/>
       <use xlink:href="#Lato-Regular-32" x="81.600006"/>
      </g>
     </g>
    </g>
    <g id="ytick_4">
     <g id="line2d_41">
      <path d="M 57.6 184.449624 
L 414.72 184.449624 
" clip-path="url(#pbe1b8b8625)" style="fill: none; stroke: #cccccc; stroke-width: 0.5; stroke-linecap: square"/>
     </g>
     <g id="text_12">
      <!-- 0.3 -->
      <g transform="translate(40.140625 188.132436) scale(0.1 -0.1)">
       <use xlink:href="#Lato-Regular-30"/>
       <use xlink:href="#Lato-Regular-2e" x="58"/>
       <use xlink:href="#Lato-Regular-33" x="81.600006"/>
      </g>
     </g>
    </g>
    <g id="ytick_5">
     <g id="line2d_42">
      <path d="M 57.6 143.404832 
L 414.72 143.404832 
" clip-path="url(#pbe1b8b8625)" style="fill: none; stroke: #cccccc; stroke-width: 0.5; stroke-linecap: square"/>
     </g>
     <g id="text_13">
      <!-- 0.4 -->
      <g transform="translate(40.140625 147.087644) scale(0.1 -0.1)">
       <use xlink:href="#Lato-Regular-30"/>
       <use xlink:href="#Lato-Regular-2e" x="58"/>
       <use xlink:href="#Lato-Regular-34" x="81.600006"/>
      </g>
     </g>
    </g>
    <g id="ytick_6">
     <g id="line2d_43">
      <path d="M 57.6 102.360039 
L 414.72 102.360039 
" clip-path="url(#pbe1b8b8625)" style="fill: none; stroke: #cccccc; stroke-width: 0.5; stroke-linecap: square"/>
     </g>
     <g id="text_14">
      <!-- 0.5 -->
      <g transform="translate(40.140625 106.042852) scale(0.1 -0.1)">
       <use xlink:href="#Lato-Regular-30"/>
       <use xlink:href="#Lato-Regular-2e" x="58"/>
       <use xlink:href="#Lato-Regular-35" x="81.600006"/>
      </g>
     </g>
    </g>
    <g id="ytick_7">
     <g id="line2d_44">
      <path d="M 57.6 61.315247 
L 414.72 61.315247 
" clip-path="url(#pbe1b8b8625)" style="fill: none; stroke: #cccccc; stroke-width: 0.5; stroke-linecap: square"/>
     </g>
     <g id="text_15">
      <!-- 0.6 -->
      <g transform="translate(40.140625 64.99806) scale(0.1 -0.1)">
       <defs>
        <path id="Lato-Regular-36" d="M 1517 2867 
Q 1453 2790 1398 2716 
Q 1344 2643 1290 2573 
Q 1453 2685 1649 2747 
Q 1846 2810 2077 2810 
Q 2355 2810 2601 2718 
Q 2848 2627 3032 2452 
Q 3216 2278 3325 2024 
Q 3434 1770 3434 1443 
Q 3434 1126 3318 854 
Q 3203 582 2996 380 
Q 2790 179 2500 64 
Q 2211 -51 1862 -51 
Q 1517 -51 1235 59 
Q 954 170 757 373 
Q 560 576 453 865 
Q 346 1155 346 1514 
Q 346 1814 478 2155 
Q 611 2496 902 2883 
L 2067 4448 
Q 2112 4506 2190 4546 
Q 2269 4586 2371 4586 
L 2877 4586 
L 1517 2867 
z
M 893 1414 
Q 893 1194 957 1011 
Q 1021 829 1144 697 
Q 1267 566 1444 494 
Q 1622 422 1850 422 
Q 2080 422 2267 496 
Q 2454 570 2587 701 
Q 2720 832 2792 1011 
Q 2864 1190 2864 1402 
Q 2864 1626 2793 1806 
Q 2723 1987 2593 2113 
Q 2464 2240 2285 2307 
Q 2106 2374 1891 2374 
Q 1661 2374 1475 2296 
Q 1290 2218 1160 2085 
Q 1030 1952 961 1777 
Q 893 1603 893 1414 
z
" transform="scale(0.015625)"/>
       </defs>
       <use xlink:href="#Lato-Regular-30"/>
       <use xlink:href="#Lato-Regular-2e" x="58"/>
       <use xlink:href="#Lato-Regular-36" x="81.600006"/>
      </g>
     </g>
    </g>
    <g id="text_16">
     <!-- PDF values -->
     <g transform="translate(34.465625 199.278) rotate(-90) scale(0.1 -0.1)">
      <defs>
       <path id="Lato-Bold-50" d="M 1376 1629 
L 1376 0 
L 515 0 
L 515 4627 
L 2019 4627 
Q 2483 4627 2822 4518 
Q 3162 4410 3382 4214 
Q 3603 4019 3710 3747 
Q 3818 3475 3818 3152 
Q 3818 2816 3706 2536 
Q 3594 2256 3370 2054 
Q 3146 1853 2808 1741 
Q 2470 1629 2019 1629 
L 1376 1629 
z
M 1376 2301 
L 2019 2301 
Q 2256 2301 2432 2360 
Q 2608 2419 2725 2529 
Q 2842 2640 2899 2798 
Q 2957 2957 2957 3152 
Q 2957 3338 2899 3488 
Q 2842 3638 2726 3744 
Q 2611 3850 2435 3906 
Q 2259 3962 2019 3962 
L 1376 3962 
L 1376 2301 
z
" transform="scale(0.015625)"/>
       <path id="Lato-Bold-44" d="M 4624 2314 
Q 4624 1805 4454 1379 
Q 4285 954 3977 646 
Q 3670 339 3238 169 
Q 2806 0 2278 0 
L 515 0 
L 515 4627 
L 2278 4627 
Q 2806 4627 3238 4456 
Q 3670 4285 3977 3979 
Q 4285 3674 4454 3248 
Q 4624 2822 4624 2314 
z
M 3741 2314 
Q 3741 2694 3640 2996 
Q 3539 3299 3348 3508 
Q 3158 3718 2888 3830 
Q 2618 3942 2278 3942 
L 1379 3942 
L 1379 685 
L 2278 685 
Q 2618 685 2888 797 
Q 3158 909 3348 1118 
Q 3539 1328 3640 1630 
Q 3741 1933 3741 2314 
z
" transform="scale(0.015625)"/>
       <path id="Lato-Bold-46" d="M 3434 4627 
L 3434 3942 
L 1379 3942 
L 1379 2573 
L 3114 2573 
L 3114 1885 
L 1379 1885 
L 1379 0 
L 515 0 
L 515 4627 
L 3434 4627 
z
" transform="scale(0.015625)"/>
       <path id="Lato-Bold-20" transform="scale(0.015625)"/>
       <path id="Lato-Bold-76" d="M 29 3283 
L 682 3283 
Q 771 3283 830 3241 
Q 890 3200 909 3136 
L 1542 1382 
Q 1594 1229 1630 1081 
Q 1667 934 1699 787 
Q 1731 934 1769 1081 
Q 1808 1229 1862 1382 
L 2509 3136 
Q 2531 3200 2588 3241 
Q 2646 3283 2726 3283 
L 3350 3283 
L 2048 0 
L 1331 0 
L 29 3283 
z
" transform="scale(0.015625)"/>
       <path id="Lato-Bold-61" d="M 2538 0 
Q 2426 0 2365 33 
Q 2304 67 2269 170 
L 2198 403 
Q 2074 291 1955 206 
Q 1837 122 1709 64 
Q 1581 6 1435 -22 
Q 1290 -51 1114 -51 
Q 906 -51 730 5 
Q 554 61 426 173 
Q 298 285 227 451 
Q 157 618 157 838 
Q 157 1024 254 1205 
Q 352 1386 579 1531 
Q 806 1677 1184 1773 
Q 1562 1869 2125 1882 
L 2125 2074 
Q 2125 2403 1984 2561 
Q 1843 2720 1578 2720 
Q 1386 2720 1259 2675 
Q 1133 2630 1037 2574 
Q 941 2518 862 2473 
Q 784 2429 688 2429 
Q 605 2429 547 2472 
Q 490 2515 454 2573 
L 314 2826 
Q 880 3344 1677 3344 
Q 1965 3344 2192 3249 
Q 2419 3155 2576 2987 
Q 2733 2819 2814 2585 
Q 2896 2352 2896 2074 
L 2896 0 
L 2538 0 
z
M 1357 493 
Q 1600 493 1777 581 
Q 1955 669 2125 848 
L 2125 1402 
Q 1779 1386 1547 1342 
Q 1315 1299 1174 1232 
Q 1034 1165 973 1075 
Q 912 986 912 880 
Q 912 672 1035 582 
Q 1158 493 1357 493 
z
" transform="scale(0.015625)"/>
       <path id="Lato-Bold-6c" d="M 1190 4755 
L 1190 0 
L 400 0 
L 400 4755 
L 1190 4755 
z
" transform="scale(0.015625)"/>
       <path id="Lato-Bold-75" d="M 1149 3283 
L 1149 1197 
Q 1149 896 1288 731 
Q 1427 566 1706 566 
Q 1910 566 2089 657 
Q 2269 749 2429 909 
L 2429 3283 
L 3219 3283 
L 3219 0 
L 2736 0 
Q 2579 0 2538 144 
L 2483 406 
Q 2381 304 2272 219 
Q 2163 134 2038 73 
Q 1914 13 1773 -19 
Q 1632 -51 1466 -51 
Q 1197 -51 990 40 
Q 784 131 643 297 
Q 502 464 430 693 
Q 358 922 358 1197 
L 358 3283 
L 1149 3283 
z
" transform="scale(0.015625)"/>
       <path id="Lato-Bold-65" d="M 1789 3334 
Q 2099 3334 2361 3235 
Q 2624 3136 2813 2945 
Q 3002 2755 3109 2478 
Q 3216 2202 3216 1846 
Q 3216 1667 3177 1604 
Q 3139 1542 3030 1542 
L 998 1542 
Q 1018 1290 1088 1106 
Q 1158 922 1273 802 
Q 1389 682 1547 622 
Q 1706 563 1898 563 
Q 2090 563 2229 608 
Q 2368 653 2472 707 
Q 2576 762 2654 806 
Q 2733 851 2806 851 
Q 2906 851 2954 778 
L 3181 490 
Q 3050 336 2886 232 
Q 2723 128 2545 65 
Q 2368 3 2184 -22 
Q 2000 -48 1827 -48 
Q 1485 -48 1190 65 
Q 896 179 678 401 
Q 461 624 336 952 
Q 211 1280 211 1712 
Q 211 2048 320 2344 
Q 429 2640 632 2859 
Q 835 3078 1128 3206 
Q 1421 3334 1789 3334 
z
M 1805 2768 
Q 1459 2768 1264 2573 
Q 1069 2378 1014 2019 
L 2506 2019 
Q 2506 2173 2462 2309 
Q 2419 2445 2332 2547 
Q 2246 2650 2113 2709 
Q 1981 2768 1805 2768 
z
" transform="scale(0.015625)"/>
       <path id="Lato-Bold-73" d="M 2394 2643 
Q 2362 2592 2326 2571 
Q 2291 2550 2237 2550 
Q 2179 2550 2113 2582 
Q 2048 2614 1961 2654 
Q 1875 2694 1764 2726 
Q 1654 2758 1504 2758 
Q 1270 2758 1137 2659 
Q 1005 2560 1005 2400 
Q 1005 2294 1073 2222 
Q 1142 2150 1256 2096 
Q 1370 2042 1514 1998 
Q 1658 1955 1806 1904 
Q 1955 1853 2099 1787 
Q 2243 1722 2356 1621 
Q 2470 1520 2539 1379 
Q 2608 1238 2608 1040 
Q 2608 803 2523 603 
Q 2438 403 2272 257 
Q 2106 112 1861 30 
Q 1616 -51 1296 -51 
Q 1126 -51 964 -20 
Q 803 10 654 64 
Q 506 118 379 192 
Q 253 266 157 352 
L 339 653 
Q 374 707 422 736 
Q 470 765 544 765 
Q 618 765 683 723 
Q 749 682 835 634 
Q 922 586 1038 544 
Q 1155 502 1334 502 
Q 1475 502 1576 536 
Q 1677 570 1742 624 
Q 1808 678 1838 750 
Q 1869 822 1869 899 
Q 1869 1014 1800 1088 
Q 1731 1162 1617 1216 
Q 1504 1270 1358 1313 
Q 1213 1357 1061 1408 
Q 909 1459 763 1528 
Q 618 1597 504 1702 
Q 390 1808 321 1961 
Q 253 2115 253 2333 
Q 253 2534 333 2716 
Q 413 2899 568 3035 
Q 723 3171 955 3252 
Q 1187 3334 1491 3334 
Q 1830 3334 2108 3222 
Q 2387 3110 2573 2928 
L 2394 2643 
z
" transform="scale(0.015625)"/>
      </defs>
      <use xlink:href="#Lato-Bold-50"/>
      <use xlink:href="#Lato-Bold-44" x="61.900009"/>
      <use xlink:href="#Lato-Bold-46" x="137.950027"/>
      <use xlink:href="#Lato-Bold-20" x="192.175034"/>
      <use xlink:href="#Lato-Bold-76" x="214.100037"/>
      <use xlink:href="#Lato-Bold-61" x="265.65004"/>
      <use xlink:href="#Lato-Bold-6c" x="316.40004"/>
      <use xlink:href="#Lato-Bold-75" x="341.250046"/>
      <use xlink:href="#Lato-Bold-65" x="397.650055"/>
      <use xlink:href="#Lato-Bold-73" x="451.050064"/>
     </g>
    </g>
   </g>
   <g id="patch_3">
    <path d="M 87.36 307.584 
L 99.264 307.584 
L 99.264 307.114636 
L 87.36 307.114636 
z
" clip-path="url(#pbe1b8b8625)" style="fill: #1f77b4; opacity: 0.5"/>
   </g>
   <g id="patch_4">
    <path d="M 99.264 307.584 
L 111.168 307.584 
L 111.168 305.853147 
L 99.264 305.853147 
z
" clip-path="url(#pbe1b8b8625)" style="fill: #1f77b4; opacity: 0.5"/>
   </g>
   <g id="patch_5">
    <path d="M 111.168 307.584 
L 123.072 307.584 
L 123.072 302.645156 
L 111.168 302.645156 
z
" clip-path="url(#pbe1b8b8625)" style="fill: #1f77b4; opacity: 0.5"/>
   </g>
   <g id="patch_6">
    <path d="M 123.072 307.584 
L 134.976 307.584 
L 134.976 295.16324 
L 123.072 295.16324 
z
" clip-path="url(#pbe1b8b8625)" style="fill: #1f77b4; opacity: 0.5"/>
   </g>
   <g id="patch_7">
    <path d="M 134.976 307.584 
L 146.88 307.584 
L 146.88 280.038806 
L 134.976 280.038806 
z
" clip-path="url(#pbe1b8b8625)" style="fill: #1f77b4; opacity: 0.5"/>
   </g>
   <g id="patch_8">
    <path d="M 146.88 307.584 
L 158.784 307.584 
L 158.784 253.690644 
L 146.88 253.690644 
z
" clip-path="url(#pbe1b8b8625)" style="fill: #1f77b4; opacity: 0.5"/>
   </g>
   <g id="patch_9">
    <path d="M 158.784 307.584 
L 170.688 307.584 
L 170.688 214.510423 
L 158.784 214.510423 
z
" clip-path="url(#pbe1b8b8625)" style="fill: #1f77b4; opacity: 0.5"/>
   </g>
   <g id="patch_10">
    <path d="M 170.688 307.584 
L 182.592 307.584 
L 182.592 165.640626 
L 170.688 165.640626 
z
" clip-path="url(#pbe1b8b8625)" style="fill: #1f77b4; opacity: 0.5"/>
   </g>
   <g id="patch_11">
    <path d="M 182.592 307.584 
L 194.496 307.584 
L 194.496 116.345744 
L 182.592 116.345744 
z
" clip-path="url(#pbe1b8b8625)" style="fill: #1f77b4; opacity: 0.5"/>
   </g>
   <g id="patch_12">
    <path d="M 194.496 307.584 
L 206.4 307.584 
L 206.4 79.891666 
L 194.496 79.891666 
z
" clip-path="url(#pbe1b8b8625)" style="fill: #1f77b4; opacity: 0.5"/>
   </g>
   <g id="patch_13">
    <path d="M 206.4 307.584 
L 218.304 307.584 
L 218.304 67.953798 
L 206.4 67.953798 
z
" clip-path="url(#pbe1b8b8625)" style="fill: #1f77b4; opacity: 0.5"/>
   </g>
   <g id="patch_14">
    <path d="M 218.304 307.584 
L 230.208 307.584 
L 230.208 84.629341 
L 218.304 84.629341 
z
" clip-path="url(#pbe1b8b8625)" style="fill: #1f77b4; opacity: 0.5"/>
   </g>
   <g id="patch_15">
    <path d="M 230.208 307.584 
L 242.112 307.584 
L 242.112 124.18835 
L 230.208 124.18835 
z
" clip-path="url(#pbe1b8b8625)" style="fill: #1f77b4; opacity: 0.5"/>
   </g>
   <g id="patch_16">
    <path d="M 242.112 307.584 
L 254.016 307.584 
L 254.016 174.223586 
L 242.112 174.223586 
z
" clip-path="url(#pbe1b8b8625)" style="fill: #1f77b4; opacity: 0.5"/>
   </g>
   <g id="patch_17">
    <path d="M 254.016 307.584 
L 265.92 307.584 
L 265.92 221.869906 
L 254.016 221.869906 
z
" clip-path="url(#pbe1b8b8625)" style="fill: #1f77b4; opacity: 0.5"/>
   </g>
   <g id="patch_18">
    <path d="M 265.92 307.584 
L 277.824 307.584 
L 277.824 258.904611 
L 265.92 258.904611 
z
" clip-path="url(#pbe1b8b8625)" style="fill: #1f77b4; opacity: 0.5"/>
   </g>
   <g id="patch_19">
    <path d="M 277.824 307.584 
L 289.728 307.584 
L 289.728 283.163749 
L 277.824 283.163749 
z
" clip-path="url(#pbe1b8b8625)" style="fill: #1f77b4; opacity: 0.5"/>
   </g>
   <g id="patch_20">
    <path d="M 289.728 307.584 
L 301.632 307.584 
L 301.632 296.767577 
L 289.728 296.767577 
z
" clip-path="url(#pbe1b8b8625)" style="fill: #1f77b4; opacity: 0.5"/>
   </g>
   <g id="patch_21">
    <path d="M 301.632 307.584 
L 313.536 307.584 
L 313.536 303.35593 
L 301.632 303.35593 
z
" clip-path="url(#pbe1b8b8625)" style="fill: #1f77b4; opacity: 0.5"/>
   </g>
   <g id="patch_22">
    <path d="M 313.536 307.584 
L 325.44 307.584 
L 325.44 306.12616 
L 313.536 306.12616 
z
" clip-path="url(#pbe1b8b8625)" style="fill: #1f77b4; opacity: 0.5"/>
   </g>
   <g id="patch_23">
    <path d="M 325.44 307.584 
L 337.344 307.584 
L 337.344 307.140834 
L 325.44 307.140834 
z
" clip-path="url(#pbe1b8b8625)" style="fill: #1f77b4; opacity: 0.5"/>
   </g>
   <g id="patch_24">
    <path d="M 337.344 307.584 
L 349.248 307.584 
L 349.248 307.465289 
L 337.344 307.465289 
z
" clip-path="url(#pbe1b8b8625)" style="fill: #1f77b4; opacity: 0.5"/>
   </g>
   <g id="patch_25">
    <path d="M 349.248 307.584 
L 361.152 307.584 
L 361.152 307.555992 
L 349.248 307.555992 
z
" clip-path="url(#pbe1b8b8625)" style="fill: #1f77b4; opacity: 0.5"/>
   </g>
   <g id="patch_26">
    <path d="M 361.152 307.584 
L 373.056 307.584 
L 373.056 307.578183 
L 361.152 307.578183 
z
" clip-path="url(#pbe1b8b8625)" style="fill: #1f77b4; opacity: 0.5"/>
   </g>
   <g id="patch_27">
    <path d="M 373.056 307.584 
L 384.96 307.584 
L 384.96 307.582937 
L 373.056 307.582937 
z
" clip-path="url(#pbe1b8b8625)" style="fill: #1f77b4; opacity: 0.5"/>
   </g>
   <g id="line2d_45">
    <path d="M 87.36 307.329192 
L 93.433469 307.093253 
L 99.506939 306.669443 
L 105.580408 305.934804 
L 111.653878 304.706324 
L 117.727347 302.725303 
L 123.800816 299.646094 
L 129.874286 295.035257 
L 135.947755 288.388354 
L 142.021224 279.171241 
L 148.094694 266.889821 
L 154.168163 251.186563 
L 160.241633 231.953907 
L 166.315102 209.445798 
L 172.388571 184.361574 
L 178.462041 157.874415 
L 184.53551 131.58198 
L 190.60898 107.370254 
L 196.682449 87.200882 
L 202.755918 72.852728 
L 208.829388 65.664 
L 214.902857 66.326518 
L 220.976327 74.775946 
L 227.049796 90.202088 
L 233.123265 111.176981 
L 239.196735 135.872731 
L 245.270204 162.323082 
L 251.343673 188.677125 
L 257.417143 213.400822 
L 263.490612 235.398842 
L 269.564082 254.049879 
L 275.637551 269.167161 
L 281.71102 280.907995 
L 287.78449 289.660281 
L 293.857959 295.930841 
L 299.931429 300.252929 
L 306.004898 303.121283 
L 312.078367 304.955309 
L 318.151837 306.085738 
L 324.225306 306.757688 
L 330.298776 307.14303 
L 336.372245 307.35629 
L 342.445714 307.470221 
L 348.519184 307.528989 
L 354.592653 307.558263 
L 360.666122 307.572349 
L 366.739592 307.578896 
L 372.813061 307.581837 
L 378.886531 307.583113 
L 384.96 307.583648 
" clip-path="url(#pbe1b8b8625)" style="fill: none; stroke: #ff7f0e; stroke-width: 3; stroke-linecap: square"/>
   </g>
   <g id="patch_28">
    <path d="M 57.6 307.584 
L 414.72 307.584 
" style="fill: none; stroke: #000000; stroke-width: 0.5; stroke-linejoin: miter; stroke-linecap: square"/>
   </g>
   <g id="legend_1">
    <g id="line2d_46">
     <path d="M 329.354375 49.337625 
L 339.354375 49.337625 
L 349.354375 49.337625 
" style="fill: none; stroke: #ff7f0e; stroke-width: 3; stroke-linecap: square"/>
    </g>
    <g id="text_17">
     <!-- interpolated -->
     <g transform="translate(357.354375 52.837625) scale(0.1 -0.1)">
      <defs>
       <path id="Lato-Regular-69" d="M 1053 3242 
L 1053 0 
L 483 0 
L 483 3242 
L 1053 3242 
z
M 1174 4259 
Q 1174 4176 1140 4104 
Q 1107 4032 1051 3976 
Q 995 3920 920 3888 
Q 845 3856 762 3856 
Q 678 3856 606 3888 
Q 534 3920 480 3976 
Q 426 4032 394 4104 
Q 362 4176 362 4259 
Q 362 4342 394 4417 
Q 426 4493 480 4549 
Q 534 4605 606 4637 
Q 678 4669 762 4669 
Q 845 4669 920 4637 
Q 995 4605 1051 4549 
Q 1107 4493 1140 4417 
Q 1174 4342 1174 4259 
z
" transform="scale(0.015625)"/>
       <path id="Lato-Regular-6e" d="M 451 0 
L 451 3242 
L 794 3242 
Q 915 3242 944 3123 
L 989 2771 
Q 1200 3005 1462 3149 
Q 1725 3293 2067 3293 
Q 2333 3293 2536 3205 
Q 2739 3117 2875 2955 
Q 3011 2794 3081 2566 
Q 3152 2339 3152 2064 
L 3152 0 
L 2579 0 
L 2579 2064 
Q 2579 2432 2411 2635 
Q 2243 2838 1901 2838 
Q 1645 2838 1425 2716 
Q 1206 2595 1024 2387 
L 1024 0 
L 451 0 
z
" transform="scale(0.015625)"/>
       <path id="Lato-Regular-74" d="M 1446 -51 
Q 1062 -51 856 163 
Q 650 378 650 781 
L 650 2765 
L 259 2765 
Q 208 2765 173 2795 
Q 138 2826 138 2890 
L 138 3117 
L 669 3184 
L 800 4186 
Q 810 4234 843 4264 
Q 877 4294 931 4294 
L 1219 4294 
L 1219 3178 
L 2157 3178 
L 2157 2765 
L 1219 2765 
L 1219 819 
Q 1219 614 1318 515 
Q 1418 416 1574 416 
Q 1664 416 1729 440 
Q 1795 464 1843 493 
Q 1891 522 1924 546 
Q 1958 570 1984 570 
Q 2029 570 2064 515 
L 2230 243 
Q 2083 106 1875 27 
Q 1667 -51 1446 -51 
z
" transform="scale(0.015625)"/>
       <path id="Lato-Regular-65" d="M 1779 3293 
Q 2070 3293 2318 3195 
Q 2566 3098 2747 2914 
Q 2928 2730 3030 2459 
Q 3133 2189 3133 1843 
Q 3133 1709 3104 1664 
Q 3075 1619 2995 1619 
L 829 1619 
Q 835 1312 912 1085 
Q 989 858 1123 706 
Q 1258 554 1443 478 
Q 1629 403 1859 403 
Q 2074 403 2229 452 
Q 2384 502 2496 560 
Q 2608 618 2683 667 
Q 2758 717 2813 717 
Q 2883 717 2922 662 
L 3082 454 
Q 2976 326 2829 232 
Q 2682 138 2514 77 
Q 2346 16 2166 -14 
Q 1987 -45 1811 -45 
Q 1475 -45 1192 68 
Q 909 182 702 401 
Q 496 621 381 944 
Q 266 1267 266 1686 
Q 266 2026 370 2320 
Q 474 2614 669 2830 
Q 864 3046 1145 3169 
Q 1427 3293 1779 3293 
z
M 1792 2874 
Q 1379 2874 1142 2635 
Q 906 2397 848 1974 
L 2621 1974 
Q 2621 2173 2565 2337 
Q 2509 2502 2401 2622 
Q 2294 2742 2140 2808 
Q 1987 2874 1792 2874 
z
" transform="scale(0.015625)"/>
       <path id="Lato-Regular-72" d="M 451 0 
L 451 3242 
L 778 3242 
Q 870 3242 905 3206 
Q 941 3171 954 3085 
L 989 2592 
Q 1142 2925 1368 3112 
Q 1594 3299 1917 3299 
Q 2019 3299 2113 3276 
Q 2208 3254 2282 3206 
L 2240 2781 
Q 2221 2701 2144 2701 
Q 2099 2701 2012 2720 
Q 1926 2739 1818 2739 
Q 1664 2739 1542 2692 
Q 1421 2646 1326 2558 
Q 1232 2470 1158 2342 
Q 1085 2214 1024 2048 
L 1024 0 
L 451 0 
z
" transform="scale(0.015625)"/>
       <path id="Lato-Regular-70" d="M 451 -1098 
L 451 3242 
L 794 3242 
Q 915 3242 944 3123 
L 992 2739 
Q 1200 2992 1469 3145 
Q 1738 3299 2083 3299 
Q 2365 3299 2592 3192 
Q 2819 3085 2979 2875 
Q 3139 2666 3225 2355 
Q 3312 2045 3312 1642 
Q 3312 1283 3216 974 
Q 3120 666 2939 440 
Q 2758 214 2497 84 
Q 2237 -45 1910 -45 
Q 1613 -45 1400 54 
Q 1187 154 1024 336 
L 1024 -1098 
L 451 -1098 
z
M 1898 2838 
Q 1619 2838 1409 2710 
Q 1200 2582 1024 2349 
L 1024 781 
Q 1178 570 1365 483 
Q 1552 397 1782 397 
Q 2237 397 2480 720 
Q 2723 1043 2723 1642 
Q 2723 1958 2667 2185 
Q 2611 2413 2505 2558 
Q 2400 2704 2246 2771 
Q 2093 2838 1898 2838 
z
" transform="scale(0.015625)"/>
       <path id="Lato-Regular-6f" d="M 1818 3293 
Q 2173 3293 2457 3174 
Q 2742 3056 2944 2838 
Q 3146 2621 3253 2312 
Q 3360 2003 3360 1622 
Q 3360 1238 3253 931 
Q 3146 624 2944 406 
Q 2742 189 2457 72 
Q 2173 -45 1818 -45 
Q 1459 -45 1172 72 
Q 886 189 684 406 
Q 483 624 376 931 
Q 269 1238 269 1622 
Q 269 2003 376 2312 
Q 483 2621 684 2838 
Q 886 3056 1172 3174 
Q 1459 3293 1818 3293 
z
M 1818 400 
Q 2298 400 2534 721 
Q 2771 1043 2771 1619 
Q 2771 2198 2534 2521 
Q 2298 2845 1818 2845 
Q 1574 2845 1393 2761 
Q 1213 2678 1093 2521 
Q 973 2365 913 2136 
Q 854 1907 854 1619 
Q 854 1043 1092 721 
Q 1331 400 1818 400 
z
" transform="scale(0.015625)"/>
       <path id="Lato-Regular-6c" d="M 1040 4714 
L 1040 0 
L 470 0 
L 470 4714 
L 1040 4714 
z
" transform="scale(0.015625)"/>
       <path id="Lato-Regular-61" d="M 2512 0 
Q 2429 0 2384 27 
Q 2339 54 2314 134 
L 2250 438 
Q 2122 323 1998 232 
Q 1875 141 1742 78 
Q 1610 16 1458 -17 
Q 1306 -51 1120 -51 
Q 931 -51 764 1 
Q 598 54 475 160 
Q 352 266 280 427 
Q 208 589 208 810 
Q 208 1002 313 1179 
Q 419 1357 656 1494 
Q 893 1632 1273 1720 
Q 1654 1808 2208 1821 
L 2208 2074 
Q 2208 2451 2045 2644 
Q 1882 2838 1568 2838 
Q 1357 2838 1214 2785 
Q 1072 2733 968 2667 
Q 864 2602 789 2549 
Q 714 2496 640 2496 
Q 582 2496 540 2526 
Q 499 2557 470 2602 
L 368 2784 
Q 637 3043 947 3171 
Q 1258 3299 1635 3299 
Q 1907 3299 2118 3209 
Q 2330 3120 2474 2960 
Q 2618 2800 2691 2573 
Q 2765 2346 2765 2074 
L 2765 0 
L 2512 0 
z
M 1290 349 
Q 1440 349 1565 379 
Q 1690 410 1800 466 
Q 1910 522 2011 603 
Q 2112 685 2208 787 
L 2208 1459 
Q 1814 1446 1537 1396 
Q 1261 1347 1086 1267 
Q 912 1187 833 1078 
Q 755 970 755 835 
Q 755 707 796 614 
Q 838 522 910 462 
Q 982 403 1080 376 
Q 1178 349 1290 349 
z
" transform="scale(0.015625)"/>
       <path id="Lato-Regular-64" d="M 2794 0 
Q 2672 0 2640 118 
L 2589 512 
Q 2381 259 2113 107 
Q 1846 -45 1501 -45 
Q 1222 -45 995 62 
Q 768 170 608 378 
Q 448 586 361 896 
Q 275 1206 275 1610 
Q 275 1968 371 2277 
Q 467 2586 646 2813 
Q 826 3040 1086 3169 
Q 1347 3299 1674 3299 
Q 1971 3299 2184 3198 
Q 2397 3098 2563 2915 
L 2563 4714 
L 3133 4714 
L 3133 0 
L 2794 0 
z
M 1686 416 
Q 1968 416 2177 544 
Q 2387 672 2563 906 
L 2563 2470 
Q 2403 2682 2217 2768 
Q 2032 2854 1802 2854 
Q 1350 2854 1107 2531 
Q 864 2208 864 1610 
Q 864 1293 918 1067 
Q 973 842 1078 696 
Q 1184 550 1337 483 
Q 1491 416 1686 416 
z
" transform="scale(0.015625)"/>
      </defs>
      <use xlink:href="#Lato-Regular-69"/>
      <use xlink:href="#Lato-Regular-6e" x="24"/>
      <use xlink:href="#Lato-Regular-74" x="79.050003"/>
      <use xlink:href="#Lato-Regular-65" x="114.650009"/>
      <use xlink:href="#Lato-Regular-72" x="167.450012"/>
      <use xlink:href="#Lato-Regular-70" x="203.850021"/>
      <use xlink:href="#Lato-Regular-6f" x="259.900024"/>
      <use xlink:href="#Lato-Regular-6c" x="316.600037"/>
      <use xlink:href="#Lato-Regular-61" x="340.200043"/>
      <use xlink:href="#Lato-Regular-74" x="389.275055"/>
      <use xlink:href="#Lato-Regular-65" x="424.875061"/>
      <use xlink:href="#Lato-Regular-64" x="477.675064"/>
     </g>
    </g>
    <g id="patch_29">
     <path d="M 329.354375 66.918875 
L 349.354375 66.918875 
L 349.354375 59.918875 
L 329.354375 59.918875 
z
" style="fill: #1f77b4; opacity: 0.5"/>
    </g>
    <g id="text_18">
     <!-- histogram -->
     <g transform="translate(357.354375 66.918875) scale(0.1 -0.1)">
      <defs>
       <path id="Lato-Regular-68" d="M 451 0 
L 451 4714 
L 1024 4714 
L 1024 2806 
Q 1232 3027 1485 3160 
Q 1738 3293 2067 3293 
Q 2333 3293 2536 3205 
Q 2739 3117 2875 2955 
Q 3011 2794 3081 2566 
Q 3152 2339 3152 2064 
L 3152 0 
L 2579 0 
L 2579 2064 
Q 2579 2432 2411 2635 
Q 2243 2838 1901 2838 
Q 1645 2838 1425 2716 
Q 1206 2595 1024 2387 
L 1024 0 
L 451 0 
z
" transform="scale(0.015625)"/>
       <path id="Lato-Regular-73" d="M 2339 2707 
Q 2301 2637 2221 2637 
Q 2173 2637 2112 2672 
Q 2051 2707 1963 2750 
Q 1875 2794 1753 2830 
Q 1632 2867 1466 2867 
Q 1322 2867 1206 2830 
Q 1091 2794 1009 2730 
Q 928 2666 885 2581 
Q 842 2496 842 2397 
Q 842 2272 914 2189 
Q 986 2106 1104 2045 
Q 1222 1984 1372 1937 
Q 1523 1891 1681 1838 
Q 1840 1786 1990 1722 
Q 2141 1658 2259 1562 
Q 2378 1466 2450 1326 
Q 2522 1187 2522 992 
Q 2522 768 2442 577 
Q 2362 387 2205 248 
Q 2048 109 1821 29 
Q 1594 -51 1296 -51 
Q 957 -51 681 59 
Q 406 170 214 342 
L 349 560 
Q 374 602 409 624 
Q 445 646 499 646 
Q 557 646 621 601 
Q 685 557 776 502 
Q 867 448 998 403 
Q 1130 358 1325 358 
Q 1491 358 1616 401 
Q 1741 445 1824 518 
Q 1907 592 1947 688 
Q 1987 784 1987 893 
Q 1987 1027 1915 1115 
Q 1843 1203 1724 1265 
Q 1606 1328 1454 1374 
Q 1302 1421 1144 1472 
Q 986 1523 834 1588 
Q 682 1654 563 1753 
Q 445 1853 373 1998 
Q 301 2144 301 2352 
Q 301 2538 377 2709 
Q 454 2880 601 3009 
Q 749 3139 963 3216 
Q 1178 3293 1453 3293 
Q 1773 3293 2027 3192 
Q 2282 3091 2467 2915 
L 2339 2707 
z
" transform="scale(0.015625)"/>
       <path id="Lato-Regular-67" d="M 1581 3296 
Q 1792 3296 1974 3249 
Q 2157 3203 2307 3114 
L 3187 3114 
L 3187 2902 
Q 3187 2797 3053 2768 
L 2685 2717 
Q 2794 2509 2794 2253 
Q 2794 2016 2702 1822 
Q 2611 1629 2451 1491 
Q 2291 1354 2067 1280 
Q 1843 1206 1581 1206 
Q 1350 1206 1149 1261 
Q 1046 1197 993 1123 
Q 941 1050 941 979 
Q 941 864 1035 805 
Q 1130 746 1283 720 
Q 1437 694 1633 688 
Q 1830 682 2036 667 
Q 2243 653 2440 617 
Q 2637 582 2790 502 
Q 2944 422 3038 281 
Q 3133 141 3133 -83 
Q 3133 -291 3029 -486 
Q 2925 -682 2729 -834 
Q 2534 -986 2251 -1077 
Q 1968 -1168 1613 -1168 
Q 1258 -1168 992 -1097 
Q 726 -1027 550 -908 
Q 374 -790 286 -635 
Q 198 -480 198 -310 
Q 198 -70 348 96 
Q 499 262 758 362 
Q 614 426 531 533 
Q 448 640 448 822 
Q 448 893 473 968 
Q 499 1043 552 1116 
Q 605 1190 681 1257 
Q 758 1325 861 1376 
Q 621 1510 486 1734 
Q 352 1958 352 2253 
Q 352 2490 443 2683 
Q 534 2877 697 3013 
Q 861 3149 1086 3222 
Q 1312 3296 1581 3296 
z
M 2608 -176 
Q 2608 -58 2541 16 
Q 2474 90 2360 131 
Q 2246 173 2096 190 
Q 1946 208 1778 217 
Q 1610 227 1437 236 
Q 1264 246 1104 269 
Q 925 186 811 61 
Q 698 -64 698 -237 
Q 698 -346 754 -440 
Q 810 -534 925 -603 
Q 1040 -672 1214 -712 
Q 1389 -752 1626 -752 
Q 1856 -752 2038 -710 
Q 2221 -669 2347 -592 
Q 2474 -515 2541 -409 
Q 2608 -304 2608 -176 
z
M 1581 1584 
Q 1754 1584 1885 1632 
Q 2016 1680 2105 1766 
Q 2195 1853 2240 1973 
Q 2285 2093 2285 2237 
Q 2285 2534 2104 2710 
Q 1923 2886 1581 2886 
Q 1235 2886 1054 2710 
Q 874 2534 874 2237 
Q 874 2093 920 1973 
Q 966 1853 1056 1766 
Q 1146 1680 1277 1632 
Q 1408 1584 1581 1584 
z
" transform="scale(0.015625)"/>
       <path id="Lato-Regular-6d" d="M 451 0 
L 451 3242 
L 794 3242 
Q 915 3242 944 3123 
L 986 2790 
Q 1165 3011 1389 3152 
Q 1613 3293 1907 3293 
Q 2234 3293 2437 3110 
Q 2640 2928 2730 2618 
Q 2800 2794 2910 2922 
Q 3021 3050 3158 3133 
Q 3296 3216 3451 3254 
Q 3606 3293 3766 3293 
Q 4022 3293 4222 3211 
Q 4422 3130 4561 2973 
Q 4701 2816 4774 2587 
Q 4848 2358 4848 2064 
L 4848 0 
L 4275 0 
L 4275 2064 
Q 4275 2445 4108 2641 
Q 3942 2838 3629 2838 
Q 3488 2838 3361 2788 
Q 3235 2739 3139 2643 
Q 3043 2547 2987 2401 
Q 2931 2256 2931 2064 
L 2931 0 
L 2358 0 
L 2358 2064 
Q 2358 2454 2201 2646 
Q 2045 2838 1744 2838 
Q 1533 2838 1353 2724 
Q 1174 2611 1024 2416 
L 1024 0 
L 451 0 
z
" transform="scale(0.015625)"/>
      </defs>
      <use xlink:href="#Lato-Regular-68"/>
      <use xlink:href="#Lato-Regular-69" x="55.800003"/>
      <use xlink:href="#Lato-Regular-73" x="79.800003"/>
      <use xlink:href="#Lato-Regular-74" x="123.100006"/>
      <use xlink:href="#Lato-Regular-6f" x="158.700012"/>
      <use xlink:href="#Lato-Regular-67" x="215.150024"/>
      <use xlink:href="#Lato-Regular-72" x="267.150024"/>
      <use xlink:href="#Lato-Regular-61" x="302.800034"/>
      <use xlink:href="#Lato-Regular-6d" x="352.500046"/>
     </g>
    </g>
   </g>
  </g>
 </g>
 <defs>
  <clipPath id="pbe1b8b8625">
   <rect x="57.6" y="41.472" width="357.12" height="266.112"/>
  </clipPath>
 </defs>
</svg>
