<?xml version="1.0" encoding="utf-8" standalone="no"?>
<!DOCTYPE svg PUBLIC "-//W3C//DTD SVG 1.1//EN"
  "http://www.w3.org/Graphics/SVG/1.1/DTD/svg11.dtd">
<svg xmlns:xlink="http://www.w3.org/1999/xlink" width="460.8pt" height="345.6pt" viewBox="0 0 460.8 345.6" xmlns="http://www.w3.org/2000/svg" version="1.1">
 <metadata>
  <rdf:RDF xmlns:dc="http://purl.org/dc/elements/1.1/" xmlns:cc="http://creativecommons.org/ns#" xmlns:rdf="http://www.w3.org/1999/02/22-rdf-syntax-ns#">
   <cc:Work>
    <dc:type rdf:resource="http://purl.org/dc/dcmitype/StillImage"/>
    <dc:date>2025-03-25T15:35:25.231479</dc:date>
    <dc:format>image/svg+xml</dc:format>
    <dc:creator>
     <cc:Agent>
      <dc:title>Matplotlib v3.9.2, https://matplotlib.org/</dc:title>
     </cc:Agent>
    </dc:creator>
   </cc:Work>
  </rdf:RDF>
 </metadata>
 <defs>
  <style type="text/css">*{stroke-linejoin: round; stroke-linecap: butt}</style>
 </defs>
 <g id="figure_1">
  <g id="patch_1">
   <path d="M 0 345.6 
L 460.8 345.6 
L 460.8 0 
L 0 0 
L 0 345.6 
z
" style="fill: none"/>
  </g>
  <g id="axes_1">
   <g id="patch_2">
    <path d="M 57.6 307.584 
L 414.72 307.584 
L 414.72 41.472 
L 57.6 41.472 
L 57.6 307.584 
z
" style="fill: none"/>
   </g>
   <g id="matplotlib.axis_1">
    <g id="xtick_1">
     <g id="line2d_1">
      <defs>
       <path id="m709953db43" d="M 0 0 
L 0 6 
" style="stroke: #000000; stroke-width: 0.5"/>
      </defs>
      <g>
       <use xlink:href="#m709953db43" x="87.36" y="307.584" style="stroke: #000000; stroke-width: 0.5"/>
      </g>
     </g>
     <g id="text_1">
      <!-- −1 -->
      <g transform="translate(81.56 324.449625) scale(0.1 -0.1)">
       <defs>
        <path id="Lato-Regular-2212" d="M 480 2365 
L 3232 2365 
L 3232 1933 
L 480 1933 
L 480 2365 
z
" transform="scale(0.015625)"/>
        <path id="Lato-Regular-31" d="M 800 435 
L 1782 435 
L 1782 3562 
Q 1782 3696 1792 3846 
L 976 3146 
Q 934 3110 892 3102 
Q 851 3094 816 3100 
Q 781 3107 750 3126 
Q 720 3146 704 3168 
L 525 3414 
L 1891 4595 
L 2355 4595 
L 2355 435 
L 3258 435 
L 3258 0 
L 800 0 
L 800 435 
z
" transform="scale(0.015625)"/>
       </defs>
       <use xlink:href="#Lato-Regular-2212"/>
       <use xlink:href="#Lato-Regular-31" x="58"/>
      </g>
     </g>
    </g>
    <g id="xtick_2">
     <g id="line2d_2">
      <g>
       <use xlink:href="#m709953db43" x="136.96" y="307.584" style="stroke: #000000; stroke-width: 0.5"/>
      </g>
     </g>
     <g id="text_2">
      <!-- 0 -->
      <g transform="translate(134.06 324.449625) scale(0.1 -0.1)">
       <defs>
        <path id="Lato-Regular-30" d="M 3520 2291 
Q 3520 1690 3390 1250 
Q 3261 810 3037 522 
Q 2813 234 2507 93 
Q 2202 -48 1853 -48 
Q 1501 -48 1198 93 
Q 896 234 672 522 
Q 448 810 320 1250 
Q 192 1690 192 2291 
Q 192 2893 320 3334 
Q 448 3776 672 4065 
Q 896 4355 1198 4496 
Q 1501 4637 1853 4637 
Q 2202 4637 2507 4496 
Q 2813 4355 3037 4065 
Q 3261 3776 3390 3334 
Q 3520 2893 3520 2291 
z
M 2928 2291 
Q 2928 2816 2840 3173 
Q 2752 3530 2603 3747 
Q 2454 3965 2259 4059 
Q 2064 4154 1853 4154 
Q 1642 4154 1446 4059 
Q 1251 3965 1104 3747 
Q 957 3530 869 3173 
Q 781 2816 781 2291 
Q 781 1766 869 1411 
Q 957 1056 1104 838 
Q 1251 621 1446 526 
Q 1642 432 1853 432 
Q 2064 432 2259 526 
Q 2454 621 2603 838 
Q 2752 1056 2840 1411 
Q 2928 1766 2928 2291 
z
" transform="scale(0.015625)"/>
       </defs>
       <use xlink:href="#Lato-Regular-30"/>
      </g>
     </g>
    </g>
    <g id="xtick_3">
     <g id="line2d_3">
      <g>
       <use xlink:href="#m709953db43" x="186.56" y="307.584" style="stroke: #000000; stroke-width: 0.5"/>
      </g>
     </g>
     <g id="text_3">
      <!-- 1 -->
      <g transform="translate(183.66 324.449625) scale(0.1 -0.1)">
       <use xlink:href="#Lato-Regular-31"/>
      </g>
     </g>
    </g>
    <g id="xtick_4">
     <g id="line2d_4">
      <g>
       <use xlink:href="#m709953db43" x="236.16" y="307.584" style="stroke: #000000; stroke-width: 0.5"/>
      </g>
     </g>
     <g id="text_4">
      <!-- 2 -->
      <g transform="translate(233.26 324.449625) scale(0.1 -0.1)">
       <defs>
        <path id="Lato-Regular-32" d="M 1891 4637 
Q 2182 4637 2435 4550 
Q 2688 4464 2873 4299 
Q 3059 4134 3164 3897 
Q 3270 3661 3270 3360 
Q 3270 3104 3193 2885 
Q 3117 2666 2985 2467 
Q 2854 2269 2683 2080 
Q 2512 1891 2320 1699 
L 1110 464 
Q 1238 499 1369 520 
Q 1501 541 1622 541 
L 3158 541 
Q 3251 541 3305 486 
Q 3360 432 3360 346 
L 3360 0 
L 301 0 
L 301 195 
Q 301 256 326 320 
Q 352 384 406 438 
L 1875 1914 
Q 2058 2099 2208 2270 
Q 2358 2442 2464 2614 
Q 2570 2787 2627 2964 
Q 2685 3142 2685 3344 
Q 2685 3546 2621 3698 
Q 2557 3850 2446 3949 
Q 2336 4048 2185 4097 
Q 2035 4147 1862 4147 
Q 1686 4147 1539 4096 
Q 1392 4045 1278 3953 
Q 1165 3862 1088 3737 
Q 1011 3613 979 3462 
Q 941 3350 875 3313 
Q 810 3277 691 3293 
L 394 3344 
Q 438 3658 568 3899 
Q 698 4141 894 4304 
Q 1091 4467 1344 4552 
Q 1597 4637 1891 4637 
z
" transform="scale(0.015625)"/>
       </defs>
       <use xlink:href="#Lato-Regular-32"/>
      </g>
     </g>
    </g>
    <g id="xtick_5">
     <g id="line2d_5">
      <g>
       <use xlink:href="#m709953db43" x="285.76" y="307.584" style="stroke: #000000; stroke-width: 0.5"/>
      </g>
     </g>
     <g id="text_5">
      <!-- 3 -->
      <g transform="translate(282.86 324.449625) scale(0.1 -0.1)">
       <defs>
        <path id="Lato-Regular-33" d="M 1914 4637 
Q 2205 4637 2451 4553 
Q 2698 4470 2875 4316 
Q 3053 4163 3152 3945 
Q 3251 3728 3251 3462 
Q 3251 3245 3195 3073 
Q 3139 2902 3035 2772 
Q 2931 2643 2784 2553 
Q 2637 2464 2454 2410 
Q 2902 2291 3128 2012 
Q 3354 1734 3354 1315 
Q 3354 998 3234 745 
Q 3114 493 2906 315 
Q 2698 138 2421 43 
Q 2144 -51 1827 -51 
Q 1462 -51 1203 40 
Q 944 131 765 291 
Q 586 451 470 670 
Q 355 890 275 1146 
L 522 1248 
Q 618 1290 709 1270 
Q 800 1251 842 1165 
Q 883 1075 945 950 
Q 1008 826 1117 710 
Q 1226 595 1394 515 
Q 1562 435 1821 435 
Q 2061 435 2241 513 
Q 2422 592 2542 717 
Q 2662 842 2723 995 
Q 2784 1149 2784 1299 
Q 2784 1485 2736 1638 
Q 2688 1792 2557 1904 
Q 2426 2016 2197 2080 
Q 1968 2144 1610 2144 
L 1610 2557 
Q 1904 2560 2110 2621 
Q 2317 2682 2446 2787 
Q 2576 2893 2635 3040 
Q 2694 3187 2694 3366 
Q 2694 3565 2632 3712 
Q 2570 3859 2461 3955 
Q 2352 4051 2203 4099 
Q 2054 4147 1882 4147 
Q 1709 4147 1560 4096 
Q 1411 4045 1297 3953 
Q 1184 3862 1107 3737 
Q 1030 3613 998 3462 
Q 957 3350 894 3313 
Q 832 3277 714 3293 
L 416 3344 
Q 461 3658 589 3899 
Q 717 4141 913 4304 
Q 1110 4467 1364 4552 
Q 1619 4637 1914 4637 
z
" transform="scale(0.015625)"/>
       </defs>
       <use xlink:href="#Lato-Regular-33"/>
      </g>
     </g>
    </g>
    <g id="xtick_6">
     <g id="line2d_6">
      <g>
       <use xlink:href="#m709953db43" x="335.36" y="307.584" style="stroke: #000000; stroke-width: 0.5"/>
      </g>
     </g>
     <g id="text_6">
      <!-- 4 -->
      <g transform="translate(332.46 324.449625) scale(0.1 -0.1)">
       <defs>
        <path id="Lato-Regular-34" d="M 2835 1654 
L 3530 1654 
L 3530 1328 
Q 3530 1277 3499 1241 
Q 3469 1206 3405 1206 
L 2835 1206 
L 2835 0 
L 2336 0 
L 2336 1206 
L 301 1206 
Q 237 1206 190 1243 
Q 144 1280 131 1334 
L 74 1626 
L 2304 4586 
L 2835 4586 
L 2835 1654 
z
M 2336 3546 
Q 2336 3629 2341 3726 
Q 2346 3824 2362 3926 
L 691 1654 
L 2336 1654 
L 2336 3546 
z
" transform="scale(0.015625)"/>
       </defs>
       <use xlink:href="#Lato-Regular-34"/>
      </g>
     </g>
    </g>
    <g id="xtick_7">
     <g id="line2d_7">
      <g>
       <use xlink:href="#m709953db43" x="384.96" y="307.584" style="stroke: #000000; stroke-width: 0.5"/>
      </g>
     </g>
     <g id="text_7">
      <!-- 5 -->
      <g transform="translate(382.06 324.449625) scale(0.1 -0.1)">
       <defs>
        <path id="Lato-Regular-35" d="M 3142 4336 
Q 3142 4214 3067 4136 
Q 2992 4058 2810 4058 
L 1370 4058 
L 1158 2854 
Q 1341 2896 1502 2913 
Q 1664 2931 1818 2931 
Q 2176 2931 2451 2825 
Q 2726 2720 2910 2534 
Q 3094 2349 3188 2096 
Q 3283 1843 3283 1546 
Q 3283 1181 3156 886 
Q 3030 592 2808 382 
Q 2586 173 2285 61 
Q 1984 -51 1635 -51 
Q 1434 -51 1248 -11 
Q 1062 29 900 96 
Q 739 163 601 249 
Q 464 336 358 432 
L 534 675 
Q 592 758 685 758 
Q 749 758 829 708 
Q 909 659 1024 598 
Q 1139 538 1294 488 
Q 1450 438 1664 438 
Q 1904 438 2096 515 
Q 2288 592 2425 734 
Q 2563 877 2636 1075 
Q 2710 1274 2710 1520 
Q 2710 1734 2648 1907 
Q 2586 2080 2459 2201 
Q 2333 2323 2144 2390 
Q 1955 2458 1702 2458 
Q 1530 2458 1342 2429 
Q 1155 2400 960 2336 
L 602 2442 
L 970 4586 
L 3142 4586 
L 3142 4336 
z
" transform="scale(0.015625)"/>
       </defs>
       <use xlink:href="#Lato-Regular-35"/>
      </g>
     </g>
    </g>
    <g id="xtick_8">
     <g id="line2d_8">
      <defs>
       <path id="mec6b4b4241" d="M 0 0 
L 0 3 
" style="stroke: #000000; stroke-width: 0.5"/>
      </defs>
      <g>
       <use xlink:href="#mec6b4b4241" x="57.6" y="307.584" style="stroke: #000000; stroke-width: 0.5"/>
      </g>
     </g>
    </g>
    <g id="xtick_9">
     <g id="line2d_9">
      <g>
       <use xlink:href="#mec6b4b4241" x="67.52" y="307.584" style="stroke: #000000; stroke-width: 0.5"/>
      </g>
     </g>
    </g>
    <g id="xtick_10">
     <g id="line2d_10">
      <g>
       <use xlink:href="#mec6b4b4241" x="77.44" y="307.584" style="stroke: #000000; stroke-width: 0.5"/>
      </g>
     </g>
    </g>
    <g id="xtick_11">
     <g id="line2d_11">
      <g>
       <use xlink:href="#mec6b4b4241" x="97.28" y="307.584" style="stroke: #000000; stroke-width: 0.5"/>
      </g>
     </g>
    </g>
    <g id="xtick_12">
     <g id="line2d_12">
      <g>
       <use xlink:href="#mec6b4b4241" x="107.2" y="307.584" style="stroke: #000000; stroke-width: 0.5"/>
      </g>
     </g>
    </g>
    <g id="xtick_13">
     <g id="line2d_13">
      <g>
       <use xlink:href="#mec6b4b4241" x="117.12" y="307.584" style="stroke: #000000; stroke-width: 0.5"/>
      </g>
     </g>
    </g>
    <g id="xtick_14">
     <g id="line2d_14">
      <g>
       <use xlink:href="#mec6b4b4241" x="127.04" y="307.584" style="stroke: #000000; stroke-width: 0.5"/>
      </g>
     </g>
    </g>
    <g id="xtick_15">
     <g id="line2d_15">
      <g>
       <use xlink:href="#mec6b4b4241" x="146.88" y="307.584" style="stroke: #000000; stroke-width: 0.5"/>
      </g>
     </g>
    </g>
    <g id="xtick_16">
     <g id="line2d_16">
      <g>
       <use xlink:href="#mec6b4b4241" x="156.8" y="307.584" style="stroke: #000000; stroke-width: 0.5"/>
      </g>
     </g>
    </g>
    <g id="xtick_17">
     <g id="line2d_17">
      <g>
       <use xlink:href="#mec6b4b4241" x="166.72" y="307.584" style="stroke: #000000; stroke-width: 0.5"/>
      </g>
     </g>
    </g>
    <g id="xtick_18">
     <g id="line2d_18">
      <g>
       <use xlink:href="#mec6b4b4241" x="176.64" y="307.584" style="stroke: #000000; stroke-width: 0.5"/>
      </g>
     </g>
    </g>
    <g id="xtick_19">
     <g id="line2d_19">
      <g>
       <use xlink:href="#mec6b4b4241" x="196.48" y="307.584" style="stroke: #000000; stroke-width: 0.5"/>
      </g>
     </g>
    </g>
    <g id="xtick_20">
     <g id="line2d_20">
      <g>
       <use xlink:href="#mec6b4b4241" x="206.4" y="307.584" style="stroke: #000000; stroke-width: 0.5"/>
      </g>
     </g>
    </g>
    <g id="xtick_21">
     <g id="line2d_21">
      <g>
       <use xlink:href="#mec6b4b4241" x="216.32" y="307.584" style="stroke: #000000; stroke-width: 0.5"/>
      </g>
     </g>
    </g>
    <g id="xtick_22">
     <g id="line2d_22">
      <g>
       <use xlink:href="#mec6b4b4241" x="226.24" y="307.584" style="stroke: #000000; stroke-width: 0.5"/>
      </g>
     </g>
    </g>
    <g id="xtick_23">
     <g id="line2d_23">
      <g>
       <use xlink:href="#mec6b4b4241" x="246.08" y="307.584" style="stroke: #000000; stroke-width: 0.5"/>
      </g>
     </g>
    </g>
    <g id="xtick_24">
     <g id="line2d_24">
      <g>
       <use xlink:href="#mec6b4b4241" x="256" y="307.584" style="stroke: #000000; stroke-width: 0.5"/>
      </g>
     </g>
    </g>
    <g id="xtick_25">
     <g id="line2d_25">
      <g>
       <use xlink:href="#mec6b4b4241" x="265.92" y="307.584" style="stroke: #000000; stroke-width: 0.5"/>
      </g>
     </g>
    </g>
    <g id="xtick_26">
     <g id="line2d_26">
      <g>
       <use xlink:href="#mec6b4b4241" x="275.84" y="307.584" style="stroke: #000000; stroke-width: 0.5"/>
      </g>
     </g>
    </g>
    <g id="xtick_27">
     <g id="line2d_27">
      <g>
       <use xlink:href="#mec6b4b4241" x="295.68" y="307.584" style="stroke: #000000; stroke-width: 0.5"/>
      </g>
     </g>
    </g>
    <g id="xtick_28">
     <g id="line2d_28">
      <g>
       <use xlink:href="#mec6b4b4241" x="305.6" y="307.584" style="stroke: #000000; stroke-width: 0.5"/>
      </g>
     </g>
    </g>
    <g id="xtick_29">
     <g id="line2d_29">
      <g>
       <use xlink:href="#mec6b4b4241" x="315.52" y="307.584" style="stroke: #000000; stroke-width: 0.5"/>
      </g>
     </g>
    </g>
    <g id="xtick_30">
     <g id="line2d_30">
      <g>
       <use xlink:href="#mec6b4b4241" x="325.44" y="307.584" style="stroke: #000000; stroke-width: 0.5"/>
      </g>
     </g>
    </g>
    <g id="xtick_31">
     <g id="line2d_31">
      <g>
       <use xlink:href="#mec6b4b4241" x="345.28" y="307.584" style="stroke: #000000; stroke-width: 0.5"/>
      </g>
     </g>
    </g>
    <g id="xtick_32">
     <g id="line2d_32">
      <g>
       <use xlink:href="#mec6b4b4241" x="355.2" y="307.584" style="stroke: #000000; stroke-width: 0.5"/>
      </g>
     </g>
    </g>
    <g id="xtick_33">
     <g id="line2d_33">
      <g>
       <use xlink:href="#mec6b4b4241" x="365.12" y="307.584" style="stroke: #000000; stroke-width: 0.5"/>
      </g>
     </g>
    </g>
    <g id="xtick_34">
     <g id="line2d_34">
      <g>
       <use xlink:href="#mec6b4b4241" x="375.04" y="307.584" style="stroke: #000000; stroke-width: 0.5"/>
      </g>
     </g>
    </g>
    <g id="xtick_35">
     <g id="line2d_35">
      <g>
       <use xlink:href="#mec6b4b4241" x="394.88" y="307.584" style="stroke: #000000; stroke-width: 0.5"/>
      </g>
     </g>
    </g>
    <g id="xtick_36">
     <g id="line2d_36">
      <g>
       <use xlink:href="#mec6b4b4241" x="404.8" y="307.584" style="stroke: #000000; stroke-width: 0.5"/>
      </g>
     </g>
    </g>
    <g id="xtick_37">
     <g id="line2d_37">
      <g>
       <use xlink:href="#mec6b4b4241" x="414.72" y="307.584" style="stroke: #000000; stroke-width: 0.5"/>
      </g>
     </g>
    </g>
    <g id="text_8">
     <!-- x -->
     <g transform="translate(233.549844 337.594937) scale(0.1 -0.1)">
      <defs>
       <path id="Lato-Bold-78" d="M 1142 1693 
L 64 3283 
L 826 3283 
Q 912 3283 953 3259 
Q 995 3235 1027 3181 
L 1715 2083 
Q 1731 2138 1755 2192 
Q 1779 2246 1814 2301 
L 2368 3165 
Q 2438 3283 2550 3283 
L 3277 3283 
L 2195 1728 
L 3322 0 
L 2560 0 
Q 2474 0 2421 45 
Q 2368 90 2333 147 
L 1635 1290 
Q 1606 1174 1555 1098 
L 941 147 
Q 906 93 854 46 
Q 803 0 726 0 
L 19 0 
L 1142 1693 
z
" transform="scale(0.015625)"/>
      </defs>
      <use xlink:href="#Lato-Bold-78"/>
     </g>
    </g>
   </g>
   <g id="matplotlib.axis_2">
    <g id="ytick_1">
     <g id="line2d_38">
      <path d="M 57.6 293.054644 
L 414.72 293.054644 
" clip-path="url(#paaf19a216a)" style="fill: none; stroke: #cccccc; stroke-width: 0.5; stroke-linecap: square"/>
     </g>
     <g id="text_9">
      <!-- 0.00 -->
      <g transform="translate(34.340625 296.737456) scale(0.1 -0.1)">
       <defs>
        <path id="Lato-Regular-2e" d="M 355 352 
Q 355 435 385 508 
Q 416 582 469 636 
Q 522 691 595 723 
Q 669 755 752 755 
Q 835 755 908 723 
Q 982 691 1036 636 
Q 1091 582 1123 508 
Q 1155 435 1155 352 
Q 1155 266 1123 194 
Q 1091 122 1036 67 
Q 982 13 908 -17 
Q 835 -48 752 -48 
Q 669 -48 595 -17 
Q 522 13 469 67 
Q 416 122 385 194 
Q 355 266 355 352 
z
" transform="scale(0.015625)"/>
       </defs>
       <use xlink:href="#Lato-Regular-30"/>
       <use xlink:href="#Lato-Regular-2e" x="58"/>
       <use xlink:href="#Lato-Regular-30" x="81.600006"/>
       <use xlink:href="#Lato-Regular-30" x="139.600006"/>
      </g>
     </g>
    </g>
    <g id="ytick_2">
     <g id="line2d_39">
      <path d="M 57.6 260.246224 
L 414.72 260.246224 
" clip-path="url(#paaf19a216a)" style="fill: none; stroke: #cccccc; stroke-width: 0.5; stroke-linecap: square"/>
     </g>
     <g id="text_10">
      <!-- 0.05 -->
      <g transform="translate(34.340625 263.929037) scale(0.1 -0.1)">
       <use xlink:href="#Lato-Regular-30"/>
       <use xlink:href="#Lato-Regular-2e" x="58"/>
       <use xlink:href="#Lato-Regular-30" x="81.600006"/>
       <use xlink:href="#Lato-Regular-35" x="139.600006"/>
      </g>
     </g>
    </g>
    <g id="ytick_3">
     <g id="line2d_40">
      <path d="M 57.6 227.437805 
L 414.72 227.437805 
" clip-path="url(#paaf19a216a)" style="fill: none; stroke: #cccccc; stroke-width: 0.5; stroke-linecap: square"/>
     </g>
     <g id="text_11">
      <!-- 0.10 -->
      <g transform="translate(34.340625 231.120617) scale(0.1 -0.1)">
       <use xlink:href="#Lato-Regular-30"/>
       <use xlink:href="#Lato-Regular-2e" x="58"/>
       <use xlink:href="#Lato-Regular-31" x="81.600006"/>
       <use xlink:href="#Lato-Regular-30" x="139.600006"/>
      </g>
     </g>
    </g>
    <g id="ytick_4">
     <g id="line2d_41">
      <path d="M 57.6 194.629385 
L 414.72 194.629385 
" clip-path="url(#paaf19a216a)" style="fill: none; stroke: #cccccc; stroke-width: 0.5; stroke-linecap: square"/>
     </g>
     <g id="text_12">
      <!-- 0.15 -->
      <g transform="translate(34.340625 198.312198) scale(0.1 -0.1)">
       <use xlink:href="#Lato-Regular-30"/>
       <use xlink:href="#Lato-Regular-2e" x="58"/>
       <use xlink:href="#Lato-Regular-31" x="81.600006"/>
       <use xlink:href="#Lato-Regular-35" x="139.600006"/>
      </g>
     </g>
    </g>
    <g id="ytick_5">
     <g id="line2d_42">
      <path d="M 57.6 161.820965 
L 414.72 161.820965 
" clip-path="url(#paaf19a216a)" style="fill: none; stroke: #cccccc; stroke-width: 0.5; stroke-linecap: square"/>
     </g>
     <g id="text_13">
      <!-- 0.20 -->
      <g transform="translate(34.340625 165.503778) scale(0.1 -0.1)">
       <use xlink:href="#Lato-Regular-30"/>
       <use xlink:href="#Lato-Regular-2e" x="58"/>
       <use xlink:href="#Lato-Regular-32" x="81.600006"/>
       <use xlink:href="#Lato-Regular-30" x="139.600006"/>
      </g>
     </g>
    </g>
    <g id="ytick_6">
     <g id="line2d_43">
      <path d="M 57.6 129.012546 
L 414.72 129.012546 
" clip-path="url(#paaf19a216a)" style="fill: none; stroke: #cccccc; stroke-width: 0.5; stroke-linecap: square"/>
     </g>
     <g id="text_14">
      <!-- 0.25 -->
      <g transform="translate(34.340625 132.695358) scale(0.1 -0.1)">
       <use xlink:href="#Lato-Regular-30"/>
       <use xlink:href="#Lato-Regular-2e" x="58"/>
       <use xlink:href="#Lato-Regular-32" x="81.600006"/>
       <use xlink:href="#Lato-Regular-35" x="139.600006"/>
      </g>
     </g>
    </g>
    <g id="ytick_7">
     <g id="line2d_44">
      <path d="M 57.6 96.204126 
L 414.72 96.204126 
" clip-path="url(#paaf19a216a)" style="fill: none; stroke: #cccccc; stroke-width: 0.5; stroke-linecap: square"/>
     </g>
     <g id="text_15">
      <!-- 0.30 -->
      <g transform="translate(34.340625 99.886939) scale(0.1 -0.1)">
       <use xlink:href="#Lato-Regular-30"/>
       <use xlink:href="#Lato-Regular-2e" x="58"/>
       <use xlink:href="#Lato-Regular-33" x="81.600006"/>
       <use xlink:href="#Lato-Regular-30" x="139.600006"/>
      </g>
     </g>
    </g>
    <g id="ytick_8">
     <g id="line2d_45">
      <path d="M 57.6 63.395707 
L 414.72 63.395707 
" clip-path="url(#paaf19a216a)" style="fill: none; stroke: #cccccc; stroke-width: 0.5; stroke-linecap: square"/>
     </g>
     <g id="text_16">
      <!-- 0.35 -->
      <g transform="translate(34.340625 67.078519) scale(0.1 -0.1)">
       <use xlink:href="#Lato-Regular-30"/>
       <use xlink:href="#Lato-Regular-2e" x="58"/>
       <use xlink:href="#Lato-Regular-33" x="81.600006"/>
       <use xlink:href="#Lato-Regular-35" x="139.600006"/>
      </g>
     </g>
    </g>
    <g id="text_17">
     <!-- PDF values -->
     <g transform="translate(28.665625 199.278) rotate(-90) scale(0.1 -0.1)">
      <defs>
       <path id="Lato-Bold-50" d="M 1376 1629 
L 1376 0 
L 515 0 
L 515 4627 
L 2019 4627 
Q 2483 4627 2822 4518 
Q 3162 4410 3382 4214 
Q 3603 4019 3710 3747 
Q 3818 3475 3818 3152 
Q 3818 2816 3706 2536 
Q 3594 2256 3370 2054 
Q 3146 1853 2808 1741 
Q 2470 1629 2019 1629 
L 1376 1629 
z
M 1376 2301 
L 2019 2301 
Q 2256 2301 2432 2360 
Q 2608 2419 2725 2529 
Q 2842 2640 2899 2798 
Q 2957 2957 2957 3152 
Q 2957 3338 2899 3488 
Q 2842 3638 2726 3744 
Q 2611 3850 2435 3906 
Q 2259 3962 2019 3962 
L 1376 3962 
L 1376 2301 
z
" transform="scale(0.015625)"/>
       <path id="Lato-Bold-44" d="M 4624 2314 
Q 4624 1805 4454 1379 
Q 4285 954 3977 646 
Q 3670 339 3238 169 
Q 2806 0 2278 0 
L 515 0 
L 515 4627 
L 2278 4627 
Q 2806 4627 3238 4456 
Q 3670 4285 3977 3979 
Q 4285 3674 4454 3248 
Q 4624 2822 4624 2314 
z
M 3741 2314 
Q 3741 2694 3640 2996 
Q 3539 3299 3348 3508 
Q 3158 3718 2888 3830 
Q 2618 3942 2278 3942 
L 1379 3942 
L 1379 685 
L 2278 685 
Q 2618 685 2888 797 
Q 3158 909 3348 1118 
Q 3539 1328 3640 1630 
Q 3741 1933 3741 2314 
z
" transform="scale(0.015625)"/>
       <path id="Lato-Bold-46" d="M 3434 4627 
L 3434 3942 
L 1379 3942 
L 1379 2573 
L 3114 2573 
L 3114 1885 
L 1379 1885 
L 1379 0 
L 515 0 
L 515 4627 
L 3434 4627 
z
" transform="scale(0.015625)"/>
       <path id="Lato-Bold-20" transform="scale(0.015625)"/>
       <path id="Lato-Bold-76" d="M 29 3283 
L 682 3283 
Q 771 3283 830 3241 
Q 890 3200 909 3136 
L 1542 1382 
Q 1594 1229 1630 1081 
Q 1667 934 1699 787 
Q 1731 934 1769 1081 
Q 1808 1229 1862 1382 
L 2509 3136 
Q 2531 3200 2588 3241 
Q 2646 3283 2726 3283 
L 3350 3283 
L 2048 0 
L 1331 0 
L 29 3283 
z
" transform="scale(0.015625)"/>
       <path id="Lato-Bold-61" d="M 2538 0 
Q 2426 0 2365 33 
Q 2304 67 2269 170 
L 2198 403 
Q 2074 291 1955 206 
Q 1837 122 1709 64 
Q 1581 6 1435 -22 
Q 1290 -51 1114 -51 
Q 906 -51 730 5 
Q 554 61 426 173 
Q 298 285 227 451 
Q 157 618 157 838 
Q 157 1024 254 1205 
Q 352 1386 579 1531 
Q 806 1677 1184 1773 
Q 1562 1869 2125 1882 
L 2125 2074 
Q 2125 2403 1984 2561 
Q 1843 2720 1578 2720 
Q 1386 2720 1259 2675 
Q 1133 2630 1037 2574 
Q 941 2518 862 2473 
Q 784 2429 688 2429 
Q 605 2429 547 2472 
Q 490 2515 454 2573 
L 314 2826 
Q 880 3344 1677 3344 
Q 1965 3344 2192 3249 
Q 2419 3155 2576 2987 
Q 2733 2819 2814 2585 
Q 2896 2352 2896 2074 
L 2896 0 
L 2538 0 
z
M 1357 493 
Q 1600 493 1777 581 
Q 1955 669 2125 848 
L 2125 1402 
Q 1779 1386 1547 1342 
Q 1315 1299 1174 1232 
Q 1034 1165 973 1075 
Q 912 986 912 880 
Q 912 672 1035 582 
Q 1158 493 1357 493 
z
" transform="scale(0.015625)"/>
       <path id="Lato-Bold-6c" d="M 1190 4755 
L 1190 0 
L 400 0 
L 400 4755 
L 1190 4755 
z
" transform="scale(0.015625)"/>
       <path id="Lato-Bold-75" d="M 1149 3283 
L 1149 1197 
Q 1149 896 1288 731 
Q 1427 566 1706 566 
Q 1910 566 2089 657 
Q 2269 749 2429 909 
L 2429 3283 
L 3219 3283 
L 3219 0 
L 2736 0 
Q 2579 0 2538 144 
L 2483 406 
Q 2381 304 2272 219 
Q 2163 134 2038 73 
Q 1914 13 1773 -19 
Q 1632 -51 1466 -51 
Q 1197 -51 990 40 
Q 784 131 643 297 
Q 502 464 430 693 
Q 358 922 358 1197 
L 358 3283 
L 1149 3283 
z
" transform="scale(0.015625)"/>
       <path id="Lato-Bold-65" d="M 1789 3334 
Q 2099 3334 2361 3235 
Q 2624 3136 2813 2945 
Q 3002 2755 3109 2478 
Q 3216 2202 3216 1846 
Q 3216 1667 3177 1604 
Q 3139 1542 3030 1542 
L 998 1542 
Q 1018 1290 1088 1106 
Q 1158 922 1273 802 
Q 1389 682 1547 622 
Q 1706 563 1898 563 
Q 2090 563 2229 608 
Q 2368 653 2472 707 
Q 2576 762 2654 806 
Q 2733 851 2806 851 
Q 2906 851 2954 778 
L 3181 490 
Q 3050 336 2886 232 
Q 2723 128 2545 65 
Q 2368 3 2184 -22 
Q 2000 -48 1827 -48 
Q 1485 -48 1190 65 
Q 896 179 678 401 
Q 461 624 336 952 
Q 211 1280 211 1712 
Q 211 2048 320 2344 
Q 429 2640 632 2859 
Q 835 3078 1128 3206 
Q 1421 3334 1789 3334 
z
M 1805 2768 
Q 1459 2768 1264 2573 
Q 1069 2378 1014 2019 
L 2506 2019 
Q 2506 2173 2462 2309 
Q 2419 2445 2332 2547 
Q 2246 2650 2113 2709 
Q 1981 2768 1805 2768 
z
" transform="scale(0.015625)"/>
       <path id="Lato-Bold-73" d="M 2394 2643 
Q 2362 2592 2326 2571 
Q 2291 2550 2237 2550 
Q 2179 2550 2113 2582 
Q 2048 2614 1961 2654 
Q 1875 2694 1764 2726 
Q 1654 2758 1504 2758 
Q 1270 2758 1137 2659 
Q 1005 2560 1005 2400 
Q 1005 2294 1073 2222 
Q 1142 2150 1256 2096 
Q 1370 2042 1514 1998 
Q 1658 1955 1806 1904 
Q 1955 1853 2099 1787 
Q 2243 1722 2356 1621 
Q 2470 1520 2539 1379 
Q 2608 1238 2608 1040 
Q 2608 803 2523 603 
Q 2438 403 2272 257 
Q 2106 112 1861 30 
Q 1616 -51 1296 -51 
Q 1126 -51 964 -20 
Q 803 10 654 64 
Q 506 118 379 192 
Q 253 266 157 352 
L 339 653 
Q 374 707 422 736 
Q 470 765 544 765 
Q 618 765 683 723 
Q 749 682 835 634 
Q 922 586 1038 544 
Q 1155 502 1334 502 
Q 1475 502 1576 536 
Q 1677 570 1742 624 
Q 1808 678 1838 750 
Q 1869 822 1869 899 
Q 1869 1014 1800 1088 
Q 1731 1162 1617 1216 
Q 1504 1270 1358 1313 
Q 1213 1357 1061 1408 
Q 909 1459 763 1528 
Q 618 1597 504 1702 
Q 390 1808 321 1961 
Q 253 2115 253 2333 
Q 253 2534 333 2716 
Q 413 2899 568 3035 
Q 723 3171 955 3252 
Q 1187 3334 1491 3334 
Q 1830 3334 2108 3222 
Q 2387 3110 2573 2928 
L 2394 2643 
z
" transform="scale(0.015625)"/>
      </defs>
      <use xlink:href="#Lato-Bold-50"/>
      <use xlink:href="#Lato-Bold-44" x="61.900009"/>
      <use xlink:href="#Lato-Bold-46" x="137.950027"/>
      <use xlink:href="#Lato-Bold-20" x="192.175034"/>
      <use xlink:href="#Lato-Bold-76" x="214.100037"/>
      <use xlink:href="#Lato-Bold-61" x="265.65004"/>
      <use xlink:href="#Lato-Bold-6c" x="316.40004"/>
      <use xlink:href="#Lato-Bold-75" x="341.250046"/>
      <use xlink:href="#Lato-Bold-65" x="397.650055"/>
      <use xlink:href="#Lato-Bold-73" x="451.050064"/>
     </g>
    </g>
   </g>
   <g id="line2d_46">
    <path d="M 87.36 285.408 
L 93.433469 283.016771 
L 99.506939 280.026315 
L 105.580408 276.335581 
L 111.653878 271.841189 
L 117.727347 266.442058 
L 123.800816 260.045142 
L 129.874286 252.572167 
L 135.947755 243.967089 
L 142.021224 234.203902 
L 148.094694 223.294286 
L 154.168163 211.294496 
L 160.241633 198.310831 
L 166.315102 184.503035 
L 172.388571 170.085009 
L 178.462041 155.322368 
L 184.53551 140.526573 
L 190.60898 126.045578 
L 196.682449 112.251269 
L 202.755918 99.524226 
L 208.829388 88.236628 
L 214.902857 78.734354 
L 220.976327 71.319445 
L 227.049796 66.234194 
L 233.123265 63.648 
L 239.196735 63.648 
L 245.270204 66.234194 
L 251.343673 71.319445 
L 257.417143 78.734354 
L 263.490612 88.236628 
L 269.564082 99.524226 
L 275.637551 112.251269 
L 281.71102 126.045578 
L 287.78449 140.526573 
L 293.857959 155.322368 
L 299.931429 170.085009 
L 306.004898 184.503035 
L 312.078367 198.310831 
L 318.151837 211.294496 
L 324.225306 223.294286 
L 330.298776 234.203902 
L 336.372245 243.967089 
L 342.445714 252.572167 
L 348.519184 260.045142 
L 354.592653 266.442058 
L 360.666122 271.841189 
L 366.739592 276.335581 
L 372.813061 280.026315 
L 378.886531 283.016771 
L 384.96 285.408 
" clip-path="url(#paaf19a216a)" style="fill: none; stroke: #1f77b4; stroke-width: 3; stroke-linecap: square"/>
   </g>
   <g id="patch_3">
    <path d="M 57.6 307.584 
L 414.72 307.584 
" style="fill: none; stroke: #000000; stroke-width: 0.5; stroke-linejoin: miter; stroke-linecap: square"/>
   </g>
  </g>
 </g>
 <defs>
  <clipPath id="paaf19a216a">
   <rect x="57.6" y="41.472" width="357.12" height="266.112"/>
  </clipPath>
 </defs>
</svg>
