<?xml version="1.0" encoding="UTF-8"?>
<svg xmlns="http://www.w3.org/2000/svg" version="1.1" xmlns:xlink="http://www.w3.org/1999/xlink" viewBox="0 0 460.79996 345.60001">
  <defs>
    <style>
      .cls-1, .cls-2 {
        stroke-linecap: square;
      }

      .cls-1, .cls-2, .cls-3, .cls-4, .cls-5 {
        fill: none;
      }

      .cls-1, .cls-2, .cls-6 {
        stroke-width: .5px;
      }

      .cls-1, .cls-6 {
        stroke: #000;
      }

      .cls-2 {
        stroke: #ccc;
      }

      .cls-2, .cls-6 {
        stroke-linejoin: round;
      }

      .cls-7 {
        clip-path: url(#clippath-6);
      }

      .cls-8 {
        clip-path: url(#clippath-7);
      }

      .cls-9 {
        clip-path: url(#clippath-4);
      }

      .cls-3 {
        stroke-width: 1.5px;
      }

      .cls-3, .cls-4 {
        stroke: #ee2424;
        stroke-miterlimit: 10;
      }

      .cls-10 {
        clip-path: url(#clippath-9);
      }

      .cls-11 {
        clip-path: url(#clippath-1);
      }

      .cls-12 {
        clip-path: url(#clippath-5);
      }

      .cls-13 {
        clip-path: url(#clippath-8);
      }

      .cls-14 {
        clip-path: url(#clippath-3);
      }

      .cls-15 {
        fill: #ee2424;
      }

      .cls-16 {
        clip-path: url(#clippath-2);
      }

      .cls-17 {
        fill: #1f77b4;
      }

      .cls-18 {
        clip-path: url(#clippath);
      }
    </style>
    <clipPath id="clippath">
      <rect class="cls-5" x="57.6" y="41.47198" width="357.12" height="266.112"/>
    </clipPath>
    <clipPath id="clippath-1">
      <rect class="cls-5" x="57.6" y="41.47198" width="357.12" height="266.112"/>
    </clipPath>
    <clipPath id="clippath-2">
      <rect class="cls-5" x="57.6" y="41.47198" width="357.12" height="266.112"/>
    </clipPath>
    <clipPath id="clippath-3">
      <rect class="cls-5" x="57.6" y="41.47198" width="357.12" height="266.112"/>
    </clipPath>
    <clipPath id="clippath-4">
      <rect class="cls-5" x="57.6" y="41.47198" width="357.12" height="266.112"/>
    </clipPath>
    <clipPath id="clippath-5">
      <rect class="cls-5" x="57.6" y="41.47198" width="357.12" height="266.112"/>
    </clipPath>
    <clipPath id="clippath-6">
      <rect class="cls-5" x="57.6" y="41.47198" width="357.12" height="266.112"/>
    </clipPath>
    <clipPath id="clippath-7">
      <rect class="cls-5" x="57.6" y="41.47198" width="357.12" height="266.112"/>
    </clipPath>
    <clipPath id="clippath-8">
      <rect class="cls-5" x="57.6" y="41.47198" width="357.12" height="266.112"/>
    </clipPath>
    <clipPath id="clippath-9">
      <rect class="cls-5" x="57.6" y="41.47198" width="357.12" height="266.112"/>
    </clipPath>
  </defs>
  <!-- Generator: Adobe Illustrator 28.7.3, SVG Export Plug-In . SVG Version: 1.2.0 Build 164)  -->
  <g>
    <g id="Layer_1">
      <g id="figure_1">
        <g id="patch_1">
          <path class="cls-5" d="M0,345.60002h460.79999V.00002H0v345.60001Z"/>
        </g>
        <g id="axes_1">
          <g id="patch_2">
            <path class="cls-5" d="M57.6,307.58403h357.12V41.47202H57.6v266.11201Z"/>
          </g>
          <g id="matplotlib.axis_1">
            <g id="xtick_1">
              <g id="line2d_1">
                <path id="m497e235e69" class="cls-6" d="M87.36,307.58403v6"/>
              </g>
              <g id="text_1">
                <path id="Lato-Regular-30" d="M89.96,320.86996c0,.62604-.06771,1.16823-.20313,1.62656-.13438.45833-.31823.8375-.55156,1.1375s-.50938.52344-.82813.67031c-.31771.14688-.65833.22031-1.02188.22031-.36667,0-.70781-.07344-1.02344-.22031-.31458-.14688-.58854-.37031-.82188-.67031s-.41667-.67917-.55-1.1375c-.13333-.45833-.2-1.00052-.2-1.62656,0-.62708.06667-1.17031.2-1.62969.13333-.46042.31667-.84115.55-1.14219.23333-.30208.50729-.52656.82188-.67344.31563-.14688.65677-.22031,1.02344-.22031.36354,0,.70417.07344,1.02188.22031.31875.14688.59479.37135.82813.67344.23333.30104.41719.68177.55156,1.14219.13542.45938.20313,1.0026.20313,1.62969ZM89.035,320.86996c0-.54688-.04583-1.00625-.1375-1.37813s-.2151-.67083-.37031-.89688c-.15521-.22708-.33438-.38958-.5375-.4875-.20313-.09896-.41458-.14844-.63438-.14844s-.43177.04948-.63594.14844c-.20313.09792-.38125.26042-.53438.4875-.15313.22604-.27552.525-.36719.89688s-.1375.83125-.1375,1.37813.04583,1.00521.1375,1.375.21406.66823.36719.89531c.15313.22604.33125.38854.53438.4875.20417.09792.41615.14688.63594.14688s.43125-.04896.63438-.14688c.20313-.09896.38229-.26146.5375-.4875.15521-.22708.27865-.52552.37031-.89531s.1375-.82813.1375-1.375Z"/>
              </g>
            </g>
            <g id="xtick_2">
              <g id="line2d_2">
                <path id="m497e235e69-2" data-name="m497e235e69" class="cls-6" d="M146.88,307.58403v6"/>
              </g>
              <g id="text_2">
                <path id="Lato-Regular-31" d="M145.23,323.76996h1.53438v-4.88594c0-.13958.00521-.2875.01563-.44375l-1.275,1.09375c-.04375.0375-.0875.06042-.13125.06875-.04271.00833-.08229.00938-.11875.00313-.03646-.00729-.07083-.02083-.10313-.04063-.03125-.02083-.05521-.04271-.07188-.06563l-.27969-.38438,2.13438-1.84531h.725v6.5h1.41094v.67969h-3.84063v-.67969Z"/>
              </g>
            </g>
            <g id="xtick_3">
              <g id="line2d_3">
                <path id="m497e235e69-3" data-name="m497e235e69" class="cls-6" d="M206.39999,307.58403v6"/>
              </g>
              <g id="text_3">
                <path id="Lato-Regular-32" d="M206.45469,317.20433c.30313,0,.58646.04531.85.13594.26354.08958.49167.22031.68438.39219.19375.17188.34531.38125.45469.62813.11042.24583.16563.52552.16563.83906,0,.26667-.0401.51406-.12031.74219-.07917.22813-.1875.44583-.325.65313-.13646.20625-.29375.40781-.47188.60469s-.36719.39531-.56719.59531l-1.89063,1.92969c.13333-.03646.26823-.06563.40469-.0875.1375-.02188.26927-.03281.39531-.03281h2.4c.09688,0,.17344.02865.22969.08594.05729.05625.08594.12917.08594.21875v.54063h-4.77969v-.30469c0-.06354.01302-.12865.03906-.19531.02708-.06667.06875-.12813.125-.18438l2.29531-2.30625c.19063-.19271.36406-.37813.52031-.55625.15625-.17917.28958-.35833.4-.5375.11042-.18021.19531-.3625.25469-.54688.06042-.18542.09063-.38333.09063-.59375s-.03333-.39479-.1-.55313-.15781-.28906-.27344-.39219c-.11458-.10313-.25052-.18021-.40781-.23125-.15625-.05208-.32448-.07813-.50469-.07813-.18333,0-.35156.02656-.50469.07969s-.28906.1276-.40781.22344c-.11771.09479-.21667.20729-.29688.3375-.08021.12917-.13698.2724-.17031.42969-.03958.11667-.09375.19427-.1625.23281-.06771.0375-.16354.04792-.2875.03125l-.46406-.07969c.04583-.32708.13646-.61615.27188-.86719.13542-.25208.30521-.46302.50938-.63281.20521-.16979.43958-.29896.70313-.3875s.54844-.13281.85469-.13281Z"/>
              </g>
            </g>
            <g id="xtick_4">
              <g id="line2d_4">
                <path id="m497e235e69-4" data-name="m497e235e69" class="cls-6" d="M265.92001,307.58403v6"/>
              </g>
              <g id="text_4">
                <path id="Lato-Regular-33" d="M266.01061,317.20433c.30313,0,.58281.04375.83906.13125.25729.08646.47813.2099.6625.37031.18542.15938.32969.3526.43281.57969.10313.22604.15469.4776.15469.75469,0,.22604-.02917.42865-.0875.60781-.05833.17813-.14167.3349-.25.47031-.10833.13438-.23906.24844-.39219.34219-.15313.09271-.325.16719-.51563.22344.46667.12396.81771.33125,1.05313.62188.23542.28958.35313.6526.35313,1.08906,0,.33021-.0625.62708-.1875.89063-.125.2625-.29583.48646-.5125.67188-.21667.18438-.46927.32604-.75781.425-.28854.09792-.59792.14688-.92813.14688-.38021,0-.70521-.0474-.975-.14219-.26979-.09479-.49792-.22552-.68438-.39219-.18646-.16667-.3401-.36406-.46094-.59219-.11979-.22917-.22135-.47708-.30469-.74375l.38594-.15938c.1-.04375.1974-.05521.29219-.03438.09479.01979.16406.07448.20781.16406.04271.09375.09635.20573.16094.33594.06563.12917.15521.25417.26875.375.11354.11979.25781.22135.43281.30469.175.08333.3974.125.66719.125.25,0,.46875-.04063.65625-.12188.18854-.08229.34531-.18854.47031-.31875s.21927-.275.28281-.43438c.06354-.16042.09531-.31875.09531-.475,0-.19375-.025-.37031-.075-.52969-.05-.16042-.14323-.29896-.27969-.41563s-.32396-.20833-.5625-.275c-.23854-.06667-.54427-.1-.91719-.1v-.64531c.30625-.00313.56667-.03646.78125-.1.21563-.06354.39063-.15.525-.25938.13542-.11042.23385-.24219.29531-.39531s.09219-.32292.09219-.50938c0-.20729-.03229-.3875-.09688-.54063s-.15365-.27969-.26719-.37969-.24792-.175-.40313-.225-.3224-.075-.50156-.075c-.18021,0-.34792.02656-.50313.07969s-.29219.1276-.41094.22344c-.11771.09479-.21667.20729-.29688.3375-.08021.12917-.13698.2724-.17031.42969-.04271.11667-.09688.19427-.1625.23281-.06458.0375-.15833.04792-.28125.03125l-.46563-.07969c.04688-.32708.13698-.61615.27031-.86719.13333-.25208.30208-.46302.50625-.63281.20521-.16979.4401-.29896.70469-.3875.26563-.08854.55208-.13281.85938-.13281Z"/>
              </g>
            </g>
            <g id="xtick_5">
              <g id="line2d_5">
                <path id="m497e235e69-5" data-name="m497e235e69" class="cls-6" d="M325.44,307.58403v6"/>
              </g>
              <g id="text_5">
                <path id="Lato-Regular-34" d="M326.9697,321.86527h1.08594v.50938c0,.05313-.01615.09844-.04844.13594-.03125.03646-.08021.05469-.14688.05469h-.89063v1.88438h-.77969v-1.88438h-3.17969c-.06667,0-.12448-.01927-.17344-.05781-.04792-.03854-.07865-.08594-.09219-.14219l-.08906-.45625,3.48438-4.625h.82969v4.58125ZM326.19001,318.90902c0-.08646.0026-.18021.00781-.28125.00521-.10208.01615-.20625.03281-.3125l-2.61094,3.55h2.57031v-2.95625Z"/>
              </g>
            </g>
            <g id="xtick_6">
              <g id="line2d_6">
                <path id="m497e235e69-6" data-name="m497e235e69" class="cls-6" d="M384.95999,307.58403v6"/>
              </g>
              <g id="text_6">
                <path id="Lato-Regular-35" d="M386.96937,317.67465c0,.12708-.03906.23125-.11719.3125s-.21198.12188-.40156.12188h-2.25l-.33125,1.88125c.19063-.04375.36979-.07448.5375-.09219.16875-.01875.33333-.02813.49375-.02813.37292,0,.7026.05521.98906.16563.28646.10938.52552.26094.71719.45469.19167.19271.33646.42083.43438.68438.09896.26354.14844.55.14844.85938,0,.38021-.06615.72396-.19844,1.03125-.13125.30625-.3125.56875-.54375.7875-.23125.21771-.50365.3849-.81719.50156-.31354.11667-.65208.175-1.01563.175-.20938,0-.41094-.02083-.60469-.0625-.19375-.04167-.375-.0974-.54375-.16719-.16771-.06979-.32344-.14948-.46719-.23906-.14271-.09063-.26927-.18594-.37969-.28594l.275-.37969c.06042-.08646.13906-.12969.23594-.12969.06667,0,.14167.02604.225.07813.08333.05104.1849.10833.30469.17188.11979.0625.26042.11979.42188.17188.1625.05208.35521.07813.57813.07813.25,0,.475-.0401.675-.12031.2-.08021.37135-.19427.51406-.34219.14375-.14896.25365-.32656.32969-.53281.07708-.20729.11563-.43906.11563-.69531,0-.22292-.03229-.42448-.09688-.60469s-.16302-.33333-.29531-.45938c-.13125-.12708-.29531-.22552-.49219-.29531-.19688-.07083-.42708-.10625-.69063-.10625-.17917,0-.36667.0151-.5625.04531-.19479.03021-.39375.07865-.59688.14531l-.55938-.16563.575-3.35h3.39375v.39063Z"/>
              </g>
            </g>
            <g id="xtick_7">
              <g id="line2d_7">
                <path id="ma6bd4dae53" class="cls-6" d="M63.552,307.58403v3"/>
              </g>
            </g>
            <g id="xtick_8">
              <g id="line2d_8">
                <path id="ma6bd4dae53-2" data-name="ma6bd4dae53" class="cls-6" d="M75.456,307.58403v3"/>
              </g>
            </g>
            <g id="xtick_9">
              <g id="line2d_9">
                <path id="ma6bd4dae53-3" data-name="ma6bd4dae53" class="cls-6" d="M99.264,307.58403v3"/>
              </g>
            </g>
            <g id="xtick_10">
              <g id="line2d_10">
                <path id="ma6bd4dae53-4" data-name="ma6bd4dae53" class="cls-6" d="M111.168,307.58403v3"/>
              </g>
            </g>
            <g id="xtick_11">
              <g id="line2d_11">
                <path id="ma6bd4dae53-5" data-name="ma6bd4dae53" class="cls-6" d="M123.072,307.58403v3"/>
              </g>
            </g>
            <g id="xtick_12">
              <g id="line2d_12">
                <path id="ma6bd4dae53-6" data-name="ma6bd4dae53" class="cls-6" d="M134.976,307.58403v3"/>
              </g>
            </g>
            <g id="xtick_13">
              <g id="line2d_13">
                <path id="ma6bd4dae53-7" data-name="ma6bd4dae53" class="cls-6" d="M158.784,307.58403v3"/>
              </g>
            </g>
            <g id="xtick_14">
              <g id="line2d_14">
                <path id="ma6bd4dae53-8" data-name="ma6bd4dae53" class="cls-6" d="M170.688,307.58403v3"/>
              </g>
            </g>
            <g id="xtick_15">
              <g id="line2d_15">
                <path id="ma6bd4dae53-9" data-name="ma6bd4dae53" class="cls-6" d="M182.592,307.58403v3"/>
              </g>
            </g>
            <g id="xtick_16">
              <g id="line2d_16">
                <path id="ma6bd4dae53-10" data-name="ma6bd4dae53" class="cls-6" d="M194.496,307.58403v3"/>
              </g>
            </g>
            <g id="xtick_17">
              <g id="line2d_17">
                <path id="ma6bd4dae53-11" data-name="ma6bd4dae53" class="cls-6" d="M218.304,307.58403v3"/>
              </g>
            </g>
            <g id="xtick_18">
              <g id="line2d_18">
                <path id="ma6bd4dae53-12" data-name="ma6bd4dae53" class="cls-6" d="M230.20799,307.58403v3"/>
              </g>
            </g>
            <g id="xtick_19">
              <g id="line2d_19">
                <path id="ma6bd4dae53-13" data-name="ma6bd4dae53" class="cls-6" d="M242.112,307.58403v3"/>
              </g>
            </g>
            <g id="xtick_20">
              <g id="line2d_20">
                <path id="ma6bd4dae53-14" data-name="ma6bd4dae53" class="cls-6" d="M254.01601,307.58403v3"/>
              </g>
            </g>
            <g id="xtick_21">
              <g id="line2d_21">
                <path id="ma6bd4dae53-15" data-name="ma6bd4dae53" class="cls-6" d="M277.82401,307.58403v3"/>
              </g>
            </g>
            <g id="xtick_22">
              <g id="line2d_22">
                <path id="ma6bd4dae53-16" data-name="ma6bd4dae53" class="cls-6" d="M289.728,307.58403v3"/>
              </g>
            </g>
            <g id="xtick_23">
              <g id="line2d_23">
                <path id="ma6bd4dae53-17" data-name="ma6bd4dae53" class="cls-6" d="M301.63199,307.58403v3"/>
              </g>
            </g>
            <g id="xtick_24">
              <g id="line2d_24">
                <path id="ma6bd4dae53-18" data-name="ma6bd4dae53" class="cls-6" d="M313.53601,307.58403v3"/>
              </g>
            </g>
            <g id="xtick_25">
              <g id="line2d_25">
                <path id="ma6bd4dae53-19" data-name="ma6bd4dae53" class="cls-6" d="M337.34399,307.58403v3"/>
              </g>
            </g>
            <g id="xtick_26">
              <g id="line2d_26">
                <path id="ma6bd4dae53-20" data-name="ma6bd4dae53" class="cls-6" d="M349.24799,307.58403v3"/>
              </g>
            </g>
            <g id="xtick_27">
              <g id="line2d_27">
                <path id="ma6bd4dae53-21" data-name="ma6bd4dae53" class="cls-6" d="M361.15201,307.58403v3"/>
              </g>
            </g>
            <g id="xtick_28">
              <g id="line2d_28">
                <path id="ma6bd4dae53-22" data-name="ma6bd4dae53" class="cls-6" d="M373.056,307.58403v3"/>
              </g>
            </g>
            <g id="xtick_29">
              <g id="line2d_29">
                <path id="ma6bd4dae53-23" data-name="ma6bd4dae53" class="cls-6" d="M396.86401,307.58403v3"/>
              </g>
            </g>
            <g id="xtick_30">
              <g id="line2d_30">
                <path id="ma6bd4dae53-24" data-name="ma6bd4dae53" class="cls-6" d="M408.76801,307.58403v3"/>
              </g>
            </g>
            <g id="text_7">
              <path id="Lato-Bold-78" d="M235.33423,334.94966l-1.68438-2.48438h1.19063c.08958,0,.15573.0125.19844.0375.04375.025.08229.06563.11563.12188l1.075,1.71563c.01667-.05729.0375-.11406.0625-.17031s.05573-.11302.09219-.17031l.86563-1.35c.07292-.12292.16771-.18438.28438-.18438h1.13594l-1.69063,2.42969,1.76094,2.7h-1.19063c-.08958,0-.16198-.02344-.21719-.07031s-.10104-.1-.1375-.15938l-1.09063-1.78594c-.03021.12083-.07188.22083-.125.3l-.95938,1.48594c-.03646.05625-.08177.10885-.13594.15781-.05313.04792-.11979.07188-.2.07188h-1.10469l1.75469-2.64531Z"/>
            </g>
          </g>
          <g id="matplotlib.axis_2">
            <g id="ytick_1">
              <g id="line2d_31">
                <g class="cls-18">
                  <path class="cls-2" d="M57.6,307.58401h357.12"/>
                </g>
              </g>
              <g id="text_8">
                <g>
                  <path id="Lato-Regular-30-2" data-name="Lato-Regular-30" d="M39.84063,307.68716c0,.62604-.06771,1.16823-.20313,1.62656-.13438.45833-.31823.8375-.55156,1.1375s-.50938.52344-.82813.67031c-.31771.14688-.65833.22031-1.02188.22031-.36667,0-.70781-.07344-1.02344-.22031-.31458-.14688-.58854-.37031-.82188-.67031s-.41667-.67917-.55-1.1375c-.13333-.45833-.2-1.00052-.2-1.62656,0-.62708.06667-1.17031.2-1.62969.13333-.46042.31667-.84115.55-1.14219.23333-.30208.50729-.52656.82188-.67344.31563-.14688.65677-.22031,1.02344-.22031.36354,0,.70417.07344,1.02188.22031.31875.14688.59479.37135.82813.67344.23333.30104.41719.68177.55156,1.14219.13542.45938.20313,1.0026.20313,1.62969ZM38.91563,307.68716c0-.54688-.04583-1.00625-.1375-1.37813s-.2151-.67083-.37031-.89688c-.15521-.22708-.33438-.38958-.5375-.4875-.20313-.09896-.41458-.14844-.63438-.14844s-.43177.04948-.63594.14844c-.20313.09792-.38125.26042-.53438.4875-.15313.22604-.27552.525-.36719.89688s-.1375.83125-.1375,1.37813.04583,1.00521.1375,1.375.21406.66823.36719.89531c.15313.22604.33125.38854.53438.4875.20417.09792.41615.14688.63594.14688s.43125-.04896.63438-.14688c.20313-.09896.38229-.26146.5375-.4875.15521-.22708.27865-.52552.37031-.89531s.1375-.82813.1375-1.375Z"/>
                  <path id="Lato-Regular-2e" d="M40.69531,310.71685c0-.08646.01563-.16771.04688-.24375.03229-.07708.07604-.14375.13125-.2.05521-.05729.12083-.1026.19688-.13594.07708-.03333.15885-.05.24531-.05s.16771.01667.24375.05c.07708.03333.14375.07865.2.13594.05729.05625.1026.12292.13594.2.03333.07604.05.15729.05.24375,0,.08958-.01667.17188-.05.24688s-.07865.14115-.13594.19844c-.05625.05625-.12292.1-.2.13125-.07604.03229-.15729.04844-.24375.04844s-.16823-.01615-.24531-.04844c-.07604-.03125-.14167-.075-.19688-.13125-.05521-.05729-.09896-.12344-.13125-.19844-.03125-.075-.04688-.15729-.04688-.24688Z"/>
                  <path id="Lato-Regular-30-3" data-name="Lato-Regular-30" d="M48.00063,307.68716c0,.62604-.06771,1.16823-.20313,1.62656-.13438.45833-.31823.8375-.55156,1.1375s-.50938.52344-.82813.67031c-.31771.14688-.65833.22031-1.02188.22031-.36667,0-.70781-.07344-1.02344-.22031-.31458-.14688-.58854-.37031-.82188-.67031s-.41667-.67917-.55-1.1375c-.13333-.45833-.2-1.00052-.2-1.62656,0-.62708.06667-1.17031.2-1.62969.13333-.46042.31667-.84115.55-1.14219.23333-.30208.50729-.52656.82188-.67344.31563-.14688.65677-.22031,1.02344-.22031.36354,0,.70417.07344,1.02188.22031.31875.14688.59479.37135.82813.67344.23333.30104.41719.68177.55156,1.14219.13542.45938.20313,1.0026.20313,1.62969ZM47.07563,307.68716c0-.54688-.04583-1.00625-.1375-1.37813s-.2151-.67083-.37031-.89688c-.15521-.22708-.33438-.38958-.5375-.4875-.20313-.09896-.41458-.14844-.63438-.14844s-.43177.04948-.63594.14844c-.20313.09792-.38125.26042-.53438.4875-.15313.22604-.27552.525-.36719.89688s-.1375.83125-.1375,1.37813.04583,1.00521.1375,1.375.21406.66823.36719.89531c.15313.22604.33125.38854.53438.4875.20417.09792.41615.14688.63594.14688s.43125-.04896.63438-.14688c.20313-.09896.38229-.26146.5375-.4875.15521-.22708.27865-.52552.37031-.89531s.1375-.82813.1375-1.375Z"/>
                  <path id="Lato-Regular-30-4" data-name="Lato-Regular-30" d="M53.80062,307.68716c0,.62604-.06771,1.16823-.20313,1.62656-.13438.45833-.31823.8375-.55156,1.1375s-.50938.52344-.82813.67031c-.31771.14688-.65833.22031-1.02188.22031-.36667,0-.70781-.07344-1.02344-.22031-.31458-.14688-.58854-.37031-.82188-.67031s-.41667-.67917-.55-1.1375c-.13333-.45833-.2-1.00052-.2-1.62656,0-.62708.06667-1.17031.2-1.62969.13333-.46042.31667-.84115.55-1.14219.23333-.30208.50729-.52656.82188-.67344.31563-.14688.65677-.22031,1.02344-.22031.36354,0,.70417.07344,1.02188.22031.31875.14688.59479.37135.82813.67344.23333.30104.41719.68177.55156,1.14219.13542.45938.20313,1.0026.20313,1.62969ZM52.87562,307.68716c0-.54688-.04583-1.00625-.1375-1.37813s-.2151-.67083-.37031-.89688c-.15521-.22708-.33438-.38958-.5375-.4875-.20313-.09896-.41458-.14844-.63438-.14844s-.43177.04948-.63594.14844c-.20313.09792-.38125.26042-.53438.4875-.15313.22604-.27552.525-.36719.89688s-.1375.83125-.1375,1.37813.04583,1.00521.1375,1.375.21406.66823.36719.89531c.15313.22604.33125.38854.53438.4875.20417.09792.41615.14688.63594.14688s.43125-.04896.63438-.14688c.20313-.09896.38229-.26146.5375-.4875.15521-.22708.27865-.52552.37031-.89531s.1375-.82813.1375-1.375Z"/>
                </g>
              </g>
            </g>
            <g id="ytick_2">
              <g id="line2d_32">
                <g class="cls-11">
                  <path class="cls-2" d="M57.6,274.9248h357.12"/>
                </g>
              </g>
              <g id="text_9">
                <g>
                  <path id="Lato-Regular-30-5" data-name="Lato-Regular-30" d="M39.84063,275.02792c0,.62604-.06771,1.16823-.20313,1.62656-.13438.45833-.31823.8375-.55156,1.1375s-.50938.52344-.82813.67031c-.31771.14688-.65833.22031-1.02188.22031-.36667,0-.70781-.07344-1.02344-.22031-.31458-.14688-.58854-.37031-.82188-.67031s-.41667-.67917-.55-1.1375c-.13333-.45833-.2-1.00052-.2-1.62656,0-.62708.06667-1.17031.2-1.62969.13333-.46042.31667-.84115.55-1.14219.23333-.30208.50729-.52656.82188-.67344.31563-.14688.65677-.22031,1.02344-.22031.36354,0,.70417.07344,1.02188.22031.31875.14688.59479.37135.82813.67344.23333.30104.41719.68177.55156,1.14219.13542.45938.20313,1.0026.20313,1.62969ZM38.91563,275.02792c0-.54688-.04583-1.00625-.1375-1.37813s-.2151-.67083-.37031-.89688c-.15521-.22708-.33438-.38958-.5375-.4875-.20313-.09896-.41458-.14844-.63438-.14844s-.43177.04948-.63594.14844c-.20313.09792-.38125.26042-.53438.4875-.15313.22604-.27552.525-.36719.89688s-.1375.83125-.1375,1.37813.04583,1.00521.1375,1.375.21406.66823.36719.89531c.15313.22604.33125.38854.53438.4875.20417.09792.41615.14688.63594.14688s.43125-.04896.63438-.14688c.20313-.09896.38229-.26146.5375-.4875.15521-.22708.27865-.52552.37031-.89531s.1375-.82813.1375-1.375Z"/>
                  <path id="Lato-Regular-2e-2" data-name="Lato-Regular-2e" d="M40.69531,278.0576c0-.08646.01563-.16771.04688-.24375.03229-.07708.07604-.14375.13125-.2.05521-.05729.12083-.1026.19688-.13594.07708-.03333.15885-.05.24531-.05s.16771.01667.24375.05c.07708.03333.14375.07865.2.13594.05729.05625.1026.12292.13594.2.03333.07604.05.15729.05.24375,0,.08958-.01667.17188-.05.24688s-.07865.14115-.13594.19844c-.05625.05625-.12292.1-.2.13125-.07604.03229-.15729.04844-.24375.04844s-.16823-.01615-.24531-.04844c-.07604-.03125-.14167-.075-.19688-.13125-.05521-.05729-.09896-.12344-.13125-.19844-.03125-.075-.04688-.15729-.04688-.24688Z"/>
                  <path id="Lato-Regular-30-6" data-name="Lato-Regular-30" d="M48.00063,275.02792c0,.62604-.06771,1.16823-.20313,1.62656-.13438.45833-.31823.8375-.55156,1.1375s-.50938.52344-.82813.67031c-.31771.14688-.65833.22031-1.02188.22031-.36667,0-.70781-.07344-1.02344-.22031-.31458-.14688-.58854-.37031-.82188-.67031s-.41667-.67917-.55-1.1375c-.13333-.45833-.2-1.00052-.2-1.62656,0-.62708.06667-1.17031.2-1.62969.13333-.46042.31667-.84115.55-1.14219.23333-.30208.50729-.52656.82188-.67344.31563-.14688.65677-.22031,1.02344-.22031.36354,0,.70417.07344,1.02188.22031.31875.14688.59479.37135.82813.67344.23333.30104.41719.68177.55156,1.14219.13542.45938.20313,1.0026.20313,1.62969ZM47.07563,275.02792c0-.54688-.04583-1.00625-.1375-1.37813s-.2151-.67083-.37031-.89688c-.15521-.22708-.33438-.38958-.5375-.4875-.20313-.09896-.41458-.14844-.63438-.14844s-.43177.04948-.63594.14844c-.20313.09792-.38125.26042-.53438.4875-.15313.22604-.27552.525-.36719.89688s-.1375.83125-.1375,1.37813.04583,1.00521.1375,1.375.21406.66823.36719.89531c.15313.22604.33125.38854.53438.4875.20417.09792.41615.14688.63594.14688s.43125-.04896.63438-.14688c.20313-.09896.38229-.26146.5375-.4875.15521-.22708.27865-.52552.37031-.89531s.1375-.82813.1375-1.375Z"/>
                  <path id="Lato-Regular-35-2" data-name="Lato-Regular-35" d="M53.21,271.8326c0,.12708-.03906.23125-.11719.3125s-.21198.12188-.40156.12188h-2.25l-.33125,1.88125c.19063-.04375.36979-.07448.5375-.09219.16875-.01875.33333-.02813.49375-.02813.37292,0,.7026.05521.98906.16563.28646.10938.52552.26094.71719.45469.19167.19271.33646.42083.43438.68438.09896.26354.14844.55.14844.85938,0,.38021-.06615.72396-.19844,1.03125-.13125.30625-.3125.56875-.54375.7875-.23125.21771-.50365.3849-.81719.50156-.31354.11667-.65208.175-1.01563.175-.20938,0-.41094-.02083-.60469-.0625-.19375-.04167-.375-.0974-.54375-.16719-.16771-.06979-.32344-.14948-.46719-.23906-.14271-.09063-.26927-.18594-.37969-.28594l.275-.37969c.06042-.08646.13906-.12969.23594-.12969.06667,0,.14167.02604.225.07813.08333.05104.1849.10833.30469.17188.11979.0625.26042.11979.42188.17188.1625.05208.35521.07813.57813.07813.25,0,.475-.0401.675-.12031.2-.08021.37135-.19427.51406-.34219.14375-.14896.25365-.32656.32969-.53281.07708-.20729.11563-.43906.11563-.69531,0-.22292-.03229-.42448-.09688-.60469s-.16302-.33333-.29531-.45938c-.13125-.12708-.29531-.22552-.49219-.29531-.19688-.07083-.42708-.10625-.69063-.10625-.17917,0-.36667.0151-.5625.04531-.19479.03021-.39375.07865-.59688.14531l-.55938-.16563.575-3.35h3.39375v.39063Z"/>
                </g>
              </g>
            </g>
            <g id="ytick_3">
              <g id="line2d_33">
                <g class="cls-16">
                  <path class="cls-2" d="M57.6,242.26559h357.12"/>
                </g>
              </g>
              <g id="text_10">
                <g>
                  <path id="Lato-Regular-30-7" data-name="Lato-Regular-30" d="M39.84063,242.36874c0,.62604-.06771,1.16823-.20313,1.62656-.13438.45833-.31823.8375-.55156,1.1375s-.50938.52344-.82813.67031c-.31771.14688-.65833.22031-1.02188.22031-.36667,0-.70781-.07344-1.02344-.22031-.31458-.14688-.58854-.37031-.82188-.67031s-.41667-.67917-.55-1.1375c-.13333-.45833-.2-1.00052-.2-1.62656,0-.62708.06667-1.17031.2-1.62969.13333-.46042.31667-.84115.55-1.14219.23333-.30208.50729-.52656.82188-.67344.31563-.14688.65677-.22031,1.02344-.22031.36354,0,.70417.07344,1.02188.22031.31875.14688.59479.37135.82813.67344.23333.30104.41719.68177.55156,1.14219.13542.45938.20313,1.0026.20313,1.62969ZM38.91563,242.36874c0-.54688-.04583-1.00625-.1375-1.37813s-.2151-.67083-.37031-.89688c-.15521-.22708-.33438-.38958-.5375-.4875-.20313-.09896-.41458-.14844-.63438-.14844s-.43177.04948-.63594.14844c-.20313.09792-.38125.26042-.53438.4875-.15313.22604-.27552.525-.36719.89688s-.1375.83125-.1375,1.37813.04583,1.00521.1375,1.375.21406.66823.36719.89531c.15313.22604.33125.38854.53438.4875.20417.09792.41615.14688.63594.14688s.43125-.04896.63438-.14688c.20313-.09896.38229-.26146.5375-.4875.15521-.22708.27865-.52552.37031-.89531s.1375-.82813.1375-1.375Z"/>
                  <path id="Lato-Regular-2e-3" data-name="Lato-Regular-2e" d="M40.69531,245.39843c0-.08646.01563-.16771.04688-.24375.03229-.07708.07604-.14375.13125-.2.05521-.05729.12083-.1026.19688-.13594.07708-.03333.15885-.05.24531-.05s.16771.01667.24375.05c.07708.03333.14375.07865.2.13594.05729.05625.1026.12292.13594.2.03333.07604.05.15729.05.24375,0,.08958-.01667.17188-.05.24688s-.07865.14115-.13594.19844c-.05625.05625-.12292.1-.2.13125-.07604.03229-.15729.04844-.24375.04844s-.16823-.01615-.24531-.04844c-.07604-.03125-.14167-.075-.19688-.13125-.05521-.05729-.09896-.12344-.13125-.19844-.03125-.075-.04688-.15729-.04688-.24688Z"/>
                  <path id="Lato-Regular-31-2" data-name="Lato-Regular-31" d="M43.75063,245.26874h1.53438v-4.88594c0-.13958.00521-.2875.01563-.44375l-1.275,1.09375c-.04375.0375-.0875.06042-.13125.06875-.04271.00833-.08229.00938-.11875.00313-.03646-.00729-.07083-.02083-.10313-.04063-.03125-.02083-.05521-.04271-.07188-.06563l-.27969-.38438,2.13438-1.84531h.725v6.5h1.41094v.67969h-3.84063v-.67969Z"/>
                  <path id="Lato-Regular-30-8" data-name="Lato-Regular-30" d="M53.80062,242.36874c0,.62604-.06771,1.16823-.20313,1.62656-.13438.45833-.31823.8375-.55156,1.1375s-.50938.52344-.82813.67031c-.31771.14688-.65833.22031-1.02188.22031-.36667,0-.70781-.07344-1.02344-.22031-.31458-.14688-.58854-.37031-.82188-.67031s-.41667-.67917-.55-1.1375c-.13333-.45833-.2-1.00052-.2-1.62656,0-.62708.06667-1.17031.2-1.62969.13333-.46042.31667-.84115.55-1.14219.23333-.30208.50729-.52656.82188-.67344.31563-.14688.65677-.22031,1.02344-.22031.36354,0,.70417.07344,1.02188.22031.31875.14688.59479.37135.82813.67344.23333.30104.41719.68177.55156,1.14219.13542.45938.20313,1.0026.20313,1.62969ZM52.87562,242.36874c0-.54688-.04583-1.00625-.1375-1.37813s-.2151-.67083-.37031-.89688c-.15521-.22708-.33438-.38958-.5375-.4875-.20313-.09896-.41458-.14844-.63438-.14844s-.43177.04948-.63594.14844c-.20313.09792-.38125.26042-.53438.4875-.15313.22604-.27552.525-.36719.89688s-.1375.83125-.1375,1.37813.04583,1.00521.1375,1.375.21406.66823.36719.89531c.15313.22604.33125.38854.53438.4875.20417.09792.41615.14688.63594.14688s.43125-.04896.63438-.14688c.20313-.09896.38229-.26146.5375-.4875.15521-.22708.27865-.52552.37031-.89531s.1375-.82813.1375-1.375Z"/>
                </g>
              </g>
            </g>
            <g id="ytick_4">
              <g id="line2d_34">
                <g class="cls-14">
                  <path class="cls-2" d="M57.6,209.6064h357.12"/>
                </g>
              </g>
              <g id="text_11">
                <g>
                  <path id="Lato-Regular-30-9" data-name="Lato-Regular-30" d="M39.84063,209.70956c0,.62604-.06771,1.16823-.20313,1.62656-.13438.45833-.31823.8375-.55156,1.1375s-.50938.52344-.82813.67031c-.31771.14688-.65833.22031-1.02188.22031-.36667,0-.70781-.07344-1.02344-.22031-.31458-.14688-.58854-.37031-.82188-.67031s-.41667-.67917-.55-1.1375c-.13333-.45833-.2-1.00052-.2-1.62656,0-.62708.06667-1.17031.2-1.62969.13333-.46042.31667-.84115.55-1.14219.23333-.30208.50729-.52656.82188-.67344.31563-.14688.65677-.22031,1.02344-.22031.36354,0,.70417.07344,1.02188.22031.31875.14688.59479.37135.82813.67344.23333.30104.41719.68177.55156,1.14219.13542.45938.20313,1.0026.20313,1.62969ZM38.91563,209.70956c0-.54688-.04583-1.00625-.1375-1.37813s-.2151-.67083-.37031-.89688c-.15521-.22708-.33438-.38958-.5375-.4875-.20313-.09896-.41458-.14844-.63438-.14844s-.43177.04948-.63594.14844c-.20313.09792-.38125.26042-.53438.4875-.15313.22604-.27552.525-.36719.89688s-.1375.83125-.1375,1.37813.04583,1.00521.1375,1.375.21406.66823.36719.89531c.15313.22604.33125.38854.53438.4875.20417.09792.41615.14688.63594.14688s.43125-.04896.63438-.14688c.20313-.09896.38229-.26146.5375-.4875.15521-.22708.27865-.52552.37031-.89531s.1375-.82813.1375-1.375Z"/>
                  <path id="Lato-Regular-2e-4" data-name="Lato-Regular-2e" d="M40.69531,212.73925c0-.08646.01563-.16771.04688-.24375.03229-.07708.07604-.14375.13125-.2.05521-.05729.12083-.1026.19688-.13594.07708-.03333.15885-.05.24531-.05s.16771.01667.24375.05c.07708.03333.14375.07865.2.13594.05729.05625.1026.12292.13594.2.03333.07604.05.15729.05.24375,0,.08958-.01667.17188-.05.24688s-.07865.14115-.13594.19844c-.05625.05625-.12292.1-.2.13125-.07604.03229-.15729.04844-.24375.04844s-.16823-.01615-.24531-.04844c-.07604-.03125-.14167-.075-.19688-.13125-.05521-.05729-.09896-.12344-.13125-.19844-.03125-.075-.04688-.15729-.04688-.24688Z"/>
                  <path id="Lato-Regular-31-3" data-name="Lato-Regular-31" d="M43.75063,212.60956h1.53438v-4.88594c0-.13958.00521-.2875.01563-.44375l-1.275,1.09375c-.04375.0375-.0875.06042-.13125.06875-.04271.00833-.08229.00938-.11875.00313-.03646-.00729-.07083-.02083-.10313-.04063-.03125-.02083-.05521-.04271-.07188-.06563l-.27969-.38438,2.13438-1.84531h.725v6.5h1.41094v.67969h-3.84063v-.67969Z"/>
                  <path id="Lato-Regular-35-3" data-name="Lato-Regular-35" d="M53.21,206.51425c0,.12708-.03906.23125-.11719.3125s-.21198.12188-.40156.12188h-2.25l-.33125,1.88125c.19063-.04375.36979-.07448.5375-.09219.16875-.01875.33333-.02813.49375-.02813.37292,0,.7026.05521.98906.16563.28646.10938.52552.26094.71719.45469.19167.19271.33646.42083.43438.68438.09896.26354.14844.55.14844.85938,0,.38021-.06615.72396-.19844,1.03125-.13125.30625-.3125.56875-.54375.7875-.23125.21771-.50365.3849-.81719.50156-.31354.11667-.65208.175-1.01563.175-.20938,0-.41094-.02083-.60469-.0625-.19375-.04167-.375-.0974-.54375-.16719-.16771-.06979-.32344-.14948-.46719-.23906-.14271-.09063-.26927-.18594-.37969-.28594l.275-.37969c.06042-.08646.13906-.12969.23594-.12969.06667,0,.14167.02604.225.07813.08333.05104.1849.10833.30469.17188.11979.0625.26042.11979.42188.17188.1625.05208.35521.07813.57813.07813.25,0,.475-.0401.675-.12031.2-.08021.37135-.19427.51406-.34219.14375-.14896.25365-.32656.32969-.53281.07708-.20729.11563-.43906.11563-.69531,0-.22292-.03229-.42448-.09688-.60469s-.16302-.33333-.29531-.45938c-.13125-.12708-.29531-.22552-.49219-.29531-.19688-.07083-.42708-.10625-.69063-.10625-.17917,0-.36667.0151-.5625.04531-.19479.03021-.39375.07865-.59688.14531l-.55938-.16563.575-3.35h3.39375v.39063Z"/>
                </g>
              </g>
            </g>
            <g id="ytick_5">
              <g id="line2d_35">
                <g class="cls-9">
                  <path class="cls-2" d="M57.6,176.9472h357.12"/>
                </g>
              </g>
              <g id="text_12">
                <g>
                  <path id="Lato-Regular-30-10" data-name="Lato-Regular-30" d="M39.84063,177.05032c0,.62604-.06771,1.16823-.20313,1.62656-.13438.45833-.31823.8375-.55156,1.1375s-.50938.52344-.82813.67031c-.31771.14688-.65833.22031-1.02188.22031-.36667,0-.70781-.07344-1.02344-.22031-.31458-.14688-.58854-.37031-.82188-.67031s-.41667-.67917-.55-1.1375c-.13333-.45833-.2-1.00052-.2-1.62656,0-.62708.06667-1.17031.2-1.62969.13333-.46042.31667-.84115.55-1.14219.23333-.30208.50729-.52656.82188-.67344.31563-.14688.65677-.22031,1.02344-.22031.36354,0,.70417.07344,1.02188.22031.31875.14688.59479.37135.82813.67344.23333.30104.41719.68177.55156,1.14219.13542.45938.20313,1.0026.20313,1.62969ZM38.91563,177.05032c0-.54688-.04583-1.00625-.1375-1.37813s-.2151-.67083-.37031-.89688c-.15521-.22708-.33438-.38958-.5375-.4875-.20313-.09896-.41458-.14844-.63438-.14844s-.43177.04948-.63594.14844c-.20313.09792-.38125.26042-.53438.4875-.15313.22604-.27552.525-.36719.89688s-.1375.83125-.1375,1.37813.04583,1.00521.1375,1.375.21406.66823.36719.89531c.15313.22604.33125.38854.53438.4875.20417.09792.41615.14688.63594.14688s.43125-.04896.63438-.14688c.20313-.09896.38229-.26146.5375-.4875.15521-.22708.27865-.52552.37031-.89531s.1375-.82813.1375-1.375Z"/>
                  <path id="Lato-Regular-2e-5" data-name="Lato-Regular-2e" d="M40.69531,180.08c0-.08646.01563-.16771.04688-.24375.03229-.07708.07604-.14375.13125-.2.05521-.05729.12083-.1026.19688-.13594.07708-.03333.15885-.05.24531-.05s.16771.01667.24375.05c.07708.03333.14375.07865.2.13594.05729.05625.1026.12292.13594.2.03333.07604.05.15729.05.24375,0,.08958-.01667.17188-.05.24688s-.07865.14115-.13594.19844c-.05625.05625-.12292.1-.2.13125-.07604.03229-.15729.04844-.24375.04844s-.16823-.01615-.24531-.04844c-.07604-.03125-.14167-.075-.19688-.13125-.05521-.05729-.09896-.12344-.13125-.19844-.03125-.075-.04688-.15729-.04688-.24688Z"/>
                  <path id="Lato-Regular-32-2" data-name="Lato-Regular-32" d="M45.45531,173.38469c.30313,0,.58646.04531.85.13594.26354.08958.49167.22031.68438.39219.19375.17188.34531.38125.45469.62813.11042.24583.16563.52552.16563.83906,0,.26667-.0401.51406-.12031.74219-.07917.22813-.1875.44583-.325.65313-.13646.20625-.29375.40781-.47188.60469s-.36719.39531-.56719.59531l-1.89063,1.92969c.13333-.03646.26823-.06563.40469-.0875.1375-.02188.26927-.03281.39531-.03281h2.4c.09688,0,.17344.02865.22969.08594.05729.05625.08594.12917.08594.21875v.54063h-4.77969v-.30469c0-.06354.01302-.12865.03906-.19531.02708-.06667.06875-.12813.125-.18438l2.29531-2.30625c.19063-.19271.36406-.37813.52031-.55625.15625-.17917.28958-.35833.4-.5375.11042-.18021.19531-.3625.25469-.54688.06042-.18542.09063-.38333.09063-.59375s-.03333-.39479-.1-.55313-.15781-.28906-.27344-.39219c-.11458-.10313-.25052-.18021-.40781-.23125-.15625-.05208-.32448-.07813-.50469-.07813-.18333,0-.35156.02656-.50469.07969s-.28906.1276-.40781.22344c-.11771.09479-.21667.20729-.29688.3375-.08021.12917-.13698.2724-.17031.42969-.03958.11667-.09375.19427-.1625.23281-.06771.0375-.16354.04792-.2875.03125l-.46406-.07969c.04583-.32708.13646-.61615.27188-.86719.13542-.25208.30521-.46302.50938-.63281.20521-.16979.43958-.29896.70313-.3875s.54844-.13281.85469-.13281Z"/>
                  <path id="Lato-Regular-30-11" data-name="Lato-Regular-30" d="M53.80062,177.05032c0,.62604-.06771,1.16823-.20313,1.62656-.13438.45833-.31823.8375-.55156,1.1375s-.50938.52344-.82813.67031c-.31771.14688-.65833.22031-1.02188.22031-.36667,0-.70781-.07344-1.02344-.22031-.31458-.14688-.58854-.37031-.82188-.67031s-.41667-.67917-.55-1.1375c-.13333-.45833-.2-1.00052-.2-1.62656,0-.62708.06667-1.17031.2-1.62969.13333-.46042.31667-.84115.55-1.14219.23333-.30208.50729-.52656.82188-.67344.31563-.14688.65677-.22031,1.02344-.22031.36354,0,.70417.07344,1.02188.22031.31875.14688.59479.37135.82813.67344.23333.30104.41719.68177.55156,1.14219.13542.45938.20313,1.0026.20313,1.62969ZM52.87562,177.05032c0-.54688-.04583-1.00625-.1375-1.37813s-.2151-.67083-.37031-.89688c-.15521-.22708-.33438-.38958-.5375-.4875-.20313-.09896-.41458-.14844-.63438-.14844s-.43177.04948-.63594.14844c-.20313.09792-.38125.26042-.53438.4875-.15313.22604-.27552.525-.36719.89688s-.1375.83125-.1375,1.37813.04583,1.00521.1375,1.375.21406.66823.36719.89531c.15313.22604.33125.38854.53438.4875.20417.09792.41615.14688.63594.14688s.43125-.04896.63438-.14688c.20313-.09896.38229-.26146.5375-.4875.15521-.22708.27865-.52552.37031-.89531s.1375-.82813.1375-1.375Z"/>
                </g>
              </g>
            </g>
            <g id="ytick_6">
              <g id="line2d_36">
                <g class="cls-12">
                  <path class="cls-2" d="M57.6,144.28799h357.12"/>
                </g>
              </g>
              <g id="text_13">
                <g>
                  <path id="Lato-Regular-30-12" data-name="Lato-Regular-30" d="M39.84063,144.39114c0,.62604-.06771,1.16823-.20313,1.62656-.13438.45833-.31823.8375-.55156,1.1375s-.50938.52344-.82813.67031c-.31771.14688-.65833.22031-1.02188.22031-.36667,0-.70781-.07344-1.02344-.22031-.31458-.14688-.58854-.37031-.82188-.67031s-.41667-.67917-.55-1.1375c-.13333-.45833-.2-1.00052-.2-1.62656,0-.62708.06667-1.17031.2-1.62969.13333-.46042.31667-.84115.55-1.14219.23333-.30208.50729-.52656.82188-.67344.31563-.14688.65677-.22031,1.02344-.22031.36354,0,.70417.07344,1.02188.22031.31875.14688.59479.37135.82813.67344.23333.30104.41719.68177.55156,1.14219.13542.45938.20313,1.0026.20313,1.62969ZM38.91563,144.39114c0-.54688-.04583-1.00625-.1375-1.37813s-.2151-.67083-.37031-.89688c-.15521-.22708-.33438-.38958-.5375-.4875-.20313-.09896-.41458-.14844-.63438-.14844s-.43177.04948-.63594.14844c-.20313.09792-.38125.26042-.53438.4875-.15313.22604-.27552.525-.36719.89688s-.1375.83125-.1375,1.37813.04583,1.00521.1375,1.375.21406.66823.36719.89531c.15313.22604.33125.38854.53438.4875.20417.09792.41615.14688.63594.14688s.43125-.04896.63438-.14688c.20313-.09896.38229-.26146.5375-.4875.15521-.22708.27865-.52552.37031-.89531s.1375-.82813.1375-1.375Z"/>
                  <path id="Lato-Regular-2e-6" data-name="Lato-Regular-2e" d="M40.69531,147.42083c0-.08646.01563-.16771.04688-.24375.03229-.07708.07604-.14375.13125-.2.05521-.05729.12083-.1026.19688-.13594.07708-.03333.15885-.05.24531-.05s.16771.01667.24375.05c.07708.03333.14375.07865.2.13594.05729.05625.1026.12292.13594.2.03333.07604.05.15729.05.24375,0,.08958-.01667.17188-.05.24688s-.07865.14115-.13594.19844c-.05625.05625-.12292.1-.2.13125-.07604.03229-.15729.04844-.24375.04844s-.16823-.01615-.24531-.04844c-.07604-.03125-.14167-.075-.19688-.13125-.05521-.05729-.09896-.12344-.13125-.19844-.03125-.075-.04688-.15729-.04688-.24688Z"/>
                  <path id="Lato-Regular-32-3" data-name="Lato-Regular-32" d="M45.45531,140.72551c.30313,0,.58646.04531.85.13594.26354.08958.49167.22031.68438.39219.19375.17188.34531.38125.45469.62813.11042.24583.16563.52552.16563.83906,0,.26667-.0401.51406-.12031.74219-.07917.22813-.1875.44583-.325.65313-.13646.20625-.29375.40781-.47188.60469s-.36719.39531-.56719.59531l-1.89063,1.92969c.13333-.03646.26823-.06563.40469-.0875.1375-.02188.26927-.03281.39531-.03281h2.4c.09688,0,.17344.02865.22969.08594.05729.05625.08594.12917.08594.21875v.54063h-4.77969v-.30469c0-.06354.01302-.12865.03906-.19531.02708-.06667.06875-.12813.125-.18438l2.29531-2.30625c.19063-.19271.36406-.37813.52031-.55625.15625-.17917.28958-.35833.4-.5375.11042-.18021.19531-.3625.25469-.54688.06042-.18542.09063-.38333.09063-.59375s-.03333-.39479-.1-.55313-.15781-.28906-.27344-.39219c-.11458-.10313-.25052-.18021-.40781-.23125-.15625-.05208-.32448-.07813-.50469-.07813-.18333,0-.35156.02656-.50469.07969s-.28906.1276-.40781.22344c-.11771.09479-.21667.20729-.29688.3375-.08021.12917-.13698.2724-.17031.42969-.03958.11667-.09375.19427-.1625.23281-.06771.0375-.16354.04792-.2875.03125l-.46406-.07969c.04583-.32708.13646-.61615.27188-.86719.13542-.25208.30521-.46302.50938-.63281.20521-.16979.43958-.29896.70313-.3875s.54844-.13281.85469-.13281Z"/>
                  <path id="Lato-Regular-35-4" data-name="Lato-Regular-35" d="M53.21,141.19583c0,.12708-.03906.23125-.11719.3125s-.21198.12188-.40156.12188h-2.25l-.33125,1.88125c.19063-.04375.36979-.07448.5375-.09219.16875-.01875.33333-.02813.49375-.02813.37292,0,.7026.05521.98906.16563.28646.10938.52552.26094.71719.45469.19167.19271.33646.42083.43438.68438.09896.26354.14844.55.14844.85938,0,.38021-.06615.72396-.19844,1.03125-.13125.30625-.3125.56875-.54375.7875-.23125.21771-.50365.3849-.81719.50156-.31354.11667-.65208.175-1.01563.175-.20938,0-.41094-.02083-.60469-.0625-.19375-.04167-.375-.0974-.54375-.16719-.16771-.06979-.32344-.14948-.46719-.23906-.14271-.09063-.26927-.18594-.37969-.28594l.275-.37969c.06042-.08646.13906-.12969.23594-.12969.06667,0,.14167.02604.225.07813.08333.05104.1849.10833.30469.17188.11979.0625.26042.11979.42188.17188.1625.05208.35521.07813.57813.07813.25,0,.475-.0401.675-.12031.2-.08021.37135-.19427.51406-.34219.14375-.14896.25365-.32656.32969-.53281.07708-.20729.11563-.43906.11563-.69531,0-.22292-.03229-.42448-.09688-.60469s-.16302-.33333-.29531-.45938c-.13125-.12708-.29531-.22552-.49219-.29531-.19688-.07083-.42708-.10625-.69063-.10625-.17917,0-.36667.0151-.5625.04531-.19479.03021-.39375.07865-.59688.14531l-.55938-.16563.575-3.35h3.39375v.39063Z"/>
                </g>
              </g>
            </g>
            <g id="ytick_7">
              <g id="line2d_37">
                <g class="cls-7">
                  <path class="cls-2" d="M57.6,111.6288h357.12"/>
                </g>
              </g>
              <g id="text_14">
                <g>
                  <path id="Lato-Regular-30-13" data-name="Lato-Regular-30" d="M39.84063,111.73196c0,.62604-.06771,1.16823-.20313,1.62656-.13438.45833-.31823.8375-.55156,1.1375s-.50938.52344-.82813.67031c-.31771.14688-.65833.22031-1.02188.22031-.36667,0-.70781-.07344-1.02344-.22031-.31458-.14688-.58854-.37031-.82188-.67031s-.41667-.67917-.55-1.1375c-.13333-.45833-.2-1.00052-.2-1.62656,0-.62708.06667-1.17031.2-1.62969.13333-.46042.31667-.84115.55-1.14219.23333-.30208.50729-.52656.82188-.67344.31563-.14688.65677-.22031,1.02344-.22031.36354,0,.70417.07344,1.02188.22031.31875.14688.59479.37135.82813.67344.23333.30104.41719.68177.55156,1.14219.13542.45938.20313,1.0026.20313,1.62969ZM38.91563,111.73196c0-.54688-.04583-1.00625-.1375-1.37813s-.2151-.67083-.37031-.89688c-.15521-.22708-.33438-.38958-.5375-.4875-.20313-.09896-.41458-.14844-.63438-.14844s-.43177.04948-.63594.14844c-.20313.09792-.38125.26042-.53438.4875-.15313.22604-.27552.525-.36719.89688s-.1375.83125-.1375,1.37813.04583,1.00521.1375,1.375.21406.66823.36719.89531c.15313.22604.33125.38854.53438.4875.20417.09792.41615.14688.63594.14688s.43125-.04896.63438-.14688c.20313-.09896.38229-.26146.5375-.4875.15521-.22708.27865-.52552.37031-.89531s.1375-.82813.1375-1.375Z"/>
                  <path id="Lato-Regular-2e-7" data-name="Lato-Regular-2e" d="M40.69531,114.76165c0-.08646.01563-.16771.04688-.24375.03229-.07708.07604-.14375.13125-.2.05521-.05729.12083-.1026.19688-.13594.07708-.03333.15885-.05.24531-.05s.16771.01667.24375.05c.07708.03333.14375.07865.2.13594.05729.05625.1026.12292.13594.2.03333.07604.05.15729.05.24375,0,.08958-.01667.17188-.05.24688s-.07865.14115-.13594.19844c-.05625.05625-.12292.1-.2.13125-.07604.03229-.15729.04844-.24375.04844s-.16823-.01615-.24531-.04844c-.07604-.03125-.14167-.075-.19688-.13125-.05521-.05729-.09896-.12344-.13125-.19844-.03125-.075-.04688-.15729-.04688-.24688Z"/>
                  <path id="Lato-Regular-33-2" data-name="Lato-Regular-33" d="M45.49125,108.06633c.30313,0,.58281.04375.83906.13125.25729.08646.47813.2099.6625.37031.18542.15938.32969.3526.43281.57969.10313.22604.15469.4776.15469.75469,0,.22604-.02917.42865-.0875.60781-.05833.17813-.14167.3349-.25.47031-.10833.13438-.23906.24844-.39219.34219-.15313.09271-.325.16719-.51563.22344.46667.12396.81771.33125,1.05313.62188.23542.28958.35313.6526.35313,1.08906,0,.33021-.0625.62708-.1875.89063-.125.2625-.29583.48646-.5125.67188-.21667.18438-.46927.32604-.75781.425-.28854.09792-.59792.14688-.92813.14688-.38021,0-.70521-.0474-.975-.14219-.26979-.09479-.49792-.22552-.68438-.39219-.18646-.16667-.3401-.36406-.46094-.59219-.11979-.22917-.22135-.47708-.30469-.74375l.38594-.15938c.1-.04375.1974-.05521.29219-.03438.09479.01979.16406.07448.20781.16406.04271.09375.09635.20573.16094.33594.06563.12917.15521.25417.26875.375.11354.11979.25781.22135.43281.30469.175.08333.3974.125.66719.125.25,0,.46875-.04063.65625-.12188.18854-.08229.34531-.18854.47031-.31875s.21927-.275.28281-.43438c.06354-.16042.09531-.31875.09531-.475,0-.19375-.025-.37031-.075-.52969-.05-.16042-.14323-.29896-.27969-.41563s-.32396-.20833-.5625-.275c-.23854-.06667-.54427-.1-.91719-.1v-.64531c.30625-.00313.56667-.03646.78125-.1.21563-.06354.39063-.15.525-.25938.13542-.11042.23385-.24219.29531-.39531s.09219-.32292.09219-.50938c0-.20729-.03229-.3875-.09688-.54063s-.15365-.27969-.26719-.37969-.24792-.175-.40313-.225-.3224-.075-.50156-.075c-.18021,0-.34792.02656-.50313.07969s-.29219.1276-.41094.22344c-.11771.09479-.21667.20729-.29688.3375-.08021.12917-.13698.2724-.17031.42969-.04271.11667-.09688.19427-.1625.23281-.06458.0375-.15833.04792-.28125.03125l-.46563-.07969c.04688-.32708.13698-.61615.27031-.86719.13333-.25208.30208-.46302.50625-.63281.20521-.16979.4401-.29896.70469-.3875.26563-.08854.55208-.13281.85938-.13281Z"/>
                  <path id="Lato-Regular-30-14" data-name="Lato-Regular-30" d="M53.80062,111.73196c0,.62604-.06771,1.16823-.20313,1.62656-.13438.45833-.31823.8375-.55156,1.1375s-.50938.52344-.82813.67031c-.31771.14688-.65833.22031-1.02188.22031-.36667,0-.70781-.07344-1.02344-.22031-.31458-.14688-.58854-.37031-.82188-.67031s-.41667-.67917-.55-1.1375c-.13333-.45833-.2-1.00052-.2-1.62656,0-.62708.06667-1.17031.2-1.62969.13333-.46042.31667-.84115.55-1.14219.23333-.30208.50729-.52656.82188-.67344.31563-.14688.65677-.22031,1.02344-.22031.36354,0,.70417.07344,1.02188.22031.31875.14688.59479.37135.82813.67344.23333.30104.41719.68177.55156,1.14219.13542.45938.20313,1.0026.20313,1.62969ZM52.87562,111.73196c0-.54688-.04583-1.00625-.1375-1.37813s-.2151-.67083-.37031-.89688c-.15521-.22708-.33438-.38958-.5375-.4875-.20313-.09896-.41458-.14844-.63438-.14844s-.43177.04948-.63594.14844c-.20313.09792-.38125.26042-.53438.4875-.15313.22604-.27552.525-.36719.89688s-.1375.83125-.1375,1.37813.04583,1.00521.1375,1.375.21406.66823.36719.89531c.15313.22604.33125.38854.53438.4875.20417.09792.41615.14688.63594.14688s.43125-.04896.63438-.14688c.20313-.09896.38229-.26146.5375-.4875.15521-.22708.27865-.52552.37031-.89531s.1375-.82813.1375-1.375Z"/>
                </g>
              </g>
            </g>
            <g id="ytick_8">
              <g id="line2d_38">
                <g class="cls-8">
                  <path class="cls-2" d="M57.6,78.9696h357.12"/>
                </g>
              </g>
              <g id="text_15">
                <g>
                  <path id="Lato-Regular-30-15" data-name="Lato-Regular-30" d="M39.84063,79.07272c0,.62604-.06771,1.16823-.20313,1.62656-.13438.45833-.31823.8375-.55156,1.1375s-.50938.52344-.82813.67031c-.31771.14688-.65833.22031-1.02188.22031-.36667,0-.70781-.07344-1.02344-.22031-.31458-.14688-.58854-.37031-.82188-.67031s-.41667-.67917-.55-1.1375c-.13333-.45833-.2-1.00052-.2-1.62656,0-.62708.06667-1.17031.2-1.62969.13333-.46042.31667-.84115.55-1.14219.23333-.30208.50729-.52656.82188-.67344.31563-.14688.65677-.22031,1.02344-.22031.36354,0,.70417.07344,1.02188.22031.31875.14688.59479.37135.82813.67344.23333.30104.41719.68177.55156,1.14219.13542.45938.20313,1.0026.20313,1.62969ZM38.91563,79.07272c0-.54688-.04583-1.00625-.1375-1.37813s-.2151-.67083-.37031-.89688c-.15521-.22708-.33438-.38958-.5375-.4875-.20313-.09896-.41458-.14844-.63438-.14844s-.43177.04948-.63594.14844c-.20313.09792-.38125.26042-.53438.4875-.15313.22604-.27552.525-.36719.89688s-.1375.83125-.1375,1.37813.04583,1.00521.1375,1.375.21406.66823.36719.89531c.15313.22604.33125.38854.53438.4875.20417.09792.41615.14688.63594.14688s.43125-.04896.63438-.14688c.20313-.09896.38229-.26146.5375-.4875.15521-.22708.27865-.52552.37031-.89531s.1375-.82813.1375-1.375Z"/>
                  <path id="Lato-Regular-2e-8" data-name="Lato-Regular-2e" d="M40.69531,82.1024c0-.08646.01563-.16771.04688-.24375.03229-.07708.07604-.14375.13125-.2.05521-.05729.12083-.1026.19688-.13594.07708-.03333.15885-.05.24531-.05s.16771.01667.24375.05c.07708.03333.14375.07865.2.13594.05729.05625.1026.12292.13594.2.03333.07604.05.15729.05.24375,0,.08958-.01667.17188-.05.24688s-.07865.14115-.13594.19844c-.05625.05625-.12292.1-.2.13125-.07604.03229-.15729.04844-.24375.04844s-.16823-.01615-.24531-.04844c-.07604-.03125-.14167-.075-.19688-.13125-.05521-.05729-.09896-.12344-.13125-.19844-.03125-.075-.04688-.15729-.04688-.24688Z"/>
                  <path id="Lato-Regular-33-3" data-name="Lato-Regular-33" d="M45.49125,75.40709c.30313,0,.58281.04375.83906.13125.25729.08646.47813.2099.6625.37031.18542.15938.32969.3526.43281.57969.10313.22604.15469.4776.15469.75469,0,.22604-.02917.42865-.0875.60781-.05833.17813-.14167.3349-.25.47031-.10833.13438-.23906.24844-.39219.34219-.15313.09271-.325.16719-.51563.22344.46667.12396.81771.33125,1.05313.62188.23542.28958.35313.6526.35313,1.08906,0,.33021-.0625.62708-.1875.89063-.125.2625-.29583.48646-.5125.67188-.21667.18438-.46927.32604-.75781.425-.28854.09792-.59792.14688-.92813.14688-.38021,0-.70521-.0474-.975-.14219-.26979-.09479-.49792-.22552-.68438-.39219-.18646-.16667-.3401-.36406-.46094-.59219-.11979-.22917-.22135-.47708-.30469-.74375l.38594-.15938c.1-.04375.1974-.05521.29219-.03438.09479.01979.16406.07448.20781.16406.04271.09375.09635.20573.16094.33594.06563.12917.15521.25417.26875.375.11354.11979.25781.22135.43281.30469.175.08333.3974.125.66719.125.25,0,.46875-.04063.65625-.12188.18854-.08229.34531-.18854.47031-.31875s.21927-.275.28281-.43438c.06354-.16042.09531-.31875.09531-.475,0-.19375-.025-.37031-.075-.52969-.05-.16042-.14323-.29896-.27969-.41563s-.32396-.20833-.5625-.275c-.23854-.06667-.54427-.1-.91719-.1v-.64531c.30625-.00313.56667-.03646.78125-.1.21563-.06354.39063-.15.525-.25938.13542-.11042.23385-.24219.29531-.39531s.09219-.32292.09219-.50938c0-.20729-.03229-.3875-.09688-.54063s-.15365-.27969-.26719-.37969-.24792-.175-.40313-.225-.3224-.075-.50156-.075c-.18021,0-.34792.02656-.50313.07969s-.29219.1276-.41094.22344c-.11771.09479-.21667.20729-.29688.3375-.08021.12917-.13698.2724-.17031.42969-.04271.11667-.09688.19427-.1625.23281-.06458.0375-.15833.04792-.28125.03125l-.46563-.07969c.04688-.32708.13698-.61615.27031-.86719.13333-.25208.30208-.46302.50625-.63281.20521-.16979.4401-.29896.70469-.3875.26563-.08854.55208-.13281.85938-.13281Z"/>
                  <path id="Lato-Regular-35-5" data-name="Lato-Regular-35" d="M53.21,75.8774c0,.12708-.03906.23125-.11719.3125s-.21198.12188-.40156.12188h-2.25l-.33125,1.88125c.19063-.04375.36979-.07448.5375-.09219.16875-.01875.33333-.02813.49375-.02813.37292,0,.7026.05521.98906.16563.28646.10938.52552.26094.71719.45469.19167.19271.33646.42083.43438.68438.09896.26354.14844.55.14844.85938,0,.38021-.06615.72396-.19844,1.03125-.13125.30625-.3125.56875-.54375.7875-.23125.21771-.50365.3849-.81719.50156-.31354.11667-.65208.175-1.01563.175-.20938,0-.41094-.02083-.60469-.0625-.19375-.04167-.375-.0974-.54375-.16719-.16771-.06979-.32344-.14948-.46719-.23906-.14271-.09063-.26927-.18594-.37969-.28594l.275-.37969c.06042-.08646.13906-.12969.23594-.12969.06667,0,.14167.02604.225.07813.08333.05104.1849.10833.30469.17188.11979.0625.26042.11979.42188.17188.1625.05208.35521.07813.57813.07813.25,0,.475-.0401.675-.12031.2-.08021.37135-.19427.51406-.34219.14375-.14896.25365-.32656.32969-.53281.07708-.20729.11563-.43906.11563-.69531,0-.22292-.03229-.42448-.09688-.60469s-.16302-.33333-.29531-.45938c-.13125-.12708-.29531-.22552-.49219-.29531-.19688-.07083-.42708-.10625-.69063-.10625-.17917,0-.36667.0151-.5625.04531-.19479.03021-.39375.07865-.59688.14531l-.55938-.16563.575-3.35h3.39375v.39063Z"/>
                </g>
              </g>
            </g>
            <g id="ytick_9">
              <g id="line2d_39">
                <g class="cls-13">
                  <path class="cls-2" d="M57.6,46.3104h357.12"/>
                </g>
              </g>
              <g id="text_16">
                <g>
                  <path id="Lato-Regular-30-16" data-name="Lato-Regular-30" d="M39.84063,46.41354c0,.62604-.06771,1.16823-.20313,1.62656-.13438.45833-.31823.8375-.55156,1.1375s-.50938.52344-.82813.67031c-.31771.14688-.65833.22031-1.02188.22031-.36667,0-.70781-.07344-1.02344-.22031-.31458-.14688-.58854-.37031-.82188-.67031s-.41667-.67917-.55-1.1375c-.13333-.45833-.2-1.00052-.2-1.62656,0-.62708.06667-1.17031.2-1.62969.13333-.46042.31667-.84115.55-1.14219.23333-.30208.50729-.52656.82188-.67344.31563-.14688.65677-.22031,1.02344-.22031.36354,0,.70417.07344,1.02188.22031.31875.14688.59479.37135.82813.67344.23333.30104.41719.68177.55156,1.14219.13542.45938.20313,1.0026.20313,1.62969ZM38.91563,46.41354c0-.54688-.04583-1.00625-.1375-1.37813s-.2151-.67083-.37031-.89688c-.15521-.22708-.33438-.38958-.5375-.4875-.20313-.09896-.41458-.14844-.63438-.14844s-.43177.04948-.63594.14844c-.20313.09792-.38125.26042-.53438.4875-.15313.22604-.27552.525-.36719.89688s-.1375.83125-.1375,1.37813.04583,1.00521.1375,1.375.21406.66823.36719.89531c.15313.22604.33125.38854.53438.4875.20417.09792.41615.14688.63594.14688s.43125-.04896.63438-.14688c.20313-.09896.38229-.26146.5375-.4875.15521-.22708.27865-.52552.37031-.89531s.1375-.82813.1375-1.375Z"/>
                  <path id="Lato-Regular-2e-9" data-name="Lato-Regular-2e" d="M40.69531,49.44323c0-.08646.01563-.16771.04688-.24375.03229-.07708.07604-.14375.13125-.2.05521-.05729.12083-.1026.19688-.13594.07708-.03333.15885-.05.24531-.05s.16771.01667.24375.05c.07708.03333.14375.07865.2.13594.05729.05625.1026.12292.13594.2.03333.07604.05.15729.05.24375,0,.08958-.01667.17188-.05.24688s-.07865.14115-.13594.19844c-.05625.05625-.12292.1-.2.13125-.07604.03229-.15729.04844-.24375.04844s-.16823-.01615-.24531-.04844c-.07604-.03125-.14167-.075-.19688-.13125-.05521-.05729-.09896-.12344-.13125-.19844-.03125-.075-.04688-.15729-.04688-.24688Z"/>
                  <path id="Lato-Regular-34-2" data-name="Lato-Regular-34" d="M46.93031,47.40885h1.08594v.50938c0,.05313-.01615.09844-.04844.13594-.03125.03646-.08021.05469-.14688.05469h-.89063v1.88438h-.77969v-1.88438h-3.17969c-.06667,0-.12448-.01927-.17344-.05781-.04792-.03854-.07865-.08594-.09219-.14219l-.08906-.45625,3.48438-4.625h.82969v4.58125ZM46.15063,44.4526c0-.08646.0026-.18021.00781-.28125.00521-.10208.01615-.20625.03281-.3125l-2.61094,3.55h2.57031v-2.95625Z"/>
                  <path id="Lato-Regular-30-17" data-name="Lato-Regular-30" d="M53.80062,46.41354c0,.62604-.06771,1.16823-.20313,1.62656-.13438.45833-.31823.8375-.55156,1.1375s-.50938.52344-.82813.67031c-.31771.14688-.65833.22031-1.02188.22031-.36667,0-.70781-.07344-1.02344-.22031-.31458-.14688-.58854-.37031-.82188-.67031s-.41667-.67917-.55-1.1375c-.13333-.45833-.2-1.00052-.2-1.62656,0-.62708.06667-1.17031.2-1.62969.13333-.46042.31667-.84115.55-1.14219.23333-.30208.50729-.52656.82188-.67344.31563-.14688.65677-.22031,1.02344-.22031.36354,0,.70417.07344,1.02188.22031.31875.14688.59479.37135.82813.67344.23333.30104.41719.68177.55156,1.14219.13542.45938.20313,1.0026.20313,1.62969ZM52.87562,46.41354c0-.54688-.04583-1.00625-.1375-1.37813s-.2151-.67083-.37031-.89688c-.15521-.22708-.33438-.38958-.5375-.4875-.20313-.09896-.41458-.14844-.63438-.14844s-.43177.04948-.63594.14844c-.20313.09792-.38125.26042-.53438.4875-.15313.22604-.27552.525-.36719.89688s-.1375.83125-.1375,1.37813.04583,1.00521.1375,1.375.21406.66823.36719.89531c.15313.22604.33125.38854.53438.4875.20417.09792.41615.14688.63594.14688s.43125-.04896.63438-.14688c.20313-.09896.38229-.26146.5375-.4875.15521-.22708.27865-.52552.37031-.89531s.1375-.82813.1375-1.375Z"/>
                </g>
              </g>
            </g>
          </g>
          <rect class="cls-5" x="57.6" y="41.47198" width="357.12" height="266.112"/>
          <rect class="cls-5" x="57.6" y="41.47198" width="357.12" height="266.112"/>
          <rect class="cls-5" x="57.6" y="41.47198" width="357.12" height="266.112"/>
          <rect class="cls-5" x="57.6" y="41.47198" width="357.12" height="266.112"/>
          <rect class="cls-5" x="57.6" y="41.47198" width="357.12" height="266.112"/>
          <rect class="cls-5" x="57.6" y="41.47198" width="357.12" height="266.112"/>
          <rect class="cls-5" x="57.6" y="41.47198" width="357.12" height="266.112"/>
          <rect class="cls-5" x="57.6" y="41.47198" width="357.12" height="266.112"/>
          <rect class="cls-5" x="57.6" y="41.47198" width="357.12" height="266.112"/>
          <rect class="cls-5" x="57.6" y="41.47198" width="357.12" height="266.112"/>
          <rect class="cls-5" x="57.6" y="41.47198" width="357.12" height="266.112"/>
          <rect class="cls-5" x="57.6" y="41.47198" width="357.12" height="266.112"/>
          <rect class="cls-5" x="57.6" y="41.47198" width="357.12" height="266.112"/>
          <g id="patch_16">
            <g class="cls-10">
              <polygon class="cls-17" points="363.70288 283.392 363.70288 259.19998 342.44574 259.19998 342.44574 210.81601 321.1886 210.81601 321.1886 196.30081 299.93146 196.30081 299.93146 210.81601 278.67432 210.81601 278.67432 176.94717 257.41718 176.94717 257.41718 186.62399 236.16003 186.62399 236.16003 138.24002 214.90289 138.24002 214.90289 75.34079 193.64575 75.34079 193.64575 65.66397 172.38855 65.66397 172.38855 89.85599 151.13141 89.85599 151.13141 138.24002 129.87427 138.24002 129.87427 186.62399 108.61713 186.62399 108.61713 259.19998 87.35999 259.19998 87.35999 307.58401 108.61713 307.58401 129.87427 307.58401 151.13141 307.58401 172.38855 307.58401 193.64575 307.58401 214.90289 307.58401 236.16003 307.58401 257.41718 307.58401 278.67432 307.58401 299.93146 307.58401 321.1886 307.58401 342.44574 307.58401 363.70288 307.58401 384.96002 307.58401 384.96002 283.392 363.70288 283.392"/>
            </g>
          </g>
          <g id="patch_17">
            <path class="cls-1" d="M57.6,307.58403h357.12"/>
          </g>
        </g>
      </g>
    </g>
    <g id="Annotations">
      <line class="cls-3" x1="384.95999" y1="307.58403" x2="384.96002" y2="283.392"/>
      <line class="cls-3" x1="363.70288" y1="307.58401" x2="363.70288" y2="283.392"/>
      <g>
        <line class="cls-4" x1="363.70288" y1="283.392" x2="374.983" y2="236.30347"/>
        <polygon class="cls-15" points="376.62781 229.43719 378.26361 240.05975 374.86005 236.81678 370.35742 238.16581 376.62781 229.43719"/>
      </g>
      <g>
        <line class="cls-4" x1="384.96002" y1="283.392" x2="396.83441" y2="237.35937"/>
        <polygon class="cls-15" points="398.59799 230.52261 400.04944 241.17193 396.70258 237.87046 392.17728 239.14126 398.59799 230.52261"/>
      </g>
      <g>
        <path d="M365.62305,219.53125c.25586-.2959.54492-.53223.86719-.70801s.69336-.26367,1.11328-.26367c.35547,0,.67676.06836.96289.2041s.52832.33301.72852.59082.35352.57129.45898.93848c.10645.36816.15918.78223.15918,1.24219,0,.49219-.05957.94043-.17969,1.34473-.12012.40332-.29297.74902-.51953,1.03418-.22559.28613-.50098.50879-.8252.66602-.32324.1582-.6875.2373-1.0918.2373-.39941,0-.73633-.0752-1.01074-.22461-.27441-.15039-.5127-.36328-.7168-.63965l-.05469.55273c-.03125.15137-.12402.22754-.27539.22754h-.69043v-8.83789h1.07422v3.63574ZM365.62305,223.26953c.19629.26367.41113.4502.64551.55762.2334.1084.49023.16211.77051.16211.57227,0,1.00977-.20215,1.31445-.60547.30371-.4043.45605-1.00586.45605-1.80664,0-.74414-.13574-1.29102-.40527-1.64062-.27051-.34961-.65527-.52539-1.15527-.52539-.34766,0-.65137.08008-.90918.24023s-.49707.38574-.7168.67773v2.94043Z"/>
        <path d="M372.625,216.74707c0,.10449-.02148.20117-.06348.29102s-.09766.16992-.16797.24023c-.06934.07031-.15137.125-.24609.16504-.09375.04004-.19238.05957-.29688.05957-.10352,0-.20117-.01953-.29102-.05957s-.16895-.09473-.23633-.16504c-.06836-.07031-.12207-.15039-.16211-.24023s-.06055-.18652-.06055-.29102c0-.10352.02051-.20312.06055-.29688s.09375-.17578.16211-.24609c.06738-.06934.14648-.125.23633-.16504s.1875-.05957.29102-.05957c.10449,0,.20312.01953.29688.05957.09473.04004.17676.0957.24609.16504.07031.07031.12598.15234.16797.24609s.06348.19336.06348.29688ZM372.39648,218.65527v6.07812h-1.06738v-6.07812h1.06738Z"/>
        <path d="M375.15625,219.53711c.13281-.14746.27246-.28125.4209-.40137.14746-.12012.30469-.22363.4707-.30957s.3418-.15137.52832-.19824c.18555-.0459.38672-.06836.60254-.06836.33203,0,.625.05469.87891.16504.25391.10938.46582.26562.63574.46777s.2998.44531.3877.72949c.08789.2832.13184.59766.13184.94141v3.87012h-1.07422v-3.87012c0-.45996-.10449-.81641-.31445-1.07129-.21094-.25391-.5293-.38086-.95703-.38086-.31641,0-.61133.07617-.88574.22852-.27344.15137-.52637.35742-.75879.61816v4.47559h-1.07422v-6.07812h.64258c.15137,0,.24609.07422.28125.22168l.08398.66016Z"/>
        <path d="M388.84961,223.88184c-.13184.15918-.29004.29883-.47461.41699-.18359.11719-.38086.21484-.59082.29102-.20996.0752-.42676.13281-.65137.1709-.22363.03809-.44531.05664-.66504.05664-.4209,0-.80762-.07129-1.16113-.21289-.35449-.1416-.66016-.34961-.91797-.62402-.25879-.27441-.45898-.61328-.60352-1.0166-.14355-.4043-.21582-.86816-.21582-1.39258,0-.42383.06445-.82031.19531-1.1875.12988-.36816.31641-.6875.56055-.95703.24414-.27051.54199-.48242.89453-.63672.35156-.15332.74707-.23047,1.1875-.23047.36426,0,.70117.06055,1.01074.18262.31055.12207.57812.29785.80469.52832.22559.22949.40234.51367.53027.85156.12793.33887.19238.72363.19238,1.15527,0,.16797-.01758.28027-.05371.33594-.03613.05664-.10449.08398-.2041.08398h-4.0625c.0127.38379.06543.71777.15918,1.00195s.22559.52148.39355.71094c.16797.19043.36719.33203.59961.42578.23145.09473.49219.1416.78027.1416.26758,0,.49902-.03125.69238-.09277.19434-.0625.36133-.12891.50098-.20117.14062-.07227.25684-.13867.35156-.20117.09375-.06152.1748-.09277.24316-.09277.08789,0,.15527.03418.20312.10156l.30078.39062ZM387.98535,221.03125c0-.24805-.03516-.47461-.10547-.68066-.06934-.20605-.17188-.38379-.30566-.53418s-.29688-.26562-.48926-.34766c-.19141-.08203-.41016-.12305-.65332-.12305-.5127,0-.91699.14844-1.21582.44629-.29785.29883-.48242.71094-.55469,1.23926h3.32422Z"/>
        <path d="M395.28125,215.89551v8.83789h-.63574c-.15234,0-.24805-.07422-.28809-.22168l-.09668-.73828c-.25977.31152-.55566.56348-.8877.75586s-.71582.28809-1.15137.28809c-.34863,0-.66406-.06738-.94824-.20117s-.52637-.33105-.72656-.59082-.35352-.58398-.46191-.97168c-.10742-.38867-.16211-.83398-.16211-1.33789,0-.44824.06055-.86523.18066-1.25098.12012-.38672.29199-.72168.51562-1.00586.22363-.2832.49902-.50684.8252-.66895s.69336-.24219,1.10059-.24219c.37207,0,.69141.0625.95703.18848.2666.12598.50293.30078.71094.52539v-3.36621h1.06836ZM394.21289,220.10156c-.2002-.26855-.41602-.45508-.64746-.56152-.23242-.10547-.49219-.1582-.78027-.1582-.56348,0-.99805.20117-1.30176.60547-.30469.4043-.45605.98047-.45605,1.72852,0,.39551.03418.73438.10156,1.0166.06836.28223.16797.51367.30078.69629.13184.18164.29395.31445.48535.39844.19238.08398.41016.12598.6543.12598.35156,0,.65918-.08008.9209-.23926.26172-.16016.50293-.38672.72266-.67871v-2.93359Z"/>
        <path d="M402.10254,218.89551v.39551c0,.13281-.08398.2168-.25195.25195l-.68945.09082c.13574.26367.2041.55566.2041.87598,0,.2959-.05762.56445-.1709.80664-.11426.24219-.27148.44922-.47168.62109s-.43945.30371-.71973.39551c-.28027.09277-.58398.13867-.91211.13867-.28418,0-.55176-.03418-.80371-.10254-.12793.08008-.22656.16504-.29395.25488-.06836.09082-.10254.18164-.10254.27344,0,.14355.05957.25293.17773.32715.11719.07422.27246.12695.46484.15918.19141.03125.41113.05176.65723.05957.24512.00781.49707.02148.75586.03906.25781.01758.50977.04883.75586.09277s.46484.11621.65723.21582c.19141.10059.34668.23828.46484.41406.11719.17676.17676.4043.17676.68457,0,.25977-.06543.51172-.19531.75586s-.31641.46094-.56055.65137c-.24414.18945-.54297.3418-.89746.45508-.35352.11426-.75293.17188-1.19629.17188-.44434,0-.83203-.04492-1.16406-.13281s-.6084-.20605-.82812-.35352c-.2207-.14844-.38574-.31934-.49512-.5127-.11035-.19434-.16504-.39746-.16504-.60938,0-.2998.09375-.55371.28223-.76172.1875-.20801.44531-.37402.77344-.49805-.17969-.08008-.32324-.1875-.42871-.32129-.10645-.13379-.15918-.31543-.15918-.54297,0-.08789.01562-.17871.04785-.27344.03223-.09375.08105-.1875.14746-.28125.06543-.09473.14648-.18359.24316-.26758.0957-.08398.20801-.15723.33594-.22168-.2998-.16797-.53418-.39062-.70215-.66895s-.25195-.60059-.25195-.96875c0-.2959.05664-.56543.1709-.80762s.27246-.44727.47656-.61816c.2041-.16992.44727-.30078.72949-.39258s.59082-.1377.92676-.1377c.26367,0,.50977.02832.73828.08691.22754.05762.43555.14258.62402.25488h1.64941ZM401.0166,225.06348c0-.14844-.04199-.26855-.12598-.36035s-.19629-.16406-.33887-.21582c-.1416-.05176-.30664-.08887-.49512-.11133-.1875-.02148-.38672-.03906-.59668-.05078s-.42285-.02344-.63867-.03613c-.2168-.01172-.4248-.03125-.62402-.05957-.22461.10352-.40723.23535-.54883.39258-.14258.1582-.21387.34375-.21387.55566,0,.13574.03516.2627.10547.38086s.17676.21973.32129.30566c.14355.08594.32422.1543.54297.2041.21777.0498.47461.0752.77051.0752.28809,0,.5459-.02637.77441-.07812.22754-.05176.4209-.12598.5791-.22168.15723-.09668.27832-.20996.3623-.34277.08398-.13184.12598-.27734.12598-.4375ZM399.09082,221.76367c.21582,0,.40625-.03027.57031-.08984.16406-.06055.30176-.14453.41406-.25195.11133-.1084.19531-.2373.25195-.3877.05566-.14941.08398-.31445.08398-.49512,0-.37207-.11328-.66797-.33887-.8877-.22656-.21973-.55371-.33008-.98145-.33008-.43164,0-.76074.11035-.9873.33008-.22559.21973-.33887.51562-.33887.8877,0,.18066.0293.3457.08691.49512.05859.15039.14355.2793.25586.3877.11133.10742.24902.19141.41309.25195.16406.05957.35449.08984.57031.08984Z"/>
        <path d="M408.04883,223.88184c-.13184.15918-.29004.29883-.47461.41699-.18359.11719-.38086.21484-.59082.29102-.20996.0752-.42676.13281-.65137.1709-.22363.03809-.44531.05664-.66504.05664-.4209,0-.80762-.07129-1.16113-.21289-.35449-.1416-.66016-.34961-.91797-.62402-.25879-.27441-.45898-.61328-.60352-1.0166-.14355-.4043-.21582-.86816-.21582-1.39258,0-.42383.06445-.82031.19531-1.1875.12988-.36816.31641-.6875.56055-.95703.24414-.27051.54199-.48242.89453-.63672.35156-.15332.74707-.23047,1.1875-.23047.36426,0,.70117.06055,1.01074.18262.31055.12207.57812.29785.80469.52832.22559.22949.40234.51367.53027.85156.12793.33887.19238.72363.19238,1.15527,0,.16797-.01758.28027-.05371.33594-.03613.05664-.10449.08398-.2041.08398h-4.0625c.0127.38379.06543.71777.15918,1.00195s.22559.52148.39355.71094c.16797.19043.36719.33203.59961.42578.23145.09473.49219.1416.78027.1416.26758,0,.49902-.03125.69238-.09277.19434-.0625.36133-.12891.50098-.20117.14062-.07227.25684-.13867.35156-.20117.09375-.06152.1748-.09277.24316-.09277.08789,0,.15527.03418.20312.10156l.30078.39062ZM407.18457,221.03125c0-.24805-.03516-.47461-.10547-.68066-.06934-.20605-.17188-.38379-.30566-.53418s-.29688-.26562-.48926-.34766c-.19141-.08203-.41016-.12305-.65332-.12305-.5127,0-.91699.14844-1.21582.44629-.29785.29883-.48242.71094-.55469,1.23926h3.32422Z"/>
        <path d="M412.99219,219.65723c-.04785.08789-.12207.13184-.22168.13184-.06055,0-.12793-.02148-.2041-.06543s-.16895-.09277-.2793-.14746c-.10938-.05371-.24023-.10352-.39258-.14941s-.33203-.06934-.54004-.06934c-.17969,0-.3418.02344-.48633.06934-.14355.0459-.2666.1084-.36914.18848-.10156.08008-.17969.17285-.2334.2793-.05371.10547-.08105.2207-.08105.34473,0,.15625.04492.28613.13477.39062.08984.10352.20898.19336.35742.26953.14746.07617.31543.14258.50391.20117.1875.05762.38086.12012.5791.18555.19727.06641.39062.13965.5791.21973.1875.08008.35547.17969.50391.2998.14746.12012.2666.2666.35645.44043s.13477.38379.13477.62695c0,.28027-.0498.53906-.14941.77734-.10059.23828-.24805.44434-.44434.61816s-.43555.31055-.71973.41113c-.28418.09961-.6123.14941-.98438.14941-.42383,0-.80762-.06836-1.15137-.20703-.34473-.1377-.63672-.31445-.87598-.53027l.25195-.4082c.03125-.05176.06934-.0918.11328-.12012s.10059-.04199.16797-.04199c.07227,0,.14844.02832.22852.08398s.17676.11816.29102.18555c.11426.06836.25293.13086.41699.18652s.36816.08398.6123.08398c.20801,0,.38965-.02734.5459-.08105.15527-.05371.28613-.12695.38965-.21875.10449-.09277.18066-.19824.23145-.31836.0498-.12012.07422-.24805.07422-.38379,0-.16797-.04492-.30664-.13477-.41699s-.20898-.2041-.35645-.28223c-.14844-.07812-.31738-.14551-.50781-.2041-.18945-.05762-.38379-.11914-.58203-.18262-.19727-.06445-.3916-.13672-.58105-.21875-.19043-.08203-.35938-.18555-.50781-.30957-.14746-.12402-.2666-.27637-.35645-.45898-.08984-.18164-.13477-.40332-.13477-.66309,0-.23145.04785-.45508.14355-.66895s.23633-.40234.41992-.56348c.18359-.16211.41016-.29102.67773-.3877.26855-.0957.57422-.14355.91797-.14355.40039,0,.75977.0625,1.07715.18848.31836.12598.59277.2998.8252.51953l-.24023.38965Z"/>
      </g>
      <line class="cls-3" x1="321.1886" y1="210.81601" x2="342.44574" y2="210.81601"/>
      <g>
        <line class="cls-4" x1="331.81717" y1="210.81601" x2="338.19421" y2="183.30136"/>
        <polygon class="cls-15" points="339.78839 176.42313 341.50247 187.03334 338.07504 183.81555 333.58252 185.19774 339.78839 176.42313"/>
      </g>
      <g>
        <path d="M318.88477,166.72168l-2.47754,6.07812h-.95996l-2.47852-6.07812h.87012c.08789,0,.16016.02197.21582.06592.05664.04443.09473.09619.11426.15625l1.54199,3.91211c.04785.14795.08984.29199.12598.43164.03613.14014.07031.28027.10254.42041.03125-.14014.06543-.28027.10156-.42041.03613-.13965.08008-.28369.13184-.43164l1.56055-3.91211c.02344-.06396.06348-.11719.12012-.15918.05566-.04199.12109-.06299.19727-.06299h.83398Z"/>
        <path d="M319.58203,167.57959c.33594-.32373.69727-.56592,1.08594-.72559.3877-.16016.81738-.24023,1.29004-.24023.33984,0,.6416.05615.90527.16797.26465.1123.48633.26807.66602.46826.18066.19971.31641.44189.4082.72559.0918.28418.1377.59619.1377.93604v3.88818h-.47363c-.10449,0-.18359-.01709-.24023-.05078-.05566-.03418-.09961-.10107-.13184-.20117l-.12012-.57617c-.16016.14795-.31543.2793-.46777.39307-.15234.11426-.31152.20996-.48047.28809-.16797.07812-.34668.13818-.53613.18018-.19043.04199-.40137.06299-.63379.06299-.23535,0-.45801-.0332-.66602-.09912s-.38867-.16504-.54297-.29688c-.15332-.13232-.27539-.29932-.36523-.50098-.09082-.20215-.13574-.44141-.13574-.71729,0-.23975.06641-.4707.19824-.69287s.3457-.41895.64258-.59082c.2959-.17236.68164-.31299,1.15723-.42334.47656-.10986,1.06055-.17285,1.75195-.18896v-.47412c0-.47168-.10156-.82861-.30566-1.0708s-.50195-.36279-.89355-.36279c-.26465,0-.48535.03271-.66309.09863-.17871.06592-.33203.14014-.46191.22217-.13086.08203-.24219.15576-.33691.22217-.09375.06592-.18652.09863-.27832.09863-.07227,0-.13379-.01855-.18652-.05664-.05176-.03809-.0957-.08496-.13184-.14111l-.19141-.34229ZM323.03125,170.06396c-.49121.01611-.91113.05469-1.25684.1167s-.62793.14307-.8457.24316-.37598.21826-.47363.354c-.09863.13623-.14746.28809-.14746.45605,0,.16016.02637.29785.07812.41406.05176.11572.12305.21094.21289.28467.08984.07422.19629.12842.31836.16211.12109.03418.25293.05127.39258.05127.18848,0,.36035-.01904.51562-.05713.15625-.03809.30371-.09326.44141-.16504.1377-.07227.26953-.1582.39648-.25781.12598-.1001.24805-.21436.36816-.34229v-1.25977Z"/>
        <path d="M326.80566,163.96191v8.83789h-1.06836v-8.83789h1.06836Z"/>
        <path d="M333.53027,166.72168v6.07812h-.63574c-.15234,0-.24805-.07373-.28809-.22217l-.08398-.65381c-.26367.29199-.55957.52686-.8877.70508-.32812.17773-.7041.26709-1.12793.26709-.33203,0-.625-.05518-.87891-.16504-.25488-.11035-.46777-.26514-.63965-.46533-.17188-.19971-.30078-.44189-.38672-.72559-.08594-.28418-.12891-.59814-.12891-.94238v-3.87598h1.06738v3.87598c0,.45996.10547.81592.31543,1.06836.20996.25195.53125.37793.96289.37793.31641,0,.61133-.0752.88477-.2251.27441-.1499.52734-.35693.75977-.62109v-4.47607h1.06738Z"/>
        <path d="M340.15527,171.94775c-.13184.16016-.29004.29932-.47461.41699-.18359.11816-.38086.21533-.59082.29102-.20996.07617-.42676.1333-.65137.1709-.22363.03809-.44531.05713-.66504.05713-.4209,0-.80762-.07129-1.16113-.21289-.35449-.14209-.66016-.3501-.91797-.62402-.25879-.27393-.45898-.61279-.60352-1.01709-.14355-.40381-.21582-.86768-.21582-1.39209,0-.42383.06445-.81982.19531-1.18799.12988-.36768.31641-.68701.56055-.95703s.54199-.48193.89453-.63574c.35156-.1543.74707-.23096,1.1875-.23096.36426,0,.70117.06104,1.01074.18262.31055.12207.57812.29834.80469.52832.22559.22998.40234.51416.53027.85205s.19238.72266.19238,1.15479c0,.16797-.01758.28027-.05371.33594-.03613.05615-.10449.08398-.2041.08398h-4.0625c.0127.38428.06543.71826.15918,1.00195.09375.28418.22559.52148.39355.71094.16797.19043.36719.33252.59961.42627.23145.09424.49219.14111.78027.14111.26758,0,.49902-.03125.69238-.09326.19434-.06201.36133-.12891.50098-.20068.14062-.07227.25684-.13916.35156-.20117.09375-.06201.1748-.09326.24316-.09326.08789,0,.15527.03418.20312.10205l.30078.39014ZM339.29102,169.09766c0-.24805-.03516-.47461-.10547-.68066-.06934-.20605-.17188-.38428-.30566-.53418s-.29688-.26611-.48926-.34814c-.19141-.08203-.41016-.12305-.65332-.12305-.5127,0-.91699.14941-1.21582.44727-.29785.29785-.48242.71094-.55469,1.23877h3.32422Z"/>
        <path d="M345.09863,167.72363c-.04785.08838-.12207.13232-.22168.13232-.06055,0-.12793-.02197-.2041-.06592-.07617-.04443-.16895-.09326-.2793-.14746-.10938-.05371-.24023-.10352-.39258-.1499-.15234-.0459-.33203-.06885-.54004-.06885-.17969,0-.3418.02295-.48633.06885-.14355.04639-.2666.10938-.36914.18896-.10156.08008-.17969.17334-.2334.2793s-.08105.2207-.08105.34473c0,.15625.04492.28613.13477.39014s.20898.19385.35742.27002c.14746.07617.31543.14307.50391.20117.1875.05762.38086.11963.5791.18604.19727.06592.39062.13867.5791.21875.1875.08008.35547.18018.50391.2998.14746.12012.2666.26709.35645.44141.08984.17383.13477.38281.13477.62695,0,.27979-.0498.53906-.14941.77686-.10059.23828-.24805.44385-.44434.61816-.19629.17383-.43555.31104-.71973.41064-.28418.1001-.6123.15039-.98438.15039-.42383,0-.80762-.06934-1.15137-.20703-.34473-.13818-.63672-.31494-.87598-.53125l.25195-.40771c.03125-.05225.06934-.09229.11328-.12012s.10059-.04199.16797-.04199c.07227,0,.14844.02783.22852.08398s.17676.11816.29102.18604.25293.12988.41699.18604.36816.08398.6123.08398c.20801,0,.38965-.02734.5459-.08105.15527-.0542.28613-.12695.38965-.21924.10449-.0918.18066-.19775.23145-.31787.0498-.12012.07422-.24805.07422-.38379,0-.16797-.04492-.30713-.13477-.41699-.08984-.11035-.20898-.2041-.35645-.28223-.14844-.07812-.31738-.146-.50781-.2041-.18945-.05762-.38379-.11865-.58203-.18262-.19727-.06396-.3916-.13721-.58105-.21924-.19043-.08203-.35938-.18506-.50781-.30908-.14746-.12402-.2666-.27686-.35645-.45898s-.13477-.40283-.13477-.66309c0-.23193.04785-.45459.14355-.66895.0957-.21387.23633-.40186.41992-.56396s.41016-.29102.67773-.38672c.26855-.09619.57422-.14404.91797-.14404.40039,0,.75977.06299,1.07715.18896.31836.12598.59277.29883.8252.51904l-.24023.38965Z"/>
      </g>
      <line class="cls-3" x1="299.93146" y1="196.64676" x2="321.1886" y2="196.64676"/>
      <g>
        <line class="cls-4" x1="310.56003" y1="196.64676" x2="313.50845" y2="183.92542"/>
        <polygon class="cls-15" points="315.1026 177.0472 316.81668 187.65741 313.38928 184.43962 308.89673 185.82181 315.1026 177.0472"/>
      </g>
      <g>
        <path d="M23.34961,183.20312c-.28418-.25195-.51416-.53711-.68994-.85742-.17627-.32031-.26416-.69531-.26416-1.12793,0-.33594.06982-.64355.20996-.9209s.34326-.51758.60889-.7207c.26611-.20117.59424-.35742.98438-.4668.38965-.11035.83691-.16602,1.34082-.16602.45996,0,.88623.0625,1.27783.18652.39209.12402.73193.30078,1.02002.53027.28809.23047.51318.50879.67529.83398.16162.32617.24268.69141.24268,1.0957,0,.34375-.05273.63867-.15869.88184-.10596.24414-.25293.46191-.44092.6543h2.51953v1.48145h-8.16553v-.90625c0-.19141.08984-.31738.26953-.37695l.57031-.12109ZM27.06934,183.12598c.2041-.16797.34814-.35059.43213-.5498.08398-.19727.12598-.41211.12598-.64453,0-.22363-.04199-.42578-.12598-.60547s-.21191-.33398-.38379-.45898c-.17188-.12695-.38916-.22266-.65137-.29102-.26172-.06836-.5708-.10254-.92676-.10254-.35986,0-.66504.0293-.91504.08691-.25.05859-.45312.14062-.60889.25-.15625.10742-.27002.23828-.34229.39258-.07178.1543-.10791.32812-.10791.52539,0,.30762.06494.56934.19531.78516.12988.2168.31299.41992.54883.6123h2.75977Z"/>
        <path d="M24.90332,176.80176c.82422,0,1.63428-.09961,2.43018-.2998s1.54395-.48633,2.24414-.85742c.08008-.04102.15088-.06348.21289-.07031.06201-.00586.11621,0,.16211.01562s.08594.04102.12012.0752c.03369.03418.06299.07129.08691.11035l.40186.66016c-.45605.29688-.91406.54883-1.37402.75586-.45996.20898-.92383.37891-1.39209.51074-.46777.13184-.94189.22949-1.42188.29102s-.96973.09277-1.47021.09277c-.5,0-.99072-.03125-1.47266-.09277s-.95703-.15918-1.42529-.29102c-.46777-.13184-.93066-.30176-1.38867-.51074-.45801-.20703-.91504-.45898-1.37109-.75586l.396-.66016c.02393-.03906.05322-.07617.08691-.11035.03418-.03418.07422-.05957.12012-.0752s.1001-.02148.16211-.01562c.06201.00684.13477.0293.21875.07031.6958.37109,1.44287.65723,2.24121.85742.79785.2002,1.60889.2998,2.43262.2998Z"/>
        <path d="M28.66553,169.00195v1.42822c0,.10791-.02783.19482-.08398.26074s-.12012.12109-.19189.16504l-2.14209,1.30225c.06787.02002.13184.04297.19189.06885s.11621.05518.16797.08691l1.78223,1.15186c.06787.04443.13086.09814.18896.16211s.08691.14404.08691.24023v1.3252l-3.17383-2.11133-2.98193,2.02734v-1.42725c0-.10791.01465-.18799.04492-.24023.02979-.05176.0791-.09766.14697-.1377l2.05176-1.29004c-.13574-.04395-.27002-.10596-.40186-.18604l-1.62012-1.03809c-.14795-.08789-.22168-.20215-.22168-.34229v-1.36182l2.91553,2.02197,3.24023-2.10596Z"/>
        <path d="M24.90332,167.40039c-.82373,0-1.63477.09912-2.43262.29688-.79834.19824-1.54541.48291-2.24121.85498-.08398.04395-.15674.06885-.21875.0752-.06201.00586-.11621.00098-.16211-.01514s-.08594-.04102-.12012-.0752c-.03369-.03369-.06299-.07275-.08691-.1167l-.396-.66016c.45605-.2959.91309-.54785,1.37109-.75586s.9209-.37793,1.38867-.51025c.46826-.13184.94336-.22803,1.42529-.2876.48193-.06006.97266-.09033,1.47266-.09033.50049,0,.99023.03027,1.47021.09033.47998.05957.9541.15576,1.42188.2876.46826.13232.93213.30225,1.39209.51025s.91797.45996,1.37402.75586l-.40186.66016c-.02393.04395-.05322.08301-.08691.1167-.03418.03418-.07422.05908-.12012.0752s-.1001.021-.16211.01514c-.06201-.00635-.13281-.03125-.21289-.0752-.7002-.37207-1.44824-.65674-2.24414-.85498-.7959-.19775-1.60596-.29688-2.43018-.29688Z"/>
      </g>
    </g>
  </g>
</svg>