<?xml version="1.0" encoding="UTF-8"?>
<svg xmlns="http://www.w3.org/2000/svg" version="1.1" xmlns:xlink="http://www.w3.org/1999/xlink" viewBox="0 0 460.79996 345.60001">
  <defs>
    <style>
      .cls-1, .cls-2 {
        stroke-linecap: square;
      }

      .cls-1, .cls-2, .cls-3, .cls-4, .cls-5, .cls-6 {
        fill: none;
      }

      .cls-1, .cls-2, .cls-7 {
        stroke-width: .5px;
      }

      .cls-1, .cls-7 {
        stroke: #000;
      }

      .cls-2 {
        stroke: #ccc;
      }

      .cls-2, .cls-8, .cls-9, .cls-7 {
        stroke-linejoin: round;
      }

      .cls-10 {
        clip-path: url(#clippath-6);
      }

      .cls-11 {
        clip-path: url(#clippath-7);
      }

      .cls-12 {
        clip-path: url(#clippath-4);
      }

      .cls-8 {
        fill: #1f77b4;
        stroke: #1f77b4;
      }

      .cls-3 {
        stroke-dasharray: 11.95485 11.95485;
      }

      .cls-3, .cls-9, .cls-5, .cls-6 {
        stroke: #ee2a24;
      }

      .cls-3, .cls-5, .cls-6 {
        stroke-miterlimit: 10;
      }

      .cls-13 {
        clip-path: url(#clippath-9);
      }

      .cls-9 {
        fill: #ee2a24;
      }

      .cls-14 {
        clip-path: url(#clippath-1);
      }

      .cls-15 {
        clip-path: url(#clippath-5);
      }

      .cls-16 {
        clip-path: url(#clippath-8);
      }

      .cls-5 {
        stroke-dasharray: 12;
      }

      .cls-17 {
        clip-path: url(#clippath-3);
      }

      .cls-18 {
        clip-path: url(#clippath-2);
      }

      .cls-19 {
        clip-path: url(#clippath);
      }
    </style>
    <clipPath id="clippath">
      <rect class="cls-4" x="57.6" y="41.47198" width="357.12" height="266.112"/>
    </clipPath>
    <clipPath id="clippath-1">
      <rect class="cls-4" x="57.6" y="41.47198" width="357.12" height="266.112"/>
    </clipPath>
    <clipPath id="clippath-2">
      <rect class="cls-4" x="57.6" y="41.47198" width="357.12" height="266.112"/>
    </clipPath>
    <clipPath id="clippath-3">
      <rect class="cls-4" x="57.6" y="41.47198" width="357.12" height="266.112"/>
    </clipPath>
    <clipPath id="clippath-4">
      <rect class="cls-4" x="57.6" y="41.47198" width="357.12" height="266.112"/>
    </clipPath>
    <clipPath id="clippath-5">
      <rect class="cls-4" x="57.6" y="41.47198" width="357.12" height="266.112"/>
    </clipPath>
    <clipPath id="clippath-6">
      <rect class="cls-4" x="57.6" y="41.47198" width="357.12" height="266.112"/>
    </clipPath>
    <clipPath id="clippath-7">
      <rect class="cls-4" x="57.6" y="41.47198" width="357.12" height="266.112"/>
    </clipPath>
    <clipPath id="clippath-8">
      <rect class="cls-4" x="57.6" y="41.47198" width="357.12" height="266.112"/>
    </clipPath>
    <clipPath id="clippath-9">
      <rect class="cls-4" x="57.6" y="41.47198" width="357.12" height="266.112"/>
    </clipPath>
  </defs>
  <!-- Generator: Adobe Illustrator 28.7.3, SVG Export Plug-In . SVG Version: 1.2.0 Build 164)  -->
  <g>
    <g id="Layer_1">
      <g id="figure_1">
        <g id="patch_1">
          <path class="cls-4" d="M0,345.60002h460.79999V.00002H0v345.60001Z"/>
        </g>
        <g id="axes_1">
          <g id="patch_2">
            <path class="cls-4" d="M57.6,307.58403h357.12V41.47202H57.6v266.11201Z"/>
          </g>
          <g id="matplotlib.axis_1">
            <g id="xtick_1">
              <g id="line2d_1">
                <path id="mf216de4d18" class="cls-7" d="M87.36,307.58403v6"/>
              </g>
              <g id="text_1">
                <path id="Lato-Regular-30" d="M89.96,320.86996c0,.62604-.06771,1.16823-.20313,1.62656-.13438.45833-.31823.8375-.55156,1.1375s-.50938.52344-.82813.67031c-.31771.14688-.65833.22031-1.02188.22031-.36667,0-.70781-.07344-1.02344-.22031-.31458-.14688-.58854-.37031-.82188-.67031s-.41667-.67917-.55-1.1375c-.13333-.45833-.2-1.00052-.2-1.62656,0-.62708.06667-1.17031.2-1.62969.13333-.46042.31667-.84115.55-1.14219.23333-.30208.50729-.52656.82188-.67344.31563-.14688.65677-.22031,1.02344-.22031.36354,0,.70417.07344,1.02188.22031.31875.14688.59479.37135.82813.67344.23333.30104.41719.68177.55156,1.14219.13542.45938.20313,1.0026.20313,1.62969ZM89.035,320.86996c0-.54688-.04583-1.00625-.1375-1.37813s-.2151-.67083-.37031-.89688c-.15521-.22708-.33438-.38958-.5375-.4875-.20313-.09896-.41458-.14844-.63438-.14844s-.43177.04948-.63594.14844c-.20313.09792-.38125.26042-.53438.4875-.15313.22604-.27552.525-.36719.89688s-.1375.83125-.1375,1.37813.04583,1.00521.1375,1.375.21406.66823.36719.89531c.15313.22604.33125.38854.53438.4875.20417.09792.41615.14688.63594.14688s.43125-.04896.63438-.14688c.20313-.09896.38229-.26146.5375-.4875.15521-.22708.27865-.52552.37031-.89531s.1375-.82813.1375-1.375Z"/>
              </g>
            </g>
            <g id="xtick_2">
              <g id="line2d_2">
                <path id="mf216de4d18-2" data-name="mf216de4d18" class="cls-7" d="M129.87428,307.58403v6"/>
              </g>
              <g id="text_2">
                <path id="Lato-Regular-31" d="M128.22429,323.76996h1.53438v-4.88594c0-.13958.00521-.2875.01563-.44375l-1.275,1.09375c-.04375.0375-.0875.06042-.13125.06875-.04271.00833-.08229.00938-.11875.00313-.03646-.00729-.07083-.02083-.10313-.04063-.03125-.02083-.05521-.04271-.07188-.06563l-.27969-.38438,2.13438-1.84531h.725v6.5h1.41094v.67969h-3.84063v-.67969Z"/>
              </g>
            </g>
            <g id="xtick_3">
              <g id="line2d_3">
                <path id="mf216de4d18-3" data-name="mf216de4d18" class="cls-7" d="M172.38857,307.58403v6"/>
              </g>
              <g id="text_3">
                <path id="Lato-Regular-32" d="M172.44326,317.20433c.30313,0,.58646.04531.85.13594.26354.08958.49167.22031.68438.39219.19375.17188.34531.38125.45469.62813.11042.24583.16563.52552.16563.83906,0,.26667-.0401.51406-.12031.74219-.07917.22813-.1875.44583-.325.65313-.13646.20625-.29375.40781-.47188.60469s-.36719.39531-.56719.59531l-1.89063,1.92969c.13333-.03646.26823-.06563.40469-.0875.1375-.02188.26927-.03281.39531-.03281h2.4c.09688,0,.17344.02865.22969.08594.05729.05625.08594.12917.08594.21875v.54063h-4.77969v-.30469c0-.06354.01302-.12865.03906-.19531.02708-.06667.06875-.12813.125-.18438l2.29531-2.30625c.19063-.19271.36406-.37813.52031-.55625.15625-.17917.28958-.35833.4-.5375.11042-.18021.19531-.3625.25469-.54688.06042-.18542.09063-.38333.09063-.59375s-.03333-.39479-.1-.55313-.15781-.28906-.27344-.39219c-.11458-.10313-.25052-.18021-.40781-.23125-.15625-.05208-.32448-.07813-.50469-.07813-.18333,0-.35156.02656-.50469.07969s-.28906.1276-.40781.22344c-.11771.09479-.21667.20729-.29688.3375-.08021.12917-.13698.2724-.17031.42969-.03958.11667-.09375.19427-.1625.23281-.06771.0375-.16354.04792-.2875.03125l-.46406-.07969c.04583-.32708.13646-.61615.27188-.86719.13542-.25208.30521-.46302.50938-.63281.20521-.16979.43958-.29896.70313-.3875s.54844-.13281.85469-.13281Z"/>
              </g>
            </g>
            <g id="xtick_4">
              <g id="line2d_4">
                <path id="mf216de4d18-4" data-name="mf216de4d18" class="cls-7" d="M214.90286,307.58403v6"/>
              </g>
              <g id="text_4">
                <path id="Lato-Regular-33" d="M214.99348,317.20433c.30313,0,.58281.04375.83906.13125.25729.08646.47813.2099.6625.37031.18542.15938.32969.3526.43281.57969.10313.22604.15469.4776.15469.75469,0,.22604-.02917.42865-.0875.60781-.05833.17813-.14167.3349-.25.47031-.10833.13438-.23906.24844-.39219.34219-.15313.09271-.325.16719-.51563.22344.46667.12396.81771.33125,1.05313.62188.23542.28958.35313.6526.35313,1.08906,0,.33021-.0625.62708-.1875.89063-.125.2625-.29583.48646-.5125.67188-.21667.18438-.46927.32604-.75781.425-.28854.09792-.59792.14688-.92813.14688-.38021,0-.70521-.0474-.975-.14219-.26979-.09479-.49792-.22552-.68438-.39219-.18646-.16667-.3401-.36406-.46094-.59219-.11979-.22917-.22135-.47708-.30469-.74375l.38594-.15938c.1-.04375.1974-.05521.29219-.03438.09479.01979.16406.07448.20781.16406.04271.09375.09635.20573.16094.33594.06563.12917.15521.25417.26875.375.11354.11979.25781.22135.43281.30469.175.08333.3974.125.66719.125.25,0,.46875-.04063.65625-.12188.18854-.08229.34531-.18854.47031-.31875s.21927-.275.28281-.43438c.06354-.16042.09531-.31875.09531-.475,0-.19375-.025-.37031-.075-.52969-.05-.16042-.14323-.29896-.27969-.41563s-.32396-.20833-.5625-.275c-.23854-.06667-.54427-.1-.91719-.1v-.64531c.30625-.00313.56667-.03646.78125-.1.21563-.06354.39063-.15.525-.25938.13542-.11042.23385-.24219.29531-.39531s.09219-.32292.09219-.50938c0-.20729-.03229-.3875-.09688-.54063s-.15365-.27969-.26719-.37969-.24792-.175-.40313-.225-.3224-.075-.50156-.075c-.18021,0-.34792.02656-.50313.07969s-.29219.1276-.41094.22344c-.11771.09479-.21667.20729-.29688.3375-.08021.12917-.13698.2724-.17031.42969-.04271.11667-.09688.19427-.1625.23281-.06458.0375-.15833.04792-.28125.03125l-.46563-.07969c.04688-.32708.13698-.61615.27031-.86719.13333-.25208.30208-.46302.50625-.63281.20521-.16979.4401-.29896.70469-.3875.26563-.08854.55208-.13281.85938-.13281Z"/>
              </g>
            </g>
            <g id="xtick_5">
              <g id="line2d_5">
                <path id="mf216de4d18-5" data-name="mf216de4d18" class="cls-7" d="M257.41714,307.58403v6"/>
              </g>
              <g id="text_5">
                <path id="Lato-Regular-34" d="M258.94682,321.86527h1.08594v.50938c0,.05313-.01615.09844-.04844.13594-.03125.03646-.08021.05469-.14688.05469h-.89063v1.88438h-.77969v-1.88438h-3.17969c-.06667,0-.12448-.01927-.17344-.05781-.04792-.03854-.07865-.08594-.09219-.14219l-.08906-.45625,3.48438-4.625h.82969v4.58125ZM258.16714,318.90902c0-.08646.0026-.18021.00781-.28125.00521-.10208.01615-.20625.03281-.3125l-2.61094,3.55h2.57031v-2.95625Z"/>
              </g>
            </g>
            <g id="xtick_6">
              <g id="line2d_6">
                <path id="mf216de4d18-6" data-name="mf216de4d18" class="cls-7" d="M299.93143,307.58403v6"/>
              </g>
              <g id="text_6">
                <path id="Lato-Regular-35" d="M301.94081,317.67465c0,.12708-.03906.23125-.11719.3125s-.21198.12188-.40156.12188h-2.25l-.33125,1.88125c.19063-.04375.36979-.07448.5375-.09219.16875-.01875.33333-.02813.49375-.02813.37292,0,.7026.05521.98906.16563.28646.10938.52552.26094.71719.45469.19167.19271.33646.42083.43438.68438.09896.26354.14844.55.14844.85938,0,.38021-.06615.72396-.19844,1.03125-.13125.30625-.3125.56875-.54375.7875-.23125.21771-.50365.3849-.81719.50156-.31354.11667-.65208.175-1.01563.175-.20938,0-.41094-.02083-.60469-.0625-.19375-.04167-.375-.0974-.54375-.16719-.16771-.06979-.32344-.14948-.46719-.23906-.14271-.09063-.26927-.18594-.37969-.28594l.275-.37969c.06042-.08646.13906-.12969.23594-.12969.06667,0,.14167.02604.225.07813.08333.05104.1849.10833.30469.17188.11979.0625.26042.11979.42188.17188.1625.05208.35521.07813.57813.07813.25,0,.475-.0401.675-.12031.2-.08021.37135-.19427.51406-.34219.14375-.14896.25365-.32656.32969-.53281.07708-.20729.11563-.43906.11563-.69531,0-.22292-.03229-.42448-.09688-.60469s-.16302-.33333-.29531-.45938c-.13125-.12708-.29531-.22552-.49219-.29531-.19688-.07083-.42708-.10625-.69063-.10625-.17917,0-.36667.0151-.5625.04531-.19479.03021-.39375.07865-.59688.14531l-.55938-.16563.575-3.35h3.39375v.39063Z"/>
              </g>
            </g>
            <g id="xtick_7">
              <g id="line2d_7">
                <path id="mf216de4d18-7" data-name="mf216de4d18" class="cls-7" d="M342.44571,307.58403v6"/>
              </g>
              <g id="text_7">
                <path id="Lato-Regular-36" d="M341.91603,319.96996c-.06667.08021-.12865.15885-.18594.23594-.05625.07604-.1125.15052-.16875.22344.16979-.11667.35677-.20729.56094-.27188.20521-.06563.42813-.09844.66875-.09844.28958,0,.5625.04792.81875.14375.25729.09479.48177.23333.67344.41563.19167.18125.34427.40417.45781.66875.11354.26458.17031.56719.17031.90781,0,.33021-.06042.63698-.18125.92031-.11979.28333-.2875.53021-.50313.74063-.21458.20938-.47292.37396-.775.49375-.30104.11979-.63333.17969-.99688.17969-.35938,0-.68594-.05729-.97969-.17188-.29271-.11563-.54167-.27917-.74688-.49063-.20521-.21146-.36354-.46771-.475-.76875-.11146-.30208-.16719-.6401-.16719-1.01406,0-.3125.06875-.64635.20625-1.00156.13854-.35521.35938-.73438.6625-1.1375l1.82031-2.44531c.04688-.06042.11094-.11146.19219-.15313.08229-.04167.17656-.0625.28281-.0625h.79063l-2.125,2.68594ZM340.94103,322.24027c0,.22917.03333.43906.1.62969.06667.18958.16406.35313.29219.49063.12813.13646.28438.24219.46875.31719.18542.075.39688.1125.63438.1125.23958,0,.45677-.03854.65156-.11563.19479-.07708.36146-.18385.5-.32031s.24531-.29792.32031-.48438c.075-.18646.1125-.3901.1125-.61094,0-.23333-.03698-.44375-.11094-.63125-.07292-.18854-.17708-.34844-.3125-.47969-.13438-.13229-.29479-.23333-.48125-.30313s-.39167-.10469-.61563-.10469c-.23958,0-.45625.04063-.65.12188-.19271.08125-.35677.19115-.49219.32969-.13542.13854-.23906.29896-.31094.48125-.07083.18125-.10625.37031-.10625.56719Z"/>
              </g>
            </g>
            <g id="xtick_8">
              <g id="line2d_8">
                <path id="mf216de4d18-8" data-name="mf216de4d18" class="cls-7" d="M384.95999,307.58403v6"/>
              </g>
              <g id="text_8">
                <path id="Lato-Regular-37" d="M387.46469,317.28402v.4c0,.11354-.0125.20729-.0375.28125-.025.07292-.04896.13438-.07188.18438l-2.97031,5.98438c-.04375.0875-.10417.16198-.18125.22344-.07604.06146-.17708.09219-.30313.09219h-.64063l3.00938-5.90938c.04375-.08333.08802-.1599.13281-.22969.04479-.07083.09583-.13802.15313-.20156h-3.74063c-.05625,0-.10625-.0224-.15-.06719-.04271-.04479-.06406-.09531-.06406-.15156v-.60625h4.86406Z"/>
              </g>
            </g>
            <g id="xtick_9">
              <g id="line2d_9">
                <path id="m4e1aa22673" class="cls-7" d="M61.85143,307.58403v3"/>
              </g>
            </g>
            <g id="xtick_10">
              <g id="line2d_10">
                <path id="m4e1aa22673-2" data-name="m4e1aa22673" class="cls-7" d="M70.35429,307.58403v3"/>
              </g>
            </g>
            <g id="xtick_11">
              <g id="line2d_11">
                <path id="m4e1aa22673-3" data-name="m4e1aa22673" class="cls-7" d="M78.85714,307.58403v3"/>
              </g>
            </g>
            <g id="xtick_12">
              <g id="line2d_12">
                <path id="m4e1aa22673-4" data-name="m4e1aa22673" class="cls-7" d="M95.86285,307.58403v3"/>
              </g>
            </g>
            <g id="xtick_13">
              <g id="line2d_13">
                <path id="m4e1aa22673-5" data-name="m4e1aa22673" class="cls-7" d="M104.36572,307.58403v3"/>
              </g>
            </g>
            <g id="xtick_14">
              <g id="line2d_14">
                <path id="m4e1aa22673-6" data-name="m4e1aa22673" class="cls-7" d="M112.86857,307.58403v3"/>
              </g>
            </g>
            <g id="xtick_15">
              <g id="line2d_15">
                <path id="m4e1aa22673-7" data-name="m4e1aa22673" class="cls-7" d="M121.37143,307.58403v3"/>
              </g>
            </g>
            <g id="xtick_16">
              <g id="line2d_16">
                <path id="m4e1aa22673-8" data-name="m4e1aa22673" class="cls-7" d="M138.37714,307.58403v3"/>
              </g>
            </g>
            <g id="xtick_17">
              <g id="line2d_17">
                <path id="m4e1aa22673-9" data-name="m4e1aa22673" class="cls-7" d="M146.88,307.58403v3"/>
              </g>
            </g>
            <g id="xtick_18">
              <g id="line2d_18">
                <path id="m4e1aa22673-10" data-name="m4e1aa22673" class="cls-7" d="M155.38286,307.58403v3"/>
              </g>
            </g>
            <g id="xtick_19">
              <g id="line2d_19">
                <path id="m4e1aa22673-11" data-name="m4e1aa22673" class="cls-7" d="M163.88571,307.58403v3"/>
              </g>
            </g>
            <g id="xtick_20">
              <g id="line2d_20">
                <path id="m4e1aa22673-12" data-name="m4e1aa22673" class="cls-7" d="M180.89143,307.58403v3"/>
              </g>
            </g>
            <g id="xtick_21">
              <g id="line2d_21">
                <path id="m4e1aa22673-13" data-name="m4e1aa22673" class="cls-7" d="M189.39429,307.58403v3"/>
              </g>
            </g>
            <g id="xtick_22">
              <g id="line2d_22">
                <path id="m4e1aa22673-14" data-name="m4e1aa22673" class="cls-7" d="M197.89714,307.58403v3"/>
              </g>
            </g>
            <g id="xtick_23">
              <g id="line2d_23">
                <path id="m4e1aa22673-15" data-name="m4e1aa22673" class="cls-7" d="M206.39999,307.58403v3"/>
              </g>
            </g>
            <g id="xtick_24">
              <g id="line2d_24">
                <path id="m4e1aa22673-16" data-name="m4e1aa22673" class="cls-7" d="M223.40572,307.58403v3"/>
              </g>
            </g>
            <g id="xtick_25">
              <g id="line2d_25">
                <path id="m4e1aa22673-17" data-name="m4e1aa22673" class="cls-7" d="M231.90857,307.58403v3"/>
              </g>
            </g>
            <g id="xtick_26">
              <g id="line2d_26">
                <path id="m4e1aa22673-18" data-name="m4e1aa22673" class="cls-7" d="M240.41142,307.58403v3"/>
              </g>
            </g>
            <g id="xtick_27">
              <g id="line2d_27">
                <path id="m4e1aa22673-19" data-name="m4e1aa22673" class="cls-7" d="M248.91429,307.58403v3"/>
              </g>
            </g>
            <g id="xtick_28">
              <g id="line2d_28">
                <path id="m4e1aa22673-20" data-name="m4e1aa22673" class="cls-7" d="M265.92001,307.58403v3"/>
              </g>
            </g>
            <g id="xtick_29">
              <g id="line2d_29">
                <path id="m4e1aa22673-21" data-name="m4e1aa22673" class="cls-7" d="M274.42285,307.58403v3"/>
              </g>
            </g>
            <g id="xtick_30">
              <g id="line2d_30">
                <path id="m4e1aa22673-22" data-name="m4e1aa22673" class="cls-7" d="M282.92572,307.58403v3"/>
              </g>
            </g>
            <g id="xtick_31">
              <g id="line2d_31">
                <path id="m4e1aa22673-23" data-name="m4e1aa22673" class="cls-7" d="M291.42856,307.58403v3"/>
              </g>
            </g>
            <g id="xtick_32">
              <g id="line2d_32">
                <path id="m4e1aa22673-24" data-name="m4e1aa22673" class="cls-7" d="M308.4343,307.58403v3"/>
              </g>
            </g>
            <g id="xtick_33">
              <g id="line2d_33">
                <path id="m4e1aa22673-25" data-name="m4e1aa22673" class="cls-7" d="M316.93713,307.58403v3"/>
              </g>
            </g>
            <g id="xtick_34">
              <g id="line2d_34">
                <path id="m4e1aa22673-26" data-name="m4e1aa22673" class="cls-7" d="M325.44,307.58403v3"/>
              </g>
            </g>
            <g id="xtick_35">
              <g id="line2d_35">
                <path id="m4e1aa22673-27" data-name="m4e1aa22673" class="cls-7" d="M333.94287,307.58403v3"/>
              </g>
            </g>
            <g id="xtick_36">
              <g id="line2d_36">
                <path id="m4e1aa22673-28" data-name="m4e1aa22673" class="cls-7" d="M350.94858,307.58403v3"/>
              </g>
            </g>
            <g id="xtick_37">
              <g id="line2d_37">
                <path id="m4e1aa22673-29" data-name="m4e1aa22673" class="cls-7" d="M359.45142,307.58403v3"/>
              </g>
            </g>
            <g id="xtick_38">
              <g id="line2d_38">
                <path id="m4e1aa22673-30" data-name="m4e1aa22673" class="cls-7" d="M367.95428,307.58403v3"/>
              </g>
            </g>
            <g id="xtick_39">
              <g id="line2d_39">
                <path id="m4e1aa22673-31" data-name="m4e1aa22673" class="cls-7" d="M376.45715,307.58403v3"/>
              </g>
            </g>
            <g id="xtick_40">
              <g id="line2d_40">
                <path id="m4e1aa22673-32" data-name="m4e1aa22673" class="cls-7" d="M393.46286,307.58403v3"/>
              </g>
            </g>
            <g id="xtick_41">
              <g id="line2d_41">
                <path id="m4e1aa22673-33" data-name="m4e1aa22673" class="cls-7" d="M401.96573,307.58403v3"/>
              </g>
            </g>
            <g id="xtick_42">
              <g id="line2d_42">
                <path id="m4e1aa22673-34" data-name="m4e1aa22673" class="cls-7" d="M410.46857,307.58403v3"/>
              </g>
            </g>
            <g id="text_9">
              <path id="Lato-Bold-78" d="M235.33423,334.94966l-1.68438-2.48438h1.19063c.08958,0,.15573.0125.19844.0375.04375.025.08229.06563.11563.12188l1.075,1.71563c.01667-.05729.0375-.11406.0625-.17031s.05573-.11302.09219-.17031l.86563-1.35c.07292-.12292.16771-.18438.28438-.18438h1.13594l-1.69063,2.42969,1.76094,2.7h-1.19063c-.08958,0-.16198-.02344-.21719-.07031s-.10104-.1-.1375-.15938l-1.09063-1.78594c-.03021.12083-.07188.22083-.125.3l-.95938,1.48594c-.03646.05625-.08177.10885-.13594.15781-.05313.04792-.11979.07188-.2.07188h-1.10469l1.75469-2.64531Z"/>
            </g>
          </g>
          <g id="matplotlib.axis_2">
            <g id="ytick_1">
              <g id="line2d_43">
                <g class="cls-19">
                  <path class="cls-2" d="M57.6,285.40799h357.12"/>
                </g>
              </g>
              <g id="text_10">
                <g>
                  <path id="Lato-Regular-30-2" data-name="Lato-Regular-30" d="M39.84063,285.51113c0,.62604-.06771,1.16823-.20313,1.62656-.13438.45833-.31823.8375-.55156,1.1375s-.50938.52344-.82813.67031c-.31771.14688-.65833.22031-1.02188.22031-.36667,0-.70781-.07344-1.02344-.22031-.31458-.14688-.58854-.37031-.82188-.67031s-.41667-.67917-.55-1.1375c-.13333-.45833-.2-1.00052-.2-1.62656,0-.62708.06667-1.17031.2-1.62969.13333-.46042.31667-.84115.55-1.14219.23333-.30208.50729-.52656.82188-.67344.31563-.14688.65677-.22031,1.02344-.22031.36354,0,.70417.07344,1.02188.22031.31875.14688.59479.37135.82813.67344.23333.30104.41719.68177.55156,1.14219.13542.45938.20313,1.0026.20313,1.62969ZM38.91563,285.51113c0-.54688-.04583-1.00625-.1375-1.37813s-.2151-.67083-.37031-.89688c-.15521-.22708-.33438-.38958-.5375-.4875-.20313-.09896-.41458-.14844-.63438-.14844s-.43177.04948-.63594.14844c-.20313.09792-.38125.26042-.53438.4875-.15313.22604-.27552.525-.36719.89688s-.1375.83125-.1375,1.37813.04583,1.00521.1375,1.375.21406.66823.36719.89531c.15313.22604.33125.38854.53438.4875.20417.09792.41615.14688.63594.14688s.43125-.04896.63438-.14688c.20313-.09896.38229-.26146.5375-.4875.15521-.22708.27865-.52552.37031-.89531s.1375-.82813.1375-1.375Z"/>
                  <path id="Lato-Regular-2e" d="M40.69531,288.54082c0-.08646.01563-.16771.04688-.24375.03229-.07708.07604-.14375.13125-.2.05521-.05729.12083-.1026.19688-.13594.07708-.03333.15885-.05.24531-.05s.16771.01667.24375.05c.07708.03333.14375.07865.2.13594.05729.05625.1026.12292.13594.2.03333.07604.05.15729.05.24375,0,.08958-.01667.17188-.05.24688s-.07865.14115-.13594.19844c-.05625.05625-.12292.1-.2.13125-.07604.03229-.15729.04844-.24375.04844s-.16823-.01615-.24531-.04844c-.07604-.03125-.14167-.075-.19688-.13125-.05521-.05729-.09896-.12344-.13125-.19844-.03125-.075-.04688-.15729-.04688-.24688Z"/>
                  <path id="Lato-Regular-30-3" data-name="Lato-Regular-30" d="M48.00063,285.51113c0,.62604-.06771,1.16823-.20313,1.62656-.13438.45833-.31823.8375-.55156,1.1375s-.50938.52344-.82813.67031c-.31771.14688-.65833.22031-1.02188.22031-.36667,0-.70781-.07344-1.02344-.22031-.31458-.14688-.58854-.37031-.82188-.67031s-.41667-.67917-.55-1.1375c-.13333-.45833-.2-1.00052-.2-1.62656,0-.62708.06667-1.17031.2-1.62969.13333-.46042.31667-.84115.55-1.14219.23333-.30208.50729-.52656.82188-.67344.31563-.14688.65677-.22031,1.02344-.22031.36354,0,.70417.07344,1.02188.22031.31875.14688.59479.37135.82813.67344.23333.30104.41719.68177.55156,1.14219.13542.45938.20313,1.0026.20313,1.62969ZM47.07563,285.51113c0-.54688-.04583-1.00625-.1375-1.37813s-.2151-.67083-.37031-.89688c-.15521-.22708-.33438-.38958-.5375-.4875-.20313-.09896-.41458-.14844-.63438-.14844s-.43177.04948-.63594.14844c-.20313.09792-.38125.26042-.53438.4875-.15313.22604-.27552.525-.36719.89688s-.1375.83125-.1375,1.37813.04583,1.00521.1375,1.375.21406.66823.36719.89531c.15313.22604.33125.38854.53438.4875.20417.09792.41615.14688.63594.14688s.43125-.04896.63438-.14688c.20313-.09896.38229-.26146.5375-.4875.15521-.22708.27865-.52552.37031-.89531s.1375-.82813.1375-1.375Z"/>
                  <path id="Lato-Regular-30-4" data-name="Lato-Regular-30" d="M53.80062,285.51113c0,.62604-.06771,1.16823-.20313,1.62656-.13438.45833-.31823.8375-.55156,1.1375s-.50938.52344-.82813.67031c-.31771.14688-.65833.22031-1.02188.22031-.36667,0-.70781-.07344-1.02344-.22031-.31458-.14688-.58854-.37031-.82188-.67031s-.41667-.67917-.55-1.1375c-.13333-.45833-.2-1.00052-.2-1.62656,0-.62708.06667-1.17031.2-1.62969.13333-.46042.31667-.84115.55-1.14219.23333-.30208.50729-.52656.82188-.67344.31563-.14688.65677-.22031,1.02344-.22031.36354,0,.70417.07344,1.02188.22031.31875.14688.59479.37135.82813.67344.23333.30104.41719.68177.55156,1.14219.13542.45938.20313,1.0026.20313,1.62969ZM52.87562,285.51113c0-.54688-.04583-1.00625-.1375-1.37813s-.2151-.67083-.37031-.89688c-.15521-.22708-.33438-.38958-.5375-.4875-.20313-.09896-.41458-.14844-.63438-.14844s-.43177.04948-.63594.14844c-.20313.09792-.38125.26042-.53438.4875-.15313.22604-.27552.525-.36719.89688s-.1375.83125-.1375,1.37813.04583,1.00521.1375,1.375.21406.66823.36719.89531c.15313.22604.33125.38854.53438.4875.20417.09792.41615.14688.63594.14688s.43125-.04896.63438-.14688c.20313-.09896.38229-.26146.5375-.4875.15521-.22708.27865-.52552.37031-.89531s.1375-.82813.1375-1.375Z"/>
                </g>
              </g>
            </g>
            <g id="ytick_2">
              <g id="line2d_44">
                <g class="cls-14">
                  <path class="cls-2" d="M57.6,255.53905h357.12"/>
                </g>
              </g>
              <g id="text_11">
                <g>
                  <path id="Lato-Regular-30-5" data-name="Lato-Regular-30" d="M39.84063,255.64218c0,.62604-.06771,1.16823-.20313,1.62656-.13438.45833-.31823.8375-.55156,1.1375s-.50938.52344-.82813.67031c-.31771.14688-.65833.22031-1.02188.22031-.36667,0-.70781-.07344-1.02344-.22031-.31458-.14688-.58854-.37031-.82188-.67031s-.41667-.67917-.55-1.1375c-.13333-.45833-.2-1.00052-.2-1.62656,0-.62708.06667-1.17031.2-1.62969.13333-.46042.31667-.84115.55-1.14219.23333-.30208.50729-.52656.82188-.67344.31563-.14688.65677-.22031,1.02344-.22031.36354,0,.70417.07344,1.02188.22031.31875.14688.59479.37135.82813.67344.23333.30104.41719.68177.55156,1.14219.13542.45938.20313,1.0026.20313,1.62969ZM38.91563,255.64218c0-.54688-.04583-1.00625-.1375-1.37813s-.2151-.67083-.37031-.89688c-.15521-.22708-.33438-.38958-.5375-.4875-.20313-.09896-.41458-.14844-.63438-.14844s-.43177.04948-.63594.14844c-.20313.09792-.38125.26042-.53438.4875-.15313.22604-.27552.525-.36719.89688s-.1375.83125-.1375,1.37813.04583,1.00521.1375,1.375.21406.66823.36719.89531c.15313.22604.33125.38854.53438.4875.20417.09792.41615.14688.63594.14688s.43125-.04896.63438-.14688c.20313-.09896.38229-.26146.5375-.4875.15521-.22708.27865-.52552.37031-.89531s.1375-.82813.1375-1.375Z"/>
                  <path id="Lato-Regular-2e-2" data-name="Lato-Regular-2e" d="M40.69531,258.67186c0-.08646.01563-.16771.04688-.24375.03229-.07708.07604-.14375.13125-.2.05521-.05729.12083-.1026.19688-.13594.07708-.03333.15885-.05.24531-.05s.16771.01667.24375.05c.07708.03333.14375.07865.2.13594.05729.05625.1026.12292.13594.2.03333.07604.05.15729.05.24375,0,.08958-.01667.17188-.05.24688s-.07865.14115-.13594.19844c-.05625.05625-.12292.1-.2.13125-.07604.03229-.15729.04844-.24375.04844s-.16823-.01615-.24531-.04844c-.07604-.03125-.14167-.075-.19688-.13125-.05521-.05729-.09896-.12344-.13125-.19844-.03125-.075-.04688-.15729-.04688-.24688Z"/>
                  <path id="Lato-Regular-30-6" data-name="Lato-Regular-30" d="M48.00063,255.64218c0,.62604-.06771,1.16823-.20313,1.62656-.13438.45833-.31823.8375-.55156,1.1375s-.50938.52344-.82813.67031c-.31771.14688-.65833.22031-1.02188.22031-.36667,0-.70781-.07344-1.02344-.22031-.31458-.14688-.58854-.37031-.82188-.67031s-.41667-.67917-.55-1.1375c-.13333-.45833-.2-1.00052-.2-1.62656,0-.62708.06667-1.17031.2-1.62969.13333-.46042.31667-.84115.55-1.14219.23333-.30208.50729-.52656.82188-.67344.31563-.14688.65677-.22031,1.02344-.22031.36354,0,.70417.07344,1.02188.22031.31875.14688.59479.37135.82813.67344.23333.30104.41719.68177.55156,1.14219.13542.45938.20313,1.0026.20313,1.62969ZM47.07563,255.64218c0-.54688-.04583-1.00625-.1375-1.37813s-.2151-.67083-.37031-.89688c-.15521-.22708-.33438-.38958-.5375-.4875-.20313-.09896-.41458-.14844-.63438-.14844s-.43177.04948-.63594.14844c-.20313.09792-.38125.26042-.53438.4875-.15313.22604-.27552.525-.36719.89688s-.1375.83125-.1375,1.37813.04583,1.00521.1375,1.375.21406.66823.36719.89531c.15313.22604.33125.38854.53438.4875.20417.09792.41615.14688.63594.14688s.43125-.04896.63438-.14688c.20313-.09896.38229-.26146.5375-.4875.15521-.22708.27865-.52552.37031-.89531s.1375-.82813.1375-1.375Z"/>
                  <path id="Lato-Regular-35-2" data-name="Lato-Regular-35" d="M53.21,252.44686c0,.12708-.03906.23125-.11719.3125s-.21198.12188-.40156.12188h-2.25l-.33125,1.88125c.19063-.04375.36979-.07448.5375-.09219.16875-.01875.33333-.02813.49375-.02813.37292,0,.7026.05521.98906.16563.28646.10938.52552.26094.71719.45469.19167.19271.33646.42083.43438.68438.09896.26354.14844.55.14844.85938,0,.38021-.06615.72396-.19844,1.03125-.13125.30625-.3125.56875-.54375.7875-.23125.21771-.50365.3849-.81719.50156-.31354.11667-.65208.175-1.01563.175-.20938,0-.41094-.02083-.60469-.0625-.19375-.04167-.375-.0974-.54375-.16719-.16771-.06979-.32344-.14948-.46719-.23906-.14271-.09063-.26927-.18594-.37969-.28594l.275-.37969c.06042-.08646.13906-.12969.23594-.12969.06667,0,.14167.02604.225.07813.08333.05104.1849.10833.30469.17188.11979.0625.26042.11979.42188.17188.1625.05208.35521.07813.57813.07813.25,0,.475-.0401.675-.12031.2-.08021.37135-.19427.51406-.34219.14375-.14896.25365-.32656.32969-.53281.07708-.20729.11563-.43906.11563-.69531,0-.22292-.03229-.42448-.09688-.60469s-.16302-.33333-.29531-.45938c-.13125-.12708-.29531-.22552-.49219-.29531-.19688-.07083-.42708-.10625-.69063-.10625-.17917,0-.36667.0151-.5625.04531-.19479.03021-.39375.07865-.59688.14531l-.55938-.16563.575-3.35h3.39375v.39063Z"/>
                </g>
              </g>
            </g>
            <g id="ytick_3">
              <g id="line2d_45">
                <g class="cls-18">
                  <path class="cls-2" d="M57.6,225.6701h357.12"/>
                </g>
              </g>
              <g id="text_12">
                <g>
                  <path id="Lato-Regular-30-7" data-name="Lato-Regular-30" d="M39.84063,225.77322c0,.62604-.06771,1.16823-.20313,1.62656-.13438.45833-.31823.8375-.55156,1.1375s-.50938.52344-.82813.67031c-.31771.14688-.65833.22031-1.02188.22031-.36667,0-.70781-.07344-1.02344-.22031-.31458-.14688-.58854-.37031-.82188-.67031s-.41667-.67917-.55-1.1375c-.13333-.45833-.2-1.00052-.2-1.62656,0-.62708.06667-1.17031.2-1.62969.13333-.46042.31667-.84115.55-1.14219.23333-.30208.50729-.52656.82188-.67344.31563-.14688.65677-.22031,1.02344-.22031.36354,0,.70417.07344,1.02188.22031.31875.14688.59479.37135.82813.67344.23333.30104.41719.68177.55156,1.14219.13542.45938.20313,1.0026.20313,1.62969ZM38.91563,225.77322c0-.54688-.04583-1.00625-.1375-1.37813s-.2151-.67083-.37031-.89688c-.15521-.22708-.33438-.38958-.5375-.4875-.20313-.09896-.41458-.14844-.63438-.14844s-.43177.04948-.63594.14844c-.20313.09792-.38125.26042-.53438.4875-.15313.22604-.27552.525-.36719.89688s-.1375.83125-.1375,1.37813.04583,1.00521.1375,1.375.21406.66823.36719.89531c.15313.22604.33125.38854.53438.4875.20417.09792.41615.14688.63594.14688s.43125-.04896.63438-.14688c.20313-.09896.38229-.26146.5375-.4875.15521-.22708.27865-.52552.37031-.89531s.1375-.82813.1375-1.375Z"/>
                  <path id="Lato-Regular-2e-3" data-name="Lato-Regular-2e" d="M40.69531,228.80291c0-.08646.01563-.16771.04688-.24375.03229-.07708.07604-.14375.13125-.2.05521-.05729.12083-.1026.19688-.13594.07708-.03333.15885-.05.24531-.05s.16771.01667.24375.05c.07708.03333.14375.07865.2.13594.05729.05625.1026.12292.13594.2.03333.07604.05.15729.05.24375,0,.08958-.01667.17188-.05.24688s-.07865.14115-.13594.19844c-.05625.05625-.12292.1-.2.13125-.07604.03229-.15729.04844-.24375.04844s-.16823-.01615-.24531-.04844c-.07604-.03125-.14167-.075-.19688-.13125-.05521-.05729-.09896-.12344-.13125-.19844-.03125-.075-.04688-.15729-.04688-.24688Z"/>
                  <path id="Lato-Regular-31-2" data-name="Lato-Regular-31" d="M43.75063,228.67322h1.53438v-4.88594c0-.13958.00521-.2875.01563-.44375l-1.275,1.09375c-.04375.0375-.0875.06042-.13125.06875-.04271.00833-.08229.00938-.11875.00313-.03646-.00729-.07083-.02083-.10313-.04063-.03125-.02083-.05521-.04271-.07188-.06563l-.27969-.38438,2.13438-1.84531h.725v6.5h1.41094v.67969h-3.84063v-.67969Z"/>
                  <path id="Lato-Regular-30-8" data-name="Lato-Regular-30" d="M53.80062,225.77322c0,.62604-.06771,1.16823-.20313,1.62656-.13438.45833-.31823.8375-.55156,1.1375s-.50938.52344-.82813.67031c-.31771.14688-.65833.22031-1.02188.22031-.36667,0-.70781-.07344-1.02344-.22031-.31458-.14688-.58854-.37031-.82188-.67031s-.41667-.67917-.55-1.1375c-.13333-.45833-.2-1.00052-.2-1.62656,0-.62708.06667-1.17031.2-1.62969.13333-.46042.31667-.84115.55-1.14219.23333-.30208.50729-.52656.82188-.67344.31563-.14688.65677-.22031,1.02344-.22031.36354,0,.70417.07344,1.02188.22031.31875.14688.59479.37135.82813.67344.23333.30104.41719.68177.55156,1.14219.13542.45938.20313,1.0026.20313,1.62969ZM52.87562,225.77322c0-.54688-.04583-1.00625-.1375-1.37813s-.2151-.67083-.37031-.89688c-.15521-.22708-.33438-.38958-.5375-.4875-.20313-.09896-.41458-.14844-.63438-.14844s-.43177.04948-.63594.14844c-.20313.09792-.38125.26042-.53438.4875-.15313.22604-.27552.525-.36719.89688s-.1375.83125-.1375,1.37813.04583,1.00521.1375,1.375.21406.66823.36719.89531c.15313.22604.33125.38854.53438.4875.20417.09792.41615.14688.63594.14688s.43125-.04896.63438-.14688c.20313-.09896.38229-.26146.5375-.4875.15521-.22708.27865-.52552.37031-.89531s.1375-.82813.1375-1.375Z"/>
                </g>
              </g>
            </g>
            <g id="ytick_4">
              <g id="line2d_46">
                <g class="cls-17">
                  <path class="cls-2" d="M57.6,195.80116h357.12"/>
                </g>
              </g>
              <g id="text_13">
                <g>
                  <path id="Lato-Regular-30-9" data-name="Lato-Regular-30" d="M39.84063,195.90432c0,.62604-.06771,1.16823-.20313,1.62656-.13438.45833-.31823.8375-.55156,1.1375s-.50938.52344-.82813.67031c-.31771.14688-.65833.22031-1.02188.22031-.36667,0-.70781-.07344-1.02344-.22031-.31458-.14688-.58854-.37031-.82188-.67031s-.41667-.67917-.55-1.1375c-.13333-.45833-.2-1.00052-.2-1.62656,0-.62708.06667-1.17031.2-1.62969.13333-.46042.31667-.84115.55-1.14219.23333-.30208.50729-.52656.82188-.67344.31563-.14688.65677-.22031,1.02344-.22031.36354,0,.70417.07344,1.02188.22031.31875.14688.59479.37135.82813.67344.23333.30104.41719.68177.55156,1.14219.13542.45938.20313,1.0026.20313,1.62969ZM38.91563,195.90432c0-.54688-.04583-1.00625-.1375-1.37813s-.2151-.67083-.37031-.89688c-.15521-.22708-.33438-.38958-.5375-.4875-.20313-.09896-.41458-.14844-.63438-.14844s-.43177.04948-.63594.14844c-.20313.09792-.38125.26042-.53438.4875-.15313.22604-.27552.525-.36719.89688s-.1375.83125-.1375,1.37813.04583,1.00521.1375,1.375.21406.66823.36719.89531c.15313.22604.33125.38854.53438.4875.20417.09792.41615.14688.63594.14688s.43125-.04896.63438-.14688c.20313-.09896.38229-.26146.5375-.4875.15521-.22708.27865-.52552.37031-.89531s.1375-.82813.1375-1.375Z"/>
                  <path id="Lato-Regular-2e-4" data-name="Lato-Regular-2e" d="M40.69531,198.93401c0-.08646.01563-.16771.04688-.24375.03229-.07708.07604-.14375.13125-.2.05521-.05729.12083-.1026.19688-.13594.07708-.03333.15885-.05.24531-.05s.16771.01667.24375.05c.07708.03333.14375.07865.2.13594.05729.05625.1026.12292.13594.2.03333.07604.05.15729.05.24375,0,.08958-.01667.17188-.05.24688s-.07865.14115-.13594.19844c-.05625.05625-.12292.1-.2.13125-.07604.03229-.15729.04844-.24375.04844s-.16823-.01615-.24531-.04844c-.07604-.03125-.14167-.075-.19688-.13125-.05521-.05729-.09896-.12344-.13125-.19844-.03125-.075-.04688-.15729-.04688-.24688Z"/>
                  <path id="Lato-Regular-31-3" data-name="Lato-Regular-31" d="M43.75063,198.80432h1.53438v-4.88594c0-.13958.00521-.2875.01563-.44375l-1.275,1.09375c-.04375.0375-.0875.06042-.13125.06875-.04271.00833-.08229.00938-.11875.00313-.03646-.00729-.07083-.02083-.10313-.04063-.03125-.02083-.05521-.04271-.07188-.06563l-.27969-.38438,2.13438-1.84531h.725v6.5h1.41094v.67969h-3.84063v-.67969Z"/>
                  <path id="Lato-Regular-35-3" data-name="Lato-Regular-35" d="M53.21,192.70901c0,.12708-.03906.23125-.11719.3125s-.21198.12188-.40156.12188h-2.25l-.33125,1.88125c.19063-.04375.36979-.07448.5375-.09219.16875-.01875.33333-.02813.49375-.02813.37292,0,.7026.05521.98906.16563.28646.10938.52552.26094.71719.45469.19167.19271.33646.42083.43438.68438.09896.26354.14844.55.14844.85938,0,.38021-.06615.72396-.19844,1.03125-.13125.30625-.3125.56875-.54375.7875-.23125.21771-.50365.3849-.81719.50156-.31354.11667-.65208.175-1.01563.175-.20938,0-.41094-.02083-.60469-.0625-.19375-.04167-.375-.0974-.54375-.16719-.16771-.06979-.32344-.14948-.46719-.23906-.14271-.09063-.26927-.18594-.37969-.28594l.275-.37969c.06042-.08646.13906-.12969.23594-.12969.06667,0,.14167.02604.225.07813.08333.05104.1849.10833.30469.17188.11979.0625.26042.11979.42188.17188.1625.05208.35521.07813.57813.07813.25,0,.475-.0401.675-.12031.2-.08021.37135-.19427.51406-.34219.14375-.14896.25365-.32656.32969-.53281.07708-.20729.11563-.43906.11563-.69531,0-.22292-.03229-.42448-.09688-.60469s-.16302-.33333-.29531-.45938c-.13125-.12708-.29531-.22552-.49219-.29531-.19688-.07083-.42708-.10625-.69063-.10625-.17917,0-.36667.0151-.5625.04531-.19479.03021-.39375.07865-.59688.14531l-.55938-.16563.575-3.35h3.39375v.39063Z"/>
                </g>
              </g>
            </g>
            <g id="ytick_5">
              <g id="line2d_47">
                <g class="cls-12">
                  <path class="cls-2" d="M57.6,165.93222h357.12"/>
                </g>
              </g>
              <g id="text_14">
                <g>
                  <path id="Lato-Regular-30-10" data-name="Lato-Regular-30" d="M39.84063,166.03536c0,.62604-.06771,1.16823-.20313,1.62656-.13438.45833-.31823.8375-.55156,1.1375s-.50938.52344-.82813.67031c-.31771.14688-.65833.22031-1.02188.22031-.36667,0-.70781-.07344-1.02344-.22031-.31458-.14688-.58854-.37031-.82188-.67031s-.41667-.67917-.55-1.1375c-.13333-.45833-.2-1.00052-.2-1.62656,0-.62708.06667-1.17031.2-1.62969.13333-.46042.31667-.84115.55-1.14219.23333-.30208.50729-.52656.82188-.67344.31563-.14688.65677-.22031,1.02344-.22031.36354,0,.70417.07344,1.02188.22031.31875.14688.59479.37135.82813.67344.23333.30104.41719.68177.55156,1.14219.13542.45938.20313,1.0026.20313,1.62969ZM38.91563,166.03536c0-.54688-.04583-1.00625-.1375-1.37813s-.2151-.67083-.37031-.89688c-.15521-.22708-.33438-.38958-.5375-.4875-.20313-.09896-.41458-.14844-.63438-.14844s-.43177.04948-.63594.14844c-.20313.09792-.38125.26042-.53438.4875-.15313.22604-.27552.525-.36719.89688s-.1375.83125-.1375,1.37813.04583,1.00521.1375,1.375.21406.66823.36719.89531c.15313.22604.33125.38854.53438.4875.20417.09792.41615.14688.63594.14688s.43125-.04896.63438-.14688c.20313-.09896.38229-.26146.5375-.4875.15521-.22708.27865-.52552.37031-.89531s.1375-.82813.1375-1.375Z"/>
                  <path id="Lato-Regular-2e-5" data-name="Lato-Regular-2e" d="M40.69531,169.06505c0-.08646.01563-.16771.04688-.24375.03229-.07708.07604-.14375.13125-.2.05521-.05729.12083-.1026.19688-.13594.07708-.03333.15885-.05.24531-.05s.16771.01667.24375.05c.07708.03333.14375.07865.2.13594.05729.05625.1026.12292.13594.2.03333.07604.05.15729.05.24375,0,.08958-.01667.17188-.05.24688s-.07865.14115-.13594.19844c-.05625.05625-.12292.1-.2.13125-.07604.03229-.15729.04844-.24375.04844s-.16823-.01615-.24531-.04844c-.07604-.03125-.14167-.075-.19688-.13125-.05521-.05729-.09896-.12344-.13125-.19844-.03125-.075-.04688-.15729-.04688-.24688Z"/>
                  <path id="Lato-Regular-32-2" data-name="Lato-Regular-32" d="M45.45531,162.36974c.30313,0,.58646.04531.85.13594.26354.08958.49167.22031.68438.39219.19375.17188.34531.38125.45469.62813.11042.24583.16563.52552.16563.83906,0,.26667-.0401.51406-.12031.74219-.07917.22813-.1875.44583-.325.65313-.13646.20625-.29375.40781-.47188.60469s-.36719.39531-.56719.59531l-1.89063,1.92969c.13333-.03646.26823-.06563.40469-.0875.1375-.02188.26927-.03281.39531-.03281h2.4c.09688,0,.17344.02865.22969.08594.05729.05625.08594.12917.08594.21875v.54063h-4.77969v-.30469c0-.06354.01302-.12865.03906-.19531.02708-.06667.06875-.12813.125-.18438l2.29531-2.30625c.19063-.19271.36406-.37813.52031-.55625.15625-.17917.28958-.35833.4-.5375.11042-.18021.19531-.3625.25469-.54688.06042-.18542.09063-.38333.09063-.59375s-.03333-.39479-.1-.55313-.15781-.28906-.27344-.39219c-.11458-.10313-.25052-.18021-.40781-.23125-.15625-.05208-.32448-.07813-.50469-.07813-.18333,0-.35156.02656-.50469.07969s-.28906.1276-.40781.22344c-.11771.09479-.21667.20729-.29688.3375-.08021.12917-.13698.2724-.17031.42969-.03958.11667-.09375.19427-.1625.23281-.06771.0375-.16354.04792-.2875.03125l-.46406-.07969c.04583-.32708.13646-.61615.27188-.86719.13542-.25208.30521-.46302.50938-.63281.20521-.16979.43958-.29896.70313-.3875s.54844-.13281.85469-.13281Z"/>
                  <path id="Lato-Regular-30-11" data-name="Lato-Regular-30" d="M53.80062,166.03536c0,.62604-.06771,1.16823-.20313,1.62656-.13438.45833-.31823.8375-.55156,1.1375s-.50938.52344-.82813.67031c-.31771.14688-.65833.22031-1.02188.22031-.36667,0-.70781-.07344-1.02344-.22031-.31458-.14688-.58854-.37031-.82188-.67031s-.41667-.67917-.55-1.1375c-.13333-.45833-.2-1.00052-.2-1.62656,0-.62708.06667-1.17031.2-1.62969.13333-.46042.31667-.84115.55-1.14219.23333-.30208.50729-.52656.82188-.67344.31563-.14688.65677-.22031,1.02344-.22031.36354,0,.70417.07344,1.02188.22031.31875.14688.59479.37135.82813.67344.23333.30104.41719.68177.55156,1.14219.13542.45938.20313,1.0026.20313,1.62969ZM52.87562,166.03536c0-.54688-.04583-1.00625-.1375-1.37813s-.2151-.67083-.37031-.89688c-.15521-.22708-.33438-.38958-.5375-.4875-.20313-.09896-.41458-.14844-.63438-.14844s-.43177.04948-.63594.14844c-.20313.09792-.38125.26042-.53438.4875-.15313.22604-.27552.525-.36719.89688s-.1375.83125-.1375,1.37813.04583,1.00521.1375,1.375.21406.66823.36719.89531c.15313.22604.33125.38854.53438.4875.20417.09792.41615.14688.63594.14688s.43125-.04896.63438-.14688c.20313-.09896.38229-.26146.5375-.4875.15521-.22708.27865-.52552.37031-.89531s.1375-.82813.1375-1.375Z"/>
                </g>
              </g>
            </g>
            <g id="ytick_6">
              <g id="line2d_48">
                <g class="cls-15">
                  <path class="cls-2" d="M57.6,136.06326h357.12"/>
                </g>
              </g>
              <g id="text_15">
                <g>
                  <path id="Lato-Regular-30-12" data-name="Lato-Regular-30" d="M39.84063,136.16641c0,.62604-.06771,1.16823-.20313,1.62656-.13438.45833-.31823.8375-.55156,1.1375s-.50938.52344-.82813.67031c-.31771.14688-.65833.22031-1.02188.22031-.36667,0-.70781-.07344-1.02344-.22031-.31458-.14688-.58854-.37031-.82188-.67031s-.41667-.67917-.55-1.1375c-.13333-.45833-.2-1.00052-.2-1.62656,0-.62708.06667-1.17031.2-1.62969.13333-.46042.31667-.84115.55-1.14219.23333-.30208.50729-.52656.82188-.67344.31563-.14688.65677-.22031,1.02344-.22031.36354,0,.70417.07344,1.02188.22031.31875.14688.59479.37135.82813.67344.23333.30104.41719.68177.55156,1.14219.13542.45938.20313,1.0026.20313,1.62969ZM38.91563,136.16641c0-.54688-.04583-1.00625-.1375-1.37813s-.2151-.67083-.37031-.89688c-.15521-.22708-.33438-.38958-.5375-.4875-.20313-.09896-.41458-.14844-.63438-.14844s-.43177.04948-.63594.14844c-.20313.09792-.38125.26042-.53438.4875-.15313.22604-.27552.525-.36719.89688s-.1375.83125-.1375,1.37813.04583,1.00521.1375,1.375.21406.66823.36719.89531c.15313.22604.33125.38854.53438.4875.20417.09792.41615.14688.63594.14688s.43125-.04896.63438-.14688c.20313-.09896.38229-.26146.5375-.4875.15521-.22708.27865-.52552.37031-.89531s.1375-.82813.1375-1.375Z"/>
                  <path id="Lato-Regular-2e-6" data-name="Lato-Regular-2e" d="M40.69531,139.19609c0-.08646.01563-.16771.04688-.24375.03229-.07708.07604-.14375.13125-.2.05521-.05729.12083-.1026.19688-.13594.07708-.03333.15885-.05.24531-.05s.16771.01667.24375.05c.07708.03333.14375.07865.2.13594.05729.05625.1026.12292.13594.2.03333.07604.05.15729.05.24375,0,.08958-.01667.17188-.05.24688s-.07865.14115-.13594.19844c-.05625.05625-.12292.1-.2.13125-.07604.03229-.15729.04844-.24375.04844s-.16823-.01615-.24531-.04844c-.07604-.03125-.14167-.075-.19688-.13125-.05521-.05729-.09896-.12344-.13125-.19844-.03125-.075-.04688-.15729-.04688-.24688Z"/>
                  <path id="Lato-Regular-32-3" data-name="Lato-Regular-32" d="M45.45531,132.50078c.30313,0,.58646.04531.85.13594.26354.08958.49167.22031.68438.39219.19375.17188.34531.38125.45469.62813.11042.24583.16563.52552.16563.83906,0,.26667-.0401.51406-.12031.74219-.07917.22813-.1875.44583-.325.65313-.13646.20625-.29375.40781-.47188.60469s-.36719.39531-.56719.59531l-1.89063,1.92969c.13333-.03646.26823-.06563.40469-.0875.1375-.02188.26927-.03281.39531-.03281h2.4c.09688,0,.17344.02865.22969.08594.05729.05625.08594.12917.08594.21875v.54063h-4.77969v-.30469c0-.06354.01302-.12865.03906-.19531.02708-.06667.06875-.12813.125-.18438l2.29531-2.30625c.19063-.19271.36406-.37813.52031-.55625.15625-.17917.28958-.35833.4-.5375.11042-.18021.19531-.3625.25469-.54688.06042-.18542.09063-.38333.09063-.59375s-.03333-.39479-.1-.55313-.15781-.28906-.27344-.39219c-.11458-.10313-.25052-.18021-.40781-.23125-.15625-.05208-.32448-.07813-.50469-.07813-.18333,0-.35156.02656-.50469.07969s-.28906.1276-.40781.22344c-.11771.09479-.21667.20729-.29688.3375-.08021.12917-.13698.2724-.17031.42969-.03958.11667-.09375.19427-.1625.23281-.06771.0375-.16354.04792-.2875.03125l-.46406-.07969c.04583-.32708.13646-.61615.27188-.86719.13542-.25208.30521-.46302.50938-.63281.20521-.16979.43958-.29896.70313-.3875s.54844-.13281.85469-.13281Z"/>
                  <path id="Lato-Regular-35-4" data-name="Lato-Regular-35" d="M53.21,132.97109c0,.12708-.03906.23125-.11719.3125s-.21198.12188-.40156.12188h-2.25l-.33125,1.88125c.19063-.04375.36979-.07448.5375-.09219.16875-.01875.33333-.02813.49375-.02813.37292,0,.7026.05521.98906.16563.28646.10938.52552.26094.71719.45469.19167.19271.33646.42083.43438.68438.09896.26354.14844.55.14844.85938,0,.38021-.06615.72396-.19844,1.03125-.13125.30625-.3125.56875-.54375.7875-.23125.21771-.50365.3849-.81719.50156-.31354.11667-.65208.175-1.01563.175-.20938,0-.41094-.02083-.60469-.0625-.19375-.04167-.375-.0974-.54375-.16719-.16771-.06979-.32344-.14948-.46719-.23906-.14271-.09063-.26927-.18594-.37969-.28594l.275-.37969c.06042-.08646.13906-.12969.23594-.12969.06667,0,.14167.02604.225.07813.08333.05104.1849.10833.30469.17188.11979.0625.26042.11979.42188.17188.1625.05208.35521.07813.57813.07813.25,0,.475-.0401.675-.12031.2-.08021.37135-.19427.51406-.34219.14375-.14896.25365-.32656.32969-.53281.07708-.20729.11563-.43906.11563-.69531,0-.22292-.03229-.42448-.09688-.60469s-.16302-.33333-.29531-.45938c-.13125-.12708-.29531-.22552-.49219-.29531-.19688-.07083-.42708-.10625-.69063-.10625-.17917,0-.36667.0151-.5625.04531-.19479.03021-.39375.07865-.59688.14531l-.55938-.16563.575-3.35h3.39375v.39063Z"/>
                </g>
              </g>
            </g>
            <g id="ytick_7">
              <g id="line2d_49">
                <g class="cls-10">
                  <path class="cls-2" d="M57.6,106.19432h357.12"/>
                </g>
              </g>
              <g id="text_16">
                <g>
                  <path id="Lato-Regular-30-13" data-name="Lato-Regular-30" d="M39.84063,106.29745c0,.62604-.06771,1.16823-.20313,1.62656-.13438.45833-.31823.8375-.55156,1.1375s-.50938.52344-.82813.67031c-.31771.14688-.65833.22031-1.02188.22031-.36667,0-.70781-.07344-1.02344-.22031-.31458-.14688-.58854-.37031-.82188-.67031s-.41667-.67917-.55-1.1375c-.13333-.45833-.2-1.00052-.2-1.62656,0-.62708.06667-1.17031.2-1.62969.13333-.46042.31667-.84115.55-1.14219.23333-.30208.50729-.52656.82188-.67344.31563-.14688.65677-.22031,1.02344-.22031.36354,0,.70417.07344,1.02188.22031.31875.14688.59479.37135.82813.67344.23333.30104.41719.68177.55156,1.14219.13542.45938.20313,1.0026.20313,1.62969ZM38.91563,106.29745c0-.54688-.04583-1.00625-.1375-1.37813s-.2151-.67083-.37031-.89688c-.15521-.22708-.33438-.38958-.5375-.4875-.20313-.09896-.41458-.14844-.63438-.14844s-.43177.04948-.63594.14844c-.20313.09792-.38125.26042-.53438.4875-.15313.22604-.27552.525-.36719.89688s-.1375.83125-.1375,1.37813.04583,1.00521.1375,1.375.21406.66823.36719.89531c.15313.22604.33125.38854.53438.4875.20417.09792.41615.14688.63594.14688s.43125-.04896.63438-.14688c.20313-.09896.38229-.26146.5375-.4875.15521-.22708.27865-.52552.37031-.89531s.1375-.82813.1375-1.375Z"/>
                  <path id="Lato-Regular-2e-7" data-name="Lato-Regular-2e" d="M40.69531,109.32714c0-.08646.01563-.16771.04688-.24375.03229-.07708.07604-.14375.13125-.2.05521-.05729.12083-.1026.19688-.13594.07708-.03333.15885-.05.24531-.05s.16771.01667.24375.05c.07708.03333.14375.07865.2.13594.05729.05625.1026.12292.13594.2.03333.07604.05.15729.05.24375,0,.08958-.01667.17188-.05.24688s-.07865.14115-.13594.19844c-.05625.05625-.12292.1-.2.13125-.07604.03229-.15729.04844-.24375.04844s-.16823-.01615-.24531-.04844c-.07604-.03125-.14167-.075-.19688-.13125-.05521-.05729-.09896-.12344-.13125-.19844-.03125-.075-.04688-.15729-.04688-.24688Z"/>
                  <path id="Lato-Regular-33-2" data-name="Lato-Regular-33" d="M45.49125,102.63182c.30313,0,.58281.04375.83906.13125.25729.08646.47813.2099.6625.37031.18542.15938.32969.3526.43281.57969.10313.22604.15469.4776.15469.75469,0,.22604-.02917.42865-.0875.60781-.05833.17813-.14167.3349-.25.47031-.10833.13438-.23906.24844-.39219.34219-.15313.09271-.325.16719-.51563.22344.46667.12396.81771.33125,1.05313.62188.23542.28958.35313.6526.35313,1.08906,0,.33021-.0625.62708-.1875.89063-.125.2625-.29583.48646-.5125.67188-.21667.18438-.46927.32604-.75781.425-.28854.09792-.59792.14688-.92813.14688-.38021,0-.70521-.0474-.975-.14219-.26979-.09479-.49792-.22552-.68438-.39219-.18646-.16667-.3401-.36406-.46094-.59219-.11979-.22917-.22135-.47708-.30469-.74375l.38594-.15938c.1-.04375.1974-.05521.29219-.03438.09479.01979.16406.07448.20781.16406.04271.09375.09635.20573.16094.33594.06563.12917.15521.25417.26875.375.11354.11979.25781.22135.43281.30469.175.08333.3974.125.66719.125.25,0,.46875-.04063.65625-.12188.18854-.08229.34531-.18854.47031-.31875s.21927-.275.28281-.43438c.06354-.16042.09531-.31875.09531-.475,0-.19375-.025-.37031-.075-.52969-.05-.16042-.14323-.29896-.27969-.41563s-.32396-.20833-.5625-.275c-.23854-.06667-.54427-.1-.91719-.1v-.64531c.30625-.00313.56667-.03646.78125-.1.21563-.06354.39063-.15.525-.25938.13542-.11042.23385-.24219.29531-.39531s.09219-.32292.09219-.50938c0-.20729-.03229-.3875-.09688-.54063s-.15365-.27969-.26719-.37969-.24792-.175-.40313-.225-.3224-.075-.50156-.075c-.18021,0-.34792.02656-.50313.07969s-.29219.1276-.41094.22344c-.11771.09479-.21667.20729-.29688.3375-.08021.12917-.13698.2724-.17031.42969-.04271.11667-.09688.19427-.1625.23281-.06458.0375-.15833.04792-.28125.03125l-.46563-.07969c.04688-.32708.13698-.61615.27031-.86719.13333-.25208.30208-.46302.50625-.63281.20521-.16979.4401-.29896.70469-.3875.26563-.08854.55208-.13281.85938-.13281Z"/>
                  <path id="Lato-Regular-30-14" data-name="Lato-Regular-30" d="M53.80062,106.29745c0,.62604-.06771,1.16823-.20313,1.62656-.13438.45833-.31823.8375-.55156,1.1375s-.50938.52344-.82813.67031c-.31771.14688-.65833.22031-1.02188.22031-.36667,0-.70781-.07344-1.02344-.22031-.31458-.14688-.58854-.37031-.82188-.67031s-.41667-.67917-.55-1.1375c-.13333-.45833-.2-1.00052-.2-1.62656,0-.62708.06667-1.17031.2-1.62969.13333-.46042.31667-.84115.55-1.14219.23333-.30208.50729-.52656.82188-.67344.31563-.14688.65677-.22031,1.02344-.22031.36354,0,.70417.07344,1.02188.22031.31875.14688.59479.37135.82813.67344.23333.30104.41719.68177.55156,1.14219.13542.45938.20313,1.0026.20313,1.62969ZM52.87562,106.29745c0-.54688-.04583-1.00625-.1375-1.37813s-.2151-.67083-.37031-.89688c-.15521-.22708-.33438-.38958-.5375-.4875-.20313-.09896-.41458-.14844-.63438-.14844s-.43177.04948-.63594.14844c-.20313.09792-.38125.26042-.53438.4875-.15313.22604-.27552.525-.36719.89688s-.1375.83125-.1375,1.37813.04583,1.00521.1375,1.375.21406.66823.36719.89531c.15313.22604.33125.38854.53438.4875.20417.09792.41615.14688.63594.14688s.43125-.04896.63438-.14688c.20313-.09896.38229-.26146.5375-.4875.15521-.22708.27865-.52552.37031-.89531s.1375-.82813.1375-1.375Z"/>
                </g>
              </g>
            </g>
            <g id="ytick_8">
              <g id="line2d_50">
                <g class="cls-11">
                  <path class="cls-2" d="M57.6,76.32537h357.12"/>
                </g>
              </g>
              <g id="text_17">
                <g>
                  <path id="Lato-Regular-30-15" data-name="Lato-Regular-30" d="M39.84063,76.42849c0,.62604-.06771,1.16823-.20313,1.62656-.13438.45833-.31823.8375-.55156,1.1375s-.50938.52344-.82813.67031c-.31771.14688-.65833.22031-1.02188.22031-.36667,0-.70781-.07344-1.02344-.22031-.31458-.14688-.58854-.37031-.82188-.67031s-.41667-.67917-.55-1.1375c-.13333-.45833-.2-1.00052-.2-1.62656,0-.62708.06667-1.17031.2-1.62969.13333-.46042.31667-.84115.55-1.14219.23333-.30208.50729-.52656.82188-.67344.31563-.14688.65677-.22031,1.02344-.22031.36354,0,.70417.07344,1.02188.22031.31875.14688.59479.37135.82813.67344.23333.30104.41719.68177.55156,1.14219.13542.45938.20313,1.0026.20313,1.62969ZM38.91563,76.42849c0-.54688-.04583-1.00625-.1375-1.37813s-.2151-.67083-.37031-.89688c-.15521-.22708-.33438-.38958-.5375-.4875-.20313-.09896-.41458-.14844-.63438-.14844s-.43177.04948-.63594.14844c-.20313.09792-.38125.26042-.53438.4875-.15313.22604-.27552.525-.36719.89688s-.1375.83125-.1375,1.37813.04583,1.00521.1375,1.375.21406.66823.36719.89531c.15313.22604.33125.38854.53438.4875.20417.09792.41615.14688.63594.14688s.43125-.04896.63438-.14688c.20313-.09896.38229-.26146.5375-.4875.15521-.22708.27865-.52552.37031-.89531s.1375-.82813.1375-1.375Z"/>
                  <path id="Lato-Regular-2e-8" data-name="Lato-Regular-2e" d="M40.69531,79.45818c0-.08646.01563-.16771.04688-.24375.03229-.07708.07604-.14375.13125-.2.05521-.05729.12083-.1026.19688-.13594.07708-.03333.15885-.05.24531-.05s.16771.01667.24375.05c.07708.03333.14375.07865.2.13594.05729.05625.1026.12292.13594.2.03333.07604.05.15729.05.24375,0,.08958-.01667.17188-.05.24688s-.07865.14115-.13594.19844c-.05625.05625-.12292.1-.2.13125-.07604.03229-.15729.04844-.24375.04844s-.16823-.01615-.24531-.04844c-.07604-.03125-.14167-.075-.19688-.13125-.05521-.05729-.09896-.12344-.13125-.19844-.03125-.075-.04688-.15729-.04688-.24688Z"/>
                  <path id="Lato-Regular-33-3" data-name="Lato-Regular-33" d="M45.49125,72.76287c.30313,0,.58281.04375.83906.13125.25729.08646.47813.2099.6625.37031.18542.15938.32969.3526.43281.57969.10313.22604.15469.4776.15469.75469,0,.22604-.02917.42865-.0875.60781-.05833.17813-.14167.3349-.25.47031-.10833.13438-.23906.24844-.39219.34219-.15313.09271-.325.16719-.51563.22344.46667.12396.81771.33125,1.05313.62188.23542.28958.35313.6526.35313,1.08906,0,.33021-.0625.62708-.1875.89063-.125.2625-.29583.48646-.5125.67188-.21667.18438-.46927.32604-.75781.425-.28854.09792-.59792.14688-.92813.14688-.38021,0-.70521-.0474-.975-.14219-.26979-.09479-.49792-.22552-.68438-.39219-.18646-.16667-.3401-.36406-.46094-.59219-.11979-.22917-.22135-.47708-.30469-.74375l.38594-.15938c.1-.04375.1974-.05521.29219-.03438.09479.01979.16406.07448.20781.16406.04271.09375.09635.20573.16094.33594.06563.12917.15521.25417.26875.375.11354.11979.25781.22135.43281.30469.175.08333.3974.125.66719.125.25,0,.46875-.04063.65625-.12188.18854-.08229.34531-.18854.47031-.31875s.21927-.275.28281-.43438c.06354-.16042.09531-.31875.09531-.475,0-.19375-.025-.37031-.075-.52969-.05-.16042-.14323-.29896-.27969-.41563s-.32396-.20833-.5625-.275c-.23854-.06667-.54427-.1-.91719-.1v-.64531c.30625-.00313.56667-.03646.78125-.1.21563-.06354.39063-.15.525-.25938.13542-.11042.23385-.24219.29531-.39531s.09219-.32292.09219-.50938c0-.20729-.03229-.3875-.09688-.54063s-.15365-.27969-.26719-.37969-.24792-.175-.40313-.225-.3224-.075-.50156-.075c-.18021,0-.34792.02656-.50313.07969s-.29219.1276-.41094.22344c-.11771.09479-.21667.20729-.29688.3375-.08021.12917-.13698.2724-.17031.42969-.04271.11667-.09688.19427-.1625.23281-.06458.0375-.15833.04792-.28125.03125l-.46563-.07969c.04688-.32708.13698-.61615.27031-.86719.13333-.25208.30208-.46302.50625-.63281.20521-.16979.4401-.29896.70469-.3875.26563-.08854.55208-.13281.85938-.13281Z"/>
                  <path id="Lato-Regular-35-5" data-name="Lato-Regular-35" d="M53.21,73.23318c0,.12708-.03906.23125-.11719.3125s-.21198.12188-.40156.12188h-2.25l-.33125,1.88125c.19063-.04375.36979-.07448.5375-.09219.16875-.01875.33333-.02813.49375-.02813.37292,0,.7026.05521.98906.16563.28646.10938.52552.26094.71719.45469.19167.19271.33646.42083.43438.68438.09896.26354.14844.55.14844.85938,0,.38021-.06615.72396-.19844,1.03125-.13125.30625-.3125.56875-.54375.7875-.23125.21771-.50365.3849-.81719.50156-.31354.11667-.65208.175-1.01563.175-.20938,0-.41094-.02083-.60469-.0625-.19375-.04167-.375-.0974-.54375-.16719-.16771-.06979-.32344-.14948-.46719-.23906-.14271-.09063-.26927-.18594-.37969-.28594l.275-.37969c.06042-.08646.13906-.12969.23594-.12969.06667,0,.14167.02604.225.07813.08333.05104.1849.10833.30469.17188.11979.0625.26042.11979.42188.17188.1625.05208.35521.07813.57813.07813.25,0,.475-.0401.675-.12031.2-.08021.37135-.19427.51406-.34219.14375-.14896.25365-.32656.32969-.53281.07708-.20729.11563-.43906.11563-.69531,0-.22292-.03229-.42448-.09688-.60469s-.16302-.33333-.29531-.45938c-.13125-.12708-.29531-.22552-.49219-.29531-.19688-.07083-.42708-.10625-.69063-.10625-.17917,0-.36667.0151-.5625.04531-.19479.03021-.39375.07865-.59688.14531l-.55938-.16563.575-3.35h3.39375v.39063Z"/>
                </g>
              </g>
            </g>
            <g id="ytick_9">
              <g id="line2d_51">
                <g class="cls-16">
                  <path class="cls-2" d="M57.6,46.45643h357.12"/>
                </g>
              </g>
              <g id="text_18">
                <g>
                  <path id="Lato-Regular-30-16" data-name="Lato-Regular-30" d="M39.84063,46.55959c0,.62604-.06771,1.16823-.20313,1.62656-.13438.45833-.31823.8375-.55156,1.1375s-.50938.52344-.82813.67031c-.31771.14688-.65833.22031-1.02188.22031-.36667,0-.70781-.07344-1.02344-.22031-.31458-.14688-.58854-.37031-.82188-.67031s-.41667-.67917-.55-1.1375c-.13333-.45833-.2-1.00052-.2-1.62656,0-.62708.06667-1.17031.2-1.62969.13333-.46042.31667-.84115.55-1.14219.23333-.30208.50729-.52656.82188-.67344.31563-.14688.65677-.22031,1.02344-.22031.36354,0,.70417.07344,1.02188.22031.31875.14688.59479.37135.82813.67344.23333.30104.41719.68177.55156,1.14219.13542.45938.20313,1.0026.20313,1.62969ZM38.91563,46.55959c0-.54688-.04583-1.00625-.1375-1.37813s-.2151-.67083-.37031-.89688c-.15521-.22708-.33438-.38958-.5375-.4875-.20313-.09896-.41458-.14844-.63438-.14844s-.43177.04948-.63594.14844c-.20313.09792-.38125.26042-.53438.4875-.15313.22604-.27552.525-.36719.89688s-.1375.83125-.1375,1.37813.04583,1.00521.1375,1.375.21406.66823.36719.89531c.15313.22604.33125.38854.53438.4875.20417.09792.41615.14688.63594.14688s.43125-.04896.63438-.14688c.20313-.09896.38229-.26146.5375-.4875.15521-.22708.27865-.52552.37031-.89531s.1375-.82813.1375-1.375Z"/>
                  <path id="Lato-Regular-2e-9" data-name="Lato-Regular-2e" d="M40.69531,49.58928c0-.08646.01563-.16771.04688-.24375.03229-.07708.07604-.14375.13125-.2.05521-.05729.12083-.1026.19688-.13594.07708-.03333.15885-.05.24531-.05s.16771.01667.24375.05c.07708.03333.14375.07865.2.13594.05729.05625.1026.12292.13594.2.03333.07604.05.15729.05.24375,0,.08958-.01667.17188-.05.24688s-.07865.14115-.13594.19844c-.05625.05625-.12292.1-.2.13125-.07604.03229-.15729.04844-.24375.04844s-.16823-.01615-.24531-.04844c-.07604-.03125-.14167-.075-.19688-.13125-.05521-.05729-.09896-.12344-.13125-.19844-.03125-.075-.04688-.15729-.04688-.24688Z"/>
                  <path id="Lato-Regular-34-2" data-name="Lato-Regular-34" d="M46.93031,47.55491h1.08594v.50938c0,.05313-.01615.09844-.04844.13594-.03125.03646-.08021.05469-.14688.05469h-.89063v1.88438h-.77969v-1.88438h-3.17969c-.06667,0-.12448-.01927-.17344-.05781-.04792-.03854-.07865-.08594-.09219-.14219l-.08906-.45625,3.48438-4.625h.82969v4.58125ZM46.15063,44.59866c0-.08646.0026-.18021.00781-.28125.00521-.10208.01615-.20625.03281-.3125l-2.61094,3.55h2.57031v-2.95625Z"/>
                  <path id="Lato-Regular-30-17" data-name="Lato-Regular-30" d="M53.80062,46.55959c0,.62604-.06771,1.16823-.20313,1.62656-.13438.45833-.31823.8375-.55156,1.1375s-.50938.52344-.82813.67031c-.31771.14688-.65833.22031-1.02188.22031-.36667,0-.70781-.07344-1.02344-.22031-.31458-.14688-.58854-.37031-.82188-.67031s-.41667-.67917-.55-1.1375c-.13333-.45833-.2-1.00052-.2-1.62656,0-.62708.06667-1.17031.2-1.62969.13333-.46042.31667-.84115.55-1.14219.23333-.30208.50729-.52656.82188-.67344.31563-.14688.65677-.22031,1.02344-.22031.36354,0,.70417.07344,1.02188.22031.31875.14688.59479.37135.82813.67344.23333.30104.41719.68177.55156,1.14219.13542.45938.20313,1.0026.20313,1.62969ZM52.87562,46.55959c0-.54688-.04583-1.00625-.1375-1.37813s-.2151-.67083-.37031-.89688c-.15521-.22708-.33438-.38958-.5375-.4875-.20313-.09896-.41458-.14844-.63438-.14844s-.43177.04948-.63594.14844c-.20313.09792-.38125.26042-.53438.4875-.15313.22604-.27552.525-.36719.89688s-.1375.83125-.1375,1.37813.04583,1.00521.1375,1.375.21406.66823.36719.89531c.15313.22604.33125.38854.53438.4875.20417.09792.41615.14688.63594.14688s.43125-.04896.63438-.14688c.20313-.09896.38229-.26146.5375-.4875.15521-.22708.27865-.52552.37031-.89531s.1375-.82813.1375-1.375Z"/>
                </g>
              </g>
            </g>
          </g>
          <g id="line2d_52">
            <g class="cls-13">
              <g>
                <path id="m8b285ca4b1" class="cls-8" d="M87.36,286.90799c.39781,0,.77937-.15805,1.06066-.43934.28129-.28129.43934-.66285.43934-1.06066s-.15805-.77937-.43934-1.06066c-.28129-.28129-.66285-.43934-1.06066-.43934s-.77937.15805-1.06066.43934c-.28129.28129-.43934.66285-.43934,1.06066s.15805.77937.43934,1.06066c.28129.28129.66285.43934,1.06066.43934Z"/>
                <path id="m8b285ca4b1-2" data-name="m8b285ca4b1" class="cls-8" d="M93.43347,212.25667c.39781,0,.77937-.15805,1.06066-.43934.28129-.28129.43934-.66285.43934-1.06066s-.15805-.77937-.43934-1.06066c-.28129-.28129-.66285-.43934-1.06066-.43934s-.77937.15805-1.06066.43934c-.28129.28129-.43934.66285-.43934,1.06066s.15805.77937.43934,1.06066c.28129.28129.66285.43934,1.06066.43934Z"/>
                <path id="m8b285ca4b1-3" data-name="m8b285ca4b1" class="cls-8" d="M99.50694,157.48082c.39781,0,.77937-.15805,1.06066-.43934.28129-.28129.43934-.66285.43934-1.06066s-.15805-.77937-.43934-1.06066c-.28129-.28129-.66285-.43934-1.06066-.43934s-.77937.15805-1.06066.43934c-.28129.28129-.43934.66285-.43934,1.06066s.15805.77937.43934,1.06066c.28129.28129.66285.43934,1.06066.43934Z"/>
                <path id="m8b285ca4b1-4" data-name="m8b285ca4b1" class="cls-8" d="M105.58041,118.61165c.39781,0,.77937-.15805,1.06066-.43934.28129-.28129.43934-.66285.43934-1.06066s-.15805-.77937-.43934-1.06066c-.28129-.28129-.66285-.43934-1.06066-.43934s-.77937.15805-1.06066.43934c-.28129.28129-.43934.66285-.43934,1.06066s.15805.77937.43934,1.06066c.28129.28129.66285.43934,1.06066.43934Z"/>
                <path id="m8b285ca4b1-5" data-name="m8b285ca4b1" class="cls-8" d="M111.65388,92.38481c.39781,0,.77937-.15805,1.06066-.43934.28129-.28129.43934-.66285.43934-1.06066s-.15805-.77937-.43934-1.06066c-.28129-.28129-.66285-.43934-1.06066-.43934s-.77937.15805-1.06066.43934c-.28129.28129-.43934.66285-.43934,1.06066s.15805.77937.43934,1.06066c.28129.28129.66285.43934,1.06066.43934Z"/>
                <path id="m8b285ca4b1-6" data-name="m8b285ca4b1" class="cls-8" d="M117.72735,76.12318c.39781,0,.77937-.15805,1.06066-.43934.28129-.28129.43934-.66285.43934-1.06066s-.15805-.77937-.43934-1.06066c-.28129-.28129-.66285-.43934-1.06066-.43934s-.77937.15805-1.06066.43934c-.28129.28129-.43934.66285-.43934,1.06066s.15805.77937.43934,1.06066c.28129.28129.66285.43934,1.06066.43934Z"/>
                <path id="m8b285ca4b1-7" data-name="m8b285ca4b1" class="cls-8" d="M123.80082,67.63837c.39781,0,.77937-.15805,1.06066-.43934.28129-.28129.43934-.66285.43934-1.06066s-.15805-.77937-.43934-1.06066c-.28129-.28129-.66285-.43934-1.06066-.43934s-.77937.15805-1.06066.43934c-.28129.28129-.43934.66285-.43934,1.06066s.15805.77937.43934,1.06066c.28129.28129.66285.43934,1.06066.43934Z"/>
                <path id="m8b285ca4b1-8" data-name="m8b285ca4b1" class="cls-8" d="M129.87428,65.148c.39781,0,.77937-.15805,1.06066-.43934.28129-.28129.43934-.66285.43934-1.06066s-.15805-.77937-.43934-1.06066c-.28129-.28129-.66285-.43934-1.06066-.43934s-.77937.15805-1.06066.43934c-.28129.28129-.43934.66285-.43934,1.06066s.15805.77937.43934,1.06066c.28129.28129.66285.43934,1.06066.43934Z"/>
                <path id="m8b285ca4b1-9" data-name="m8b285ca4b1" class="cls-8" d="M135.94775,67.20647c.39781,0,.77937-.15805,1.06066-.43934.28129-.28129.43934-.66285.43934-1.06066s-.15805-.77937-.43934-1.06066c-.28129-.28129-.66285-.43934-1.06066-.43934s-.77937.15805-1.06066.43934c-.28129.28129-.43934.66285-.43934,1.06066s.15805.77937.43934,1.06066c.28129.28129.66285.43934,1.06066.43934Z"/>
                <path id="m8b285ca4b1-10" data-name="m8b285ca4b1" class="cls-8" d="M142.02122,72.6468c.39781,0,.77937-.15805,1.06066-.43934.28129-.28129.43934-.66285.43934-1.06066s-.15805-.77937-.43934-1.06066c-.28129-.28129-.66285-.43934-1.06066-.43934s-.77937.15805-1.06066.43934c-.28129.28129-.43934.66285-.43934,1.06066s.15805.77937.43934,1.06066c.28129.28129.66285.43934,1.06066.43934Z"/>
                <path id="m8b285ca4b1-11" data-name="m8b285ca4b1" class="cls-8" d="M148.0947,80.5321c.39781,0,.77937-.15805,1.06066-.43934.28129-.28129.43934-.66285.43934-1.06066s-.15805-.77937-.43934-1.06066c-.28129-.28129-.66285-.43934-1.06066-.43934s-.77937.15805-1.06066.43934c-.28129.28129-.43934.66285-.43934,1.06066s.15805.77937.43934,1.06066c.28129.28129.66285.43934,1.06066.43934Z"/>
                <path id="m8b285ca4b1-12" data-name="m8b285ca4b1" class="cls-8" d="M154.16817,90.11503c.39781,0,.77937-.15805,1.06066-.43934.28129-.28129.43934-.66285.43934-1.06066s-.15805-.77937-.43934-1.06066c-.28129-.28129-.66285-.43934-1.06066-.43934s-.77937.15805-1.06066.43934c-.28129.28129-.43934.66285-.43934,1.06066s.15805.77937.43934,1.06066c.28129.28129.66285.43934,1.06066.43934Z"/>
                <path id="m8b285ca4b1-13" data-name="m8b285ca4b1" class="cls-8" d="M160.24164,100.80384c.39781,0,.77937-.15805,1.06066-.43934.28129-.28129.43934-.66285.43934-1.06066s-.15805-.77937-.43934-1.06066c-.28129-.28129-.66285-.43934-1.06066-.43934s-.77937.15805-1.06066.43934c-.28129.28129-.43934.66285-.43934,1.06066s.15805.77937.43934,1.06066c.28129.28129.66285.43934,1.06066.43934Z"/>
                <path id="m8b285ca4b1-14" data-name="m8b285ca4b1" class="cls-8" d="M166.31511,112.13428c.39781,0,.77937-.15805,1.06066-.43934.28129-.28129.43934-.66285.43934-1.06066s-.15805-.77937-.43934-1.06066c-.28129-.28129-.66285-.43934-1.06066-.43934s-.77937.15805-1.06066.43934c-.28129.28129-.43934.66285-.43934,1.06066s.15805.77937.43934,1.06066c.28129.28129.66285.43934,1.06066.43934Z"/>
                <path id="m8b285ca4b1-15" data-name="m8b285ca4b1" class="cls-8" d="M172.38857,123.74611c.39781,0,.77937-.15805,1.06066-.43934.28129-.28129.43934-.66285.43934-1.06066s-.15805-.77937-.43934-1.06066c-.28129-.28129-.66285-.43934-1.06066-.43934s-.77937.15805-1.06066.43934c-.28129.28129-.43934.66285-.43934,1.06066s.15805.77937.43934,1.06066c.28129.28129.66285.43934,1.06066.43934Z"/>
                <path id="m8b285ca4b1-16" data-name="m8b285ca4b1" class="cls-8" d="M178.46204,135.3636c.39781,0,.77937-.15805,1.06066-.43934.28129-.28129.43934-.66285.43934-1.06066s-.15805-.77937-.43934-1.06066c-.28129-.28129-.66285-.43934-1.06066-.43934s-.77937.15805-1.06066.43934c-.28129.28129-.43934.66285-.43934,1.06066s.15805.77937.43934,1.06066c.28129.28129.66285.43934,1.06066.43934Z"/>
                <path id="m8b285ca4b1-17" data-name="m8b285ca4b1" class="cls-8" d="M184.53551,146.77948c.39781,0,.77937-.15805,1.06066-.43934.28129-.28129.43934-.66285.43934-1.06066s-.15805-.77937-.43934-1.06066c-.28129-.28129-.66285-.43934-1.06066-.43934s-.77937.15805-1.06066.43934c-.28129.28129-.43934.66285-.43934,1.06066s.15805.77937.43934,1.06066c.28129.28129.66285.43934,1.06066.43934Z"/>
                <path id="m8b285ca4b1-18" data-name="m8b285ca4b1" class="cls-8" d="M190.60898,157.84154c.39781,0,.77937-.15805,1.06066-.43934.28129-.28129.43934-.66285.43934-1.06066s-.15805-.77937-.43934-1.06066c-.28129-.28129-.66285-.43934-1.06066-.43934s-.77937.15805-1.06066.43934c-.28129.28129-.43934.66285-.43934,1.06066s.15805.77937.43934,1.06066c.28129.28129.66285.43934,1.06066.43934Z"/>
                <path id="m8b285ca4b1-19" data-name="m8b285ca4b1" class="cls-8" d="M196.68245,168.44168c.39781,0,.77937-.15805,1.06066-.43934.28129-.28129.43934-.66285.43934-1.06066s-.15805-.77937-.43934-1.06066c-.28129-.28129-.66285-.43934-1.06066-.43934s-.77937.15805-1.06066.43934c-.28129.28129-.43934.66285-.43934,1.06066s.15805.77937.43934,1.06066c.28129.28129.66285.43934,1.06066.43934Z"/>
                <path id="m8b285ca4b1-20" data-name="m8b285ca4b1" class="cls-8" d="M202.75592,178.50684c.39781,0,.77937-.15805,1.06066-.43934.28129-.28129.43934-.66285.43934-1.06066s-.15805-.77937-.43934-1.06066c-.28129-.28129-.66285-.43934-1.06066-.43934s-.77937.15805-1.06066.43934c-.28129.28129-.43934.66285-.43934,1.06066s.15805.77937.43934,1.06066c.28129.28129.66285.43934,1.06066.43934Z"/>
                <path id="m8b285ca4b1-21" data-name="m8b285ca4b1" class="cls-9" d="M208.82939,187.99161c.39781,0,.77937-.15805,1.06066-.43934.28129-.28129.43934-.66285.43934-1.06066s-.15805-.77937-.43934-1.06066c-.28129-.28129-.66285-.43934-1.06066-.43934s-.77937.15805-1.06066.43934c-.28129.28129-.43934.66285-.43934,1.06066s.15805.77937.43934,1.06066c.28129.28129.66285.43934,1.06066.43934Z"/>
                <path id="m8b285ca4b1-22" data-name="m8b285ca4b1" class="cls-8" d="M214.90286,196.87215c.39781,0,.77937-.15805,1.06066-.43934.28129-.28129.43934-.66285.43934-1.06066s-.15805-.77937-.43934-1.06066c-.28129-.28129-.66285-.43934-1.06066-.43934s-.77937.15805-1.06066.43934c-.28129.28129-.43934.66285-.43934,1.06066s.15805.77937.43934,1.06066c.28129.28129.66285.43934,1.06066.43934Z"/>
                <path id="m8b285ca4b1-23" data-name="m8b285ca4b1" class="cls-8" d="M220.97633,205.14124c.39781,0,.77937-.15805,1.06066-.43934.28129-.28129.43934-.66285.43934-1.06066s-.15805-.77937-.43934-1.06066c-.28129-.28129-.66285-.43934-1.06066-.43934s-.77937.15805-1.06066.43934c-.28129.28129-.43934.66285-.43934,1.06066s.15805.77937.43934,1.06066c.28129.28129.66285.43934,1.06066.43934Z"/>
                <path id="m8b285ca4b1-24" data-name="m8b285ca4b1" class="cls-8" d="M227.04979,212.80429c.39781,0,.77937-.15805,1.06066-.43934.28129-.28129.43934-.66285.43934-1.06066s-.15805-.77937-.43934-1.06066c-.28129-.28129-.66285-.43934-1.06066-.43934s-.77937.15805-1.06066.43934c-.28129.28129-.43934.66285-.43934,1.06066s.15805.77937.43934,1.06066c.28129.28129.66285.43934,1.06066.43934Z"/>
                <path id="m8b285ca4b1-25" data-name="m8b285ca4b1" class="cls-8" d="M233.12326,219.87614c.39781,0,.77937-.15805,1.06066-.43934.28129-.28129.43934-.66285.43934-1.06066s-.15805-.77937-.43934-1.06066c-.28129-.28129-.66285-.43934-1.06066-.43934s-.77937.15805-1.06066.43934c-.28129.28129-.43934.66285-.43934,1.06066s.15805.77937.43934,1.06066c.28129.28129.66285.43934,1.06066.43934Z"/>
                <path id="m8b285ca4b1-26" data-name="m8b285ca4b1" class="cls-8" d="M239.19673,226.37839c.39781,0,.77937-.15805,1.06066-.43934.28129-.28129.43934-.66285.43934-1.06066s-.15805-.77937-.43934-1.06066c-.28129-.28129-.66285-.43934-1.06066-.43934s-.77937.15805-1.06066.43934c-.28129.28129-.43934.66285-.43934,1.06066s.15805.77937.43934,1.06066c.28129.28129.66285.43934,1.06066.43934Z"/>
                <path id="m8b285ca4b1-27" data-name="m8b285ca4b1" class="cls-8" d="M245.2702,232.33734c.39781,0,.77937-.15805,1.06066-.43934.28129-.28129.43934-.66285.43934-1.06066s-.15805-.77937-.43934-1.06066c-.28129-.28129-.66285-.43934-1.06066-.43934s-.77937.15805-1.06066.43934c-.28129.28129-.43934.66285-.43934,1.06066s.15805.77937.43934,1.06066c.28129.28129.66285.43934,1.06066.43934Z"/>
                <path id="m8b285ca4b1-28" data-name="m8b285ca4b1" class="cls-8" d="M251.34367,237.78244c.39781,0,.77937-.15805,1.06066-.43934.28129-.28129.43934-.66285.43934-1.06066s-.15805-.77937-.43934-1.06066c-.28129-.28129-.66285-.43934-1.06066-.43934s-.77937.15805-1.06066.43934c-.28129.28129-.43934.66285-.43934,1.06066s.15805.77937.43934,1.06066c.28129.28129.66285.43934,1.06066.43934Z"/>
                <path id="m8b285ca4b1-29" data-name="m8b285ca4b1" class="cls-8" d="M257.41714,242.74487c.39781,0,.77937-.15805,1.06066-.43934.28129-.28129.43934-.66285.43934-1.06066s-.15805-.77937-.43934-1.06066c-.28129-.28129-.66285-.43934-1.06066-.43934s-.77937.15805-1.06066.43934c-.28129.28129-.43934.66285-.43934,1.06066s.15805.77937.43934,1.06066c.28129.28129.66285.43934,1.06066.43934Z"/>
                <path id="m8b285ca4b1-30" data-name="m8b285ca4b1" class="cls-8" d="M263.4906,247.25668c.39781,0,.77937-.15805,1.06066-.43934.28129-.28129.43934-.66285.43934-1.06066s-.15805-.77937-.43934-1.06066c-.28129-.28129-.66285-.43934-1.06066-.43934s-.77937.15805-1.06066.43934c-.28129.28129-.43934.66285-.43934,1.06066s.15805.77937.43934,1.06066c.28129.28129.66285.43934,1.06066.43934Z"/>
                <path id="m8b285ca4b1-31" data-name="m8b285ca4b1" class="cls-8" d="M269.56409,251.34987c.39781,0,.77937-.15805,1.06066-.43934.28129-.28129.43934-.66285.43934-1.06066s-.15805-.77937-.43934-1.06066c-.28129-.28129-.66285-.43934-1.06066-.43934s-.77937.15805-1.06066.43934c-.28129.28129-.43934.66285-.43934,1.06066s.15805.77937.43934,1.06066c.28129.28129.66285.43934,1.06066.43934Z"/>
                <path id="m8b285ca4b1-32" data-name="m8b285ca4b1" class="cls-8" d="M275.63754,255.05597c.39781,0,.77937-.15805,1.06066-.43934.28129-.28129.43934-.66285.43934-1.06066s-.15805-.77937-.43934-1.06066c-.28129-.28129-.66285-.43934-1.06066-.43934s-.77937.15805-1.06066.43934c-.28129.28129-.43934.66285-.43934,1.06066s.15805.77937.43934,1.06066c.28129.28129.66285.43934,1.06066.43934Z"/>
                <path id="m8b285ca4b1-33" data-name="m8b285ca4b1" class="cls-8" d="M281.71103,258.40546c.39781,0,.77937-.15805,1.06066-.43934.28129-.28129.43934-.66285.43934-1.06066s-.15805-.77937-.43934-1.06066c-.28129-.28129-.66285-.43934-1.06066-.43934s-.77937.15805-1.06066.43934c-.28129.28129-.43934.66285-.43934,1.06066s.15805.77937.43934,1.06066c.28129.28129.66285.43934,1.06066.43934Z"/>
                <path id="m8b285ca4b1-34" data-name="m8b285ca4b1" class="cls-8" d="M287.78448,261.42764c.39781,0,.77937-.15805,1.06066-.43934.28129-.28129.43934-.66285.43934-1.06066s-.15805-.77937-.43934-1.06066c-.28129-.28129-.66285-.43934-1.06066-.43934s-.77937.15805-1.06066.43934c-.28129.28129-.43934.66285-.43934,1.06066s.15805.77937.43934,1.06066c.28129.28129.66285.43934,1.06066.43934Z"/>
                <path id="m8b285ca4b1-35" data-name="m8b285ca4b1" class="cls-8" d="M293.85797,264.1503c.39781,0,.77937-.15805,1.06066-.43934.28129-.28129.43934-.66285.43934-1.06066s-.15805-.77937-.43934-1.06066c-.28129-.28129-.66285-.43934-1.06066-.43934s-.77937.15805-1.06066.43934c-.28129.28129-.43934.66285-.43934,1.06066s.15805.77937.43934,1.06066c.28129.28129.66285.43934,1.06066.43934Z"/>
                <path id="m8b285ca4b1-36" data-name="m8b285ca4b1" class="cls-8" d="M299.93143,266.59961c.39781,0,.77937-.15805,1.06066-.43934.28129-.28129.43934-.66285.43934-1.06066s-.15805-.77937-.43934-1.06066c-.28129-.28129-.66285-.43934-1.06066-.43934s-.77937.15805-1.06066.43934c-.28129.28129-.43934.66285-.43934,1.06066s.15805.77937.43934,1.06066c.28129.28129.66285.43934,1.06066.43934Z"/>
                <path id="m8b285ca4b1-37" data-name="m8b285ca4b1" class="cls-8" d="M306.00488,268.80011c.39781,0,.77937-.15805,1.06066-.43934.28129-.28129.43934-.66285.43934-1.06066s-.15805-.77937-.43934-1.06066c-.28129-.28129-.66285-.43934-1.06066-.43934s-.77937.15805-1.06066.43934c-.28129.28129-.43934.66285-.43934,1.06066s.15805.77937.43934,1.06066c.28129.28129.66285.43934,1.06066.43934Z"/>
                <path id="m8b285ca4b1-38" data-name="m8b285ca4b1" class="cls-8" d="M312.07837,270.77463c.39781,0,.77937-.15805,1.06066-.43934.28129-.28129.43934-.66285.43934-1.06066s-.15805-.77937-.43934-1.06066c-.28129-.28129-.66285-.43934-1.06066-.43934s-.77937.15805-1.06066.43934c-.28129.28129-.43934.66285-.43934,1.06066s.15805.77937.43934,1.06066c.28129.28129.66285.43934,1.06066.43934Z"/>
                <path id="m8b285ca4b1-39" data-name="m8b285ca4b1" class="cls-8" d="M318.15182,272.54434c.39781,0,.77937-.15805,1.06066-.43934.28129-.28129.43934-.66285.43934-1.06066s-.15805-.77937-.43934-1.06066c-.28129-.28129-.66285-.43934-1.06066-.43934s-.77937.15805-1.06066.43934c-.28129.28129-.43934.66285-.43934,1.06066s.15805.77937.43934,1.06066c.28129.28129.66285.43934,1.06066.43934Z"/>
                <path id="m8b285ca4b1-40" data-name="m8b285ca4b1" class="cls-8" d="M324.22531,274.12881c.39781,0,.77937-.15805,1.06066-.43934.28129-.28129.43934-.66285.43934-1.06066s-.15805-.77937-.43934-1.06066c-.28129-.28129-.66285-.43934-1.06066-.43934s-.77937.15805-1.06066.43934c-.28129.28129-.43934.66285-.43934,1.06066s.15805.77937.43934,1.06066c.28129.28129.66285.43934,1.06066.43934Z"/>
                <path id="m8b285ca4b1-41" data-name="m8b285ca4b1" class="cls-8" d="M330.29877,275.54596c.39781,0,.77937-.15805,1.06066-.43934.28129-.28129.43934-.66285.43934-1.06066s-.15805-.77937-.43934-1.06066c-.28129-.28129-.66285-.43934-1.06066-.43934s-.77937.15805-1.06066.43934c-.28129.28129-.43934.66285-.43934,1.06066s.15805.77937.43934,1.06066c.28129.28129.66285.43934,1.06066.43934Z"/>
                <path id="m8b285ca4b1-42" data-name="m8b285ca4b1" class="cls-8" d="M336.37225,276.81226c.39781,0,.77937-.15805,1.06066-.43934.28129-.28129.43934-.66285.43934-1.06066s-.15805-.77937-.43934-1.06066c-.28129-.28129-.66285-.43934-1.06066-.43934s-.77937.15805-1.06066.43934c-.28129.28129-.43934.66285-.43934,1.06066s.15805.77937.43934,1.06066c.28129.28129.66285.43934,1.06066.43934Z"/>
                <path id="m8b285ca4b1-43" data-name="m8b285ca4b1" class="cls-8" d="M342.44571,277.94275c.39781,0,.77937-.15805,1.06066-.43934.28129-.28129.43934-.66285.43934-1.06066s-.15805-.77937-.43934-1.06066c-.28129-.28129-.66285-.43934-1.06066-.43934s-.77937.15805-1.06066.43934c-.28129.28129-.43934.66285-.43934,1.06066s.15805.77937.43934,1.06066c.28129.28129.66285.43934,1.06066.43934Z"/>
                <path id="m8b285ca4b1-44" data-name="m8b285ca4b1" class="cls-8" d="M348.5192,278.95117c.39781,0,.77937-.15805,1.06066-.43934.28129-.28129.43934-.66285.43934-1.06066s-.15805-.77937-.43934-1.06066c-.28129-.28129-.66285-.43934-1.06066-.43934s-.77937.15805-1.06066.43934c-.28129.28129-.43934.66285-.43934,1.06066s.15805.77937.43934,1.06066c.28129.28129.66285.43934,1.06066.43934Z"/>
                <path id="m8b285ca4b1-45" data-name="m8b285ca4b1" class="cls-8" d="M354.59265,279.85001c.39781,0,.77937-.15805,1.06066-.43934.28129-.28129.43934-.66285.43934-1.06066s-.15805-.77937-.43934-1.06066c-.28129-.28129-.66285-.43934-1.06066-.43934s-.77937.15805-1.06066.43934c-.28129.28129-.43934.66285-.43934,1.06066s.15805.77937.43934,1.06066c.28129.28129.66285.43934,1.06066.43934Z"/>
                <path id="m8b285ca4b1-46" data-name="m8b285ca4b1" class="cls-8" d="M360.66611,280.65051c.39781,0,.77937-.15805,1.06066-.43934.28129-.28129.43934-.66285.43934-1.06066s-.15805-.77937-.43934-1.06066c-.28129-.28129-.66285-.43934-1.06066-.43934s-.77937.15805-1.06066.43934c-.28129.28129-.43934.66285-.43934,1.06066s.15805.77937.43934,1.06066c.28129.28129.66285.43934,1.06066.43934Z"/>
                <path id="m8b285ca4b1-47" data-name="m8b285ca4b1" class="cls-8" d="M366.73959,281.36298c.39781,0,.77937-.15805,1.06066-.43934.28129-.28129.43934-.66285.43934-1.06066s-.15805-.77937-.43934-1.06066c-.28129-.28129-.66285-.43934-1.06066-.43934s-.77937.15805-1.06066.43934c-.28129.28129-.43934.66285-.43934,1.06066s.15805.77937.43934,1.06066c.28129.28129.66285.43934,1.06066.43934Z"/>
                <path id="m8b285ca4b1-48" data-name="m8b285ca4b1" class="cls-8" d="M372.81305,281.99664c.39781,0,.77937-.15805,1.06066-.43934.28129-.28129.43934-.66285.43934-1.06066s-.15805-.77937-.43934-1.06066c-.28129-.28129-.66285-.43934-1.06066-.43934s-.77937.15805-1.06066.43934c-.28129.28129-.43934.66285-.43934,1.06066s.15805.77937.43934,1.06066c.28129.28129.66285.43934,1.06066.43934Z"/>
                <path id="m8b285ca4b1-49" data-name="m8b285ca4b1" class="cls-8" d="M378.88654,282.55988c.39781,0,.77937-.15805,1.06066-.43934.28129-.28129.43934-.66285.43934-1.06066s-.15805-.77937-.43934-1.06066c-.28129-.28129-.66285-.43934-1.06066-.43934s-.77937.15805-1.06066.43934c-.28129.28129-.43934.66285-.43934,1.06066s.15805.77937.43934,1.06066c.28129.28129.66285.43934,1.06066.43934Z"/>
                <path id="m8b285ca4b1-50" data-name="m8b285ca4b1" class="cls-8" d="M384.95999,283.06018c.39781,0,.77937-.15805,1.06066-.43934.28129-.28129.43934-.66285.43934-1.06066s-.15805-.77937-.43934-1.06066c-.28129-.28129-.66285-.43934-1.06066-.43934s-.77937.15805-1.06066.43934c-.28129.28129-.43934.66285-.43934,1.06066s.15805.77937.43934,1.06066c.28129.28129.66285.43934,1.06066.43934Z"/>
              </g>
            </g>
          </g>
          <g id="patch_3">
            <path class="cls-1" d="M57.6,307.58403h357.12"/>
          </g>
        </g>
      </g>
      <g>
        <path d="M157.25977,178.91113l-3.38965,7.87207c-.03613.08008-.08105.14355-.13477.19141-.05469.04883-.1377.07227-.24902.07227h-.79199l1.10938-2.41211-2.50781-5.72363h.92383c.0918,0,.16504.02246.21875.06934.05469.0459.0918.09668.11133.15234l1.62598,3.82812c.06445.16797.11816.34375.16211.52832.05566-.18848.11621-.36621.17969-.53418l1.57812-3.82227c.02441-.06348.06543-.11719.12305-.15918.05859-.04199.12305-.0625.19531-.0625h.8457Z"/>
        <path d="M165.89941,178.91113l-2.47754,6.07812h-.95996l-2.47852-6.07812h.87012c.08789,0,.16016.02148.21582.06543.05664.04492.09473.09668.11426.15625l1.54199,3.91211c.04785.14844.08984.29199.12598.43164.03613.14062.07031.28027.10254.4209.03125-.14062.06543-.28027.10156-.4209.03613-.13965.08008-.2832.13184-.43164l1.56055-3.91211c.02344-.06348.06348-.11719.12012-.15918.05566-.04199.12109-.0625.19727-.0625h.83398Z"/>
        <path d="M166.59668,179.76855c.33594-.32324.69727-.56543,1.08594-.72559.3877-.16016.81738-.24023,1.29004-.24023.33984,0,.6416.05664.90527.16797.26465.1123.48633.26855.66602.46875.18066.19922.31641.44141.4082.72559s.1377.5957.1377.93555v3.88867h-.47363c-.10449,0-.18359-.01758-.24023-.05078-.05566-.03418-.09961-.10156-.13184-.20117l-.12012-.57617c-.16016.14746-.31543.2793-.46777.39258-.15234.11426-.31152.20996-.48047.28809-.16797.07812-.34668.13867-.53613.18066-.19043.04199-.40137.0625-.63379.0625-.23535,0-.45801-.0332-.66602-.09863-.20801-.06641-.38867-.16504-.54297-.29688-.15332-.13281-.27539-.2998-.36523-.50098-.09082-.20215-.13574-.44141-.13574-.71777,0-.23926.06641-.4707.19824-.69238.13184-.22266.3457-.41895.64258-.59082.2959-.17285.68164-.31348,1.15723-.42383.47656-.10938,1.06055-.17285,1.75195-.18848v-.47461c0-.47168-.10156-.82812-.30566-1.07031s-.50195-.36328-.89355-.36328c-.26465,0-.48535.0332-.66309.09863-.17871.06641-.33203.14062-.46191.22266-.13086.08203-.24219.15527-.33691.22168-.09375.06641-.18652.09863-.27832.09863-.07227,0-.13379-.01855-.18652-.05664-.05176-.03809-.0957-.08496-.13184-.14062l-.19141-.34277ZM170.0459,182.25293c-.49121.0166-.91113.05469-1.25684.11719-.3457.06152-.62793.14258-.8457.24316-.21777.09961-.37598.21777-.47363.35352-.09863.13672-.14746.28809-.14746.45605,0,.16016.02637.29785.07812.41406s.12305.21094.21289.28516.19629.12793.31836.16211c.12109.03418.25293.05078.39258.05078.18848,0,.36035-.01855.51562-.05664.15625-.03809.30371-.09375.44141-.16504.1377-.07227.26953-.1582.39648-.25781.12598-.10059.24805-.21484.36816-.34277v-1.25977Z"/>
        <path d="M173.82031,176.15137v8.83789h-1.06836v-8.83789h1.06836Z"/>
        <path d="M180.5459,178.91113v6.07812h-.63574c-.15234,0-.24805-.07422-.28809-.22266l-.08398-.65332c-.26367.29199-.55957.52637-.8877.70508-.32812.17773-.7041.2666-1.12793.2666-.33203,0-.625-.05469-.87891-.16504-.25488-.11035-.46777-.26465-.63965-.46484s-.30078-.44238-.38672-.72559c-.08594-.28418-.12891-.59863-.12891-.94238v-3.87598h1.06738v3.87598c0,.45996.10547.81543.31543,1.06836.20996.25195.53125.37793.96289.37793.31641,0,.61133-.0752.88477-.22559.27441-.14941.52734-.35645.75977-.62109v-4.47559h1.06738Z"/>
        <path d="M187.16992,184.13672c-.13184.16016-.29004.2998-.47461.41699-.18359.11816-.38086.21582-.59082.29102-.20996.07617-.42676.13379-.65137.1709-.22363.03809-.44531.05762-.66504.05762-.4209,0-.80762-.07129-1.16113-.21289-.35449-.14258-.66016-.35059-.91797-.62402-.25879-.27441-.45898-.61328-.60352-1.01758-.14355-.40332-.21582-.86719-.21582-1.3916,0-.42383.06445-.82031.19531-1.18848.12988-.36719.31641-.68652.56055-.95703.24414-.26953.54199-.48145.89453-.63574.35156-.1543.74707-.23047,1.1875-.23047.36426,0,.70117.06055,1.01074.18262.31055.12207.57812.29785.80469.52832.22559.22949.40234.51367.53027.85156s.19238.72266.19238,1.15527c0,.16797-.01758.28027-.05371.33594s-.10449.08398-.2041.08398h-4.0625c.0127.38379.06543.71777.15918,1.00195s.22559.52148.39355.71094c.16797.19043.36719.33203.59961.42578.23145.09473.49219.1416.78027.1416.26758,0,.49902-.03125.69238-.09375.19434-.06152.36133-.12891.50098-.2002.14062-.07227.25684-.13965.35156-.20117.09375-.0625.1748-.09375.24316-.09375.08789,0,.15527.03418.20312.10254l.30078.38965ZM186.30566,181.28711c0-.24805-.03516-.47461-.10547-.68066-.06934-.20605-.17188-.38477-.30566-.53418-.13379-.15039-.29688-.2666-.48926-.34863-.19141-.08203-.41016-.12305-.65332-.12305-.5127,0-.91699.14941-1.21582.44727-.29785.29785-.48242.71094-.55469,1.23926h3.32422Z"/>
      </g>
      <g>
        <line class="cls-6" x1="208.82939" y1="187.99161" x2="208.85661" y2="193.99155"/>
        <line class="cls-3" x1="208.91083" y1="205.94627" x2="209.31754" y2="295.60673"/>
        <line class="cls-6" x1="209.34465" y1="301.58409" x2="209.37186" y2="307.58403"/>
      </g>
      <line class="cls-5" x1="208.82939" y1="186.99081" x2="57.6" y2="186.99081"/>
      <g>
        <path d="M218.27051,282.60059h-1.02588c-.08789,0-.15723-.02344-.20703-.06934s-.09082-.09668-.12305-.15234l-1.52979-2.38184c-.01611.05566-.0332.11035-.05127.16406-.01807.05469-.04297.10352-.07471.14746l-1.41602,2.07031c-.04004.05566-.08301.10645-.12939.15234-.0459.0459-.10889.06934-.18896.06934h-.95361l2.12988-3.12012-2.0459-2.95801h1.02588c.08789,0,.15186.01465.19189.04199.04004.02832.07617.06836.10791.12012l1.49414,2.28027c.03174-.11621.08203-.22852.1499-.33594l1.30811-1.91992c.03613-.05664.0752-.10156.11719-.13574.04199-.0332.09277-.05078.15283-.05078h.98389l-2.0459,2.9043,2.12988,3.17383Z"/>
        <path d="M227.24658,276.52246l-2.47803,6.07812h-.95996l-2.47803-6.07812h.86963c.08789,0,.16016.02246.21631.06641.05566.04395.09375.0957.11377.15527l1.54199,3.91211c.04834.14844.09033.29199.12598.43262.03613.13965.07031.2793.10205.41992.03223-.14062.06592-.28027.10205-.41992.03613-.14062.08008-.28418.13184-.43262l1.56006-3.91211c.02393-.06348.06396-.11621.12012-.1582s.12207-.06348.19824-.06348h.83398Z"/>
        <path d="M227.94238,277.38086c.33594-.32422.69824-.56641,1.08594-.72656.38818-.15918.81787-.23926,1.29004-.23926.33984,0,.64209.05566.90625.16797.26367.11133.48535.26758.66602.46777.17969.2002.31543.44141.40723.72559.09277.28418.13867.59668.13867.93652v3.8877h-.47461c-.10352,0-.18359-.0166-.23926-.05078-.05664-.03418-.10059-.10156-.13281-.20117l-.12012-.57617c-.15918.14844-.31543.2793-.46777.39355-.15137.11328-.31152.20996-.47949.28711-.16797.07812-.34717.13867-.53711.18066s-.40088.0625-.63281.0625c-.23633,0-.45801-.03223-.66602-.09863s-.38916-.16504-.54297-.29688c-.1543-.13184-.27588-.29883-.36621-.50098-.08984-.20215-.13477-.44141-.13477-.7168,0-.24023.06592-.47168.19775-.69336.13232-.22168.34619-.41895.64209-.59082s.68213-.31348,1.1582-.42285c.47559-.11035,1.05957-.17383,1.75195-.18945v-.47363c0-.47266-.10254-.8291-.30664-1.07129-.20361-.24219-.50146-.36328-.89355-.36328-.26416,0-.48486.0332-.66309.09961-.17773.06543-.33203.13965-.46191.22168s-.24219.15625-.33594.22168c-.09424.06641-.18701.09961-.27881.09961-.07227,0-.13428-.01953-.18604-.05762-.05225-.03809-.09619-.08496-.13232-.14062l-.19189-.3418ZM231.39258,279.86426c-.49219.0166-.91113.05566-1.25732.11719-.3457.0625-.62793.14355-.8457.24316-.21826.09961-.37598.21777-.47412.35352-.09814.13672-.14697.28809-.14697.45605,0,.16016.02588.29883.07812.41406.05176.11621.12305.21094.21289.28516s.1958.12793.31787.16211.25293.05078.39307.05078c.18799,0,.35986-.01855.51611-.05664.15576-.03809.30273-.09277.44092-.16504s.27002-.1582.396-.25781c.12598-.10059.24902-.21387.36914-.3418v-1.26074Z"/>
        <path d="M235.16602,273.7627v8.83789h-1.06836v-8.83789h1.06836Z"/>
        <path d="M241.89258,276.52246v6.07812h-.63672c-.15137,0-.24805-.07422-.28809-.22168l-.08398-.6543c-.26367.29199-.55957.52734-.8877.70508s-.7041.2666-1.12793.2666c-.33203,0-.625-.05469-.87891-.16504-.25391-.10938-.4668-.26465-.63965-.46484-.17188-.2002-.30078-.44141-.38672-.72559s-.12891-.59863-.12891-.94238v-3.87598h1.06836v3.87598c0,.45996.10449.81641.31445,1.06836s.53125.37793.96289.37793c.31641,0,.61133-.0752.88574-.22559.27344-.14941.52637-.35645.75879-.62012v-4.47656h1.06836Z"/>
        <path d="M248.51562,281.74902c-.13184.15918-.29004.29883-.47363.41699-.18359.11719-.38086.21484-.59082.29102-.20996.0752-.42676.13281-.65137.1709-.22363.03809-.44629.05664-.66602.05664-.41992,0-.80664-.07129-1.16113-.21289-.35352-.1416-.65918-.34961-.91797-.62402-.25781-.27441-.45898-.61328-.60254-1.0166-.14453-.4043-.21582-.86816-.21582-1.39258,0-.42383.06445-.82031.19434-1.1875.12988-.36816.31738-.6875.56152-.95703.24414-.27051.54199-.48242.89355-.63672.35254-.15332.74805-.23047,1.18848-.23047.36328,0,.70117.06055,1.01074.18262s.57812.29785.80371.52832c.22656.22949.40332.51367.53125.85156.12793.33887.19238.72363.19238,1.15527,0,.16797-.01855.28027-.05469.33594-.03516.05664-.10352.08398-.20312.08398h-4.0625c.01172.38379.06543.71777.15918,1.00195s.22461.52148.39258.71094c.16797.19043.36816.33203.60059.42578.23145.09473.49219.1416.7793.1416.26855,0,.49902-.03125.69336-.09277.19434-.0625.36133-.12891.50098-.20117s.25684-.13867.35059-.20117c.09473-.06152.17578-.09277.24316-.09277.08789,0,.15625.03418.2041.10156l.2998.39062ZM247.65234,278.89844c0-.24805-.03516-.47461-.10547-.68066s-.17188-.38379-.30566-.53418-.29688-.26562-.48926-.34766-.41016-.12305-.6543-.12305c-.51172,0-.91699.14844-1.21484.44629-.29785.29883-.48242.71094-.55469,1.23926h3.32422Z"/>
      </g>
      <g>
        <path d="M24.12988,182.01758c-.26025-.23145-.47119-.49414-.63232-.78711-.16162-.29297-.24219-.6377-.24219-1.0332,0-.30859.06445-.58984.19238-.84473.12842-.25488.31445-.47559.55859-.66016.24365-.18457.54443-.32812.90186-.42871.35742-.10156.76709-.15137,1.229-.15137.42188,0,.8125.05664,1.17188.1709.35938.11328.6709.27539.93506.48633.26367.21094.47021.46484.61865.76367s.22266.63477.22266,1.00391c0,.31641-.04883.58594-.146.80859-.09668.22461-.23145.42383-.40381.59961h2.30957v1.35938h-7.48535v-.83105c0-.17676.08252-.29199.24756-.34668l.52246-.10938ZM27.54004,181.94531c.18701-.1543.31885-.32129.396-.50293.07666-.18164.11523-.37793.11523-.59082,0-.20508-.03857-.39062-.11523-.55664-.07715-.16406-.19434-.30469-.35205-.41992s-.35645-.20508-.59668-.26758c-.24023-.06152-.52344-.09277-.8501-.09277-.32959,0-.60938.02637-.83838.0791-.22949.05371-.41553.12988-.55859.22852-.14258.09961-.24707.21875-.31348.36035-.06592.1416-.09863.30176-.09863.48145,0,.28223.05957.52246.17871.7207.11914.19727.28662.38477.50293.56055h2.53027Z"/>
        <path d="M25.5542,176.14844c.75586,0,1.49805-.0918,2.22754-.27539.72998-.18262,1.41553-.44531,2.05713-.78613.07324-.03613.13818-.05762.19531-.06348.05664-.00586.10645,0,.14844.01367.04199.01562.0791.03809.10986.06934.03125.03125.05811.06543.08008.10156l.36816.60449c-.41797.27148-.83789.50293-1.25928.69336-.42188.19141-.84717.34668-1.27588.46777-.4292.12109-.86377.20996-1.30371.2666s-.88916.08594-1.34766.08594c-.45801,0-.9082-.0293-1.3501-.08594s-.87695-.14551-1.30615-.2666-.85352-.27637-1.27344-.46777c-.41943-.19043-.83838-.42188-1.25635-.69336l.36279-.60449c.02197-.03613.04883-.07031.07959-.10156.03125-.03125.06787-.05371.11035-.06934.04199-.01367.09131-.01953.14844-.01367.05664.00586.12354.02734.20068.06348.6377.34082,1.32275.60352,2.0542.78613.73145.18359,1.4751.27539,2.22998.27539Z"/>
        <path d="M29.00293,168.99902v1.30908c0,.09912-.02539.17871-.07715.23926-.05127.06055-.10986.11084-.17578.15137l-1.96338,1.19336c.06201.01807.12061.03955.17578.06299.05518.02393.10645.05078.15381.08008l1.63379,1.05566c.0625.04053.12012.08984.17334.14893.05322.05859.07959.13184.07959.21973v1.21533l-2.90967-1.93604-2.7334,1.85889v-1.30859c0-.09912.01367-.17236.0415-.22021.02734-.04736.07227-.08984.13477-.12646l1.88086-1.18262c-.12451-.04004-.24756-.09668-.36865-.17041l-1.48486-.95117c-.13574-.08057-.20361-.18506-.20361-.31348v-1.24854l2.67285,1.85352,2.97021-1.93066Z"/>
        <path d="M25.5542,167.53027c-.75488,0-1.49854.09082-2.22998.27246-.73145.18115-1.4165.44238-2.0542.78369-.07715.04053-.14404.06299-.20068.06885-.05713.00537-.10645.00098-.14844-.01416-.04248-.01416-.0791-.03711-.11035-.06836-.03076-.03125-.05762-.06689-.07959-.10742l-.36279-.60498c.41797-.27148.83691-.50244,1.25635-.69287.41992-.19092.84424-.34668,1.27344-.46777s.86426-.20898,1.30615-.26367c.44189-.05518.89209-.08252,1.3501-.08252.4585,0,.90771.02734,1.34766.08252.43994.05469.87451.14258,1.30371.26367.42871.12109.854.27686,1.27588.46777.42139.19043.84131.42139,1.25928.69287l-.36816.60498c-.02197.04053-.04883.07617-.08008.10742-.03076.03125-.06787.0542-.10986.06836-.04199.01514-.0918.01953-.14844.01416-.05713-.00586-.12207-.02832-.19531-.06885-.6416-.34131-1.32715-.60254-2.05713-.78369-.72949-.18164-1.47168-.27246-2.22754-.27246Z"/>
      </g>
    </g>
  </g>
</svg>