<?xml version="1.0" encoding="utf-8" standalone="no"?>
<!DOCTYPE svg PUBLIC "-//W3C//DTD SVG 1.1//EN"
  "http://www.w3.org/Graphics/SVG/1.1/DTD/svg11.dtd">
<svg xmlns:xlink="http://www.w3.org/1999/xlink" width="460.8pt" height="345.6pt" viewBox="0 0 460.8 345.6" xmlns="http://www.w3.org/2000/svg" version="1.1">
 <metadata>
  <rdf:RDF xmlns:dc="http://purl.org/dc/elements/1.1/" xmlns:cc="http://creativecommons.org/ns#" xmlns:rdf="http://www.w3.org/1999/02/22-rdf-syntax-ns#">
   <cc:Work>
    <dc:type rdf:resource="http://purl.org/dc/dcmitype/StillImage"/>
    <dc:date>2025-03-21T11:08:14.704768</dc:date>
    <dc:format>image/svg+xml</dc:format>
    <dc:creator>
     <cc:Agent>
      <dc:title>Matplotlib v3.9.2, https://matplotlib.org/</dc:title>
     </cc:Agent>
    </dc:creator>
   </cc:Work>
  </rdf:RDF>
 </metadata>
 <defs>
  <style type="text/css">*{stroke-linejoin: round; stroke-linecap: butt}</style>
 </defs>
 <g id="figure_1">
  <g id="patch_1">
   <path d="M 0 345.6 
L 460.8 345.6 
L 460.8 0 
L 0 0 
L 0 345.6 
z
" style="fill: none"/>
  </g>
  <g id="axes_1">
   <g id="patch_2">
    <path d="M 57.6 307.584 
L 414.72 307.584 
L 414.72 41.472 
L 57.6 41.472 
L 57.6 307.584 
z
" style="fill: none"/>
   </g>
   <g id="matplotlib.axis_1">
    <g id="xtick_1">
     <g id="line2d_1">
      <defs>
       <path id="m3510cfcd66" d="M 0 0 
L 0 6 
" style="stroke: #000000; stroke-width: 0.5"/>
      </defs>
      <g>
       <use xlink:href="#m3510cfcd66" x="87.36" y="307.584" style="stroke: #000000; stroke-width: 0.5"/>
      </g>
     </g>
     <g id="text_1">
      <!-- −1 -->
      <g transform="translate(81.56 324.449625) scale(0.1 -0.1)">
       <defs>
        <path id="Lato-Regular-2212" d="M 480 2365 
L 3232 2365 
L 3232 1933 
L 480 1933 
L 480 2365 
z
" transform="scale(0.015625)"/>
        <path id="Lato-Regular-31" d="M 800 435 
L 1782 435 
L 1782 3562 
Q 1782 3696 1792 3846 
L 976 3146 
Q 934 3110 892 3102 
Q 851 3094 816 3100 
Q 781 3107 750 3126 
Q 720 3146 704 3168 
L 525 3414 
L 1891 4595 
L 2355 4595 
L 2355 435 
L 3258 435 
L 3258 0 
L 800 0 
L 800 435 
z
" transform="scale(0.015625)"/>
       </defs>
       <use xlink:href="#Lato-Regular-2212"/>
       <use xlink:href="#Lato-Regular-31" x="58"/>
      </g>
     </g>
    </g>
    <g id="xtick_2">
     <g id="line2d_2">
      <g>
       <use xlink:href="#m3510cfcd66" x="129.874286" y="307.584" style="stroke: #000000; stroke-width: 0.5"/>
      </g>
     </g>
     <g id="text_2">
      <!-- 0 -->
      <g transform="translate(126.974286 324.449625) scale(0.1 -0.1)">
       <defs>
        <path id="Lato-Regular-30" d="M 3520 2291 
Q 3520 1690 3390 1250 
Q 3261 810 3037 522 
Q 2813 234 2507 93 
Q 2202 -48 1853 -48 
Q 1501 -48 1198 93 
Q 896 234 672 522 
Q 448 810 320 1250 
Q 192 1690 192 2291 
Q 192 2893 320 3334 
Q 448 3776 672 4065 
Q 896 4355 1198 4496 
Q 1501 4637 1853 4637 
Q 2202 4637 2507 4496 
Q 2813 4355 3037 4065 
Q 3261 3776 3390 3334 
Q 3520 2893 3520 2291 
z
M 2928 2291 
Q 2928 2816 2840 3173 
Q 2752 3530 2603 3747 
Q 2454 3965 2259 4059 
Q 2064 4154 1853 4154 
Q 1642 4154 1446 4059 
Q 1251 3965 1104 3747 
Q 957 3530 869 3173 
Q 781 2816 781 2291 
Q 781 1766 869 1411 
Q 957 1056 1104 838 
Q 1251 621 1446 526 
Q 1642 432 1853 432 
Q 2064 432 2259 526 
Q 2454 621 2603 838 
Q 2752 1056 2840 1411 
Q 2928 1766 2928 2291 
z
" transform="scale(0.015625)"/>
       </defs>
       <use xlink:href="#Lato-Regular-30"/>
      </g>
     </g>
    </g>
    <g id="xtick_3">
     <g id="line2d_3">
      <g>
       <use xlink:href="#m3510cfcd66" x="172.388571" y="307.584" style="stroke: #000000; stroke-width: 0.5"/>
      </g>
     </g>
     <g id="text_3">
      <!-- 1 -->
      <g transform="translate(169.488571 324.449625) scale(0.1 -0.1)">
       <use xlink:href="#Lato-Regular-31"/>
      </g>
     </g>
    </g>
    <g id="xtick_4">
     <g id="line2d_4">
      <g>
       <use xlink:href="#m3510cfcd66" x="214.902857" y="307.584" style="stroke: #000000; stroke-width: 0.5"/>
      </g>
     </g>
     <g id="text_4">
      <!-- 2 -->
      <g transform="translate(212.002857 324.449625) scale(0.1 -0.1)">
       <defs>
        <path id="Lato-Regular-32" d="M 1891 4637 
Q 2182 4637 2435 4550 
Q 2688 4464 2873 4299 
Q 3059 4134 3164 3897 
Q 3270 3661 3270 3360 
Q 3270 3104 3193 2885 
Q 3117 2666 2985 2467 
Q 2854 2269 2683 2080 
Q 2512 1891 2320 1699 
L 1110 464 
Q 1238 499 1369 520 
Q 1501 541 1622 541 
L 3158 541 
Q 3251 541 3305 486 
Q 3360 432 3360 346 
L 3360 0 
L 301 0 
L 301 195 
Q 301 256 326 320 
Q 352 384 406 438 
L 1875 1914 
Q 2058 2099 2208 2270 
Q 2358 2442 2464 2614 
Q 2570 2787 2627 2964 
Q 2685 3142 2685 3344 
Q 2685 3546 2621 3698 
Q 2557 3850 2446 3949 
Q 2336 4048 2185 4097 
Q 2035 4147 1862 4147 
Q 1686 4147 1539 4096 
Q 1392 4045 1278 3953 
Q 1165 3862 1088 3737 
Q 1011 3613 979 3462 
Q 941 3350 875 3313 
Q 810 3277 691 3293 
L 394 3344 
Q 438 3658 568 3899 
Q 698 4141 894 4304 
Q 1091 4467 1344 4552 
Q 1597 4637 1891 4637 
z
" transform="scale(0.015625)"/>
       </defs>
       <use xlink:href="#Lato-Regular-32"/>
      </g>
     </g>
    </g>
    <g id="xtick_5">
     <g id="line2d_5">
      <g>
       <use xlink:href="#m3510cfcd66" x="257.417143" y="307.584" style="stroke: #000000; stroke-width: 0.5"/>
      </g>
     </g>
     <g id="text_5">
      <!-- 3 -->
      <g transform="translate(254.517143 324.449625) scale(0.1 -0.1)">
       <defs>
        <path id="Lato-Regular-33" d="M 1914 4637 
Q 2205 4637 2451 4553 
Q 2698 4470 2875 4316 
Q 3053 4163 3152 3945 
Q 3251 3728 3251 3462 
Q 3251 3245 3195 3073 
Q 3139 2902 3035 2772 
Q 2931 2643 2784 2553 
Q 2637 2464 2454 2410 
Q 2902 2291 3128 2012 
Q 3354 1734 3354 1315 
Q 3354 998 3234 745 
Q 3114 493 2906 315 
Q 2698 138 2421 43 
Q 2144 -51 1827 -51 
Q 1462 -51 1203 40 
Q 944 131 765 291 
Q 586 451 470 670 
Q 355 890 275 1146 
L 522 1248 
Q 618 1290 709 1270 
Q 800 1251 842 1165 
Q 883 1075 945 950 
Q 1008 826 1117 710 
Q 1226 595 1394 515 
Q 1562 435 1821 435 
Q 2061 435 2241 513 
Q 2422 592 2542 717 
Q 2662 842 2723 995 
Q 2784 1149 2784 1299 
Q 2784 1485 2736 1638 
Q 2688 1792 2557 1904 
Q 2426 2016 2197 2080 
Q 1968 2144 1610 2144 
L 1610 2557 
Q 1904 2560 2110 2621 
Q 2317 2682 2446 2787 
Q 2576 2893 2635 3040 
Q 2694 3187 2694 3366 
Q 2694 3565 2632 3712 
Q 2570 3859 2461 3955 
Q 2352 4051 2203 4099 
Q 2054 4147 1882 4147 
Q 1709 4147 1560 4096 
Q 1411 4045 1297 3953 
Q 1184 3862 1107 3737 
Q 1030 3613 998 3462 
Q 957 3350 894 3313 
Q 832 3277 714 3293 
L 416 3344 
Q 461 3658 589 3899 
Q 717 4141 913 4304 
Q 1110 4467 1364 4552 
Q 1619 4637 1914 4637 
z
" transform="scale(0.015625)"/>
       </defs>
       <use xlink:href="#Lato-Regular-33"/>
      </g>
     </g>
    </g>
    <g id="xtick_6">
     <g id="line2d_6">
      <g>
       <use xlink:href="#m3510cfcd66" x="299.931429" y="307.584" style="stroke: #000000; stroke-width: 0.5"/>
      </g>
     </g>
     <g id="text_6">
      <!-- 4 -->
      <g transform="translate(297.031429 324.449625) scale(0.1 -0.1)">
       <defs>
        <path id="Lato-Regular-34" d="M 2835 1654 
L 3530 1654 
L 3530 1328 
Q 3530 1277 3499 1241 
Q 3469 1206 3405 1206 
L 2835 1206 
L 2835 0 
L 2336 0 
L 2336 1206 
L 301 1206 
Q 237 1206 190 1243 
Q 144 1280 131 1334 
L 74 1626 
L 2304 4586 
L 2835 4586 
L 2835 1654 
z
M 2336 3546 
Q 2336 3629 2341 3726 
Q 2346 3824 2362 3926 
L 691 1654 
L 2336 1654 
L 2336 3546 
z
" transform="scale(0.015625)"/>
       </defs>
       <use xlink:href="#Lato-Regular-34"/>
      </g>
     </g>
    </g>
    <g id="xtick_7">
     <g id="line2d_7">
      <g>
       <use xlink:href="#m3510cfcd66" x="342.445714" y="307.584" style="stroke: #000000; stroke-width: 0.5"/>
      </g>
     </g>
     <g id="text_7">
      <!-- 5 -->
      <g transform="translate(339.545714 324.449625) scale(0.1 -0.1)">
       <defs>
        <path id="Lato-Regular-35" d="M 3142 4336 
Q 3142 4214 3067 4136 
Q 2992 4058 2810 4058 
L 1370 4058 
L 1158 2854 
Q 1341 2896 1502 2913 
Q 1664 2931 1818 2931 
Q 2176 2931 2451 2825 
Q 2726 2720 2910 2534 
Q 3094 2349 3188 2096 
Q 3283 1843 3283 1546 
Q 3283 1181 3156 886 
Q 3030 592 2808 382 
Q 2586 173 2285 61 
Q 1984 -51 1635 -51 
Q 1434 -51 1248 -11 
Q 1062 29 900 96 
Q 739 163 601 249 
Q 464 336 358 432 
L 534 675 
Q 592 758 685 758 
Q 749 758 829 708 
Q 909 659 1024 598 
Q 1139 538 1294 488 
Q 1450 438 1664 438 
Q 1904 438 2096 515 
Q 2288 592 2425 734 
Q 2563 877 2636 1075 
Q 2710 1274 2710 1520 
Q 2710 1734 2648 1907 
Q 2586 2080 2459 2201 
Q 2333 2323 2144 2390 
Q 1955 2458 1702 2458 
Q 1530 2458 1342 2429 
Q 1155 2400 960 2336 
L 602 2442 
L 970 4586 
L 3142 4586 
L 3142 4336 
z
" transform="scale(0.015625)"/>
       </defs>
       <use xlink:href="#Lato-Regular-35"/>
      </g>
     </g>
    </g>
    <g id="xtick_8">
     <g id="line2d_8">
      <g>
       <use xlink:href="#m3510cfcd66" x="384.96" y="307.584" style="stroke: #000000; stroke-width: 0.5"/>
      </g>
     </g>
     <g id="text_8">
      <!-- 6 -->
      <g transform="translate(382.06 324.449625) scale(0.1 -0.1)">
       <defs>
        <path id="Lato-Regular-36" d="M 1517 2867 
Q 1453 2790 1398 2716 
Q 1344 2643 1290 2573 
Q 1453 2685 1649 2747 
Q 1846 2810 2077 2810 
Q 2355 2810 2601 2718 
Q 2848 2627 3032 2452 
Q 3216 2278 3325 2024 
Q 3434 1770 3434 1443 
Q 3434 1126 3318 854 
Q 3203 582 2996 380 
Q 2790 179 2500 64 
Q 2211 -51 1862 -51 
Q 1517 -51 1235 59 
Q 954 170 757 373 
Q 560 576 453 865 
Q 346 1155 346 1514 
Q 346 1814 478 2155 
Q 611 2496 902 2883 
L 2067 4448 
Q 2112 4506 2190 4546 
Q 2269 4586 2371 4586 
L 2877 4586 
L 1517 2867 
z
M 893 1414 
Q 893 1194 957 1011 
Q 1021 829 1144 697 
Q 1267 566 1444 494 
Q 1622 422 1850 422 
Q 2080 422 2267 496 
Q 2454 570 2587 701 
Q 2720 832 2792 1011 
Q 2864 1190 2864 1402 
Q 2864 1626 2793 1806 
Q 2723 1987 2593 2113 
Q 2464 2240 2285 2307 
Q 2106 2374 1891 2374 
Q 1661 2374 1475 2296 
Q 1290 2218 1160 2085 
Q 1030 1952 961 1777 
Q 893 1603 893 1414 
z
" transform="scale(0.015625)"/>
       </defs>
       <use xlink:href="#Lato-Regular-36"/>
      </g>
     </g>
    </g>
    <g id="xtick_9">
     <g id="line2d_9">
      <defs>
       <path id="m3c60f174ce" d="M 0 0 
L 0 3 
" style="stroke: #000000; stroke-width: 0.5"/>
      </defs>
      <g>
       <use xlink:href="#m3c60f174ce" x="61.851429" y="307.584" style="stroke: #000000; stroke-width: 0.5"/>
      </g>
     </g>
    </g>
    <g id="xtick_10">
     <g id="line2d_10">
      <g>
       <use xlink:href="#m3c60f174ce" x="70.354286" y="307.584" style="stroke: #000000; stroke-width: 0.5"/>
      </g>
     </g>
    </g>
    <g id="xtick_11">
     <g id="line2d_11">
      <g>
       <use xlink:href="#m3c60f174ce" x="78.857143" y="307.584" style="stroke: #000000; stroke-width: 0.5"/>
      </g>
     </g>
    </g>
    <g id="xtick_12">
     <g id="line2d_12">
      <g>
       <use xlink:href="#m3c60f174ce" x="95.862857" y="307.584" style="stroke: #000000; stroke-width: 0.5"/>
      </g>
     </g>
    </g>
    <g id="xtick_13">
     <g id="line2d_13">
      <g>
       <use xlink:href="#m3c60f174ce" x="104.365714" y="307.584" style="stroke: #000000; stroke-width: 0.5"/>
      </g>
     </g>
    </g>
    <g id="xtick_14">
     <g id="line2d_14">
      <g>
       <use xlink:href="#m3c60f174ce" x="112.868571" y="307.584" style="stroke: #000000; stroke-width: 0.5"/>
      </g>
     </g>
    </g>
    <g id="xtick_15">
     <g id="line2d_15">
      <g>
       <use xlink:href="#m3c60f174ce" x="121.371429" y="307.584" style="stroke: #000000; stroke-width: 0.5"/>
      </g>
     </g>
    </g>
    <g id="xtick_16">
     <g id="line2d_16">
      <g>
       <use xlink:href="#m3c60f174ce" x="138.377143" y="307.584" style="stroke: #000000; stroke-width: 0.5"/>
      </g>
     </g>
    </g>
    <g id="xtick_17">
     <g id="line2d_17">
      <g>
       <use xlink:href="#m3c60f174ce" x="146.88" y="307.584" style="stroke: #000000; stroke-width: 0.5"/>
      </g>
     </g>
    </g>
    <g id="xtick_18">
     <g id="line2d_18">
      <g>
       <use xlink:href="#m3c60f174ce" x="155.382857" y="307.584" style="stroke: #000000; stroke-width: 0.5"/>
      </g>
     </g>
    </g>
    <g id="xtick_19">
     <g id="line2d_19">
      <g>
       <use xlink:href="#m3c60f174ce" x="163.885714" y="307.584" style="stroke: #000000; stroke-width: 0.5"/>
      </g>
     </g>
    </g>
    <g id="xtick_20">
     <g id="line2d_20">
      <g>
       <use xlink:href="#m3c60f174ce" x="180.891429" y="307.584" style="stroke: #000000; stroke-width: 0.5"/>
      </g>
     </g>
    </g>
    <g id="xtick_21">
     <g id="line2d_21">
      <g>
       <use xlink:href="#m3c60f174ce" x="189.394286" y="307.584" style="stroke: #000000; stroke-width: 0.5"/>
      </g>
     </g>
    </g>
    <g id="xtick_22">
     <g id="line2d_22">
      <g>
       <use xlink:href="#m3c60f174ce" x="197.897143" y="307.584" style="stroke: #000000; stroke-width: 0.5"/>
      </g>
     </g>
    </g>
    <g id="xtick_23">
     <g id="line2d_23">
      <g>
       <use xlink:href="#m3c60f174ce" x="206.4" y="307.584" style="stroke: #000000; stroke-width: 0.5"/>
      </g>
     </g>
    </g>
    <g id="xtick_24">
     <g id="line2d_24">
      <g>
       <use xlink:href="#m3c60f174ce" x="223.405714" y="307.584" style="stroke: #000000; stroke-width: 0.5"/>
      </g>
     </g>
    </g>
    <g id="xtick_25">
     <g id="line2d_25">
      <g>
       <use xlink:href="#m3c60f174ce" x="231.908571" y="307.584" style="stroke: #000000; stroke-width: 0.5"/>
      </g>
     </g>
    </g>
    <g id="xtick_26">
     <g id="line2d_26">
      <g>
       <use xlink:href="#m3c60f174ce" x="240.411429" y="307.584" style="stroke: #000000; stroke-width: 0.5"/>
      </g>
     </g>
    </g>
    <g id="xtick_27">
     <g id="line2d_27">
      <g>
       <use xlink:href="#m3c60f174ce" x="248.914286" y="307.584" style="stroke: #000000; stroke-width: 0.5"/>
      </g>
     </g>
    </g>
    <g id="xtick_28">
     <g id="line2d_28">
      <g>
       <use xlink:href="#m3c60f174ce" x="265.92" y="307.584" style="stroke: #000000; stroke-width: 0.5"/>
      </g>
     </g>
    </g>
    <g id="xtick_29">
     <g id="line2d_29">
      <g>
       <use xlink:href="#m3c60f174ce" x="274.422857" y="307.584" style="stroke: #000000; stroke-width: 0.5"/>
      </g>
     </g>
    </g>
    <g id="xtick_30">
     <g id="line2d_30">
      <g>
       <use xlink:href="#m3c60f174ce" x="282.925714" y="307.584" style="stroke: #000000; stroke-width: 0.5"/>
      </g>
     </g>
    </g>
    <g id="xtick_31">
     <g id="line2d_31">
      <g>
       <use xlink:href="#m3c60f174ce" x="291.428571" y="307.584" style="stroke: #000000; stroke-width: 0.5"/>
      </g>
     </g>
    </g>
    <g id="xtick_32">
     <g id="line2d_32">
      <g>
       <use xlink:href="#m3c60f174ce" x="308.434286" y="307.584" style="stroke: #000000; stroke-width: 0.5"/>
      </g>
     </g>
    </g>
    <g id="xtick_33">
     <g id="line2d_33">
      <g>
       <use xlink:href="#m3c60f174ce" x="316.937143" y="307.584" style="stroke: #000000; stroke-width: 0.5"/>
      </g>
     </g>
    </g>
    <g id="xtick_34">
     <g id="line2d_34">
      <g>
       <use xlink:href="#m3c60f174ce" x="325.44" y="307.584" style="stroke: #000000; stroke-width: 0.5"/>
      </g>
     </g>
    </g>
    <g id="xtick_35">
     <g id="line2d_35">
      <g>
       <use xlink:href="#m3c60f174ce" x="333.942857" y="307.584" style="stroke: #000000; stroke-width: 0.5"/>
      </g>
     </g>
    </g>
    <g id="xtick_36">
     <g id="line2d_36">
      <g>
       <use xlink:href="#m3c60f174ce" x="350.948571" y="307.584" style="stroke: #000000; stroke-width: 0.5"/>
      </g>
     </g>
    </g>
    <g id="xtick_37">
     <g id="line2d_37">
      <g>
       <use xlink:href="#m3c60f174ce" x="359.451429" y="307.584" style="stroke: #000000; stroke-width: 0.5"/>
      </g>
     </g>
    </g>
    <g id="xtick_38">
     <g id="line2d_38">
      <g>
       <use xlink:href="#m3c60f174ce" x="367.954286" y="307.584" style="stroke: #000000; stroke-width: 0.5"/>
      </g>
     </g>
    </g>
    <g id="xtick_39">
     <g id="line2d_39">
      <g>
       <use xlink:href="#m3c60f174ce" x="376.457143" y="307.584" style="stroke: #000000; stroke-width: 0.5"/>
      </g>
     </g>
    </g>
    <g id="xtick_40">
     <g id="line2d_40">
      <g>
       <use xlink:href="#m3c60f174ce" x="393.462857" y="307.584" style="stroke: #000000; stroke-width: 0.5"/>
      </g>
     </g>
    </g>
    <g id="xtick_41">
     <g id="line2d_41">
      <g>
       <use xlink:href="#m3c60f174ce" x="401.965714" y="307.584" style="stroke: #000000; stroke-width: 0.5"/>
      </g>
     </g>
    </g>
    <g id="xtick_42">
     <g id="line2d_42">
      <g>
       <use xlink:href="#m3c60f174ce" x="410.468571" y="307.584" style="stroke: #000000; stroke-width: 0.5"/>
      </g>
     </g>
    </g>
    <g id="text_9">
     <!-- $x$ -->
     <g transform="translate(233.16 337.594937) scale(0.1 -0.1)">
      <defs>
       <path id="DejaVuSans-Oblique-78" d="M 3841 3500 
L 2234 1784 
L 3219 0 
L 2559 0 
L 1819 1388 
L 531 0 
L -166 0 
L 1556 1844 
L 641 3500 
L 1300 3500 
L 1972 2234 
L 3144 3500 
L 3841 3500 
z
" transform="scale(0.015625)"/>
      </defs>
      <use xlink:href="#DejaVuSans-Oblique-78" transform="translate(0 0.3125)"/>
     </g>
    </g>
   </g>
   <g id="matplotlib.axis_2">
    <g id="ytick_1">
     <g id="line2d_43">
      <path d="M 57.6 285.459612 
L 414.72 285.459612 
" clip-path="url(#p5f0d36100e)" style="fill: none; stroke: #cccccc; stroke-width: 0.5; stroke-linecap: square"/>
     </g>
     <g id="text_10">
      <!-- 0.0 -->
      <g transform="translate(40.140625 289.142424) scale(0.1 -0.1)">
       <defs>
        <path id="Lato-Regular-2e" d="M 355 352 
Q 355 435 385 508 
Q 416 582 469 636 
Q 522 691 595 723 
Q 669 755 752 755 
Q 835 755 908 723 
Q 982 691 1036 636 
Q 1091 582 1123 508 
Q 1155 435 1155 352 
Q 1155 266 1123 194 
Q 1091 122 1036 67 
Q 982 13 908 -17 
Q 835 -48 752 -48 
Q 669 -48 595 -17 
Q 522 13 469 67 
Q 416 122 385 194 
Q 355 266 355 352 
z
" transform="scale(0.015625)"/>
       </defs>
       <use xlink:href="#Lato-Regular-30"/>
       <use xlink:href="#Lato-Regular-2e" x="58"/>
       <use xlink:href="#Lato-Regular-30" x="81.600006"/>
      </g>
     </g>
    </g>
    <g id="ytick_2">
     <g id="line2d_44">
      <path d="M 57.6 241.086967 
L 414.72 241.086967 
" clip-path="url(#p5f0d36100e)" style="fill: none; stroke: #cccccc; stroke-width: 0.5; stroke-linecap: square"/>
     </g>
     <g id="text_11">
      <!-- 0.2 -->
      <g transform="translate(40.140625 244.76978) scale(0.1 -0.1)">
       <use xlink:href="#Lato-Regular-30"/>
       <use xlink:href="#Lato-Regular-2e" x="58"/>
       <use xlink:href="#Lato-Regular-32" x="81.600006"/>
      </g>
     </g>
    </g>
    <g id="ytick_3">
     <g id="line2d_45">
      <path d="M 57.6 196.714322 
L 414.72 196.714322 
" clip-path="url(#p5f0d36100e)" style="fill: none; stroke: #cccccc; stroke-width: 0.5; stroke-linecap: square"/>
     </g>
     <g id="text_12">
      <!-- 0.4 -->
      <g transform="translate(40.140625 200.397135) scale(0.1 -0.1)">
       <use xlink:href="#Lato-Regular-30"/>
       <use xlink:href="#Lato-Regular-2e" x="58"/>
       <use xlink:href="#Lato-Regular-34" x="81.600006"/>
      </g>
     </g>
    </g>
    <g id="ytick_4">
     <g id="line2d_46">
      <path d="M 57.6 152.341678 
L 414.72 152.341678 
" clip-path="url(#p5f0d36100e)" style="fill: none; stroke: #cccccc; stroke-width: 0.5; stroke-linecap: square"/>
     </g>
     <g id="text_13">
      <!-- 0.6 -->
      <g transform="translate(40.140625 156.02449) scale(0.1 -0.1)">
       <use xlink:href="#Lato-Regular-30"/>
       <use xlink:href="#Lato-Regular-2e" x="58"/>
       <use xlink:href="#Lato-Regular-36" x="81.600006"/>
      </g>
     </g>
    </g>
    <g id="ytick_5">
     <g id="line2d_47">
      <path d="M 57.6 107.969033 
L 414.72 107.969033 
" clip-path="url(#p5f0d36100e)" style="fill: none; stroke: #cccccc; stroke-width: 0.5; stroke-linecap: square"/>
     </g>
     <g id="text_14">
      <!-- 0.8 -->
      <g transform="translate(40.140625 111.651845) scale(0.1 -0.1)">
       <defs>
        <path id="Lato-Regular-38" d="M 1856 -51 
Q 1514 -51 1229 40 
Q 944 131 739 300 
Q 534 470 422 712 
Q 310 954 310 1254 
Q 310 1696 540 1982 
Q 771 2269 1200 2390 
Q 838 2525 654 2792 
Q 470 3059 470 3430 
Q 470 3683 569 3904 
Q 669 4125 851 4288 
Q 1034 4451 1288 4544 
Q 1542 4637 1856 4637 
Q 2166 4637 2422 4544 
Q 2678 4451 2860 4288 
Q 3043 4125 3142 3904 
Q 3242 3683 3242 3430 
Q 3242 3059 3056 2792 
Q 2870 2525 2512 2390 
Q 2941 2269 3171 1982 
Q 3402 1696 3402 1254 
Q 3402 954 3288 712 
Q 3174 470 2971 300 
Q 2768 131 2483 40 
Q 2198 -51 1856 -51 
z
M 1856 403 
Q 2080 403 2257 465 
Q 2435 528 2558 641 
Q 2682 755 2747 913 
Q 2813 1072 2813 1264 
Q 2813 1501 2734 1669 
Q 2656 1837 2523 1942 
Q 2390 2048 2217 2097 
Q 2045 2147 1856 2147 
Q 1667 2147 1494 2097 
Q 1322 2048 1189 1942 
Q 1056 1837 977 1669 
Q 899 1501 899 1264 
Q 899 1072 964 913 
Q 1030 755 1153 641 
Q 1277 528 1454 465 
Q 1632 403 1856 403 
z
M 1856 2605 
Q 2080 2605 2238 2673 
Q 2397 2742 2496 2856 
Q 2595 2970 2640 3117 
Q 2685 3264 2685 3421 
Q 2685 3581 2632 3721 
Q 2579 3862 2475 3968 
Q 2371 4074 2216 4134 
Q 2061 4195 1856 4195 
Q 1651 4195 1496 4134 
Q 1341 4074 1237 3968 
Q 1133 3862 1080 3721 
Q 1027 3581 1027 3421 
Q 1027 3264 1072 3117 
Q 1117 2970 1216 2856 
Q 1315 2742 1473 2673 
Q 1632 2605 1856 2605 
z
" transform="scale(0.015625)"/>
       </defs>
       <use xlink:href="#Lato-Regular-30"/>
       <use xlink:href="#Lato-Regular-2e" x="58"/>
       <use xlink:href="#Lato-Regular-38" x="81.600006"/>
      </g>
     </g>
    </g>
    <g id="ytick_6">
     <g id="line2d_48">
      <path d="M 57.6 63.596388 
L 414.72 63.596388 
" clip-path="url(#p5f0d36100e)" style="fill: none; stroke: #cccccc; stroke-width: 0.5; stroke-linecap: square"/>
     </g>
     <g id="text_15">
      <!-- 1.0 -->
      <g transform="translate(40.140625 67.279201) scale(0.1 -0.1)">
       <use xlink:href="#Lato-Regular-31"/>
       <use xlink:href="#Lato-Regular-2e" x="58"/>
       <use xlink:href="#Lato-Regular-30" x="81.600006"/>
      </g>
     </g>
    </g>
    <g id="text_16">
     <!-- $P(X \leq x)$ -->
     <g transform="translate(34.465625 193.978) rotate(-90) scale(0.1 -0.1)">
      <defs>
       <path id="DejaVuSans-Oblique-50" d="M 1081 4666 
L 2541 4666 
Q 3178 4666 3512 4369 
Q 3847 4072 3847 3500 
Q 3847 2731 3353 2303 
Q 2859 1875 1966 1875 
L 1172 1875 
L 806 0 
L 172 0 
L 1081 4666 
z
M 1613 4147 
L 1275 2394 
L 2069 2394 
Q 2606 2394 2893 2669 
Q 3181 2944 3181 3456 
Q 3181 3784 2986 3965 
Q 2791 4147 2438 4147 
L 1613 4147 
z
" transform="scale(0.015625)"/>
       <path id="DejaVuSans-28" d="M 1984 4856 
Q 1566 4138 1362 3434 
Q 1159 2731 1159 2009 
Q 1159 1288 1364 580 
Q 1569 -128 1984 -844 
L 1484 -844 
Q 1016 -109 783 600 
Q 550 1309 550 2009 
Q 550 2706 781 3412 
Q 1013 4119 1484 4856 
L 1984 4856 
z
" transform="scale(0.015625)"/>
       <path id="DejaVuSans-Oblique-58" d="M 878 4666 
L 1516 4666 
L 2316 2981 
L 3763 4666 
L 4500 4666 
L 2578 2438 
L 3738 0 
L 3103 0 
L 2163 1966 
L 459 0 
L -275 0 
L 1906 2509 
L 878 4666 
z
" transform="scale(0.015625)"/>
       <path id="DejaVuSans-2264" d="M 4684 3175 
L 1684 2309 
L 4684 1453 
L 4684 897 
L 678 2047 
L 678 2578 
L 4684 3725 
L 4684 3175 
z
M 678 531 
L 4684 531 
L 4684 0 
L 678 0 
L 678 531 
z
" transform="scale(0.015625)"/>
       <path id="DejaVuSans-29" d="M 513 4856 
L 1013 4856 
Q 1481 4119 1714 3412 
Q 1947 2706 1947 2009 
Q 1947 1309 1714 600 
Q 1481 -109 1013 -844 
L 513 -844 
Q 928 -128 1133 580 
Q 1338 1288 1338 2009 
Q 1338 2731 1133 3434 
Q 928 4138 513 4856 
z
" transform="scale(0.015625)"/>
      </defs>
      <use xlink:href="#DejaVuSans-Oblique-50" transform="translate(0 0.125)"/>
      <use xlink:href="#DejaVuSans-28" transform="translate(60.302734 0.125)"/>
      <use xlink:href="#DejaVuSans-Oblique-58" transform="translate(99.316406 0.125)"/>
      <use xlink:href="#DejaVuSans-2264" transform="translate(187.304688 0.125)"/>
      <use xlink:href="#DejaVuSans-Oblique-78" transform="translate(290.576172 0.125)"/>
      <use xlink:href="#DejaVuSans-29" transform="translate(349.755859 0.125)"/>
     </g>
    </g>
   </g>
   <g id="line2d_49">
    <path d="M 87.36 285.408 
L 90.366061 285.392481 
L 93.372121 285.372705 
L 96.378182 285.347632 
L 99.384242 285.315999 
L 102.390303 285.276289 
L 105.396364 285.22669 
L 108.402424 285.165048 
L 111.408485 285.088818 
L 114.414545 284.995021 
L 117.420606 284.880182 
L 120.426667 284.740281 
L 123.432727 284.5707 
L 126.438788 284.366166 
L 129.444848 284.120705 
L 132.450909 283.827595 
L 135.45697 283.479332 
L 138.46303 283.0676 
L 141.469091 282.58326 
L 144.475152 282.016348 
L 147.481212 281.356092 
L 150.487273 280.590959 
L 153.493333 279.708709 
L 156.499394 278.696485 
L 159.505455 277.54093 
L 162.511515 276.228324 
L 165.517576 274.744754 
L 168.523636 273.076312 
L 171.529697 271.209314 
L 174.535758 269.130544 
L 177.541818 266.82752 
L 180.547879 264.288768 
L 183.553939 261.504112 
L 186.56 258.464958 
L 189.566061 255.164582 
L 192.572121 251.598397 
L 195.578182 247.764206 
L 198.584242 243.662415 
L 201.590303 239.296223 
L 204.596364 234.671755 
L 207.602424 229.798148 
L 210.608485 224.687585 
L 213.614545 219.35526 
L 216.620606 213.819283 
L 219.626667 208.100527 
L 222.632727 202.222407 
L 225.638788 196.210601 
L 228.644848 190.092717 
L 231.650909 183.89792 
L 234.65697 177.656512 
L 237.66303 171.399488 
L 240.669091 165.15808 
L 243.675152 158.963283 
L 246.681212 152.845399 
L 249.687273 146.833593 
L 252.693333 140.955473 
L 255.699394 135.236717 
L 258.705455 129.70074 
L 261.711515 124.368415 
L 264.717576 119.257852 
L 267.723636 114.384245 
L 270.729697 109.759777 
L 273.735758 105.393585 
L 276.741818 101.291794 
L 279.747879 97.457603 
L 282.753939 93.891418 
L 285.76 90.591042 
L 288.766061 87.551888 
L 291.772121 84.767232 
L 294.778182 82.22848 
L 297.784242 79.925456 
L 300.790303 77.846686 
L 303.796364 75.979688 
L 306.802424 74.311246 
L 309.808485 72.827676 
L 312.814545 71.51507 
L 315.820606 70.359515 
L 318.826667 69.347291 
L 321.832727 68.465041 
L 324.838788 67.699908 
L 327.844848 67.039652 
L 330.850909 66.47274 
L 333.85697 65.9884 
L 336.86303 65.576668 
L 339.869091 65.228405 
L 342.875152 64.935295 
L 345.881212 64.689834 
L 348.887273 64.4853 
L 351.893333 64.315719 
L 354.899394 64.175818 
L 357.905455 64.060979 
L 360.911515 63.967182 
L 363.917576 63.890952 
L 366.923636 63.82931 
L 369.929697 63.779711 
L 372.935758 63.740001 
L 375.941818 63.708368 
L 378.947879 63.683295 
L 381.953939 63.663519 
L 384.96 63.648 
" clip-path="url(#p5f0d36100e)" style="fill: none; stroke: #1f77b4; stroke-width: 3; stroke-linecap: square"/>
   </g>
   <g id="patch_3">
    <path d="M 57.6 307.584 
L 414.72 307.584 
" style="fill: none; stroke: #000000; stroke-width: 0.5; stroke-linejoin: miter; stroke-linecap: square"/>
   </g>
   <g id="text_17">
    <!-- Cumulative distribution function (CDF) -->
    <g transform="translate(57.6 29.472) scale(0.12 -0.12)">
     <defs>
      <path id="Lato-Bold-43" d="M 3693 1091 
Q 3763 1091 3818 1037 
L 4157 669 
Q 3875 320 3464 134 
Q 3053 -51 2477 -51 
Q 1962 -51 1550 125 
Q 1139 301 848 614 
Q 557 928 401 1363 
Q 246 1798 246 2314 
Q 246 2835 412 3268 
Q 579 3702 881 4016 
Q 1184 4330 1603 4504 
Q 2022 4678 2531 4678 
Q 3037 4678 3429 4512 
Q 3821 4346 4096 4077 
L 3808 3677 
Q 3782 3638 3742 3609 
Q 3702 3581 3632 3581 
Q 3584 3581 3533 3608 
Q 3482 3635 3421 3675 
Q 3360 3715 3280 3763 
Q 3200 3811 3094 3851 
Q 2989 3891 2849 3918 
Q 2710 3946 2528 3946 
Q 2218 3946 1960 3835 
Q 1702 3725 1516 3515 
Q 1331 3306 1228 3003 
Q 1126 2701 1126 2314 
Q 1126 1923 1236 1619 
Q 1347 1315 1536 1107 
Q 1725 899 1981 788 
Q 2237 678 2531 678 
Q 2707 678 2849 697 
Q 2992 717 3112 758 
Q 3232 800 3339 865 
Q 3446 931 3552 1027 
Q 3584 1056 3619 1073 
Q 3654 1091 3693 1091 
z
" transform="scale(0.015625)"/>
      <path id="Lato-Bold-75" d="M 1149 3283 
L 1149 1197 
Q 1149 896 1288 731 
Q 1427 566 1706 566 
Q 1910 566 2089 657 
Q 2269 749 2429 909 
L 2429 3283 
L 3219 3283 
L 3219 0 
L 2736 0 
Q 2579 0 2538 144 
L 2483 406 
Q 2381 304 2272 219 
Q 2163 134 2038 73 
Q 1914 13 1773 -19 
Q 1632 -51 1466 -51 
Q 1197 -51 990 40 
Q 784 131 643 297 
Q 502 464 430 693 
Q 358 922 358 1197 
L 358 3283 
L 1149 3283 
z
" transform="scale(0.015625)"/>
      <path id="Lato-Bold-6d" d="M 390 0 
L 390 3283 
L 874 3283 
Q 1027 3283 1075 3139 
L 1126 2896 
Q 1213 2992 1307 3072 
Q 1402 3152 1509 3209 
Q 1616 3267 1739 3300 
Q 1862 3334 2010 3334 
Q 2320 3334 2520 3166 
Q 2720 2998 2819 2720 
Q 2896 2883 3011 3000 
Q 3126 3117 3264 3190 
Q 3402 3264 3557 3299 
Q 3712 3334 3869 3334 
Q 4141 3334 4352 3251 
Q 4563 3168 4707 3008 
Q 4851 2848 4926 2617 
Q 5002 2387 5002 2090 
L 5002 0 
L 4211 0 
L 4211 2090 
Q 4211 2403 4073 2561 
Q 3936 2720 3670 2720 
Q 3549 2720 3445 2678 
Q 3341 2637 3262 2558 
Q 3184 2480 3139 2361 
Q 3094 2243 3094 2090 
L 3094 0 
L 2301 0 
L 2301 2090 
Q 2301 2419 2168 2569 
Q 2035 2720 1779 2720 
Q 1606 2720 1457 2635 
Q 1309 2550 1181 2403 
L 1181 0 
L 390 0 
z
" transform="scale(0.015625)"/>
      <path id="Lato-Bold-6c" d="M 1190 4755 
L 1190 0 
L 400 0 
L 400 4755 
L 1190 4755 
z
" transform="scale(0.015625)"/>
      <path id="Lato-Bold-61" d="M 2538 0 
Q 2426 0 2365 33 
Q 2304 67 2269 170 
L 2198 403 
Q 2074 291 1955 206 
Q 1837 122 1709 64 
Q 1581 6 1435 -22 
Q 1290 -51 1114 -51 
Q 906 -51 730 5 
Q 554 61 426 173 
Q 298 285 227 451 
Q 157 618 157 838 
Q 157 1024 254 1205 
Q 352 1386 579 1531 
Q 806 1677 1184 1773 
Q 1562 1869 2125 1882 
L 2125 2074 
Q 2125 2403 1984 2561 
Q 1843 2720 1578 2720 
Q 1386 2720 1259 2675 
Q 1133 2630 1037 2574 
Q 941 2518 862 2473 
Q 784 2429 688 2429 
Q 605 2429 547 2472 
Q 490 2515 454 2573 
L 314 2826 
Q 880 3344 1677 3344 
Q 1965 3344 2192 3249 
Q 2419 3155 2576 2987 
Q 2733 2819 2814 2585 
Q 2896 2352 2896 2074 
L 2896 0 
L 2538 0 
z
M 1357 493 
Q 1600 493 1777 581 
Q 1955 669 2125 848 
L 2125 1402 
Q 1779 1386 1547 1342 
Q 1315 1299 1174 1232 
Q 1034 1165 973 1075 
Q 912 986 912 880 
Q 912 672 1035 582 
Q 1158 493 1357 493 
z
" transform="scale(0.015625)"/>
      <path id="Lato-Bold-74" d="M 1485 -51 
Q 1056 -51 827 190 
Q 598 432 598 858 
L 598 2691 
L 262 2691 
Q 198 2691 153 2732 
Q 109 2774 109 2858 
L 109 3171 
L 637 3258 
L 803 4154 
Q 819 4218 864 4253 
Q 909 4288 979 4288 
L 1389 4288 
L 1389 3254 
L 2266 3254 
L 2266 2691 
L 1389 2691 
L 1389 912 
Q 1389 758 1464 672 
Q 1539 586 1670 586 
Q 1744 586 1793 603 
Q 1843 621 1880 640 
Q 1917 659 1945 676 
Q 1974 694 2003 694 
Q 2038 694 2060 676 
Q 2083 659 2109 624 
L 2346 240 
Q 2173 96 1949 22 
Q 1725 -51 1485 -51 
z
" transform="scale(0.015625)"/>
      <path id="Lato-Bold-69" d="M 1210 3283 
L 1210 0 
L 416 0 
L 416 3283 
L 1210 3283 
z
M 1318 4240 
Q 1318 4138 1276 4048 
Q 1235 3958 1166 3891 
Q 1098 3824 1005 3784 
Q 912 3744 806 3744 
Q 704 3744 613 3784 
Q 522 3824 454 3891 
Q 387 3958 347 4048 
Q 307 4138 307 4240 
Q 307 4346 347 4438 
Q 387 4531 454 4598 
Q 522 4666 613 4706 
Q 704 4746 806 4746 
Q 912 4746 1005 4706 
Q 1098 4666 1166 4598 
Q 1235 4531 1276 4438 
Q 1318 4346 1318 4240 
z
" transform="scale(0.015625)"/>
      <path id="Lato-Bold-76" d="M 29 3283 
L 682 3283 
Q 771 3283 830 3241 
Q 890 3200 909 3136 
L 1542 1382 
Q 1594 1229 1630 1081 
Q 1667 934 1699 787 
Q 1731 934 1769 1081 
Q 1808 1229 1862 1382 
L 2509 3136 
Q 2531 3200 2588 3241 
Q 2646 3283 2726 3283 
L 3350 3283 
L 2048 0 
L 1331 0 
L 29 3283 
z
" transform="scale(0.015625)"/>
      <path id="Lato-Bold-65" d="M 1789 3334 
Q 2099 3334 2361 3235 
Q 2624 3136 2813 2945 
Q 3002 2755 3109 2478 
Q 3216 2202 3216 1846 
Q 3216 1667 3177 1604 
Q 3139 1542 3030 1542 
L 998 1542 
Q 1018 1290 1088 1106 
Q 1158 922 1273 802 
Q 1389 682 1547 622 
Q 1706 563 1898 563 
Q 2090 563 2229 608 
Q 2368 653 2472 707 
Q 2576 762 2654 806 
Q 2733 851 2806 851 
Q 2906 851 2954 778 
L 3181 490 
Q 3050 336 2886 232 
Q 2723 128 2545 65 
Q 2368 3 2184 -22 
Q 2000 -48 1827 -48 
Q 1485 -48 1190 65 
Q 896 179 678 401 
Q 461 624 336 952 
Q 211 1280 211 1712 
Q 211 2048 320 2344 
Q 429 2640 632 2859 
Q 835 3078 1128 3206 
Q 1421 3334 1789 3334 
z
M 1805 2768 
Q 1459 2768 1264 2573 
Q 1069 2378 1014 2019 
L 2506 2019 
Q 2506 2173 2462 2309 
Q 2419 2445 2332 2547 
Q 2246 2650 2113 2709 
Q 1981 2768 1805 2768 
z
" transform="scale(0.015625)"/>
      <path id="Lato-Bold-20" transform="scale(0.015625)"/>
      <path id="Lato-Bold-64" d="M 2758 0 
Q 2602 0 2560 144 
L 2493 461 
Q 2390 346 2278 253 
Q 2166 160 2036 93 
Q 1907 26 1758 -11 
Q 1610 -48 1437 -48 
Q 1168 -48 944 64 
Q 720 176 558 389 
Q 397 602 309 915 
Q 221 1229 221 1632 
Q 221 1997 320 2310 
Q 419 2624 604 2854 
Q 790 3085 1049 3214 
Q 1309 3344 1632 3344 
Q 1907 3344 2102 3256 
Q 2298 3168 2451 3021 
L 2451 4755 
L 3242 4755 
L 3242 0 
L 2758 0 
z
M 1706 579 
Q 1952 579 2125 681 
Q 2298 784 2451 973 
L 2451 2445 
Q 2317 2608 2158 2675 
Q 2000 2742 1818 2742 
Q 1638 2742 1494 2675 
Q 1350 2608 1248 2472 
Q 1146 2336 1091 2126 
Q 1037 1917 1037 1632 
Q 1037 1344 1083 1144 
Q 1130 944 1216 817 
Q 1302 691 1427 635 
Q 1552 579 1706 579 
z
" transform="scale(0.015625)"/>
      <path id="Lato-Bold-73" d="M 2394 2643 
Q 2362 2592 2326 2571 
Q 2291 2550 2237 2550 
Q 2179 2550 2113 2582 
Q 2048 2614 1961 2654 
Q 1875 2694 1764 2726 
Q 1654 2758 1504 2758 
Q 1270 2758 1137 2659 
Q 1005 2560 1005 2400 
Q 1005 2294 1073 2222 
Q 1142 2150 1256 2096 
Q 1370 2042 1514 1998 
Q 1658 1955 1806 1904 
Q 1955 1853 2099 1787 
Q 2243 1722 2356 1621 
Q 2470 1520 2539 1379 
Q 2608 1238 2608 1040 
Q 2608 803 2523 603 
Q 2438 403 2272 257 
Q 2106 112 1861 30 
Q 1616 -51 1296 -51 
Q 1126 -51 964 -20 
Q 803 10 654 64 
Q 506 118 379 192 
Q 253 266 157 352 
L 339 653 
Q 374 707 422 736 
Q 470 765 544 765 
Q 618 765 683 723 
Q 749 682 835 634 
Q 922 586 1038 544 
Q 1155 502 1334 502 
Q 1475 502 1576 536 
Q 1677 570 1742 624 
Q 1808 678 1838 750 
Q 1869 822 1869 899 
Q 1869 1014 1800 1088 
Q 1731 1162 1617 1216 
Q 1504 1270 1358 1313 
Q 1213 1357 1061 1408 
Q 909 1459 763 1528 
Q 618 1597 504 1702 
Q 390 1808 321 1961 
Q 253 2115 253 2333 
Q 253 2534 333 2716 
Q 413 2899 568 3035 
Q 723 3171 955 3252 
Q 1187 3334 1491 3334 
Q 1830 3334 2108 3222 
Q 2387 3110 2573 2928 
L 2394 2643 
z
" transform="scale(0.015625)"/>
      <path id="Lato-Bold-72" d="M 390 0 
L 390 3283 
L 854 3283 
Q 976 3283 1024 3240 
Q 1072 3197 1088 3085 
L 1133 2714 
Q 1290 3008 1501 3176 
Q 1712 3344 2000 3344 
Q 2227 3344 2365 3245 
L 2314 2653 
Q 2298 2595 2267 2571 
Q 2237 2547 2186 2547 
Q 2138 2547 2043 2563 
Q 1949 2579 1859 2579 
Q 1728 2579 1625 2540 
Q 1523 2502 1441 2430 
Q 1360 2358 1297 2256 
Q 1235 2154 1181 2022 
L 1181 0 
L 390 0 
z
" transform="scale(0.015625)"/>
      <path id="Lato-Bold-62" d="M 390 0 
L 390 4755 
L 1181 4755 
L 1181 2877 
Q 1379 3088 1620 3211 
Q 1862 3334 2173 3334 
Q 2458 3334 2686 3222 
Q 2915 3110 3076 2900 
Q 3238 2691 3324 2393 
Q 3411 2096 3411 1725 
Q 3411 1325 3312 998 
Q 3213 672 3029 440 
Q 2845 208 2585 80 
Q 2326 -48 2010 -48 
Q 1856 -48 1729 -17 
Q 1603 13 1499 67 
Q 1395 122 1307 200 
Q 1219 278 1139 374 
L 1104 154 
Q 1085 70 1038 35 
Q 992 0 912 0 
L 390 0 
z
M 1901 2720 
Q 1674 2720 1504 2616 
Q 1334 2512 1181 2323 
L 1181 851 
Q 1315 685 1473 619 
Q 1632 554 1808 554 
Q 1990 554 2136 619 
Q 2282 685 2384 824 
Q 2486 963 2540 1179 
Q 2595 1395 2595 1696 
Q 2595 2237 2416 2478 
Q 2237 2720 1901 2720 
z
" transform="scale(0.015625)"/>
      <path id="Lato-Bold-6f" d="M 1843 3334 
Q 2208 3334 2507 3216 
Q 2806 3098 3019 2880 
Q 3232 2662 3347 2348 
Q 3462 2035 3462 1648 
Q 3462 1258 3347 944 
Q 3232 630 3019 409 
Q 2806 189 2507 70 
Q 2208 -48 1843 -48 
Q 1475 -48 1174 70 
Q 874 189 661 409 
Q 448 630 331 944 
Q 214 1258 214 1648 
Q 214 2035 331 2348 
Q 448 2662 661 2880 
Q 874 3098 1174 3216 
Q 1475 3334 1843 3334 
z
M 1843 560 
Q 2253 560 2449 835 
Q 2646 1110 2646 1642 
Q 2646 2173 2449 2451 
Q 2253 2730 1843 2730 
Q 1427 2730 1227 2450 
Q 1027 2170 1027 1642 
Q 1027 1114 1227 837 
Q 1427 560 1843 560 
z
" transform="scale(0.015625)"/>
      <path id="Lato-Bold-6e" d="M 390 0 
L 390 3283 
L 874 3283 
Q 1027 3283 1075 3139 
L 1130 2880 
Q 1229 2982 1339 3065 
Q 1450 3149 1573 3209 
Q 1696 3270 1837 3302 
Q 1978 3334 2144 3334 
Q 2413 3334 2621 3243 
Q 2829 3152 2968 2987 
Q 3107 2822 3179 2593 
Q 3251 2365 3251 2090 
L 3251 0 
L 2461 0 
L 2461 2090 
Q 2461 2390 2323 2555 
Q 2186 2720 1904 2720 
Q 1699 2720 1520 2627 
Q 1341 2534 1181 2374 
L 1181 0 
L 390 0 
z
" transform="scale(0.015625)"/>
      <path id="Lato-Bold-66" d="M 621 0 
L 621 2688 
L 336 2733 
Q 243 2752 187 2798 
Q 131 2845 131 2931 
L 131 3254 
L 621 3254 
L 621 3498 
Q 621 3779 705 4003 
Q 790 4227 948 4384 
Q 1107 4541 1334 4624 
Q 1562 4707 1846 4707 
Q 2074 4707 2269 4646 
L 2253 4250 
Q 2250 4205 2227 4177 
Q 2205 4150 2168 4136 
Q 2131 4122 2083 4117 
Q 2035 4112 1981 4112 
Q 1840 4112 1729 4081 
Q 1619 4051 1542 3976 
Q 1466 3901 1426 3777 
Q 1386 3654 1386 3472 
L 1386 3254 
L 2240 3254 
L 2240 2691 
L 1411 2691 
L 1411 0 
L 621 0 
z
" transform="scale(0.015625)"/>
      <path id="Lato-Bold-63" d="M 2742 2589 
Q 2707 2544 2673 2518 
Q 2640 2493 2576 2493 
Q 2515 2493 2457 2529 
Q 2400 2566 2320 2612 
Q 2240 2659 2129 2696 
Q 2019 2733 1856 2733 
Q 1648 2733 1491 2657 
Q 1334 2582 1230 2441 
Q 1126 2301 1075 2101 
Q 1024 1901 1024 1648 
Q 1024 1386 1080 1181 
Q 1136 976 1241 837 
Q 1347 698 1497 626 
Q 1648 554 1837 554 
Q 2026 554 2142 600 
Q 2259 646 2339 702 
Q 2419 758 2478 804 
Q 2538 851 2611 851 
Q 2707 851 2755 778 
L 2982 490 
Q 2851 336 2697 232 
Q 2544 128 2379 65 
Q 2214 3 2040 -22 
Q 1866 -48 1693 -48 
Q 1389 -48 1120 65 
Q 851 179 649 396 
Q 448 614 331 929 
Q 214 1245 214 1648 
Q 214 2010 318 2318 
Q 422 2627 624 2852 
Q 826 3078 1123 3206 
Q 1421 3334 1808 3334 
Q 2176 3334 2453 3216 
Q 2730 3098 2950 2877 
L 2742 2589 
z
" transform="scale(0.015625)"/>
      <path id="Lato-Bold-28" d="M 918 2006 
Q 918 1347 1078 710 
Q 1238 74 1536 -486 
Q 1568 -550 1573 -600 
Q 1578 -650 1565 -686 
Q 1552 -723 1525 -750 
Q 1498 -778 1466 -797 
L 1114 -1011 
Q 877 -646 710 -278 
Q 544 90 438 464 
Q 333 838 283 1222 
Q 234 1606 234 2006 
Q 234 2406 283 2792 
Q 333 3178 438 3552 
Q 544 3926 710 4292 
Q 877 4659 1114 5024 
L 1466 4813 
Q 1498 4794 1525 4766 
Q 1552 4739 1565 4702 
Q 1578 4666 1573 4616 
Q 1568 4566 1536 4499 
Q 1238 3942 1078 3304 
Q 918 2666 918 2006 
z
" transform="scale(0.015625)"/>
      <path id="Lato-Bold-44" d="M 4624 2314 
Q 4624 1805 4454 1379 
Q 4285 954 3977 646 
Q 3670 339 3238 169 
Q 2806 0 2278 0 
L 515 0 
L 515 4627 
L 2278 4627 
Q 2806 4627 3238 4456 
Q 3670 4285 3977 3979 
Q 4285 3674 4454 3248 
Q 4624 2822 4624 2314 
z
M 3741 2314 
Q 3741 2694 3640 2996 
Q 3539 3299 3348 3508 
Q 3158 3718 2888 3830 
Q 2618 3942 2278 3942 
L 1379 3942 
L 1379 685 
L 2278 685 
Q 2618 685 2888 797 
Q 3158 909 3348 1118 
Q 3539 1328 3640 1630 
Q 3741 1933 3741 2314 
z
" transform="scale(0.015625)"/>
      <path id="Lato-Bold-46" d="M 3434 4627 
L 3434 3942 
L 1379 3942 
L 1379 2573 
L 3114 2573 
L 3114 1885 
L 1379 1885 
L 1379 0 
L 515 0 
L 515 4627 
L 3434 4627 
z
" transform="scale(0.015625)"/>
      <path id="Lato-Bold-29" d="M 835 2006 
Q 835 2666 676 3304 
Q 518 3942 221 4499 
Q 186 4566 181 4616 
Q 176 4666 189 4702 
Q 202 4739 229 4766 
Q 256 4794 291 4813 
L 643 5024 
Q 880 4659 1046 4292 
Q 1213 3926 1318 3552 
Q 1424 3178 1472 2792 
Q 1520 2406 1520 2006 
Q 1520 1606 1472 1222 
Q 1424 838 1318 464 
Q 1213 90 1046 -278 
Q 880 -646 643 -1011 
L 291 -797 
Q 256 -778 229 -750 
Q 202 -723 189 -686 
Q 176 -650 181 -600 
Q 186 -550 221 -486 
Q 518 74 676 710 
Q 835 1347 835 2006 
z
" transform="scale(0.015625)"/>
     </defs>
     <use xlink:href="#Lato-Bold-43"/>
     <use xlink:href="#Lato-Bold-75" x="65.400009"/>
     <use xlink:href="#Lato-Bold-6d" x="121.800018"/>
     <use xlink:href="#Lato-Bold-75" x="205.550034"/>
     <use xlink:href="#Lato-Bold-6c" x="261.950043"/>
     <use xlink:href="#Lato-Bold-61" x="286.800049"/>
     <use xlink:href="#Lato-Bold-74" x="336.800049"/>
     <use xlink:href="#Lato-Bold-69" x="374.000046"/>
     <use xlink:href="#Lato-Bold-76" x="399.40004"/>
     <use xlink:href="#Lato-Bold-65" x="450.575043"/>
     <use xlink:href="#Lato-Bold-20" x="503.975052"/>
     <use xlink:href="#Lato-Bold-64" x="528.275055"/>
     <use xlink:href="#Lato-Bold-69" x="585.025055"/>
     <use xlink:href="#Lato-Bold-73" x="610.425049"/>
     <use xlink:href="#Lato-Bold-74" x="654.375046"/>
     <use xlink:href="#Lato-Bold-72" x="691.575043"/>
     <use xlink:href="#Lato-Bold-69" x="728.875046"/>
     <use xlink:href="#Lato-Bold-62" x="754.27504"/>
     <use xlink:href="#Lato-Bold-75" x="811.02504"/>
     <use xlink:href="#Lato-Bold-74" x="867.425049"/>
     <use xlink:href="#Lato-Bold-69" x="904.625046"/>
     <use xlink:href="#Lato-Bold-6f" x="930.02504"/>
     <use xlink:href="#Lato-Bold-6e" x="987.475052"/>
     <use xlink:href="#Lato-Bold-20" x="1043.875061"/>
     <use xlink:href="#Lato-Bold-66" x="1068.175064"/>
     <use xlink:href="#Lato-Bold-75" x="1104.02507"/>
     <use xlink:href="#Lato-Bold-6e" x="1160.425079"/>
     <use xlink:href="#Lato-Bold-63" x="1216.825089"/>
     <use xlink:href="#Lato-Bold-74" x="1265.025101"/>
     <use xlink:href="#Lato-Bold-69" x="1302.225098"/>
     <use xlink:href="#Lato-Bold-6f" x="1327.625092"/>
     <use xlink:href="#Lato-Bold-6e" x="1385.075104"/>
     <use xlink:href="#Lato-Bold-20" x="1441.475113"/>
     <use xlink:href="#Lato-Bold-28" x="1465.775116"/>
     <use xlink:href="#Lato-Bold-43" x="1491.225113"/>
     <use xlink:href="#Lato-Bold-44" x="1557.375122"/>
     <use xlink:href="#Lato-Bold-46" x="1633.42514"/>
     <use xlink:href="#Lato-Bold-29" x="1690.025146"/>
    </g>
   </g>
  </g>
 </g>
 <defs>
  <clipPath id="p5f0d36100e">
   <rect x="57.6" y="41.472" width="357.12" height="266.112"/>
  </clipPath>
 </defs>
</svg>
