<?xml version="1.0" encoding="utf-8" standalone="no"?>
<!DOCTYPE svg PUBLIC "-//W3C//DTD SVG 1.1//EN"
  "http://www.w3.org/Graphics/SVG/1.1/DTD/svg11.dtd">
<svg xmlns:xlink="http://www.w3.org/1999/xlink" width="460.8pt" height="345.6pt" viewBox="0 0 460.8 345.6" xmlns="http://www.w3.org/2000/svg" version="1.1">
 <metadata>
  <rdf:RDF xmlns:dc="http://purl.org/dc/elements/1.1/" xmlns:cc="http://creativecommons.org/ns#" xmlns:rdf="http://www.w3.org/1999/02/22-rdf-syntax-ns#">
   <cc:Work>
    <dc:type rdf:resource="http://purl.org/dc/dcmitype/StillImage"/>
    <dc:date>2025-04-25T15:20:26.922009</dc:date>
    <dc:format>image/svg+xml</dc:format>
    <dc:creator>
     <cc:Agent>
      <dc:title>Matplotlib v3.9.2, https://matplotlib.org/</dc:title>
     </cc:Agent>
    </dc:creator>
   </cc:Work>
  </rdf:RDF>
 </metadata>
 <defs>
  <style type="text/css">*{stroke-linejoin: round; stroke-linecap: butt}</style>
 </defs>
 <g id="figure_1">
  <g id="patch_1">
   <path d="M 0 345.6 
L 460.8 345.6 
L 460.8 0 
L 0 0 
L 0 345.6 
z
" style="fill: none"/>
  </g>
  <g id="axes_1">
   <g id="patch_2">
    <path d="M 45.12 149.01 
L 242.16 149.01 
L 242.16 32.16 
L 45.12 32.16 
L 45.12 149.01 
z
" style="fill: none"/>
   </g>
   <g id="matplotlib.axis_1">
    <g id="xtick_1">
     <g id="line2d_1">
      <defs>
       <path id="m8219a575fd" d="M 0 0 
L 0 6 
" style="stroke: #000000; stroke-width: 0.5"/>
      </defs>
      <g>
       <use xlink:href="#m8219a575fd" x="84.997143" y="149.01" style="stroke: #000000; stroke-width: 0.5"/>
      </g>
     </g>
    </g>
    <g id="xtick_2">
     <g id="line2d_2">
      <g>
       <use xlink:href="#m8219a575fd" x="131.911429" y="149.01" style="stroke: #000000; stroke-width: 0.5"/>
      </g>
     </g>
    </g>
    <g id="xtick_3">
     <g id="line2d_3">
      <g>
       <use xlink:href="#m8219a575fd" x="178.825714" y="149.01" style="stroke: #000000; stroke-width: 0.5"/>
      </g>
     </g>
    </g>
    <g id="xtick_4">
     <g id="line2d_4">
      <g>
       <use xlink:href="#m8219a575fd" x="225.74" y="149.01" style="stroke: #000000; stroke-width: 0.5"/>
      </g>
     </g>
    </g>
    <g id="xtick_5">
     <g id="line2d_5">
      <defs>
       <path id="m54edba0700" d="M 0 0 
L 0 3 
" style="stroke: #000000; stroke-width: 0.5"/>
      </defs>
      <g>
       <use xlink:href="#m54edba0700" x="49.811429" y="149.01" style="stroke: #000000; stroke-width: 0.5"/>
      </g>
     </g>
    </g>
    <g id="xtick_6">
     <g id="line2d_6">
      <g>
       <use xlink:href="#m54edba0700" x="61.54" y="149.01" style="stroke: #000000; stroke-width: 0.5"/>
      </g>
     </g>
    </g>
    <g id="xtick_7">
     <g id="line2d_7">
      <g>
       <use xlink:href="#m54edba0700" x="73.268571" y="149.01" style="stroke: #000000; stroke-width: 0.5"/>
      </g>
     </g>
    </g>
    <g id="xtick_8">
     <g id="line2d_8">
      <g>
       <use xlink:href="#m54edba0700" x="96.725714" y="149.01" style="stroke: #000000; stroke-width: 0.5"/>
      </g>
     </g>
    </g>
    <g id="xtick_9">
     <g id="line2d_9">
      <g>
       <use xlink:href="#m54edba0700" x="108.454286" y="149.01" style="stroke: #000000; stroke-width: 0.5"/>
      </g>
     </g>
    </g>
    <g id="xtick_10">
     <g id="line2d_10">
      <g>
       <use xlink:href="#m54edba0700" x="120.182857" y="149.01" style="stroke: #000000; stroke-width: 0.5"/>
      </g>
     </g>
    </g>
    <g id="xtick_11">
     <g id="line2d_11">
      <g>
       <use xlink:href="#m54edba0700" x="143.64" y="149.01" style="stroke: #000000; stroke-width: 0.5"/>
      </g>
     </g>
    </g>
    <g id="xtick_12">
     <g id="line2d_12">
      <g>
       <use xlink:href="#m54edba0700" x="155.368571" y="149.01" style="stroke: #000000; stroke-width: 0.5"/>
      </g>
     </g>
    </g>
    <g id="xtick_13">
     <g id="line2d_13">
      <g>
       <use xlink:href="#m54edba0700" x="167.097143" y="149.01" style="stroke: #000000; stroke-width: 0.5"/>
      </g>
     </g>
    </g>
    <g id="xtick_14">
     <g id="line2d_14">
      <g>
       <use xlink:href="#m54edba0700" x="190.554286" y="149.01" style="stroke: #000000; stroke-width: 0.5"/>
      </g>
     </g>
    </g>
    <g id="xtick_15">
     <g id="line2d_15">
      <g>
       <use xlink:href="#m54edba0700" x="202.282857" y="149.01" style="stroke: #000000; stroke-width: 0.5"/>
      </g>
     </g>
    </g>
    <g id="xtick_16">
     <g id="line2d_16">
      <g>
       <use xlink:href="#m54edba0700" x="214.011429" y="149.01" style="stroke: #000000; stroke-width: 0.5"/>
      </g>
     </g>
    </g>
    <g id="xtick_17">
     <g id="line2d_17">
      <g>
       <use xlink:href="#m54edba0700" x="237.468571" y="149.01" style="stroke: #000000; stroke-width: 0.5"/>
      </g>
     </g>
    </g>
   </g>
   <g id="matplotlib.axis_2">
    <g id="ytick_1">
     <g id="line2d_18">
      <path d="M 45.12 149.01 
L 242.16 149.01 
" clip-path="url(#pc4375b5c6a)" style="fill: none; stroke: #cccccc; stroke-width: 0.5; stroke-linecap: square"/>
     </g>
     <g id="text_1">
      <!-- 0.0 -->
      <g transform="translate(27.660625 152.692812) scale(0.1 -0.1)">
       <defs>
        <path id="Lato-Regular-30" d="M 3520 2291 
Q 3520 1690 3390 1250 
Q 3261 810 3037 522 
Q 2813 234 2507 93 
Q 2202 -48 1853 -48 
Q 1501 -48 1198 93 
Q 896 234 672 522 
Q 448 810 320 1250 
Q 192 1690 192 2291 
Q 192 2893 320 3334 
Q 448 3776 672 4065 
Q 896 4355 1198 4496 
Q 1501 4637 1853 4637 
Q 2202 4637 2507 4496 
Q 2813 4355 3037 4065 
Q 3261 3776 3390 3334 
Q 3520 2893 3520 2291 
z
M 2928 2291 
Q 2928 2816 2840 3173 
Q 2752 3530 2603 3747 
Q 2454 3965 2259 4059 
Q 2064 4154 1853 4154 
Q 1642 4154 1446 4059 
Q 1251 3965 1104 3747 
Q 957 3530 869 3173 
Q 781 2816 781 2291 
Q 781 1766 869 1411 
Q 957 1056 1104 838 
Q 1251 621 1446 526 
Q 1642 432 1853 432 
Q 2064 432 2259 526 
Q 2454 621 2603 838 
Q 2752 1056 2840 1411 
Q 2928 1766 2928 2291 
z
" transform="scale(0.015625)"/>
        <path id="Lato-Regular-2e" d="M 355 352 
Q 355 435 385 508 
Q 416 582 469 636 
Q 522 691 595 723 
Q 669 755 752 755 
Q 835 755 908 723 
Q 982 691 1036 636 
Q 1091 582 1123 508 
Q 1155 435 1155 352 
Q 1155 266 1123 194 
Q 1091 122 1036 67 
Q 982 13 908 -17 
Q 835 -48 752 -48 
Q 669 -48 595 -17 
Q 522 13 469 67 
Q 416 122 385 194 
Q 355 266 355 352 
z
" transform="scale(0.015625)"/>
       </defs>
       <use xlink:href="#Lato-Regular-30"/>
       <use xlink:href="#Lato-Regular-2e" x="58"/>
       <use xlink:href="#Lato-Regular-30" x="81.600006"/>
      </g>
     </g>
    </g>
    <g id="ytick_2">
     <g id="line2d_19">
      <path d="M 45.12 122.453182 
L 242.16 122.453182 
" clip-path="url(#pc4375b5c6a)" style="fill: none; stroke: #cccccc; stroke-width: 0.5; stroke-linecap: square"/>
     </g>
     <g id="text_2">
      <!-- 0.1 -->
      <g transform="translate(27.660625 126.135994) scale(0.1 -0.1)">
       <defs>
        <path id="Lato-Regular-31" d="M 800 435 
L 1782 435 
L 1782 3562 
Q 1782 3696 1792 3846 
L 976 3146 
Q 934 3110 892 3102 
Q 851 3094 816 3100 
Q 781 3107 750 3126 
Q 720 3146 704 3168 
L 525 3414 
L 1891 4595 
L 2355 4595 
L 2355 435 
L 3258 435 
L 3258 0 
L 800 0 
L 800 435 
z
" transform="scale(0.015625)"/>
       </defs>
       <use xlink:href="#Lato-Regular-30"/>
       <use xlink:href="#Lato-Regular-2e" x="58"/>
       <use xlink:href="#Lato-Regular-31" x="81.600006"/>
      </g>
     </g>
    </g>
    <g id="ytick_3">
     <g id="line2d_20">
      <path d="M 45.12 95.896364 
L 242.16 95.896364 
" clip-path="url(#pc4375b5c6a)" style="fill: none; stroke: #cccccc; stroke-width: 0.5; stroke-linecap: square"/>
     </g>
     <g id="text_3">
      <!-- 0.2 -->
      <g transform="translate(27.660625 99.579176) scale(0.1 -0.1)">
       <defs>
        <path id="Lato-Regular-32" d="M 1891 4637 
Q 2182 4637 2435 4550 
Q 2688 4464 2873 4299 
Q 3059 4134 3164 3897 
Q 3270 3661 3270 3360 
Q 3270 3104 3193 2885 
Q 3117 2666 2985 2467 
Q 2854 2269 2683 2080 
Q 2512 1891 2320 1699 
L 1110 464 
Q 1238 499 1369 520 
Q 1501 541 1622 541 
L 3158 541 
Q 3251 541 3305 486 
Q 3360 432 3360 346 
L 3360 0 
L 301 0 
L 301 195 
Q 301 256 326 320 
Q 352 384 406 438 
L 1875 1914 
Q 2058 2099 2208 2270 
Q 2358 2442 2464 2614 
Q 2570 2787 2627 2964 
Q 2685 3142 2685 3344 
Q 2685 3546 2621 3698 
Q 2557 3850 2446 3949 
Q 2336 4048 2185 4097 
Q 2035 4147 1862 4147 
Q 1686 4147 1539 4096 
Q 1392 4045 1278 3953 
Q 1165 3862 1088 3737 
Q 1011 3613 979 3462 
Q 941 3350 875 3313 
Q 810 3277 691 3293 
L 394 3344 
Q 438 3658 568 3899 
Q 698 4141 894 4304 
Q 1091 4467 1344 4552 
Q 1597 4637 1891 4637 
z
" transform="scale(0.015625)"/>
       </defs>
       <use xlink:href="#Lato-Regular-30"/>
       <use xlink:href="#Lato-Regular-2e" x="58"/>
       <use xlink:href="#Lato-Regular-32" x="81.600006"/>
      </g>
     </g>
    </g>
    <g id="ytick_4">
     <g id="line2d_21">
      <path d="M 45.12 69.339545 
L 242.16 69.339545 
" clip-path="url(#pc4375b5c6a)" style="fill: none; stroke: #cccccc; stroke-width: 0.5; stroke-linecap: square"/>
     </g>
     <g id="text_4">
      <!-- 0.3 -->
      <g transform="translate(27.660625 73.022358) scale(0.1 -0.1)">
       <defs>
        <path id="Lato-Regular-33" d="M 1914 4637 
Q 2205 4637 2451 4553 
Q 2698 4470 2875 4316 
Q 3053 4163 3152 3945 
Q 3251 3728 3251 3462 
Q 3251 3245 3195 3073 
Q 3139 2902 3035 2772 
Q 2931 2643 2784 2553 
Q 2637 2464 2454 2410 
Q 2902 2291 3128 2012 
Q 3354 1734 3354 1315 
Q 3354 998 3234 745 
Q 3114 493 2906 315 
Q 2698 138 2421 43 
Q 2144 -51 1827 -51 
Q 1462 -51 1203 40 
Q 944 131 765 291 
Q 586 451 470 670 
Q 355 890 275 1146 
L 522 1248 
Q 618 1290 709 1270 
Q 800 1251 842 1165 
Q 883 1075 945 950 
Q 1008 826 1117 710 
Q 1226 595 1394 515 
Q 1562 435 1821 435 
Q 2061 435 2241 513 
Q 2422 592 2542 717 
Q 2662 842 2723 995 
Q 2784 1149 2784 1299 
Q 2784 1485 2736 1638 
Q 2688 1792 2557 1904 
Q 2426 2016 2197 2080 
Q 1968 2144 1610 2144 
L 1610 2557 
Q 1904 2560 2110 2621 
Q 2317 2682 2446 2787 
Q 2576 2893 2635 3040 
Q 2694 3187 2694 3366 
Q 2694 3565 2632 3712 
Q 2570 3859 2461 3955 
Q 2352 4051 2203 4099 
Q 2054 4147 1882 4147 
Q 1709 4147 1560 4096 
Q 1411 4045 1297 3953 
Q 1184 3862 1107 3737 
Q 1030 3613 998 3462 
Q 957 3350 894 3313 
Q 832 3277 714 3293 
L 416 3344 
Q 461 3658 589 3899 
Q 717 4141 913 4304 
Q 1110 4467 1364 4552 
Q 1619 4637 1914 4637 
z
" transform="scale(0.015625)"/>
       </defs>
       <use xlink:href="#Lato-Regular-30"/>
       <use xlink:href="#Lato-Regular-2e" x="58"/>
       <use xlink:href="#Lato-Regular-33" x="81.600006"/>
      </g>
     </g>
    </g>
    <g id="ytick_5">
     <g id="line2d_22">
      <path d="M 45.12 42.782727 
L 242.16 42.782727 
" clip-path="url(#pc4375b5c6a)" style="fill: none; stroke: #cccccc; stroke-width: 0.5; stroke-linecap: square"/>
     </g>
     <g id="text_5">
      <!-- 0.4 -->
      <g transform="translate(27.660625 46.46554) scale(0.1 -0.1)">
       <defs>
        <path id="Lato-Regular-34" d="M 2835 1654 
L 3530 1654 
L 3530 1328 
Q 3530 1277 3499 1241 
Q 3469 1206 3405 1206 
L 2835 1206 
L 2835 0 
L 2336 0 
L 2336 1206 
L 301 1206 
Q 237 1206 190 1243 
Q 144 1280 131 1334 
L 74 1626 
L 2304 4586 
L 2835 4586 
L 2835 1654 
z
M 2336 3546 
Q 2336 3629 2341 3726 
Q 2346 3824 2362 3926 
L 691 1654 
L 2336 1654 
L 2336 3546 
z
" transform="scale(0.015625)"/>
       </defs>
       <use xlink:href="#Lato-Regular-30"/>
       <use xlink:href="#Lato-Regular-2e" x="58"/>
       <use xlink:href="#Lato-Regular-34" x="81.600006"/>
      </g>
     </g>
    </g>
   </g>
   <g id="LineCollection_1">
    <path d="M 143.64 149.01 
L 143.64 42.782727 
" clip-path="url(#pc4375b5c6a)" style="fill: none; stroke: #1f77b4"/>
   </g>
   <g id="LineCollection_2">
    <path d="M 120.182857 93.240682 
L 167.097143 93.240682 
" clip-path="url(#pc4375b5c6a)" style="fill: none; stroke: #1f77b4"/>
   </g>
   <g id="line2d_23">
    <defs>
     <path id="md1e08fa7b1" d="M 0 5 
L 0 -5 
" style="stroke: #1f77b4"/>
    </defs>
    <g clip-path="url(#pc4375b5c6a)">
     <use xlink:href="#md1e08fa7b1" x="120.182857" y="93.240682" style="fill: #1f77b4; stroke: #1f77b4"/>
    </g>
   </g>
   <g id="line2d_24">
    <g clip-path="url(#pc4375b5c6a)">
     <use xlink:href="#md1e08fa7b1" x="167.097143" y="93.240682" style="fill: #1f77b4; stroke: #1f77b4"/>
    </g>
   </g>
   <g id="line2d_25">
    <path d="M 61.54 148.778243 
L 63.198586 148.71391 
L 64.857172 148.633605 
L 66.515758 148.533906 
L 68.174343 148.410802 
L 69.832929 148.259628 
L 71.491515 148.075 
L 73.150101 147.850755 
L 74.808687 147.579896 
L 76.467273 147.254548 
L 78.125859 146.86593 
L 79.784444 146.40434 
L 81.44303 145.859167 
L 83.101616 145.218932 
L 84.760202 144.47135 
L 86.418788 143.603447 
L 88.077374 142.601698 
L 89.73596 141.45222 
L 91.394545 140.141008 
L 93.053131 138.654214 
L 94.711717 136.978478 
L 96.370303 135.10129 
L 98.028889 133.011404 
L 99.687475 130.69927 
L 101.346061 128.157498 
L 103.004646 125.381321 
L 104.663232 122.369065 
L 106.321818 119.122593 
L 107.980404 115.647718 
L 109.63899 111.954556 
L 111.297576 108.057819 
L 112.956162 103.977008 
L 114.614747 99.736511 
L 116.273333 95.365576 
L 117.931919 90.898164 
L 119.590505 86.372652 
L 121.249091 81.831412 
L 122.907677 77.320239 
L 124.566263 72.887658 
L 126.224848 68.584105 
L 127.883434 64.461012 
L 129.54202 60.56981 
L 131.200606 56.960873 
L 132.859192 53.68245 
L 134.517778 50.779594 
L 136.176364 48.293137 
L 137.834949 46.258731 
L 139.493535 44.706004 
L 141.152121 43.657839 
L 142.810707 43.129813 
L 144.469293 43.129813 
L 146.127879 43.657839 
L 147.786465 44.706004 
L 149.445051 46.258731 
L 151.103636 48.293137 
L 152.762222 50.779594 
L 154.420808 53.68245 
L 156.079394 56.960873 
L 157.73798 60.56981 
L 159.396566 64.461012 
L 161.055152 68.584105 
L 162.713737 72.887658 
L 164.372323 77.320239 
L 166.030909 81.831412 
L 167.689495 86.372652 
L 169.348081 90.898164 
L 171.006667 95.365576 
L 172.665253 99.736511 
L 174.323838 103.977008 
L 175.982424 108.057819 
L 177.64101 111.954556 
L 179.299596 115.647718 
L 180.958182 119.122593 
L 182.616768 122.369065 
L 184.275354 125.381321 
L 185.933939 128.157498 
L 187.592525 130.69927 
L 189.251111 133.011404 
L 190.909697 135.10129 
L 192.568283 136.978478 
L 194.226869 138.654214 
L 195.885455 140.141008 
L 197.54404 141.45222 
L 199.202626 142.601698 
L 200.861212 143.603447 
L 202.519798 144.47135 
L 204.178384 145.218932 
L 205.83697 145.859167 
L 207.495556 146.40434 
L 209.154141 146.86593 
L 210.812727 147.254548 
L 212.471313 147.579896 
L 214.129899 147.850755 
L 215.788485 148.075 
L 217.447071 148.259628 
L 219.105657 148.410802 
L 220.764242 148.533906 
L 222.422828 148.633605 
L 224.081414 148.71391 
L 225.74 148.778243 
" clip-path="url(#pc4375b5c6a)" style="fill: none; stroke: #ff7f0e; stroke-linecap: square"/>
   </g>
   <g id="line2d_26">
    <path d="M 84.997143 149.01 
" clip-path="url(#pc4375b5c6a)" style="fill: none; stroke: #1f77b4; stroke-linecap: square"/>
   </g>
   <g id="line2d_27">
    <path d="M 143.64 93.240682 
" clip-path="url(#pc4375b5c6a)" style="fill: none; stroke: #1f77b4; stroke-linecap: square"/>
   </g>
   <g id="patch_3">
    <path d="M 45.12 149.01 
L 242.16 149.01 
" style="fill: none; stroke: #000000; stroke-width: 0.5; stroke-linejoin: miter; stroke-linecap: square"/>
   </g>
   <g id="text_6">
    <!-- Gaussian -->
    <g transform="translate(45.12 20.16) scale(0.12 -0.12)">
     <defs>
      <path id="Lato-Bold-47" d="M 4330 448 
Q 3978 189 3579 69 
Q 3181 -51 2726 -51 
Q 2160 -51 1701 125 
Q 1242 301 917 614 
Q 592 928 416 1363 
Q 240 1798 240 2314 
Q 240 2835 409 3270 
Q 579 3706 891 4019 
Q 1203 4333 1648 4505 
Q 2093 4678 2646 4678 
Q 2928 4678 3173 4633 
Q 3418 4589 3627 4510 
Q 3837 4432 4009 4320 
Q 4182 4208 4326 4074 
L 4080 3683 
Q 4022 3590 3929 3569 
Q 3837 3549 3728 3616 
Q 3622 3677 3516 3737 
Q 3411 3798 3281 3843 
Q 3152 3888 2990 3917 
Q 2829 3946 2618 3946 
Q 2275 3946 1998 3830 
Q 1722 3715 1526 3500 
Q 1331 3286 1225 2985 
Q 1120 2685 1120 2314 
Q 1120 1917 1233 1605 
Q 1347 1293 1553 1077 
Q 1760 861 2051 747 
Q 2342 634 2701 634 
Q 2957 634 3158 686 
Q 3360 739 3552 832 
L 3552 1674 
L 2970 1674 
Q 2886 1674 2840 1720 
Q 2794 1766 2794 1834 
L 2794 2320 
L 4330 2320 
L 4330 448 
L 4330 448 
z
" transform="scale(0.015625)"/>
      <path id="Lato-Bold-61" d="M 2538 0 
Q 2426 0 2365 33 
Q 2304 67 2269 170 
L 2198 403 
Q 2074 291 1955 206 
Q 1837 122 1709 64 
Q 1581 6 1435 -22 
Q 1290 -51 1114 -51 
Q 906 -51 730 5 
Q 554 61 426 173 
Q 298 285 227 451 
Q 157 618 157 838 
Q 157 1024 254 1205 
Q 352 1386 579 1531 
Q 806 1677 1184 1773 
Q 1562 1869 2125 1882 
L 2125 2074 
Q 2125 2403 1984 2561 
Q 1843 2720 1578 2720 
Q 1386 2720 1259 2675 
Q 1133 2630 1037 2574 
Q 941 2518 862 2473 
Q 784 2429 688 2429 
Q 605 2429 547 2472 
Q 490 2515 454 2573 
L 314 2826 
Q 880 3344 1677 3344 
Q 1965 3344 2192 3249 
Q 2419 3155 2576 2987 
Q 2733 2819 2814 2585 
Q 2896 2352 2896 2074 
L 2896 0 
L 2538 0 
z
M 1357 493 
Q 1600 493 1777 581 
Q 1955 669 2125 848 
L 2125 1402 
Q 1779 1386 1547 1342 
Q 1315 1299 1174 1232 
Q 1034 1165 973 1075 
Q 912 986 912 880 
Q 912 672 1035 582 
Q 1158 493 1357 493 
z
" transform="scale(0.015625)"/>
      <path id="Lato-Bold-75" d="M 1149 3283 
L 1149 1197 
Q 1149 896 1288 731 
Q 1427 566 1706 566 
Q 1910 566 2089 657 
Q 2269 749 2429 909 
L 2429 3283 
L 3219 3283 
L 3219 0 
L 2736 0 
Q 2579 0 2538 144 
L 2483 406 
Q 2381 304 2272 219 
Q 2163 134 2038 73 
Q 1914 13 1773 -19 
Q 1632 -51 1466 -51 
Q 1197 -51 990 40 
Q 784 131 643 297 
Q 502 464 430 693 
Q 358 922 358 1197 
L 358 3283 
L 1149 3283 
z
" transform="scale(0.015625)"/>
      <path id="Lato-Bold-73" d="M 2394 2643 
Q 2362 2592 2326 2571 
Q 2291 2550 2237 2550 
Q 2179 2550 2113 2582 
Q 2048 2614 1961 2654 
Q 1875 2694 1764 2726 
Q 1654 2758 1504 2758 
Q 1270 2758 1137 2659 
Q 1005 2560 1005 2400 
Q 1005 2294 1073 2222 
Q 1142 2150 1256 2096 
Q 1370 2042 1514 1998 
Q 1658 1955 1806 1904 
Q 1955 1853 2099 1787 
Q 2243 1722 2356 1621 
Q 2470 1520 2539 1379 
Q 2608 1238 2608 1040 
Q 2608 803 2523 603 
Q 2438 403 2272 257 
Q 2106 112 1861 30 
Q 1616 -51 1296 -51 
Q 1126 -51 964 -20 
Q 803 10 654 64 
Q 506 118 379 192 
Q 253 266 157 352 
L 339 653 
Q 374 707 422 736 
Q 470 765 544 765 
Q 618 765 683 723 
Q 749 682 835 634 
Q 922 586 1038 544 
Q 1155 502 1334 502 
Q 1475 502 1576 536 
Q 1677 570 1742 624 
Q 1808 678 1838 750 
Q 1869 822 1869 899 
Q 1869 1014 1800 1088 
Q 1731 1162 1617 1216 
Q 1504 1270 1358 1313 
Q 1213 1357 1061 1408 
Q 909 1459 763 1528 
Q 618 1597 504 1702 
Q 390 1808 321 1961 
Q 253 2115 253 2333 
Q 253 2534 333 2716 
Q 413 2899 568 3035 
Q 723 3171 955 3252 
Q 1187 3334 1491 3334 
Q 1830 3334 2108 3222 
Q 2387 3110 2573 2928 
L 2394 2643 
z
" transform="scale(0.015625)"/>
      <path id="Lato-Bold-69" d="M 1210 3283 
L 1210 0 
L 416 0 
L 416 3283 
L 1210 3283 
z
M 1318 4240 
Q 1318 4138 1276 4048 
Q 1235 3958 1166 3891 
Q 1098 3824 1005 3784 
Q 912 3744 806 3744 
Q 704 3744 613 3784 
Q 522 3824 454 3891 
Q 387 3958 347 4048 
Q 307 4138 307 4240 
Q 307 4346 347 4438 
Q 387 4531 454 4598 
Q 522 4666 613 4706 
Q 704 4746 806 4746 
Q 912 4746 1005 4706 
Q 1098 4666 1166 4598 
Q 1235 4531 1276 4438 
Q 1318 4346 1318 4240 
z
" transform="scale(0.015625)"/>
      <path id="Lato-Bold-6e" d="M 390 0 
L 390 3283 
L 874 3283 
Q 1027 3283 1075 3139 
L 1130 2880 
Q 1229 2982 1339 3065 
Q 1450 3149 1573 3209 
Q 1696 3270 1837 3302 
Q 1978 3334 2144 3334 
Q 2413 3334 2621 3243 
Q 2829 3152 2968 2987 
Q 3107 2822 3179 2593 
Q 3251 2365 3251 2090 
L 3251 0 
L 2461 0 
L 2461 2090 
Q 2461 2390 2323 2555 
Q 2186 2720 1904 2720 
Q 1699 2720 1520 2627 
Q 1341 2534 1181 2374 
L 1181 0 
L 390 0 
z
" transform="scale(0.015625)"/>
     </defs>
     <use xlink:href="#Lato-Bold-47"/>
     <use xlink:href="#Lato-Bold-61" x="72.475006"/>
     <use xlink:href="#Lato-Bold-75" x="123.225006"/>
     <use xlink:href="#Lato-Bold-73" x="179.625015"/>
     <use xlink:href="#Lato-Bold-73" x="223.575012"/>
     <use xlink:href="#Lato-Bold-69" x="267.525009"/>
     <use xlink:href="#Lato-Bold-61" x="292.925003"/>
     <use xlink:href="#Lato-Bold-6e" x="343.675003"/>
    </g>
   </g>
  </g>
  <g id="axes_2">
   <g id="patch_4">
    <path d="M 252.96 149.01 
L 450 149.01 
L 450 32.16 
L 252.96 32.16 
L 252.96 149.01 
z
" style="fill: none"/>
   </g>
   <g id="matplotlib.axis_3">
    <g id="xtick_18">
     <g id="line2d_28">
      <g>
       <use xlink:href="#m8219a575fd" x="292.837143" y="149.01" style="stroke: #000000; stroke-width: 0.5"/>
      </g>
     </g>
    </g>
    <g id="xtick_19">
     <g id="line2d_29">
      <g>
       <use xlink:href="#m8219a575fd" x="339.751429" y="149.01" style="stroke: #000000; stroke-width: 0.5"/>
      </g>
     </g>
    </g>
    <g id="xtick_20">
     <g id="line2d_30">
      <g>
       <use xlink:href="#m8219a575fd" x="386.665714" y="149.01" style="stroke: #000000; stroke-width: 0.5"/>
      </g>
     </g>
    </g>
    <g id="xtick_21">
     <g id="line2d_31">
      <g>
       <use xlink:href="#m8219a575fd" x="433.58" y="149.01" style="stroke: #000000; stroke-width: 0.5"/>
      </g>
     </g>
    </g>
    <g id="xtick_22">
     <g id="line2d_32">
      <g>
       <use xlink:href="#m54edba0700" x="257.651429" y="149.01" style="stroke: #000000; stroke-width: 0.5"/>
      </g>
     </g>
    </g>
    <g id="xtick_23">
     <g id="line2d_33">
      <g>
       <use xlink:href="#m54edba0700" x="269.38" y="149.01" style="stroke: #000000; stroke-width: 0.5"/>
      </g>
     </g>
    </g>
    <g id="xtick_24">
     <g id="line2d_34">
      <g>
       <use xlink:href="#m54edba0700" x="281.108571" y="149.01" style="stroke: #000000; stroke-width: 0.5"/>
      </g>
     </g>
    </g>
    <g id="xtick_25">
     <g id="line2d_35">
      <g>
       <use xlink:href="#m54edba0700" x="304.565714" y="149.01" style="stroke: #000000; stroke-width: 0.5"/>
      </g>
     </g>
    </g>
    <g id="xtick_26">
     <g id="line2d_36">
      <g>
       <use xlink:href="#m54edba0700" x="316.294286" y="149.01" style="stroke: #000000; stroke-width: 0.5"/>
      </g>
     </g>
    </g>
    <g id="xtick_27">
     <g id="line2d_37">
      <g>
       <use xlink:href="#m54edba0700" x="328.022857" y="149.01" style="stroke: #000000; stroke-width: 0.5"/>
      </g>
     </g>
    </g>
    <g id="xtick_28">
     <g id="line2d_38">
      <g>
       <use xlink:href="#m54edba0700" x="351.48" y="149.01" style="stroke: #000000; stroke-width: 0.5"/>
      </g>
     </g>
    </g>
    <g id="xtick_29">
     <g id="line2d_39">
      <g>
       <use xlink:href="#m54edba0700" x="363.208571" y="149.01" style="stroke: #000000; stroke-width: 0.5"/>
      </g>
     </g>
    </g>
    <g id="xtick_30">
     <g id="line2d_40">
      <g>
       <use xlink:href="#m54edba0700" x="374.937143" y="149.01" style="stroke: #000000; stroke-width: 0.5"/>
      </g>
     </g>
    </g>
    <g id="xtick_31">
     <g id="line2d_41">
      <g>
       <use xlink:href="#m54edba0700" x="398.394286" y="149.01" style="stroke: #000000; stroke-width: 0.5"/>
      </g>
     </g>
    </g>
    <g id="xtick_32">
     <g id="line2d_42">
      <g>
       <use xlink:href="#m54edba0700" x="410.122857" y="149.01" style="stroke: #000000; stroke-width: 0.5"/>
      </g>
     </g>
    </g>
    <g id="xtick_33">
     <g id="line2d_43">
      <g>
       <use xlink:href="#m54edba0700" x="421.851429" y="149.01" style="stroke: #000000; stroke-width: 0.5"/>
      </g>
     </g>
    </g>
    <g id="xtick_34">
     <g id="line2d_44">
      <g>
       <use xlink:href="#m54edba0700" x="445.308571" y="149.01" style="stroke: #000000; stroke-width: 0.5"/>
      </g>
     </g>
    </g>
   </g>
   <g id="matplotlib.axis_4">
    <g id="ytick_6">
     <g id="line2d_45">
      <path d="M 252.96 149.01 
L 450 149.01 
" clip-path="url(#pbf26a520dd)" style="fill: none; stroke: #cccccc; stroke-width: 0.5; stroke-linecap: square"/>
     </g>
    </g>
    <g id="ytick_7">
     <g id="line2d_46">
      <path d="M 252.96 122.453182 
L 450 122.453182 
" clip-path="url(#pbf26a520dd)" style="fill: none; stroke: #cccccc; stroke-width: 0.5; stroke-linecap: square"/>
     </g>
    </g>
    <g id="ytick_8">
     <g id="line2d_47">
      <path d="M 252.96 95.896364 
L 450 95.896364 
" clip-path="url(#pbf26a520dd)" style="fill: none; stroke: #cccccc; stroke-width: 0.5; stroke-linecap: square"/>
     </g>
    </g>
    <g id="ytick_9">
     <g id="line2d_48">
      <path d="M 252.96 69.339545 
L 450 69.339545 
" clip-path="url(#pbf26a520dd)" style="fill: none; stroke: #cccccc; stroke-width: 0.5; stroke-linecap: square"/>
     </g>
    </g>
    <g id="ytick_10">
     <g id="line2d_49">
      <path d="M 252.96 42.782727 
L 450 42.782727 
" clip-path="url(#pbf26a520dd)" style="fill: none; stroke: #cccccc; stroke-width: 0.5; stroke-linecap: square"/>
     </g>
    </g>
   </g>
   <g id="patch_5">
    <path d="M 269.38 149.01 
L 276.221667 149.01 
L 276.221667 148.613827 
L 269.38 148.613827 
z
" clip-path="url(#pbf26a520dd)" style="fill: #1f77b4"/>
   </g>
   <g id="patch_6">
    <path d="M 276.221667 149.01 
L 283.063333 149.01 
L 283.063333 148.006655 
L 276.221667 148.006655 
z
" clip-path="url(#pbf26a520dd)" style="fill: #1f77b4"/>
   </g>
   <g id="patch_7">
    <path d="M 283.063333 149.01 
L 289.905 149.01 
L 289.905 146.674815 
L 283.063333 146.674815 
z
" clip-path="url(#pbf26a520dd)" style="fill: #1f77b4"/>
   </g>
   <g id="patch_8">
    <path d="M 289.905 149.01 
L 296.746667 149.01 
L 296.746667 144.015407 
L 289.905 144.015407 
z
" clip-path="url(#pbf26a520dd)" style="fill: #1f77b4"/>
   </g>
   <g id="patch_9">
    <path d="M 296.746667 149.01 
L 303.588333 149.01 
L 303.588333 139.192787 
L 296.746667 139.192787 
z
" clip-path="url(#pbf26a520dd)" style="fill: #1f77b4"/>
   </g>
   <g id="patch_10">
    <path d="M 303.588333 149.01 
L 310.43 149.01 
L 310.43 131.2768 
L 303.588333 131.2768 
z
" clip-path="url(#pbf26a520dd)" style="fill: #1f77b4"/>
   </g>
   <g id="patch_11">
    <path d="M 310.43 149.01 
L 317.271667 149.01 
L 317.271667 119.572697 
L 310.43 119.572697 
z
" clip-path="url(#pbf26a520dd)" style="fill: #1f77b4"/>
   </g>
   <g id="patch_12">
    <path d="M 317.271667 149.01 
L 324.113333 149.01 
L 324.113333 104.10217 
L 317.271667 104.10217 
z
" clip-path="url(#pbf26a520dd)" style="fill: #1f77b4"/>
   </g>
   <g id="patch_13">
    <path d="M 324.113333 149.01 
L 330.955 149.01 
L 330.955 86.050656 
L 324.113333 86.050656 
z
" clip-path="url(#pbf26a520dd)" style="fill: #1f77b4"/>
   </g>
   <g id="patch_14">
    <path d="M 330.955 149.01 
L 337.796667 149.01 
L 337.796667 67.892766 
L 330.955 67.892766 
z
" clip-path="url(#pbf26a520dd)" style="fill: #1f77b4"/>
   </g>
   <g id="patch_15">
    <path d="M 337.796667 149.01 
L 344.638333 149.01 
L 344.638333 52.963522 
L 337.796667 52.963522 
z
" clip-path="url(#pbf26a520dd)" style="fill: #1f77b4"/>
   </g>
   <g id="patch_16">
    <path d="M 344.638333 149.01 
L 351.48 149.01 
L 351.48 44.498157 
L 344.638333 44.498157 
z
" clip-path="url(#pbf26a520dd)" style="fill: #1f77b4"/>
   </g>
   <g id="patch_17">
    <path d="M 351.48 149.01 
L 358.321667 149.01 
L 358.321667 44.498157 
L 351.48 44.498157 
z
" clip-path="url(#pbf26a520dd)" style="fill: #1f77b4"/>
   </g>
   <g id="patch_18">
    <path d="M 358.321667 149.01 
L 365.163333 149.01 
L 365.163333 52.963522 
L 358.321667 52.963522 
z
" clip-path="url(#pbf26a520dd)" style="fill: #1f77b4"/>
   </g>
   <g id="patch_19">
    <path d="M 365.163333 149.01 
L 372.005 149.01 
L 372.005 67.892766 
L 365.163333 67.892766 
z
" clip-path="url(#pbf26a520dd)" style="fill: #1f77b4"/>
   </g>
   <g id="patch_20">
    <path d="M 372.005 149.01 
L 378.846667 149.01 
L 378.846667 86.050656 
L 372.005 86.050656 
z
" clip-path="url(#pbf26a520dd)" style="fill: #1f77b4"/>
   </g>
   <g id="patch_21">
    <path d="M 378.846667 149.01 
L 385.688333 149.01 
L 385.688333 104.10217 
L 378.846667 104.10217 
z
" clip-path="url(#pbf26a520dd)" style="fill: #1f77b4"/>
   </g>
   <g id="patch_22">
    <path d="M 385.688333 149.01 
L 392.53 149.01 
L 392.53 119.572697 
L 385.688333 119.572697 
z
" clip-path="url(#pbf26a520dd)" style="fill: #1f77b4"/>
   </g>
   <g id="patch_23">
    <path d="M 392.53 149.01 
L 399.371667 149.01 
L 399.371667 131.2768 
L 392.53 131.2768 
z
" clip-path="url(#pbf26a520dd)" style="fill: #1f77b4"/>
   </g>
   <g id="patch_24">
    <path d="M 399.371667 149.01 
L 406.213333 149.01 
L 406.213333 139.192787 
L 399.371667 139.192787 
z
" clip-path="url(#pbf26a520dd)" style="fill: #1f77b4"/>
   </g>
   <g id="patch_25">
    <path d="M 406.213333 149.01 
L 413.055 149.01 
L 413.055 144.015407 
L 406.213333 144.015407 
z
" clip-path="url(#pbf26a520dd)" style="fill: #1f77b4"/>
   </g>
   <g id="patch_26">
    <path d="M 413.055 149.01 
L 419.896667 149.01 
L 419.896667 146.674815 
L 413.055 146.674815 
z
" clip-path="url(#pbf26a520dd)" style="fill: #1f77b4"/>
   </g>
   <g id="patch_27">
    <path d="M 419.896667 149.01 
L 426.738333 149.01 
L 426.738333 148.006655 
L 419.896667 148.006655 
z
" clip-path="url(#pbf26a520dd)" style="fill: #1f77b4"/>
   </g>
   <g id="patch_28">
    <path d="M 426.738333 149.01 
L 433.58 149.01 
L 433.58 148.613827 
L 426.738333 148.613827 
z
" clip-path="url(#pbf26a520dd)" style="fill: #1f77b4"/>
   </g>
   <g id="line2d_50">
    <path d="M 269.38 148.778243 
L 271.038586 148.71391 
L 272.697172 148.633605 
L 274.355758 148.533906 
L 276.014343 148.410802 
L 277.672929 148.259628 
L 279.331515 148.075 
L 280.990101 147.850755 
L 282.648687 147.579896 
L 284.307273 147.254548 
L 285.965859 146.86593 
L 287.624444 146.40434 
L 289.28303 145.859167 
L 290.941616 145.218932 
L 292.600202 144.47135 
L 294.258788 143.603447 
L 295.917374 142.601698 
L 297.57596 141.45222 
L 299.234545 140.141008 
L 300.893131 138.654214 
L 302.551717 136.978478 
L 304.210303 135.10129 
L 305.868889 133.011404 
L 307.527475 130.69927 
L 309.186061 128.157498 
L 310.844646 125.381321 
L 312.503232 122.369065 
L 314.161818 119.122593 
L 315.820404 115.647718 
L 317.47899 111.954556 
L 319.137576 108.057819 
L 320.796162 103.977008 
L 322.454747 99.736511 
L 324.113333 95.365576 
L 325.771919 90.898164 
L 327.430505 86.372652 
L 329.089091 81.831412 
L 330.747677 77.320239 
L 332.406263 72.887658 
L 334.064848 68.584105 
L 335.723434 64.461012 
L 337.38202 60.56981 
L 339.040606 56.960873 
L 340.699192 53.68245 
L 342.357778 50.779594 
L 344.016364 48.293137 
L 345.674949 46.258731 
L 347.333535 44.706004 
L 348.992121 43.657839 
L 350.650707 43.129813 
L 352.309293 43.129813 
L 353.967879 43.657839 
L 355.626465 44.706004 
L 357.285051 46.258731 
L 358.943636 48.293137 
L 360.602222 50.779594 
L 362.260808 53.68245 
L 363.919394 56.960873 
L 365.57798 60.56981 
L 367.236566 64.461012 
L 368.895152 68.584105 
L 370.553737 72.887658 
L 372.212323 77.320239 
L 373.870909 81.831412 
L 375.529495 86.372652 
L 377.188081 90.898164 
L 378.846667 95.365576 
L 380.505253 99.736511 
L 382.163838 103.977008 
L 383.822424 108.057819 
L 385.48101 111.954556 
L 387.139596 115.647718 
L 388.798182 119.122593 
L 390.456768 122.369065 
L 392.115354 125.381321 
L 393.773939 128.157498 
L 395.432525 130.69927 
L 397.091111 133.011404 
L 398.749697 135.10129 
L 400.408283 136.978478 
L 402.066869 138.654214 
L 403.725455 140.141008 
L 405.38404 141.45222 
L 407.042626 142.601698 
L 408.701212 143.603447 
L 410.359798 144.47135 
L 412.018384 145.218932 
L 413.67697 145.859167 
L 415.335556 146.40434 
L 416.994141 146.86593 
L 418.652727 147.254548 
L 420.311313 147.579896 
L 421.969899 147.850755 
L 423.628485 148.075 
L 425.287071 148.259628 
L 426.945657 148.410802 
L 428.604242 148.533906 
L 430.262828 148.633605 
L 431.921414 148.71391 
L 433.58 148.778243 
" clip-path="url(#pbf26a520dd)" style="fill: none; stroke: #ff7f0e; stroke-linecap: square"/>
   </g>
   <g id="patch_29">
    <path d="M 252.96 149.01 
L 450 149.01 
" style="fill: none; stroke: #000000; stroke-width: 0.5; stroke-linejoin: miter; stroke-linecap: square"/>
   </g>
   <g id="text_7">
    <!-- Histogram -->
    <g transform="translate(252.96 20.16) scale(0.12 -0.12)">
     <defs>
      <path id="Lato-Bold-48" d="M 4416 0 
L 3552 0 
L 3552 2022 
L 1379 2022 
L 1379 0 
L 515 0 
L 515 4627 
L 1379 4627 
L 1379 2637 
L 3552 2637 
L 3552 4627 
L 4416 4627 
L 4416 0 
z
" transform="scale(0.015625)"/>
      <path id="Lato-Bold-74" d="M 1485 -51 
Q 1056 -51 827 190 
Q 598 432 598 858 
L 598 2691 
L 262 2691 
Q 198 2691 153 2732 
Q 109 2774 109 2858 
L 109 3171 
L 637 3258 
L 803 4154 
Q 819 4218 864 4253 
Q 909 4288 979 4288 
L 1389 4288 
L 1389 3254 
L 2266 3254 
L 2266 2691 
L 1389 2691 
L 1389 912 
Q 1389 758 1464 672 
Q 1539 586 1670 586 
Q 1744 586 1793 603 
Q 1843 621 1880 640 
Q 1917 659 1945 676 
Q 1974 694 2003 694 
Q 2038 694 2060 676 
Q 2083 659 2109 624 
L 2346 240 
Q 2173 96 1949 22 
Q 1725 -51 1485 -51 
z
" transform="scale(0.015625)"/>
      <path id="Lato-Bold-6f" d="M 1843 3334 
Q 2208 3334 2507 3216 
Q 2806 3098 3019 2880 
Q 3232 2662 3347 2348 
Q 3462 2035 3462 1648 
Q 3462 1258 3347 944 
Q 3232 630 3019 409 
Q 2806 189 2507 70 
Q 2208 -48 1843 -48 
Q 1475 -48 1174 70 
Q 874 189 661 409 
Q 448 630 331 944 
Q 214 1258 214 1648 
Q 214 2035 331 2348 
Q 448 2662 661 2880 
Q 874 3098 1174 3216 
Q 1475 3334 1843 3334 
z
M 1843 560 
Q 2253 560 2449 835 
Q 2646 1110 2646 1642 
Q 2646 2173 2449 2451 
Q 2253 2730 1843 2730 
Q 1427 2730 1227 2450 
Q 1027 2170 1027 1642 
Q 1027 1114 1227 837 
Q 1427 560 1843 560 
z
" transform="scale(0.015625)"/>
      <path id="Lato-Bold-67" d="M 1590 3341 
Q 1802 3341 1986 3297 
Q 2170 3254 2326 3171 
L 3270 3171 
L 3270 2877 
Q 3270 2736 3101 2704 
L 2806 2650 
Q 2838 2566 2856 2473 
Q 2874 2381 2874 2278 
Q 2874 2035 2776 1838 
Q 2678 1642 2505 1504 
Q 2333 1366 2097 1291 
Q 1862 1216 1590 1216 
Q 1405 1216 1229 1251 
Q 1075 1158 1075 1043 
Q 1075 944 1166 897 
Q 1258 851 1408 832 
Q 1558 813 1750 808 
Q 1942 803 2144 787 
Q 2346 771 2538 731 
Q 2730 691 2880 604 
Q 3030 518 3121 369 
Q 3213 221 3213 -13 
Q 3213 -230 3105 -435 
Q 2998 -640 2795 -800 
Q 2592 -960 2296 -1057 
Q 2000 -1155 1622 -1155 
Q 1251 -1155 976 -1083 
Q 701 -1011 518 -891 
Q 336 -771 246 -614 
Q 157 -458 157 -288 
Q 157 -61 296 96 
Q 435 253 675 346 
Q 547 413 470 525 
Q 394 637 394 819 
Q 394 893 419 971 
Q 445 1050 497 1126 
Q 550 1203 632 1272 
Q 714 1341 822 1395 
Q 573 1530 430 1754 
Q 288 1978 288 2278 
Q 288 2522 385 2718 
Q 483 2915 657 3054 
Q 832 3194 1070 3267 
Q 1309 3341 1590 3341 
z
M 2483 -147 
Q 2483 -51 2425 8 
Q 2368 67 2269 102 
Q 2170 138 2037 154 
Q 1904 170 1755 178 
Q 1606 186 1448 192 
Q 1290 198 1139 218 
Q 1008 144 926 45 
Q 845 -54 845 -186 
Q 845 -272 888 -347 
Q 931 -422 1025 -476 
Q 1120 -531 1270 -561 
Q 1421 -592 1638 -592 
Q 1859 -592 2019 -558 
Q 2179 -525 2283 -465 
Q 2387 -406 2435 -324 
Q 2483 -243 2483 -147 
z
M 1590 1722 
Q 1738 1722 1846 1762 
Q 1955 1802 2027 1872 
Q 2099 1942 2136 2041 
Q 2173 2141 2173 2259 
Q 2173 2502 2027 2644 
Q 1882 2787 1590 2787 
Q 1299 2787 1153 2644 
Q 1008 2502 1008 2259 
Q 1008 2144 1045 2045 
Q 1082 1946 1154 1874 
Q 1226 1802 1336 1762 
Q 1446 1722 1590 1722 
z
" transform="scale(0.015625)"/>
      <path id="Lato-Bold-72" d="M 390 0 
L 390 3283 
L 854 3283 
Q 976 3283 1024 3240 
Q 1072 3197 1088 3085 
L 1133 2714 
Q 1290 3008 1501 3176 
Q 1712 3344 2000 3344 
Q 2227 3344 2365 3245 
L 2314 2653 
Q 2298 2595 2267 2571 
Q 2237 2547 2186 2547 
Q 2138 2547 2043 2563 
Q 1949 2579 1859 2579 
Q 1728 2579 1625 2540 
Q 1523 2502 1441 2430 
Q 1360 2358 1297 2256 
Q 1235 2154 1181 2022 
L 1181 0 
L 390 0 
z
" transform="scale(0.015625)"/>
      <path id="Lato-Bold-6d" d="M 390 0 
L 390 3283 
L 874 3283 
Q 1027 3283 1075 3139 
L 1126 2896 
Q 1213 2992 1307 3072 
Q 1402 3152 1509 3209 
Q 1616 3267 1739 3300 
Q 1862 3334 2010 3334 
Q 2320 3334 2520 3166 
Q 2720 2998 2819 2720 
Q 2896 2883 3011 3000 
Q 3126 3117 3264 3190 
Q 3402 3264 3557 3299 
Q 3712 3334 3869 3334 
Q 4141 3334 4352 3251 
Q 4563 3168 4707 3008 
Q 4851 2848 4926 2617 
Q 5002 2387 5002 2090 
L 5002 0 
L 4211 0 
L 4211 2090 
Q 4211 2403 4073 2561 
Q 3936 2720 3670 2720 
Q 3549 2720 3445 2678 
Q 3341 2637 3262 2558 
Q 3184 2480 3139 2361 
Q 3094 2243 3094 2090 
L 3094 0 
L 2301 0 
L 2301 2090 
Q 2301 2419 2168 2569 
Q 2035 2720 1779 2720 
Q 1606 2720 1457 2635 
Q 1309 2550 1181 2403 
L 1181 0 
L 390 0 
z
" transform="scale(0.015625)"/>
     </defs>
     <use xlink:href="#Lato-Bold-48"/>
     <use xlink:href="#Lato-Bold-69" x="76.300018"/>
     <use xlink:href="#Lato-Bold-73" x="101.700012"/>
     <use xlink:href="#Lato-Bold-74" x="145.650009"/>
     <use xlink:href="#Lato-Bold-6f" x="182.475006"/>
     <use xlink:href="#Lato-Bold-67" x="239.550018"/>
     <use xlink:href="#Lato-Bold-72" x="292.350021"/>
     <use xlink:href="#Lato-Bold-61" x="329.025024"/>
     <use xlink:href="#Lato-Bold-6d" x="379.775024"/>
    </g>
   </g>
  </g>
  <g id="axes_3">
   <g id="patch_30">
    <path d="M 45.12 304.02 
L 242.16 304.02 
L 242.16 187.17 
L 45.12 187.17 
L 45.12 304.02 
z
" style="fill: none"/>
   </g>
   <g id="matplotlib.axis_5">
    <g id="xtick_35">
     <g id="line2d_51">
      <g>
       <use xlink:href="#m8219a575fd" x="84.997143" y="304.02" style="stroke: #000000; stroke-width: 0.5"/>
      </g>
     </g>
     <g id="text_8">
      <!-- 0 -->
      <g transform="translate(82.097143 320.885625) scale(0.1 -0.1)">
       <use xlink:href="#Lato-Regular-30"/>
      </g>
     </g>
    </g>
    <g id="xtick_36">
     <g id="line2d_52">
      <g>
       <use xlink:href="#m8219a575fd" x="131.911429" y="304.02" style="stroke: #000000; stroke-width: 0.5"/>
      </g>
     </g>
     <g id="text_9">
      <!-- 2 -->
      <g transform="translate(129.011429 320.885625) scale(0.1 -0.1)">
       <use xlink:href="#Lato-Regular-32"/>
      </g>
     </g>
    </g>
    <g id="xtick_37">
     <g id="line2d_53">
      <g>
       <use xlink:href="#m8219a575fd" x="178.825714" y="304.02" style="stroke: #000000; stroke-width: 0.5"/>
      </g>
     </g>
     <g id="text_10">
      <!-- 4 -->
      <g transform="translate(175.925714 320.885625) scale(0.1 -0.1)">
       <use xlink:href="#Lato-Regular-34"/>
      </g>
     </g>
    </g>
    <g id="xtick_38">
     <g id="line2d_54">
      <g>
       <use xlink:href="#m8219a575fd" x="225.74" y="304.02" style="stroke: #000000; stroke-width: 0.5"/>
      </g>
     </g>
     <g id="text_11">
      <!-- 6 -->
      <g transform="translate(222.84 320.885625) scale(0.1 -0.1)">
       <defs>
        <path id="Lato-Regular-36" d="M 1517 2867 
Q 1453 2790 1398 2716 
Q 1344 2643 1290 2573 
Q 1453 2685 1649 2747 
Q 1846 2810 2077 2810 
Q 2355 2810 2601 2718 
Q 2848 2627 3032 2452 
Q 3216 2278 3325 2024 
Q 3434 1770 3434 1443 
Q 3434 1126 3318 854 
Q 3203 582 2996 380 
Q 2790 179 2500 64 
Q 2211 -51 1862 -51 
Q 1517 -51 1235 59 
Q 954 170 757 373 
Q 560 576 453 865 
Q 346 1155 346 1514 
Q 346 1814 478 2155 
Q 611 2496 902 2883 
L 2067 4448 
Q 2112 4506 2190 4546 
Q 2269 4586 2371 4586 
L 2877 4586 
L 1517 2867 
z
M 893 1414 
Q 893 1194 957 1011 
Q 1021 829 1144 697 
Q 1267 566 1444 494 
Q 1622 422 1850 422 
Q 2080 422 2267 496 
Q 2454 570 2587 701 
Q 2720 832 2792 1011 
Q 2864 1190 2864 1402 
Q 2864 1626 2793 1806 
Q 2723 1987 2593 2113 
Q 2464 2240 2285 2307 
Q 2106 2374 1891 2374 
Q 1661 2374 1475 2296 
Q 1290 2218 1160 2085 
Q 1030 1952 961 1777 
Q 893 1603 893 1414 
z
" transform="scale(0.015625)"/>
       </defs>
       <use xlink:href="#Lato-Regular-36"/>
      </g>
     </g>
    </g>
    <g id="xtick_39">
     <g id="line2d_55">
      <g>
       <use xlink:href="#m54edba0700" x="49.811429" y="304.02" style="stroke: #000000; stroke-width: 0.5"/>
      </g>
     </g>
    </g>
    <g id="xtick_40">
     <g id="line2d_56">
      <g>
       <use xlink:href="#m54edba0700" x="61.54" y="304.02" style="stroke: #000000; stroke-width: 0.5"/>
      </g>
     </g>
    </g>
    <g id="xtick_41">
     <g id="line2d_57">
      <g>
       <use xlink:href="#m54edba0700" x="73.268571" y="304.02" style="stroke: #000000; stroke-width: 0.5"/>
      </g>
     </g>
    </g>
    <g id="xtick_42">
     <g id="line2d_58">
      <g>
       <use xlink:href="#m54edba0700" x="96.725714" y="304.02" style="stroke: #000000; stroke-width: 0.5"/>
      </g>
     </g>
    </g>
    <g id="xtick_43">
     <g id="line2d_59">
      <g>
       <use xlink:href="#m54edba0700" x="108.454286" y="304.02" style="stroke: #000000; stroke-width: 0.5"/>
      </g>
     </g>
    </g>
    <g id="xtick_44">
     <g id="line2d_60">
      <g>
       <use xlink:href="#m54edba0700" x="120.182857" y="304.02" style="stroke: #000000; stroke-width: 0.5"/>
      </g>
     </g>
    </g>
    <g id="xtick_45">
     <g id="line2d_61">
      <g>
       <use xlink:href="#m54edba0700" x="143.64" y="304.02" style="stroke: #000000; stroke-width: 0.5"/>
      </g>
     </g>
    </g>
    <g id="xtick_46">
     <g id="line2d_62">
      <g>
       <use xlink:href="#m54edba0700" x="155.368571" y="304.02" style="stroke: #000000; stroke-width: 0.5"/>
      </g>
     </g>
    </g>
    <g id="xtick_47">
     <g id="line2d_63">
      <g>
       <use xlink:href="#m54edba0700" x="167.097143" y="304.02" style="stroke: #000000; stroke-width: 0.5"/>
      </g>
     </g>
    </g>
    <g id="xtick_48">
     <g id="line2d_64">
      <g>
       <use xlink:href="#m54edba0700" x="190.554286" y="304.02" style="stroke: #000000; stroke-width: 0.5"/>
      </g>
     </g>
    </g>
    <g id="xtick_49">
     <g id="line2d_65">
      <g>
       <use xlink:href="#m54edba0700" x="202.282857" y="304.02" style="stroke: #000000; stroke-width: 0.5"/>
      </g>
     </g>
    </g>
    <g id="xtick_50">
     <g id="line2d_66">
      <g>
       <use xlink:href="#m54edba0700" x="214.011429" y="304.02" style="stroke: #000000; stroke-width: 0.5"/>
      </g>
     </g>
    </g>
    <g id="xtick_51">
     <g id="line2d_67">
      <g>
       <use xlink:href="#m54edba0700" x="237.468571" y="304.02" style="stroke: #000000; stroke-width: 0.5"/>
      </g>
     </g>
    </g>
    <g id="text_12">
     <!-- $x$ -->
     <g transform="translate(140.64 334.030937) scale(0.1 -0.1)">
      <defs>
       <path id="DejaVuSans-Oblique-78" d="M 3841 3500 
L 2234 1784 
L 3219 0 
L 2559 0 
L 1819 1388 
L 531 0 
L -166 0 
L 1556 1844 
L 641 3500 
L 1300 3500 
L 1972 2234 
L 3144 3500 
L 3841 3500 
z
" transform="scale(0.015625)"/>
      </defs>
      <use xlink:href="#DejaVuSans-Oblique-78" transform="translate(0 0.3125)"/>
     </g>
    </g>
   </g>
   <g id="matplotlib.axis_6">
    <g id="ytick_11">
     <g id="line2d_68">
      <path d="M 45.12 304.02 
L 242.16 304.02 
" clip-path="url(#p8343507a0b)" style="fill: none; stroke: #cccccc; stroke-width: 0.5; stroke-linecap: square"/>
     </g>
     <g id="text_13">
      <!-- 0.0 -->
      <g transform="translate(27.660625 307.702812) scale(0.1 -0.1)">
       <use xlink:href="#Lato-Regular-30"/>
       <use xlink:href="#Lato-Regular-2e" x="58"/>
       <use xlink:href="#Lato-Regular-30" x="81.600006"/>
      </g>
     </g>
    </g>
    <g id="ytick_12">
     <g id="line2d_69">
      <path d="M 45.12 277.463182 
L 242.16 277.463182 
" clip-path="url(#p8343507a0b)" style="fill: none; stroke: #cccccc; stroke-width: 0.5; stroke-linecap: square"/>
     </g>
     <g id="text_14">
      <!-- 0.1 -->
      <g transform="translate(27.660625 281.145994) scale(0.1 -0.1)">
       <use xlink:href="#Lato-Regular-30"/>
       <use xlink:href="#Lato-Regular-2e" x="58"/>
       <use xlink:href="#Lato-Regular-31" x="81.600006"/>
      </g>
     </g>
    </g>
    <g id="ytick_13">
     <g id="line2d_70">
      <path d="M 45.12 250.906364 
L 242.16 250.906364 
" clip-path="url(#p8343507a0b)" style="fill: none; stroke: #cccccc; stroke-width: 0.5; stroke-linecap: square"/>
     </g>
     <g id="text_15">
      <!-- 0.2 -->
      <g transform="translate(27.660625 254.589176) scale(0.1 -0.1)">
       <use xlink:href="#Lato-Regular-30"/>
       <use xlink:href="#Lato-Regular-2e" x="58"/>
       <use xlink:href="#Lato-Regular-32" x="81.600006"/>
      </g>
     </g>
    </g>
    <g id="ytick_14">
     <g id="line2d_71">
      <path d="M 45.12 224.349545 
L 242.16 224.349545 
" clip-path="url(#p8343507a0b)" style="fill: none; stroke: #cccccc; stroke-width: 0.5; stroke-linecap: square"/>
     </g>
     <g id="text_16">
      <!-- 0.3 -->
      <g transform="translate(27.660625 228.032358) scale(0.1 -0.1)">
       <use xlink:href="#Lato-Regular-30"/>
       <use xlink:href="#Lato-Regular-2e" x="58"/>
       <use xlink:href="#Lato-Regular-33" x="81.600006"/>
      </g>
     </g>
    </g>
    <g id="ytick_15">
     <g id="line2d_72">
      <path d="M 45.12 197.792727 
L 242.16 197.792727 
" clip-path="url(#p8343507a0b)" style="fill: none; stroke: #cccccc; stroke-width: 0.5; stroke-linecap: square"/>
     </g>
     <g id="text_17">
      <!-- 0.4 -->
      <g transform="translate(27.660625 201.47554) scale(0.1 -0.1)">
       <use xlink:href="#Lato-Regular-30"/>
       <use xlink:href="#Lato-Regular-2e" x="58"/>
       <use xlink:href="#Lato-Regular-34" x="81.600006"/>
      </g>
     </g>
    </g>
    <g id="text_18">
     <!-- $p(x)$ -->
     <g transform="translate(21.560625 255.645) rotate(-90) scale(0.1 -0.1)">
      <defs>
       <path id="DejaVuSans-Oblique-70" d="M 3175 2156 
Q 3175 2616 2975 2859 
Q 2775 3103 2400 3103 
Q 2144 3103 1911 2972 
Q 1678 2841 1497 2591 
Q 1319 2344 1212 1994 
Q 1106 1644 1106 1300 
Q 1106 863 1306 627 
Q 1506 391 1875 391 
Q 2147 391 2380 519 
Q 2613 647 2778 891 
Q 2956 1147 3065 1494 
Q 3175 1841 3175 2156 
z
M 1394 2969 
Q 1625 3272 1939 3428 
Q 2253 3584 2638 3584 
Q 3175 3584 3472 3232 
Q 3769 2881 3769 2247 
Q 3769 1728 3584 1258 
Q 3400 788 3053 416 
Q 2822 169 2531 39 
Q 2241 -91 1919 -91 
Q 1547 -91 1294 64 
Q 1041 219 916 525 
L 556 -1331 
L -19 -1331 
L 922 3500 
L 1497 3500 
L 1394 2969 
z
" transform="scale(0.015625)"/>
       <path id="DejaVuSans-28" d="M 1984 4856 
Q 1566 4138 1362 3434 
Q 1159 2731 1159 2009 
Q 1159 1288 1364 580 
Q 1569 -128 1984 -844 
L 1484 -844 
Q 1016 -109 783 600 
Q 550 1309 550 2009 
Q 550 2706 781 3412 
Q 1013 4119 1484 4856 
L 1984 4856 
z
" transform="scale(0.015625)"/>
       <path id="DejaVuSans-29" d="M 513 4856 
L 1013 4856 
Q 1481 4119 1714 3412 
Q 1947 2706 1947 2009 
Q 1947 1309 1714 600 
Q 1481 -109 1013 -844 
L 513 -844 
Q 928 -128 1133 580 
Q 1338 1288 1338 2009 
Q 1338 2731 1133 3434 
Q 928 4138 513 4856 
z
" transform="scale(0.015625)"/>
      </defs>
      <use xlink:href="#DejaVuSans-Oblique-70" transform="translate(0 0.125)"/>
      <use xlink:href="#DejaVuSans-28" transform="translate(63.476562 0.125)"/>
      <use xlink:href="#DejaVuSans-Oblique-78" transform="translate(102.490234 0.125)"/>
      <use xlink:href="#DejaVuSans-29" transform="translate(161.669922 0.125)"/>
     </g>
    </g>
   </g>
   <g id="line2d_73">
    <path d="M 61.54 303.788243 
L 63.198586 303.72391 
L 64.857172 303.643605 
L 66.515758 303.543906 
L 68.174343 303.420802 
L 69.832929 303.269628 
L 71.491515 303.085 
L 73.150101 302.860755 
L 74.808687 302.589896 
L 76.467273 302.264548 
L 78.125859 301.87593 
L 79.784444 301.41434 
L 81.44303 300.869167 
L 83.101616 300.228932 
L 84.760202 299.48135 
L 86.418788 298.613447 
L 88.077374 297.611698 
L 89.73596 296.46222 
L 91.394545 295.151008 
L 93.053131 293.664214 
L 94.711717 291.988478 
L 96.370303 290.11129 
L 98.028889 288.021404 
L 99.687475 285.70927 
L 101.346061 283.167498 
L 103.004646 280.391321 
L 104.663232 277.379065 
L 106.321818 274.132593 
L 107.980404 270.657718 
L 109.63899 266.964556 
L 111.297576 263.067819 
L 112.956162 258.987008 
L 114.614747 254.746511 
L 116.273333 250.375576 
L 117.931919 245.908164 
L 119.590505 241.382652 
L 121.249091 236.841412 
L 122.907677 232.330239 
L 124.566263 227.897658 
L 126.224848 223.594105 
L 127.883434 219.471012 
L 129.54202 215.57981 
L 131.200606 211.970873 
L 132.859192 208.69245 
L 134.517778 205.789594 
L 136.176364 203.303137 
L 137.834949 201.268731 
L 139.493535 199.716004 
L 141.152121 198.667839 
L 142.810707 198.139813 
L 144.469293 198.139813 
L 146.127879 198.667839 
L 147.786465 199.716004 
L 149.445051 201.268731 
L 151.103636 203.303137 
L 152.762222 205.789594 
L 154.420808 208.69245 
L 156.079394 211.970873 
L 157.73798 215.57981 
L 159.396566 219.471012 
L 161.055152 223.594105 
L 162.713737 227.897658 
L 164.372323 232.330239 
L 166.030909 236.841412 
L 167.689495 241.382652 
L 169.348081 245.908164 
L 171.006667 250.375576 
L 172.665253 254.746511 
L 174.323838 258.987008 
L 175.982424 263.067819 
L 177.64101 266.964556 
L 179.299596 270.657718 
L 180.958182 274.132593 
L 182.616768 277.379065 
L 184.275354 280.391321 
L 185.933939 283.167498 
L 187.592525 285.70927 
L 189.251111 288.021404 
L 190.909697 290.11129 
L 192.568283 291.988478 
L 194.226869 293.664214 
L 195.885455 295.151008 
L 197.54404 296.46222 
L 199.202626 297.611698 
L 200.861212 298.613447 
L 202.519798 299.48135 
L 204.178384 300.228932 
L 205.83697 300.869167 
L 207.495556 301.41434 
L 209.154141 301.87593 
L 210.812727 302.264548 
L 212.471313 302.589896 
L 214.129899 302.860755 
L 215.788485 303.085 
L 217.447071 303.269628 
L 219.105657 303.420802 
L 220.764242 303.543906 
L 222.422828 303.643605 
L 224.081414 303.72391 
L 225.74 303.788243 
" clip-path="url(#p8343507a0b)" style="fill: none; stroke: #ff7f0e; stroke-linecap: square"/>
   </g>
   <g id="line2d_74">
    <defs>
     <path id="m4a163fa1df" d="M 0 1.5 
C 0.397805 1.5 0.77937 1.341951 1.06066 1.06066 
C 1.341951 0.77937 1.5 0.397805 1.5 0 
C 1.5 -0.397805 1.341951 -0.77937 1.06066 -1.06066 
C 0.77937 -1.341951 0.397805 -1.5 0 -1.5 
C -0.397805 -1.5 -0.77937 -1.341951 -1.06066 -1.06066 
C -1.341951 -0.77937 -1.5 -0.397805 -1.5 0 
C -1.5 0.397805 -1.341951 0.77937 -1.06066 1.06066 
C -0.77937 1.341951 -0.397805 1.5 0 1.5 
z
" style="stroke: #1f77b4"/>
    </defs>
    <g clip-path="url(#p8343507a0b)">
     <use xlink:href="#m4a163fa1df" x="61.54" y="303.788243" style="fill: #1f77b4; stroke: #1f77b4"/>
     <use xlink:href="#m4a163fa1df" x="64.89102" y="303.641777" style="fill: #1f77b4; stroke: #1f77b4"/>
     <use xlink:href="#m4a163fa1df" x="68.242041" y="303.415216" style="fill: #1f77b4; stroke: #1f77b4"/>
     <use xlink:href="#m4a163fa1df" x="71.593061" y="303.072477" style="fill: #1f77b4; stroke: #1f77b4"/>
     <use xlink:href="#m4a163fa1df" x="74.944082" y="302.565492" style="fill: #1f77b4; stroke: #1f77b4"/>
     <use xlink:href="#m4a163fa1df" x="78.295102" y="301.832343" style="fill: #1f77b4; stroke: #1f77b4"/>
     <use xlink:href="#m4a163fa1df" x="81.646122" y="300.796118" style="fill: #1f77b4; stroke: #1f77b4"/>
     <use xlink:href="#m4a163fa1df" x="84.997143" y="299.365041" style="fill: #1f77b4; stroke: #1f77b4"/>
     <use xlink:href="#m4a163fa1df" x="88.348163" y="297.43449" style="fill: #1f77b4; stroke: #1f77b4"/>
     <use xlink:href="#m4a163fa1df" x="91.699184" y="294.89149" style="fill: #1f77b4; stroke: #1f77b4"/>
     <use xlink:href="#m4a163fa1df" x="95.050204" y="291.622127" style="fill: #1f77b4; stroke: #1f77b4"/>
     <use xlink:href="#m4a163fa1df" x="98.401224" y="287.521999" style="fill: #1f77b4; stroke: #1f77b4"/>
     <use xlink:href="#m4a163fa1df" x="101.752245" y="282.509411" style="fill: #1f77b4; stroke: #1f77b4"/>
     <use xlink:href="#m4a163fa1df" x="105.103265" y="276.540417" style="fill: #1f77b4; stroke: #1f77b4"/>
     <use xlink:href="#m4a163fa1df" x="108.454286" y="269.624248" style="fill: #1f77b4; stroke: #1f77b4"/>
     <use xlink:href="#m4a163fa1df" x="111.805306" y="261.837109" style="fill: #1f77b4; stroke: #1f77b4"/>
     <use xlink:href="#m4a163fa1df" x="115.156327" y="253.332051" style="fill: #1f77b4; stroke: #1f77b4"/>
     <use xlink:href="#m4a163fa1df" x="118.507347" y="244.342594" style="fill: #1f77b4; stroke: #1f77b4"/>
     <use xlink:href="#m4a163fa1df" x="121.858367" y="235.178234" style="fill: #1f77b4; stroke: #1f77b4"/>
     <use xlink:href="#m4a163fa1df" x="125.209388" y="226.210805" style="fill: #1f77b4; stroke: #1f77b4"/>
     <use xlink:href="#m4a163fa1df" x="128.560408" y="217.851867" style="fill: #1f77b4; stroke: #1f77b4"/>
     <use xlink:href="#m4a163fa1df" x="131.911429" y="210.522651" style="fill: #1f77b4; stroke: #1f77b4"/>
     <use xlink:href="#m4a163fa1df" x="135.262449" y="204.619458" style="fill: #1f77b4; stroke: #1f77b4"/>
     <use xlink:href="#m4a163fa1df" x="138.613469" y="200.478355" style="fill: #1f77b4; stroke: #1f77b4"/>
     <use xlink:href="#m4a163fa1df" x="141.96449" y="198.343551" style="fill: #1f77b4; stroke: #1f77b4"/>
     <use xlink:href="#m4a163fa1df" x="145.31551" y="198.343551" style="fill: #1f77b4; stroke: #1f77b4"/>
     <use xlink:href="#m4a163fa1df" x="148.666531" y="200.478355" style="fill: #1f77b4; stroke: #1f77b4"/>
     <use xlink:href="#m4a163fa1df" x="152.017551" y="204.619458" style="fill: #1f77b4; stroke: #1f77b4"/>
     <use xlink:href="#m4a163fa1df" x="155.368571" y="210.522651" style="fill: #1f77b4; stroke: #1f77b4"/>
     <use xlink:href="#m4a163fa1df" x="158.719592" y="217.851867" style="fill: #1f77b4; stroke: #1f77b4"/>
     <use xlink:href="#m4a163fa1df" x="162.070612" y="226.210805" style="fill: #1f77b4; stroke: #1f77b4"/>
     <use xlink:href="#m4a163fa1df" x="165.421633" y="235.178234" style="fill: #1f77b4; stroke: #1f77b4"/>
     <use xlink:href="#m4a163fa1df" x="168.772653" y="244.342594" style="fill: #1f77b4; stroke: #1f77b4"/>
     <use xlink:href="#m4a163fa1df" x="172.123673" y="253.332051" style="fill: #1f77b4; stroke: #1f77b4"/>
     <use xlink:href="#m4a163fa1df" x="175.474694" y="261.837109" style="fill: #1f77b4; stroke: #1f77b4"/>
     <use xlink:href="#m4a163fa1df" x="178.825714" y="269.624248" style="fill: #1f77b4; stroke: #1f77b4"/>
     <use xlink:href="#m4a163fa1df" x="182.176735" y="276.540417" style="fill: #1f77b4; stroke: #1f77b4"/>
     <use xlink:href="#m4a163fa1df" x="185.527755" y="282.509411" style="fill: #1f77b4; stroke: #1f77b4"/>
     <use xlink:href="#m4a163fa1df" x="188.878776" y="287.521999" style="fill: #1f77b4; stroke: #1f77b4"/>
     <use xlink:href="#m4a163fa1df" x="192.229796" y="291.622127" style="fill: #1f77b4; stroke: #1f77b4"/>
     <use xlink:href="#m4a163fa1df" x="195.580816" y="294.89149" style="fill: #1f77b4; stroke: #1f77b4"/>
     <use xlink:href="#m4a163fa1df" x="198.931837" y="297.43449" style="fill: #1f77b4; stroke: #1f77b4"/>
     <use xlink:href="#m4a163fa1df" x="202.282857" y="299.365041" style="fill: #1f77b4; stroke: #1f77b4"/>
     <use xlink:href="#m4a163fa1df" x="205.633878" y="300.796118" style="fill: #1f77b4; stroke: #1f77b4"/>
     <use xlink:href="#m4a163fa1df" x="208.984898" y="301.832343" style="fill: #1f77b4; stroke: #1f77b4"/>
     <use xlink:href="#m4a163fa1df" x="212.335918" y="302.565492" style="fill: #1f77b4; stroke: #1f77b4"/>
     <use xlink:href="#m4a163fa1df" x="215.686939" y="303.072477" style="fill: #1f77b4; stroke: #1f77b4"/>
     <use xlink:href="#m4a163fa1df" x="219.037959" y="303.415216" style="fill: #1f77b4; stroke: #1f77b4"/>
     <use xlink:href="#m4a163fa1df" x="222.38898" y="303.641777" style="fill: #1f77b4; stroke: #1f77b4"/>
     <use xlink:href="#m4a163fa1df" x="225.74" y="303.788243" style="fill: #1f77b4; stroke: #1f77b4"/>
    </g>
   </g>
   <g id="patch_31">
    <path d="M 45.12 304.02 
L 242.16 304.02 
" style="fill: none; stroke: #000000; stroke-width: 0.5; stroke-linejoin: miter; stroke-linecap: square"/>
   </g>
   <g id="text_19">
    <!-- Interpolation -->
    <g transform="translate(45.12 175.17) scale(0.12 -0.12)">
     <defs>
      <path id="Lato-Bold-49" d="M 1379 0 
L 515 0 
L 515 4627 
L 1379 4627 
L 1379 0 
z
" transform="scale(0.015625)"/>
      <path id="Lato-Bold-65" d="M 1789 3334 
Q 2099 3334 2361 3235 
Q 2624 3136 2813 2945 
Q 3002 2755 3109 2478 
Q 3216 2202 3216 1846 
Q 3216 1667 3177 1604 
Q 3139 1542 3030 1542 
L 998 1542 
Q 1018 1290 1088 1106 
Q 1158 922 1273 802 
Q 1389 682 1547 622 
Q 1706 563 1898 563 
Q 2090 563 2229 608 
Q 2368 653 2472 707 
Q 2576 762 2654 806 
Q 2733 851 2806 851 
Q 2906 851 2954 778 
L 3181 490 
Q 3050 336 2886 232 
Q 2723 128 2545 65 
Q 2368 3 2184 -22 
Q 2000 -48 1827 -48 
Q 1485 -48 1190 65 
Q 896 179 678 401 
Q 461 624 336 952 
Q 211 1280 211 1712 
Q 211 2048 320 2344 
Q 429 2640 632 2859 
Q 835 3078 1128 3206 
Q 1421 3334 1789 3334 
z
M 1805 2768 
Q 1459 2768 1264 2573 
Q 1069 2378 1014 2019 
L 2506 2019 
Q 2506 2173 2462 2309 
Q 2419 2445 2332 2547 
Q 2246 2650 2113 2709 
Q 1981 2768 1805 2768 
z
" transform="scale(0.015625)"/>
      <path id="Lato-Bold-70" d="M 390 -1072 
L 390 3283 
L 874 3283 
Q 1027 3283 1075 3139 
L 1139 2835 
Q 1338 3062 1595 3203 
Q 1853 3344 2198 3344 
Q 2467 3344 2689 3232 
Q 2912 3120 3073 2907 
Q 3235 2694 3323 2382 
Q 3411 2070 3411 1667 
Q 3411 1299 3312 985 
Q 3213 672 3029 441 
Q 2845 211 2584 81 
Q 2323 -48 2000 -48 
Q 1722 -48 1528 37 
Q 1334 122 1181 272 
L 1181 -1072 
L 390 -1072 
z
M 1926 2720 
Q 1680 2720 1505 2616 
Q 1331 2512 1181 2323 
L 1181 851 
Q 1315 685 1473 619 
Q 1632 554 1818 554 
Q 1997 554 2141 621 
Q 2285 688 2385 825 
Q 2486 963 2540 1172 
Q 2595 1382 2595 1667 
Q 2595 1955 2548 2155 
Q 2502 2355 2416 2480 
Q 2330 2605 2206 2662 
Q 2083 2720 1926 2720 
z
" transform="scale(0.015625)"/>
      <path id="Lato-Bold-6c" d="M 1190 4755 
L 1190 0 
L 400 0 
L 400 4755 
L 1190 4755 
z
" transform="scale(0.015625)"/>
     </defs>
     <use xlink:href="#Lato-Bold-49"/>
     <use xlink:href="#Lato-Bold-6e" x="28.899994"/>
     <use xlink:href="#Lato-Bold-74" x="84.550003"/>
     <use xlink:href="#Lato-Bold-65" x="121.375"/>
     <use xlink:href="#Lato-Bold-72" x="174.775009"/>
     <use xlink:href="#Lato-Bold-70" x="212.075012"/>
     <use xlink:href="#Lato-Bold-6f" x="268.875015"/>
     <use xlink:href="#Lato-Bold-6c" x="326.325027"/>
     <use xlink:href="#Lato-Bold-61" x="351.175034"/>
     <use xlink:href="#Lato-Bold-74" x="401.175034"/>
     <use xlink:href="#Lato-Bold-69" x="438.375031"/>
     <use xlink:href="#Lato-Bold-6f" x="463.775024"/>
     <use xlink:href="#Lato-Bold-6e" x="521.225037"/>
    </g>
   </g>
  </g>
  <g id="axes_4">
   <g id="patch_32">
    <path d="M 252.96 304.02 
L 450 304.02 
L 450 187.17 
L 252.96 187.17 
L 252.96 304.02 
z
" style="fill: none"/>
   </g>
   <g id="matplotlib.axis_7">
    <g id="xtick_52">
     <g id="line2d_75">
      <g>
       <use xlink:href="#m8219a575fd" x="292.837143" y="304.02" style="stroke: #000000; stroke-width: 0.5"/>
      </g>
     </g>
     <g id="text_20">
      <!-- 0 -->
      <g transform="translate(289.937143 320.885625) scale(0.1 -0.1)">
       <use xlink:href="#Lato-Regular-30"/>
      </g>
     </g>
    </g>
    <g id="xtick_53">
     <g id="line2d_76">
      <g>
       <use xlink:href="#m8219a575fd" x="339.751429" y="304.02" style="stroke: #000000; stroke-width: 0.5"/>
      </g>
     </g>
     <g id="text_21">
      <!-- 2 -->
      <g transform="translate(336.851429 320.885625) scale(0.1 -0.1)">
       <use xlink:href="#Lato-Regular-32"/>
      </g>
     </g>
    </g>
    <g id="xtick_54">
     <g id="line2d_77">
      <g>
       <use xlink:href="#m8219a575fd" x="386.665714" y="304.02" style="stroke: #000000; stroke-width: 0.5"/>
      </g>
     </g>
     <g id="text_22">
      <!-- 4 -->
      <g transform="translate(383.765714 320.885625) scale(0.1 -0.1)">
       <use xlink:href="#Lato-Regular-34"/>
      </g>
     </g>
    </g>
    <g id="xtick_55">
     <g id="line2d_78">
      <g>
       <use xlink:href="#m8219a575fd" x="433.58" y="304.02" style="stroke: #000000; stroke-width: 0.5"/>
      </g>
     </g>
     <g id="text_23">
      <!-- 6 -->
      <g transform="translate(430.68 320.885625) scale(0.1 -0.1)">
       <use xlink:href="#Lato-Regular-36"/>
      </g>
     </g>
    </g>
    <g id="xtick_56">
     <g id="line2d_79">
      <g>
       <use xlink:href="#m54edba0700" x="257.651429" y="304.02" style="stroke: #000000; stroke-width: 0.5"/>
      </g>
     </g>
    </g>
    <g id="xtick_57">
     <g id="line2d_80">
      <g>
       <use xlink:href="#m54edba0700" x="269.38" y="304.02" style="stroke: #000000; stroke-width: 0.5"/>
      </g>
     </g>
    </g>
    <g id="xtick_58">
     <g id="line2d_81">
      <g>
       <use xlink:href="#m54edba0700" x="281.108571" y="304.02" style="stroke: #000000; stroke-width: 0.5"/>
      </g>
     </g>
    </g>
    <g id="xtick_59">
     <g id="line2d_82">
      <g>
       <use xlink:href="#m54edba0700" x="304.565714" y="304.02" style="stroke: #000000; stroke-width: 0.5"/>
      </g>
     </g>
    </g>
    <g id="xtick_60">
     <g id="line2d_83">
      <g>
       <use xlink:href="#m54edba0700" x="316.294286" y="304.02" style="stroke: #000000; stroke-width: 0.5"/>
      </g>
     </g>
    </g>
    <g id="xtick_61">
     <g id="line2d_84">
      <g>
       <use xlink:href="#m54edba0700" x="328.022857" y="304.02" style="stroke: #000000; stroke-width: 0.5"/>
      </g>
     </g>
    </g>
    <g id="xtick_62">
     <g id="line2d_85">
      <g>
       <use xlink:href="#m54edba0700" x="351.48" y="304.02" style="stroke: #000000; stroke-width: 0.5"/>
      </g>
     </g>
    </g>
    <g id="xtick_63">
     <g id="line2d_86">
      <g>
       <use xlink:href="#m54edba0700" x="363.208571" y="304.02" style="stroke: #000000; stroke-width: 0.5"/>
      </g>
     </g>
    </g>
    <g id="xtick_64">
     <g id="line2d_87">
      <g>
       <use xlink:href="#m54edba0700" x="374.937143" y="304.02" style="stroke: #000000; stroke-width: 0.5"/>
      </g>
     </g>
    </g>
    <g id="xtick_65">
     <g id="line2d_88">
      <g>
       <use xlink:href="#m54edba0700" x="398.394286" y="304.02" style="stroke: #000000; stroke-width: 0.5"/>
      </g>
     </g>
    </g>
    <g id="xtick_66">
     <g id="line2d_89">
      <g>
       <use xlink:href="#m54edba0700" x="410.122857" y="304.02" style="stroke: #000000; stroke-width: 0.5"/>
      </g>
     </g>
    </g>
    <g id="xtick_67">
     <g id="line2d_90">
      <g>
       <use xlink:href="#m54edba0700" x="421.851429" y="304.02" style="stroke: #000000; stroke-width: 0.5"/>
      </g>
     </g>
    </g>
    <g id="xtick_68">
     <g id="line2d_91">
      <g>
       <use xlink:href="#m54edba0700" x="445.308571" y="304.02" style="stroke: #000000; stroke-width: 0.5"/>
      </g>
     </g>
    </g>
   </g>
   <g id="matplotlib.axis_8">
    <g id="ytick_16">
     <g id="line2d_92">
      <path d="M 252.96 304.02 
L 450 304.02 
" clip-path="url(#p6604e3feb0)" style="fill: none; stroke: #cccccc; stroke-width: 0.5; stroke-linecap: square"/>
     </g>
    </g>
    <g id="ytick_17">
     <g id="line2d_93">
      <path d="M 252.96 277.463182 
L 450 277.463182 
" clip-path="url(#p6604e3feb0)" style="fill: none; stroke: #cccccc; stroke-width: 0.5; stroke-linecap: square"/>
     </g>
    </g>
    <g id="ytick_18">
     <g id="line2d_94">
      <path d="M 252.96 250.906364 
L 450 250.906364 
" clip-path="url(#p6604e3feb0)" style="fill: none; stroke: #cccccc; stroke-width: 0.5; stroke-linecap: square"/>
     </g>
    </g>
    <g id="ytick_19">
     <g id="line2d_95">
      <path d="M 252.96 224.349545 
L 450 224.349545 
" clip-path="url(#p6604e3feb0)" style="fill: none; stroke: #cccccc; stroke-width: 0.5; stroke-linecap: square"/>
     </g>
    </g>
    <g id="ytick_20">
     <g id="line2d_96">
      <path d="M 252.96 197.792727 
L 450 197.792727 
" clip-path="url(#p6604e3feb0)" style="fill: none; stroke: #cccccc; stroke-width: 0.5; stroke-linecap: square"/>
     </g>
    </g>
   </g>
   <g id="line2d_97">
    <path d="M 269.38 303.788243 
L 271.038586 303.72391 
L 272.697172 303.643605 
L 274.355758 303.543906 
L 276.014343 303.420802 
L 277.672929 303.269628 
L 279.331515 303.085 
L 280.990101 302.860755 
L 282.648687 302.589896 
L 284.307273 302.264548 
L 285.965859 301.87593 
L 287.624444 301.41434 
L 289.28303 300.869167 
L 290.941616 300.228932 
L 292.600202 299.48135 
L 294.258788 298.613447 
L 295.917374 297.611698 
L 297.57596 296.46222 
L 299.234545 295.151008 
L 300.893131 293.664214 
L 302.551717 291.988478 
L 304.210303 290.11129 
L 305.868889 288.021404 
L 307.527475 285.70927 
L 309.186061 283.167498 
L 310.844646 280.391321 
L 312.503232 277.379065 
L 314.161818 274.132593 
L 315.820404 270.657718 
L 317.47899 266.964556 
L 319.137576 263.067819 
L 320.796162 258.987008 
L 322.454747 254.746511 
L 324.113333 250.375576 
L 325.771919 245.908164 
L 327.430505 241.382652 
L 329.089091 236.841412 
L 330.747677 232.330239 
L 332.406263 227.897658 
L 334.064848 223.594105 
L 335.723434 219.471012 
L 337.38202 215.57981 
L 339.040606 211.970873 
L 340.699192 208.69245 
L 342.357778 205.789594 
L 344.016364 203.303137 
L 345.674949 201.268731 
L 347.333535 199.716004 
L 348.992121 198.667839 
L 350.650707 198.139813 
L 352.309293 198.139813 
L 353.967879 198.667839 
L 355.626465 199.716004 
L 357.285051 201.268731 
L 358.943636 203.303137 
L 360.602222 205.789594 
L 362.260808 208.69245 
L 363.919394 211.970873 
L 365.57798 215.57981 
L 367.236566 219.471012 
L 368.895152 223.594105 
L 370.553737 227.897658 
L 372.212323 232.330239 
L 373.870909 236.841412 
L 375.529495 241.382652 
L 377.188081 245.908164 
L 378.846667 250.375576 
L 380.505253 254.746511 
L 382.163838 258.987008 
L 383.822424 263.067819 
L 385.48101 266.964556 
L 387.139596 270.657718 
L 388.798182 274.132593 
L 390.456768 277.379065 
L 392.115354 280.391321 
L 393.773939 283.167498 
L 395.432525 285.70927 
L 397.091111 288.021404 
L 398.749697 290.11129 
L 400.408283 291.988478 
L 402.066869 293.664214 
L 403.725455 295.151008 
L 405.38404 296.46222 
L 407.042626 297.611698 
L 408.701212 298.613447 
L 410.359798 299.48135 
L 412.018384 300.228932 
L 413.67697 300.869167 
L 415.335556 301.41434 
L 416.994141 301.87593 
L 418.652727 302.264548 
L 420.311313 302.589896 
L 421.969899 302.860755 
L 423.628485 303.085 
L 425.287071 303.269628 
L 426.945657 303.420802 
L 428.604242 303.543906 
L 430.262828 303.643605 
L 431.921414 303.72391 
L 433.58 303.788243 
" clip-path="url(#p6604e3feb0)" style="fill: none; stroke: #ff7f0e; stroke-linecap: square"/>
   </g>
   <g id="LineCollection_3">
    <path d="M 278.595624 304.02 
L 278.595624 197.792727 
" clip-path="url(#p6604e3feb0)" style="fill: none; stroke: #1f77b4"/>
    <path d="M 278.991979 304.02 
L 278.991979 197.792727 
" clip-path="url(#p6604e3feb0)" style="fill: none; stroke: #1f77b4"/>
    <path d="M 322.943355 304.02 
L 322.943355 197.792727 
" clip-path="url(#p6604e3feb0)" style="fill: none; stroke: #1f77b4"/>
    <path d="M 333.585825 304.02 
L 333.585825 197.792727 
" clip-path="url(#p6604e3feb0)" style="fill: none; stroke: #1f77b4"/>
    <path d="M 341.397869 304.02 
L 341.397869 197.792727 
" clip-path="url(#p6604e3feb0)" style="fill: none; stroke: #1f77b4"/>
    <path d="M 348.209393 304.02 
L 348.209393 197.792727 
" clip-path="url(#p6604e3feb0)" style="fill: none; stroke: #1f77b4"/>
    <path d="M 354.750607 304.02 
L 354.750607 197.792727 
" clip-path="url(#p6604e3feb0)" style="fill: none; stroke: #1f77b4"/>
    <path d="M 361.562131 304.02 
L 361.562131 197.792727 
" clip-path="url(#p6604e3feb0)" style="fill: none; stroke: #1f77b4"/>
    <path d="M 369.374175 304.02 
L 369.374175 197.792727 
" clip-path="url(#p6604e3feb0)" style="fill: none; stroke: #1f77b4"/>
    <path d="M 380.016645 304.02 
L 380.016645 197.792727 
" clip-path="url(#p6604e3feb0)" style="fill: none; stroke: #1f77b4"/>
    <path d="M 423.968021 304.02 
L 423.968021 197.792727 
" clip-path="url(#p6604e3feb0)" style="fill: none; stroke: #1f77b4"/>
    <path d="M 424.364376 304.02 
L 424.364376 197.792727 
" clip-path="url(#p6604e3feb0)" style="fill: none; stroke: #1f77b4"/>
   </g>
   <g id="patch_33">
    <path d="M 252.96 304.02 
L 450 304.02 
" style="fill: none; stroke: #000000; stroke-width: 0.5; stroke-linejoin: miter; stroke-linecap: square"/>
   </g>
   <g id="text_24">
    <!-- Quantiles -->
    <g transform="translate(252.96 175.17) scale(0.12 -0.12)">
     <defs>
      <path id="Lato-Bold-51" d="M 4931 2314 
Q 4931 2003 4867 1720 
Q 4803 1437 4683 1189 
Q 4563 941 4390 734 
Q 4218 528 3997 371 
L 5171 -906 
L 4461 -906 
Q 4307 -906 4184 -864 
Q 4061 -822 3958 -710 
L 3280 38 
Q 3117 -6 2945 -28 
Q 2774 -51 2589 -51 
Q 2064 -51 1632 126 
Q 1200 304 891 621 
Q 582 938 412 1371 
Q 243 1805 243 2314 
Q 243 2822 412 3256 
Q 582 3690 891 4006 
Q 1200 4323 1632 4500 
Q 2064 4678 2589 4678 
Q 2941 4678 3251 4596 
Q 3562 4515 3821 4366 
Q 4080 4218 4286 4005 
Q 4493 3792 4637 3529 
Q 4781 3267 4856 2960 
Q 4931 2653 4931 2314 
z
M 4051 2314 
Q 4051 2694 3948 2996 
Q 3846 3299 3657 3510 
Q 3469 3722 3198 3834 
Q 2928 3946 2589 3946 
Q 2250 3946 1979 3834 
Q 1709 3722 1518 3510 
Q 1328 3299 1225 2996 
Q 1123 2694 1123 2314 
Q 1123 1933 1225 1630 
Q 1328 1328 1518 1118 
Q 1709 909 1979 797 
Q 2250 685 2589 685 
Q 2928 685 3198 797 
Q 3469 909 3657 1118 
Q 3846 1328 3948 1630 
Q 4051 1933 4051 2314 
z
" transform="scale(0.015625)"/>
     </defs>
     <use xlink:href="#Lato-Bold-51"/>
     <use xlink:href="#Lato-Bold-75" x="80.175018"/>
     <use xlink:href="#Lato-Bold-61" x="136.575027"/>
     <use xlink:href="#Lato-Bold-6e" x="187.325027"/>
     <use xlink:href="#Lato-Bold-74" x="242.975037"/>
     <use xlink:href="#Lato-Bold-69" x="280.175034"/>
     <use xlink:href="#Lato-Bold-6c" x="305.575027"/>
     <use xlink:href="#Lato-Bold-65" x="330.425034"/>
     <use xlink:href="#Lato-Bold-73" x="383.825043"/>
    </g>
   </g>
  </g>
  <g id="legend_1">
   <g id="line2d_98">
    <path d="M 363.482813 14.055313 
L 373.482813 14.055313 
L 383.482813 14.055313 
" style="fill: none; stroke: #ff7f0e; stroke-linecap: square"/>
   </g>
   <g id="text_25">
    <!-- underlying  -->
    <g transform="translate(391.482813 11.365625) scale(0.1 -0.1)">
     <defs>
      <path id="Lato-Regular-75" d="M 989 3242 
L 989 1174 
Q 989 806 1157 604 
Q 1325 403 1670 403 
Q 1920 403 2141 521 
Q 2362 640 2547 851 
L 2547 3242 
L 3117 3242 
L 3117 0 
L 2778 0 
Q 2656 0 2624 118 
L 2579 467 
Q 2368 234 2105 91 
Q 1843 -51 1504 -51 
Q 1238 -51 1035 37 
Q 832 125 694 285 
Q 557 445 488 672 
Q 419 899 419 1174 
L 419 3242 
L 989 3242 
z
" transform="scale(0.015625)"/>
      <path id="Lato-Regular-6e" d="M 451 0 
L 451 3242 
L 794 3242 
Q 915 3242 944 3123 
L 989 2771 
Q 1200 3005 1462 3149 
Q 1725 3293 2067 3293 
Q 2333 3293 2536 3205 
Q 2739 3117 2875 2955 
Q 3011 2794 3081 2566 
Q 3152 2339 3152 2064 
L 3152 0 
L 2579 0 
L 2579 2064 
Q 2579 2432 2411 2635 
Q 2243 2838 1901 2838 
Q 1645 2838 1425 2716 
Q 1206 2595 1024 2387 
L 1024 0 
L 451 0 
z
" transform="scale(0.015625)"/>
      <path id="Lato-Regular-64" d="M 2794 0 
Q 2672 0 2640 118 
L 2589 512 
Q 2381 259 2113 107 
Q 1846 -45 1501 -45 
Q 1222 -45 995 62 
Q 768 170 608 378 
Q 448 586 361 896 
Q 275 1206 275 1610 
Q 275 1968 371 2277 
Q 467 2586 646 2813 
Q 826 3040 1086 3169 
Q 1347 3299 1674 3299 
Q 1971 3299 2184 3198 
Q 2397 3098 2563 2915 
L 2563 4714 
L 3133 4714 
L 3133 0 
L 2794 0 
z
M 1686 416 
Q 1968 416 2177 544 
Q 2387 672 2563 906 
L 2563 2470 
Q 2403 2682 2217 2768 
Q 2032 2854 1802 2854 
Q 1350 2854 1107 2531 
Q 864 2208 864 1610 
Q 864 1293 918 1067 
Q 973 842 1078 696 
Q 1184 550 1337 483 
Q 1491 416 1686 416 
z
" transform="scale(0.015625)"/>
      <path id="Lato-Regular-65" d="M 1779 3293 
Q 2070 3293 2318 3195 
Q 2566 3098 2747 2914 
Q 2928 2730 3030 2459 
Q 3133 2189 3133 1843 
Q 3133 1709 3104 1664 
Q 3075 1619 2995 1619 
L 829 1619 
Q 835 1312 912 1085 
Q 989 858 1123 706 
Q 1258 554 1443 478 
Q 1629 403 1859 403 
Q 2074 403 2229 452 
Q 2384 502 2496 560 
Q 2608 618 2683 667 
Q 2758 717 2813 717 
Q 2883 717 2922 662 
L 3082 454 
Q 2976 326 2829 232 
Q 2682 138 2514 77 
Q 2346 16 2166 -14 
Q 1987 -45 1811 -45 
Q 1475 -45 1192 68 
Q 909 182 702 401 
Q 496 621 381 944 
Q 266 1267 266 1686 
Q 266 2026 370 2320 
Q 474 2614 669 2830 
Q 864 3046 1145 3169 
Q 1427 3293 1779 3293 
z
M 1792 2874 
Q 1379 2874 1142 2635 
Q 906 2397 848 1974 
L 2621 1974 
Q 2621 2173 2565 2337 
Q 2509 2502 2401 2622 
Q 2294 2742 2140 2808 
Q 1987 2874 1792 2874 
z
" transform="scale(0.015625)"/>
      <path id="Lato-Regular-72" d="M 451 0 
L 451 3242 
L 778 3242 
Q 870 3242 905 3206 
Q 941 3171 954 3085 
L 989 2592 
Q 1142 2925 1368 3112 
Q 1594 3299 1917 3299 
Q 2019 3299 2113 3276 
Q 2208 3254 2282 3206 
L 2240 2781 
Q 2221 2701 2144 2701 
Q 2099 2701 2012 2720 
Q 1926 2739 1818 2739 
Q 1664 2739 1542 2692 
Q 1421 2646 1326 2558 
Q 1232 2470 1158 2342 
Q 1085 2214 1024 2048 
L 1024 0 
L 451 0 
z
" transform="scale(0.015625)"/>
      <path id="Lato-Regular-6c" d="M 1040 4714 
L 1040 0 
L 470 0 
L 470 4714 
L 1040 4714 
z
" transform="scale(0.015625)"/>
      <path id="Lato-Regular-79" d="M 1440 -957 
Q 1411 -1021 1368 -1059 
Q 1325 -1098 1235 -1098 
L 813 -1098 
L 1405 189 
L 67 3242 
L 560 3242 
Q 634 3242 677 3205 
Q 720 3168 736 3123 
L 1603 1082 
Q 1629 1008 1651 939 
Q 1674 870 1690 797 
Q 1731 941 1786 1085 
L 2627 3123 
Q 2646 3174 2692 3208 
Q 2739 3242 2797 3242 
L 3248 3242 
L 1440 -957 
z
" transform="scale(0.015625)"/>
      <path id="Lato-Regular-69" d="M 1053 3242 
L 1053 0 
L 483 0 
L 483 3242 
L 1053 3242 
z
M 1174 4259 
Q 1174 4176 1140 4104 
Q 1107 4032 1051 3976 
Q 995 3920 920 3888 
Q 845 3856 762 3856 
Q 678 3856 606 3888 
Q 534 3920 480 3976 
Q 426 4032 394 4104 
Q 362 4176 362 4259 
Q 362 4342 394 4417 
Q 426 4493 480 4549 
Q 534 4605 606 4637 
Q 678 4669 762 4669 
Q 845 4669 920 4637 
Q 995 4605 1051 4549 
Q 1107 4493 1140 4417 
Q 1174 4342 1174 4259 
z
" transform="scale(0.015625)"/>
      <path id="Lato-Regular-67" d="M 1581 3296 
Q 1792 3296 1974 3249 
Q 2157 3203 2307 3114 
L 3187 3114 
L 3187 2902 
Q 3187 2797 3053 2768 
L 2685 2717 
Q 2794 2509 2794 2253 
Q 2794 2016 2702 1822 
Q 2611 1629 2451 1491 
Q 2291 1354 2067 1280 
Q 1843 1206 1581 1206 
Q 1350 1206 1149 1261 
Q 1046 1197 993 1123 
Q 941 1050 941 979 
Q 941 864 1035 805 
Q 1130 746 1283 720 
Q 1437 694 1633 688 
Q 1830 682 2036 667 
Q 2243 653 2440 617 
Q 2637 582 2790 502 
Q 2944 422 3038 281 
Q 3133 141 3133 -83 
Q 3133 -291 3029 -486 
Q 2925 -682 2729 -834 
Q 2534 -986 2251 -1077 
Q 1968 -1168 1613 -1168 
Q 1258 -1168 992 -1097 
Q 726 -1027 550 -908 
Q 374 -790 286 -635 
Q 198 -480 198 -310 
Q 198 -70 348 96 
Q 499 262 758 362 
Q 614 426 531 533 
Q 448 640 448 822 
Q 448 893 473 968 
Q 499 1043 552 1116 
Q 605 1190 681 1257 
Q 758 1325 861 1376 
Q 621 1510 486 1734 
Q 352 1958 352 2253 
Q 352 2490 443 2683 
Q 534 2877 697 3013 
Q 861 3149 1086 3222 
Q 1312 3296 1581 3296 
z
M 2608 -176 
Q 2608 -58 2541 16 
Q 2474 90 2360 131 
Q 2246 173 2096 190 
Q 1946 208 1778 217 
Q 1610 227 1437 236 
Q 1264 246 1104 269 
Q 925 186 811 61 
Q 698 -64 698 -237 
Q 698 -346 754 -440 
Q 810 -534 925 -603 
Q 1040 -672 1214 -712 
Q 1389 -752 1626 -752 
Q 1856 -752 2038 -710 
Q 2221 -669 2347 -592 
Q 2474 -515 2541 -409 
Q 2608 -304 2608 -176 
z
M 1581 1584 
Q 1754 1584 1885 1632 
Q 2016 1680 2105 1766 
Q 2195 1853 2240 1973 
Q 2285 2093 2285 2237 
Q 2285 2534 2104 2710 
Q 1923 2886 1581 2886 
Q 1235 2886 1054 2710 
Q 874 2534 874 2237 
Q 874 2093 920 1973 
Q 966 1853 1056 1766 
Q 1146 1680 1277 1632 
Q 1408 1584 1581 1584 
z
" transform="scale(0.015625)"/>
      <path id="Lato-Regular-20" transform="scale(0.015625)"/>
     </defs>
     <use xlink:href="#Lato-Regular-75"/>
     <use xlink:href="#Lato-Regular-6e" x="55.75"/>
     <use xlink:href="#Lato-Regular-64" x="111.550003"/>
     <use xlink:href="#Lato-Regular-65" x="167.550003"/>
     <use xlink:href="#Lato-Regular-72" x="220.350006"/>
     <use xlink:href="#Lato-Regular-6c" x="256.750015"/>
     <use xlink:href="#Lato-Regular-79" x="280.350021"/>
     <use xlink:href="#Lato-Regular-69" x="331.900024"/>
     <use xlink:href="#Lato-Regular-6e" x="355.900024"/>
     <use xlink:href="#Lato-Regular-67" x="411.700027"/>
     <use xlink:href="#Lato-Regular-20" x="463.700027"/>
    </g>
    <!--  distribution -->
    <g transform="translate(391.482813 22.029375) scale(0.1 -0.1)">
     <defs>
      <path id="Lato-Regular-73" d="M 2339 2707 
Q 2301 2637 2221 2637 
Q 2173 2637 2112 2672 
Q 2051 2707 1963 2750 
Q 1875 2794 1753 2830 
Q 1632 2867 1466 2867 
Q 1322 2867 1206 2830 
Q 1091 2794 1009 2730 
Q 928 2666 885 2581 
Q 842 2496 842 2397 
Q 842 2272 914 2189 
Q 986 2106 1104 2045 
Q 1222 1984 1372 1937 
Q 1523 1891 1681 1838 
Q 1840 1786 1990 1722 
Q 2141 1658 2259 1562 
Q 2378 1466 2450 1326 
Q 2522 1187 2522 992 
Q 2522 768 2442 577 
Q 2362 387 2205 248 
Q 2048 109 1821 29 
Q 1594 -51 1296 -51 
Q 957 -51 681 59 
Q 406 170 214 342 
L 349 560 
Q 374 602 409 624 
Q 445 646 499 646 
Q 557 646 621 601 
Q 685 557 776 502 
Q 867 448 998 403 
Q 1130 358 1325 358 
Q 1491 358 1616 401 
Q 1741 445 1824 518 
Q 1907 592 1947 688 
Q 1987 784 1987 893 
Q 1987 1027 1915 1115 
Q 1843 1203 1724 1265 
Q 1606 1328 1454 1374 
Q 1302 1421 1144 1472 
Q 986 1523 834 1588 
Q 682 1654 563 1753 
Q 445 1853 373 1998 
Q 301 2144 301 2352 
Q 301 2538 377 2709 
Q 454 2880 601 3009 
Q 749 3139 963 3216 
Q 1178 3293 1453 3293 
Q 1773 3293 2027 3192 
Q 2282 3091 2467 2915 
L 2339 2707 
z
" transform="scale(0.015625)"/>
      <path id="Lato-Regular-74" d="M 1446 -51 
Q 1062 -51 856 163 
Q 650 378 650 781 
L 650 2765 
L 259 2765 
Q 208 2765 173 2795 
Q 138 2826 138 2890 
L 138 3117 
L 669 3184 
L 800 4186 
Q 810 4234 843 4264 
Q 877 4294 931 4294 
L 1219 4294 
L 1219 3178 
L 2157 3178 
L 2157 2765 
L 1219 2765 
L 1219 819 
Q 1219 614 1318 515 
Q 1418 416 1574 416 
Q 1664 416 1729 440 
Q 1795 464 1843 493 
Q 1891 522 1924 546 
Q 1958 570 1984 570 
Q 2029 570 2064 515 
L 2230 243 
Q 2083 106 1875 27 
Q 1667 -51 1446 -51 
z
" transform="scale(0.015625)"/>
      <path id="Lato-Regular-62" d="M 451 0 
L 451 4714 
L 1024 4714 
L 1024 2771 
Q 1226 3011 1485 3152 
Q 1744 3293 2080 3293 
Q 2365 3293 2593 3184 
Q 2822 3075 2982 2868 
Q 3142 2662 3227 2368 
Q 3312 2074 3312 1706 
Q 3312 1312 3216 989 
Q 3120 666 2939 437 
Q 2758 208 2499 81 
Q 2240 -45 1917 -45 
Q 1597 -45 1377 75 
Q 1158 195 995 416 
L 966 122 
Q 941 0 819 0 
L 451 0 
z
M 1891 2838 
Q 1613 2838 1405 2710 
Q 1197 2582 1024 2349 
L 1024 781 
Q 1181 570 1368 483 
Q 1555 397 1779 397 
Q 2237 397 2480 720 
Q 2723 1043 2723 1683 
Q 2723 2278 2507 2558 
Q 2291 2838 1891 2838 
z
" transform="scale(0.015625)"/>
      <path id="Lato-Regular-6f" d="M 1818 3293 
Q 2173 3293 2457 3174 
Q 2742 3056 2944 2838 
Q 3146 2621 3253 2312 
Q 3360 2003 3360 1622 
Q 3360 1238 3253 931 
Q 3146 624 2944 406 
Q 2742 189 2457 72 
Q 2173 -45 1818 -45 
Q 1459 -45 1172 72 
Q 886 189 684 406 
Q 483 624 376 931 
Q 269 1238 269 1622 
Q 269 2003 376 2312 
Q 483 2621 684 2838 
Q 886 3056 1172 3174 
Q 1459 3293 1818 3293 
z
M 1818 400 
Q 2298 400 2534 721 
Q 2771 1043 2771 1619 
Q 2771 2198 2534 2521 
Q 2298 2845 1818 2845 
Q 1574 2845 1393 2761 
Q 1213 2678 1093 2521 
Q 973 2365 913 2136 
Q 854 1907 854 1619 
Q 854 1043 1092 721 
Q 1331 400 1818 400 
z
" transform="scale(0.015625)"/>
     </defs>
     <use xlink:href="#Lato-Regular-20"/>
     <use xlink:href="#Lato-Regular-64" x="25.600006"/>
     <use xlink:href="#Lato-Regular-69" x="81.600006"/>
     <use xlink:href="#Lato-Regular-73" x="105.600006"/>
     <use xlink:href="#Lato-Regular-74" x="148.900009"/>
     <use xlink:href="#Lato-Regular-72" x="184.750015"/>
     <use xlink:href="#Lato-Regular-69" x="221.150024"/>
     <use xlink:href="#Lato-Regular-62" x="245.150024"/>
     <use xlink:href="#Lato-Regular-75" x="301.150024"/>
     <use xlink:href="#Lato-Regular-74" x="356.900024"/>
     <use xlink:href="#Lato-Regular-69" x="392.750031"/>
     <use xlink:href="#Lato-Regular-6f" x="416.750031"/>
     <use xlink:href="#Lato-Regular-6e" x="473.450043"/>
    </g>
   </g>
   <g id="line2d_99">
    <path d="M 363.482813 38.745625 
L 373.482813 38.745625 
L 383.482813 38.745625 
" style="fill: none; stroke: #1f77b4; stroke-linecap: square"/>
   </g>
   <g id="text_26">
    <!-- parameterized  -->
    <g transform="translate(391.482813 36.110625) scale(0.1 -0.1)">
     <defs>
      <path id="Lato-Regular-70" d="M 451 -1098 
L 451 3242 
L 794 3242 
Q 915 3242 944 3123 
L 992 2739 
Q 1200 2992 1469 3145 
Q 1738 3299 2083 3299 
Q 2365 3299 2592 3192 
Q 2819 3085 2979 2875 
Q 3139 2666 3225 2355 
Q 3312 2045 3312 1642 
Q 3312 1283 3216 974 
Q 3120 666 2939 440 
Q 2758 214 2497 84 
Q 2237 -45 1910 -45 
Q 1613 -45 1400 54 
Q 1187 154 1024 336 
L 1024 -1098 
L 451 -1098 
z
M 1898 2838 
Q 1619 2838 1409 2710 
Q 1200 2582 1024 2349 
L 1024 781 
Q 1178 570 1365 483 
Q 1552 397 1782 397 
Q 2237 397 2480 720 
Q 2723 1043 2723 1642 
Q 2723 1958 2667 2185 
Q 2611 2413 2505 2558 
Q 2400 2704 2246 2771 
Q 2093 2838 1898 2838 
z
" transform="scale(0.015625)"/>
      <path id="Lato-Regular-61" d="M 2512 0 
Q 2429 0 2384 27 
Q 2339 54 2314 134 
L 2250 438 
Q 2122 323 1998 232 
Q 1875 141 1742 78 
Q 1610 16 1458 -17 
Q 1306 -51 1120 -51 
Q 931 -51 764 1 
Q 598 54 475 160 
Q 352 266 280 427 
Q 208 589 208 810 
Q 208 1002 313 1179 
Q 419 1357 656 1494 
Q 893 1632 1273 1720 
Q 1654 1808 2208 1821 
L 2208 2074 
Q 2208 2451 2045 2644 
Q 1882 2838 1568 2838 
Q 1357 2838 1214 2785 
Q 1072 2733 968 2667 
Q 864 2602 789 2549 
Q 714 2496 640 2496 
Q 582 2496 540 2526 
Q 499 2557 470 2602 
L 368 2784 
Q 637 3043 947 3171 
Q 1258 3299 1635 3299 
Q 1907 3299 2118 3209 
Q 2330 3120 2474 2960 
Q 2618 2800 2691 2573 
Q 2765 2346 2765 2074 
L 2765 0 
L 2512 0 
z
M 1290 349 
Q 1440 349 1565 379 
Q 1690 410 1800 466 
Q 1910 522 2011 603 
Q 2112 685 2208 787 
L 2208 1459 
Q 1814 1446 1537 1396 
Q 1261 1347 1086 1267 
Q 912 1187 833 1078 
Q 755 970 755 835 
Q 755 707 796 614 
Q 838 522 910 462 
Q 982 403 1080 376 
Q 1178 349 1290 349 
z
" transform="scale(0.015625)"/>
      <path id="Lato-Regular-6d" d="M 451 0 
L 451 3242 
L 794 3242 
Q 915 3242 944 3123 
L 986 2790 
Q 1165 3011 1389 3152 
Q 1613 3293 1907 3293 
Q 2234 3293 2437 3110 
Q 2640 2928 2730 2618 
Q 2800 2794 2910 2922 
Q 3021 3050 3158 3133 
Q 3296 3216 3451 3254 
Q 3606 3293 3766 3293 
Q 4022 3293 4222 3211 
Q 4422 3130 4561 2973 
Q 4701 2816 4774 2587 
Q 4848 2358 4848 2064 
L 4848 0 
L 4275 0 
L 4275 2064 
Q 4275 2445 4108 2641 
Q 3942 2838 3629 2838 
Q 3488 2838 3361 2788 
Q 3235 2739 3139 2643 
Q 3043 2547 2987 2401 
Q 2931 2256 2931 2064 
L 2931 0 
L 2358 0 
L 2358 2064 
Q 2358 2454 2201 2646 
Q 2045 2838 1744 2838 
Q 1533 2838 1353 2724 
Q 1174 2611 1024 2416 
L 1024 0 
L 451 0 
z
" transform="scale(0.015625)"/>
      <path id="Lato-Regular-7a" d="M 2688 2998 
Q 2688 2938 2667 2880 
Q 2646 2822 2611 2781 
L 854 445 
L 2627 445 
L 2627 0 
L 186 0 
L 186 237 
Q 186 278 205 334 
Q 224 390 262 442 
L 2029 2794 
L 285 2794 
L 285 3242 
L 2688 3242 
L 2688 2998 
z
" transform="scale(0.015625)"/>
     </defs>
     <use xlink:href="#Lato-Regular-70"/>
     <use xlink:href="#Lato-Regular-61" x="56.050003"/>
     <use xlink:href="#Lato-Regular-72" x="105.750015"/>
     <use xlink:href="#Lato-Regular-61" x="141.400024"/>
     <use xlink:href="#Lato-Regular-6d" x="191.100037"/>
     <use xlink:href="#Lato-Regular-65" x="273.350052"/>
     <use xlink:href="#Lato-Regular-74" x="325.775055"/>
     <use xlink:href="#Lato-Regular-65" x="361.375061"/>
     <use xlink:href="#Lato-Regular-72" x="414.175064"/>
     <use xlink:href="#Lato-Regular-69" x="450.575073"/>
     <use xlink:href="#Lato-Regular-7a" x="474.575073"/>
     <use xlink:href="#Lato-Regular-65" x="518.77507"/>
     <use xlink:href="#Lato-Regular-64" x="571.575073"/>
     <use xlink:href="#Lato-Regular-20" x="627.575073"/>
    </g>
    <!--  distribution -->
    <g transform="translate(391.482813 46.665) scale(0.1 -0.1)">
     <use xlink:href="#Lato-Regular-20"/>
     <use xlink:href="#Lato-Regular-64" x="25.600006"/>
     <use xlink:href="#Lato-Regular-69" x="81.600006"/>
     <use xlink:href="#Lato-Regular-73" x="105.600006"/>
     <use xlink:href="#Lato-Regular-74" x="148.900009"/>
     <use xlink:href="#Lato-Regular-72" x="184.750015"/>
     <use xlink:href="#Lato-Regular-69" x="221.150024"/>
     <use xlink:href="#Lato-Regular-62" x="245.150024"/>
     <use xlink:href="#Lato-Regular-75" x="301.150024"/>
     <use xlink:href="#Lato-Regular-74" x="356.900024"/>
     <use xlink:href="#Lato-Regular-69" x="392.750031"/>
     <use xlink:href="#Lato-Regular-6f" x="416.750031"/>
     <use xlink:href="#Lato-Regular-6e" x="473.450043"/>
    </g>
   </g>
  </g>
 </g>
 <defs>
  <clipPath id="pc4375b5c6a">
   <rect x="45.12" y="32.16" width="197.04" height="116.85"/>
  </clipPath>
  <clipPath id="pbf26a520dd">
   <rect x="252.96" y="32.16" width="197.04" height="116.85"/>
  </clipPath>
  <clipPath id="p8343507a0b">
   <rect x="45.12" y="187.17" width="197.04" height="116.85"/>
  </clipPath>
  <clipPath id="p6604e3feb0">
   <rect x="252.96" y="187.17" width="197.04" height="116.85"/>
  </clipPath>
 </defs>
</svg>
