<?xml version="1.0" encoding="utf-8" standalone="no"?>
<!DOCTYPE svg PUBLIC "-//W3C//DTD SVG 1.1//EN"
  "http://www.w3.org/Graphics/SVG/1.1/DTD/svg11.dtd">
<svg xmlns:xlink="http://www.w3.org/1999/xlink" width="936pt" height="288pt" viewBox="0 0 936 288" xmlns="http://www.w3.org/2000/svg" version="1.1">
 <metadata>
  <rdf:RDF xmlns:dc="http://purl.org/dc/elements/1.1/" xmlns:cc="http://creativecommons.org/ns#" xmlns:rdf="http://www.w3.org/1999/02/22-rdf-syntax-ns#">
   <cc:Work>
    <dc:type rdf:resource="http://purl.org/dc/dcmitype/StillImage"/>
    <dc:date>2025-04-25T09:47:01.940872</dc:date>
    <dc:format>image/svg+xml</dc:format>
    <dc:creator>
     <cc:Agent>
      <dc:title>Matplotlib v3.9.2, https://matplotlib.org/</dc:title>
     </cc:Agent>
    </dc:creator>
   </cc:Work>
  </rdf:RDF>
 </metadata>
 <defs>
  <style type="text/css">*{stroke-linejoin: round; stroke-linecap: butt}</style>
 </defs>
 <g id="figure_1">
  <g id="patch_1">
   <path d="M 0 288 
L 936 288 
L 936 0 
L 0 0 
L 0 288 
z
" style="fill: none"/>
  </g>
  <g id="axes_1">
   <g id="patch_2">
    <path d="M 117 256.32 
L 330.352941 256.32 
L 330.352941 34.56 
L 117 34.56 
L 117 256.32 
z
" style="fill: none"/>
   </g>
   <g id="matplotlib.axis_1">
    <g id="xtick_1">
     <g id="line2d_1">
      <defs>
       <path id="mef676659ec" d="M 0 0 
L 0 6 
" style="stroke: #000000; stroke-width: 0.5"/>
      </defs>
      <g>
       <use xlink:href="#mef676659ec" x="160.178571" y="256.32" style="stroke: #000000; stroke-width: 0.5"/>
      </g>
     </g>
     <g id="text_1">
      <!-- 0 -->
      <g transform="translate(157.278571 273.185625) scale(0.1 -0.1)">
       <defs>
        <path id="Lato-Regular-30" d="M 3520 2291 
Q 3520 1690 3390 1250 
Q 3261 810 3037 522 
Q 2813 234 2507 93 
Q 2202 -48 1853 -48 
Q 1501 -48 1198 93 
Q 896 234 672 522 
Q 448 810 320 1250 
Q 192 1690 192 2291 
Q 192 2893 320 3334 
Q 448 3776 672 4065 
Q 896 4355 1198 4496 
Q 1501 4637 1853 4637 
Q 2202 4637 2507 4496 
Q 2813 4355 3037 4065 
Q 3261 3776 3390 3334 
Q 3520 2893 3520 2291 
z
M 2928 2291 
Q 2928 2816 2840 3173 
Q 2752 3530 2603 3747 
Q 2454 3965 2259 4059 
Q 2064 4154 1853 4154 
Q 1642 4154 1446 4059 
Q 1251 3965 1104 3747 
Q 957 3530 869 3173 
Q 781 2816 781 2291 
Q 781 1766 869 1411 
Q 957 1056 1104 838 
Q 1251 621 1446 526 
Q 1642 432 1853 432 
Q 2064 432 2259 526 
Q 2454 621 2603 838 
Q 2752 1056 2840 1411 
Q 2928 1766 2928 2291 
z
" transform="scale(0.015625)"/>
       </defs>
       <use xlink:href="#Lato-Regular-30"/>
      </g>
     </g>
    </g>
    <g id="xtick_2">
     <g id="line2d_2">
      <g>
       <use xlink:href="#mef676659ec" x="210.976891" y="256.32" style="stroke: #000000; stroke-width: 0.5"/>
      </g>
     </g>
     <g id="text_2">
      <!-- 2 -->
      <g transform="translate(208.076891 273.185625) scale(0.1 -0.1)">
       <defs>
        <path id="Lato-Regular-32" d="M 1891 4637 
Q 2182 4637 2435 4550 
Q 2688 4464 2873 4299 
Q 3059 4134 3164 3897 
Q 3270 3661 3270 3360 
Q 3270 3104 3193 2885 
Q 3117 2666 2985 2467 
Q 2854 2269 2683 2080 
Q 2512 1891 2320 1699 
L 1110 464 
Q 1238 499 1369 520 
Q 1501 541 1622 541 
L 3158 541 
Q 3251 541 3305 486 
Q 3360 432 3360 346 
L 3360 0 
L 301 0 
L 301 195 
Q 301 256 326 320 
Q 352 384 406 438 
L 1875 1914 
Q 2058 2099 2208 2270 
Q 2358 2442 2464 2614 
Q 2570 2787 2627 2964 
Q 2685 3142 2685 3344 
Q 2685 3546 2621 3698 
Q 2557 3850 2446 3949 
Q 2336 4048 2185 4097 
Q 2035 4147 1862 4147 
Q 1686 4147 1539 4096 
Q 1392 4045 1278 3953 
Q 1165 3862 1088 3737 
Q 1011 3613 979 3462 
Q 941 3350 875 3313 
Q 810 3277 691 3293 
L 394 3344 
Q 438 3658 568 3899 
Q 698 4141 894 4304 
Q 1091 4467 1344 4552 
Q 1597 4637 1891 4637 
z
" transform="scale(0.015625)"/>
       </defs>
       <use xlink:href="#Lato-Regular-32"/>
      </g>
     </g>
    </g>
    <g id="xtick_3">
     <g id="line2d_3">
      <g>
       <use xlink:href="#mef676659ec" x="261.77521" y="256.32" style="stroke: #000000; stroke-width: 0.5"/>
      </g>
     </g>
     <g id="text_3">
      <!-- 4 -->
      <g transform="translate(258.87521 273.185625) scale(0.1 -0.1)">
       <defs>
        <path id="Lato-Regular-34" d="M 2835 1654 
L 3530 1654 
L 3530 1328 
Q 3530 1277 3499 1241 
Q 3469 1206 3405 1206 
L 2835 1206 
L 2835 0 
L 2336 0 
L 2336 1206 
L 301 1206 
Q 237 1206 190 1243 
Q 144 1280 131 1334 
L 74 1626 
L 2304 4586 
L 2835 4586 
L 2835 1654 
z
M 2336 3546 
Q 2336 3629 2341 3726 
Q 2346 3824 2362 3926 
L 691 1654 
L 2336 1654 
L 2336 3546 
z
" transform="scale(0.015625)"/>
       </defs>
       <use xlink:href="#Lato-Regular-34"/>
      </g>
     </g>
    </g>
    <g id="xtick_4">
     <g id="line2d_4">
      <g>
       <use xlink:href="#mef676659ec" x="312.573529" y="256.32" style="stroke: #000000; stroke-width: 0.5"/>
      </g>
     </g>
     <g id="text_4">
      <!-- 6 -->
      <g transform="translate(309.673529 273.185625) scale(0.1 -0.1)">
       <defs>
        <path id="Lato-Regular-36" d="M 1517 2867 
Q 1453 2790 1398 2716 
Q 1344 2643 1290 2573 
Q 1453 2685 1649 2747 
Q 1846 2810 2077 2810 
Q 2355 2810 2601 2718 
Q 2848 2627 3032 2452 
Q 3216 2278 3325 2024 
Q 3434 1770 3434 1443 
Q 3434 1126 3318 854 
Q 3203 582 2996 380 
Q 2790 179 2500 64 
Q 2211 -51 1862 -51 
Q 1517 -51 1235 59 
Q 954 170 757 373 
Q 560 576 453 865 
Q 346 1155 346 1514 
Q 346 1814 478 2155 
Q 611 2496 902 2883 
L 2067 4448 
Q 2112 4506 2190 4546 
Q 2269 4586 2371 4586 
L 2877 4586 
L 1517 2867 
z
M 893 1414 
Q 893 1194 957 1011 
Q 1021 829 1144 697 
Q 1267 566 1444 494 
Q 1622 422 1850 422 
Q 2080 422 2267 496 
Q 2454 570 2587 701 
Q 2720 832 2792 1011 
Q 2864 1190 2864 1402 
Q 2864 1626 2793 1806 
Q 2723 1987 2593 2113 
Q 2464 2240 2285 2307 
Q 2106 2374 1891 2374 
Q 1661 2374 1475 2296 
Q 1290 2218 1160 2085 
Q 1030 1952 961 1777 
Q 893 1603 893 1414 
z
" transform="scale(0.015625)"/>
       </defs>
       <use xlink:href="#Lato-Regular-36"/>
      </g>
     </g>
    </g>
    <g id="xtick_5">
     <g id="line2d_5">
      <defs>
       <path id="m884e7d3d2a" d="M 0 0 
L 0 3 
" style="stroke: #000000; stroke-width: 0.5"/>
      </defs>
      <g>
       <use xlink:href="#m884e7d3d2a" x="122.079832" y="256.32" style="stroke: #000000; stroke-width: 0.5"/>
      </g>
     </g>
    </g>
    <g id="xtick_6">
     <g id="line2d_6">
      <g>
       <use xlink:href="#m884e7d3d2a" x="134.779412" y="256.32" style="stroke: #000000; stroke-width: 0.5"/>
      </g>
     </g>
    </g>
    <g id="xtick_7">
     <g id="line2d_7">
      <g>
       <use xlink:href="#m884e7d3d2a" x="147.478992" y="256.32" style="stroke: #000000; stroke-width: 0.5"/>
      </g>
     </g>
    </g>
    <g id="xtick_8">
     <g id="line2d_8">
      <g>
       <use xlink:href="#m884e7d3d2a" x="172.878151" y="256.32" style="stroke: #000000; stroke-width: 0.5"/>
      </g>
     </g>
    </g>
    <g id="xtick_9">
     <g id="line2d_9">
      <g>
       <use xlink:href="#m884e7d3d2a" x="185.577731" y="256.32" style="stroke: #000000; stroke-width: 0.5"/>
      </g>
     </g>
    </g>
    <g id="xtick_10">
     <g id="line2d_10">
      <g>
       <use xlink:href="#m884e7d3d2a" x="198.277311" y="256.32" style="stroke: #000000; stroke-width: 0.5"/>
      </g>
     </g>
    </g>
    <g id="xtick_11">
     <g id="line2d_11">
      <g>
       <use xlink:href="#m884e7d3d2a" x="223.676471" y="256.32" style="stroke: #000000; stroke-width: 0.5"/>
      </g>
     </g>
    </g>
    <g id="xtick_12">
     <g id="line2d_12">
      <g>
       <use xlink:href="#m884e7d3d2a" x="236.37605" y="256.32" style="stroke: #000000; stroke-width: 0.5"/>
      </g>
     </g>
    </g>
    <g id="xtick_13">
     <g id="line2d_13">
      <g>
       <use xlink:href="#m884e7d3d2a" x="249.07563" y="256.32" style="stroke: #000000; stroke-width: 0.5"/>
      </g>
     </g>
    </g>
    <g id="xtick_14">
     <g id="line2d_14">
      <g>
       <use xlink:href="#m884e7d3d2a" x="274.47479" y="256.32" style="stroke: #000000; stroke-width: 0.5"/>
      </g>
     </g>
    </g>
    <g id="xtick_15">
     <g id="line2d_15">
      <g>
       <use xlink:href="#m884e7d3d2a" x="287.17437" y="256.32" style="stroke: #000000; stroke-width: 0.5"/>
      </g>
     </g>
    </g>
    <g id="xtick_16">
     <g id="line2d_16">
      <g>
       <use xlink:href="#m884e7d3d2a" x="299.87395" y="256.32" style="stroke: #000000; stroke-width: 0.5"/>
      </g>
     </g>
    </g>
    <g id="xtick_17">
     <g id="line2d_17">
      <g>
       <use xlink:href="#m884e7d3d2a" x="325.273109" y="256.32" style="stroke: #000000; stroke-width: 0.5"/>
      </g>
     </g>
    </g>
   </g>
   <g id="matplotlib.axis_2">
    <g id="ytick_1">
     <g id="line2d_18">
      <path d="M 117 237.84 
L 330.352941 237.84 
" clip-path="url(#p34fe094b3c)" style="fill: none; stroke: #cccccc; stroke-width: 0.5; stroke-linecap: square"/>
     </g>
     <g id="text_5">
      <!-- 0.0 -->
      <g transform="translate(99.540625 241.522812) scale(0.1 -0.1)">
       <defs>
        <path id="Lato-Regular-2e" d="M 355 352 
Q 355 435 385 508 
Q 416 582 469 636 
Q 522 691 595 723 
Q 669 755 752 755 
Q 835 755 908 723 
Q 982 691 1036 636 
Q 1091 582 1123 508 
Q 1155 435 1155 352 
Q 1155 266 1123 194 
Q 1091 122 1036 67 
Q 982 13 908 -17 
Q 835 -48 752 -48 
Q 669 -48 595 -17 
Q 522 13 469 67 
Q 416 122 385 194 
Q 355 266 355 352 
z
" transform="scale(0.015625)"/>
       </defs>
       <use xlink:href="#Lato-Regular-30"/>
       <use xlink:href="#Lato-Regular-2e" x="58"/>
       <use xlink:href="#Lato-Regular-30" x="81.600006"/>
      </g>
     </g>
    </g>
    <g id="ytick_2">
     <g id="line2d_19">
      <path d="M 117 191.64 
L 330.352941 191.64 
" clip-path="url(#p34fe094b3c)" style="fill: none; stroke: #cccccc; stroke-width: 0.5; stroke-linecap: square"/>
     </g>
     <g id="text_6">
      <!-- 0.1 -->
      <g transform="translate(99.540625 195.322812) scale(0.1 -0.1)">
       <defs>
        <path id="Lato-Regular-31" d="M 800 435 
L 1782 435 
L 1782 3562 
Q 1782 3696 1792 3846 
L 976 3146 
Q 934 3110 892 3102 
Q 851 3094 816 3100 
Q 781 3107 750 3126 
Q 720 3146 704 3168 
L 525 3414 
L 1891 4595 
L 2355 4595 
L 2355 435 
L 3258 435 
L 3258 0 
L 800 0 
L 800 435 
z
" transform="scale(0.015625)"/>
       </defs>
       <use xlink:href="#Lato-Regular-30"/>
       <use xlink:href="#Lato-Regular-2e" x="58"/>
       <use xlink:href="#Lato-Regular-31" x="81.600006"/>
      </g>
     </g>
    </g>
    <g id="ytick_3">
     <g id="line2d_20">
      <path d="M 117 145.44 
L 330.352941 145.44 
" clip-path="url(#p34fe094b3c)" style="fill: none; stroke: #cccccc; stroke-width: 0.5; stroke-linecap: square"/>
     </g>
     <g id="text_7">
      <!-- 0.2 -->
      <g transform="translate(99.540625 149.122813) scale(0.1 -0.1)">
       <use xlink:href="#Lato-Regular-30"/>
       <use xlink:href="#Lato-Regular-2e" x="58"/>
       <use xlink:href="#Lato-Regular-32" x="81.600006"/>
      </g>
     </g>
    </g>
    <g id="ytick_4">
     <g id="line2d_21">
      <path d="M 117 99.24 
L 330.352941 99.24 
" clip-path="url(#p34fe094b3c)" style="fill: none; stroke: #cccccc; stroke-width: 0.5; stroke-linecap: square"/>
     </g>
     <g id="text_8">
      <!-- 0.3 -->
      <g transform="translate(99.540625 102.922813) scale(0.1 -0.1)">
       <defs>
        <path id="Lato-Regular-33" d="M 1914 4637 
Q 2205 4637 2451 4553 
Q 2698 4470 2875 4316 
Q 3053 4163 3152 3945 
Q 3251 3728 3251 3462 
Q 3251 3245 3195 3073 
Q 3139 2902 3035 2772 
Q 2931 2643 2784 2553 
Q 2637 2464 2454 2410 
Q 2902 2291 3128 2012 
Q 3354 1734 3354 1315 
Q 3354 998 3234 745 
Q 3114 493 2906 315 
Q 2698 138 2421 43 
Q 2144 -51 1827 -51 
Q 1462 -51 1203 40 
Q 944 131 765 291 
Q 586 451 470 670 
Q 355 890 275 1146 
L 522 1248 
Q 618 1290 709 1270 
Q 800 1251 842 1165 
Q 883 1075 945 950 
Q 1008 826 1117 710 
Q 1226 595 1394 515 
Q 1562 435 1821 435 
Q 2061 435 2241 513 
Q 2422 592 2542 717 
Q 2662 842 2723 995 
Q 2784 1149 2784 1299 
Q 2784 1485 2736 1638 
Q 2688 1792 2557 1904 
Q 2426 2016 2197 2080 
Q 1968 2144 1610 2144 
L 1610 2557 
Q 1904 2560 2110 2621 
Q 2317 2682 2446 2787 
Q 2576 2893 2635 3040 
Q 2694 3187 2694 3366 
Q 2694 3565 2632 3712 
Q 2570 3859 2461 3955 
Q 2352 4051 2203 4099 
Q 2054 4147 1882 4147 
Q 1709 4147 1560 4096 
Q 1411 4045 1297 3953 
Q 1184 3862 1107 3737 
Q 1030 3613 998 3462 
Q 957 3350 894 3313 
Q 832 3277 714 3293 
L 416 3344 
Q 461 3658 589 3899 
Q 717 4141 913 4304 
Q 1110 4467 1364 4552 
Q 1619 4637 1914 4637 
z
" transform="scale(0.015625)"/>
       </defs>
       <use xlink:href="#Lato-Regular-30"/>
       <use xlink:href="#Lato-Regular-2e" x="58"/>
       <use xlink:href="#Lato-Regular-33" x="81.600006"/>
      </g>
     </g>
    </g>
    <g id="ytick_5">
     <g id="line2d_22">
      <path d="M 117 53.04 
L 330.352941 53.04 
" clip-path="url(#p34fe094b3c)" style="fill: none; stroke: #cccccc; stroke-width: 0.5; stroke-linecap: square"/>
     </g>
     <g id="text_9">
      <!-- 0.4 -->
      <g transform="translate(99.540625 56.722813) scale(0.1 -0.1)">
       <use xlink:href="#Lato-Regular-30"/>
       <use xlink:href="#Lato-Regular-2e" x="58"/>
       <use xlink:href="#Lato-Regular-34" x="81.600006"/>
      </g>
     </g>
    </g>
   </g>
   <g id="line2d_23">
    <path d="M 134.779412 237.436821 
L 136.575312 237.324902 
L 138.371212 237.185198 
L 140.167112 237.011756 
L 141.963012 236.797596 
L 143.758913 236.534604 
L 145.554813 236.213413 
L 147.350713 235.823301 
L 149.146613 235.352096 
L 150.942513 234.786099 
L 152.738414 234.110033 
L 154.534314 233.307021 
L 156.330214 232.358603 
L 158.126114 231.244806 
L 159.922014 229.944264 
L 161.717914 228.434403 
L 163.513815 226.691693 
L 165.309715 224.691985 
L 167.105615 222.410914 
L 168.901515 219.824389 
L 170.697415 216.909167 
L 172.493316 213.643487 
L 174.289216 210.007782 
L 176.085116 205.985442 
L 177.881016 201.563606 
L 179.676916 196.733985 
L 181.472816 191.493665 
L 183.268717 185.845888 
L 185.064617 179.800764 
L 186.860517 173.375895 
L 188.656417 166.596873 
L 190.452317 159.497624 
L 192.248217 152.120574 
L 194.044118 144.516607 
L 195.840018 136.744801 
L 197.635918 128.871921 
L 199.431818 120.971678 
L 201.227718 113.123743 
L 203.023619 105.412531 
L 204.819519 97.925786 
L 206.615419 90.752981 
L 208.411319 83.983587 
L 210.207219 77.705241 
L 212.003119 72.00188 
L 213.79902 66.95188 
L 215.59492 62.626273 
L 217.39082 59.087086 
L 219.18672 56.38586 
L 220.98262 54.562402 
L 222.77852 53.643813 
L 224.574421 53.643813 
L 226.370321 54.562402 
L 228.166221 56.38586 
L 229.962121 59.087086 
L 231.758021 62.626273 
L 233.553922 66.95188 
L 235.349822 72.00188 
L 237.145722 77.705241 
L 238.941622 83.983587 
L 240.737522 90.752981 
L 242.533422 97.925786 
L 244.329323 105.412531 
L 246.125223 113.123743 
L 247.921123 120.971678 
L 249.717023 128.871921 
L 251.512923 136.744801 
L 253.308824 144.516607 
L 255.104724 152.120574 
L 256.900624 159.497624 
L 258.696524 166.596873 
L 260.492424 173.375895 
L 262.288324 179.800764 
L 264.084225 185.845888 
L 265.880125 191.493665 
L 267.676025 196.733985 
L 269.471925 201.563606 
L 271.267825 205.985442 
L 273.063725 210.007782 
L 274.859626 213.643487 
L 276.655526 216.909167 
L 278.451426 219.824389 
L 280.247326 222.410914 
L 282.043226 224.691985 
L 283.839127 226.691693 
L 285.635027 228.434403 
L 287.430927 229.944264 
L 289.226827 231.244806 
L 291.022727 232.358603 
L 292.818627 233.307021 
L 294.614528 234.110033 
L 296.410428 234.786099 
L 298.206328 235.352096 
L 300.002228 235.823301 
L 301.798128 236.213413 
L 303.594029 236.534604 
L 305.389929 236.797596 
L 307.185829 237.011756 
L 308.981729 237.185198 
L 310.777629 237.324902 
L 312.573529 237.436821 
" clip-path="url(#p34fe094b3c)" style="fill: none; stroke: #1f77b4; stroke-width: 3; stroke-linecap: square"/>
   </g>
   <g id="LineCollection_1">
    <path d="M 223.676471 237.84 
L 223.676471 53.04 
" clip-path="url(#p34fe094b3c)" style="fill: none; stroke: #ff7f0e; stroke-width: 3"/>
   </g>
   <g id="patch_3">
    <path d="M 117 256.32 
L 330.352941 256.32 
" style="fill: none; stroke: #000000; stroke-width: 0.5; stroke-linejoin: miter; stroke-linecap: square"/>
   </g>
  </g>
  <g id="axes_2">
   <g id="patch_4">
    <path d="M 373.023529 256.32 
L 586.376471 256.32 
L 586.376471 34.56 
L 373.023529 34.56 
L 373.023529 256.32 
z
" style="fill: none"/>
   </g>
   <g id="matplotlib.axis_3">
    <g id="xtick_18">
     <g id="line2d_24">
      <g>
       <use xlink:href="#mef676659ec" x="390.802941" y="256.32" style="stroke: #000000; stroke-width: 0.5"/>
      </g>
     </g>
     <g id="text_10">
      <!-- 0.0 -->
      <g transform="translate(383.823254 273.185625) scale(0.1 -0.1)">
       <use xlink:href="#Lato-Regular-30"/>
       <use xlink:href="#Lato-Regular-2e" x="58"/>
       <use xlink:href="#Lato-Regular-30" x="81.600006"/>
      </g>
     </g>
    </g>
    <g id="xtick_19">
     <g id="line2d_25">
      <g>
       <use xlink:href="#mef676659ec" x="435.251471" y="256.32" style="stroke: #000000; stroke-width: 0.5"/>
      </g>
     </g>
     <g id="text_11">
      <!-- 0.5 -->
      <g transform="translate(428.271783 273.185625) scale(0.1 -0.1)">
       <defs>
        <path id="Lato-Regular-35" d="M 3142 4336 
Q 3142 4214 3067 4136 
Q 2992 4058 2810 4058 
L 1370 4058 
L 1158 2854 
Q 1341 2896 1502 2913 
Q 1664 2931 1818 2931 
Q 2176 2931 2451 2825 
Q 2726 2720 2910 2534 
Q 3094 2349 3188 2096 
Q 3283 1843 3283 1546 
Q 3283 1181 3156 886 
Q 3030 592 2808 382 
Q 2586 173 2285 61 
Q 1984 -51 1635 -51 
Q 1434 -51 1248 -11 
Q 1062 29 900 96 
Q 739 163 601 249 
Q 464 336 358 432 
L 534 675 
Q 592 758 685 758 
Q 749 758 829 708 
Q 909 659 1024 598 
Q 1139 538 1294 488 
Q 1450 438 1664 438 
Q 1904 438 2096 515 
Q 2288 592 2425 734 
Q 2563 877 2636 1075 
Q 2710 1274 2710 1520 
Q 2710 1734 2648 1907 
Q 2586 2080 2459 2201 
Q 2333 2323 2144 2390 
Q 1955 2458 1702 2458 
Q 1530 2458 1342 2429 
Q 1155 2400 960 2336 
L 602 2442 
L 970 4586 
L 3142 4586 
L 3142 4336 
z
" transform="scale(0.015625)"/>
       </defs>
       <use xlink:href="#Lato-Regular-30"/>
       <use xlink:href="#Lato-Regular-2e" x="58"/>
       <use xlink:href="#Lato-Regular-35" x="81.600006"/>
      </g>
     </g>
    </g>
    <g id="xtick_20">
     <g id="line2d_26">
      <g>
       <use xlink:href="#mef676659ec" x="479.7" y="256.32" style="stroke: #000000; stroke-width: 0.5"/>
      </g>
     </g>
     <g id="text_12">
      <!-- 1.0 -->
      <g transform="translate(472.720312 273.185625) scale(0.1 -0.1)">
       <use xlink:href="#Lato-Regular-31"/>
       <use xlink:href="#Lato-Regular-2e" x="58"/>
       <use xlink:href="#Lato-Regular-30" x="81.600006"/>
      </g>
     </g>
    </g>
    <g id="xtick_21">
     <g id="line2d_27">
      <g>
       <use xlink:href="#mef676659ec" x="524.148529" y="256.32" style="stroke: #000000; stroke-width: 0.5"/>
      </g>
     </g>
     <g id="text_13">
      <!-- 1.5 -->
      <g transform="translate(517.168842 273.185625) scale(0.1 -0.1)">
       <use xlink:href="#Lato-Regular-31"/>
       <use xlink:href="#Lato-Regular-2e" x="58"/>
       <use xlink:href="#Lato-Regular-35" x="81.600006"/>
      </g>
     </g>
    </g>
    <g id="xtick_22">
     <g id="line2d_28">
      <g>
       <use xlink:href="#mef676659ec" x="568.597059" y="256.32" style="stroke: #000000; stroke-width: 0.5"/>
      </g>
     </g>
     <g id="text_14">
      <!-- 2.0 -->
      <g transform="translate(561.617371 273.185625) scale(0.1 -0.1)">
       <use xlink:href="#Lato-Regular-32"/>
       <use xlink:href="#Lato-Regular-2e" x="58"/>
       <use xlink:href="#Lato-Regular-30" x="81.600006"/>
      </g>
     </g>
    </g>
    <g id="xtick_23">
     <g id="line2d_29">
      <g>
       <use xlink:href="#m884e7d3d2a" x="373.023529" y="256.32" style="stroke: #000000; stroke-width: 0.5"/>
      </g>
     </g>
    </g>
    <g id="xtick_24">
     <g id="line2d_30">
      <g>
       <use xlink:href="#m884e7d3d2a" x="381.913235" y="256.32" style="stroke: #000000; stroke-width: 0.5"/>
      </g>
     </g>
    </g>
    <g id="xtick_25">
     <g id="line2d_31">
      <g>
       <use xlink:href="#m884e7d3d2a" x="399.692647" y="256.32" style="stroke: #000000; stroke-width: 0.5"/>
      </g>
     </g>
    </g>
    <g id="xtick_26">
     <g id="line2d_32">
      <g>
       <use xlink:href="#m884e7d3d2a" x="408.582353" y="256.32" style="stroke: #000000; stroke-width: 0.5"/>
      </g>
     </g>
    </g>
    <g id="xtick_27">
     <g id="line2d_33">
      <g>
       <use xlink:href="#m884e7d3d2a" x="417.472059" y="256.32" style="stroke: #000000; stroke-width: 0.5"/>
      </g>
     </g>
    </g>
    <g id="xtick_28">
     <g id="line2d_34">
      <g>
       <use xlink:href="#m884e7d3d2a" x="426.361765" y="256.32" style="stroke: #000000; stroke-width: 0.5"/>
      </g>
     </g>
    </g>
    <g id="xtick_29">
     <g id="line2d_35">
      <g>
       <use xlink:href="#m884e7d3d2a" x="444.141176" y="256.32" style="stroke: #000000; stroke-width: 0.5"/>
      </g>
     </g>
    </g>
    <g id="xtick_30">
     <g id="line2d_36">
      <g>
       <use xlink:href="#m884e7d3d2a" x="453.030882" y="256.32" style="stroke: #000000; stroke-width: 0.5"/>
      </g>
     </g>
    </g>
    <g id="xtick_31">
     <g id="line2d_37">
      <g>
       <use xlink:href="#m884e7d3d2a" x="461.920588" y="256.32" style="stroke: #000000; stroke-width: 0.5"/>
      </g>
     </g>
    </g>
    <g id="xtick_32">
     <g id="line2d_38">
      <g>
       <use xlink:href="#m884e7d3d2a" x="470.810294" y="256.32" style="stroke: #000000; stroke-width: 0.5"/>
      </g>
     </g>
    </g>
    <g id="xtick_33">
     <g id="line2d_39">
      <g>
       <use xlink:href="#m884e7d3d2a" x="488.589706" y="256.32" style="stroke: #000000; stroke-width: 0.5"/>
      </g>
     </g>
    </g>
    <g id="xtick_34">
     <g id="line2d_40">
      <g>
       <use xlink:href="#m884e7d3d2a" x="497.479412" y="256.32" style="stroke: #000000; stroke-width: 0.5"/>
      </g>
     </g>
    </g>
    <g id="xtick_35">
     <g id="line2d_41">
      <g>
       <use xlink:href="#m884e7d3d2a" x="506.369118" y="256.32" style="stroke: #000000; stroke-width: 0.5"/>
      </g>
     </g>
    </g>
    <g id="xtick_36">
     <g id="line2d_42">
      <g>
       <use xlink:href="#m884e7d3d2a" x="515.258824" y="256.32" style="stroke: #000000; stroke-width: 0.5"/>
      </g>
     </g>
    </g>
    <g id="xtick_37">
     <g id="line2d_43">
      <g>
       <use xlink:href="#m884e7d3d2a" x="533.038235" y="256.32" style="stroke: #000000; stroke-width: 0.5"/>
      </g>
     </g>
    </g>
    <g id="xtick_38">
     <g id="line2d_44">
      <g>
       <use xlink:href="#m884e7d3d2a" x="541.927941" y="256.32" style="stroke: #000000; stroke-width: 0.5"/>
      </g>
     </g>
    </g>
    <g id="xtick_39">
     <g id="line2d_45">
      <g>
       <use xlink:href="#m884e7d3d2a" x="550.817647" y="256.32" style="stroke: #000000; stroke-width: 0.5"/>
      </g>
     </g>
    </g>
    <g id="xtick_40">
     <g id="line2d_46">
      <g>
       <use xlink:href="#m884e7d3d2a" x="559.707353" y="256.32" style="stroke: #000000; stroke-width: 0.5"/>
      </g>
     </g>
    </g>
    <g id="xtick_41">
     <g id="line2d_47">
      <g>
       <use xlink:href="#m884e7d3d2a" x="577.486765" y="256.32" style="stroke: #000000; stroke-width: 0.5"/>
      </g>
     </g>
    </g>
    <g id="xtick_42">
     <g id="line2d_48">
      <g>
       <use xlink:href="#m884e7d3d2a" x="586.376471" y="256.32" style="stroke: #000000; stroke-width: 0.5"/>
      </g>
     </g>
    </g>
   </g>
   <g id="matplotlib.axis_4">
    <g id="ytick_6">
     <g id="line2d_49">
      <path d="M 373.023529 237.84 
L 586.376471 237.84 
" clip-path="url(#pc68b3732b8)" style="fill: none; stroke: #cccccc; stroke-width: 0.5; stroke-linecap: square"/>
     </g>
     <g id="text_15">
      <!-- 0.00 -->
      <g transform="translate(349.764154 241.522812) scale(0.1 -0.1)">
       <use xlink:href="#Lato-Regular-30"/>
       <use xlink:href="#Lato-Regular-2e" x="58"/>
       <use xlink:href="#Lato-Regular-30" x="81.600006"/>
       <use xlink:href="#Lato-Regular-30" x="139.600006"/>
      </g>
     </g>
    </g>
    <g id="ytick_7">
     <g id="line2d_50">
      <path d="M 373.023529 212.173333 
L 586.376471 212.173333 
" clip-path="url(#pc68b3732b8)" style="fill: none; stroke: #cccccc; stroke-width: 0.5; stroke-linecap: square"/>
     </g>
     <g id="text_16">
      <!-- 0.25 -->
      <g transform="translate(349.764154 215.856146) scale(0.1 -0.1)">
       <use xlink:href="#Lato-Regular-30"/>
       <use xlink:href="#Lato-Regular-2e" x="58"/>
       <use xlink:href="#Lato-Regular-32" x="81.600006"/>
       <use xlink:href="#Lato-Regular-35" x="139.600006"/>
      </g>
     </g>
    </g>
    <g id="ytick_8">
     <g id="line2d_51">
      <path d="M 373.023529 186.506667 
L 586.376471 186.506667 
" clip-path="url(#pc68b3732b8)" style="fill: none; stroke: #cccccc; stroke-width: 0.5; stroke-linecap: square"/>
     </g>
     <g id="text_17">
      <!-- 0.50 -->
      <g transform="translate(349.764154 190.189479) scale(0.1 -0.1)">
       <use xlink:href="#Lato-Regular-30"/>
       <use xlink:href="#Lato-Regular-2e" x="58"/>
       <use xlink:href="#Lato-Regular-35" x="81.600006"/>
       <use xlink:href="#Lato-Regular-30" x="139.600006"/>
      </g>
     </g>
    </g>
    <g id="ytick_9">
     <g id="line2d_52">
      <path d="M 373.023529 160.84 
L 586.376471 160.84 
" clip-path="url(#pc68b3732b8)" style="fill: none; stroke: #cccccc; stroke-width: 0.5; stroke-linecap: square"/>
     </g>
     <g id="text_18">
      <!-- 0.75 -->
      <g transform="translate(349.764154 164.522812) scale(0.1 -0.1)">
       <defs>
        <path id="Lato-Regular-37" d="M 3459 4586 
L 3459 4330 
Q 3459 4221 3435 4150 
Q 3411 4080 3389 4032 
L 1488 202 
Q 1446 118 1372 59 
Q 1299 0 1178 0 
L 768 0 
L 2694 3782 
Q 2736 3862 2779 3929 
Q 2822 3997 2877 4058 
L 483 4058 
Q 429 4058 387 4101 
Q 346 4144 346 4198 
L 346 4586 
L 3459 4586 
z
" transform="scale(0.015625)"/>
       </defs>
       <use xlink:href="#Lato-Regular-30"/>
       <use xlink:href="#Lato-Regular-2e" x="58"/>
       <use xlink:href="#Lato-Regular-37" x="81.600006"/>
       <use xlink:href="#Lato-Regular-35" x="139.600006"/>
      </g>
     </g>
    </g>
    <g id="ytick_10">
     <g id="line2d_53">
      <path d="M 373.023529 135.173333 
L 586.376471 135.173333 
" clip-path="url(#pc68b3732b8)" style="fill: none; stroke: #cccccc; stroke-width: 0.5; stroke-linecap: square"/>
     </g>
     <g id="text_19">
      <!-- 1.00 -->
      <g transform="translate(349.764154 138.856146) scale(0.1 -0.1)">
       <use xlink:href="#Lato-Regular-31"/>
       <use xlink:href="#Lato-Regular-2e" x="58"/>
       <use xlink:href="#Lato-Regular-30" x="81.600006"/>
       <use xlink:href="#Lato-Regular-30" x="139.600006"/>
      </g>
     </g>
    </g>
    <g id="ytick_11">
     <g id="line2d_54">
      <path d="M 373.023529 109.506667 
L 586.376471 109.506667 
" clip-path="url(#pc68b3732b8)" style="fill: none; stroke: #cccccc; stroke-width: 0.5; stroke-linecap: square"/>
     </g>
     <g id="text_20">
      <!-- 1.25 -->
      <g transform="translate(349.764154 113.189479) scale(0.1 -0.1)">
       <use xlink:href="#Lato-Regular-31"/>
       <use xlink:href="#Lato-Regular-2e" x="58"/>
       <use xlink:href="#Lato-Regular-32" x="81.600006"/>
       <use xlink:href="#Lato-Regular-35" x="139.600006"/>
      </g>
     </g>
    </g>
    <g id="ytick_12">
     <g id="line2d_55">
      <path d="M 373.023529 83.84 
L 586.376471 83.84 
" clip-path="url(#pc68b3732b8)" style="fill: none; stroke: #cccccc; stroke-width: 0.5; stroke-linecap: square"/>
     </g>
     <g id="text_21">
      <!-- 1.50 -->
      <g transform="translate(349.764154 87.522813) scale(0.1 -0.1)">
       <use xlink:href="#Lato-Regular-31"/>
       <use xlink:href="#Lato-Regular-2e" x="58"/>
       <use xlink:href="#Lato-Regular-35" x="81.600006"/>
       <use xlink:href="#Lato-Regular-30" x="139.600006"/>
      </g>
     </g>
    </g>
    <g id="ytick_13">
     <g id="line2d_56">
      <path d="M 373.023529 58.173333 
L 586.376471 58.173333 
" clip-path="url(#pc68b3732b8)" style="fill: none; stroke: #cccccc; stroke-width: 0.5; stroke-linecap: square"/>
     </g>
     <g id="text_22">
      <!-- 1.75 -->
      <g transform="translate(349.764154 61.856146) scale(0.1 -0.1)">
       <use xlink:href="#Lato-Regular-31"/>
       <use xlink:href="#Lato-Regular-2e" x="58"/>
       <use xlink:href="#Lato-Regular-37" x="81.600006"/>
       <use xlink:href="#Lato-Regular-35" x="139.600006"/>
      </g>
     </g>
    </g>
   </g>
   <g id="line2d_57">
    <path d="M 390.802941 235.802457 
L 392.598841 234.187705 
L 394.394742 231.550649 
L 396.190642 227.438048 
L 397.986542 221.319411 
L 399.782442 212.646013 
L 401.578342 200.950416 
L 403.374242 185.9802 
L 405.170143 167.844597 
L 406.966043 147.138185 
L 408.761943 124.998044 
L 410.557843 103.05606 
L 412.353743 83.268688 
L 414.149643 67.639351 
L 415.945544 57.884043 
L 417.741444 55.11572 
L 419.537344 59.626748 
L 421.333244 70.827084 
L 423.129144 87.354852 
L 424.925045 107.329218 
L 426.720945 128.679151 
L 428.516845 149.467457 
L 430.312745 168.140412 
L 432.108645 183.662774 
L 433.904545 195.533806 
L 435.700446 203.709768 
L 437.496346 208.474322 
L 439.292246 210.298876 
L 441.088146 209.724275 
L 442.884046 207.279723 
L 444.679947 203.440459 
L 446.475847 198.616184 
L 448.271747 193.158221 
L 450.067647 187.373996 
L 451.863547 181.540457 
L 453.659447 175.911874 
L 455.455348 170.720755 
L 457.251248 166.172894 
L 459.047148 162.438825 
L 460.843048 159.644336 
L 462.638948 157.862493 
L 464.434848 157.109088 
L 466.230749 157.342626 
L 468.026649 158.469207 
L 469.822549 160.35185 
L 471.618449 162.823209 
L 473.414349 165.700204 
L 475.21025 168.798928 
L 477.00615 171.94827 
L 478.80205 175.000966 
L 480.59795 177.841262 
L 482.39385 180.388837 
L 484.18975 182.599115 
L 485.985651 184.460512 
L 487.781551 185.989398 
L 489.577451 187.22367 
L 491.373351 188.215827 
L 493.169251 189.02629 
L 494.965152 189.71753 
L 496.761052 190.349341 
L 498.556952 190.975406 
L 500.352852 191.641107 
L 502.148752 192.382448 
L 503.944652 193.225863 
L 505.740553 194.188677 
L 507.536453 195.27999 
L 509.332353 196.501801 
L 511.128253 197.85021 
L 512.924153 199.316609 
L 514.720053 200.88879 
L 516.515954 202.551934 
L 518.311854 204.289478 
L 520.107754 206.083853 
L 521.903654 207.917111 
L 523.699554 209.771443 
L 525.495455 211.62961 
L 527.291355 213.475292 
L 529.087255 215.293365 
L 530.883155 217.070112 
L 532.679055 218.793379 
L 534.474955 220.452677 
L 536.270856 222.039226 
L 538.066756 223.545969 
L 539.862656 224.967533 
L 541.658556 226.300168 
L 543.454456 227.541646 
L 545.250357 228.691145 
L 547.046257 229.74911 
L 548.842157 230.717106 
L 550.638057 231.597662 
L 552.433957 232.394112 
L 554.229857 233.11044 
L 556.025758 233.75113 
L 557.821658 234.321022 
L 559.617558 234.825187 
L 561.413458 235.268806 
L 563.209358 235.657069 
L 565.005258 235.995088 
L 566.801159 236.28782 
L 568.597059 236.540013 
" clip-path="url(#pc68b3732b8)" style="fill: none; stroke: #1f77b4; stroke-width: 3; stroke-linecap: square"/>
   </g>
   <g id="LineCollection_2">
    <path d="M 454.018613 237.84 
L 454.018613 53.04 
" clip-path="url(#pc68b3732b8)" style="fill: none; stroke: #ff7f0e; stroke-width: 3"/>
   </g>
   <g id="patch_5">
    <path d="M 373.023529 256.32 
L 586.376471 256.32 
" style="fill: none; stroke: #000000; stroke-width: 0.5; stroke-linejoin: miter; stroke-linecap: square"/>
   </g>
  </g>
  <g id="axes_3">
   <g id="patch_6">
    <path d="M 629.047059 256.32 
L 842.4 256.32 
L 842.4 34.56 
L 629.047059 34.56 
L 629.047059 256.32 
z
" style="fill: none"/>
   </g>
   <g id="matplotlib.axis_5">
    <g id="xtick_43">
     <g id="line2d_58">
      <g>
       <use xlink:href="#mef676659ec" x="646.826471" y="256.32" style="stroke: #000000; stroke-width: 0.5"/>
      </g>
     </g>
     <g id="text_23">
      <!-- 0 -->
      <g transform="translate(643.926471 273.185625) scale(0.1 -0.1)">
       <use xlink:href="#Lato-Regular-30"/>
      </g>
     </g>
    </g>
    <g id="xtick_44">
     <g id="line2d_59">
      <g>
       <use xlink:href="#mef676659ec" x="682.385294" y="256.32" style="stroke: #000000; stroke-width: 0.5"/>
      </g>
     </g>
     <g id="text_24">
      <!-- 1 -->
      <g transform="translate(679.485294 273.185625) scale(0.1 -0.1)">
       <use xlink:href="#Lato-Regular-31"/>
      </g>
     </g>
    </g>
    <g id="xtick_45">
     <g id="line2d_60">
      <g>
       <use xlink:href="#mef676659ec" x="717.944118" y="256.32" style="stroke: #000000; stroke-width: 0.5"/>
      </g>
     </g>
     <g id="text_25">
      <!-- 2 -->
      <g transform="translate(715.044118 273.185625) scale(0.1 -0.1)">
       <use xlink:href="#Lato-Regular-32"/>
      </g>
     </g>
    </g>
    <g id="xtick_46">
     <g id="line2d_61">
      <g>
       <use xlink:href="#mef676659ec" x="753.502941" y="256.32" style="stroke: #000000; stroke-width: 0.5"/>
      </g>
     </g>
     <g id="text_26">
      <!-- 3 -->
      <g transform="translate(750.602941 273.185625) scale(0.1 -0.1)">
       <use xlink:href="#Lato-Regular-33"/>
      </g>
     </g>
    </g>
    <g id="xtick_47">
     <g id="line2d_62">
      <g>
       <use xlink:href="#mef676659ec" x="789.061765" y="256.32" style="stroke: #000000; stroke-width: 0.5"/>
      </g>
     </g>
     <g id="text_27">
      <!-- 4 -->
      <g transform="translate(786.161765 273.185625) scale(0.1 -0.1)">
       <use xlink:href="#Lato-Regular-34"/>
      </g>
     </g>
    </g>
    <g id="xtick_48">
     <g id="line2d_63">
      <g>
       <use xlink:href="#mef676659ec" x="824.620588" y="256.32" style="stroke: #000000; stroke-width: 0.5"/>
      </g>
     </g>
     <g id="text_28">
      <!-- 5 -->
      <g transform="translate(821.720588 273.185625) scale(0.1 -0.1)">
       <use xlink:href="#Lato-Regular-35"/>
      </g>
     </g>
    </g>
    <g id="xtick_49">
     <g id="line2d_64">
      <g>
       <use xlink:href="#m884e7d3d2a" x="632.602941" y="256.32" style="stroke: #000000; stroke-width: 0.5"/>
      </g>
     </g>
    </g>
    <g id="xtick_50">
     <g id="line2d_65">
      <g>
       <use xlink:href="#m884e7d3d2a" x="639.714706" y="256.32" style="stroke: #000000; stroke-width: 0.5"/>
      </g>
     </g>
    </g>
    <g id="xtick_51">
     <g id="line2d_66">
      <g>
       <use xlink:href="#m884e7d3d2a" x="653.938235" y="256.32" style="stroke: #000000; stroke-width: 0.5"/>
      </g>
     </g>
    </g>
    <g id="xtick_52">
     <g id="line2d_67">
      <g>
       <use xlink:href="#m884e7d3d2a" x="661.05" y="256.32" style="stroke: #000000; stroke-width: 0.5"/>
      </g>
     </g>
    </g>
    <g id="xtick_53">
     <g id="line2d_68">
      <g>
       <use xlink:href="#m884e7d3d2a" x="668.161765" y="256.32" style="stroke: #000000; stroke-width: 0.5"/>
      </g>
     </g>
    </g>
    <g id="xtick_54">
     <g id="line2d_69">
      <g>
       <use xlink:href="#m884e7d3d2a" x="675.273529" y="256.32" style="stroke: #000000; stroke-width: 0.5"/>
      </g>
     </g>
    </g>
    <g id="xtick_55">
     <g id="line2d_70">
      <g>
       <use xlink:href="#m884e7d3d2a" x="689.497059" y="256.32" style="stroke: #000000; stroke-width: 0.5"/>
      </g>
     </g>
    </g>
    <g id="xtick_56">
     <g id="line2d_71">
      <g>
       <use xlink:href="#m884e7d3d2a" x="696.608824" y="256.32" style="stroke: #000000; stroke-width: 0.5"/>
      </g>
     </g>
    </g>
    <g id="xtick_57">
     <g id="line2d_72">
      <g>
       <use xlink:href="#m884e7d3d2a" x="703.720588" y="256.32" style="stroke: #000000; stroke-width: 0.5"/>
      </g>
     </g>
    </g>
    <g id="xtick_58">
     <g id="line2d_73">
      <g>
       <use xlink:href="#m884e7d3d2a" x="710.832353" y="256.32" style="stroke: #000000; stroke-width: 0.5"/>
      </g>
     </g>
    </g>
    <g id="xtick_59">
     <g id="line2d_74">
      <g>
       <use xlink:href="#m884e7d3d2a" x="725.055882" y="256.32" style="stroke: #000000; stroke-width: 0.5"/>
      </g>
     </g>
    </g>
    <g id="xtick_60">
     <g id="line2d_75">
      <g>
       <use xlink:href="#m884e7d3d2a" x="732.167647" y="256.32" style="stroke: #000000; stroke-width: 0.5"/>
      </g>
     </g>
    </g>
    <g id="xtick_61">
     <g id="line2d_76">
      <g>
       <use xlink:href="#m884e7d3d2a" x="739.279412" y="256.32" style="stroke: #000000; stroke-width: 0.5"/>
      </g>
     </g>
    </g>
    <g id="xtick_62">
     <g id="line2d_77">
      <g>
       <use xlink:href="#m884e7d3d2a" x="746.391176" y="256.32" style="stroke: #000000; stroke-width: 0.5"/>
      </g>
     </g>
    </g>
    <g id="xtick_63">
     <g id="line2d_78">
      <g>
       <use xlink:href="#m884e7d3d2a" x="760.614706" y="256.32" style="stroke: #000000; stroke-width: 0.5"/>
      </g>
     </g>
    </g>
    <g id="xtick_64">
     <g id="line2d_79">
      <g>
       <use xlink:href="#m884e7d3d2a" x="767.726471" y="256.32" style="stroke: #000000; stroke-width: 0.5"/>
      </g>
     </g>
    </g>
    <g id="xtick_65">
     <g id="line2d_80">
      <g>
       <use xlink:href="#m884e7d3d2a" x="774.838235" y="256.32" style="stroke: #000000; stroke-width: 0.5"/>
      </g>
     </g>
    </g>
    <g id="xtick_66">
     <g id="line2d_81">
      <g>
       <use xlink:href="#m884e7d3d2a" x="781.95" y="256.32" style="stroke: #000000; stroke-width: 0.5"/>
      </g>
     </g>
    </g>
    <g id="xtick_67">
     <g id="line2d_82">
      <g>
       <use xlink:href="#m884e7d3d2a" x="796.173529" y="256.32" style="stroke: #000000; stroke-width: 0.5"/>
      </g>
     </g>
    </g>
    <g id="xtick_68">
     <g id="line2d_83">
      <g>
       <use xlink:href="#m884e7d3d2a" x="803.285294" y="256.32" style="stroke: #000000; stroke-width: 0.5"/>
      </g>
     </g>
    </g>
    <g id="xtick_69">
     <g id="line2d_84">
      <g>
       <use xlink:href="#m884e7d3d2a" x="810.397059" y="256.32" style="stroke: #000000; stroke-width: 0.5"/>
      </g>
     </g>
    </g>
    <g id="xtick_70">
     <g id="line2d_85">
      <g>
       <use xlink:href="#m884e7d3d2a" x="817.508824" y="256.32" style="stroke: #000000; stroke-width: 0.5"/>
      </g>
     </g>
    </g>
    <g id="xtick_71">
     <g id="line2d_86">
      <g>
       <use xlink:href="#m884e7d3d2a" x="831.732353" y="256.32" style="stroke: #000000; stroke-width: 0.5"/>
      </g>
     </g>
    </g>
    <g id="xtick_72">
     <g id="line2d_87">
      <g>
       <use xlink:href="#m884e7d3d2a" x="838.844118" y="256.32" style="stroke: #000000; stroke-width: 0.5"/>
      </g>
     </g>
    </g>
   </g>
   <g id="matplotlib.axis_6">
    <g id="ytick_14">
     <g id="line2d_88">
      <path d="M 629.047059 237.84 
L 842.4 237.84 
" clip-path="url(#pd4a0c42674)" style="fill: none; stroke: #cccccc; stroke-width: 0.5; stroke-linecap: square"/>
     </g>
     <g id="text_29">
      <!-- 0.0 -->
      <g transform="translate(611.587684 241.522812) scale(0.1 -0.1)">
       <use xlink:href="#Lato-Regular-30"/>
       <use xlink:href="#Lato-Regular-2e" x="58"/>
       <use xlink:href="#Lato-Regular-30" x="81.600006"/>
      </g>
     </g>
    </g>
    <g id="ytick_15">
     <g id="line2d_89">
      <path d="M 629.047059 202.301538 
L 842.4 202.301538 
" clip-path="url(#pd4a0c42674)" style="fill: none; stroke: #cccccc; stroke-width: 0.5; stroke-linecap: square"/>
     </g>
     <g id="text_30">
      <!-- 0.1 -->
      <g transform="translate(611.587684 205.984351) scale(0.1 -0.1)">
       <use xlink:href="#Lato-Regular-30"/>
       <use xlink:href="#Lato-Regular-2e" x="58"/>
       <use xlink:href="#Lato-Regular-31" x="81.600006"/>
      </g>
     </g>
    </g>
    <g id="ytick_16">
     <g id="line2d_90">
      <path d="M 629.047059 166.763077 
L 842.4 166.763077 
" clip-path="url(#pd4a0c42674)" style="fill: none; stroke: #cccccc; stroke-width: 0.5; stroke-linecap: square"/>
     </g>
     <g id="text_31">
      <!-- 0.2 -->
      <g transform="translate(611.587684 170.445889) scale(0.1 -0.1)">
       <use xlink:href="#Lato-Regular-30"/>
       <use xlink:href="#Lato-Regular-2e" x="58"/>
       <use xlink:href="#Lato-Regular-32" x="81.600006"/>
      </g>
     </g>
    </g>
    <g id="ytick_17">
     <g id="line2d_91">
      <path d="M 629.047059 131.224615 
L 842.4 131.224615 
" clip-path="url(#pd4a0c42674)" style="fill: none; stroke: #cccccc; stroke-width: 0.5; stroke-linecap: square"/>
     </g>
     <g id="text_32">
      <!-- 0.3 -->
      <g transform="translate(611.587684 134.907428) scale(0.1 -0.1)">
       <use xlink:href="#Lato-Regular-30"/>
       <use xlink:href="#Lato-Regular-2e" x="58"/>
       <use xlink:href="#Lato-Regular-33" x="81.600006"/>
      </g>
     </g>
    </g>
    <g id="ytick_18">
     <g id="line2d_92">
      <path d="M 629.047059 95.686154 
L 842.4 95.686154 
" clip-path="url(#pd4a0c42674)" style="fill: none; stroke: #cccccc; stroke-width: 0.5; stroke-linecap: square"/>
     </g>
     <g id="text_33">
      <!-- 0.4 -->
      <g transform="translate(611.587684 99.368966) scale(0.1 -0.1)">
       <use xlink:href="#Lato-Regular-30"/>
       <use xlink:href="#Lato-Regular-2e" x="58"/>
       <use xlink:href="#Lato-Regular-34" x="81.600006"/>
      </g>
     </g>
    </g>
    <g id="ytick_19">
     <g id="line2d_93">
      <path d="M 629.047059 60.147692 
L 842.4 60.147692 
" clip-path="url(#pd4a0c42674)" style="fill: none; stroke: #cccccc; stroke-width: 0.5; stroke-linecap: square"/>
     </g>
     <g id="text_34">
      <!-- 0.5 -->
      <g transform="translate(611.587684 63.830505) scale(0.1 -0.1)">
       <use xlink:href="#Lato-Regular-30"/>
       <use xlink:href="#Lato-Regular-2e" x="58"/>
       <use xlink:href="#Lato-Regular-35" x="81.600006"/>
      </g>
     </g>
    </g>
   </g>
   <g id="line2d_94">
    <path d="M 646.826471 237.84 
L 650.454922 217.13255 
L 654.083373 155.0102 
L 657.711825 144.656475 
L 661.340276 123.949025 
L 664.968727 118.772162 
L 668.597179 134.30275 
L 672.22563 144.656475 
L 675.854082 134.30275 
L 679.482533 123.949025 
L 683.110984 103.241575 
L 686.739436 92.88785 
L 690.367887 72.1804 
L 693.996339 61.826675 
L 697.62479 56.649812 
L 701.253241 59.75593 
L 704.881693 72.1804 
L 708.510144 82.534125 
L 712.138595 103.241575 
L 715.767047 108.418437 
L 719.395498 139.479612 
L 723.02395 136.373495 
L 726.652401 139.479612 
L 730.280852 141.550357 
L 733.909304 155.0102 
L 737.537755 165.363925 
L 741.166206 196.4251 
L 744.794658 206.778825 
L 748.423109 217.13255 
L 752.051561 215.061805 
L 755.680012 206.778825 
L 759.308463 201.601962 
L 762.936915 204.70808 
L 766.565366 208.84957 
L 770.193818 202.637335 
L 773.822269 203.672707 
L 777.45072 208.84957 
L 781.079172 211.955687 
L 784.707623 217.13255 
L 788.336074 212.99106 
L 791.964526 211.955687 
L 795.592977 217.13255 
L 799.221429 222.309412 
L 802.84988 227.486275 
L 806.478331 232.663137 
L 810.106783 229.55702 
L 813.735234 225.41553 
L 817.363685 222.309412 
L 820.992137 232.663137 
L 824.620588 237.84 
" clip-path="url(#pd4a0c42674)" style="fill: none; stroke: #1f77b4; stroke-width: 3; stroke-linecap: square"/>
   </g>
   <g id="LineCollection_3">
    <path d="M 707.350347 237.84 
L 707.350347 53.04 
" clip-path="url(#pd4a0c42674)" style="fill: none; stroke: #ff7f0e; stroke-width: 3"/>
   </g>
   <g id="patch_7">
    <path d="M 629.047059 256.32 
L 842.4 256.32 
" style="fill: none; stroke: #000000; stroke-width: 0.5; stroke-linejoin: miter; stroke-linecap: square"/>
   </g>
   <g id="legend_1">
    <g id="line2d_95">
     <path d="M 760.035937 42.425625 
L 770.035937 42.425625 
L 780.035937 42.425625 
" style="fill: none; stroke: #1f77b4; stroke-width: 3; stroke-linecap: square"/>
    </g>
    <g id="text_35">
     <!-- distribution -->
     <g transform="translate(788.035937 45.925625) scale(0.1 -0.1)">
      <defs>
       <path id="Lato-Regular-64" d="M 2794 0 
Q 2672 0 2640 118 
L 2589 512 
Q 2381 259 2113 107 
Q 1846 -45 1501 -45 
Q 1222 -45 995 62 
Q 768 170 608 378 
Q 448 586 361 896 
Q 275 1206 275 1610 
Q 275 1968 371 2277 
Q 467 2586 646 2813 
Q 826 3040 1086 3169 
Q 1347 3299 1674 3299 
Q 1971 3299 2184 3198 
Q 2397 3098 2563 2915 
L 2563 4714 
L 3133 4714 
L 3133 0 
L 2794 0 
z
M 1686 416 
Q 1968 416 2177 544 
Q 2387 672 2563 906 
L 2563 2470 
Q 2403 2682 2217 2768 
Q 2032 2854 1802 2854 
Q 1350 2854 1107 2531 
Q 864 2208 864 1610 
Q 864 1293 918 1067 
Q 973 842 1078 696 
Q 1184 550 1337 483 
Q 1491 416 1686 416 
z
" transform="scale(0.015625)"/>
       <path id="Lato-Regular-69" d="M 1053 3242 
L 1053 0 
L 483 0 
L 483 3242 
L 1053 3242 
z
M 1174 4259 
Q 1174 4176 1140 4104 
Q 1107 4032 1051 3976 
Q 995 3920 920 3888 
Q 845 3856 762 3856 
Q 678 3856 606 3888 
Q 534 3920 480 3976 
Q 426 4032 394 4104 
Q 362 4176 362 4259 
Q 362 4342 394 4417 
Q 426 4493 480 4549 
Q 534 4605 606 4637 
Q 678 4669 762 4669 
Q 845 4669 920 4637 
Q 995 4605 1051 4549 
Q 1107 4493 1140 4417 
Q 1174 4342 1174 4259 
z
" transform="scale(0.015625)"/>
       <path id="Lato-Regular-73" d="M 2339 2707 
Q 2301 2637 2221 2637 
Q 2173 2637 2112 2672 
Q 2051 2707 1963 2750 
Q 1875 2794 1753 2830 
Q 1632 2867 1466 2867 
Q 1322 2867 1206 2830 
Q 1091 2794 1009 2730 
Q 928 2666 885 2581 
Q 842 2496 842 2397 
Q 842 2272 914 2189 
Q 986 2106 1104 2045 
Q 1222 1984 1372 1937 
Q 1523 1891 1681 1838 
Q 1840 1786 1990 1722 
Q 2141 1658 2259 1562 
Q 2378 1466 2450 1326 
Q 2522 1187 2522 992 
Q 2522 768 2442 577 
Q 2362 387 2205 248 
Q 2048 109 1821 29 
Q 1594 -51 1296 -51 
Q 957 -51 681 59 
Q 406 170 214 342 
L 349 560 
Q 374 602 409 624 
Q 445 646 499 646 
Q 557 646 621 601 
Q 685 557 776 502 
Q 867 448 998 403 
Q 1130 358 1325 358 
Q 1491 358 1616 401 
Q 1741 445 1824 518 
Q 1907 592 1947 688 
Q 1987 784 1987 893 
Q 1987 1027 1915 1115 
Q 1843 1203 1724 1265 
Q 1606 1328 1454 1374 
Q 1302 1421 1144 1472 
Q 986 1523 834 1588 
Q 682 1654 563 1753 
Q 445 1853 373 1998 
Q 301 2144 301 2352 
Q 301 2538 377 2709 
Q 454 2880 601 3009 
Q 749 3139 963 3216 
Q 1178 3293 1453 3293 
Q 1773 3293 2027 3192 
Q 2282 3091 2467 2915 
L 2339 2707 
z
" transform="scale(0.015625)"/>
       <path id="Lato-Regular-74" d="M 1446 -51 
Q 1062 -51 856 163 
Q 650 378 650 781 
L 650 2765 
L 259 2765 
Q 208 2765 173 2795 
Q 138 2826 138 2890 
L 138 3117 
L 669 3184 
L 800 4186 
Q 810 4234 843 4264 
Q 877 4294 931 4294 
L 1219 4294 
L 1219 3178 
L 2157 3178 
L 2157 2765 
L 1219 2765 
L 1219 819 
Q 1219 614 1318 515 
Q 1418 416 1574 416 
Q 1664 416 1729 440 
Q 1795 464 1843 493 
Q 1891 522 1924 546 
Q 1958 570 1984 570 
Q 2029 570 2064 515 
L 2230 243 
Q 2083 106 1875 27 
Q 1667 -51 1446 -51 
z
" transform="scale(0.015625)"/>
       <path id="Lato-Regular-72" d="M 451 0 
L 451 3242 
L 778 3242 
Q 870 3242 905 3206 
Q 941 3171 954 3085 
L 989 2592 
Q 1142 2925 1368 3112 
Q 1594 3299 1917 3299 
Q 2019 3299 2113 3276 
Q 2208 3254 2282 3206 
L 2240 2781 
Q 2221 2701 2144 2701 
Q 2099 2701 2012 2720 
Q 1926 2739 1818 2739 
Q 1664 2739 1542 2692 
Q 1421 2646 1326 2558 
Q 1232 2470 1158 2342 
Q 1085 2214 1024 2048 
L 1024 0 
L 451 0 
z
" transform="scale(0.015625)"/>
       <path id="Lato-Regular-62" d="M 451 0 
L 451 4714 
L 1024 4714 
L 1024 2771 
Q 1226 3011 1485 3152 
Q 1744 3293 2080 3293 
Q 2365 3293 2593 3184 
Q 2822 3075 2982 2868 
Q 3142 2662 3227 2368 
Q 3312 2074 3312 1706 
Q 3312 1312 3216 989 
Q 3120 666 2939 437 
Q 2758 208 2499 81 
Q 2240 -45 1917 -45 
Q 1597 -45 1377 75 
Q 1158 195 995 416 
L 966 122 
Q 941 0 819 0 
L 451 0 
z
M 1891 2838 
Q 1613 2838 1405 2710 
Q 1197 2582 1024 2349 
L 1024 781 
Q 1181 570 1368 483 
Q 1555 397 1779 397 
Q 2237 397 2480 720 
Q 2723 1043 2723 1683 
Q 2723 2278 2507 2558 
Q 2291 2838 1891 2838 
z
" transform="scale(0.015625)"/>
       <path id="Lato-Regular-75" d="M 989 3242 
L 989 1174 
Q 989 806 1157 604 
Q 1325 403 1670 403 
Q 1920 403 2141 521 
Q 2362 640 2547 851 
L 2547 3242 
L 3117 3242 
L 3117 0 
L 2778 0 
Q 2656 0 2624 118 
L 2579 467 
Q 2368 234 2105 91 
Q 1843 -51 1504 -51 
Q 1238 -51 1035 37 
Q 832 125 694 285 
Q 557 445 488 672 
Q 419 899 419 1174 
L 419 3242 
L 989 3242 
z
" transform="scale(0.015625)"/>
       <path id="Lato-Regular-6f" d="M 1818 3293 
Q 2173 3293 2457 3174 
Q 2742 3056 2944 2838 
Q 3146 2621 3253 2312 
Q 3360 2003 3360 1622 
Q 3360 1238 3253 931 
Q 3146 624 2944 406 
Q 2742 189 2457 72 
Q 2173 -45 1818 -45 
Q 1459 -45 1172 72 
Q 886 189 684 406 
Q 483 624 376 931 
Q 269 1238 269 1622 
Q 269 2003 376 2312 
Q 483 2621 684 2838 
Q 886 3056 1172 3174 
Q 1459 3293 1818 3293 
z
M 1818 400 
Q 2298 400 2534 721 
Q 2771 1043 2771 1619 
Q 2771 2198 2534 2521 
Q 2298 2845 1818 2845 
Q 1574 2845 1393 2761 
Q 1213 2678 1093 2521 
Q 973 2365 913 2136 
Q 854 1907 854 1619 
Q 854 1043 1092 721 
Q 1331 400 1818 400 
z
" transform="scale(0.015625)"/>
       <path id="Lato-Regular-6e" d="M 451 0 
L 451 3242 
L 794 3242 
Q 915 3242 944 3123 
L 989 2771 
Q 1200 3005 1462 3149 
Q 1725 3293 2067 3293 
Q 2333 3293 2536 3205 
Q 2739 3117 2875 2955 
Q 3011 2794 3081 2566 
Q 3152 2339 3152 2064 
L 3152 0 
L 2579 0 
L 2579 2064 
Q 2579 2432 2411 2635 
Q 2243 2838 1901 2838 
Q 1645 2838 1425 2716 
Q 1206 2595 1024 2387 
L 1024 0 
L 451 0 
z
" transform="scale(0.015625)"/>
      </defs>
      <use xlink:href="#Lato-Regular-64"/>
      <use xlink:href="#Lato-Regular-69" x="56"/>
      <use xlink:href="#Lato-Regular-73" x="80"/>
      <use xlink:href="#Lato-Regular-74" x="123.300003"/>
      <use xlink:href="#Lato-Regular-72" x="159.150009"/>
      <use xlink:href="#Lato-Regular-69" x="195.550018"/>
      <use xlink:href="#Lato-Regular-62" x="219.550018"/>
      <use xlink:href="#Lato-Regular-75" x="275.550018"/>
      <use xlink:href="#Lato-Regular-74" x="331.300018"/>
      <use xlink:href="#Lato-Regular-69" x="367.150024"/>
      <use xlink:href="#Lato-Regular-6f" x="391.150024"/>
      <use xlink:href="#Lato-Regular-6e" x="447.850037"/>
     </g>
    </g>
    <g id="line2d_96">
     <path d="M 760.035937 56.506875 
L 780.035937 56.506875 
" style="fill: none; stroke: #ff7f0e; stroke-width: 3"/>
    </g>
    <g id="text_36">
     <!-- mean -->
     <g transform="translate(788.035937 60.006875) scale(0.1 -0.1)">
      <defs>
       <path id="Lato-Regular-6d" d="M 451 0 
L 451 3242 
L 794 3242 
Q 915 3242 944 3123 
L 986 2790 
Q 1165 3011 1389 3152 
Q 1613 3293 1907 3293 
Q 2234 3293 2437 3110 
Q 2640 2928 2730 2618 
Q 2800 2794 2910 2922 
Q 3021 3050 3158 3133 
Q 3296 3216 3451 3254 
Q 3606 3293 3766 3293 
Q 4022 3293 4222 3211 
Q 4422 3130 4561 2973 
Q 4701 2816 4774 2587 
Q 4848 2358 4848 2064 
L 4848 0 
L 4275 0 
L 4275 2064 
Q 4275 2445 4108 2641 
Q 3942 2838 3629 2838 
Q 3488 2838 3361 2788 
Q 3235 2739 3139 2643 
Q 3043 2547 2987 2401 
Q 2931 2256 2931 2064 
L 2931 0 
L 2358 0 
L 2358 2064 
Q 2358 2454 2201 2646 
Q 2045 2838 1744 2838 
Q 1533 2838 1353 2724 
Q 1174 2611 1024 2416 
L 1024 0 
L 451 0 
z
" transform="scale(0.015625)"/>
       <path id="Lato-Regular-65" d="M 1779 3293 
Q 2070 3293 2318 3195 
Q 2566 3098 2747 2914 
Q 2928 2730 3030 2459 
Q 3133 2189 3133 1843 
Q 3133 1709 3104 1664 
Q 3075 1619 2995 1619 
L 829 1619 
Q 835 1312 912 1085 
Q 989 858 1123 706 
Q 1258 554 1443 478 
Q 1629 403 1859 403 
Q 2074 403 2229 452 
Q 2384 502 2496 560 
Q 2608 618 2683 667 
Q 2758 717 2813 717 
Q 2883 717 2922 662 
L 3082 454 
Q 2976 326 2829 232 
Q 2682 138 2514 77 
Q 2346 16 2166 -14 
Q 1987 -45 1811 -45 
Q 1475 -45 1192 68 
Q 909 182 702 401 
Q 496 621 381 944 
Q 266 1267 266 1686 
Q 266 2026 370 2320 
Q 474 2614 669 2830 
Q 864 3046 1145 3169 
Q 1427 3293 1779 3293 
z
M 1792 2874 
Q 1379 2874 1142 2635 
Q 906 2397 848 1974 
L 2621 1974 
Q 2621 2173 2565 2337 
Q 2509 2502 2401 2622 
Q 2294 2742 2140 2808 
Q 1987 2874 1792 2874 
z
" transform="scale(0.015625)"/>
       <path id="Lato-Regular-61" d="M 2512 0 
Q 2429 0 2384 27 
Q 2339 54 2314 134 
L 2250 438 
Q 2122 323 1998 232 
Q 1875 141 1742 78 
Q 1610 16 1458 -17 
Q 1306 -51 1120 -51 
Q 931 -51 764 1 
Q 598 54 475 160 
Q 352 266 280 427 
Q 208 589 208 810 
Q 208 1002 313 1179 
Q 419 1357 656 1494 
Q 893 1632 1273 1720 
Q 1654 1808 2208 1821 
L 2208 2074 
Q 2208 2451 2045 2644 
Q 1882 2838 1568 2838 
Q 1357 2838 1214 2785 
Q 1072 2733 968 2667 
Q 864 2602 789 2549 
Q 714 2496 640 2496 
Q 582 2496 540 2526 
Q 499 2557 470 2602 
L 368 2784 
Q 637 3043 947 3171 
Q 1258 3299 1635 3299 
Q 1907 3299 2118 3209 
Q 2330 3120 2474 2960 
Q 2618 2800 2691 2573 
Q 2765 2346 2765 2074 
L 2765 0 
L 2512 0 
z
M 1290 349 
Q 1440 349 1565 379 
Q 1690 410 1800 466 
Q 1910 522 2011 603 
Q 2112 685 2208 787 
L 2208 1459 
Q 1814 1446 1537 1396 
Q 1261 1347 1086 1267 
Q 912 1187 833 1078 
Q 755 970 755 835 
Q 755 707 796 614 
Q 838 522 910 462 
Q 982 403 1080 376 
Q 1178 349 1290 349 
z
" transform="scale(0.015625)"/>
      </defs>
      <use xlink:href="#Lato-Regular-6d"/>
      <use xlink:href="#Lato-Regular-65" x="82.250015"/>
      <use xlink:href="#Lato-Regular-61" x="135.050018"/>
      <use xlink:href="#Lato-Regular-6e" x="184.750031"/>
     </g>
    </g>
   </g>
  </g>
 </g>
 <defs>
  <clipPath id="p34fe094b3c">
   <rect x="117" y="34.56" width="213.352941" height="221.76"/>
  </clipPath>
  <clipPath id="pc68b3732b8">
   <rect x="373.023529" y="34.56" width="213.352941" height="221.76"/>
  </clipPath>
  <clipPath id="pd4a0c42674">
   <rect x="629.047059" y="34.56" width="213.352941" height="221.76"/>
  </clipPath>
 </defs>
</svg>
