<?xml version="1.0" encoding="utf-8" standalone="no"?>
<!DOCTYPE svg PUBLIC "-//W3C//DTD SVG 1.1//EN"
  "http://www.w3.org/Graphics/SVG/1.1/DTD/svg11.dtd">
<svg xmlns:xlink="http://www.w3.org/1999/xlink" width="460.8pt" height="345.6pt" viewBox="0 0 460.8 345.6" xmlns="http://www.w3.org/2000/svg" version="1.1">
 <metadata>
  <rdf:RDF xmlns:dc="http://purl.org/dc/elements/1.1/" xmlns:cc="http://creativecommons.org/ns#" xmlns:rdf="http://www.w3.org/1999/02/22-rdf-syntax-ns#">
   <cc:Work>
    <dc:type rdf:resource="http://purl.org/dc/dcmitype/StillImage"/>
    <dc:date>2025-03-20T16:45:43.991558</dc:date>
    <dc:format>image/svg+xml</dc:format>
    <dc:creator>
     <cc:Agent>
      <dc:title>Matplotlib v3.9.2, https://matplotlib.org/</dc:title>
     </cc:Agent>
    </dc:creator>
   </cc:Work>
  </rdf:RDF>
 </metadata>
 <defs>
  <style type="text/css">*{stroke-linejoin: round; stroke-linecap: butt}</style>
 </defs>
 <g id="figure_1">
  <g id="patch_1">
   <path d="M 0 345.6 
L 460.8 345.6 
L 460.8 0 
L 0 0 
L 0 345.6 
z
" style="fill: none"/>
  </g>
  <g id="axes_1">
   <g id="patch_2">
    <path d="M 43.68 149.01 
L 222.12 149.01 
L 222.12 32.16 
L 43.68 32.16 
L 43.68 149.01 
z
" style="fill: none"/>
   </g>
   <g id="matplotlib.axis_1">
    <g id="xtick_1">
     <g id="line2d_1">
      <defs>
       <path id="mebaaba8c03" d="M 0 0 
L 0 6 
" style="stroke: #000000; stroke-width: 0.5"/>
      </defs>
      <g>
       <use xlink:href="#mebaaba8c03" x="79.792857" y="149.01" style="stroke: #000000; stroke-width: 0.5"/>
      </g>
     </g>
    </g>
    <g id="xtick_2">
     <g id="line2d_2">
      <g>
       <use xlink:href="#mebaaba8c03" x="122.278571" y="149.01" style="stroke: #000000; stroke-width: 0.5"/>
      </g>
     </g>
    </g>
    <g id="xtick_3">
     <g id="line2d_3">
      <g>
       <use xlink:href="#mebaaba8c03" x="164.764286" y="149.01" style="stroke: #000000; stroke-width: 0.5"/>
      </g>
     </g>
    </g>
    <g id="xtick_4">
     <g id="line2d_4">
      <g>
       <use xlink:href="#mebaaba8c03" x="207.25" y="149.01" style="stroke: #000000; stroke-width: 0.5"/>
      </g>
     </g>
    </g>
    <g id="xtick_5">
     <g id="line2d_5">
      <defs>
       <path id="m990217b1d6" d="M 0 0 
L 0 3 
" style="stroke: #000000; stroke-width: 0.5"/>
      </defs>
      <g>
       <use xlink:href="#m990217b1d6" x="47.928571" y="149.01" style="stroke: #000000; stroke-width: 0.5"/>
      </g>
     </g>
    </g>
    <g id="xtick_6">
     <g id="line2d_6">
      <g>
       <use xlink:href="#m990217b1d6" x="58.55" y="149.01" style="stroke: #000000; stroke-width: 0.5"/>
      </g>
     </g>
    </g>
    <g id="xtick_7">
     <g id="line2d_7">
      <g>
       <use xlink:href="#m990217b1d6" x="69.171429" y="149.01" style="stroke: #000000; stroke-width: 0.5"/>
      </g>
     </g>
    </g>
    <g id="xtick_8">
     <g id="line2d_8">
      <g>
       <use xlink:href="#m990217b1d6" x="90.414286" y="149.01" style="stroke: #000000; stroke-width: 0.5"/>
      </g>
     </g>
    </g>
    <g id="xtick_9">
     <g id="line2d_9">
      <g>
       <use xlink:href="#m990217b1d6" x="101.035714" y="149.01" style="stroke: #000000; stroke-width: 0.5"/>
      </g>
     </g>
    </g>
    <g id="xtick_10">
     <g id="line2d_10">
      <g>
       <use xlink:href="#m990217b1d6" x="111.657143" y="149.01" style="stroke: #000000; stroke-width: 0.5"/>
      </g>
     </g>
    </g>
    <g id="xtick_11">
     <g id="line2d_11">
      <g>
       <use xlink:href="#m990217b1d6" x="132.9" y="149.01" style="stroke: #000000; stroke-width: 0.5"/>
      </g>
     </g>
    </g>
    <g id="xtick_12">
     <g id="line2d_12">
      <g>
       <use xlink:href="#m990217b1d6" x="143.521429" y="149.01" style="stroke: #000000; stroke-width: 0.5"/>
      </g>
     </g>
    </g>
    <g id="xtick_13">
     <g id="line2d_13">
      <g>
       <use xlink:href="#m990217b1d6" x="154.142857" y="149.01" style="stroke: #000000; stroke-width: 0.5"/>
      </g>
     </g>
    </g>
    <g id="xtick_14">
     <g id="line2d_14">
      <g>
       <use xlink:href="#m990217b1d6" x="175.385714" y="149.01" style="stroke: #000000; stroke-width: 0.5"/>
      </g>
     </g>
    </g>
    <g id="xtick_15">
     <g id="line2d_15">
      <g>
       <use xlink:href="#m990217b1d6" x="186.007143" y="149.01" style="stroke: #000000; stroke-width: 0.5"/>
      </g>
     </g>
    </g>
    <g id="xtick_16">
     <g id="line2d_16">
      <g>
       <use xlink:href="#m990217b1d6" x="196.628571" y="149.01" style="stroke: #000000; stroke-width: 0.5"/>
      </g>
     </g>
    </g>
    <g id="xtick_17">
     <g id="line2d_17">
      <g>
       <use xlink:href="#m990217b1d6" x="217.871429" y="149.01" style="stroke: #000000; stroke-width: 0.5"/>
      </g>
     </g>
    </g>
   </g>
   <g id="matplotlib.axis_2">
    <g id="ytick_1">
     <g id="line2d_18">
      <path d="M 43.68 139.2725 
L 222.12 139.2725 
" clip-path="url(#p9f89552969)" style="fill: none; stroke: #cccccc; stroke-width: 0.5; stroke-linecap: square"/>
     </g>
     <g id="text_1">
      <!-- 0.0 -->
      <g transform="translate(26.220625 142.955312) scale(0.1 -0.1)">
       <defs>
        <path id="Lato-Regular-30" d="M 3520 2291 
Q 3520 1690 3390 1250 
Q 3261 810 3037 522 
Q 2813 234 2507 93 
Q 2202 -48 1853 -48 
Q 1501 -48 1198 93 
Q 896 234 672 522 
Q 448 810 320 1250 
Q 192 1690 192 2291 
Q 192 2893 320 3334 
Q 448 3776 672 4065 
Q 896 4355 1198 4496 
Q 1501 4637 1853 4637 
Q 2202 4637 2507 4496 
Q 2813 4355 3037 4065 
Q 3261 3776 3390 3334 
Q 3520 2893 3520 2291 
z
M 2928 2291 
Q 2928 2816 2840 3173 
Q 2752 3530 2603 3747 
Q 2454 3965 2259 4059 
Q 2064 4154 1853 4154 
Q 1642 4154 1446 4059 
Q 1251 3965 1104 3747 
Q 957 3530 869 3173 
Q 781 2816 781 2291 
Q 781 1766 869 1411 
Q 957 1056 1104 838 
Q 1251 621 1446 526 
Q 1642 432 1853 432 
Q 2064 432 2259 526 
Q 2454 621 2603 838 
Q 2752 1056 2840 1411 
Q 2928 1766 2928 2291 
z
" transform="scale(0.015625)"/>
        <path id="Lato-Regular-2e" d="M 355 352 
Q 355 435 385 508 
Q 416 582 469 636 
Q 522 691 595 723 
Q 669 755 752 755 
Q 835 755 908 723 
Q 982 691 1036 636 
Q 1091 582 1123 508 
Q 1155 435 1155 352 
Q 1155 266 1123 194 
Q 1091 122 1036 67 
Q 982 13 908 -17 
Q 835 -48 752 -48 
Q 669 -48 595 -17 
Q 522 13 469 67 
Q 416 122 385 194 
Q 355 266 355 352 
z
" transform="scale(0.015625)"/>
       </defs>
       <use xlink:href="#Lato-Regular-30"/>
       <use xlink:href="#Lato-Regular-2e" x="58"/>
       <use xlink:href="#Lato-Regular-30" x="81.600006"/>
      </g>
     </g>
    </g>
    <g id="ytick_2">
     <g id="line2d_19">
      <path d="M 43.68 114.92875 
L 222.12 114.92875 
" clip-path="url(#p9f89552969)" style="fill: none; stroke: #cccccc; stroke-width: 0.5; stroke-linecap: square"/>
     </g>
     <g id="text_2">
      <!-- 0.1 -->
      <g transform="translate(26.220625 118.611562) scale(0.1 -0.1)">
       <defs>
        <path id="Lato-Regular-31" d="M 800 435 
L 1782 435 
L 1782 3562 
Q 1782 3696 1792 3846 
L 976 3146 
Q 934 3110 892 3102 
Q 851 3094 816 3100 
Q 781 3107 750 3126 
Q 720 3146 704 3168 
L 525 3414 
L 1891 4595 
L 2355 4595 
L 2355 435 
L 3258 435 
L 3258 0 
L 800 0 
L 800 435 
z
" transform="scale(0.015625)"/>
       </defs>
       <use xlink:href="#Lato-Regular-30"/>
       <use xlink:href="#Lato-Regular-2e" x="58"/>
       <use xlink:href="#Lato-Regular-31" x="81.600006"/>
      </g>
     </g>
    </g>
    <g id="ytick_3">
     <g id="line2d_20">
      <path d="M 43.68 90.585 
L 222.12 90.585 
" clip-path="url(#p9f89552969)" style="fill: none; stroke: #cccccc; stroke-width: 0.5; stroke-linecap: square"/>
     </g>
     <g id="text_3">
      <!-- 0.2 -->
      <g transform="translate(26.220625 94.267812) scale(0.1 -0.1)">
       <defs>
        <path id="Lato-Regular-32" d="M 1891 4637 
Q 2182 4637 2435 4550 
Q 2688 4464 2873 4299 
Q 3059 4134 3164 3897 
Q 3270 3661 3270 3360 
Q 3270 3104 3193 2885 
Q 3117 2666 2985 2467 
Q 2854 2269 2683 2080 
Q 2512 1891 2320 1699 
L 1110 464 
Q 1238 499 1369 520 
Q 1501 541 1622 541 
L 3158 541 
Q 3251 541 3305 486 
Q 3360 432 3360 346 
L 3360 0 
L 301 0 
L 301 195 
Q 301 256 326 320 
Q 352 384 406 438 
L 1875 1914 
Q 2058 2099 2208 2270 
Q 2358 2442 2464 2614 
Q 2570 2787 2627 2964 
Q 2685 3142 2685 3344 
Q 2685 3546 2621 3698 
Q 2557 3850 2446 3949 
Q 2336 4048 2185 4097 
Q 2035 4147 1862 4147 
Q 1686 4147 1539 4096 
Q 1392 4045 1278 3953 
Q 1165 3862 1088 3737 
Q 1011 3613 979 3462 
Q 941 3350 875 3313 
Q 810 3277 691 3293 
L 394 3344 
Q 438 3658 568 3899 
Q 698 4141 894 4304 
Q 1091 4467 1344 4552 
Q 1597 4637 1891 4637 
z
" transform="scale(0.015625)"/>
       </defs>
       <use xlink:href="#Lato-Regular-30"/>
       <use xlink:href="#Lato-Regular-2e" x="58"/>
       <use xlink:href="#Lato-Regular-32" x="81.600006"/>
      </g>
     </g>
    </g>
    <g id="ytick_4">
     <g id="line2d_21">
      <path d="M 43.68 66.24125 
L 222.12 66.24125 
" clip-path="url(#p9f89552969)" style="fill: none; stroke: #cccccc; stroke-width: 0.5; stroke-linecap: square"/>
     </g>
     <g id="text_4">
      <!-- 0.3 -->
      <g transform="translate(26.220625 69.924062) scale(0.1 -0.1)">
       <defs>
        <path id="Lato-Regular-33" d="M 1914 4637 
Q 2205 4637 2451 4553 
Q 2698 4470 2875 4316 
Q 3053 4163 3152 3945 
Q 3251 3728 3251 3462 
Q 3251 3245 3195 3073 
Q 3139 2902 3035 2772 
Q 2931 2643 2784 2553 
Q 2637 2464 2454 2410 
Q 2902 2291 3128 2012 
Q 3354 1734 3354 1315 
Q 3354 998 3234 745 
Q 3114 493 2906 315 
Q 2698 138 2421 43 
Q 2144 -51 1827 -51 
Q 1462 -51 1203 40 
Q 944 131 765 291 
Q 586 451 470 670 
Q 355 890 275 1146 
L 522 1248 
Q 618 1290 709 1270 
Q 800 1251 842 1165 
Q 883 1075 945 950 
Q 1008 826 1117 710 
Q 1226 595 1394 515 
Q 1562 435 1821 435 
Q 2061 435 2241 513 
Q 2422 592 2542 717 
Q 2662 842 2723 995 
Q 2784 1149 2784 1299 
Q 2784 1485 2736 1638 
Q 2688 1792 2557 1904 
Q 2426 2016 2197 2080 
Q 1968 2144 1610 2144 
L 1610 2557 
Q 1904 2560 2110 2621 
Q 2317 2682 2446 2787 
Q 2576 2893 2635 3040 
Q 2694 3187 2694 3366 
Q 2694 3565 2632 3712 
Q 2570 3859 2461 3955 
Q 2352 4051 2203 4099 
Q 2054 4147 1882 4147 
Q 1709 4147 1560 4096 
Q 1411 4045 1297 3953 
Q 1184 3862 1107 3737 
Q 1030 3613 998 3462 
Q 957 3350 894 3313 
Q 832 3277 714 3293 
L 416 3344 
Q 461 3658 589 3899 
Q 717 4141 913 4304 
Q 1110 4467 1364 4552 
Q 1619 4637 1914 4637 
z
" transform="scale(0.015625)"/>
       </defs>
       <use xlink:href="#Lato-Regular-30"/>
       <use xlink:href="#Lato-Regular-2e" x="58"/>
       <use xlink:href="#Lato-Regular-33" x="81.600006"/>
      </g>
     </g>
    </g>
    <g id="ytick_5">
     <g id="line2d_22">
      <path d="M 43.68 41.8975 
L 222.12 41.8975 
" clip-path="url(#p9f89552969)" style="fill: none; stroke: #cccccc; stroke-width: 0.5; stroke-linecap: square"/>
     </g>
     <g id="text_5">
      <!-- 0.4 -->
      <g transform="translate(26.220625 45.580312) scale(0.1 -0.1)">
       <defs>
        <path id="Lato-Regular-34" d="M 2835 1654 
L 3530 1654 
L 3530 1328 
Q 3530 1277 3499 1241 
Q 3469 1206 3405 1206 
L 2835 1206 
L 2835 0 
L 2336 0 
L 2336 1206 
L 301 1206 
Q 237 1206 190 1243 
Q 144 1280 131 1334 
L 74 1626 
L 2304 4586 
L 2835 4586 
L 2835 1654 
z
M 2336 3546 
Q 2336 3629 2341 3726 
Q 2346 3824 2362 3926 
L 691 1654 
L 2336 1654 
L 2336 3546 
z
" transform="scale(0.015625)"/>
       </defs>
       <use xlink:href="#Lato-Regular-30"/>
       <use xlink:href="#Lato-Regular-2e" x="58"/>
       <use xlink:href="#Lato-Regular-34" x="81.600006"/>
      </g>
     </g>
    </g>
    <g id="text_6">
     <!-- $P(x)$ -->
     <g transform="translate(20.545625 100.485) rotate(-90) scale(0.1 -0.1)">
      <defs>
       <path id="DejaVuSans-Oblique-50" d="M 1081 4666 
L 2541 4666 
Q 3178 4666 3512 4369 
Q 3847 4072 3847 3500 
Q 3847 2731 3353 2303 
Q 2859 1875 1966 1875 
L 1172 1875 
L 806 0 
L 172 0 
L 1081 4666 
z
M 1613 4147 
L 1275 2394 
L 2069 2394 
Q 2606 2394 2893 2669 
Q 3181 2944 3181 3456 
Q 3181 3784 2986 3965 
Q 2791 4147 2438 4147 
L 1613 4147 
z
" transform="scale(0.015625)"/>
       <path id="DejaVuSans-28" d="M 1984 4856 
Q 1566 4138 1362 3434 
Q 1159 2731 1159 2009 
Q 1159 1288 1364 580 
Q 1569 -128 1984 -844 
L 1484 -844 
Q 1016 -109 783 600 
Q 550 1309 550 2009 
Q 550 2706 781 3412 
Q 1013 4119 1484 4856 
L 1984 4856 
z
" transform="scale(0.015625)"/>
       <path id="DejaVuSans-Oblique-78" d="M 3841 3500 
L 2234 1784 
L 3219 0 
L 2559 0 
L 1819 1388 
L 531 0 
L -166 0 
L 1556 1844 
L 641 3500 
L 1300 3500 
L 1972 2234 
L 3144 3500 
L 3841 3500 
z
" transform="scale(0.015625)"/>
       <path id="DejaVuSans-29" d="M 513 4856 
L 1013 4856 
Q 1481 4119 1714 3412 
Q 1947 2706 1947 2009 
Q 1947 1309 1714 600 
Q 1481 -109 1013 -844 
L 513 -844 
Q 928 -128 1133 580 
Q 1338 1288 1338 2009 
Q 1338 2731 1133 3434 
Q 928 4138 513 4856 
z
" transform="scale(0.015625)"/>
      </defs>
      <use xlink:href="#DejaVuSans-Oblique-50" transform="translate(0 0.125)"/>
      <use xlink:href="#DejaVuSans-28" transform="translate(60.302734 0.125)"/>
      <use xlink:href="#DejaVuSans-Oblique-78" transform="translate(99.316406 0.125)"/>
      <use xlink:href="#DejaVuSans-29" transform="translate(158.496094 0.125)"/>
     </g>
    </g>
   </g>
   <g id="LineCollection_1">
    <path d="M 132.9 139.2725 
L 132.9 41.8975 
" clip-path="url(#p9f89552969)" style="fill: none; stroke: #1f77b4"/>
   </g>
   <g id="LineCollection_2">
    <path d="M 111.657143 88.150625 
L 154.142857 88.150625 
" clip-path="url(#p9f89552969)" style="fill: none; stroke: #1f77b4"/>
   </g>
   <g id="line2d_23">
    <defs>
     <path id="mefe99c896a" d="M 0 5 
L 0 -5 
" style="stroke: #1f77b4"/>
    </defs>
    <g clip-path="url(#p9f89552969)">
     <use xlink:href="#mefe99c896a" x="111.657143" y="88.150625" style="fill: #1f77b4; stroke: #1f77b4"/>
    </g>
   </g>
   <g id="line2d_24">
    <g clip-path="url(#p9f89552969)">
     <use xlink:href="#mefe99c896a" x="154.142857" y="88.150625" style="fill: #1f77b4; stroke: #1f77b4"/>
    </g>
   </g>
   <g id="line2d_25">
    <path d="M 58.55 139.060056 
L 60.05202 139.001084 
L 61.55404 138.927471 
L 63.056061 138.836081 
L 64.558081 138.723236 
L 66.060101 138.584659 
L 67.562121 138.415417 
L 69.064141 138.209859 
L 70.566162 137.961571 
L 72.068182 137.663336 
L 73.570202 137.307102 
L 75.072222 136.883978 
L 76.574242 136.384237 
L 78.076263 135.797354 
L 79.578283 135.112071 
L 81.080303 134.316493 
L 82.582323 133.398223 
L 84.084343 132.344535 
L 85.586364 131.14259 
L 87.088384 129.779696 
L 88.590404 128.243605 
L 90.092424 126.522849 
L 91.594444 124.60712 
L 93.096465 122.487664 
L 94.598485 120.157706 
L 96.100505 117.612878 
L 97.602525 114.851643 
L 99.104545 111.87571 
L 100.606566 108.690408 
L 102.108586 105.30501 
L 103.610606 101.733001 
L 105.112626 97.992257 
L 106.614646 94.105135 
L 108.116667 90.098445 
L 109.618687 86.003317 
L 111.120707 81.854931 
L 112.622727 77.692128 
L 114.124747 73.556886 
L 115.626768 69.493686 
L 117.128788 65.548763 
L 118.630808 61.769261 
L 120.132828 58.202325 
L 121.634848 54.894133 
L 123.136869 51.888912 
L 124.638889 49.227962 
L 126.140909 46.948709 
L 127.642929 45.083837 
L 129.144949 43.660504 
L 130.64697 42.699686 
L 132.14899 42.215662 
L 133.65101 42.215662 
L 135.15303 42.699686 
L 136.655051 43.660504 
L 138.157071 45.083837 
L 139.659091 46.948709 
L 141.161111 49.227962 
L 142.663131 51.888912 
L 144.165152 54.894133 
L 145.667172 58.202325 
L 147.169192 61.769261 
L 148.671212 65.548763 
L 150.173232 69.493686 
L 151.675253 73.556886 
L 153.177273 77.692128 
L 154.679293 81.854931 
L 156.181313 86.003317 
L 157.683333 90.098445 
L 159.185354 94.105135 
L 160.687374 97.992257 
L 162.189394 101.733001 
L 163.691414 105.30501 
L 165.193434 108.690408 
L 166.695455 111.87571 
L 168.197475 114.851643 
L 169.699495 117.612878 
L 171.201515 120.157706 
L 172.703535 122.487664 
L 174.205556 124.60712 
L 175.707576 126.522849 
L 177.209596 128.243605 
L 178.711616 129.779696 
L 180.213636 131.14259 
L 181.715657 132.344535 
L 183.217677 133.398223 
L 184.719697 134.316493 
L 186.221717 135.112071 
L 187.723737 135.797354 
L 189.225758 136.384237 
L 190.727778 136.883978 
L 192.229798 137.307102 
L 193.731818 137.663336 
L 195.233838 137.961571 
L 196.735859 138.209859 
L 198.237879 138.415417 
L 199.739899 138.584659 
L 201.241919 138.723236 
L 202.743939 138.836081 
L 204.24596 138.927471 
L 205.74798 139.001084 
L 207.25 139.060056 
" clip-path="url(#p9f89552969)" style="fill: none; stroke: #ff7f0e; stroke-linecap: square"/>
   </g>
   <g id="line2d_26">
    <path d="M 132.9 88.150625 
" clip-path="url(#p9f89552969)" style="fill: none; stroke: #1f77b4; stroke-linecap: square"/>
   </g>
   <g id="patch_3">
    <path d="M 43.68 149.01 
L 222.12 149.01 
" style="fill: none; stroke: #000000; stroke-width: 0.5; stroke-linejoin: miter; stroke-linecap: square"/>
   </g>
   <g id="text_7">
    <!-- Gaussian -->
    <g transform="translate(43.68 20.16) scale(0.12 -0.12)">
     <defs>
      <path id="Lato-Bold-47" d="M 4330 448 
Q 3978 189 3579 69 
Q 3181 -51 2726 -51 
Q 2160 -51 1701 125 
Q 1242 301 917 614 
Q 592 928 416 1363 
Q 240 1798 240 2314 
Q 240 2835 409 3270 
Q 579 3706 891 4019 
Q 1203 4333 1648 4505 
Q 2093 4678 2646 4678 
Q 2928 4678 3173 4633 
Q 3418 4589 3627 4510 
Q 3837 4432 4009 4320 
Q 4182 4208 4326 4074 
L 4080 3683 
Q 4022 3590 3929 3569 
Q 3837 3549 3728 3616 
Q 3622 3677 3516 3737 
Q 3411 3798 3281 3843 
Q 3152 3888 2990 3917 
Q 2829 3946 2618 3946 
Q 2275 3946 1998 3830 
Q 1722 3715 1526 3500 
Q 1331 3286 1225 2985 
Q 1120 2685 1120 2314 
Q 1120 1917 1233 1605 
Q 1347 1293 1553 1077 
Q 1760 861 2051 747 
Q 2342 634 2701 634 
Q 2957 634 3158 686 
Q 3360 739 3552 832 
L 3552 1674 
L 2970 1674 
Q 2886 1674 2840 1720 
Q 2794 1766 2794 1834 
L 2794 2320 
L 4330 2320 
L 4330 448 
L 4330 448 
z
" transform="scale(0.015625)"/>
      <path id="Lato-Bold-61" d="M 2538 0 
Q 2426 0 2365 33 
Q 2304 67 2269 170 
L 2198 403 
Q 2074 291 1955 206 
Q 1837 122 1709 64 
Q 1581 6 1435 -22 
Q 1290 -51 1114 -51 
Q 906 -51 730 5 
Q 554 61 426 173 
Q 298 285 227 451 
Q 157 618 157 838 
Q 157 1024 254 1205 
Q 352 1386 579 1531 
Q 806 1677 1184 1773 
Q 1562 1869 2125 1882 
L 2125 2074 
Q 2125 2403 1984 2561 
Q 1843 2720 1578 2720 
Q 1386 2720 1259 2675 
Q 1133 2630 1037 2574 
Q 941 2518 862 2473 
Q 784 2429 688 2429 
Q 605 2429 547 2472 
Q 490 2515 454 2573 
L 314 2826 
Q 880 3344 1677 3344 
Q 1965 3344 2192 3249 
Q 2419 3155 2576 2987 
Q 2733 2819 2814 2585 
Q 2896 2352 2896 2074 
L 2896 0 
L 2538 0 
z
M 1357 493 
Q 1600 493 1777 581 
Q 1955 669 2125 848 
L 2125 1402 
Q 1779 1386 1547 1342 
Q 1315 1299 1174 1232 
Q 1034 1165 973 1075 
Q 912 986 912 880 
Q 912 672 1035 582 
Q 1158 493 1357 493 
z
" transform="scale(0.015625)"/>
      <path id="Lato-Bold-75" d="M 1149 3283 
L 1149 1197 
Q 1149 896 1288 731 
Q 1427 566 1706 566 
Q 1910 566 2089 657 
Q 2269 749 2429 909 
L 2429 3283 
L 3219 3283 
L 3219 0 
L 2736 0 
Q 2579 0 2538 144 
L 2483 406 
Q 2381 304 2272 219 
Q 2163 134 2038 73 
Q 1914 13 1773 -19 
Q 1632 -51 1466 -51 
Q 1197 -51 990 40 
Q 784 131 643 297 
Q 502 464 430 693 
Q 358 922 358 1197 
L 358 3283 
L 1149 3283 
z
" transform="scale(0.015625)"/>
      <path id="Lato-Bold-73" d="M 2394 2643 
Q 2362 2592 2326 2571 
Q 2291 2550 2237 2550 
Q 2179 2550 2113 2582 
Q 2048 2614 1961 2654 
Q 1875 2694 1764 2726 
Q 1654 2758 1504 2758 
Q 1270 2758 1137 2659 
Q 1005 2560 1005 2400 
Q 1005 2294 1073 2222 
Q 1142 2150 1256 2096 
Q 1370 2042 1514 1998 
Q 1658 1955 1806 1904 
Q 1955 1853 2099 1787 
Q 2243 1722 2356 1621 
Q 2470 1520 2539 1379 
Q 2608 1238 2608 1040 
Q 2608 803 2523 603 
Q 2438 403 2272 257 
Q 2106 112 1861 30 
Q 1616 -51 1296 -51 
Q 1126 -51 964 -20 
Q 803 10 654 64 
Q 506 118 379 192 
Q 253 266 157 352 
L 339 653 
Q 374 707 422 736 
Q 470 765 544 765 
Q 618 765 683 723 
Q 749 682 835 634 
Q 922 586 1038 544 
Q 1155 502 1334 502 
Q 1475 502 1576 536 
Q 1677 570 1742 624 
Q 1808 678 1838 750 
Q 1869 822 1869 899 
Q 1869 1014 1800 1088 
Q 1731 1162 1617 1216 
Q 1504 1270 1358 1313 
Q 1213 1357 1061 1408 
Q 909 1459 763 1528 
Q 618 1597 504 1702 
Q 390 1808 321 1961 
Q 253 2115 253 2333 
Q 253 2534 333 2716 
Q 413 2899 568 3035 
Q 723 3171 955 3252 
Q 1187 3334 1491 3334 
Q 1830 3334 2108 3222 
Q 2387 3110 2573 2928 
L 2394 2643 
z
" transform="scale(0.015625)"/>
      <path id="Lato-Bold-69" d="M 1210 3283 
L 1210 0 
L 416 0 
L 416 3283 
L 1210 3283 
z
M 1318 4240 
Q 1318 4138 1276 4048 
Q 1235 3958 1166 3891 
Q 1098 3824 1005 3784 
Q 912 3744 806 3744 
Q 704 3744 613 3784 
Q 522 3824 454 3891 
Q 387 3958 347 4048 
Q 307 4138 307 4240 
Q 307 4346 347 4438 
Q 387 4531 454 4598 
Q 522 4666 613 4706 
Q 704 4746 806 4746 
Q 912 4746 1005 4706 
Q 1098 4666 1166 4598 
Q 1235 4531 1276 4438 
Q 1318 4346 1318 4240 
z
" transform="scale(0.015625)"/>
      <path id="Lato-Bold-6e" d="M 390 0 
L 390 3283 
L 874 3283 
Q 1027 3283 1075 3139 
L 1130 2880 
Q 1229 2982 1339 3065 
Q 1450 3149 1573 3209 
Q 1696 3270 1837 3302 
Q 1978 3334 2144 3334 
Q 2413 3334 2621 3243 
Q 2829 3152 2968 2987 
Q 3107 2822 3179 2593 
Q 3251 2365 3251 2090 
L 3251 0 
L 2461 0 
L 2461 2090 
Q 2461 2390 2323 2555 
Q 2186 2720 1904 2720 
Q 1699 2720 1520 2627 
Q 1341 2534 1181 2374 
L 1181 0 
L 390 0 
z
" transform="scale(0.015625)"/>
     </defs>
     <use xlink:href="#Lato-Bold-47"/>
     <use xlink:href="#Lato-Bold-61" x="72.475006"/>
     <use xlink:href="#Lato-Bold-75" x="123.225006"/>
     <use xlink:href="#Lato-Bold-73" x="179.625015"/>
     <use xlink:href="#Lato-Bold-73" x="223.575012"/>
     <use xlink:href="#Lato-Bold-69" x="267.525009"/>
     <use xlink:href="#Lato-Bold-61" x="292.925003"/>
     <use xlink:href="#Lato-Bold-6e" x="343.675003"/>
    </g>
   </g>
  </g>
  <g id="axes_2">
   <g id="patch_4">
    <path d="M 271.56 149.01 
L 450 149.01 
L 450 32.16 
L 271.56 32.16 
L 271.56 149.01 
z
" style="fill: none"/>
   </g>
   <g id="matplotlib.axis_3">
    <g id="xtick_18">
     <g id="line2d_27">
      <g>
       <use xlink:href="#mebaaba8c03" x="307.672857" y="149.01" style="stroke: #000000; stroke-width: 0.5"/>
      </g>
     </g>
    </g>
    <g id="xtick_19">
     <g id="line2d_28">
      <g>
       <use xlink:href="#mebaaba8c03" x="350.158571" y="149.01" style="stroke: #000000; stroke-width: 0.5"/>
      </g>
     </g>
    </g>
    <g id="xtick_20">
     <g id="line2d_29">
      <g>
       <use xlink:href="#mebaaba8c03" x="392.644286" y="149.01" style="stroke: #000000; stroke-width: 0.5"/>
      </g>
     </g>
    </g>
    <g id="xtick_21">
     <g id="line2d_30">
      <g>
       <use xlink:href="#mebaaba8c03" x="435.13" y="149.01" style="stroke: #000000; stroke-width: 0.5"/>
      </g>
     </g>
    </g>
    <g id="xtick_22">
     <g id="line2d_31">
      <g>
       <use xlink:href="#m990217b1d6" x="275.808571" y="149.01" style="stroke: #000000; stroke-width: 0.5"/>
      </g>
     </g>
    </g>
    <g id="xtick_23">
     <g id="line2d_32">
      <g>
       <use xlink:href="#m990217b1d6" x="286.43" y="149.01" style="stroke: #000000; stroke-width: 0.5"/>
      </g>
     </g>
    </g>
    <g id="xtick_24">
     <g id="line2d_33">
      <g>
       <use xlink:href="#m990217b1d6" x="297.051429" y="149.01" style="stroke: #000000; stroke-width: 0.5"/>
      </g>
     </g>
    </g>
    <g id="xtick_25">
     <g id="line2d_34">
      <g>
       <use xlink:href="#m990217b1d6" x="318.294286" y="149.01" style="stroke: #000000; stroke-width: 0.5"/>
      </g>
     </g>
    </g>
    <g id="xtick_26">
     <g id="line2d_35">
      <g>
       <use xlink:href="#m990217b1d6" x="328.915714" y="149.01" style="stroke: #000000; stroke-width: 0.5"/>
      </g>
     </g>
    </g>
    <g id="xtick_27">
     <g id="line2d_36">
      <g>
       <use xlink:href="#m990217b1d6" x="339.537143" y="149.01" style="stroke: #000000; stroke-width: 0.5"/>
      </g>
     </g>
    </g>
    <g id="xtick_28">
     <g id="line2d_37">
      <g>
       <use xlink:href="#m990217b1d6" x="360.78" y="149.01" style="stroke: #000000; stroke-width: 0.5"/>
      </g>
     </g>
    </g>
    <g id="xtick_29">
     <g id="line2d_38">
      <g>
       <use xlink:href="#m990217b1d6" x="371.401429" y="149.01" style="stroke: #000000; stroke-width: 0.5"/>
      </g>
     </g>
    </g>
    <g id="xtick_30">
     <g id="line2d_39">
      <g>
       <use xlink:href="#m990217b1d6" x="382.022857" y="149.01" style="stroke: #000000; stroke-width: 0.5"/>
      </g>
     </g>
    </g>
    <g id="xtick_31">
     <g id="line2d_40">
      <g>
       <use xlink:href="#m990217b1d6" x="403.265714" y="149.01" style="stroke: #000000; stroke-width: 0.5"/>
      </g>
     </g>
    </g>
    <g id="xtick_32">
     <g id="line2d_41">
      <g>
       <use xlink:href="#m990217b1d6" x="413.887143" y="149.01" style="stroke: #000000; stroke-width: 0.5"/>
      </g>
     </g>
    </g>
    <g id="xtick_33">
     <g id="line2d_42">
      <g>
       <use xlink:href="#m990217b1d6" x="424.508571" y="149.01" style="stroke: #000000; stroke-width: 0.5"/>
      </g>
     </g>
    </g>
    <g id="xtick_34">
     <g id="line2d_43">
      <g>
       <use xlink:href="#m990217b1d6" x="445.751429" y="149.01" style="stroke: #000000; stroke-width: 0.5"/>
      </g>
     </g>
    </g>
   </g>
   <g id="matplotlib.axis_4">
    <g id="ytick_6">
     <g id="line2d_44">
      <path d="M 271.56 149.01 
L 450 149.01 
" clip-path="url(#p0fca927ccd)" style="fill: none; stroke: #cccccc; stroke-width: 0.5; stroke-linecap: square"/>
     </g>
     <g id="text_8">
      <!-- 0.0 -->
      <g transform="translate(254.100625 152.692812) scale(0.1 -0.1)">
       <use xlink:href="#Lato-Regular-30"/>
       <use xlink:href="#Lato-Regular-2e" x="58"/>
       <use xlink:href="#Lato-Regular-30" x="81.600006"/>
      </g>
     </g>
    </g>
    <g id="ytick_7">
     <g id="line2d_45">
      <path d="M 271.56 122.366126 
L 450 122.366126 
" clip-path="url(#p0fca927ccd)" style="fill: none; stroke: #cccccc; stroke-width: 0.5; stroke-linecap: square"/>
     </g>
     <g id="text_9">
      <!-- 0.1 -->
      <g transform="translate(254.100625 126.048938) scale(0.1 -0.1)">
       <use xlink:href="#Lato-Regular-30"/>
       <use xlink:href="#Lato-Regular-2e" x="58"/>
       <use xlink:href="#Lato-Regular-31" x="81.600006"/>
      </g>
     </g>
    </g>
    <g id="ytick_8">
     <g id="line2d_46">
      <path d="M 271.56 95.722252 
L 450 95.722252 
" clip-path="url(#p0fca927ccd)" style="fill: none; stroke: #cccccc; stroke-width: 0.5; stroke-linecap: square"/>
     </g>
     <g id="text_10">
      <!-- 0.2 -->
      <g transform="translate(254.100625 99.405064) scale(0.1 -0.1)">
       <use xlink:href="#Lato-Regular-30"/>
       <use xlink:href="#Lato-Regular-2e" x="58"/>
       <use xlink:href="#Lato-Regular-32" x="81.600006"/>
      </g>
     </g>
    </g>
    <g id="ytick_9">
     <g id="line2d_47">
      <path d="M 271.56 69.078378 
L 450 69.078378 
" clip-path="url(#p0fca927ccd)" style="fill: none; stroke: #cccccc; stroke-width: 0.5; stroke-linecap: square"/>
     </g>
     <g id="text_11">
      <!-- 0.3 -->
      <g transform="translate(254.100625 72.76119) scale(0.1 -0.1)">
       <use xlink:href="#Lato-Regular-30"/>
       <use xlink:href="#Lato-Regular-2e" x="58"/>
       <use xlink:href="#Lato-Regular-33" x="81.600006"/>
      </g>
     </g>
    </g>
    <g id="ytick_10">
     <g id="line2d_48">
      <path d="M 271.56 42.434504 
L 450 42.434504 
" clip-path="url(#p0fca927ccd)" style="fill: none; stroke: #cccccc; stroke-width: 0.5; stroke-linecap: square"/>
     </g>
     <g id="text_12">
      <!-- 0.4 -->
      <g transform="translate(254.100625 46.117316) scale(0.1 -0.1)">
       <use xlink:href="#Lato-Regular-30"/>
       <use xlink:href="#Lato-Regular-2e" x="58"/>
       <use xlink:href="#Lato-Regular-34" x="81.600006"/>
      </g>
     </g>
    </g>
    <g id="text_13">
     <!-- $P(x)$ -->
     <g transform="translate(248.425625 100.485) rotate(-90) scale(0.1 -0.1)">
      <use xlink:href="#DejaVuSans-Oblique-50" transform="translate(0 0.125)"/>
      <use xlink:href="#DejaVuSans-28" transform="translate(60.302734 0.125)"/>
      <use xlink:href="#DejaVuSans-Oblique-78" transform="translate(99.316406 0.125)"/>
      <use xlink:href="#DejaVuSans-29" transform="translate(158.496094 0.125)"/>
     </g>
    </g>
   </g>
   <g id="patch_5">
    <path d="M 286.43 149.01 
L 292.625833 149.01 
L 292.625833 148.612528 
L 286.43 148.612528 
z
" clip-path="url(#p0fca927ccd)" style="fill: #1f77b4"/>
   </g>
   <g id="patch_6">
    <path d="M 292.625833 149.01 
L 298.821667 149.01 
L 298.821667 148.003366 
L 292.625833 148.003366 
z
" clip-path="url(#p0fca927ccd)" style="fill: #1f77b4"/>
   </g>
   <g id="patch_7">
    <path d="M 298.821667 149.01 
L 305.0175 149.01 
L 305.0175 146.66716 
L 298.821667 146.66716 
z
" clip-path="url(#p0fca927ccd)" style="fill: #1f77b4"/>
   </g>
   <g id="patch_8">
    <path d="M 305.0175 149.01 
L 311.213333 149.01 
L 311.213333 143.999034 
L 305.0175 143.999034 
z
" clip-path="url(#p0fca927ccd)" style="fill: #1f77b4"/>
   </g>
   <g id="patch_9">
    <path d="M 311.213333 149.01 
L 317.409167 149.01 
L 317.409167 139.160605 
L 311.213333 139.160605 
z
" clip-path="url(#p0fca927ccd)" style="fill: #1f77b4"/>
   </g>
   <g id="patch_10">
    <path d="M 317.409167 149.01 
L 323.605 149.01 
L 323.605 131.218669 
L 317.409167 131.218669 
z
" clip-path="url(#p0fca927ccd)" style="fill: #1f77b4"/>
   </g>
   <g id="patch_11">
    <path d="M 323.605 149.01 
L 329.800833 149.01 
L 329.800833 119.476199 
L 323.605 119.476199 
z
" clip-path="url(#p0fca927ccd)" style="fill: #1f77b4"/>
   </g>
   <g id="patch_12">
    <path d="M 329.800833 149.01 
L 335.996667 149.01 
L 335.996667 103.954958 
L 329.800833 103.954958 
z
" clip-path="url(#p0fca927ccd)" style="fill: #1f77b4"/>
   </g>
   <g id="patch_13">
    <path d="M 335.996667 149.01 
L 342.1925 149.01 
L 342.1925 85.844269 
L 335.996667 85.844269 
z
" clip-path="url(#p0fca927ccd)" style="fill: #1f77b4"/>
   </g>
   <g id="patch_14">
    <path d="M 342.1925 149.01 
L 348.388333 149.01 
L 348.388333 67.626856 
L 342.1925 67.626856 
z
" clip-path="url(#p0fca927ccd)" style="fill: #1f77b4"/>
   </g>
   <g id="patch_15">
    <path d="M 348.388333 149.01 
L 354.584167 149.01 
L 354.584167 52.648672 
L 348.388333 52.648672 
z
" clip-path="url(#p0fca927ccd)" style="fill: #1f77b4"/>
   </g>
   <g id="patch_16">
    <path d="M 354.584167 149.01 
L 360.78 149.01 
L 360.78 44.155557 
L 354.584167 44.155557 
z
" clip-path="url(#p0fca927ccd)" style="fill: #1f77b4"/>
   </g>
   <g id="patch_17">
    <path d="M 360.78 149.01 
L 366.975833 149.01 
L 366.975833 44.155557 
L 360.78 44.155557 
z
" clip-path="url(#p0fca927ccd)" style="fill: #1f77b4"/>
   </g>
   <g id="patch_18">
    <path d="M 366.975833 149.01 
L 373.171667 149.01 
L 373.171667 52.648672 
L 366.975833 52.648672 
z
" clip-path="url(#p0fca927ccd)" style="fill: #1f77b4"/>
   </g>
   <g id="patch_19">
    <path d="M 373.171667 149.01 
L 379.3675 149.01 
L 379.3675 67.626856 
L 373.171667 67.626856 
z
" clip-path="url(#p0fca927ccd)" style="fill: #1f77b4"/>
   </g>
   <g id="patch_20">
    <path d="M 379.3675 149.01 
L 385.563333 149.01 
L 385.563333 85.844269 
L 379.3675 85.844269 
z
" clip-path="url(#p0fca927ccd)" style="fill: #1f77b4"/>
   </g>
   <g id="patch_21">
    <path d="M 385.563333 149.01 
L 391.759167 149.01 
L 391.759167 103.954958 
L 385.563333 103.954958 
z
" clip-path="url(#p0fca927ccd)" style="fill: #1f77b4"/>
   </g>
   <g id="patch_22">
    <path d="M 391.759167 149.01 
L 397.955 149.01 
L 397.955 119.476199 
L 391.759167 119.476199 
z
" clip-path="url(#p0fca927ccd)" style="fill: #1f77b4"/>
   </g>
   <g id="patch_23">
    <path d="M 397.955 149.01 
L 404.150833 149.01 
L 404.150833 131.218669 
L 397.955 131.218669 
z
" clip-path="url(#p0fca927ccd)" style="fill: #1f77b4"/>
   </g>
   <g id="patch_24">
    <path d="M 404.150833 149.01 
L 410.346667 149.01 
L 410.346667 139.160605 
L 404.150833 139.160605 
z
" clip-path="url(#p0fca927ccd)" style="fill: #1f77b4"/>
   </g>
   <g id="patch_25">
    <path d="M 410.346667 149.01 
L 416.5425 149.01 
L 416.5425 143.999034 
L 410.346667 143.999034 
z
" clip-path="url(#p0fca927ccd)" style="fill: #1f77b4"/>
   </g>
   <g id="patch_26">
    <path d="M 416.5425 149.01 
L 422.738333 149.01 
L 422.738333 146.66716 
L 416.5425 146.66716 
z
" clip-path="url(#p0fca927ccd)" style="fill: #1f77b4"/>
   </g>
   <g id="patch_27">
    <path d="M 422.738333 149.01 
L 428.934167 149.01 
L 428.934167 148.003366 
L 422.738333 148.003366 
z
" clip-path="url(#p0fca927ccd)" style="fill: #1f77b4"/>
   </g>
   <g id="patch_28">
    <path d="M 428.934167 149.01 
L 435.13 149.01 
L 435.13 148.612528 
L 428.934167 148.612528 
z
" clip-path="url(#p0fca927ccd)" style="fill: #1f77b4"/>
   </g>
   <g id="line2d_49">
    <path d="M 286.43 148.777484 
L 287.93202 148.712939 
L 289.43404 148.632371 
L 290.936061 148.532346 
L 292.438081 148.408838 
L 293.940101 148.257169 
L 295.442121 148.071935 
L 296.944141 147.846955 
L 298.446162 147.575208 
L 299.948182 147.248793 
L 301.450202 146.858901 
L 302.952222 146.395798 
L 304.454242 145.848839 
L 305.956263 145.206504 
L 307.458283 144.456472 
L 308.960303 143.585724 
L 310.462323 142.580691 
L 311.964343 141.427445 
L 313.466364 140.111934 
L 314.968384 138.620267 
L 316.470404 136.939037 
L 317.972424 135.055696 
L 319.474444 132.958959 
L 320.976465 130.639246 
L 322.478485 128.089141 
L 323.980505 125.303864 
L 325.482525 122.281733 
L 326.984545 119.024619 
L 328.486566 115.538353 
L 329.988586 111.833085 
L 331.490606 107.923574 
L 332.992626 103.829385 
L 334.494646 99.574987 
L 335.996667 95.189725 
L 337.498687 90.707668 
L 339.000707 86.167321 
L 340.502727 81.611194 
L 342.004747 77.085233 
L 343.506768 72.638121 
L 345.008788 68.320461 
L 346.510808 64.183853 
L 348.012828 60.279894 
L 349.514848 56.659126 
L 351.016869 53.369957 
L 352.518889 50.457586 
L 354.020909 47.962977 
L 355.522929 45.921902 
L 357.024949 44.364085 
L 358.52697 43.312484 
L 360.02899 42.782727 
L 361.53101 42.782727 
L 363.03303 43.312484 
L 364.535051 44.364085 
L 366.037071 45.921902 
L 367.539091 47.962977 
L 369.041111 50.457586 
L 370.543131 53.369957 
L 372.045152 56.659126 
L 373.547172 60.279894 
L 375.049192 64.183853 
L 376.551212 68.320461 
L 378.053232 72.638121 
L 379.555253 77.085233 
L 381.057273 81.611194 
L 382.559293 86.167321 
L 384.061313 90.707668 
L 385.563333 95.189725 
L 387.065354 99.574987 
L 388.567374 103.829385 
L 390.069394 107.923574 
L 391.571414 111.833085 
L 393.073434 115.538353 
L 394.575455 119.024619 
L 396.077475 122.281733 
L 397.579495 125.303864 
L 399.081515 128.089141 
L 400.583535 130.639246 
L 402.085556 132.958959 
L 403.587576 135.055696 
L 405.089596 136.939037 
L 406.591616 138.620267 
L 408.093636 140.111934 
L 409.595657 141.427445 
L 411.097677 142.580691 
L 412.599697 143.585724 
L 414.101717 144.456472 
L 415.603737 145.206504 
L 417.105758 145.848839 
L 418.607778 146.395798 
L 420.109798 146.858901 
L 421.611818 147.248793 
L 423.113838 147.575208 
L 424.615859 147.846955 
L 426.117879 148.071935 
L 427.619899 148.257169 
L 429.121919 148.408838 
L 430.623939 148.532346 
L 432.12596 148.632371 
L 433.62798 148.712939 
L 435.13 148.777484 
" clip-path="url(#p0fca927ccd)" style="fill: none; stroke: #ff7f0e; stroke-linecap: square"/>
   </g>
   <g id="patch_29">
    <path d="M 271.56 149.01 
L 450 149.01 
" style="fill: none; stroke: #000000; stroke-width: 0.5; stroke-linejoin: miter; stroke-linecap: square"/>
   </g>
   <g id="text_14">
    <!-- Histogram -->
    <g transform="translate(271.56 20.16) scale(0.12 -0.12)">
     <defs>
      <path id="Lato-Bold-48" d="M 4416 0 
L 3552 0 
L 3552 2022 
L 1379 2022 
L 1379 0 
L 515 0 
L 515 4627 
L 1379 4627 
L 1379 2637 
L 3552 2637 
L 3552 4627 
L 4416 4627 
L 4416 0 
z
" transform="scale(0.015625)"/>
      <path id="Lato-Bold-74" d="M 1485 -51 
Q 1056 -51 827 190 
Q 598 432 598 858 
L 598 2691 
L 262 2691 
Q 198 2691 153 2732 
Q 109 2774 109 2858 
L 109 3171 
L 637 3258 
L 803 4154 
Q 819 4218 864 4253 
Q 909 4288 979 4288 
L 1389 4288 
L 1389 3254 
L 2266 3254 
L 2266 2691 
L 1389 2691 
L 1389 912 
Q 1389 758 1464 672 
Q 1539 586 1670 586 
Q 1744 586 1793 603 
Q 1843 621 1880 640 
Q 1917 659 1945 676 
Q 1974 694 2003 694 
Q 2038 694 2060 676 
Q 2083 659 2109 624 
L 2346 240 
Q 2173 96 1949 22 
Q 1725 -51 1485 -51 
z
" transform="scale(0.015625)"/>
      <path id="Lato-Bold-6f" d="M 1843 3334 
Q 2208 3334 2507 3216 
Q 2806 3098 3019 2880 
Q 3232 2662 3347 2348 
Q 3462 2035 3462 1648 
Q 3462 1258 3347 944 
Q 3232 630 3019 409 
Q 2806 189 2507 70 
Q 2208 -48 1843 -48 
Q 1475 -48 1174 70 
Q 874 189 661 409 
Q 448 630 331 944 
Q 214 1258 214 1648 
Q 214 2035 331 2348 
Q 448 2662 661 2880 
Q 874 3098 1174 3216 
Q 1475 3334 1843 3334 
z
M 1843 560 
Q 2253 560 2449 835 
Q 2646 1110 2646 1642 
Q 2646 2173 2449 2451 
Q 2253 2730 1843 2730 
Q 1427 2730 1227 2450 
Q 1027 2170 1027 1642 
Q 1027 1114 1227 837 
Q 1427 560 1843 560 
z
" transform="scale(0.015625)"/>
      <path id="Lato-Bold-67" d="M 1590 3341 
Q 1802 3341 1986 3297 
Q 2170 3254 2326 3171 
L 3270 3171 
L 3270 2877 
Q 3270 2736 3101 2704 
L 2806 2650 
Q 2838 2566 2856 2473 
Q 2874 2381 2874 2278 
Q 2874 2035 2776 1838 
Q 2678 1642 2505 1504 
Q 2333 1366 2097 1291 
Q 1862 1216 1590 1216 
Q 1405 1216 1229 1251 
Q 1075 1158 1075 1043 
Q 1075 944 1166 897 
Q 1258 851 1408 832 
Q 1558 813 1750 808 
Q 1942 803 2144 787 
Q 2346 771 2538 731 
Q 2730 691 2880 604 
Q 3030 518 3121 369 
Q 3213 221 3213 -13 
Q 3213 -230 3105 -435 
Q 2998 -640 2795 -800 
Q 2592 -960 2296 -1057 
Q 2000 -1155 1622 -1155 
Q 1251 -1155 976 -1083 
Q 701 -1011 518 -891 
Q 336 -771 246 -614 
Q 157 -458 157 -288 
Q 157 -61 296 96 
Q 435 253 675 346 
Q 547 413 470 525 
Q 394 637 394 819 
Q 394 893 419 971 
Q 445 1050 497 1126 
Q 550 1203 632 1272 
Q 714 1341 822 1395 
Q 573 1530 430 1754 
Q 288 1978 288 2278 
Q 288 2522 385 2718 
Q 483 2915 657 3054 
Q 832 3194 1070 3267 
Q 1309 3341 1590 3341 
z
M 2483 -147 
Q 2483 -51 2425 8 
Q 2368 67 2269 102 
Q 2170 138 2037 154 
Q 1904 170 1755 178 
Q 1606 186 1448 192 
Q 1290 198 1139 218 
Q 1008 144 926 45 
Q 845 -54 845 -186 
Q 845 -272 888 -347 
Q 931 -422 1025 -476 
Q 1120 -531 1270 -561 
Q 1421 -592 1638 -592 
Q 1859 -592 2019 -558 
Q 2179 -525 2283 -465 
Q 2387 -406 2435 -324 
Q 2483 -243 2483 -147 
z
M 1590 1722 
Q 1738 1722 1846 1762 
Q 1955 1802 2027 1872 
Q 2099 1942 2136 2041 
Q 2173 2141 2173 2259 
Q 2173 2502 2027 2644 
Q 1882 2787 1590 2787 
Q 1299 2787 1153 2644 
Q 1008 2502 1008 2259 
Q 1008 2144 1045 2045 
Q 1082 1946 1154 1874 
Q 1226 1802 1336 1762 
Q 1446 1722 1590 1722 
z
" transform="scale(0.015625)"/>
      <path id="Lato-Bold-72" d="M 390 0 
L 390 3283 
L 854 3283 
Q 976 3283 1024 3240 
Q 1072 3197 1088 3085 
L 1133 2714 
Q 1290 3008 1501 3176 
Q 1712 3344 2000 3344 
Q 2227 3344 2365 3245 
L 2314 2653 
Q 2298 2595 2267 2571 
Q 2237 2547 2186 2547 
Q 2138 2547 2043 2563 
Q 1949 2579 1859 2579 
Q 1728 2579 1625 2540 
Q 1523 2502 1441 2430 
Q 1360 2358 1297 2256 
Q 1235 2154 1181 2022 
L 1181 0 
L 390 0 
z
" transform="scale(0.015625)"/>
      <path id="Lato-Bold-6d" d="M 390 0 
L 390 3283 
L 874 3283 
Q 1027 3283 1075 3139 
L 1126 2896 
Q 1213 2992 1307 3072 
Q 1402 3152 1509 3209 
Q 1616 3267 1739 3300 
Q 1862 3334 2010 3334 
Q 2320 3334 2520 3166 
Q 2720 2998 2819 2720 
Q 2896 2883 3011 3000 
Q 3126 3117 3264 3190 
Q 3402 3264 3557 3299 
Q 3712 3334 3869 3334 
Q 4141 3334 4352 3251 
Q 4563 3168 4707 3008 
Q 4851 2848 4926 2617 
Q 5002 2387 5002 2090 
L 5002 0 
L 4211 0 
L 4211 2090 
Q 4211 2403 4073 2561 
Q 3936 2720 3670 2720 
Q 3549 2720 3445 2678 
Q 3341 2637 3262 2558 
Q 3184 2480 3139 2361 
Q 3094 2243 3094 2090 
L 3094 0 
L 2301 0 
L 2301 2090 
Q 2301 2419 2168 2569 
Q 2035 2720 1779 2720 
Q 1606 2720 1457 2635 
Q 1309 2550 1181 2403 
L 1181 0 
L 390 0 
z
" transform="scale(0.015625)"/>
     </defs>
     <use xlink:href="#Lato-Bold-48"/>
     <use xlink:href="#Lato-Bold-69" x="76.300018"/>
     <use xlink:href="#Lato-Bold-73" x="101.700012"/>
     <use xlink:href="#Lato-Bold-74" x="145.650009"/>
     <use xlink:href="#Lato-Bold-6f" x="182.475006"/>
     <use xlink:href="#Lato-Bold-67" x="239.550018"/>
     <use xlink:href="#Lato-Bold-72" x="292.350021"/>
     <use xlink:href="#Lato-Bold-61" x="329.025024"/>
     <use xlink:href="#Lato-Bold-6d" x="379.775024"/>
    </g>
   </g>
  </g>
  <g id="axes_3">
   <g id="patch_30">
    <path d="M 43.68 304.02 
L 222.12 304.02 
L 222.12 187.17 
L 43.68 187.17 
L 43.68 304.02 
z
" style="fill: none"/>
   </g>
   <g id="matplotlib.axis_5">
    <g id="xtick_35">
     <g id="line2d_50">
      <g>
       <use xlink:href="#mebaaba8c03" x="79.792857" y="304.02" style="stroke: #000000; stroke-width: 0.5"/>
      </g>
     </g>
     <g id="text_15">
      <!-- 0 -->
      <g transform="translate(76.892857 320.885625) scale(0.1 -0.1)">
       <use xlink:href="#Lato-Regular-30"/>
      </g>
     </g>
    </g>
    <g id="xtick_36">
     <g id="line2d_51">
      <g>
       <use xlink:href="#mebaaba8c03" x="122.278571" y="304.02" style="stroke: #000000; stroke-width: 0.5"/>
      </g>
     </g>
     <g id="text_16">
      <!-- 2 -->
      <g transform="translate(119.378571 320.885625) scale(0.1 -0.1)">
       <use xlink:href="#Lato-Regular-32"/>
      </g>
     </g>
    </g>
    <g id="xtick_37">
     <g id="line2d_52">
      <g>
       <use xlink:href="#mebaaba8c03" x="164.764286" y="304.02" style="stroke: #000000; stroke-width: 0.5"/>
      </g>
     </g>
     <g id="text_17">
      <!-- 4 -->
      <g transform="translate(161.864286 320.885625) scale(0.1 -0.1)">
       <use xlink:href="#Lato-Regular-34"/>
      </g>
     </g>
    </g>
    <g id="xtick_38">
     <g id="line2d_53">
      <g>
       <use xlink:href="#mebaaba8c03" x="207.25" y="304.02" style="stroke: #000000; stroke-width: 0.5"/>
      </g>
     </g>
     <g id="text_18">
      <!-- 6 -->
      <g transform="translate(204.35 320.885625) scale(0.1 -0.1)">
       <defs>
        <path id="Lato-Regular-36" d="M 1517 2867 
Q 1453 2790 1398 2716 
Q 1344 2643 1290 2573 
Q 1453 2685 1649 2747 
Q 1846 2810 2077 2810 
Q 2355 2810 2601 2718 
Q 2848 2627 3032 2452 
Q 3216 2278 3325 2024 
Q 3434 1770 3434 1443 
Q 3434 1126 3318 854 
Q 3203 582 2996 380 
Q 2790 179 2500 64 
Q 2211 -51 1862 -51 
Q 1517 -51 1235 59 
Q 954 170 757 373 
Q 560 576 453 865 
Q 346 1155 346 1514 
Q 346 1814 478 2155 
Q 611 2496 902 2883 
L 2067 4448 
Q 2112 4506 2190 4546 
Q 2269 4586 2371 4586 
L 2877 4586 
L 1517 2867 
z
M 893 1414 
Q 893 1194 957 1011 
Q 1021 829 1144 697 
Q 1267 566 1444 494 
Q 1622 422 1850 422 
Q 2080 422 2267 496 
Q 2454 570 2587 701 
Q 2720 832 2792 1011 
Q 2864 1190 2864 1402 
Q 2864 1626 2793 1806 
Q 2723 1987 2593 2113 
Q 2464 2240 2285 2307 
Q 2106 2374 1891 2374 
Q 1661 2374 1475 2296 
Q 1290 2218 1160 2085 
Q 1030 1952 961 1777 
Q 893 1603 893 1414 
z
" transform="scale(0.015625)"/>
       </defs>
       <use xlink:href="#Lato-Regular-36"/>
      </g>
     </g>
    </g>
    <g id="xtick_39">
     <g id="line2d_54">
      <g>
       <use xlink:href="#m990217b1d6" x="47.928571" y="304.02" style="stroke: #000000; stroke-width: 0.5"/>
      </g>
     </g>
    </g>
    <g id="xtick_40">
     <g id="line2d_55">
      <g>
       <use xlink:href="#m990217b1d6" x="58.55" y="304.02" style="stroke: #000000; stroke-width: 0.5"/>
      </g>
     </g>
    </g>
    <g id="xtick_41">
     <g id="line2d_56">
      <g>
       <use xlink:href="#m990217b1d6" x="69.171429" y="304.02" style="stroke: #000000; stroke-width: 0.5"/>
      </g>
     </g>
    </g>
    <g id="xtick_42">
     <g id="line2d_57">
      <g>
       <use xlink:href="#m990217b1d6" x="90.414286" y="304.02" style="stroke: #000000; stroke-width: 0.5"/>
      </g>
     </g>
    </g>
    <g id="xtick_43">
     <g id="line2d_58">
      <g>
       <use xlink:href="#m990217b1d6" x="101.035714" y="304.02" style="stroke: #000000; stroke-width: 0.5"/>
      </g>
     </g>
    </g>
    <g id="xtick_44">
     <g id="line2d_59">
      <g>
       <use xlink:href="#m990217b1d6" x="111.657143" y="304.02" style="stroke: #000000; stroke-width: 0.5"/>
      </g>
     </g>
    </g>
    <g id="xtick_45">
     <g id="line2d_60">
      <g>
       <use xlink:href="#m990217b1d6" x="132.9" y="304.02" style="stroke: #000000; stroke-width: 0.5"/>
      </g>
     </g>
    </g>
    <g id="xtick_46">
     <g id="line2d_61">
      <g>
       <use xlink:href="#m990217b1d6" x="143.521429" y="304.02" style="stroke: #000000; stroke-width: 0.5"/>
      </g>
     </g>
    </g>
    <g id="xtick_47">
     <g id="line2d_62">
      <g>
       <use xlink:href="#m990217b1d6" x="154.142857" y="304.02" style="stroke: #000000; stroke-width: 0.5"/>
      </g>
     </g>
    </g>
    <g id="xtick_48">
     <g id="line2d_63">
      <g>
       <use xlink:href="#m990217b1d6" x="175.385714" y="304.02" style="stroke: #000000; stroke-width: 0.5"/>
      </g>
     </g>
    </g>
    <g id="xtick_49">
     <g id="line2d_64">
      <g>
       <use xlink:href="#m990217b1d6" x="186.007143" y="304.02" style="stroke: #000000; stroke-width: 0.5"/>
      </g>
     </g>
    </g>
    <g id="xtick_50">
     <g id="line2d_65">
      <g>
       <use xlink:href="#m990217b1d6" x="196.628571" y="304.02" style="stroke: #000000; stroke-width: 0.5"/>
      </g>
     </g>
    </g>
    <g id="xtick_51">
     <g id="line2d_66">
      <g>
       <use xlink:href="#m990217b1d6" x="217.871429" y="304.02" style="stroke: #000000; stroke-width: 0.5"/>
      </g>
     </g>
    </g>
    <g id="text_19">
     <!-- $x$ -->
     <g transform="translate(129.9 334.030937) scale(0.1 -0.1)">
      <use xlink:href="#DejaVuSans-Oblique-78" transform="translate(0 0.3125)"/>
     </g>
    </g>
   </g>
   <g id="matplotlib.axis_6">
    <g id="ytick_11">
     <g id="line2d_67">
      <path d="M 43.68 294.496108 
L 222.12 294.496108 
" clip-path="url(#p42224188ec)" style="fill: none; stroke: #cccccc; stroke-width: 0.5; stroke-linecap: square"/>
     </g>
     <g id="text_20">
      <!-- 0.0 -->
      <g transform="translate(26.220625 298.17892) scale(0.1 -0.1)">
       <use xlink:href="#Lato-Regular-30"/>
       <use xlink:href="#Lato-Regular-2e" x="58"/>
       <use xlink:href="#Lato-Regular-30" x="81.600006"/>
      </g>
     </g>
    </g>
    <g id="ytick_12">
     <g id="line2d_68">
      <path d="M 43.68 270.018979 
L 222.12 270.018979 
" clip-path="url(#p42224188ec)" style="fill: none; stroke: #cccccc; stroke-width: 0.5; stroke-linecap: square"/>
     </g>
     <g id="text_21">
      <!-- 0.1 -->
      <g transform="translate(26.220625 273.701792) scale(0.1 -0.1)">
       <use xlink:href="#Lato-Regular-30"/>
       <use xlink:href="#Lato-Regular-2e" x="58"/>
       <use xlink:href="#Lato-Regular-31" x="81.600006"/>
      </g>
     </g>
    </g>
    <g id="ytick_13">
     <g id="line2d_69">
      <path d="M 43.68 245.541851 
L 222.12 245.541851 
" clip-path="url(#p42224188ec)" style="fill: none; stroke: #cccccc; stroke-width: 0.5; stroke-linecap: square"/>
     </g>
     <g id="text_22">
      <!-- 0.2 -->
      <g transform="translate(26.220625 249.224664) scale(0.1 -0.1)">
       <use xlink:href="#Lato-Regular-30"/>
       <use xlink:href="#Lato-Regular-2e" x="58"/>
       <use xlink:href="#Lato-Regular-32" x="81.600006"/>
      </g>
     </g>
    </g>
    <g id="ytick_14">
     <g id="line2d_70">
      <path d="M 43.68 221.064723 
L 222.12 221.064723 
" clip-path="url(#p42224188ec)" style="fill: none; stroke: #cccccc; stroke-width: 0.5; stroke-linecap: square"/>
     </g>
     <g id="text_23">
      <!-- 0.3 -->
      <g transform="translate(26.220625 224.747536) scale(0.1 -0.1)">
       <use xlink:href="#Lato-Regular-30"/>
       <use xlink:href="#Lato-Regular-2e" x="58"/>
       <use xlink:href="#Lato-Regular-33" x="81.600006"/>
      </g>
     </g>
    </g>
    <g id="ytick_15">
     <g id="line2d_71">
      <path d="M 43.68 196.587595 
L 222.12 196.587595 
" clip-path="url(#p42224188ec)" style="fill: none; stroke: #cccccc; stroke-width: 0.5; stroke-linecap: square"/>
     </g>
     <g id="text_24">
      <!-- 0.4 -->
      <g transform="translate(26.220625 200.270407) scale(0.1 -0.1)">
       <use xlink:href="#Lato-Regular-30"/>
       <use xlink:href="#Lato-Regular-2e" x="58"/>
       <use xlink:href="#Lato-Regular-34" x="81.600006"/>
      </g>
     </g>
    </g>
    <g id="text_25">
     <!-- $P(x)$ -->
     <g transform="translate(20.545625 255.495) rotate(-90) scale(0.1 -0.1)">
      <use xlink:href="#DejaVuSans-Oblique-50" transform="translate(0 0.125)"/>
      <use xlink:href="#DejaVuSans-28" transform="translate(60.302734 0.125)"/>
      <use xlink:href="#DejaVuSans-Oblique-78" transform="translate(99.316406 0.125)"/>
      <use xlink:href="#DejaVuSans-29" transform="translate(158.496094 0.125)"/>
     </g>
    </g>
   </g>
   <g id="line2d_72">
    <path d="M 58.55 294.2825 
L 60.05202 294.223205 
L 61.55404 294.149189 
L 63.056061 294.057297 
L 64.558081 293.943834 
L 66.060101 293.804498 
L 67.562121 293.634329 
L 69.064141 293.427644 
L 70.566162 293.177996 
L 72.068182 292.878127 
L 73.570202 292.519942 
L 75.072222 292.094499 
L 76.574242 291.59202 
L 78.076263 291.001921 
L 79.578283 290.312884 
L 81.080303 289.512947 
L 82.582323 288.589646 
L 84.084343 287.530185 
L 85.586364 286.321655 
L 87.088384 284.951294 
L 88.590404 283.406785 
L 90.092424 281.676602 
L 91.594444 279.750377 
L 93.096465 277.619309 
L 94.598485 275.276585 
L 96.100505 272.717813 
L 97.602525 269.94145 
L 99.104545 266.949213 
L 100.606566 263.746458 
L 102.108586 260.342511 
L 103.610606 256.750931 
L 105.112626 252.989692 
L 106.614646 249.081273 
L 108.116667 245.05263 
L 109.618687 240.935065 
L 111.120707 236.763951 
L 112.622727 232.578339 
L 114.124747 228.420441 
L 115.626768 224.334979 
L 117.128788 220.368442 
L 118.630808 216.568233 
L 120.132828 212.981754 
L 121.634848 209.655436 
L 123.136869 206.63375 
L 124.638889 203.95822 
L 126.140909 201.666479 
L 127.642929 199.791389 
L 129.144949 198.360258 
L 130.64697 197.394176 
L 132.14899 196.9075 
L 133.65101 196.9075 
L 135.15303 197.394176 
L 136.655051 198.360258 
L 138.157071 199.791389 
L 139.659091 201.666479 
L 141.161111 203.95822 
L 142.663131 206.63375 
L 144.165152 209.655436 
L 145.667172 212.981754 
L 147.169192 216.568233 
L 148.671212 220.368442 
L 150.173232 224.334979 
L 151.675253 228.420441 
L 153.177273 232.578339 
L 154.679293 236.763951 
L 156.181313 240.935065 
L 157.683333 245.05263 
L 159.185354 249.081273 
L 160.687374 252.989692 
L 162.189394 256.750931 
L 163.691414 260.342511 
L 165.193434 263.746458 
L 166.695455 266.949213 
L 168.197475 269.94145 
L 169.699495 272.717813 
L 171.201515 275.276585 
L 172.703535 277.619309 
L 174.205556 279.750377 
L 175.707576 281.676602 
L 177.209596 283.406785 
L 178.711616 284.951294 
L 180.213636 286.321655 
L 181.715657 287.530185 
L 183.217677 288.589646 
L 184.719697 289.512947 
L 186.221717 290.312884 
L 187.723737 291.001921 
L 189.225758 291.59202 
L 190.727778 292.094499 
L 192.229798 292.519942 
L 193.731818 292.878127 
L 195.233838 293.177996 
L 196.735859 293.427644 
L 198.237879 293.634329 
L 199.739899 293.804498 
L 201.241919 293.943834 
L 202.743939 294.057297 
L 204.24596 294.149189 
L 205.74798 294.223205 
L 207.25 294.2825 
" clip-path="url(#p42224188ec)" style="fill: none; stroke: #ff7f0e; stroke-linecap: square"/>
   </g>
   <g id="line2d_73">
    <defs>
     <path id="m26fbb76846" d="M 0 1.5 
C 0.397805 1.5 0.77937 1.341951 1.06066 1.06066 
C 1.341951 0.77937 1.5 0.397805 1.5 0 
C 1.5 -0.397805 1.341951 -0.77937 1.06066 -1.06066 
C 0.77937 -1.341951 0.397805 -1.5 0 -1.5 
C -0.397805 -1.5 -0.77937 -1.341951 -1.06066 -1.06066 
C -1.341951 -0.77937 -1.5 -0.397805 -1.5 0 
C -1.5 0.397805 -1.341951 0.77937 -1.06066 1.06066 
C -0.77937 1.341951 -0.397805 1.5 0 1.5 
z
" style="stroke: #1f77b4"/>
    </defs>
    <g clip-path="url(#p42224188ec)">
     <use xlink:href="#m26fbb76846" x="58.55" y="294.2825" style="fill: #1f77b4; stroke: #1f77b4"/>
     <use xlink:href="#m26fbb76846" x="61.584694" y="294.147504" style="fill: #1f77b4; stroke: #1f77b4"/>
     <use xlink:href="#m26fbb76846" x="64.619388" y="293.938685" style="fill: #1f77b4; stroke: #1f77b4"/>
     <use xlink:href="#m26fbb76846" x="67.654082" y="293.622786" style="fill: #1f77b4; stroke: #1f77b4"/>
     <use xlink:href="#m26fbb76846" x="70.688776" y="293.155503" style="fill: #1f77b4; stroke: #1f77b4"/>
     <use xlink:href="#m26fbb76846" x="73.723469" y="292.479768" style="fill: #1f77b4; stroke: #1f77b4"/>
     <use xlink:href="#m26fbb76846" x="76.758163" y="291.524691" style="fill: #1f77b4; stroke: #1f77b4"/>
     <use xlink:href="#m26fbb76846" x="79.792857" y="290.205683" style="fill: #1f77b4; stroke: #1f77b4"/>
     <use xlink:href="#m26fbb76846" x="82.827551" y="288.426315" style="fill: #1f77b4; stroke: #1f77b4"/>
     <use xlink:href="#m26fbb76846" x="85.862245" y="286.08246" style="fill: #1f77b4; stroke: #1f77b4"/>
     <use xlink:href="#m26fbb76846" x="88.896939" y="283.069124" style="fill: #1f77b4; stroke: #1f77b4"/>
     <use xlink:href="#m26fbb76846" x="91.931633" y="279.290081" style="fill: #1f77b4; stroke: #1f77b4"/>
     <use xlink:href="#m26fbb76846" x="94.966327" y="274.670034" style="fill: #1f77b4; stroke: #1f77b4"/>
     <use xlink:href="#m26fbb76846" x="98.00102" y="269.168477" style="fill: #1f77b4; stroke: #1f77b4"/>
     <use xlink:href="#m26fbb76846" x="101.035714" y="262.79392" style="fill: #1f77b4; stroke: #1f77b4"/>
     <use xlink:href="#m26fbb76846" x="104.070408" y="255.616599" style="fill: #1f77b4; stroke: #1f77b4"/>
     <use xlink:href="#m26fbb76846" x="107.105102" y="247.777581" style="fill: #1f77b4; stroke: #1f77b4"/>
     <use xlink:href="#m26fbb76846" x="110.139796" y="239.492097" style="fill: #1f77b4; stroke: #1f77b4"/>
     <use xlink:href="#m26fbb76846" x="113.17449" y="231.045406" style="fill: #1f77b4; stroke: #1f77b4"/>
     <use xlink:href="#m26fbb76846" x="116.209184" y="222.780226" style="fill: #1f77b4; stroke: #1f77b4"/>
     <use xlink:href="#m26fbb76846" x="119.243878" y="215.075884" style="fill: #1f77b4; stroke: #1f77b4"/>
     <use xlink:href="#m26fbb76846" x="122.278571" y="208.320626" style="fill: #1f77b4; stroke: #1f77b4"/>
     <use xlink:href="#m26fbb76846" x="125.313265" y="202.879717" style="fill: #1f77b4; stroke: #1f77b4"/>
     <use xlink:href="#m26fbb76846" x="128.347959" y="199.062909" style="fill: #1f77b4; stroke: #1f77b4"/>
     <use xlink:href="#m26fbb76846" x="131.382653" y="197.095283" style="fill: #1f77b4; stroke: #1f77b4"/>
     <use xlink:href="#m26fbb76846" x="134.417347" y="197.095283" style="fill: #1f77b4; stroke: #1f77b4"/>
     <use xlink:href="#m26fbb76846" x="137.452041" y="199.062909" style="fill: #1f77b4; stroke: #1f77b4"/>
     <use xlink:href="#m26fbb76846" x="140.486735" y="202.879717" style="fill: #1f77b4; stroke: #1f77b4"/>
     <use xlink:href="#m26fbb76846" x="143.521429" y="208.320626" style="fill: #1f77b4; stroke: #1f77b4"/>
     <use xlink:href="#m26fbb76846" x="146.556122" y="215.075884" style="fill: #1f77b4; stroke: #1f77b4"/>
     <use xlink:href="#m26fbb76846" x="149.590816" y="222.780226" style="fill: #1f77b4; stroke: #1f77b4"/>
     <use xlink:href="#m26fbb76846" x="152.62551" y="231.045406" style="fill: #1f77b4; stroke: #1f77b4"/>
     <use xlink:href="#m26fbb76846" x="155.660204" y="239.492097" style="fill: #1f77b4; stroke: #1f77b4"/>
     <use xlink:href="#m26fbb76846" x="158.694898" y="247.777581" style="fill: #1f77b4; stroke: #1f77b4"/>
     <use xlink:href="#m26fbb76846" x="161.729592" y="255.616599" style="fill: #1f77b4; stroke: #1f77b4"/>
     <use xlink:href="#m26fbb76846" x="164.764286" y="262.79392" style="fill: #1f77b4; stroke: #1f77b4"/>
     <use xlink:href="#m26fbb76846" x="167.79898" y="269.168477" style="fill: #1f77b4; stroke: #1f77b4"/>
     <use xlink:href="#m26fbb76846" x="170.833673" y="274.670034" style="fill: #1f77b4; stroke: #1f77b4"/>
     <use xlink:href="#m26fbb76846" x="173.868367" y="279.290081" style="fill: #1f77b4; stroke: #1f77b4"/>
     <use xlink:href="#m26fbb76846" x="176.903061" y="283.069124" style="fill: #1f77b4; stroke: #1f77b4"/>
     <use xlink:href="#m26fbb76846" x="179.937755" y="286.08246" style="fill: #1f77b4; stroke: #1f77b4"/>
     <use xlink:href="#m26fbb76846" x="182.972449" y="288.426315" style="fill: #1f77b4; stroke: #1f77b4"/>
     <use xlink:href="#m26fbb76846" x="186.007143" y="290.205683" style="fill: #1f77b4; stroke: #1f77b4"/>
     <use xlink:href="#m26fbb76846" x="189.041837" y="291.524691" style="fill: #1f77b4; stroke: #1f77b4"/>
     <use xlink:href="#m26fbb76846" x="192.076531" y="292.479768" style="fill: #1f77b4; stroke: #1f77b4"/>
     <use xlink:href="#m26fbb76846" x="195.111224" y="293.155503" style="fill: #1f77b4; stroke: #1f77b4"/>
     <use xlink:href="#m26fbb76846" x="198.145918" y="293.622786" style="fill: #1f77b4; stroke: #1f77b4"/>
     <use xlink:href="#m26fbb76846" x="201.180612" y="293.938685" style="fill: #1f77b4; stroke: #1f77b4"/>
     <use xlink:href="#m26fbb76846" x="204.215306" y="294.147504" style="fill: #1f77b4; stroke: #1f77b4"/>
     <use xlink:href="#m26fbb76846" x="207.25" y="294.2825" style="fill: #1f77b4; stroke: #1f77b4"/>
    </g>
   </g>
   <g id="patch_31">
    <path d="M 43.68 304.02 
L 222.12 304.02 
" style="fill: none; stroke: #000000; stroke-width: 0.5; stroke-linejoin: miter; stroke-linecap: square"/>
   </g>
   <g id="text_26">
    <!-- Interpolation -->
    <g transform="translate(43.68 175.17) scale(0.12 -0.12)">
     <defs>
      <path id="Lato-Bold-49" d="M 1379 0 
L 515 0 
L 515 4627 
L 1379 4627 
L 1379 0 
z
" transform="scale(0.015625)"/>
      <path id="Lato-Bold-65" d="M 1789 3334 
Q 2099 3334 2361 3235 
Q 2624 3136 2813 2945 
Q 3002 2755 3109 2478 
Q 3216 2202 3216 1846 
Q 3216 1667 3177 1604 
Q 3139 1542 3030 1542 
L 998 1542 
Q 1018 1290 1088 1106 
Q 1158 922 1273 802 
Q 1389 682 1547 622 
Q 1706 563 1898 563 
Q 2090 563 2229 608 
Q 2368 653 2472 707 
Q 2576 762 2654 806 
Q 2733 851 2806 851 
Q 2906 851 2954 778 
L 3181 490 
Q 3050 336 2886 232 
Q 2723 128 2545 65 
Q 2368 3 2184 -22 
Q 2000 -48 1827 -48 
Q 1485 -48 1190 65 
Q 896 179 678 401 
Q 461 624 336 952 
Q 211 1280 211 1712 
Q 211 2048 320 2344 
Q 429 2640 632 2859 
Q 835 3078 1128 3206 
Q 1421 3334 1789 3334 
z
M 1805 2768 
Q 1459 2768 1264 2573 
Q 1069 2378 1014 2019 
L 2506 2019 
Q 2506 2173 2462 2309 
Q 2419 2445 2332 2547 
Q 2246 2650 2113 2709 
Q 1981 2768 1805 2768 
z
" transform="scale(0.015625)"/>
      <path id="Lato-Bold-70" d="M 390 -1072 
L 390 3283 
L 874 3283 
Q 1027 3283 1075 3139 
L 1139 2835 
Q 1338 3062 1595 3203 
Q 1853 3344 2198 3344 
Q 2467 3344 2689 3232 
Q 2912 3120 3073 2907 
Q 3235 2694 3323 2382 
Q 3411 2070 3411 1667 
Q 3411 1299 3312 985 
Q 3213 672 3029 441 
Q 2845 211 2584 81 
Q 2323 -48 2000 -48 
Q 1722 -48 1528 37 
Q 1334 122 1181 272 
L 1181 -1072 
L 390 -1072 
z
M 1926 2720 
Q 1680 2720 1505 2616 
Q 1331 2512 1181 2323 
L 1181 851 
Q 1315 685 1473 619 
Q 1632 554 1818 554 
Q 1997 554 2141 621 
Q 2285 688 2385 825 
Q 2486 963 2540 1172 
Q 2595 1382 2595 1667 
Q 2595 1955 2548 2155 
Q 2502 2355 2416 2480 
Q 2330 2605 2206 2662 
Q 2083 2720 1926 2720 
z
" transform="scale(0.015625)"/>
      <path id="Lato-Bold-6c" d="M 1190 4755 
L 1190 0 
L 400 0 
L 400 4755 
L 1190 4755 
z
" transform="scale(0.015625)"/>
     </defs>
     <use xlink:href="#Lato-Bold-49"/>
     <use xlink:href="#Lato-Bold-6e" x="28.899994"/>
     <use xlink:href="#Lato-Bold-74" x="84.550003"/>
     <use xlink:href="#Lato-Bold-65" x="121.375"/>
     <use xlink:href="#Lato-Bold-72" x="174.775009"/>
     <use xlink:href="#Lato-Bold-70" x="212.075012"/>
     <use xlink:href="#Lato-Bold-6f" x="268.875015"/>
     <use xlink:href="#Lato-Bold-6c" x="326.325027"/>
     <use xlink:href="#Lato-Bold-61" x="351.175034"/>
     <use xlink:href="#Lato-Bold-74" x="401.175034"/>
     <use xlink:href="#Lato-Bold-69" x="438.375031"/>
     <use xlink:href="#Lato-Bold-6f" x="463.775024"/>
     <use xlink:href="#Lato-Bold-6e" x="521.225037"/>
    </g>
   </g>
  </g>
  <g id="axes_4">
   <g id="patch_32">
    <path d="M 271.56 304.02 
L 450 304.02 
L 450 187.17 
L 271.56 187.17 
L 271.56 304.02 
z
" style="fill: none"/>
   </g>
   <g id="matplotlib.axis_7">
    <g id="xtick_52">
     <g id="line2d_74">
      <g>
       <use xlink:href="#mebaaba8c03" x="307.672857" y="304.02" style="stroke: #000000; stroke-width: 0.5"/>
      </g>
     </g>
     <g id="text_27">
      <!-- 0 -->
      <g transform="translate(304.772857 320.885625) scale(0.1 -0.1)">
       <use xlink:href="#Lato-Regular-30"/>
      </g>
     </g>
    </g>
    <g id="xtick_53">
     <g id="line2d_75">
      <g>
       <use xlink:href="#mebaaba8c03" x="350.158571" y="304.02" style="stroke: #000000; stroke-width: 0.5"/>
      </g>
     </g>
     <g id="text_28">
      <!-- 2 -->
      <g transform="translate(347.258571 320.885625) scale(0.1 -0.1)">
       <use xlink:href="#Lato-Regular-32"/>
      </g>
     </g>
    </g>
    <g id="xtick_54">
     <g id="line2d_76">
      <g>
       <use xlink:href="#mebaaba8c03" x="392.644286" y="304.02" style="stroke: #000000; stroke-width: 0.5"/>
      </g>
     </g>
     <g id="text_29">
      <!-- 4 -->
      <g transform="translate(389.744286 320.885625) scale(0.1 -0.1)">
       <use xlink:href="#Lato-Regular-34"/>
      </g>
     </g>
    </g>
    <g id="xtick_55">
     <g id="line2d_77">
      <g>
       <use xlink:href="#mebaaba8c03" x="435.13" y="304.02" style="stroke: #000000; stroke-width: 0.5"/>
      </g>
     </g>
     <g id="text_30">
      <!-- 6 -->
      <g transform="translate(432.23 320.885625) scale(0.1 -0.1)">
       <use xlink:href="#Lato-Regular-36"/>
      </g>
     </g>
    </g>
    <g id="xtick_56">
     <g id="line2d_78">
      <g>
       <use xlink:href="#m990217b1d6" x="275.808571" y="304.02" style="stroke: #000000; stroke-width: 0.5"/>
      </g>
     </g>
    </g>
    <g id="xtick_57">
     <g id="line2d_79">
      <g>
       <use xlink:href="#m990217b1d6" x="286.43" y="304.02" style="stroke: #000000; stroke-width: 0.5"/>
      </g>
     </g>
    </g>
    <g id="xtick_58">
     <g id="line2d_80">
      <g>
       <use xlink:href="#m990217b1d6" x="297.051429" y="304.02" style="stroke: #000000; stroke-width: 0.5"/>
      </g>
     </g>
    </g>
    <g id="xtick_59">
     <g id="line2d_81">
      <g>
       <use xlink:href="#m990217b1d6" x="318.294286" y="304.02" style="stroke: #000000; stroke-width: 0.5"/>
      </g>
     </g>
    </g>
    <g id="xtick_60">
     <g id="line2d_82">
      <g>
       <use xlink:href="#m990217b1d6" x="328.915714" y="304.02" style="stroke: #000000; stroke-width: 0.5"/>
      </g>
     </g>
    </g>
    <g id="xtick_61">
     <g id="line2d_83">
      <g>
       <use xlink:href="#m990217b1d6" x="339.537143" y="304.02" style="stroke: #000000; stroke-width: 0.5"/>
      </g>
     </g>
    </g>
    <g id="xtick_62">
     <g id="line2d_84">
      <g>
       <use xlink:href="#m990217b1d6" x="360.78" y="304.02" style="stroke: #000000; stroke-width: 0.5"/>
      </g>
     </g>
    </g>
    <g id="xtick_63">
     <g id="line2d_85">
      <g>
       <use xlink:href="#m990217b1d6" x="371.401429" y="304.02" style="stroke: #000000; stroke-width: 0.5"/>
      </g>
     </g>
    </g>
    <g id="xtick_64">
     <g id="line2d_86">
      <g>
       <use xlink:href="#m990217b1d6" x="382.022857" y="304.02" style="stroke: #000000; stroke-width: 0.5"/>
      </g>
     </g>
    </g>
    <g id="xtick_65">
     <g id="line2d_87">
      <g>
       <use xlink:href="#m990217b1d6" x="403.265714" y="304.02" style="stroke: #000000; stroke-width: 0.5"/>
      </g>
     </g>
    </g>
    <g id="xtick_66">
     <g id="line2d_88">
      <g>
       <use xlink:href="#m990217b1d6" x="413.887143" y="304.02" style="stroke: #000000; stroke-width: 0.5"/>
      </g>
     </g>
    </g>
    <g id="xtick_67">
     <g id="line2d_89">
      <g>
       <use xlink:href="#m990217b1d6" x="424.508571" y="304.02" style="stroke: #000000; stroke-width: 0.5"/>
      </g>
     </g>
    </g>
    <g id="xtick_68">
     <g id="line2d_90">
      <g>
       <use xlink:href="#m990217b1d6" x="445.751429" y="304.02" style="stroke: #000000; stroke-width: 0.5"/>
      </g>
     </g>
    </g>
    <g id="text_31">
     <!-- $x$ -->
     <g transform="translate(357.78 334.030937) scale(0.1 -0.1)">
      <use xlink:href="#DejaVuSans-Oblique-78" transform="translate(0 0.3125)"/>
     </g>
    </g>
   </g>
   <g id="matplotlib.axis_8">
    <g id="ytick_16">
     <g id="line2d_91">
      <path d="M 271.56 294.2825 
L 450 294.2825 
" clip-path="url(#p1b68a6def5)" style="fill: none; stroke: #cccccc; stroke-width: 0.5; stroke-linecap: square"/>
     </g>
     <g id="text_32">
      <!-- 0.00 -->
      <g transform="translate(248.300625 297.965312) scale(0.1 -0.1)">
       <use xlink:href="#Lato-Regular-30"/>
       <use xlink:href="#Lato-Regular-2e" x="58"/>
       <use xlink:href="#Lato-Regular-30" x="81.600006"/>
       <use xlink:href="#Lato-Regular-30" x="139.600006"/>
      </g>
     </g>
    </g>
    <g id="ytick_17">
     <g id="line2d_92">
      <path d="M 271.56 269.93875 
L 450 269.93875 
" clip-path="url(#p1b68a6def5)" style="fill: none; stroke: #cccccc; stroke-width: 0.5; stroke-linecap: square"/>
     </g>
     <g id="text_33">
      <!-- 0.25 -->
      <g transform="translate(248.300625 273.621562) scale(0.1 -0.1)">
       <defs>
        <path id="Lato-Regular-35" d="M 3142 4336 
Q 3142 4214 3067 4136 
Q 2992 4058 2810 4058 
L 1370 4058 
L 1158 2854 
Q 1341 2896 1502 2913 
Q 1664 2931 1818 2931 
Q 2176 2931 2451 2825 
Q 2726 2720 2910 2534 
Q 3094 2349 3188 2096 
Q 3283 1843 3283 1546 
Q 3283 1181 3156 886 
Q 3030 592 2808 382 
Q 2586 173 2285 61 
Q 1984 -51 1635 -51 
Q 1434 -51 1248 -11 
Q 1062 29 900 96 
Q 739 163 601 249 
Q 464 336 358 432 
L 534 675 
Q 592 758 685 758 
Q 749 758 829 708 
Q 909 659 1024 598 
Q 1139 538 1294 488 
Q 1450 438 1664 438 
Q 1904 438 2096 515 
Q 2288 592 2425 734 
Q 2563 877 2636 1075 
Q 2710 1274 2710 1520 
Q 2710 1734 2648 1907 
Q 2586 2080 2459 2201 
Q 2333 2323 2144 2390 
Q 1955 2458 1702 2458 
Q 1530 2458 1342 2429 
Q 1155 2400 960 2336 
L 602 2442 
L 970 4586 
L 3142 4586 
L 3142 4336 
z
" transform="scale(0.015625)"/>
       </defs>
       <use xlink:href="#Lato-Regular-30"/>
       <use xlink:href="#Lato-Regular-2e" x="58"/>
       <use xlink:href="#Lato-Regular-32" x="81.600006"/>
       <use xlink:href="#Lato-Regular-35" x="139.600006"/>
      </g>
     </g>
    </g>
    <g id="ytick_18">
     <g id="line2d_93">
      <path d="M 271.56 245.595 
L 450 245.595 
" clip-path="url(#p1b68a6def5)" style="fill: none; stroke: #cccccc; stroke-width: 0.5; stroke-linecap: square"/>
     </g>
     <g id="text_34">
      <!-- 0.50 -->
      <g transform="translate(248.300625 249.277812) scale(0.1 -0.1)">
       <use xlink:href="#Lato-Regular-30"/>
       <use xlink:href="#Lato-Regular-2e" x="58"/>
       <use xlink:href="#Lato-Regular-35" x="81.600006"/>
       <use xlink:href="#Lato-Regular-30" x="139.600006"/>
      </g>
     </g>
    </g>
    <g id="ytick_19">
     <g id="line2d_94">
      <path d="M 271.56 221.25125 
L 450 221.25125 
" clip-path="url(#p1b68a6def5)" style="fill: none; stroke: #cccccc; stroke-width: 0.5; stroke-linecap: square"/>
     </g>
     <g id="text_35">
      <!-- 0.75 -->
      <g transform="translate(248.300625 224.934062) scale(0.1 -0.1)">
       <defs>
        <path id="Lato-Regular-37" d="M 3459 4586 
L 3459 4330 
Q 3459 4221 3435 4150 
Q 3411 4080 3389 4032 
L 1488 202 
Q 1446 118 1372 59 
Q 1299 0 1178 0 
L 768 0 
L 2694 3782 
Q 2736 3862 2779 3929 
Q 2822 3997 2877 4058 
L 483 4058 
Q 429 4058 387 4101 
Q 346 4144 346 4198 
L 346 4586 
L 3459 4586 
z
" transform="scale(0.015625)"/>
       </defs>
       <use xlink:href="#Lato-Regular-30"/>
       <use xlink:href="#Lato-Regular-2e" x="58"/>
       <use xlink:href="#Lato-Regular-37" x="81.600006"/>
       <use xlink:href="#Lato-Regular-35" x="139.600006"/>
      </g>
     </g>
    </g>
    <g id="ytick_20">
     <g id="line2d_95">
      <path d="M 271.56 196.9075 
L 450 196.9075 
" clip-path="url(#p1b68a6def5)" style="fill: none; stroke: #cccccc; stroke-width: 0.5; stroke-linecap: square"/>
     </g>
     <g id="text_36">
      <!-- 1.00 -->
      <g transform="translate(248.300625 200.590312) scale(0.1 -0.1)">
       <use xlink:href="#Lato-Regular-31"/>
       <use xlink:href="#Lato-Regular-2e" x="58"/>
       <use xlink:href="#Lato-Regular-30" x="81.600006"/>
       <use xlink:href="#Lato-Regular-30" x="139.600006"/>
      </g>
     </g>
    </g>
    <g id="text_37">
     <!-- $P(X \leq x)$ -->
     <g transform="translate(242.625625 265.045) rotate(-90) scale(0.1 -0.1)">
      <defs>
       <path id="DejaVuSans-Oblique-58" d="M 878 4666 
L 1516 4666 
L 2316 2981 
L 3763 4666 
L 4500 4666 
L 2578 2438 
L 3738 0 
L 3103 0 
L 2163 1966 
L 459 0 
L -275 0 
L 1906 2509 
L 878 4666 
z
" transform="scale(0.015625)"/>
       <path id="DejaVuSans-2264" d="M 4684 3175 
L 1684 2309 
L 4684 1453 
L 4684 897 
L 678 2047 
L 678 2578 
L 4684 3725 
L 4684 3175 
z
M 678 531 
L 4684 531 
L 4684 0 
L 678 0 
L 678 531 
z
" transform="scale(0.015625)"/>
      </defs>
      <use xlink:href="#DejaVuSans-Oblique-50" transform="translate(0 0.125)"/>
      <use xlink:href="#DejaVuSans-28" transform="translate(60.302734 0.125)"/>
      <use xlink:href="#DejaVuSans-Oblique-58" transform="translate(99.316406 0.125)"/>
      <use xlink:href="#DejaVuSans-2264" transform="translate(187.304688 0.125)"/>
      <use xlink:href="#DejaVuSans-Oblique-78" transform="translate(290.576172 0.125)"/>
      <use xlink:href="#DejaVuSans-29" transform="translate(349.755859 0.125)"/>
     </g>
    </g>
   </g>
   <g id="line2d_96">
    <path d="M 286.43 294.259848 
L 287.93202 294.253036 
L 289.43404 294.244357 
L 290.936061 294.233352 
L 292.438081 294.219469 
L 293.940101 294.20204 
L 295.442121 294.180272 
L 296.944141 294.153217 
L 298.446162 294.11976 
L 299.948182 294.078593 
L 301.450202 294.02819 
L 302.952222 293.966788 
L 304.454242 293.89236 
L 305.956263 293.80259 
L 307.458283 293.694858 
L 308.960303 293.566213 
L 310.462323 293.413362 
L 311.964343 293.232654 
L 313.466364 293.020079 
L 314.968384 292.771263 
L 316.470404 292.48148 
L 317.972424 292.145665 
L 319.474444 291.758449 
L 320.976465 291.314187 
L 322.478485 290.807018 
L 323.980505 290.23092 
L 325.482525 289.579786 
L 326.984545 288.847513 
L 328.486566 288.028094 
L 329.988586 287.115729 
L 331.490606 286.104939 
L 332.992626 284.99069 
L 334.494646 283.768514 
L 335.996667 282.43464 
L 337.498687 280.986116 
L 339.000707 279.42093 
L 340.502727 277.738117 
L 342.004747 275.937855 
L 343.506768 274.021549 
L 345.008788 271.991886 
L 346.510808 269.852877 
L 348.012828 267.609868 
L 349.514848 265.269529 
L 351.016869 262.839808 
L 352.518889 260.329866 
L 354.020909 257.749979 
L 355.522929 255.111418 
L 357.024949 252.4263 
L 358.52697 249.707425 
L 360.02899 246.968093 
L 361.53101 244.221907 
L 363.03303 241.482575 
L 364.535051 238.7637 
L 366.037071 236.078582 
L 367.539091 233.440021 
L 369.041111 230.860134 
L 370.543131 228.350192 
L 372.045152 225.920471 
L 373.547172 223.580132 
L 375.049192 221.337123 
L 376.551212 219.198114 
L 378.053232 217.168451 
L 379.555253 215.252145 
L 381.057273 213.451883 
L 382.559293 211.76907 
L 384.061313 210.203884 
L 385.563333 208.75536 
L 387.065354 207.421486 
L 388.567374 206.19931 
L 390.069394 205.085061 
L 391.571414 204.074271 
L 393.073434 203.161906 
L 394.575455 202.342487 
L 396.077475 201.610214 
L 397.579495 200.95908 
L 399.081515 200.382982 
L 400.583535 199.875813 
L 402.085556 199.431551 
L 403.587576 199.044335 
L 405.089596 198.70852 
L 406.591616 198.418737 
L 408.093636 198.169921 
L 409.595657 197.957346 
L 411.097677 197.776638 
L 412.599697 197.623787 
L 414.101717 197.495142 
L 415.603737 197.38741 
L 417.105758 197.29764 
L 418.607778 197.223212 
L 420.109798 197.16181 
L 421.611818 197.111407 
L 423.113838 197.07024 
L 424.615859 197.036783 
L 426.117879 197.009728 
L 427.619899 196.98796 
L 429.121919 196.970531 
L 430.623939 196.956648 
L 432.12596 196.945643 
L 433.62798 196.936964 
L 435.13 196.930152 
" clip-path="url(#p1b68a6def5)" style="fill: none; stroke: #ff7f0e; stroke-linecap: square"/>
   </g>
   <g id="line2d_97">
    <g clip-path="url(#p1b68a6def5)">
     <use xlink:href="#m26fbb76846" x="294.775696" y="294.2825" style="fill: #1f77b4; stroke: #1f77b4"/>
     <use xlink:href="#m26fbb76846" x="295.134637" y="294.185125" style="fill: #1f77b4; stroke: #1f77b4"/>
     <use xlink:href="#m26fbb76846" x="334.937131" y="283.387319" style="fill: #1f77b4; stroke: #1f77b4"/>
     <use xlink:href="#m26fbb76846" x="344.574982" y="272.589514" style="fill: #1f77b4; stroke: #1f77b4"/>
     <use xlink:href="#m26fbb76846" x="351.649592" y="261.791708" style="fill: #1f77b4; stroke: #1f77b4"/>
     <use xlink:href="#m26fbb76846" x="357.818128" y="250.993903" style="fill: #1f77b4; stroke: #1f77b4"/>
     <use xlink:href="#m26fbb76846" x="363.741872" y="240.196097" style="fill: #1f77b4; stroke: #1f77b4"/>
     <use xlink:href="#m26fbb76846" x="369.910408" y="229.398292" style="fill: #1f77b4; stroke: #1f77b4"/>
     <use xlink:href="#m26fbb76846" x="376.985018" y="218.600486" style="fill: #1f77b4; stroke: #1f77b4"/>
     <use xlink:href="#m26fbb76846" x="386.622869" y="207.802681" style="fill: #1f77b4; stroke: #1f77b4"/>
     <use xlink:href="#m26fbb76846" x="426.425363" y="197.004875" style="fill: #1f77b4; stroke: #1f77b4"/>
     <use xlink:href="#m26fbb76846" x="426.784304" y="196.9075" style="fill: #1f77b4; stroke: #1f77b4"/>
    </g>
   </g>
   <g id="patch_33">
    <path d="M 271.56 304.02 
L 450 304.02 
" style="fill: none; stroke: #000000; stroke-width: 0.5; stroke-linejoin: miter; stroke-linecap: square"/>
   </g>
   <g id="text_38">
    <!-- Quantiles -->
    <g transform="translate(271.56 175.17) scale(0.12 -0.12)">
     <defs>
      <path id="Lato-Bold-51" d="M 4931 2314 
Q 4931 2003 4867 1720 
Q 4803 1437 4683 1189 
Q 4563 941 4390 734 
Q 4218 528 3997 371 
L 5171 -906 
L 4461 -906 
Q 4307 -906 4184 -864 
Q 4061 -822 3958 -710 
L 3280 38 
Q 3117 -6 2945 -28 
Q 2774 -51 2589 -51 
Q 2064 -51 1632 126 
Q 1200 304 891 621 
Q 582 938 412 1371 
Q 243 1805 243 2314 
Q 243 2822 412 3256 
Q 582 3690 891 4006 
Q 1200 4323 1632 4500 
Q 2064 4678 2589 4678 
Q 2941 4678 3251 4596 
Q 3562 4515 3821 4366 
Q 4080 4218 4286 4005 
Q 4493 3792 4637 3529 
Q 4781 3267 4856 2960 
Q 4931 2653 4931 2314 
z
M 4051 2314 
Q 4051 2694 3948 2996 
Q 3846 3299 3657 3510 
Q 3469 3722 3198 3834 
Q 2928 3946 2589 3946 
Q 2250 3946 1979 3834 
Q 1709 3722 1518 3510 
Q 1328 3299 1225 2996 
Q 1123 2694 1123 2314 
Q 1123 1933 1225 1630 
Q 1328 1328 1518 1118 
Q 1709 909 1979 797 
Q 2250 685 2589 685 
Q 2928 685 3198 797 
Q 3469 909 3657 1118 
Q 3846 1328 3948 1630 
Q 4051 1933 4051 2314 
z
" transform="scale(0.015625)"/>
     </defs>
     <use xlink:href="#Lato-Bold-51"/>
     <use xlink:href="#Lato-Bold-75" x="80.175018"/>
     <use xlink:href="#Lato-Bold-61" x="136.575027"/>
     <use xlink:href="#Lato-Bold-6e" x="187.325027"/>
     <use xlink:href="#Lato-Bold-74" x="242.975037"/>
     <use xlink:href="#Lato-Bold-69" x="280.175034"/>
     <use xlink:href="#Lato-Bold-6c" x="305.575027"/>
     <use xlink:href="#Lato-Bold-65" x="330.425034"/>
     <use xlink:href="#Lato-Bold-73" x="383.825043"/>
    </g>
   </g>
  </g>
 </g>
 <defs>
  <clipPath id="p9f89552969">
   <rect x="43.68" y="32.16" width="178.44" height="116.85"/>
  </clipPath>
  <clipPath id="p0fca927ccd">
   <rect x="271.56" y="32.16" width="178.44" height="116.85"/>
  </clipPath>
  <clipPath id="p42224188ec">
   <rect x="43.68" y="187.17" width="178.44" height="116.85"/>
  </clipPath>
  <clipPath id="p1b68a6def5">
   <rect x="271.56" y="187.17" width="178.44" height="116.85"/>
  </clipPath>
 </defs>
</svg>
