<?xml version="1.0" encoding="utf-8" standalone="no"?>
<!DOCTYPE svg PUBLIC "-//W3C//DTD SVG 1.1//EN"
  "http://www.w3.org/Graphics/SVG/1.1/DTD/svg11.dtd">
<svg xmlns:xlink="http://www.w3.org/1999/xlink" width="460.8pt" height="345.6pt" viewBox="0 0 460.8 345.6" xmlns="http://www.w3.org/2000/svg" version="1.1">
 <metadata>
  <rdf:RDF xmlns:dc="http://purl.org/dc/elements/1.1/" xmlns:cc="http://creativecommons.org/ns#" xmlns:rdf="http://www.w3.org/1999/02/22-rdf-syntax-ns#">
   <cc:Work>
    <dc:type rdf:resource="http://purl.org/dc/dcmitype/StillImage"/>
    <dc:date>2025-04-09T15:27:44.672925</dc:date>
    <dc:format>image/svg+xml</dc:format>
    <dc:creator>
     <cc:Agent>
      <dc:title>Matplotlib v3.9.2, https://matplotlib.org/</dc:title>
     </cc:Agent>
    </dc:creator>
   </cc:Work>
  </rdf:RDF>
 </metadata>
 <defs>
  <style type="text/css">*{stroke-linejoin: round; stroke-linecap: butt}</style>
 </defs>
 <g id="figure_1">
  <g id="patch_1">
   <path d="M 0 345.6 
L 460.8 345.6 
L 460.8 0 
L 0 0 
L 0 345.6 
z
" style="fill: none"/>
  </g>
  <g id="axes_1">
   <g id="patch_2">
    <path d="M 57.6 307.584 
L 414.72 307.584 
L 414.72 41.472 
L 57.6 41.472 
L 57.6 307.584 
z
" style="fill: none"/>
   </g>
   <g id="matplotlib.axis_1">
    <g id="xtick_1">
     <g id="line2d_1">
      <defs>
       <path id="m0c79ffa419" d="M 0 0 
L 0 6 
" style="stroke: #000000; stroke-width: 0.5"/>
      </defs>
      <g>
       <use xlink:href="#m0c79ffa419" x="87.36" y="307.584" style="stroke: #000000; stroke-width: 0.5"/>
      </g>
     </g>
     <g id="text_1">
      <!-- 2.0 -->
      <g transform="translate(80.380312 324.449625) scale(0.1 -0.1)">
       <defs>
        <path id="Lato-Regular-32" d="M 1891 4637 
Q 2182 4637 2435 4550 
Q 2688 4464 2873 4299 
Q 3059 4134 3164 3897 
Q 3270 3661 3270 3360 
Q 3270 3104 3193 2885 
Q 3117 2666 2985 2467 
Q 2854 2269 2683 2080 
Q 2512 1891 2320 1699 
L 1110 464 
Q 1238 499 1369 520 
Q 1501 541 1622 541 
L 3158 541 
Q 3251 541 3305 486 
Q 3360 432 3360 346 
L 3360 0 
L 301 0 
L 301 195 
Q 301 256 326 320 
Q 352 384 406 438 
L 1875 1914 
Q 2058 2099 2208 2270 
Q 2358 2442 2464 2614 
Q 2570 2787 2627 2964 
Q 2685 3142 2685 3344 
Q 2685 3546 2621 3698 
Q 2557 3850 2446 3949 
Q 2336 4048 2185 4097 
Q 2035 4147 1862 4147 
Q 1686 4147 1539 4096 
Q 1392 4045 1278 3953 
Q 1165 3862 1088 3737 
Q 1011 3613 979 3462 
Q 941 3350 875 3313 
Q 810 3277 691 3293 
L 394 3344 
Q 438 3658 568 3899 
Q 698 4141 894 4304 
Q 1091 4467 1344 4552 
Q 1597 4637 1891 4637 
z
" transform="scale(0.015625)"/>
        <path id="Lato-Regular-2e" d="M 355 352 
Q 355 435 385 508 
Q 416 582 469 636 
Q 522 691 595 723 
Q 669 755 752 755 
Q 835 755 908 723 
Q 982 691 1036 636 
Q 1091 582 1123 508 
Q 1155 435 1155 352 
Q 1155 266 1123 194 
Q 1091 122 1036 67 
Q 982 13 908 -17 
Q 835 -48 752 -48 
Q 669 -48 595 -17 
Q 522 13 469 67 
Q 416 122 385 194 
Q 355 266 355 352 
z
" transform="scale(0.015625)"/>
        <path id="Lato-Regular-30" d="M 3520 2291 
Q 3520 1690 3390 1250 
Q 3261 810 3037 522 
Q 2813 234 2507 93 
Q 2202 -48 1853 -48 
Q 1501 -48 1198 93 
Q 896 234 672 522 
Q 448 810 320 1250 
Q 192 1690 192 2291 
Q 192 2893 320 3334 
Q 448 3776 672 4065 
Q 896 4355 1198 4496 
Q 1501 4637 1853 4637 
Q 2202 4637 2507 4496 
Q 2813 4355 3037 4065 
Q 3261 3776 3390 3334 
Q 3520 2893 3520 2291 
z
M 2928 2291 
Q 2928 2816 2840 3173 
Q 2752 3530 2603 3747 
Q 2454 3965 2259 4059 
Q 2064 4154 1853 4154 
Q 1642 4154 1446 4059 
Q 1251 3965 1104 3747 
Q 957 3530 869 3173 
Q 781 2816 781 2291 
Q 781 1766 869 1411 
Q 957 1056 1104 838 
Q 1251 621 1446 526 
Q 1642 432 1853 432 
Q 2064 432 2259 526 
Q 2454 621 2603 838 
Q 2752 1056 2840 1411 
Q 2928 1766 2928 2291 
z
" transform="scale(0.015625)"/>
       </defs>
       <use xlink:href="#Lato-Regular-32"/>
       <use xlink:href="#Lato-Regular-2e" x="58"/>
       <use xlink:href="#Lato-Regular-30" x="81.600006"/>
      </g>
     </g>
    </g>
    <g id="xtick_2">
     <g id="line2d_2">
      <g>
       <use xlink:href="#m0c79ffa419" x="161.76" y="307.584" style="stroke: #000000; stroke-width: 0.5"/>
      </g>
     </g>
     <g id="text_2">
      <!-- 2.5 -->
      <g transform="translate(154.780312 324.449625) scale(0.1 -0.1)">
       <defs>
        <path id="Lato-Regular-35" d="M 3142 4336 
Q 3142 4214 3067 4136 
Q 2992 4058 2810 4058 
L 1370 4058 
L 1158 2854 
Q 1341 2896 1502 2913 
Q 1664 2931 1818 2931 
Q 2176 2931 2451 2825 
Q 2726 2720 2910 2534 
Q 3094 2349 3188 2096 
Q 3283 1843 3283 1546 
Q 3283 1181 3156 886 
Q 3030 592 2808 382 
Q 2586 173 2285 61 
Q 1984 -51 1635 -51 
Q 1434 -51 1248 -11 
Q 1062 29 900 96 
Q 739 163 601 249 
Q 464 336 358 432 
L 534 675 
Q 592 758 685 758 
Q 749 758 829 708 
Q 909 659 1024 598 
Q 1139 538 1294 488 
Q 1450 438 1664 438 
Q 1904 438 2096 515 
Q 2288 592 2425 734 
Q 2563 877 2636 1075 
Q 2710 1274 2710 1520 
Q 2710 1734 2648 1907 
Q 2586 2080 2459 2201 
Q 2333 2323 2144 2390 
Q 1955 2458 1702 2458 
Q 1530 2458 1342 2429 
Q 1155 2400 960 2336 
L 602 2442 
L 970 4586 
L 3142 4586 
L 3142 4336 
z
" transform="scale(0.015625)"/>
       </defs>
       <use xlink:href="#Lato-Regular-32"/>
       <use xlink:href="#Lato-Regular-2e" x="58"/>
       <use xlink:href="#Lato-Regular-35" x="81.600006"/>
      </g>
     </g>
    </g>
    <g id="xtick_3">
     <g id="line2d_3">
      <g>
       <use xlink:href="#m0c79ffa419" x="236.16" y="307.584" style="stroke: #000000; stroke-width: 0.5"/>
      </g>
     </g>
     <g id="text_3">
      <!-- 3.0 -->
      <g transform="translate(229.180312 324.449625) scale(0.1 -0.1)">
       <defs>
        <path id="Lato-Regular-33" d="M 1914 4637 
Q 2205 4637 2451 4553 
Q 2698 4470 2875 4316 
Q 3053 4163 3152 3945 
Q 3251 3728 3251 3462 
Q 3251 3245 3195 3073 
Q 3139 2902 3035 2772 
Q 2931 2643 2784 2553 
Q 2637 2464 2454 2410 
Q 2902 2291 3128 2012 
Q 3354 1734 3354 1315 
Q 3354 998 3234 745 
Q 3114 493 2906 315 
Q 2698 138 2421 43 
Q 2144 -51 1827 -51 
Q 1462 -51 1203 40 
Q 944 131 765 291 
Q 586 451 470 670 
Q 355 890 275 1146 
L 522 1248 
Q 618 1290 709 1270 
Q 800 1251 842 1165 
Q 883 1075 945 950 
Q 1008 826 1117 710 
Q 1226 595 1394 515 
Q 1562 435 1821 435 
Q 2061 435 2241 513 
Q 2422 592 2542 717 
Q 2662 842 2723 995 
Q 2784 1149 2784 1299 
Q 2784 1485 2736 1638 
Q 2688 1792 2557 1904 
Q 2426 2016 2197 2080 
Q 1968 2144 1610 2144 
L 1610 2557 
Q 1904 2560 2110 2621 
Q 2317 2682 2446 2787 
Q 2576 2893 2635 3040 
Q 2694 3187 2694 3366 
Q 2694 3565 2632 3712 
Q 2570 3859 2461 3955 
Q 2352 4051 2203 4099 
Q 2054 4147 1882 4147 
Q 1709 4147 1560 4096 
Q 1411 4045 1297 3953 
Q 1184 3862 1107 3737 
Q 1030 3613 998 3462 
Q 957 3350 894 3313 
Q 832 3277 714 3293 
L 416 3344 
Q 461 3658 589 3899 
Q 717 4141 913 4304 
Q 1110 4467 1364 4552 
Q 1619 4637 1914 4637 
z
" transform="scale(0.015625)"/>
       </defs>
       <use xlink:href="#Lato-Regular-33"/>
       <use xlink:href="#Lato-Regular-2e" x="58"/>
       <use xlink:href="#Lato-Regular-30" x="81.600006"/>
      </g>
     </g>
    </g>
    <g id="xtick_4">
     <g id="line2d_4">
      <g>
       <use xlink:href="#m0c79ffa419" x="310.56" y="307.584" style="stroke: #000000; stroke-width: 0.5"/>
      </g>
     </g>
     <g id="text_4">
      <!-- 3.5 -->
      <g transform="translate(303.580312 324.449625) scale(0.1 -0.1)">
       <use xlink:href="#Lato-Regular-33"/>
       <use xlink:href="#Lato-Regular-2e" x="58"/>
       <use xlink:href="#Lato-Regular-35" x="81.600006"/>
      </g>
     </g>
    </g>
    <g id="xtick_5">
     <g id="line2d_5">
      <g>
       <use xlink:href="#m0c79ffa419" x="384.96" y="307.584" style="stroke: #000000; stroke-width: 0.5"/>
      </g>
     </g>
     <g id="text_5">
      <!-- 4.0 -->
      <g transform="translate(377.980312 324.449625) scale(0.1 -0.1)">
       <defs>
        <path id="Lato-Regular-34" d="M 2835 1654 
L 3530 1654 
L 3530 1328 
Q 3530 1277 3499 1241 
Q 3469 1206 3405 1206 
L 2835 1206 
L 2835 0 
L 2336 0 
L 2336 1206 
L 301 1206 
Q 237 1206 190 1243 
Q 144 1280 131 1334 
L 74 1626 
L 2304 4586 
L 2835 4586 
L 2835 1654 
z
M 2336 3546 
Q 2336 3629 2341 3726 
Q 2346 3824 2362 3926 
L 691 1654 
L 2336 1654 
L 2336 3546 
z
" transform="scale(0.015625)"/>
       </defs>
       <use xlink:href="#Lato-Regular-34"/>
       <use xlink:href="#Lato-Regular-2e" x="58"/>
       <use xlink:href="#Lato-Regular-30" x="81.600006"/>
      </g>
     </g>
    </g>
    <g id="xtick_6">
     <g id="line2d_6">
      <defs>
       <path id="mc38ae5d98b" d="M 0 0 
L 0 3 
" style="stroke: #000000; stroke-width: 0.5"/>
      </defs>
      <g>
       <use xlink:href="#mc38ae5d98b" x="57.6" y="307.584" style="stroke: #000000; stroke-width: 0.5"/>
      </g>
     </g>
    </g>
    <g id="xtick_7">
     <g id="line2d_7">
      <g>
       <use xlink:href="#mc38ae5d98b" x="72.48" y="307.584" style="stroke: #000000; stroke-width: 0.5"/>
      </g>
     </g>
    </g>
    <g id="xtick_8">
     <g id="line2d_8">
      <g>
       <use xlink:href="#mc38ae5d98b" x="102.24" y="307.584" style="stroke: #000000; stroke-width: 0.5"/>
      </g>
     </g>
    </g>
    <g id="xtick_9">
     <g id="line2d_9">
      <g>
       <use xlink:href="#mc38ae5d98b" x="117.12" y="307.584" style="stroke: #000000; stroke-width: 0.5"/>
      </g>
     </g>
    </g>
    <g id="xtick_10">
     <g id="line2d_10">
      <g>
       <use xlink:href="#mc38ae5d98b" x="132" y="307.584" style="stroke: #000000; stroke-width: 0.5"/>
      </g>
     </g>
    </g>
    <g id="xtick_11">
     <g id="line2d_11">
      <g>
       <use xlink:href="#mc38ae5d98b" x="146.88" y="307.584" style="stroke: #000000; stroke-width: 0.5"/>
      </g>
     </g>
    </g>
    <g id="xtick_12">
     <g id="line2d_12">
      <g>
       <use xlink:href="#mc38ae5d98b" x="176.64" y="307.584" style="stroke: #000000; stroke-width: 0.5"/>
      </g>
     </g>
    </g>
    <g id="xtick_13">
     <g id="line2d_13">
      <g>
       <use xlink:href="#mc38ae5d98b" x="191.52" y="307.584" style="stroke: #000000; stroke-width: 0.5"/>
      </g>
     </g>
    </g>
    <g id="xtick_14">
     <g id="line2d_14">
      <g>
       <use xlink:href="#mc38ae5d98b" x="206.4" y="307.584" style="stroke: #000000; stroke-width: 0.5"/>
      </g>
     </g>
    </g>
    <g id="xtick_15">
     <g id="line2d_15">
      <g>
       <use xlink:href="#mc38ae5d98b" x="221.28" y="307.584" style="stroke: #000000; stroke-width: 0.5"/>
      </g>
     </g>
    </g>
    <g id="xtick_16">
     <g id="line2d_16">
      <g>
       <use xlink:href="#mc38ae5d98b" x="251.04" y="307.584" style="stroke: #000000; stroke-width: 0.5"/>
      </g>
     </g>
    </g>
    <g id="xtick_17">
     <g id="line2d_17">
      <g>
       <use xlink:href="#mc38ae5d98b" x="265.92" y="307.584" style="stroke: #000000; stroke-width: 0.5"/>
      </g>
     </g>
    </g>
    <g id="xtick_18">
     <g id="line2d_18">
      <g>
       <use xlink:href="#mc38ae5d98b" x="280.8" y="307.584" style="stroke: #000000; stroke-width: 0.5"/>
      </g>
     </g>
    </g>
    <g id="xtick_19">
     <g id="line2d_19">
      <g>
       <use xlink:href="#mc38ae5d98b" x="295.68" y="307.584" style="stroke: #000000; stroke-width: 0.5"/>
      </g>
     </g>
    </g>
    <g id="xtick_20">
     <g id="line2d_20">
      <g>
       <use xlink:href="#mc38ae5d98b" x="325.44" y="307.584" style="stroke: #000000; stroke-width: 0.5"/>
      </g>
     </g>
    </g>
    <g id="xtick_21">
     <g id="line2d_21">
      <g>
       <use xlink:href="#mc38ae5d98b" x="340.32" y="307.584" style="stroke: #000000; stroke-width: 0.5"/>
      </g>
     </g>
    </g>
    <g id="xtick_22">
     <g id="line2d_22">
      <g>
       <use xlink:href="#mc38ae5d98b" x="355.2" y="307.584" style="stroke: #000000; stroke-width: 0.5"/>
      </g>
     </g>
    </g>
    <g id="xtick_23">
     <g id="line2d_23">
      <g>
       <use xlink:href="#mc38ae5d98b" x="370.08" y="307.584" style="stroke: #000000; stroke-width: 0.5"/>
      </g>
     </g>
    </g>
    <g id="xtick_24">
     <g id="line2d_24">
      <g>
       <use xlink:href="#mc38ae5d98b" x="399.84" y="307.584" style="stroke: #000000; stroke-width: 0.5"/>
      </g>
     </g>
    </g>
    <g id="xtick_25">
     <g id="line2d_25">
      <g>
       <use xlink:href="#mc38ae5d98b" x="414.72" y="307.584" style="stroke: #000000; stroke-width: 0.5"/>
      </g>
     </g>
    </g>
    <g id="text_6">
     <!-- $x$ -->
     <g transform="translate(233.16 337.594937) scale(0.1 -0.1)">
      <defs>
       <path id="DejaVuSans-Oblique-78" d="M 3841 3500 
L 2234 1784 
L 3219 0 
L 2559 0 
L 1819 1388 
L 531 0 
L -166 0 
L 1556 1844 
L 641 3500 
L 1300 3500 
L 1972 2234 
L 3144 3500 
L 3841 3500 
z
" transform="scale(0.015625)"/>
      </defs>
      <use xlink:href="#DejaVuSans-Oblique-78" transform="translate(0 0.3125)"/>
     </g>
    </g>
   </g>
   <g id="matplotlib.axis_2">
    <g id="ytick_1">
     <g id="line2d_26">
      <path d="M 57.6 285.408 
L 414.72 285.408 
" clip-path="url(#p09486cb640)" style="fill: none; stroke: #cccccc; stroke-width: 0.5; stroke-linecap: square"/>
     </g>
     <g id="text_7">
      <!-- 0.0 -->
      <g transform="translate(40.140625 289.090812) scale(0.1 -0.1)">
       <use xlink:href="#Lato-Regular-30"/>
       <use xlink:href="#Lato-Regular-2e" x="58"/>
       <use xlink:href="#Lato-Regular-30" x="81.600006"/>
      </g>
     </g>
    </g>
    <g id="ytick_2">
     <g id="line2d_27">
      <path d="M 57.6 241.056 
L 414.72 241.056 
" clip-path="url(#p09486cb640)" style="fill: none; stroke: #cccccc; stroke-width: 0.5; stroke-linecap: square"/>
     </g>
     <g id="text_8">
      <!-- 0.2 -->
      <g transform="translate(40.140625 244.738812) scale(0.1 -0.1)">
       <use xlink:href="#Lato-Regular-30"/>
       <use xlink:href="#Lato-Regular-2e" x="58"/>
       <use xlink:href="#Lato-Regular-32" x="81.600006"/>
      </g>
     </g>
    </g>
    <g id="ytick_3">
     <g id="line2d_28">
      <path d="M 57.6 196.704 
L 414.72 196.704 
" clip-path="url(#p09486cb640)" style="fill: none; stroke: #cccccc; stroke-width: 0.5; stroke-linecap: square"/>
     </g>
     <g id="text_9">
      <!-- 0.4 -->
      <g transform="translate(40.140625 200.386812) scale(0.1 -0.1)">
       <use xlink:href="#Lato-Regular-30"/>
       <use xlink:href="#Lato-Regular-2e" x="58"/>
       <use xlink:href="#Lato-Regular-34" x="81.600006"/>
      </g>
     </g>
    </g>
    <g id="ytick_4">
     <g id="line2d_29">
      <path d="M 57.6 152.352 
L 414.72 152.352 
" clip-path="url(#p09486cb640)" style="fill: none; stroke: #cccccc; stroke-width: 0.5; stroke-linecap: square"/>
     </g>
     <g id="text_10">
      <!-- 0.6 -->
      <g transform="translate(40.140625 156.034813) scale(0.1 -0.1)">
       <defs>
        <path id="Lato-Regular-36" d="M 1517 2867 
Q 1453 2790 1398 2716 
Q 1344 2643 1290 2573 
Q 1453 2685 1649 2747 
Q 1846 2810 2077 2810 
Q 2355 2810 2601 2718 
Q 2848 2627 3032 2452 
Q 3216 2278 3325 2024 
Q 3434 1770 3434 1443 
Q 3434 1126 3318 854 
Q 3203 582 2996 380 
Q 2790 179 2500 64 
Q 2211 -51 1862 -51 
Q 1517 -51 1235 59 
Q 954 170 757 373 
Q 560 576 453 865 
Q 346 1155 346 1514 
Q 346 1814 478 2155 
Q 611 2496 902 2883 
L 2067 4448 
Q 2112 4506 2190 4546 
Q 2269 4586 2371 4586 
L 2877 4586 
L 1517 2867 
z
M 893 1414 
Q 893 1194 957 1011 
Q 1021 829 1144 697 
Q 1267 566 1444 494 
Q 1622 422 1850 422 
Q 2080 422 2267 496 
Q 2454 570 2587 701 
Q 2720 832 2792 1011 
Q 2864 1190 2864 1402 
Q 2864 1626 2793 1806 
Q 2723 1987 2593 2113 
Q 2464 2240 2285 2307 
Q 2106 2374 1891 2374 
Q 1661 2374 1475 2296 
Q 1290 2218 1160 2085 
Q 1030 1952 961 1777 
Q 893 1603 893 1414 
z
" transform="scale(0.015625)"/>
       </defs>
       <use xlink:href="#Lato-Regular-30"/>
       <use xlink:href="#Lato-Regular-2e" x="58"/>
       <use xlink:href="#Lato-Regular-36" x="81.600006"/>
      </g>
     </g>
    </g>
    <g id="ytick_5">
     <g id="line2d_30">
      <path d="M 57.6 108 
L 414.72 108 
" clip-path="url(#p09486cb640)" style="fill: none; stroke: #cccccc; stroke-width: 0.5; stroke-linecap: square"/>
     </g>
     <g id="text_11">
      <!-- 0.8 -->
      <g transform="translate(40.140625 111.682813) scale(0.1 -0.1)">
       <defs>
        <path id="Lato-Regular-38" d="M 1856 -51 
Q 1514 -51 1229 40 
Q 944 131 739 300 
Q 534 470 422 712 
Q 310 954 310 1254 
Q 310 1696 540 1982 
Q 771 2269 1200 2390 
Q 838 2525 654 2792 
Q 470 3059 470 3430 
Q 470 3683 569 3904 
Q 669 4125 851 4288 
Q 1034 4451 1288 4544 
Q 1542 4637 1856 4637 
Q 2166 4637 2422 4544 
Q 2678 4451 2860 4288 
Q 3043 4125 3142 3904 
Q 3242 3683 3242 3430 
Q 3242 3059 3056 2792 
Q 2870 2525 2512 2390 
Q 2941 2269 3171 1982 
Q 3402 1696 3402 1254 
Q 3402 954 3288 712 
Q 3174 470 2971 300 
Q 2768 131 2483 40 
Q 2198 -51 1856 -51 
z
M 1856 403 
Q 2080 403 2257 465 
Q 2435 528 2558 641 
Q 2682 755 2747 913 
Q 2813 1072 2813 1264 
Q 2813 1501 2734 1669 
Q 2656 1837 2523 1942 
Q 2390 2048 2217 2097 
Q 2045 2147 1856 2147 
Q 1667 2147 1494 2097 
Q 1322 2048 1189 1942 
Q 1056 1837 977 1669 
Q 899 1501 899 1264 
Q 899 1072 964 913 
Q 1030 755 1153 641 
Q 1277 528 1454 465 
Q 1632 403 1856 403 
z
M 1856 2605 
Q 2080 2605 2238 2673 
Q 2397 2742 2496 2856 
Q 2595 2970 2640 3117 
Q 2685 3264 2685 3421 
Q 2685 3581 2632 3721 
Q 2579 3862 2475 3968 
Q 2371 4074 2216 4134 
Q 2061 4195 1856 4195 
Q 1651 4195 1496 4134 
Q 1341 4074 1237 3968 
Q 1133 3862 1080 3721 
Q 1027 3581 1027 3421 
Q 1027 3264 1072 3117 
Q 1117 2970 1216 2856 
Q 1315 2742 1473 2673 
Q 1632 2605 1856 2605 
z
" transform="scale(0.015625)"/>
       </defs>
       <use xlink:href="#Lato-Regular-30"/>
       <use xlink:href="#Lato-Regular-2e" x="58"/>
       <use xlink:href="#Lato-Regular-38" x="81.600006"/>
      </g>
     </g>
    </g>
    <g id="ytick_6">
     <g id="line2d_31">
      <path d="M 57.6 63.648 
L 414.72 63.648 
" clip-path="url(#p09486cb640)" style="fill: none; stroke: #cccccc; stroke-width: 0.5; stroke-linecap: square"/>
     </g>
     <g id="text_12">
      <!-- 1.0 -->
      <g transform="translate(40.140625 67.330812) scale(0.1 -0.1)">
       <defs>
        <path id="Lato-Regular-31" d="M 800 435 
L 1782 435 
L 1782 3562 
Q 1782 3696 1792 3846 
L 976 3146 
Q 934 3110 892 3102 
Q 851 3094 816 3100 
Q 781 3107 750 3126 
Q 720 3146 704 3168 
L 525 3414 
L 1891 4595 
L 2355 4595 
L 2355 435 
L 3258 435 
L 3258 0 
L 800 0 
L 800 435 
z
" transform="scale(0.015625)"/>
       </defs>
       <use xlink:href="#Lato-Regular-31"/>
       <use xlink:href="#Lato-Regular-2e" x="58"/>
       <use xlink:href="#Lato-Regular-30" x="81.600006"/>
      </g>
     </g>
    </g>
    <g id="text_13">
     <!-- $P(X \leq x)$ -->
     <g transform="translate(34.465625 193.978) rotate(-90) scale(0.1 -0.1)">
      <defs>
       <path id="DejaVuSans-Oblique-50" d="M 1081 4666 
L 2541 4666 
Q 3178 4666 3512 4369 
Q 3847 4072 3847 3500 
Q 3847 2731 3353 2303 
Q 2859 1875 1966 1875 
L 1172 1875 
L 806 0 
L 172 0 
L 1081 4666 
z
M 1613 4147 
L 1275 2394 
L 2069 2394 
Q 2606 2394 2893 2669 
Q 3181 2944 3181 3456 
Q 3181 3784 2986 3965 
Q 2791 4147 2438 4147 
L 1613 4147 
z
" transform="scale(0.015625)"/>
       <path id="DejaVuSans-28" d="M 1984 4856 
Q 1566 4138 1362 3434 
Q 1159 2731 1159 2009 
Q 1159 1288 1364 580 
Q 1569 -128 1984 -844 
L 1484 -844 
Q 1016 -109 783 600 
Q 550 1309 550 2009 
Q 550 2706 781 3412 
Q 1013 4119 1484 4856 
L 1984 4856 
z
" transform="scale(0.015625)"/>
       <path id="DejaVuSans-Oblique-58" d="M 878 4666 
L 1516 4666 
L 2316 2981 
L 3763 4666 
L 4500 4666 
L 2578 2438 
L 3738 0 
L 3103 0 
L 2163 1966 
L 459 0 
L -275 0 
L 1906 2509 
L 878 4666 
z
" transform="scale(0.015625)"/>
       <path id="DejaVuSans-2264" d="M 4684 3175 
L 1684 2309 
L 4684 1453 
L 4684 897 
L 678 2047 
L 678 2578 
L 4684 3725 
L 4684 3175 
z
M 678 531 
L 4684 531 
L 4684 0 
L 678 0 
L 678 531 
z
" transform="scale(0.015625)"/>
       <path id="DejaVuSans-29" d="M 513 4856 
L 1013 4856 
Q 1481 4119 1714 3412 
Q 1947 2706 1947 2009 
Q 1947 1309 1714 600 
Q 1481 -109 1013 -844 
L 513 -844 
Q 928 -128 1133 580 
Q 1338 1288 1338 2009 
Q 1338 2731 1133 3434 
Q 928 4138 513 4856 
z
" transform="scale(0.015625)"/>
      </defs>
      <use xlink:href="#DejaVuSans-Oblique-50" transform="translate(0 0.125)"/>
      <use xlink:href="#DejaVuSans-28" transform="translate(60.302734 0.125)"/>
      <use xlink:href="#DejaVuSans-Oblique-58" transform="translate(99.316406 0.125)"/>
      <use xlink:href="#DejaVuSans-2264" transform="translate(187.304688 0.125)"/>
      <use xlink:href="#DejaVuSans-Oblique-78" transform="translate(290.576172 0.125)"/>
      <use xlink:href="#DejaVuSans-29" transform="translate(349.755859 0.125)"/>
     </g>
    </g>
   </g>
   <g id="line2d_32">
    <path d="M 87.36 285.408 
L 93.433469 284.670337 
L 99.506939 282.47204 
L 105.580408 278.85669 
L 111.653878 273.895329 
L 117.727347 267.684131 
L 123.800816 260.341306 
L 129.874286 252.003363 
L 135.947755 242.820895 
L 142.021224 232.954075 
L 148.094694 222.568045 
L 154.168163 211.828388 
L 160.241633 200.896841 
L 166.315102 189.927412 
L 172.388571 179.063019 
L 178.462041 168.432733 
L 184.53551 158.149697 
L 190.60898 148.309724 
L 196.682449 138.990586 
L 202.755918 130.251929 
L 208.829388 122.135772 
L 214.902857 114.667502 
L 220.976327 107.857262 
L 227.049796 101.701642 
L 233.123265 96.185569 
L 239.196735 91.284299 
L 245.270204 86.965424 
L 251.343673 83.190817 
L 257.417143 79.918454 
L 263.490612 77.104065 
L 269.564082 74.702584 
L 275.637551 72.669373 
L 281.71102 70.961223 
L 287.78449 69.537126 
L 293.857959 68.358845 
L 299.931429 67.391283 
L 306.004898 66.602694 
L 312.078367 65.964745 
L 318.151837 65.45247 
L 324.225306 65.044134 
L 330.298776 64.721027 
L 336.372245 64.467219 
L 342.445714 64.269291 
L 348.519184 64.116054 
L 354.592653 63.99827 
L 360.666122 63.908385 
L 366.739592 63.840281 
L 372.813061 63.789046 
L 378.886531 63.750776 
L 384.96 63.722392 
" clip-path="url(#p09486cb640)" style="fill: none; stroke: #ff7f0e; stroke-linecap: square"/>
   </g>
   <g id="line2d_33">
    <defs>
     <path id="m9a8374f41d" d="M 0 3 
C 0.795609 3 1.55874 2.683901 2.12132 2.12132 
C 2.683901 1.55874 3 0.795609 3 0 
C 3 -0.795609 2.683901 -1.55874 2.12132 -2.12132 
C 1.55874 -2.683901 0.795609 -3 0 -3 
C -0.795609 -3 -1.55874 -2.683901 -2.12132 -2.12132 
C -2.683901 -1.55874 -3 -0.795609 -3 0 
C -3 0.795609 -2.683901 1.55874 -2.12132 2.12132 
C -1.55874 2.683901 -0.795609 3 0 3 
z
" style="stroke: #1f77b4"/>
    </defs>
    <g clip-path="url(#p09486cb640)">
     <use xlink:href="#m9a8374f41d" x="87.36" y="285.408" style="fill: #1f77b4; stroke: #1f77b4"/>
     <use xlink:href="#m9a8374f41d" x="123.450986" y="260.79264" style="fill: #1f77b4; stroke: #1f77b4"/>
     <use xlink:href="#m9a8374f41d" x="140.076876" y="236.17728" style="fill: #1f77b4; stroke: #1f77b4"/>
     <use xlink:href="#m9a8374f41d" x="154.317126" y="211.56192" style="fill: #1f77b4; stroke: #1f77b4"/>
     <use xlink:href="#m9a8374f41d" x="167.972459" y="186.94656" style="fill: #1f77b4; stroke: #1f77b4"/>
     <use xlink:href="#m9a8374f41d" x="182.037091" y="162.3312" style="fill: #1f77b4; stroke: #1f77b4"/>
     <use xlink:href="#m9a8374f41d" x="197.543074" y="137.71584" style="fill: #1f77b4; stroke: #1f77b4"/>
     <use xlink:href="#m9a8374f41d" x="216.249642" y="113.10048" style="fill: #1f77b4; stroke: #1f77b4"/>
     <use xlink:href="#m9a8374f41d" x="243.041228" y="88.48512" style="fill: #1f77b4; stroke: #1f77b4"/>
     <use xlink:href="#m9a8374f41d" x="363.899011" y="63.86976" style="fill: #1f77b4; stroke: #1f77b4"/>
     <use xlink:href="#m9a8374f41d" x="364.98782" y="63.648" style="fill: #1f77b4; stroke: #1f77b4"/>
    </g>
   </g>
   <g id="patch_3">
    <path d="M 57.6 307.584 
L 414.72 307.584 
" style="fill: none; stroke: #000000; stroke-width: 0.5; stroke-linejoin: miter; stroke-linecap: square"/>
   </g>
   <g id="legend_1">
    <g id="line2d_34">
     <path d="M 61.6 55.527312 
L 71.6 55.527312 
L 81.6 55.527312 
" style="fill: none; stroke: #ff7f0e; stroke-linecap: square"/>
    </g>
    <g id="text_14">
     <!-- underlying  -->
     <g transform="translate(89.6 52.837625) scale(0.1 -0.1)">
      <defs>
       <path id="Lato-Regular-75" d="M 989 3242 
L 989 1174 
Q 989 806 1157 604 
Q 1325 403 1670 403 
Q 1920 403 2141 521 
Q 2362 640 2547 851 
L 2547 3242 
L 3117 3242 
L 3117 0 
L 2778 0 
Q 2656 0 2624 118 
L 2579 467 
Q 2368 234 2105 91 
Q 1843 -51 1504 -51 
Q 1238 -51 1035 37 
Q 832 125 694 285 
Q 557 445 488 672 
Q 419 899 419 1174 
L 419 3242 
L 989 3242 
z
" transform="scale(0.015625)"/>
       <path id="Lato-Regular-6e" d="M 451 0 
L 451 3242 
L 794 3242 
Q 915 3242 944 3123 
L 989 2771 
Q 1200 3005 1462 3149 
Q 1725 3293 2067 3293 
Q 2333 3293 2536 3205 
Q 2739 3117 2875 2955 
Q 3011 2794 3081 2566 
Q 3152 2339 3152 2064 
L 3152 0 
L 2579 0 
L 2579 2064 
Q 2579 2432 2411 2635 
Q 2243 2838 1901 2838 
Q 1645 2838 1425 2716 
Q 1206 2595 1024 2387 
L 1024 0 
L 451 0 
z
" transform="scale(0.015625)"/>
       <path id="Lato-Regular-64" d="M 2794 0 
Q 2672 0 2640 118 
L 2589 512 
Q 2381 259 2113 107 
Q 1846 -45 1501 -45 
Q 1222 -45 995 62 
Q 768 170 608 378 
Q 448 586 361 896 
Q 275 1206 275 1610 
Q 275 1968 371 2277 
Q 467 2586 646 2813 
Q 826 3040 1086 3169 
Q 1347 3299 1674 3299 
Q 1971 3299 2184 3198 
Q 2397 3098 2563 2915 
L 2563 4714 
L 3133 4714 
L 3133 0 
L 2794 0 
z
M 1686 416 
Q 1968 416 2177 544 
Q 2387 672 2563 906 
L 2563 2470 
Q 2403 2682 2217 2768 
Q 2032 2854 1802 2854 
Q 1350 2854 1107 2531 
Q 864 2208 864 1610 
Q 864 1293 918 1067 
Q 973 842 1078 696 
Q 1184 550 1337 483 
Q 1491 416 1686 416 
z
" transform="scale(0.015625)"/>
       <path id="Lato-Regular-65" d="M 1779 3293 
Q 2070 3293 2318 3195 
Q 2566 3098 2747 2914 
Q 2928 2730 3030 2459 
Q 3133 2189 3133 1843 
Q 3133 1709 3104 1664 
Q 3075 1619 2995 1619 
L 829 1619 
Q 835 1312 912 1085 
Q 989 858 1123 706 
Q 1258 554 1443 478 
Q 1629 403 1859 403 
Q 2074 403 2229 452 
Q 2384 502 2496 560 
Q 2608 618 2683 667 
Q 2758 717 2813 717 
Q 2883 717 2922 662 
L 3082 454 
Q 2976 326 2829 232 
Q 2682 138 2514 77 
Q 2346 16 2166 -14 
Q 1987 -45 1811 -45 
Q 1475 -45 1192 68 
Q 909 182 702 401 
Q 496 621 381 944 
Q 266 1267 266 1686 
Q 266 2026 370 2320 
Q 474 2614 669 2830 
Q 864 3046 1145 3169 
Q 1427 3293 1779 3293 
z
M 1792 2874 
Q 1379 2874 1142 2635 
Q 906 2397 848 1974 
L 2621 1974 
Q 2621 2173 2565 2337 
Q 2509 2502 2401 2622 
Q 2294 2742 2140 2808 
Q 1987 2874 1792 2874 
z
" transform="scale(0.015625)"/>
       <path id="Lato-Regular-72" d="M 451 0 
L 451 3242 
L 778 3242 
Q 870 3242 905 3206 
Q 941 3171 954 3085 
L 989 2592 
Q 1142 2925 1368 3112 
Q 1594 3299 1917 3299 
Q 2019 3299 2113 3276 
Q 2208 3254 2282 3206 
L 2240 2781 
Q 2221 2701 2144 2701 
Q 2099 2701 2012 2720 
Q 1926 2739 1818 2739 
Q 1664 2739 1542 2692 
Q 1421 2646 1326 2558 
Q 1232 2470 1158 2342 
Q 1085 2214 1024 2048 
L 1024 0 
L 451 0 
z
" transform="scale(0.015625)"/>
       <path id="Lato-Regular-6c" d="M 1040 4714 
L 1040 0 
L 470 0 
L 470 4714 
L 1040 4714 
z
" transform="scale(0.015625)"/>
       <path id="Lato-Regular-79" d="M 1440 -957 
Q 1411 -1021 1368 -1059 
Q 1325 -1098 1235 -1098 
L 813 -1098 
L 1405 189 
L 67 3242 
L 560 3242 
Q 634 3242 677 3205 
Q 720 3168 736 3123 
L 1603 1082 
Q 1629 1008 1651 939 
Q 1674 870 1690 797 
Q 1731 941 1786 1085 
L 2627 3123 
Q 2646 3174 2692 3208 
Q 2739 3242 2797 3242 
L 3248 3242 
L 1440 -957 
z
" transform="scale(0.015625)"/>
       <path id="Lato-Regular-69" d="M 1053 3242 
L 1053 0 
L 483 0 
L 483 3242 
L 1053 3242 
z
M 1174 4259 
Q 1174 4176 1140 4104 
Q 1107 4032 1051 3976 
Q 995 3920 920 3888 
Q 845 3856 762 3856 
Q 678 3856 606 3888 
Q 534 3920 480 3976 
Q 426 4032 394 4104 
Q 362 4176 362 4259 
Q 362 4342 394 4417 
Q 426 4493 480 4549 
Q 534 4605 606 4637 
Q 678 4669 762 4669 
Q 845 4669 920 4637 
Q 995 4605 1051 4549 
Q 1107 4493 1140 4417 
Q 1174 4342 1174 4259 
z
" transform="scale(0.015625)"/>
       <path id="Lato-Regular-67" d="M 1581 3296 
Q 1792 3296 1974 3249 
Q 2157 3203 2307 3114 
L 3187 3114 
L 3187 2902 
Q 3187 2797 3053 2768 
L 2685 2717 
Q 2794 2509 2794 2253 
Q 2794 2016 2702 1822 
Q 2611 1629 2451 1491 
Q 2291 1354 2067 1280 
Q 1843 1206 1581 1206 
Q 1350 1206 1149 1261 
Q 1046 1197 993 1123 
Q 941 1050 941 979 
Q 941 864 1035 805 
Q 1130 746 1283 720 
Q 1437 694 1633 688 
Q 1830 682 2036 667 
Q 2243 653 2440 617 
Q 2637 582 2790 502 
Q 2944 422 3038 281 
Q 3133 141 3133 -83 
Q 3133 -291 3029 -486 
Q 2925 -682 2729 -834 
Q 2534 -986 2251 -1077 
Q 1968 -1168 1613 -1168 
Q 1258 -1168 992 -1097 
Q 726 -1027 550 -908 
Q 374 -790 286 -635 
Q 198 -480 198 -310 
Q 198 -70 348 96 
Q 499 262 758 362 
Q 614 426 531 533 
Q 448 640 448 822 
Q 448 893 473 968 
Q 499 1043 552 1116 
Q 605 1190 681 1257 
Q 758 1325 861 1376 
Q 621 1510 486 1734 
Q 352 1958 352 2253 
Q 352 2490 443 2683 
Q 534 2877 697 3013 
Q 861 3149 1086 3222 
Q 1312 3296 1581 3296 
z
M 2608 -176 
Q 2608 -58 2541 16 
Q 2474 90 2360 131 
Q 2246 173 2096 190 
Q 1946 208 1778 217 
Q 1610 227 1437 236 
Q 1264 246 1104 269 
Q 925 186 811 61 
Q 698 -64 698 -237 
Q 698 -346 754 -440 
Q 810 -534 925 -603 
Q 1040 -672 1214 -712 
Q 1389 -752 1626 -752 
Q 1856 -752 2038 -710 
Q 2221 -669 2347 -592 
Q 2474 -515 2541 -409 
Q 2608 -304 2608 -176 
z
M 1581 1584 
Q 1754 1584 1885 1632 
Q 2016 1680 2105 1766 
Q 2195 1853 2240 1973 
Q 2285 2093 2285 2237 
Q 2285 2534 2104 2710 
Q 1923 2886 1581 2886 
Q 1235 2886 1054 2710 
Q 874 2534 874 2237 
Q 874 2093 920 1973 
Q 966 1853 1056 1766 
Q 1146 1680 1277 1632 
Q 1408 1584 1581 1584 
z
" transform="scale(0.015625)"/>
       <path id="Lato-Regular-20" transform="scale(0.015625)"/>
      </defs>
      <use xlink:href="#Lato-Regular-75"/>
      <use xlink:href="#Lato-Regular-6e" x="55.75"/>
      <use xlink:href="#Lato-Regular-64" x="111.550003"/>
      <use xlink:href="#Lato-Regular-65" x="167.550003"/>
      <use xlink:href="#Lato-Regular-72" x="220.350006"/>
      <use xlink:href="#Lato-Regular-6c" x="256.750015"/>
      <use xlink:href="#Lato-Regular-79" x="280.350021"/>
      <use xlink:href="#Lato-Regular-69" x="331.900024"/>
      <use xlink:href="#Lato-Regular-6e" x="355.900024"/>
      <use xlink:href="#Lato-Regular-67" x="411.700027"/>
      <use xlink:href="#Lato-Regular-20" x="463.700027"/>
     </g>
     <!--  distribution -->
     <g transform="translate(89.6 63.501375) scale(0.1 -0.1)">
      <defs>
       <path id="Lato-Regular-73" d="M 2339 2707 
Q 2301 2637 2221 2637 
Q 2173 2637 2112 2672 
Q 2051 2707 1963 2750 
Q 1875 2794 1753 2830 
Q 1632 2867 1466 2867 
Q 1322 2867 1206 2830 
Q 1091 2794 1009 2730 
Q 928 2666 885 2581 
Q 842 2496 842 2397 
Q 842 2272 914 2189 
Q 986 2106 1104 2045 
Q 1222 1984 1372 1937 
Q 1523 1891 1681 1838 
Q 1840 1786 1990 1722 
Q 2141 1658 2259 1562 
Q 2378 1466 2450 1326 
Q 2522 1187 2522 992 
Q 2522 768 2442 577 
Q 2362 387 2205 248 
Q 2048 109 1821 29 
Q 1594 -51 1296 -51 
Q 957 -51 681 59 
Q 406 170 214 342 
L 349 560 
Q 374 602 409 624 
Q 445 646 499 646 
Q 557 646 621 601 
Q 685 557 776 502 
Q 867 448 998 403 
Q 1130 358 1325 358 
Q 1491 358 1616 401 
Q 1741 445 1824 518 
Q 1907 592 1947 688 
Q 1987 784 1987 893 
Q 1987 1027 1915 1115 
Q 1843 1203 1724 1265 
Q 1606 1328 1454 1374 
Q 1302 1421 1144 1472 
Q 986 1523 834 1588 
Q 682 1654 563 1753 
Q 445 1853 373 1998 
Q 301 2144 301 2352 
Q 301 2538 377 2709 
Q 454 2880 601 3009 
Q 749 3139 963 3216 
Q 1178 3293 1453 3293 
Q 1773 3293 2027 3192 
Q 2282 3091 2467 2915 
L 2339 2707 
z
" transform="scale(0.015625)"/>
       <path id="Lato-Regular-74" d="M 1446 -51 
Q 1062 -51 856 163 
Q 650 378 650 781 
L 650 2765 
L 259 2765 
Q 208 2765 173 2795 
Q 138 2826 138 2890 
L 138 3117 
L 669 3184 
L 800 4186 
Q 810 4234 843 4264 
Q 877 4294 931 4294 
L 1219 4294 
L 1219 3178 
L 2157 3178 
L 2157 2765 
L 1219 2765 
L 1219 819 
Q 1219 614 1318 515 
Q 1418 416 1574 416 
Q 1664 416 1729 440 
Q 1795 464 1843 493 
Q 1891 522 1924 546 
Q 1958 570 1984 570 
Q 2029 570 2064 515 
L 2230 243 
Q 2083 106 1875 27 
Q 1667 -51 1446 -51 
z
" transform="scale(0.015625)"/>
       <path id="Lato-Regular-62" d="M 451 0 
L 451 4714 
L 1024 4714 
L 1024 2771 
Q 1226 3011 1485 3152 
Q 1744 3293 2080 3293 
Q 2365 3293 2593 3184 
Q 2822 3075 2982 2868 
Q 3142 2662 3227 2368 
Q 3312 2074 3312 1706 
Q 3312 1312 3216 989 
Q 3120 666 2939 437 
Q 2758 208 2499 81 
Q 2240 -45 1917 -45 
Q 1597 -45 1377 75 
Q 1158 195 995 416 
L 966 122 
Q 941 0 819 0 
L 451 0 
z
M 1891 2838 
Q 1613 2838 1405 2710 
Q 1197 2582 1024 2349 
L 1024 781 
Q 1181 570 1368 483 
Q 1555 397 1779 397 
Q 2237 397 2480 720 
Q 2723 1043 2723 1683 
Q 2723 2278 2507 2558 
Q 2291 2838 1891 2838 
z
" transform="scale(0.015625)"/>
       <path id="Lato-Regular-6f" d="M 1818 3293 
Q 2173 3293 2457 3174 
Q 2742 3056 2944 2838 
Q 3146 2621 3253 2312 
Q 3360 2003 3360 1622 
Q 3360 1238 3253 931 
Q 3146 624 2944 406 
Q 2742 189 2457 72 
Q 2173 -45 1818 -45 
Q 1459 -45 1172 72 
Q 886 189 684 406 
Q 483 624 376 931 
Q 269 1238 269 1622 
Q 269 2003 376 2312 
Q 483 2621 684 2838 
Q 886 3056 1172 3174 
Q 1459 3293 1818 3293 
z
M 1818 400 
Q 2298 400 2534 721 
Q 2771 1043 2771 1619 
Q 2771 2198 2534 2521 
Q 2298 2845 1818 2845 
Q 1574 2845 1393 2761 
Q 1213 2678 1093 2521 
Q 973 2365 913 2136 
Q 854 1907 854 1619 
Q 854 1043 1092 721 
Q 1331 400 1818 400 
z
" transform="scale(0.015625)"/>
      </defs>
      <use xlink:href="#Lato-Regular-20"/>
      <use xlink:href="#Lato-Regular-64" x="25.600006"/>
      <use xlink:href="#Lato-Regular-69" x="81.600006"/>
      <use xlink:href="#Lato-Regular-73" x="105.600006"/>
      <use xlink:href="#Lato-Regular-74" x="148.900009"/>
      <use xlink:href="#Lato-Regular-72" x="184.750015"/>
      <use xlink:href="#Lato-Regular-69" x="221.150024"/>
      <use xlink:href="#Lato-Regular-62" x="245.150024"/>
      <use xlink:href="#Lato-Regular-75" x="301.150024"/>
      <use xlink:href="#Lato-Regular-74" x="356.900024"/>
      <use xlink:href="#Lato-Regular-69" x="392.750031"/>
      <use xlink:href="#Lato-Regular-6f" x="416.750031"/>
      <use xlink:href="#Lato-Regular-6e" x="473.450043"/>
     </g>
    </g>
    <g id="line2d_35">
     <g>
      <use xlink:href="#m9a8374f41d" x="71.6" y="80.217625" style="fill: #1f77b4; stroke: #1f77b4"/>
     </g>
    </g>
    <g id="text_15">
     <!-- parameterized  -->
     <g transform="translate(89.6 77.582625) scale(0.1 -0.1)">
      <defs>
       <path id="Lato-Regular-70" d="M 451 -1098 
L 451 3242 
L 794 3242 
Q 915 3242 944 3123 
L 992 2739 
Q 1200 2992 1469 3145 
Q 1738 3299 2083 3299 
Q 2365 3299 2592 3192 
Q 2819 3085 2979 2875 
Q 3139 2666 3225 2355 
Q 3312 2045 3312 1642 
Q 3312 1283 3216 974 
Q 3120 666 2939 440 
Q 2758 214 2497 84 
Q 2237 -45 1910 -45 
Q 1613 -45 1400 54 
Q 1187 154 1024 336 
L 1024 -1098 
L 451 -1098 
z
M 1898 2838 
Q 1619 2838 1409 2710 
Q 1200 2582 1024 2349 
L 1024 781 
Q 1178 570 1365 483 
Q 1552 397 1782 397 
Q 2237 397 2480 720 
Q 2723 1043 2723 1642 
Q 2723 1958 2667 2185 
Q 2611 2413 2505 2558 
Q 2400 2704 2246 2771 
Q 2093 2838 1898 2838 
z
" transform="scale(0.015625)"/>
       <path id="Lato-Regular-61" d="M 2512 0 
Q 2429 0 2384 27 
Q 2339 54 2314 134 
L 2250 438 
Q 2122 323 1998 232 
Q 1875 141 1742 78 
Q 1610 16 1458 -17 
Q 1306 -51 1120 -51 
Q 931 -51 764 1 
Q 598 54 475 160 
Q 352 266 280 427 
Q 208 589 208 810 
Q 208 1002 313 1179 
Q 419 1357 656 1494 
Q 893 1632 1273 1720 
Q 1654 1808 2208 1821 
L 2208 2074 
Q 2208 2451 2045 2644 
Q 1882 2838 1568 2838 
Q 1357 2838 1214 2785 
Q 1072 2733 968 2667 
Q 864 2602 789 2549 
Q 714 2496 640 2496 
Q 582 2496 540 2526 
Q 499 2557 470 2602 
L 368 2784 
Q 637 3043 947 3171 
Q 1258 3299 1635 3299 
Q 1907 3299 2118 3209 
Q 2330 3120 2474 2960 
Q 2618 2800 2691 2573 
Q 2765 2346 2765 2074 
L 2765 0 
L 2512 0 
z
M 1290 349 
Q 1440 349 1565 379 
Q 1690 410 1800 466 
Q 1910 522 2011 603 
Q 2112 685 2208 787 
L 2208 1459 
Q 1814 1446 1537 1396 
Q 1261 1347 1086 1267 
Q 912 1187 833 1078 
Q 755 970 755 835 
Q 755 707 796 614 
Q 838 522 910 462 
Q 982 403 1080 376 
Q 1178 349 1290 349 
z
" transform="scale(0.015625)"/>
       <path id="Lato-Regular-6d" d="M 451 0 
L 451 3242 
L 794 3242 
Q 915 3242 944 3123 
L 986 2790 
Q 1165 3011 1389 3152 
Q 1613 3293 1907 3293 
Q 2234 3293 2437 3110 
Q 2640 2928 2730 2618 
Q 2800 2794 2910 2922 
Q 3021 3050 3158 3133 
Q 3296 3216 3451 3254 
Q 3606 3293 3766 3293 
Q 4022 3293 4222 3211 
Q 4422 3130 4561 2973 
Q 4701 2816 4774 2587 
Q 4848 2358 4848 2064 
L 4848 0 
L 4275 0 
L 4275 2064 
Q 4275 2445 4108 2641 
Q 3942 2838 3629 2838 
Q 3488 2838 3361 2788 
Q 3235 2739 3139 2643 
Q 3043 2547 2987 2401 
Q 2931 2256 2931 2064 
L 2931 0 
L 2358 0 
L 2358 2064 
Q 2358 2454 2201 2646 
Q 2045 2838 1744 2838 
Q 1533 2838 1353 2724 
Q 1174 2611 1024 2416 
L 1024 0 
L 451 0 
z
" transform="scale(0.015625)"/>
       <path id="Lato-Regular-7a" d="M 2688 2998 
Q 2688 2938 2667 2880 
Q 2646 2822 2611 2781 
L 854 445 
L 2627 445 
L 2627 0 
L 186 0 
L 186 237 
Q 186 278 205 334 
Q 224 390 262 442 
L 2029 2794 
L 285 2794 
L 285 3242 
L 2688 3242 
L 2688 2998 
z
" transform="scale(0.015625)"/>
      </defs>
      <use xlink:href="#Lato-Regular-70"/>
      <use xlink:href="#Lato-Regular-61" x="56.050003"/>
      <use xlink:href="#Lato-Regular-72" x="105.750015"/>
      <use xlink:href="#Lato-Regular-61" x="141.400024"/>
      <use xlink:href="#Lato-Regular-6d" x="191.100037"/>
      <use xlink:href="#Lato-Regular-65" x="273.350052"/>
      <use xlink:href="#Lato-Regular-74" x="325.775055"/>
      <use xlink:href="#Lato-Regular-65" x="361.375061"/>
      <use xlink:href="#Lato-Regular-72" x="414.175064"/>
      <use xlink:href="#Lato-Regular-69" x="450.575073"/>
      <use xlink:href="#Lato-Regular-7a" x="474.575073"/>
      <use xlink:href="#Lato-Regular-65" x="518.77507"/>
      <use xlink:href="#Lato-Regular-64" x="571.575073"/>
      <use xlink:href="#Lato-Regular-20" x="627.575073"/>
     </g>
     <!--  distribution -->
     <g transform="translate(89.6 88.137) scale(0.1 -0.1)">
      <use xlink:href="#Lato-Regular-20"/>
      <use xlink:href="#Lato-Regular-64" x="25.600006"/>
      <use xlink:href="#Lato-Regular-69" x="81.600006"/>
      <use xlink:href="#Lato-Regular-73" x="105.600006"/>
      <use xlink:href="#Lato-Regular-74" x="148.900009"/>
      <use xlink:href="#Lato-Regular-72" x="184.750015"/>
      <use xlink:href="#Lato-Regular-69" x="221.150024"/>
      <use xlink:href="#Lato-Regular-62" x="245.150024"/>
      <use xlink:href="#Lato-Regular-75" x="301.150024"/>
      <use xlink:href="#Lato-Regular-74" x="356.900024"/>
      <use xlink:href="#Lato-Regular-69" x="392.750031"/>
      <use xlink:href="#Lato-Regular-6f" x="416.750031"/>
      <use xlink:href="#Lato-Regular-6e" x="473.450043"/>
     </g>
    </g>
   </g>
  </g>
 </g>
 <defs>
  <clipPath id="p09486cb640">
   <rect x="57.6" y="41.472" width="357.12" height="266.112"/>
  </clipPath>
 </defs>
</svg>
