<svg xmlns="http://www.w3.org/2000/svg" width="512" height="512" viewBox="0 0 512 512">
    <defs>
        <style>
            .cls-1 {
                fill: #ffca4f;
            }

            .cls-2 {
                fill: #ffd97d;
            }

            .cls-3 {
                fill: #ffe9b1;
            }

            .cls-4 {
                fill: #a56ad4;
            }

            .cls-5 {
                fill: #fb9423;
            }

            .cls-6 {
                fill: #6cb64e;
            }
        </style>
    </defs>
    <rect class="cls-1" x="90.13" y="101.9" width="324" height="187.2" rx="25" />
    <rect class="cls-2" x="72.13" y="166.65" width="360" height="187.2" rx="25" />
    <rect class="cls-3" x="54.13" y="235.2" width="396" height="201.6" rx="25" />
    <path class="cls-4"
        d="M108.7,266.3a27.54,27.54,0,0,1-27.5-27.5V226.2a22.52,22.52,0,0,1,22.5-22.5h89.6a22.52,22.52,0,0,1,22.5,22.5v12.6a27.54,27.54,0,0,1-27.5,27.5Z" />
    <path class="cls-3"
        d="M193.3,206.2a20,20,0,0,1,20,20v12.6a25,25,0,0,1-25,25H108.7a25,25,0,0,1-25-25V226.2a20,20,0,0,1,20-20h89.6m0-5H103.7a25,25,0,0,0-25,25v12.6a30,30,0,0,0,30,30h79.6a30,30,0,0,0,30-30V226.2a25,25,0,0,0-25-25Z" />
    <rect class="cls-5" x="167.45" y="136.7" width="134.6" height="62.6" rx="27.5" />
    <path class="cls-2"
        d="M274.55,139.2a25,25,0,0,1,25,25v7.6a25,25,0,0,1-25,25H195a25,25,0,0,1-25-25v-7.6a25,25,0,0,1,25-25h79.6m0-5H195a30,30,0,0,0-30,30v7.6a30,30,0,0,0,30,30h79.6a30,30,0,0,0,30-30v-7.6a30,30,0,0,0-30-30Z" />
    <rect class="cls-6" x="256.2" y="73.2" width="129.6" height="57.6" rx="25" />
</svg>