<?xml version="1.0" encoding="UTF-8" standalone="no"?>
<!-- Created with Inkscape (http://www.inkscape.org/) -->

<svg
   width="600"
   height="600"
   viewBox="0 0 158.74999 158.75001"
   version="1.1"
   id="svg5"
   inkscape:version="1.1.2 (0a00cf5339, 2022-02-04)"
   sodipodi:docname="synodal-icon.svg"
   inkscape:export-filename="/home/luc/work/lino/lino/sphinxcontrib/logo/src/synodal-icon.png"
   inkscape:export-xdpi="96"
   inkscape:export-ydpi="96"
   xmlns:inkscape="http://www.inkscape.org/namespaces/inkscape"
   xmlns:sodipodi="http://sodipodi.sourceforge.net/DTD/sodipodi-0.dtd"
   xmlns="http://www.w3.org/2000/svg"
   xmlns:svg="http://www.w3.org/2000/svg"
   xmlns:rdf="http://www.w3.org/1999/02/22-rdf-syntax-ns#"
   xmlns:cc="http://creativecommons.org/ns#">
  <sodipodi:namedview
     id="namedview7"
     pagecolor="#ffffff"
     bordercolor="#666666"
     borderopacity="1.0"
     inkscape:pageshadow="2"
     inkscape:pageopacity="0.0"
     inkscape:pagecheckerboard="0"
     inkscape:document-units="px"
     showgrid="false"
     units="px"
     width="200px"
     inkscape:zoom="1.5087891"
     inkscape:cx="351.93786"
     inkscape:cy="251.52621"
     inkscape:window-width="1850"
     inkscape:window-height="1009"
     inkscape:window-x="0"
     inkscape:window-y="0"
     inkscape:window-maximized="1"
     inkscape:current-layer="layer1" />
  <defs
     id="defs2">
    <rect
       x="104.45042"
       y="135.57594"
       width="12.240041"
       height="36.207527"
       id="rect28407" />
    <rect
       x="5.4737844"
       y="9.5040646"
       width="77.971222"
       height="23.552834"
       id="rect46198" />
    <rect
       x="10.49081"
       y="11.00432"
       width="80.654106"
       height="20.45804"
       id="rect37174" />
    <rect
       x="100.23624"
       y="8.9702263"
       width="62.395588"
       height="51.404518"
       id="rect20449" />
    <marker
       inkscape:stockid="DistanceStart"
       orient="auto"
       refY="0"
       refX="0"
       id="DistanceStart"
       style="overflow:visible"
       inkscape:isstock="true">
      <g
         id="g2300">
        <path
           id="path2306"
           d="M 0,0 H 2"
           style="fill:none;stroke:context-fill;stroke-width:1.15;stroke-linecap:square" />
        <path
           id="path2302"
           d="M 0,0 13,4 9,0 13,-4 Z"
           style="fill:context-stroke;fill-rule:evenodd;stroke:none" />
        <path
           id="path2304"
           d="M 0,-4 V 40"
           style="fill:none;stroke:context-stroke;stroke-width:1;stroke-linecap:square" />
      </g>
    </marker>
    <linearGradient
       id="linearGradient4676"
       inkscape:swatch="gradient">
      <stop
         style="stop-color:#000000;stop-opacity:1;"
         offset="0"
         id="stop4672" />
      <stop
         style="stop-color:#000000;stop-opacity:0;"
         offset="1"
         id="stop4674" />
    </linearGradient>
  </defs>
  <g
     inkscape:groupmode="layer"
     id="layer2"
     inkscape:label="Layer 2"
     style="display:inline">
    <ellipse
       style="fill:#ffffff;fill-rule:evenodd;stroke-width:1.94897"
       id="path3643"
       cx="113.99294"
       cy="43.623245"
       rx="19.493643"
       ry="19.173859" />
    <path
       style="fill:#b3b3b3;stroke:#000000;stroke-width:0.004567;stroke-linejoin:round;stroke-miterlimit:4;stroke-dasharray:0, 0.0502371;stroke-dashoffset:0.04567;stroke-opacity:1"
       d="m 133.25971,47.118624 c 0.45195,-2.144966 0.25503,-6.461072 -0.39839,-8.734399 -1.50981,-5.252656 -5.53694,-9.888856 -10.63626,-12.244869 -5.13738,-2.373619 -11.94493,-2.271248 -17.01431,0.255864 -5.235726,2.610055 -8.938275,7.211507 -10.269117,12.762278 -0.473194,1.973166 -0.609326,6.361331 -0.246171,7.923544 l 0.190343,0.818678 -28.22586,0.151674 c -15.524214,0.08364 -35.958361,0.151751 -45.40922,0.151751 L 4.0673432,48.203248 V 26.28173 4.3600778 H 78.966375 153.86533 V 26.359134 48.358203 l -6.54513,0.150875 c -3.59983,0.08292 -8.30919,0.150872 -10.46523,0.150872 h -3.92012 z"
       id="path4153" />
    <path
       style="fill:#b3b3b3;stroke:#000000;stroke-width:0.004567;stroke-linejoin:round;stroke-miterlimit:4;stroke-dasharray:0, 0.0502371;stroke-dashoffset:0.04567;stroke-opacity:1"
       d="m 133.93415,48.702847 -0.86404,-0.0717 0.17881,-0.842114 c 0.098,-0.463134 0.17598,-2.434803 0.17247,-4.38149 -0.006,-3.047173 -0.0804,-3.7768 -0.53584,-5.24629 -1.65104,-5.321983 -5.63854,-9.854099 -10.68184,-12.140826 -5.0265,-2.279135 -12.14113,-2.168354 -16.99486,0.264626 -5.429023,2.721384 -9.476468,7.899933 -10.474018,13.401124 -0.266602,1.470095 -0.356008,7.036847 -0.122917,7.64454 0.124737,0.32485 -1.091798,0.374078 -12.263553,0.497231 -6.82105,0.07567 -27.224708,0.187754 -45.34147,0.250689 L 4.0673365,48.19255 V 26.275705 4.3591159 H 78.966395 153.86537 V 26.24632 48.133531 l -2.22643,0.147366 c -1.22454,0.08205 -4.74399,0.155335 -7.82101,0.164977 -3.07701,0.0096 -6.36526,0.08818 -7.30722,0.172381 -0.94202,0.08452 -2.1014,0.122917 -2.57661,0.08364 z"
       id="path4192" />
    <path
       style="fill:#ffcc00;stroke:#000000;stroke-width:0.0265113;stroke-linejoin:round;stroke-dasharray:0, 0.291625;stroke-dashoffset:0.265113"
       d="m 23.860194,558.11231 c 0,-1.28339 30.745339,-18.79459 52.359869,-29.82191 40.618547,-20.7228 84.804017,-39.26757 169.009707,-70.93383 103.54071,-38.93739 124.47905,-47.43447 152.55946,-61.9109 28.42081,-14.65192 41.64324,-25.92548 44.99155,-38.36018 2.69222,-9.99808 -1.08811,-16.17653 -13.85674,-22.64707 -19.80341,-10.03543 -59.5225,-15.36233 -131.3344,-17.61389 -82.02761,-2.57183 -142.55338,-6.35883 -159.42756,-9.97511 -9.63307,-2.06445 -16.20998,-5.34353 -16.20998,-8.0819 0,-15.05033 81.97754,-46.45696 271.24674,-103.91801 25.99421,-7.8917 29.25644,-9.18938 28.67647,-11.4072 -0.61782,-2.36255 -2.38006,-2.50251 -31.50881,-2.50251 -26.91235,0 -30.95718,-0.26789 -31.65899,-2.09676 -1.53467,-3.9993 -0.7946,-23.89598 1.16928,-31.43583 6.44003,-24.72492 27.17017,-45.51852 51.76663,-51.925088 9.9889,-2.601776 28.34237,-2.601776 38.33127,0 24.24381,6.314708 45.3961,27.466998 51.71082,51.710818 2.05024,7.87142 2.69954,24.76395 1.23359,32.0937 l -0.7961,3.9805 -14.7793,0.91744 c -15.81423,0.98169 -20.8614,2.35653 -83.70876,22.80204 -109.97016,35.77551 -158.27431,57.07483 -156.81551,69.14651 0.53048,4.38974 5.55313,7.88847 13.65435,9.51151 3.64531,0.73032 26.61074,1.92126 51.0343,2.64653 69.76257,2.07165 115.50884,4.81986 157.07961,9.43659 93.59033,10.39386 121.48131,30.95539 100.50531,74.09359 -3.89951,8.01954 -7.54753,12.64891 -18.8678,23.94335 -20.19368,20.14757 -41.88603,35.0389 -100.455,68.96016 -86.69482,50.21086 -108.85736,63.52761 -142.4477,85.59221 l -12.80175,8.40913 H 159.19047 c -74.431651,0 -135.330276,-0.27626 -135.330276,-0.61389 z"
       id="path749"
       transform="scale(0.26458333)" />
    <path
       style="fill:#ff6600;stroke:#000000;stroke-width:0.0265113;stroke-linejoin:round;stroke-dasharray:0, 0.291625;stroke-dashoffset:0.265113"
       d="m 504.30767,166.2235 c -0.0778,-19.66086 -1.96305,-26.88315 -10.51809,-40.2947 -5.6526,-8.86146 -19.71498,-21.69953 -28.60173,-26.111571 -15.29906,-7.59559 -37.13118,-9.935784 -53.33017,-5.716483 -23.35544,6.083324 -42.73518,23.484034 -50.94936,45.746504 -3.23498,8.76761 -3.6682,11.7811 -3.6682,25.51625 0,14.69892 -0.14905,15.57312 -2.65113,15.55006 -1.45812,-0.0134 -78.25812,0.1668 -170.66666,0.40052 L 15.906796,181.73903 V 99.154305 16.569579 H 298.25242 580.59805 v 82.847895 82.847896 l -7.62201,0.009 c -4.1921,0.005 -21.34162,0.39153 -38.11003,0.85908 l -30.48803,0.85012 -0.0702,-17.76006 z"
       id="path862"
       transform="scale(0.26458333)" />
    <path
       style="fill:#0000ff;stroke:#000000;stroke-width:0.0265113;stroke-linejoin:round;stroke-dasharray:0, 0.291625;stroke-dashoffset:0.265113"
       d="M 15.906796,371.37212 V 187.99473 l 191.181434,-0.79737 c 105.14979,-0.43855 191.30947,-0.66934 191.46595,-0.51286 0.15648,0.15648 -22.49653,7.38427 -50.34001,16.06177 -135.59797,42.25947 -195.69098,64.42797 -220.71822,81.42365 -8.94436,6.07399 -10.84611,8.62755 -10.84611,14.56346 0,4.00854 2.13922,7.05856 6.64031,9.46747 10.6884,5.72026 62.97914,10.32543 150.43929,13.24898 93.01328,3.10917 127.69767,7.03417 150.80618,17.0657 20.65023,8.96438 16.41254,23.67685 -12.07967,41.93852 -23.01017,14.74801 -53.20158,27.62598 -155.29609,66.24062 C 135.8931,492.56072 80.438386,516.966 32.796791,545.43546 c -8.572509,5.12272 -15.879693,9.31404 -16.238187,9.31404 -0.358495,0 -0.651808,-82.51983 -0.651808,-183.37738 z"
       id="path1049"
       transform="scale(0.26458333)" />
    <path
       style="fill:#0000ff;stroke:#000000;stroke-width:0.0265113;stroke-linejoin:round;stroke-dasharray:0, 0.291625;stroke-dashoffset:0.265113"
       d="M 15.906796,371.30039 V 187.56763 H 125.71029 c 60.39192,0 146.73599,-0.30348 191.87573,-0.67441 l 82.07222,-0.67441 -7.29061,2.58026 c -4.00984,1.41913 -32.04557,10.34461 -62.30162,19.8344 -139.09843,43.62811 -194.87169,65.35676 -210.19329,81.88904 -5.5106,5.94604 -4.01116,13.70268 3.41743,17.67834 10.6884,5.72026 62.97914,10.32543 150.43929,13.24898 90.81494,3.03569 122.97424,6.48392 148.0816,15.87778 23.6187,8.83689 20.30415,24.1168 -9.35509,43.12644 -23.13802,14.82996 -52.47489,27.33495 -157.94722,67.32583 -99.84482,37.85715 -127.69584,49.44077 -174.311968,72.49873 -17.497475,8.65487 -38.375145,19.71832 -46.394821,24.58546 -8.019676,4.86713 -15.32686,9.14627 -16.238187,9.5092 -1.320771,0.52599 -1.656958,-36.61845 -1.656958,-183.07288 z"
       id="path1125"
       transform="scale(0.26458333)" />
    <path
       style="fill:#0000ff;stroke:#000000;stroke-width:0.0265113;stroke-linejoin:round;stroke-dasharray:0, 0.291625;stroke-dashoffset:0.265113"
       d="M 15.906796,371.51465 V 187.99617 l 191.176144,-0.80338 c 105.14689,-0.44186 191.32661,-0.65293 191.51049,-0.46905 0.18388,0.18389 -19.48422,6.48989 -43.7069,14.01335 -154.07308,47.85442 -219.21961,72.74321 -235.01381,89.78542 -5.5106,5.94604 -4.01116,13.70268 3.41743,17.67834 10.63926,5.69396 63.49639,10.34981 150.43929,13.25126 90.78062,3.02952 122.97157,6.48063 148.0816,15.8755 23.6187,8.83689 20.30415,24.1168 -9.35509,43.12644 -23.21226,14.87753 -54.17303,28.07438 -158.61,67.6066 -118.8123,44.97367 -175.078814,69.74106 -220.044009,96.859 -8.019676,4.83656 -15.32686,9.09069 -16.238187,9.45362 -1.320765,0.52598 -1.656958,-36.5756 -1.656958,-182.85862 z"
       id="path1164"
       transform="scale(0.26458333)" />
    <path
       style="fill:#0000ff;stroke:#000000;stroke-width:0.0265113;stroke-linejoin:round;stroke-dasharray:0, 0.291625;stroke-dashoffset:0.265113"
       d="M 15.906796,371.37283 V 187.99617 l 191.176144,-0.80338 c 105.14689,-0.44186 191.32661,-0.65293 191.51049,-0.46905 0.18388,0.18389 -19.48422,6.48989 -43.7069,14.01335 -152.14833,47.2566 -217.10065,71.94374 -234.15463,88.99771 -6.45584,6.45585 -5.38059,14.21731 2.55825,18.46605 10.63926,5.69396 63.49639,10.34981 150.43929,13.25126 90.78062,3.02952 122.97157,6.48063 148.0816,15.8755 23.6187,8.83689 20.30415,24.1168 -9.35509,43.12644 -23.21226,14.87753 -54.17303,28.07438 -158.61,67.6066 -68.23582,25.8291 -102.29253,39.41097 -135.20776,53.92104 -27.699782,12.21094 -68.372123,32.9104 -87.667103,44.6166 -7.389463,4.48317 -13.80189,8.15121 -14.249839,8.15121 -0.447949,0 -0.814452,-82.5195 -0.814452,-183.37667 z"
       id="path1240"
       transform="scale(0.26458333)" />
    <path
       style="fill:#0000ff;stroke:#000000;stroke-width:0.0265113;stroke-linejoin:round;stroke-dasharray:0, 0.291625;stroke-dashoffset:0.265113"
       d="M 15.906796,371.37283 V 187.99617 l 191.176144,-0.80338 c 105.14689,-0.44186 191.32661,-0.65293 191.51049,-0.46905 0.18388,0.18389 -19.48422,6.48989 -43.7069,14.01335 -152.14833,47.2566 -217.10065,71.94374 -234.15463,88.99771 -6.45584,6.45585 -5.38059,14.21731 2.55825,18.46605 10.63926,5.69396 63.49639,10.34981 150.43929,13.25126 90.78062,3.02952 122.97157,6.48063 148.0816,15.8755 23.6187,8.83689 20.30415,24.1168 -9.35509,43.12644 -23.21226,14.87753 -54.17303,28.07438 -158.61,67.6066 -68.23582,25.8291 -102.29253,39.41097 -135.20776,53.92104 -27.699782,12.21094 -68.372123,32.9104 -87.667103,44.6166 -7.389463,4.48317 -13.80189,8.15121 -14.249839,8.15121 -0.447949,0 -0.814452,-82.5195 -0.814452,-183.37667 z"
       id="path1279"
       transform="scale(0.26458333)" />
    <path
       style="fill:#0000ff;stroke:#000000;stroke-width:0.0265113;stroke-linejoin:round;stroke-dasharray:0, 0.291625;stroke-dashoffset:0.265113"
       d="m 309.53808,557.43033 c -1.30145,-2.10581 33.26889,-23.49498 117.91308,-72.95451 90.16292,-52.68427 103.46929,-61.55715 126.10193,-84.08664 13.62088,-13.55881 18.39465,-20.28303 23.89739,-33.6613 l 3.08464,-7.49941 0.0315,99.74887 0.0315,99.74886 h -135.1296 c -86.59239,0 -135.41721,-0.46546 -135.93044,-1.29587 z"
       id="path1318"
       transform="scale(0.26458333)" />
    <path
       style="fill:#ff0000;stroke:#000000;stroke-width:0.0265113;stroke-linejoin:round;stroke-dasharray:0, 0.291625;stroke-dashoffset:0.265113"
       d="m 578.11844,332.69356 c -3.92488,-10.85668 -20.2072,-21.83456 -41.97465,-28.30021 -38.0457,-11.30083 -101.4177,-17.40512 -221.98457,-21.38262 -44.69017,-1.47433 -51.53036,-2.04732 -58.32492,-4.88572 l -4.63948,-1.93813 5.30226,-4.49455 c 16.28769,-13.8065 83.25034,-39.07736 201.77353,-76.1468 l 17.51981,-5.47951 52.07242,-1.12098 c 28.63983,-0.61654 52.22656,-0.97483 52.41495,-0.79621 0.18839,0.17863 0.18839,33.90501 0,74.94752 -0.29851,65.03188 -0.57604,73.97684 -2.15935,69.59721 z"
       id="path1357"
       transform="scale(0.26458333)" />
    <path
       style="fill:#0000ff;stroke:#000000;stroke-width:0.0265113;stroke-linejoin:round;stroke-dasharray:0, 0.291625;stroke-dashoffset:0.265113"
       d="m 309.61256,557.55083 c -0.94811,-1.53409 -0.34115,-1.98231 19.12789,-14.12573 27.36049,-17.06556 44.47349,-27.29581 101.40582,-60.62107 87.63937,-51.29956 105.52513,-63.32181 126.06997,-84.74033 11.27699,-11.75653 16.12146,-18.90562 21.23424,-31.33582 l 3.08464,-7.49941 0.0315,99.74887 0.0315,99.74886 h -135.1296 c -77.14473,0 -135.44125,-0.50435 -135.85596,-1.17537 z"
       id="path1433"
       transform="scale(0.26458333)" />
    <path
       style="fill:#0000ff;stroke:#000000;stroke-width:0.0265113;stroke-linejoin:round;stroke-dasharray:0, 0.291625;stroke-dashoffset:0.265113"
       d="M 15.906796,371.37283 V 187.99617 l 191.176144,-0.80338 c 105.14689,-0.44186 191.32661,-0.65293 191.51049,-0.46905 0.18388,0.18389 -19.48422,6.48989 -43.7069,14.01335 -177.59866,55.16136 -238.23669,79.98364 -238.23669,97.52261 0,10.11318 9.91507,13.62799 48.38317,17.15142 29.48149,2.70031 60.68408,4.43379 108.69643,6.03871 90.81494,3.03569 122.97424,6.48392 148.0816,15.87778 18.56165,6.9448 20.63216,17.54213 6.12181,31.33288 -19.45927,18.4942 -50.08038,32.46034 -174.0869,79.40016 -68.23582,25.8291 -102.29253,39.41097 -135.20776,53.92104 -27.699782,12.21094 -68.372123,32.9104 -87.667103,44.6166 -7.389463,4.48317 -13.80189,8.15121 -14.249839,8.15121 -0.447949,0 -0.814452,-82.5195 -0.814452,-183.37667 z"
       id="path1620"
       transform="scale(0.26458333)" />
    <path
       style="fill:#0000ff;stroke:#000000;stroke-width:0.0265113;stroke-linejoin:round;stroke-dasharray:0, 0.291625;stroke-dashoffset:0.265113"
       d="m 309.57069,557.48309 c -0.42256,-0.68372 1.77913,-2.97984 4.89264,-5.10249 11.24624,-7.6672 61.28504,-37.77214 115.10425,-69.2504 87.56633,-51.21659 102.56926,-61.24748 124.64572,-83.33754 12.99763,-13.00563 17.79321,-19.82939 23.23718,-33.06478 l 3.08464,-7.49941 0.0315,99.74887 0.0315,99.74886 h -135.1296 c -82.6817,0 -135.42774,-0.48249 -135.89783,-1.24311 z"
       id="path1659"
       transform="scale(0.26458333)" />
    <path
       style="fill:#d40000;stroke:#000000;stroke-width:0.00937317;stroke-linejoin:round;stroke-dasharray:0, 0.103105;stroke-dashoffset:0.0937317"
       d="m 504.57968,169.47414 c -0.34849,-15.94233 -0.80506,-20.8984 -2.46575,-26.76592 -1.31318,-4.63981 -4.77966,-11.86599 -8.09434,-16.87342 -4.28473,-6.47288 -13.16234,-15.46264 -21.1432,-21.41031 -16.24598,-12.10718 -44.43469,-16.08355 -65.50317,-9.240035 -5.55101,1.803093 -16.27959,7.314895 -20.82029,10.696415 -14.4426,10.75558 -24.28846,25.40858 -28.5233,42.44953 -0.28825,1.15993 -0.67745,8.43586 -0.86488,16.16872 -0.22111,9.12255 -0.53097,14.40972 -0.88239,15.05636 l -0.54162,0.99661 -89.87974,0.28307 c -49.43386,0.1557 -124.09767,0.39292 -165.919582,0.52717 l -76.039836,0.2441 V 99.121898 16.637376 h 278.148798 278.1488 v 82.718219 82.718215 l -6.91271,-0.001 c -6.80994,-0.001 -56.52209,1.20832 -64.36645,1.56609 l -4.02666,0.18365 -0.31368,-14.34818 z"
       id="path2300"
       transform="scale(0.26458333)" />
    <path
       style="fill:#d40000;stroke:#000000;stroke-width:0.00937317;stroke-linejoin:round;stroke-dasharray:0, 0.103105;stroke-dashoffset:0.0937317"
       d="m 577.15268,330.27179 c -1.87313,-3.59329 -9.2246,-10.92341 -14.35436,-14.31268 -17.54317,-11.59085 -51.33704,-19.71694 -103.51302,-24.89076 -36.27471,-3.59704 -75.08427,-5.81741 -143.87815,-8.23154 -47.32493,-1.66074 -51.87519,-2.05616 -60.08229,-5.22116 l -3.74651,-1.44481 2.27175,-2.0578 c 15.89318,-14.39646 70.29175,-35.55073 188.56349,-73.32774 30.81584,-9.84284 32.79915,-10.41308 36.78969,-10.57761 2.31986,-0.0957 20.98418,-0.48438 41.47627,-0.86384 20.4921,-0.37946 42.26714,-0.8167 48.38899,-0.97164 l 11.13064,-0.28171 -0.0223,39.28808 c -0.0269,47.31709 -0.68375,103.09858 -1.23105,104.53351 -0.35934,0.94212 -0.52688,0.78886 -1.79317,-1.6403 z"
       id="path172"
       transform="scale(0.26458333)" />
    <path
       style="fill:#d40000;stroke:#000000;stroke-width:0.00937317;stroke-linejoin:round;stroke-dasharray:0, 0.103105;stroke-dashoffset:0.0937317"
       d="m 577.15268,330.27179 c -1.87313,-3.59329 -9.2246,-10.92341 -14.35436,-14.31268 -17.54317,-11.59085 -51.33704,-19.71694 -103.51302,-24.89076 -36.27471,-3.59704 -75.08427,-5.81741 -143.87815,-8.23154 -47.32493,-1.66074 -51.87519,-2.05616 -60.08229,-5.22116 l -3.74651,-1.44481 2.27175,-2.0578 c 15.89318,-14.39646 70.29175,-35.55073 188.56349,-73.32774 30.81584,-9.84284 32.79915,-10.41308 36.78969,-10.57761 2.31986,-0.0957 20.98418,-0.48438 41.47627,-0.86384 20.4921,-0.37946 42.26714,-0.8167 48.38899,-0.97164 l 11.13064,-0.28171 -0.0223,39.28808 c -0.0269,47.31709 -0.68375,103.09858 -1.23105,104.53351 -0.35934,0.94212 -0.52688,0.78886 -1.79317,-1.6403 z"
       id="path211"
       transform="scale(0.26458333)" />
    <path
       style="fill:#d40000;stroke:#000000;stroke-width:0.00937317;stroke-linejoin:round;stroke-dasharray:0, 0.103105;stroke-dashoffset:0.0937317"
       d="m 577.15268,330.27179 c -1.87313,-3.59329 -9.2246,-10.92341 -14.35436,-14.31268 -17.54317,-11.59085 -51.33704,-19.71694 -103.51302,-24.89076 -36.27471,-3.59704 -75.08427,-5.81741 -143.87815,-8.23154 -47.32493,-1.66074 -51.87519,-2.05616 -60.08229,-5.22116 l -3.74651,-1.44481 2.27175,-2.0578 c 15.89318,-14.39646 70.29175,-35.55073 188.56349,-73.32774 30.81584,-9.84284 32.79915,-10.41308 36.78969,-10.57761 2.31986,-0.0957 20.98418,-0.48438 41.47627,-0.86384 20.4921,-0.37946 42.26714,-0.8167 48.38899,-0.97164 l 11.13064,-0.28171 -0.0223,39.28808 c -0.0269,47.31709 -0.68375,103.09858 -1.23105,104.53351 -0.35934,0.94212 -0.52688,0.78886 -1.79317,-1.6403 z"
       id="path250"
       transform="scale(0.26458333)" />
  </g>
  <g
     inkscape:label="Layer 1"
     inkscape:groupmode="layer"
     id="layer1"
     style="display:inline">
    <path
       style="fill:none;stroke:#000000;stroke-width:0.974484;stroke-linecap:butt;stroke-linejoin:miter;stroke-miterlimit:4;stroke-dasharray:none;stroke-opacity:1"
       d="M 111.42034,48.601736 C 55.649243,65.447405 7.252702,80.711443 44.584607,82.751658 68.478005,85.568779 108.40378,82.509026 116.26488,91.202994 123.56586,106.47108 43.087514,121.73487 3.5001344,148.56063"
       id="path410"
       sodipodi:nodetypes="cccc" />
    <path
       style="fill:none;stroke:#000000;stroke-width:0.974484;stroke-linecap:butt;stroke-linejoin:miter;stroke-miterlimit:4;stroke-dasharray:none;stroke-opacity:1"
       d="M 125.8748,49.43488 C 71.941044,66.069279 48.578366,75.932335 80.142199,75.520903 c 51.564641,1.560851 72.516211,4.523639 72.935321,16.068076 -0.0216,18.674601 -35.4533,30.198901 -75.040703,57.024661"
       id="path410-6"
       sodipodi:nodetypes="cccc" />
    <rect
       style="display:inline;fill:none;fill-opacity:1;fill-rule:evenodd;stroke:#000000;stroke-width:0.974484;stroke-linecap:butt;stroke-linejoin:round;stroke-miterlimit:4;stroke-dasharray:none;stroke-opacity:1;paint-order:normal"
       id="rect3751"
       width="150.97672"
       height="144.71968"
       x="3.500129"
       y="3.8410246" />
    <path
       style="fill:#000000;fill-opacity:1;stroke:#000000;stroke-width:0.162382;stroke-linecap:butt;stroke-linejoin:round;stroke-miterlimit:4;stroke-dasharray:none;stroke-opacity:1;paint-order:normal"
       d=""
       id="path6577"
       transform="scale(0.26458333)" />
    <path
       style="fill:#000000;fill-opacity:1;stroke:#000000;stroke-width:0.162382;stroke-linecap:butt;stroke-linejoin:round;stroke-miterlimit:4;stroke-dasharray:none;stroke-opacity:1;paint-order:normal"
       d=""
       id="path6616"
       transform="scale(0.26458333)" />
    <path
       style="fill:#000000;fill-opacity:1;stroke:#000000;stroke-width:0.162382;stroke-linecap:butt;stroke-linejoin:round;stroke-miterlimit:4;stroke-dasharray:none;stroke-opacity:1;paint-order:normal"
       d=""
       id="path6655"
       transform="scale(0.26458333)" />
    <path
       style="fill:none;stroke:#000000;stroke-width:0.974484;stroke-linecap:butt;stroke-linejoin:miter;stroke-miterlimit:4;stroke-dasharray:none;stroke-opacity:1"
       d="M 111.42034,48.601736 3.4977767,48.763124"
       id="path8706"
       sodipodi:nodetypes="cc" />
    <path
       style="fill:#000000;stroke:#000000;stroke-width:0.974484;stroke-linecap:butt;stroke-linejoin:miter;stroke-miterlimit:4;stroke-dasharray:none;stroke-opacity:1"
       d="m 125.8748,49.43488 28.51438,-0.433898"
       id="path8708"
       sodipodi:nodetypes="cc" />
    <path
       style="fill:#ffffff;stroke:#000000;stroke-width:0.000828479;stroke-linejoin:round;stroke-miterlimit:4;stroke-dasharray:0, 0.00911327;stroke-dashoffset:0.00828479;stroke-opacity:1"
       d=""
       id="path1886"
       transform="scale(0.26458333)" />
    <path
       style="fill:#ffffff;stroke:#000000;stroke-width:0.000828479;stroke-linejoin:round;stroke-miterlimit:4;stroke-dasharray:0, 0.00911327;stroke-dashoffset:0.00828479;stroke-opacity:1"
       d=""
       id="path2003"
       transform="scale(0.26458333)" />
    <path
       style="fill:#b3b3b3;stroke:#000000;stroke-width:0.000414239;stroke-linejoin:round;stroke-miterlimit:4;stroke-dasharray:0, 0.00455663;stroke-dashoffset:0.00414239;stroke-opacity:1"
       d=""
       id="path2348"
       transform="scale(0.26458333)" />
    <path
       style="fill:#b3b3b3;stroke:#000000;stroke-width:0.000414239;stroke-linejoin:round;stroke-miterlimit:4;stroke-dasharray:0, 0.00455663;stroke-dashoffset:0.00414239;stroke-opacity:1"
       d=""
       id="path2426"
       transform="scale(0.26458333)" />
    <path
       style="fill:#b3b3b3;stroke:#000000;stroke-width:0.000414239;stroke-linejoin:round;stroke-miterlimit:4;stroke-dasharray:0, 0.00455663;stroke-dashoffset:0.00414239;stroke-opacity:1"
       d=""
       id="path2504"
       transform="scale(0.26458333)" />
    <path
       style="fill:#b3b3b3;stroke:#000000;stroke-width:0.000414239;stroke-linejoin:round;stroke-miterlimit:4;stroke-dasharray:0, 0.00455663;stroke-dashoffset:0.00414239;stroke-opacity:1"
       d=""
       id="path2543"
       transform="scale(0.26458333)" />
    <path
       style="fill:#b3b3b3;stroke:#000000;stroke-width:0.000414239;stroke-linejoin:round;stroke-miterlimit:4;stroke-dasharray:0, 0.00455663;stroke-dashoffset:0.00414239;stroke-opacity:1"
       d=""
       id="path2582"
       transform="scale(0.26458333)" />
    <path
       style="fill:#b3b3b3;stroke:#000000;stroke-width:0.00020712;stroke-linejoin:round;stroke-miterlimit:4;stroke-dasharray:0, 0.00227832;stroke-dashoffset:0.0020712;stroke-opacity:1"
       d=""
       id="path2621"
       transform="scale(0.26458333)" />
    <path
       style="fill:#b3b3b3;stroke:#000000;stroke-width:0.00020712;stroke-linejoin:round;stroke-miterlimit:4;stroke-dasharray:0, 0.00227832;stroke-dashoffset:0.0020712;stroke-opacity:1"
       d=""
       id="path2660"
       transform="scale(0.26458333)" />
    <path
       style="fill:#000000;stroke:#000000;stroke-width:0.004567;stroke-linejoin:round;stroke-miterlimit:4;stroke-dasharray:0, 0.0502371;stroke-dashoffset:0.04567;stroke-opacity:1"
       d="m 80.758591,147.58088 c 3.992844,-2.88646 18.059496,-11.43714 32.574619,-19.80107 19.58948,-11.2879 24.87309,-14.67586 30.85311,-19.7836 6.22086,-5.31348 9.43182,-10.786029 9.44679,-16.100524 0.0243,-8.70748 -10.3769,-12.965118 -36.98881,-15.140636 -9.90863,-0.81006 -22.702476,-1.438252 -37.449507,-1.838949 -9.18023,-0.249341 -11.158723,-0.495647 -12.376755,-1.540024 -0.355266,-0.30463 -0.357963,-0.379337 -0.03169,-0.87849 0.452157,-0.690035 2.842068,-2.275605 5.22846,-3.468939 7.363936,-3.682375 24.475958,-9.785327 48.056692,-17.13936 l 5.82568,-1.816843 8.33206,-0.136854 c 4.58264,-0.07567 10.8753,-0.19604 13.98373,-0.268455 l 5.65169,-0.131676 v 49.228489 49.228461 l -36.82153,-0.0128 c -34.694822,-0.0115 -36.790549,-0.0344 -36.285314,-0.39963 z"
       id="path4580" />
    <text
       xml:space="preserve"
       transform="scale(0.26458333)"
       id="text37172"
       style="font-size:13.3333px;line-height:1.25;font-family:'Liberation Sans';-inkscape-font-specification:'Liberation Sans, Normal';white-space:pre;shape-inside:url(#rect37174)" />
    <text
       xml:space="preserve"
       transform="scale(0.26458333)"
       id="text46196"
       style="font-size:13.3333px;line-height:1.25;font-family:'Liberation Sans';-inkscape-font-specification:'Liberation Sans, Normal';white-space:pre;shape-inside:url(#rect46198)" />
    <text
       xml:space="preserve"
       transform="scale(0.26458334)"
       id="text28405"
       style="font-size:13.3333px;line-height:1.25;font-family:'Liberation Sans';-inkscape-font-specification:'Liberation Sans, Normal';white-space:pre;shape-inside:url(#rect28407)" />
    <path
       style="fill:#000000;stroke:#000000;stroke-width:0.004567;stroke-linejoin:round;stroke-miterlimit:4;stroke-dasharray:0, 0.0502371;stroke-dashoffset:0.04567;stroke-opacity:1"
       d="M 4.0674882,98.326243 V 49.345049 L 41.117352,49.34485 C 61.49477,49.344745 84.743708,49.2899 92.781663,49.224165 l 14.614427,-0.120601 -5.5946,1.733805 C 73.692758,59.548584 61.517782,63.513048 52.043548,67.039724 39.873447,71.56991 33.306413,74.894012 31.380557,77.498985 c -0.655432,0.886533 -0.628111,2.252505 0.05974,2.984505 1.175111,1.250869 4.682538,2.170084 10.076842,2.640884 12.881262,1.124263 15.337232,1.26461 30.256448,1.728593 20.754044,0.645602 28.052367,1.223663 35.051793,2.776686 5.3382,1.184394 8.65908,2.881351 9.14095,4.67087 0.85002,3.156859 -2.82754,6.799363 -11.28077,11.173117 -6.796875,3.51678 -13.255977,6.15402 -35.766354,14.6035 -21.426602,8.04268 -29.7338,11.37442 -40.469643,16.2311 -7.989661,3.61433 -17.294299,8.53005 -22.2775169,11.76939 -1.0404643,0.67629 -1.9395965,1.22971 -1.9980659,1.22971 -0.058997,0 -0.1063416,-22.04155 -0.1063416,-48.981187 z"
       id="path4541" />
    <path
       style="fill:#0000ff;stroke:#000000;stroke-width:0.0265113;stroke-linejoin:round;stroke-dasharray:0, 0.291625;stroke-dashoffset:0.265113"
       d="M 15.906796,371.37283 V 187.99617 l 191.176144,-0.80338 c 105.14689,-0.44186 191.32661,-0.65293 191.51049,-0.46905 0.18388,0.18389 -19.48422,6.48989 -43.7069,14.01335 -177.59866,55.16136 -238.23669,79.98364 -238.23669,97.52261 0,10.11318 9.91507,13.62799 48.38317,17.15142 29.48149,2.70031 60.68408,4.43379 108.69643,6.03871 90.81494,3.03569 122.97424,6.48392 148.0816,15.87778 18.8808,7.06421 20.69762,17.71377 5.45447,31.97196 -9.18773,8.59404 -19.37396,14.79834 -43.51406,26.50386 -23.96106,11.6187 -46.52234,20.69444 -129.9055,52.25722 -68.23582,25.8291 -102.29253,39.41097 -135.20776,53.92104 -27.699782,12.21094 -68.372123,32.9104 -87.667103,44.6166 -7.389463,4.48317 -13.80189,8.15121 -14.249839,8.15121 -0.447949,0 -0.814452,-82.5195 -0.814452,-183.37667 z"
       id="path1952"
       transform="scale(0.26458333)" />
    <path
       style="fill:#0000ff;stroke:#000000;stroke-width:0.0265113;stroke-linejoin:round;stroke-dasharray:0, 0.291625;stroke-dashoffset:0.265113"
       d="m 578.21861,332.97059 c -2.39267,-6.61848 -12.13607,-15.7756 -21.87971,-20.56314 -34.4373,-16.92079 -97.96915,-24.64799 -241.5169,-29.37503 -45.37133,-1.49408 -52.18227,-2.06146 -58.9877,-4.91386 l -4.63948,-1.94457 4.92572,-4.30625 c 13.99457,-12.23456 73.04452,-35.18099 170.89631,-66.40919 l 48.17264,-15.37372 52.37289,-1.13138 c 28.80508,-0.62226 52.52702,-0.98479 52.71541,-0.80561 0.18839,0.17917 0.18839,33.906 0,74.94851 -0.28886,62.93078 -0.6115,73.87874 -2.05918,69.87424 z"
       id="path1991"
       transform="scale(0.26458333)" />
    <path
       style="fill:#0000ff;stroke:#000000;stroke-width:0.0265113;stroke-linejoin:round;stroke-dasharray:0, 0.291625;stroke-dashoffset:0.265113"
       d="m 309.57069,557.48309 c -0.42256,-0.68372 1.77913,-2.97984 4.89264,-5.10249 11.24624,-7.6672 61.28504,-37.77214 115.10425,-69.2504 87.56633,-51.21659 102.56926,-61.24748 124.64572,-83.33754 12.99763,-13.00563 17.79321,-19.82939 23.23718,-33.06478 l 3.08464,-7.49941 0.0315,99.74887 0.0315,99.74886 h -135.1296 c -82.6817,0 -135.42774,-0.48249 -135.89783,-1.24311 z"
       id="path2030"
       transform="scale(0.26458333)" />
    <path
       style="fill:#d40000;stroke:#000000;stroke-width:0.0187463;stroke-linejoin:round;stroke-dasharray:0, 0.20621;stroke-dashoffset:0.187463"
       d="M 16.558004,438.0403 C 16.215015,374.54535 15.934388,292.54605 15.934388,255.81963 v -66.77532 l 8.670181,-0.52679 c 4.7686,-0.28973 90.287051,-0.74345 190.041011,-1.00826 l 181.37082,-0.48148 -20.15231,6.47648 c -11.08377,3.56207 -34.98513,11.14697 -53.11411,16.85534 -112.84354,35.53166 -170.5606,57.16204 -193.75267,72.6119 -8.79428,5.85848 -11.92104,9.60351 -12.52356,14.99992 -0.48953,4.38424 1.74005,8.04017 6.36042,10.42946 11.50516,5.94955 54.3999,9.74943 153.20567,13.57189 88.78612,3.43485 116.74767,6.26266 140.86792,14.24626 22.67425,7.50499 25.85635,17.6803 10.12979,32.39173 -7.63575,7.14288 -15.88683,12.56209 -31.48981,20.68211 -25.168,13.09782 -50.794,23.68251 -133.099,54.97591 -98.06406,37.28519 -132.64121,51.40677 -171.528998,70.05375 -18.153189,8.70458 -44.504693,22.66879 -60.42858,32.02235 -6.686219,3.92742 -12.416136,7.14077 -12.733151,7.14077 -0.317015,0 -0.857019,-51.95041 -1.200007,-115.44535 z"
       id="path671"
       transform="scale(0.26458333)" />
    <path
       style="fill:#d40000;stroke:#000000;stroke-width:0.0187463;stroke-linejoin:round;stroke-dasharray:0, 0.20621;stroke-dashoffset:0.187463"
       d="M 17.47471,482.01523 C 17.166206,443.22203 16.697077,361.6534 16.4322,300.75161 l -0.481595,-110.73053 2.100855,-0.63889 c 2.429648,-0.73887 372.57726,-1.92458 371.87238,-1.19123 -0.25776,0.26818 -27.04159,8.9481 -59.51962,19.28872 -85.24569,27.14122 -123.62045,40.24008 -157.45348,53.74523 -31.55671,12.59651 -50.02788,23.06134 -54.94884,31.13123 -2.36185,3.87321 -2.30533,9.93836 0.12137,13.02341 6.53395,8.30657 39.07528,11.951 148.07474,16.58346 100.38795,4.26648 122.93557,6.36903 147.15206,13.72184 28.12121,8.53838 29.78606,20.78161 5.32121,39.13175 -6.30426,4.72858 -14.71742,9.52277 -31.09073,17.71688 -23.93595,11.97887 -41.88884,19.27014 -144.34681,58.62417 -121.07089,46.50325 -156.672583,62.33495 -213.20868,94.8117 -6.299042,3.61844 -11.573545,6.57898 -11.721118,6.57898 -0.147574,0 -0.520729,-31.73989 -0.829232,-70.5331 z"
       id="path747"
       transform="scale(0.26458333)" />
    <path
       style="fill:#d40000;stroke:#000000;stroke-width:0.0187463;stroke-linejoin:round;stroke-dasharray:0, 0.20621;stroke-dashoffset:0.187463"
       d="m 504.90812,166.6945 c -0.68435,-18.83013 -1.82839,-24.53771 -7.00475,-34.9467 -4.04912,-8.1423 -15.88787,-21.219 -25.2738,-27.91667 -15.46255,-11.033837 -41.71256,-15.338247 -61.6161,-10.103642 -23.1465,6.087504 -44.03639,25.620932 -51.29418,47.963462 -1.96343,6.04427 -2.49831,9.99399 -3.02527,22.33951 -0.35208,8.24839 -0.92801,15.26221 -1.27985,15.58627 -0.35184,0.32407 -74.98066,0.81324 -165.84182,1.08704 L 24.37024,181.20162 V 99.27099 17.340363 h 277.91447 277.91447 v 81.913609 81.913608 l -17.10603,0.55679 c -9.40832,0.30624 -26.21205,0.81265 -37.34163,1.12535 l -20.23561,0.56856 z"
       id="path786"
       transform="scale(0.26458333)"
       inkscape:export-filename="/home/luc/work/lino/lino/sphinxcontrib/logo/src/synodal-icon.png"
       inkscape:export-xdpi="96"
       inkscape:export-ydpi="96" />
    <path
       style="fill:#d40000;stroke:#000000;stroke-width:0.0187463;stroke-linejoin:round;stroke-dasharray:0, 0.20621;stroke-dashoffset:0.187463"
       d="M 15.934388,99.355595 V 17.340363 h 3.749268 3.749267 v 82.015232 82.015235 h -3.749267 -3.749268 z"
       id="path825"
       transform="scale(0.26458333)" />
    <path
       style="fill:#d40000;stroke:#000000;stroke-width:0.0187463;stroke-linejoin:round;stroke-dasharray:0, 0.20621;stroke-dashoffset:0.187463"
       d="m 576.94302,329.54391 c -0.94506,-2.97761 -12.78996,-13.4627 -18.82912,-16.66751 -18.98661,-10.07567 -49.36272,-16.9006 -96.95397,-21.78373 -35.04031,-3.59533 -67.89869,-5.52744 -144.34681,-8.4877 -26.03398,-1.0081 -49.64419,-2.27212 -52.46714,-2.80894 -6.23481,-1.18561 -11.27041,-2.93827 -11.27041,-3.92269 0,-1.56501 9.67679,-8.25084 18.43833,-12.73931 25.85245,-13.24401 73.25584,-30.59712 159.65189,-58.44429 l 43.58523,-14.04839 33.74341,-0.85344 c 18.55888,-0.46939 42.28471,-0.86809 52.72408,-0.88599 l 18.98067,-0.0326 -9.4e-4,31.16579 c -0.002,46.62436 -1.14247,111.30638 -1.9629,111.30638 -0.39684,0 -0.97828,-0.80893 -1.29207,-1.79762 z"
       id="path864"
       transform="scale(0.26458333)" />
    <path
       style="fill:#c83737;stroke:#000000;stroke-width:0.0187463;stroke-linejoin:round;stroke-dasharray:0, 0.20621;stroke-dashoffset:0.187463"
       d="m 320.2238,557.28396 c -9.55045,-0.48567 -10.07247,-0.61308 -8.43586,-2.05892 4.73875,-4.18637 52.26509,-33.01358 120.31516,-72.97743 85.23432,-50.05565 100.25587,-60.15201 122.46728,-82.31322 11.50047,-11.47449 17.52594,-19.77848 22.38412,-30.84861 l 3.1955,-7.28145 0.0246,98.18395 0.0246,98.18395 -124.89748,-0.18528 c -68.69362,-0.1019 -129.47867,-0.41825 -135.0779,-0.70299 z"
       id="path903"
       transform="scale(0.26458333)" />
    <path
       style="fill:#c83737;stroke:#000000;stroke-width:0.0187463;stroke-linejoin:round;stroke-dasharray:0, 0.20621;stroke-dashoffset:0.187463"
       d="m 436.63323,557.24999 c -67.8775,-0.26605 -123.68202,-0.75222 -124.01004,-1.08037 -0.32801,-0.32815 2.69494,-2.77061 6.71768,-5.42768 7.54271,-4.98204 80.62861,-48.88371 134.32052,-80.68443 67.36748,-39.90049 82.77987,-50.64599 103.2872,-72.01171 9.94793,-10.36433 15.48925,-17.9376 19.56225,-26.73559 l 2.665,-5.75661 0.0509,64.20621 c 0.028,35.31342 0.32451,78.65261 0.6589,96.30932 l 0.60799,32.1031 -10.22338,-0.21926 c -5.62287,-0.12058 -65.75954,-0.43693 -133.63703,-0.70298 z"
       id="path979"
       transform="scale(0.26458333)" />
    <path
       style="fill:#c83737;stroke:#000000;stroke-width:0.0187463;stroke-linejoin:round;stroke-dasharray:0, 0.20621;stroke-dashoffset:0.187463"
       d="m 576.30323,327.63919 c -2.08681,-3.63607 -13.27439,-12.76139 -19.59873,-15.98601 -7.64314,-3.89703 -22.54935,-8.87987 -34.7505,-11.61636 -39.009,-8.74901 -87.54417,-13.11979 -193.42442,-17.41862 -57.7177,-2.3434 -67.73889,-3.14445 -72.93691,-5.83028 -2.19438,-1.13384 -1.18038,-2.39854 5.45361,-6.80194 20.2777,-13.45957 68.26877,-31.71725 169.65085,-64.5418 l 44.99121,-14.56684 51.98493,-0.96204 c 28.59171,-0.52912 52.11382,-0.83315 52.27136,-0.67561 0.37359,0.37359 -1.44797,140.36754 -1.83141,140.75097 -0.16089,0.1609 -0.97538,-0.89727 -1.80999,-2.35147 z"
       id="path1018"
       transform="scale(0.26458333)" />
    <path
       style="fill:#c83737;stroke:#000000;stroke-width:0.0187463;stroke-linejoin:round;stroke-dasharray:0, 0.20621;stroke-dashoffset:0.187463"
       d="M 17.47411,482.95255 C 17.165334,444.67487 16.682264,363.10989 16.400623,301.69704 l -0.512075,-111.65973 2.131883,-0.647 c 2.453404,-0.74458 372.612849,-1.93774 371.903409,-1.19878 -0.25776,0.26849 -22.61277,7.5248 -49.67779,16.12513 -27.06503,8.60034 -61.44113,19.65989 -76.39133,24.57679 -93.78915,30.84583 -139.31439,50.82454 -146.30513,64.20587 -1.89409,3.62558 -1.64162,8.91621 0.57398,12.02773 6.08799,8.54979 37.06938,12.06943 148.07444,16.82199 101.41052,4.34177 122.78344,6.33681 147.15206,13.73581 25.31278,7.68567 29.10537,18.17492 12.12472,33.53356 -7.57635,6.85265 -18.23517,13.4742 -36.01961,22.37637 -25.50709,12.76781 -44.29143,20.4553 -134.50498,55.04617 -129.7761,49.76046 -162.049935,63.92804 -219.704375,96.44591 -9.226395,5.20381 -16.873148,9.46147 -16.992783,9.46147 -0.119636,0 -0.470155,-31.3181 -0.778932,-69.59578 z"
       id="path1057"
       transform="scale(0.26458333)" />
  </g>
  <metadata
     id="metadata9">
    <rdf:RDF>
      <cc:License
         rdf:about="http://creativecommons.org/licenses/by-sa/4.0/">
        <cc:permits
           rdf:resource="http://creativecommons.org/ns#Reproduction" />
        <cc:permits
           rdf:resource="http://creativecommons.org/ns#Distribution" />
        <cc:requires
           rdf:resource="http://creativecommons.org/ns#Notice" />
        <cc:requires
           rdf:resource="http://creativecommons.org/ns#Attribution" />
        <cc:permits
           rdf:resource="http://creativecommons.org/ns#DerivativeWorks" />
        <cc:requires
           rdf:resource="http://creativecommons.org/ns#ShareAlike" />
      </cc:License>
      <cc:Work
         rdf:about="">
        <cc:license
           rdf:resource="http://creativecommons.org/licenses/by-sa/4.0/" />
      </cc:Work>
    </rdf:RDF>
  </metadata>
</svg>
