<?xml version="1.0" encoding="UTF-8" standalone="no"?>
<!-- Created with Inkscape (http://www.inkscape.org/) -->

<svg
   width="190"
   height="100"
   viewBox="0 0 50.270831 26.458335"
   version="1.1"
   id="svg5"
   inkscape:version="1.1.2 (0a00cf5339, 2022-02-04)"
   sodipodi:docname="synodal-logo.svg"
   inkscape:export-filename="/home/luc/work/lino/lino/sphinxcontrib/logo/static/synodal-logo.png"
   inkscape:export-xdpi="96"
   inkscape:export-ydpi="96"
   xmlns:inkscape="http://www.inkscape.org/namespaces/inkscape"
   xmlns:sodipodi="http://sodipodi.sourceforge.net/DTD/sodipodi-0.dtd"
   xmlns="http://www.w3.org/2000/svg"
   xmlns:svg="http://www.w3.org/2000/svg"
   xmlns:rdf="http://www.w3.org/1999/02/22-rdf-syntax-ns#"
   xmlns:cc="http://creativecommons.org/ns#">
  <sodipodi:namedview
     id="namedview7"
     pagecolor="#ffffff"
     bordercolor="#666666"
     borderopacity="1.0"
     inkscape:pageshadow="2"
     inkscape:pageopacity="0.0"
     inkscape:pagecheckerboard="0"
     inkscape:document-units="px"
     showgrid="false"
     units="px"
     width="200px"
     inkscape:zoom="2.13375"
     inkscape:cx="74.516696"
     inkscape:cy="56.473345"
     inkscape:window-width="1850"
     inkscape:window-height="1009"
     inkscape:window-x="0"
     inkscape:window-y="0"
     inkscape:window-maximized="1"
     inkscape:current-layer="layer1" />
  <defs
     id="defs2">
    <rect
       x="104.45042"
       y="135.57594"
       width="12.240041"
       height="36.207528"
       id="rect28407" />
    <rect
       x="5.4737844"
       y="9.5040646"
       width="77.971222"
       height="23.552834"
       id="rect46198" />
    <rect
       x="10.49081"
       y="11.00432"
       width="80.654106"
       height="20.45804"
       id="rect37174" />
    <rect
       x="100.23624"
       y="8.9702263"
       width="62.395588"
       height="51.404517"
       id="rect20449" />
    <marker
       inkscape:stockid="DistanceStart"
       orient="auto"
       refY="0"
       refX="0"
       id="DistanceStart"
       style="overflow:visible"
       inkscape:isstock="true">
      <g
         id="g2300">
        <path
           id="path2306"
           d="M 0,0 H 2"
           style="fill:none;stroke:context-fill;stroke-width:1.15;stroke-linecap:square" />
        <path
           id="path2302"
           d="M 0,0 13,4 9,0 13,-4 Z"
           style="fill:context-stroke;fill-rule:evenodd;stroke:none" />
        <path
           id="path2304"
           d="M 0,-4 V 40"
           style="fill:none;stroke:context-stroke;stroke-width:1;stroke-linecap:square" />
      </g>
    </marker>
    <linearGradient
       id="linearGradient4676"
       inkscape:swatch="gradient">
      <stop
         style="stop-color:#000000;stop-opacity:1;"
         offset="0"
         id="stop4672" />
      <stop
         style="stop-color:#000000;stop-opacity:0;"
         offset="1"
         id="stop4674" />
    </linearGradient>
  </defs>
  <g
     inkscape:groupmode="layer"
     id="layer2"
     inkscape:label="Layer 2"
     style="display:inline">
    <ellipse
       style="fill:#ffffff;fill-rule:evenodd;stroke-width:0.244665"
       id="path3643"
       cx="44.460728"
       cy="12.746798"
       rx="2.4471414"
       ry="2.4069972" />
    <path
       style="fill:#b3b3b3;stroke:#000000;stroke-width:0.000573321;stroke-linejoin:round;stroke-miterlimit:4;stroke-dasharray:0, 0.00630654;stroke-dashoffset:0.00573321;stroke-opacity:1"
       d="m 46.879386,13.185591 c 0.05674,-0.269269 0.03202,-0.811093 -0.05001,-1.096476 -0.189534,-0.659394 -0.695082,-1.241401 -1.335227,-1.537164 -0.644922,-0.297973 -1.499511,-0.285122 -2.135897,0.03212 -0.657269,0.327654 -1.12207,0.905299 -1.289138,1.602117 -0.0594,0.247702 -0.07649,0.798572 -0.0309,0.994685 l 0.02389,0.102773 -3.543343,0.01904 c -1.948839,0.0105 -4.514047,0.01905 -5.700464,0.01905 l -2.157122,1.3e-5 V 10.569824 7.8178815 h 9.402479 9.402468 v 2.7616595 2.761661 l -0.821647,0.01894 c -0.451905,0.01041 -1.043097,0.01894 -1.313757,0.01894 h -0.492112 z"
       id="path4153" />
    <path
       style="fill:#b3b3b3;stroke:#000000;stroke-width:0.000573321;stroke-linejoin:round;stroke-miterlimit:4;stroke-dasharray:0, 0.00630654;stroke-dashoffset:0.00573321;stroke-opacity:1"
       d="m 46.964053,13.384467 -0.108467,-0.009 0.02245,-0.105715 c 0.0123,-0.05814 0.0221,-0.305654 0.02166,-0.550032 -6.84e-4,-0.382528 -0.0101,-0.474122 -0.06728,-0.658595 -0.207264,-0.668097 -0.707835,-1.237038 -1.340948,-1.524103 -0.631004,-0.286112 -1.524141,-0.272205 -2.133456,0.03322 -0.681534,0.34163 -1.189631,0.991721 -1.314859,1.682315 -0.03347,0.184549 -0.04469,0.883373 -0.01543,0.95966 0.01566,0.04078 -0.13706,0.04696 -1.53951,0.06242 -0.856283,0.0095 -3.417664,0.02357 -5.691958,0.03147 l -4.135079,0.0143 V 10.569068 7.8177611 h 9.40248 9.402469 v 2.7476179 2.747619 l -0.279495,0.0185 c -0.153723,0.0103 -0.595538,0.0195 -0.981813,0.02071 -0.386275,0.0012 -0.799066,0.01107 -0.917315,0.02164 -0.118256,0.01061 -0.263799,0.01543 -0.323455,0.0105 z"
       id="path4192" />
  </g>
  <g
     inkscape:label="Layer 1"
     inkscape:groupmode="layer"
     id="layer1"
     style="display:inline">
    <path
       style="fill:none;stroke:#000000;stroke-width:0.122333;stroke-linecap:butt;stroke-linejoin:miter;stroke-miterlimit:4;stroke-dasharray:none;stroke-opacity:1"
       d="m 44.137774,13.371774 c -7.001245,2.114727 -13.076722,4.030903 -8.390248,4.287023 2.999467,0.353647 8.011563,-0.03046 8.998409,1.060941 0.916532,1.916684 -9.186347,3.832829 -14.155963,7.200411"
       id="path410"
       sodipodi:nodetypes="cccc" />
    <path
       style="fill:none;stroke:#000000;stroke-width:0.122333;stroke-linecap:butt;stroke-linejoin:miter;stroke-miterlimit:4;stroke-dasharray:none;stroke-opacity:1"
       d="m 45.952321,13.476363 c -6.770594,2.088205 -9.703437,3.326367 -5.74106,3.274718 6.473185,0.195942 9.103349,0.567877 9.155962,2.017112 -0.0027,2.344321 -4.450643,3.791029 -9.420262,7.158611"
       id="path410-6"
       sodipodi:nodetypes="cccc" />
    <rect
       style="display:inline;fill:none;fill-opacity:1;fill-rule:evenodd;stroke:#000000;stroke-width:0.122333;stroke-linecap:butt;stroke-linejoin:round;stroke-miterlimit:4;stroke-dasharray:none;stroke-opacity:1;paint-order:normal"
       id="rect3751"
       width="18.952915"
       height="18.167437"
       x="30.589972"
       y="7.7527218" />
    <path
       style="fill:#000000;fill-opacity:1;stroke:#000000;stroke-width:0.162382;stroke-linecap:butt;stroke-linejoin:round;stroke-miterlimit:4;stroke-dasharray:none;stroke-opacity:1;paint-order:normal"
       d=""
       id="path6577"
       transform="scale(0.26458333)" />
    <path
       style="fill:#000000;fill-opacity:1;stroke:#000000;stroke-width:0.162382;stroke-linecap:butt;stroke-linejoin:round;stroke-miterlimit:4;stroke-dasharray:none;stroke-opacity:1;paint-order:normal"
       d=""
       id="path6616"
       transform="scale(0.26458333)" />
    <path
       style="fill:#000000;fill-opacity:1;stroke:#000000;stroke-width:0.162382;stroke-linecap:butt;stroke-linejoin:round;stroke-miterlimit:4;stroke-dasharray:none;stroke-opacity:1;paint-order:normal"
       d=""
       id="path6655"
       transform="scale(0.26458333)" />
    <text
       xml:space="preserve"
       transform="matrix(0.35095354,0,0,0.31949129,-33.842758,7.9917486)"
       id="text20447"
       style="font-style:normal;font-weight:normal;font-size:13.3333px;line-height:0;font-family:sans-serif;white-space:pre;shape-inside:url(#rect20449);fill:#000000;fill-opacity:1;stroke:none"
       inkscape:export-filename="/home/luc/work/ss/docs/dl/text20447.png"
       inkscape:export-xdpi="96"
       inkscape:export-ydpi="96"><tspan
         x="100.23633"
         y="17.750251"
         id="tspan182"><tspan
           style="font-size:11.5556px;line-height:1;font-family:'DejaVu Sans Mono';-inkscape-font-specification:'DejaVu Sans Mono, Normal'"
           id="tspan180">make
</tspan></tspan><tspan
         x="100.23633"
         y="29.30585"
         id="tspan186"><tspan
           style="font-size:11.5556px;line-height:1;font-family:'DejaVu Sans Mono';-inkscape-font-specification:'DejaVu Sans Mono, Normal'"
           id="tspan184">software
</tspan></tspan><tspan
         x="100.23633"
         y="40.861449"
         id="tspan190"><tspan
           style="font-size:11.5556px;line-height:1;font-family:'DejaVu Sans Mono';-inkscape-font-specification:'DejaVu Sans Mono, Normal'"
           id="tspan188">together
</tspan></tspan><tspan
         x="100.23633"
         y="52.417049"
         id="tspan194"><tspan
           style="font-size:11.5556px;line-height:1;font-family:'DejaVu Sans Mono';-inkscape-font-specification:'DejaVu Sans Mono, Normal'"
           id="tspan192">stepwise</tspan></tspan></text>
    <path
       style="fill:none;stroke:#000000;stroke-width:0.122333;stroke-linecap:butt;stroke-linejoin:miter;stroke-miterlimit:4;stroke-dasharray:none;stroke-opacity:1"
       d="m 44.137774,13.371774 -13.548098,0.02026"
       id="path8706"
       sodipodi:nodetypes="cc" />
    <path
       style="fill:#000000;stroke:#000000;stroke-width:0.122333;stroke-linecap:butt;stroke-linejoin:miter;stroke-miterlimit:4;stroke-dasharray:none;stroke-opacity:1"
       d="m 45.952321,13.476363 3.579561,-0.05447"
       id="path8708"
       sodipodi:nodetypes="cc" />
    <path
       style="fill:#ffffff;stroke:#000000;stroke-width:0.000828479;stroke-linejoin:round;stroke-miterlimit:4;stroke-dasharray:0, 0.00911327;stroke-dashoffset:0.00828479;stroke-opacity:1"
       d=""
       id="path1886"
       transform="scale(0.26458333)" />
    <path
       style="fill:#ffffff;stroke:#000000;stroke-width:0.000828479;stroke-linejoin:round;stroke-miterlimit:4;stroke-dasharray:0, 0.00911327;stroke-dashoffset:0.00828479;stroke-opacity:1"
       d=""
       id="path2003"
       transform="scale(0.26458333)" />
    <path
       style="fill:#b3b3b3;stroke:#000000;stroke-width:0.000414239;stroke-linejoin:round;stroke-miterlimit:4;stroke-dasharray:0, 0.00455663;stroke-dashoffset:0.00414239;stroke-opacity:1"
       d=""
       id="path2348"
       transform="scale(0.26458333)" />
    <path
       style="fill:#b3b3b3;stroke:#000000;stroke-width:0.000414239;stroke-linejoin:round;stroke-miterlimit:4;stroke-dasharray:0, 0.00455663;stroke-dashoffset:0.00414239;stroke-opacity:1"
       d=""
       id="path2426"
       transform="scale(0.26458333)" />
    <path
       style="fill:#b3b3b3;stroke:#000000;stroke-width:0.000414239;stroke-linejoin:round;stroke-miterlimit:4;stroke-dasharray:0, 0.00455663;stroke-dashoffset:0.00414239;stroke-opacity:1"
       d=""
       id="path2504"
       transform="scale(0.26458333)" />
    <path
       style="fill:#b3b3b3;stroke:#000000;stroke-width:0.000414239;stroke-linejoin:round;stroke-miterlimit:4;stroke-dasharray:0, 0.00455663;stroke-dashoffset:0.00414239;stroke-opacity:1"
       d=""
       id="path2543"
       transform="scale(0.26458333)" />
    <path
       style="fill:#b3b3b3;stroke:#000000;stroke-width:0.000414239;stroke-linejoin:round;stroke-miterlimit:4;stroke-dasharray:0, 0.00455663;stroke-dashoffset:0.00414239;stroke-opacity:1"
       d=""
       id="path2582"
       transform="scale(0.26458333)" />
    <path
       style="fill:#b3b3b3;stroke:#000000;stroke-width:0.00020712;stroke-linejoin:round;stroke-miterlimit:4;stroke-dasharray:0, 0.00227832;stroke-dashoffset:0.0020712;stroke-opacity:1"
       d=""
       id="path2621"
       transform="scale(0.26458333)" />
    <path
       style="fill:#b3b3b3;stroke:#000000;stroke-width:0.00020712;stroke-linejoin:round;stroke-miterlimit:4;stroke-dasharray:0, 0.00227832;stroke-dashoffset:0.0020712;stroke-opacity:1"
       d=""
       id="path2660"
       transform="scale(0.26458333)" />
    <path
       style="fill:#000000;stroke:#000000;stroke-width:0.000573321;stroke-linejoin:round;stroke-miterlimit:4;stroke-dasharray:0, 0.00630654;stroke-dashoffset:0.00573321;stroke-opacity:1"
       d="m 30.661195,19.613958 v -6.148872 l 4.651068,-2.5e-5 c 2.558087,-1.3e-5 5.476651,-0.0069 6.485698,-0.01515 l 1.834627,-0.01514 -0.70232,0.217654 c -3.528639,1.093565 -5.057029,1.591245 -6.246381,2.033968 -1.527778,0.568699 -2.352173,0.985991 -2.593936,1.313007 -0.08228,0.111291 -0.07885,0.282769 0.0075,0.374661 0.147518,0.157028 0.587824,0.272423 1.265,0.331525 1.617054,0.141134 1.925365,0.158753 3.798255,0.216999 2.605366,0.08104 3.521563,0.153613 4.400239,0.348572 0.670133,0.148684 1.087021,0.361711 1.147512,0.58636 0.106708,0.396297 -0.354956,0.85356 -1.416136,1.402621 -0.853248,0.441479 -1.664093,0.772547 -4.489941,1.833256 -2.689797,1.009641 -3.732644,1.427892 -5.080372,2.037577 -1.002985,0.453725 -2.171046,1.070823 -2.796616,1.477474 -0.130615,0.0849 -0.243488,0.154372 -0.250828,0.154372 -0.0074,0 -0.01335,-2.766993 -0.01335,-6.14887 z"
       id="path4541" />
    <path
       style="fill:#000000;stroke:#000000;stroke-width:0.000573321;stroke-linejoin:round;stroke-miterlimit:4;stroke-dasharray:0, 0.00630654;stroke-dashoffset:0.00573321;stroke-opacity:1"
       d="m 40.28864,25.797157 c 0.501244,-0.362354 2.267106,-1.435767 4.089267,-2.485735 2.459172,-1.417031 3.122452,-1.842339 3.873156,-2.483542 0.780938,-0.66703 1.184027,-1.354028 1.185906,-2.021185 0.0031,-1.093097 -1.302668,-1.62758 -4.643404,-1.900685 -1.243883,-0.101691 -2.849963,-0.180552 -4.701237,-0.230853 -1.152443,-0.0313 -1.400814,-0.06222 -1.55372,-0.193328 -0.0446,-0.03824 -0.04494,-0.04762 -0.004,-0.110282 0.05676,-0.08662 0.35678,-0.285668 0.656357,-0.435474 0.924434,-0.462268 3.072598,-1.228404 6.032815,-2.151595 l 0.731327,-0.228078 1.045968,-0.01718 c 0.575283,-0.0095 1.365236,-0.02461 1.755452,-0.0337 l 0.709488,-0.01653 v 6.179916 6.179913 l -4.622404,-0.0016 c -4.355426,-0.0014 -4.618515,-0.0043 -4.55509,-0.05017 z"
       id="path4580" />
    <text
       xml:space="preserve"
       transform="scale(0.26458333)"
       id="text37172"
       style="font-size:13.3333px;line-height:1.25;font-family:'Liberation Sans';-inkscape-font-specification:'Liberation Sans, Normal';white-space:pre;shape-inside:url(#rect37174)" />
    <text
       xml:space="preserve"
       transform="scale(0.26458333)"
       id="text46196"
       style="font-size:13.3333px;line-height:1.25;font-family:'Liberation Sans';-inkscape-font-specification:'Liberation Sans, Normal';white-space:pre;shape-inside:url(#rect46198)" />
    <text
       xml:space="preserve"
       style="font-size:6.44235px;line-height:1.25;font-family:'Liberation Sans';-inkscape-font-specification:'Liberation Sans, Normal';stroke-width:0.483175"
       x="0.76159942"
       y="6.6427336"
       id="text47326"
       transform="scale(1.1515848,0.86836856)"><tspan
         sodipodi:role="line"
         id="tspan47324"
         style="font-style:normal;font-variant:normal;font-weight:bold;font-stretch:normal;font-size:6.44235px;font-family:'DejaVu Sans Mono';-inkscape-font-specification:'DejaVu Sans Mono, Bold';font-variant-ligatures:normal;font-variant-caps:normal;font-variant-numeric:normal;font-variant-east-asian:normal;fill:#d40000;stroke-width:0.483175"
         x="0.76159942"
         y="6.6427336">Synodalsoft</tspan></text>
    <text
       xml:space="preserve"
       transform="scale(0.26458334)"
       id="text28405"
       style="line-height:1.25;font-family:'Liberation Sans';font-size:13.33333333px;-inkscape-font-specification:'Liberation Sans, Normal';white-space:pre;shape-inside:url(#rect28407)" />
  </g>
  <metadata
     id="metadata9">
    <rdf:RDF>
      <cc:License
         rdf:about="http://creativecommons.org/licenses/by-sa/4.0/">
        <cc:permits
           rdf:resource="http://creativecommons.org/ns#Reproduction" />
        <cc:permits
           rdf:resource="http://creativecommons.org/ns#Distribution" />
        <cc:requires
           rdf:resource="http://creativecommons.org/ns#Notice" />
        <cc:requires
           rdf:resource="http://creativecommons.org/ns#Attribution" />
        <cc:permits
           rdf:resource="http://creativecommons.org/ns#DerivativeWorks" />
        <cc:requires
           rdf:resource="http://creativecommons.org/ns#ShareAlike" />
      </cc:License>
      <cc:Work
         rdf:about="">
        <cc:license
           rdf:resource="http://creativecommons.org/licenses/by-sa/4.0/" />
      </cc:Work>
    </rdf:RDF>
  </metadata>
</svg>
