<svg version="1.1" id="Logo_Miyu" xmlns="http://www.w3.org/2000/svg" xmlns:xlink="http://www.w3.org/1999/xlink" x="0px" y="0px" width="752.4px" height="195px" viewBox="0 0 752.4 195" style="enable-background:new 0 0 752.4 195;" xml:space="preserve">
<g>
	<path d="M595.5,0v100.1c0,35.1,2.7,48.2,13.4,64.3c13.1,19.4,33.1,29.8,64.3,29.8c41.5,0,66.6-18.7,76-52.2
		c2.7-9.7,3.3-17.7,3.3-45.5V0h-36.8v87.7c0,27.8,0,39.5-4,49.2c-6.4,14.7-19.1,23.1-38.2,23.1c-16.7,0-28.1-6.4-35.5-18.4
		c-5.7-9-6.7-27.1-6.7-51.5V0H595.5z M532.6,0h-41.2l-40.8,82.7L410,0h-40.8l63.9,121.5v68.3h35.5v-68.6L532.6,0z M269.8,189.8h35.8
		V0h-35.8V189.8z M193.8,0h-53.6c-22.1,71.3-29.1,96.7-42.8,146.3L53.6,0H0v189.8h35.1c0-121.5-1.7-155-1.3-155.3L79,189.8h35.1
		C148.6,79,160,34.5,160,34.5l-1.3,155.3h35.1L193.8,0L193.8,0z"></path>
</g>
</svg>