<svg width="15" height="14" viewBox="0 0 15 14" fill="none" xmlns="http://www.w3.org/2000/svg">
<path d="M5.80232 5.25021C5.93946 4.86035 6.21016 4.53161 6.56646 4.3222C6.92276 4.1128 7.34167 4.03626 7.749 4.10613C8.15633 4.17599 8.52579 4.38777 8.79195 4.70393C9.0581 5.0201 9.20377 5.42026 9.20315 5.83354C9.20315 7.00021 7.45315 7.58354 7.45315 7.58354M7.49984 9.91683H7.50567M5.10817 11.6669C6.22151 12.238 7.50222 12.3927 8.71952 12.1031C9.93682 11.8135 11.0107 11.0986 11.7475 10.0873C12.4844 9.076 12.8358 7.83477 12.7385 6.58728C12.6412 5.3398 12.1015 4.16809 11.2167 3.2833C10.3319 2.39852 9.16023 1.85884 7.91274 1.76152C6.66526 1.6642 5.42403 2.01563 4.41273 2.7525C3.40144 3.48937 2.68657 4.5632 2.39697 5.78051C2.10736 6.99781 2.26205 8.27852 2.83317 9.39186L1.6665 12.8335L5.10817 11.6669Z" stroke="#949494" stroke-width="1.2" stroke-linecap="round" stroke-linejoin="round"/>
</svg>
