<svg width="15" height="14" viewBox="0 0 15 14" fill="none" xmlns="http://www.w3.org/2000/svg">
<path d="M7.49982 2.91678C7.50051 2.68346 7.45453 2.45236 7.3646 2.23708C7.27467 2.02179 7.14259 1.82666 6.97614 1.66316C6.80969 1.49967 6.61223 1.3711 6.39537 1.28504C6.17851 1.19897 5.94662 1.15714 5.71336 1.162C5.48009 1.16686 5.25015 1.21832 5.03707 1.31335C4.82398 1.40838 4.63205 1.54506 4.47255 1.71535C4.31306 1.88564 4.18923 2.0861 4.10835 2.30495C4.02747 2.5238 3.99116 2.75661 4.00157 2.98969M7.49982 2.91678V10.5001M7.49982 2.91678C7.49913 2.68346 7.54507 2.45236 7.635 2.23708C7.72494 2.02179 7.85701 1.82666 8.02346 1.66316C8.18991 1.49967 8.38737 1.3711 8.60423 1.28504C8.8211 1.19897 9.05298 1.15714 9.28624 1.162C9.51951 1.16686 9.74945 1.21832 9.96254 1.31335C10.1756 1.40838 10.3676 1.54506 10.527 1.71535C10.6865 1.88564 10.8104 2.0861 10.8913 2.30495C10.9721 2.5238 11.0084 2.75661 10.998 2.98969C11.3409 3.07786 11.6592 3.24289 11.9289 3.47229C12.1986 3.7017 12.4125 3.98945 12.5545 4.31377C12.6964 4.63809 12.7628 4.99047 12.7484 5.34421C12.734 5.69795 12.6393 6.04379 12.4715 6.35553M4.00157 2.98969C3.65869 3.07786 3.34036 3.24289 3.0707 3.47229C2.80105 3.7017 2.58713 3.98945 2.44514 4.31377C2.30316 4.63809 2.23685 4.99047 2.25121 5.34421C2.26558 5.69795 2.36026 6.04379 2.52807 6.35553M4.00157 2.98969C4.0131 3.27187 4.09268 3.54704 4.23365 3.79175M2.52807 6.35553C2.23301 6.59524 2.00098 6.90341 1.85218 7.25324C1.70338 7.60307 1.64231 7.98396 1.67428 8.36277C1.70625 8.74158 1.8303 9.10685 2.03562 9.42679C2.24095 9.74673 2.52134 10.0117 2.8524 10.1985M2.52807 6.35553C2.63478 6.26861 2.74897 6.19187 2.86931 6.12508M2.8524 10.1985C2.81152 10.5148 2.83592 10.8362 2.92409 11.1427C3.01226 11.4492 3.16233 11.7343 3.36503 11.9806C3.56773 12.2268 3.81876 12.4289 4.10261 12.5743C4.38647 12.7197 4.69712 12.8054 5.01539 12.8261C5.33366 12.8467 5.65278 12.8019 5.95305 12.6944C6.25331 12.5869 6.52835 12.4189 6.76118 12.201C6.994 11.983 7.17967 11.7196 7.30671 11.4271C7.43376 11.1345 7.49948 10.819 7.49982 10.5001M2.8524 10.1985C3.20256 10.396 3.59774 10.5002 3.99975 10.5M7.49982 10.5001C7.50016 10.819 7.56585 11.1345 7.69289 11.4271C7.81993 11.7196 8.0056 11.983 8.23842 12.201C8.47125 12.4189 8.74629 12.5869 9.04656 12.6944C9.34683 12.8019 9.66595 12.8467 9.98421 12.8261C10.3025 12.8054 10.6131 12.7197 10.897 12.5743C11.1808 12.4289 11.4319 12.2268 11.6346 11.9806C11.8373 11.7343 11.9873 11.4492 12.0755 11.1427C12.1637 10.8362 12.1881 10.5148 12.1472 10.1985M12.4715 6.35553C12.7666 6.59524 12.9986 6.90341 13.1474 7.25324C13.2962 7.60307 13.3573 7.98396 13.3253 8.36277C13.2934 8.74158 13.1693 9.10685 12.964 9.42679C12.7587 9.74673 12.4783 10.0117 12.1472 10.1985M12.4715 6.35553C12.3648 6.26861 12.2506 6.19187 12.1303 6.12508M12.1472 10.1985C11.797 10.396 11.4018 10.5002 10.9998 10.5M9.24978 7.58341C8.76004 7.41113 8.33238 7.0975 8.02088 6.68217C7.70939 6.26684 7.52804 5.76847 7.49978 5.25008C7.47151 5.76847 7.29017 6.26684 6.97867 6.68217C6.66717 7.0975 6.23952 7.41113 5.74978 7.58341M10.7659 3.79175C10.9071 3.54709 10.987 3.27189 10.9987 2.98966" stroke="#949494" stroke-width="1.2" stroke-linecap="round" stroke-linejoin="round"/>
</svg>
