<?xml version="1.0" encoding="UTF-8" standalone="no"?>
<!-- Created with Inkscape (http://www.inkscape.org/) -->

<svg
   width="110mm"
   height="110mm"
   viewBox="0 0 110 110"
   version="1.1"
   id="svg1"
   xml:space="preserve"
   xmlns="http://www.w3.org/2000/svg"
   xmlns:svg="http://www.w3.org/2000/svg"><defs
     id="defs1" /><g
     id="layer1"
     transform="translate(-65.98307,-93.999967)"><path
       style="color:#000000;fill:#828181;-inkscape-stroke:none"
       d="m 129.94141,108.05859 -6.06055,3.50196 35.45703,61.35937 6.06055,-3.50195 z"
       id="path6-1" /><path
       style="color:#000000;fill:#828181;-inkscape-stroke:none"
       d="m 112.0332,108.05859 -35.464841,61.35938 6.060547,3.50195 35.464844,-61.35742 z"
       id="path6" /><path
       id="rect2"
       style="fill:#5c5b5b;fill-opacity:1;fill-rule:evenodd;stroke:none;stroke-width:0.680166;stroke-linecap:round;stroke-dasharray:2.72068, 2.72068"
       d="m 116.43674,108.56349 h 9.1021 v 80.90468 h -9.1021 z" /><path
       id="path1-2-0-1"
       style="fill:#373737;fill-opacity:1;fill-rule:evenodd;stroke:none;stroke-width:3.84175;stroke-linecap:round;stroke-dasharray:none;stroke-dashoffset:0;stroke-opacity:1"
       d="m 113.87897,114.16637 c -2.40575,0 -4.35599,-1.95024 -4.35599,-4.356 0,-2.40575 1.95024,-4.356 4.35599,-4.356 h 14.21769 c 2.40574,0 4.356,1.95025 4.356,4.356 0,2.40576 -1.95026,4.356 -4.356,4.356 z" /><g
       id="g8"
       transform="rotate(-7.9233841,199.22453,168.06774)"
       style="stroke-width:7"><path
         style="color:#000000;fill:#828181;-inkscape-stroke:none"
         d="m 97.392578,135.62695 -6.394531,2.84766 16.289063,36.58789 6.39648,-2.84766 z"
         id="path8" /><path
         id="path1-2"
         style="fill:#373737;fill-rule:evenodd;stroke-width:8.4;stroke-linecap:round"
         d="m 99.465887,137.05111 c 0,2.91096 -2.3598,5.27076 -5.27076,5.27076 -2.91096,0 -5.27076,-2.3598 -5.27076,-5.27076 0,-2.91096 2.3598,-5.27076 5.27076,-5.27076 2.91096,0 5.27076,2.3598 5.27076,5.27076 z" /></g><g
       id="g9"
       transform="rotate(8.6296244,48.342744,190.42461)"
       style="stroke-width:7"><path
         style="color:#000000;fill:#828181;-inkscape-stroke:none"
         d="m 141.35352,135.62695 -16.29102,36.58789 6.39453,2.84766 16.29102,-36.58789 z"
         id="path7" /><g
         id="g3"><path
           id="path1-2-0"
           style="fill:#373737;fill-rule:evenodd;stroke-width:8.4;stroke-linecap:round"
           d="m 149.82137,137.05111 c 0,2.91096 -2.3598,5.27076 -5.27076,5.27076 -2.91096,0 -5.27076,-2.3598 -5.27076,-5.27076 0,-2.91096 2.3598,-5.27076 5.27076,-5.27076 2.91096,0 5.27076,2.3598 5.27076,5.27076 z" /></g></g><g
       id="g7"
       transform="translate(1.61497,12.180404)"><path
         id="path1-2-7-2-6"
         style="fill:#373737;fill-opacity:1;fill-rule:evenodd;stroke:none;stroke-width:0.317999;stroke-linecap:round;stroke-dasharray:1.272, 1.272"
         d="m 112.30751,166.43883 c 0,1.98822 -1.61157,3.60041 -3.59977,3.60041 -1.98822,0 -3.59979,1.61156 -3.59979,3.59977 0,1.98822 1.61157,3.59978 3.59979,3.59978 1.9882,0 3.59977,1.61219 3.59977,3.6004 h 14.13061 c 0,-1.98821 1.61156,-3.6004 3.59978,-3.6004 1.98822,0 3.59979,-1.61156 3.59979,-3.59978 0,-1.98821 -1.61157,-3.59977 -3.59979,-3.59977 -1.98822,0 -3.59978,-1.61219 -3.59978,-3.60041 z" /></g><g
       id="g11"
       transform="translate(1.61497,12.180404)"><path
         id="path1"
         style="fill:#2a1e87;fill-rule:evenodd;stroke-width:2.64583;stroke-linecap:round"
         d="m 89.98307,158.98837 c 0,6.62742 -5.372583,12 -12,12 -6.627417,0 -12,-5.37258 -12,-12 0,-6.62742 5.372583,-12 12,-12 6.627417,0 12,5.37258 12,12 z" /><path
         d="m 73.828294,165.00763 v -12.03852 h 8.309554 v 2.24069 h -5.407411 v 2.53834 h 4.555785 v 2.158 h -4.555785 v 2.86907 h 5.382606 v 2.23242 z"
         id="text7"
         style="-inkscape-font-specification:'Roboto Heavy';fill:#fffdfd;stroke-width:0.264583"
         aria-label="E" /></g><g
       id="g10"
       transform="translate(1.61497,12.180404)"><path
         id="path1-5"
         style="fill:#2a1e87;fill-rule:evenodd;stroke-width:2.64583;stroke-linecap:round"
         d="m 172.75313,158.98837 c 0,6.62742 -5.37258,12 -12,12 -6.62742,0 -12,-5.37258 -12,-12 0,-6.62742 5.37258,-12 12,-12 6.62742,0 12,5.37258 12,12 z" /><path
         d="m 162.59694,161.80783 q 0,-0.57051 -0.39687,-0.94258 -0.38861,-0.37206 -1.71979,-0.81028 -1.33118,-0.44648 -2.24068,-0.96738 -0.90124,-0.52917 -1.38906,-1.2237 -0.47956,-0.69453 -0.47956,-1.67844 0,-1.54616 1.31464,-2.46393 1.31465,-0.91777 3.31556,-0.91777 1.9761,0 3.23287,1.01699 1.26504,1.01699 1.26504,2.72024 h -2.88561 q 0,-0.67799 -0.42168,-1.10794 -0.41341,-0.43822 -1.25677,-0.43822 -0.82682,0 -1.2485,0.3638 -0.42168,0.35554 -0.42168,0.85163 0,0.53743 0.58705,0.9095 0.58704,0.36381 1.62057,0.69453 1.91822,0.61185 2.96828,1.53789 1.05834,0.91777 1.05834,2.43912 0,1.62884 -1.21543,2.50527 -1.21543,0.87643 -3.23287,0.87643 -1.24023,0 -2.39778,-0.42168 -1.15755,-0.42167 -1.90169,-1.32291 -0.74414,-0.90123 -0.74414,-2.32337 h 2.91041 q 0,1.05833 0.55397,1.47174 0.55397,0.41342 1.57923,0.41342 0.82682,0 1.18235,-0.34727 0.3638,-0.34726 0.3638,-0.83509 z"
         id="text7-7"
         style="-inkscape-font-specification:'Roboto Heavy';fill:#fffdfd;stroke-width:0.264583"
         aria-label="S" /></g></g></svg>
