<?xml version="1.0" encoding="UTF-8" standalone="no"?>
<!-- Created with Inkscape (http://www.inkscape.org/) -->

<svg
   width="110mm"
   height="110mm"
   viewBox="0 0 110 110"
   version="1.1"
   id="svg1"
   xml:space="preserve"
   sodipodi:docname="es.svg"
   inkscape:version="1.3.2 (1:1.3.2+202311252150+091e20ef0f)"
   xmlns:inkscape="http://www.inkscape.org/namespaces/inkscape"
   xmlns:sodipodi="http://sodipodi.sourceforge.net/DTD/sodipodi-0.dtd"
   xmlns="http://www.w3.org/2000/svg"
   xmlns:svg="http://www.w3.org/2000/svg"><sodipodi:namedview
     id="namedview1"
     pagecolor="#ffffff"
     bordercolor="#666666"
     borderopacity="1.0"
     inkscape:showpageshadow="2"
     inkscape:pageopacity="0.0"
     inkscape:pagecheckerboard="0"
     inkscape:deskcolor="#d1d1d1"
     inkscape:document-units="mm"
     inkscape:current-layer="layer1" /><defs
     id="defs1" /><g
     inkscape:label="Layer 1"
     inkscape:groupmode="layer"
     id="layer1"
     transform="translate(-65.98307,-93.999967)"><path
       style="font-variation-settings:normal;fill:none;fill-opacity:1;stroke:#828181;stroke-width:3.96875;stroke-linecap:butt;stroke-linejoin:miter;stroke-miterlimit:4;stroke-dasharray:none;stroke-dashoffset:0;stroke-opacity:1;stop-color:#000000"
       d="m 126.91185,109.81037 35.45625,61.3584"
       id="path6-1"
       sodipodi:nodetypes="cc" /><path
       style="font-variation-settings:normal;fill:none;fill-opacity:1;stroke:#828181;stroke-width:3.96875;stroke-linecap:butt;stroke-linejoin:miter;stroke-miterlimit:4;stroke-dasharray:none;stroke-dashoffset:0;stroke-opacity:1;stop-color:#000000"
       d="m 115.06378,109.81037 -35.46574,61.3584"
       id="path6"
       sodipodi:nodetypes="cc" /><path
       id="rect2"
       style="fill:#5c5b5b;fill-opacity:1;fill-rule:evenodd;stroke:none;stroke-width:0.583596;stroke-linecap:round;stroke-dasharray:2.3344, 2.3344"
       d="m 117.19525,110.84646 h 7.58508 v 71.47428 h -7.58508 z" /><path
       id="path1-2-0-1"
       style="fill:#373737;fill-opacity:1;fill-rule:evenodd;stroke:none;stroke-width:3.20146;stroke-linecap:round;stroke-dasharray:none;stroke-dashoffset:0;stroke-opacity:1"
       d="m 115.06378,113.44037 c -2.00479,0 -3.62999,-1.6252 -3.62999,-3.63 0,-2.00479 1.6252,-3.63 3.62999,-3.63 l 11.84807,0 c 2.00479,0 3.63,1.62521 3.63,3.63 0,2.0048 -1.62521,3.63 -3.63,3.63 z"
       sodipodi:nodetypes="csccscc" /><g
       id="g8"
       inkscape:transform-center-x="12.397096"
       inkscape:transform-center-y="-18.810847"
       transform="rotate(-7.9233841,199.22453,168.06774)"
       style="stroke-width:3.96875;stroke-dasharray:none"><path
         style="font-variation-settings:normal;opacity:1;fill:none;fill-opacity:1;stroke:#828181;stroke-width:3.96875;stroke-linecap:butt;stroke-linejoin:miter;stroke-miterlimit:4;stroke-dasharray:none;stroke-dashoffset:0;stroke-opacity:1;stop-color:#000000;stop-opacity:1"
         d="M 110.48525,173.63901 94.195127,137.05111"
         id="path8"
         sodipodi:nodetypes="cc" /><path
         id="path1-2"
         style="fill:#373737;fill-opacity:1;fill-rule:evenodd;stroke:none;stroke-width:4.80218;stroke-linecap:round;stroke-dasharray:none;stroke-dashoffset:0;stroke-opacity:1"
         d="m 98.587427,137.05111 c 0,2.4258 -1.9665,4.3923 -4.3923,4.3923 -2.4258,0 -4.3923,-1.9665 -4.3923,-4.3923 0,-2.4258 1.9665,-4.3923 4.3923,-4.3923 2.4258,0 4.3923,1.9665 4.3923,4.3923 z"
         sodipodi:nodetypes="sssss" /></g><g
       id="g9"
       inkscape:transform-center-x="-12.619132"
       inkscape:transform-center-y="-18.672157"
       transform="rotate(8.6296244,48.342744,190.42461)"
       style="stroke-width:3.96875;stroke-dasharray:none"><path
         style="font-variation-settings:normal;fill:none;fill-opacity:1;stroke:#828181;stroke-width:3.96875;stroke-linecap:butt;stroke-linejoin:miter;stroke-miterlimit:4;stroke-dasharray:none;stroke-dashoffset:0;stroke-opacity:1;stop-color:#000000"
         d="m 128.26039,173.63901 16.29022,-36.5879"
         id="path7"
         sodipodi:nodetypes="cc" /><g
         id="g3"
         style="stroke-width:3.96875;stroke-dasharray:none"><path
           id="path1-2-0"
           style="fill:#373737;fill-opacity:1;fill-rule:evenodd;stroke:none;stroke-width:4.80218;stroke-linecap:round;stroke-dasharray:none;stroke-dashoffset:0;stroke-opacity:1"
           d="m 148.94291,137.05111 c 0,2.4258 -1.9665,4.3923 -4.3923,4.3923 -2.4258,0 -4.3923,-1.9665 -4.3923,-4.3923 0,-2.4258 1.9665,-4.3923 4.3923,-4.3923 2.4258,0 4.3923,1.9665 4.3923,4.3923 z"
           sodipodi:nodetypes="sssss" /></g></g><g
       id="g7"
       transform="translate(1.61497,12.180404)"><path
         id="path1-2-7-2-6"
         style="fill:#373737;fill-opacity:1;fill-rule:evenodd;stroke:none;stroke-width:0.264999;stroke-linecap:round;stroke-dasharray:1.06, 1.06"
         d="m 113.48506,167.63886 c 0,1.65685 -1.34297,3.00034 -2.99981,3.00034 -1.65685,0 -2.99982,1.34297 -2.99982,2.99981 0,1.65685 1.34297,2.99982 2.99982,2.99982 1.65684,0 2.99981,1.34349 2.99981,3.00033 h 11.77551 c 0,-1.65684 1.34297,-3.00033 2.99982,-3.00033 1.65685,0 2.99982,-1.34297 2.99982,-2.99982 0,-1.65684 -1.34297,-2.99981 -2.99982,-2.99981 -1.65685,0 -2.99982,-1.34349 -2.99982,-3.00034 z"
         sodipodi:nodetypes="csssccssscc" /></g><g
       id="g11"
       transform="translate(1.61497,12.180404)"><path
         id="path1"
         style="fill:#2a1e87;fill-opacity:1;fill-rule:evenodd;stroke:none;stroke-width:2.64583;stroke-linecap:round;stroke-dasharray:none;stroke-dashoffset:0;stroke-opacity:1"
         d="m 89.98307,158.98837 c 0,6.62742 -5.372583,12 -12,12 -6.627417,0 -12,-5.37258 -12,-12 0,-6.62742 5.372583,-12 12,-12 6.627417,0 12,5.37258 12,12 z"
         sodipodi:nodetypes="sssss" /><text
         xml:space="preserve"
         style="font-weight:900;font-size:16.9333px;line-height:1.25;font-family:Roboto;-inkscape-font-specification:'Roboto Heavy';letter-spacing:0px;word-spacing:0px;fill:#fffdfd;fill-opacity:1;stroke-width:0.264583"
         x="72.910522"
         y="165.00763"
         id="text7"><tspan
           sodipodi:role="line"
           id="tspan7"
           style="font-size:16.9333px;fill:#fffdfd;fill-opacity:1;stroke-width:0.264583"
           x="72.910522"
           y="165.00763">E</tspan></text></g><g
       id="g10"
       transform="translate(1.61497,12.180404)"><path
         id="path1-5"
         style="fill:#2a1e87;fill-opacity:1;fill-rule:evenodd;stroke:none;stroke-width:2.64583;stroke-linecap:round;stroke-dasharray:none;stroke-dashoffset:0;stroke-opacity:1"
         d="m 172.75313,158.98837 c 0,6.62742 -5.37258,12 -12,12 -6.62742,0 -12,-5.37258 -12,-12 0,-6.62742 5.37258,-12 12,-12 6.62742,0 12,5.37258 12,12 z"
         sodipodi:nodetypes="sssss" /><text
         xml:space="preserve"
         style="font-weight:900;font-size:16.9333px;line-height:1.25;font-family:Roboto;-inkscape-font-specification:'Roboto Heavy';letter-spacing:0px;word-spacing:0px;fill:#fffdfd;fill-opacity:1;stroke-width:0.264583"
         x="155.47801"
         y="165.00763"
         id="text7-7"><tspan
           sodipodi:role="line"
           id="tspan7-4"
           style="font-size:16.9333px;fill:#fffdfd;fill-opacity:1;stroke-width:0.264583"
           x="155.47801"
           y="165.00763">S</tspan></text></g></g></svg>
