<?xml version="1.0" encoding="UTF-8" standalone="no"?>
<!-- Created with Inkscape (http://www.inkscape.org/) -->

<svg
   width="110mm"
   height="110mm"
   viewBox="0 0 110 110"
   version="1.1"
   id="svg1"
   xml:space="preserve"
   xmlns="http://www.w3.org/2000/svg"
   xmlns:svg="http://www.w3.org/2000/svg"><defs
     id="defs1" /><g
     id="layer1"
     transform="translate(-65.98307,-93.999967)"><path
       style="color:#000000;fill:#828181;-inkscape-stroke:none"
       d="m 128.63086,108.81836 -3.4375,1.98437 35.45703,61.35938 3.43555,-1.98633 z"
       id="path6-1" /><path
       style="color:#000000;fill:#828181;-inkscape-stroke:none"
       d="m 113.3457,108.81641 -35.464841,61.35937 3.435547,1.98633 35.464844,-61.35938 z"
       id="path6" /><path
       id="rect2"
       style="fill:#5c5b5b;fill-opacity:1;fill-rule:evenodd;stroke:none;stroke-width:0.583596;stroke-linecap:round;stroke-dasharray:2.3344, 2.3344"
       d="m 117.19525,110.84646 h 7.58508 v 71.47428 h -7.58508 z" /><path
       id="path1-2-0-1"
       style="fill:#373737;fill-opacity:1;fill-rule:evenodd;stroke:none;stroke-width:3.20146;stroke-linecap:round;stroke-dasharray:none;stroke-dashoffset:0;stroke-opacity:1"
       d="m 115.06378,113.44037 c -2.00479,0 -3.62999,-1.6252 -3.62999,-3.63 0,-2.00479 1.6252,-3.63 3.62999,-3.63 l 11.84807,0 c 2.00479,0 3.63,1.62521 3.63,3.63 0,2.0048 -1.62521,3.63 -3.63,3.63 z" /><g
       id="g8"
       transform="rotate(-7.9233841,199.22453,168.06774)"
       style="stroke-width:3.96875"><path
         style="color:#000000;fill:#828181;-inkscape-stroke:none"
         d="m 96.007812,136.24414 -3.625,1.61328 16.289068,36.58789 3.62695,-1.61328 z"
         id="path8" /><path
         id="path1-2"
         style="fill:#373737;fill-rule:evenodd;stroke-width:4.80218;stroke-linecap:round"
         d="m 98.587427,137.05111 c 0,2.4258 -1.9665,4.3923 -4.3923,4.3923 -2.4258,0 -4.3923,-1.9665 -4.3923,-4.3923 0,-2.4258 1.9665,-4.3923 4.3923,-4.3923 2.4258,0 4.3923,1.9665 4.3923,4.3923 z" /></g><g
       id="g9"
       transform="rotate(8.6296244,48.342744,190.42461)"
       style="stroke-width:3.96875"><path
         style="color:#000000;fill:#828181;-inkscape-stroke:none"
         d="m 142.73828,136.24414 -16.29101,36.58789 3.625,1.61328 16.29101,-36.58789 z"
         id="path7" /><g
         id="g3"><path
           id="path1-2-0"
           style="fill:#373737;fill-rule:evenodd;stroke-width:4.80218;stroke-linecap:round"
           d="m 148.94291,137.05111 c 0,2.4258 -1.9665,4.3923 -4.3923,4.3923 -2.4258,0 -4.3923,-1.9665 -4.3923,-4.3923 0,-2.4258 1.9665,-4.3923 4.3923,-4.3923 2.4258,0 4.3923,1.9665 4.3923,4.3923 z" /></g></g><g
       id="g7"
       transform="translate(1.61497,12.180404)"><path
         id="path1-2-7-2-6"
         style="fill:#373737;fill-opacity:1;fill-rule:evenodd;stroke:none;stroke-width:0.264999;stroke-linecap:round;stroke-dasharray:1.06, 1.06"
         d="m 113.48506,167.63886 c 0,1.65685 -1.34297,3.00034 -2.99981,3.00034 -1.65685,0 -2.99982,1.34297 -2.99982,2.99981 0,1.65685 1.34297,2.99982 2.99982,2.99982 1.65684,0 2.99981,1.34349 2.99981,3.00033 h 11.77551 c 0,-1.65684 1.34297,-3.00033 2.99982,-3.00033 1.65685,0 2.99982,-1.34297 2.99982,-2.99982 0,-1.65684 -1.34297,-2.99981 -2.99982,-2.99981 -1.65685,0 -2.99982,-1.34349 -2.99982,-3.00034 z" /></g><g
       id="g11"
       transform="translate(1.61497,12.180404)"><path
         id="path1"
         style="fill:#2a1e87;fill-rule:evenodd;stroke-width:2.64583;stroke-linecap:round"
         d="m 89.98307,158.98837 c 0,6.62742 -5.372583,12 -12,12 -6.627417,0 -12,-5.37258 -12,-12 0,-6.62742 5.372583,-12 12,-12 6.627417,0 12,5.37258 12,12 z" /><path
         d="m 73.828294,165.00763 v -12.03852 h 8.309554 v 2.24069 h -5.407411 v 2.53834 h 4.555785 v 2.158 h -4.555785 v 2.86907 h 5.382606 v 2.23242 z"
         id="text7"
         style="-inkscape-font-specification:'Roboto Heavy';fill:#fffdfd;stroke-width:0.264583"
         aria-label="E" /></g><g
       id="g10"
       transform="translate(1.61497,12.180404)"><path
         id="path1-5"
         style="fill:#2a1e87;fill-rule:evenodd;stroke-width:2.64583;stroke-linecap:round"
         d="m 172.75313,158.98837 c 0,6.62742 -5.37258,12 -12,12 -6.62742,0 -12,-5.37258 -12,-12 0,-6.62742 5.37258,-12 12,-12 6.62742,0 12,5.37258 12,12 z" /><path
         d="m 162.59694,161.80783 q 0,-0.57051 -0.39687,-0.94258 -0.38861,-0.37206 -1.71979,-0.81028 -1.33118,-0.44648 -2.24068,-0.96738 -0.90124,-0.52917 -1.38906,-1.2237 -0.47956,-0.69453 -0.47956,-1.67844 0,-1.54616 1.31464,-2.46393 1.31465,-0.91777 3.31556,-0.91777 1.9761,0 3.23287,1.01699 1.26504,1.01699 1.26504,2.72024 h -2.88561 q 0,-0.67799 -0.42168,-1.10794 -0.41341,-0.43822 -1.25677,-0.43822 -0.82682,0 -1.2485,0.3638 -0.42168,0.35554 -0.42168,0.85163 0,0.53743 0.58705,0.9095 0.58704,0.36381 1.62057,0.69453 1.91822,0.61185 2.96828,1.53789 1.05834,0.91777 1.05834,2.43912 0,1.62884 -1.21543,2.50527 -1.21543,0.87643 -3.23287,0.87643 -1.24023,0 -2.39778,-0.42168 -1.15755,-0.42167 -1.90169,-1.32291 -0.74414,-0.90123 -0.74414,-2.32337 h 2.91041 q 0,1.05833 0.55397,1.47174 0.55397,0.41342 1.57923,0.41342 0.82682,0 1.18235,-0.34727 0.3638,-0.34726 0.3638,-0.83509 z"
         id="text7-7"
         style="-inkscape-font-specification:'Roboto Heavy';fill:#fffdfd;stroke-width:0.264583"
         aria-label="S" /></g></g></svg>
