<?xml version="1.0" encoding="UTF-8"?>
<svg id="Layer_1" data-name="Layer 1" xmlns="http://www.w3.org/2000/svg" viewBox="0 0 1888.85 685.24">
  <g>
    <g>
      <path d="M1079.46,350.45c11.33,0,20.51-9.15,20.51-20.45s-9.18-20.45-20.51-20.45-20.51,9.15-20.51,20.45,9.18,20.45,20.51,20.45Z"/>
      <path d="M1079.46,240.08c11.33,0,20.51-9.15,20.51-20.45s-9.18-20.45-20.51-20.45-20.51,9.15-20.51,20.45,9.18,20.45,20.51,20.45Z"/>
      <path d="M1128.67,240.08c11.33,0,20.51-9.15,20.51-20.45s-9.18-20.45-20.51-20.45-20.51,9.15-20.51,20.45,9.18,20.45,20.51,20.45Z"/>
      <path d="M1177.91,240.08c11.33,0,20.51-9.15,20.51-20.45s-9.18-20.45-20.51-20.45-20.51,9.15-20.51,20.45,9.18,20.45,20.51,20.45Z"/>
      <path d="M1192.29,144.05c11.33,0,20.51-9.15,20.51-20.45s-9.18-20.45-20.51-20.45-20.51,9.15-20.51,20.45,9.18,20.45,20.51,20.45Z"/>
      <path d="M1138.92,144.05c11.32,0,20.51-9.15,20.51-20.45s-9.19-20.45-20.51-20.45-20.51,9.15-20.51,20.45,9.18,20.45,20.51,20.45Z"/>
      <path d="M1085.62,144.05c11.33,0,20.51-9.15,20.51-20.45s-9.18-20.45-20.51-20.45-20.51,9.15-20.51,20.45,9.18,20.45,20.51,20.45Z"/>
      <path d="M1128.67,350.45c11.33,0,20.51-9.15,20.51-20.45s-9.18-20.45-20.51-20.45-20.51,9.15-20.51,20.45,9.18,20.45,20.51,20.45Z"/>
      <path d="M1177.91,350.45c11.33,0,20.51-9.15,20.51-20.45s-9.18-20.45-20.51-20.45-20.51,9.15-20.51,20.45,9.18,20.45,20.51,20.45Z"/>
      <path d="M1034.35,321.86c11.33,0,20.51-9.15,20.51-20.45s-9.18-20.45-20.51-20.45-20.51,9.15-20.51,20.45,9.18,20.45,20.51,20.45Z"/>
      <path d="M1034.35,268.71c11.33,0,20.51-9.15,20.51-20.45s-9.18-20.45-20.51-20.45-20.51,9.15-20.51,20.45,9.18,20.45,20.51,20.45Z"/>
      <path d="M1229.16,350.45c11.33,0,20.51-9.15,20.51-20.45s-9.18-20.45-20.51-20.45-20.51,9.15-20.51,20.45,9.18,20.45,20.51,20.45Z"/>
      <path d="M1229.16,295.27c11.33,0,20.51-9.15,20.51-20.45s-9.18-20.45-20.51-20.45-20.51,9.15-20.51,20.45,9.18,20.45,20.51,20.45Z"/>
      <path d="M1229.16,240.08c11.33,0,20.51-9.15,20.51-20.45s-9.18-20.45-20.51-20.45-20.51,9.15-20.51,20.45,9.18,20.45,20.51,20.45Z"/>
      <path d="M1229.16,184.94c11.33,0,20.51-9.15,20.51-20.45s-9.18-20.45-20.51-20.45-20.51,9.15-20.51,20.45,9.18,20.45,20.51,20.45Z"/>
    </g>
    <g>
      <path d="M310.56,350.45c11.33,0,20.52-9.15,20.52-20.45s-9.19-20.45-20.52-20.45-20.52,9.15-20.52,20.45,9.18,20.45,20.52,20.45Z"/>
      <path d="M310.56,301.41c11.33,0,20.52-9.15,20.52-20.45s-9.19-20.45-20.52-20.45-20.52,9.15-20.52,20.45,9.18,20.45,20.52,20.45Z"/>
      <path d="M310.56,252.38c11.33,0,20.52-9.15,20.52-20.45s-9.19-20.45-20.52-20.45-20.52,9.15-20.52,20.45,9.18,20.45,20.52,20.45Z"/>
      <path d="M310.56,203.34c11.33,0,20.52-9.15,20.52-20.45s-9.19-20.45-20.52-20.45-20.52,9.15-20.52,20.45,9.18,20.45,20.52,20.45Z"/>
      <path d="M310.56,154.27c11.33,0,20.52-9.15,20.52-20.45s-9.19-20.45-20.52-20.45-20.52,9.15-20.52,20.45,9.18,20.45,20.52,20.45Z"/>
      <path d="M310.56,105.17c11.33,0,20.52-9.15,20.52-20.45s-9.19-20.45-20.52-20.45-20.52,9.15-20.52,20.45,9.18,20.45,20.52,20.45Z"/>
      <path d="M310.56,56.13c11.33,0,20.52-9.15,20.52-20.45s-9.19-20.45-20.52-20.45-20.52,9.15-20.52,20.45,9.18,20.45,20.52,20.45Z"/>
    </g>
    <g>
      <path d="M137.34,350.45c11.33,0,20.52-9.15,20.52-20.45s-9.18-20.45-20.52-20.45-20.52,9.15-20.52,20.45,9.19,20.45,20.52,20.45Z"/>
      <path d="M186.54,344.36c11.33,0,20.52-9.15,20.52-20.45s-9.18-20.45-20.52-20.45-20.52,9.15-20.52,20.45,9.19,20.45,20.52,20.45Z"/>
      <path d="M88.1,350.45c11.33,0,20.52-9.15,20.52-20.45s-9.18-20.45-20.52-20.45-20.52,9.15-20.52,20.45,9.19,20.45,20.52,20.45Z"/>
      <path d="M137.39,203.31c11.33,0,20.52-9.15,20.52-20.45s-9.19-20.45-20.52-20.45-20.52,9.15-20.52,20.45,9.19,20.45,20.52,20.45Z"/>
      <path d="M186.66,203.31c11.33,0,20.52-9.15,20.52-20.45s-9.19-20.45-20.52-20.45-20.52,9.15-20.52,20.45,9.19,20.45,20.52,20.45Z"/>
      <path d="M88.21,203.31c11.33,0,20.52-9.15,20.52-20.45s-9.19-20.45-20.52-20.45-20.52,9.15-20.52,20.45,9.19,20.45,20.52,20.45Z"/>
      <path d="M38.89,350.45c11.33,0,20.52-9.15,20.52-20.45s-9.19-20.45-20.52-20.45-20.52,9.15-20.52,20.45,9.18,20.45,20.52,20.45Z"/>
      <path d="M38.89,301.41c11.33,0,20.52-9.15,20.52-20.45s-9.19-20.45-20.52-20.45-20.52,9.15-20.52,20.45,9.18,20.45,20.52,20.45Z"/>
      <path d="M38.89,252.38c11.33,0,20.52-9.15,20.52-20.45s-9.19-20.45-20.52-20.45-20.52,9.15-20.52,20.45,9.18,20.45,20.52,20.45Z"/>
      <path d="M38.89,203.34c11.33,0,20.52-9.15,20.52-20.45s-9.19-20.45-20.52-20.45-20.52,9.15-20.52,20.45,9.18,20.45,20.52,20.45Z"/>
      <path d="M38.89,154.27c11.33,0,20.52-9.15,20.52-20.45s-9.19-20.45-20.52-20.45-20.52,9.15-20.52,20.45,9.18,20.45,20.52,20.45Z"/>
      <path d="M38.89,105.17c11.33,0,20.52-9.15,20.52-20.45s-9.19-20.45-20.52-20.45-20.52,9.15-20.52,20.45,9.18,20.45,20.52,20.45Z"/>
      <path d="M137.34,56.13c11.33,0,20.52-9.15,20.52-20.45s-9.18-20.45-20.52-20.45-20.52,9.15-20.52,20.45,9.19,20.45,20.52,20.45Z"/>
      <path d="M186.54,63.83c11.33,0,20.52-9.15,20.52-20.45s-9.18-20.45-20.52-20.45-20.52,9.15-20.52,20.45,9.19,20.45,20.52,20.45Z"/>
      <path d="M88.1,56.13c11.33,0,20.52-9.15,20.52-20.45s-9.18-20.45-20.52-20.45-20.52,9.15-20.52,20.45,9.19,20.45,20.52,20.45Z"/>
      <path d="M38.89,56.13c11.33,0,20.52-9.15,20.52-20.45s-9.19-20.45-20.52-20.45-20.52,9.15-20.52,20.45,9.18,20.45,20.52,20.45Z"/>
      <g>
        <path d="M214.48,205.83c-11.33,0-20.51,9.15-20.51,20.45s9.18,20.45,20.51,20.45,20.51-9.15,20.51-20.45-9.18-20.45-20.51-20.45Z"/>
        <path d="M214.48,258.97c-11.33,0-20.51,9.15-20.51,20.45s9.18,20.45,20.51,20.45,20.51-9.15,20.51-20.45-9.18-20.45-20.51-20.45Z"/>
      </g>
      <g>
        <path d="M214.48,62.34c-11.33,0-20.51,9.15-20.51,20.45s9.18,20.45,20.51,20.45,20.51-9.15,20.51-20.45-9.18-20.45-20.51-20.45Z"/>
        <path d="M214.48,115.48c-11.33,0-20.51,9.15-20.51,20.45s9.18,20.45,20.51,20.45,20.51-9.15,20.51-20.45-9.18-20.45-20.51-20.45Z"/>
      </g>
    </g>
    <g>
      <path d="M513.46,309.56c-11.33,0-20.52,9.15-20.52,20.45s9.19,20.45,20.52,20.45,20.52-9.15,20.52-20.45-9.19-20.45-20.52-20.45Z"/>
      <path d="M548.15,315.94c-.04,11.29,9.12,20.47,20.45,20.51,11.33,.04,20.54-9.09,20.58-20.38,.04-11.29-9.12-20.47-20.45-20.51-11.33-.04-20.54,9.09-20.58,20.38Z"/>
      <path d="M458.8,294.89c-11.33,0-20.52,9.15-20.52,20.45s9.19,20.45,20.52,20.45,20.52-9.15,20.52-20.45-9.19-20.45-20.52-20.45Z"/>
      <path d="M622.82,202.9c-11.33,0-20.52,9.15-20.52,20.45s9.18,20.45,20.52,20.45,20.52-9.15,20.52-20.45-9.19-20.45-20.52-20.45Z"/>
      <path d="M609.42,256.11c-11.33,0-20.52,9.15-20.52,20.45s9.18,20.45,20.52,20.45,20.52-9.15,20.52-20.45-9.19-20.45-20.52-20.45Z"/>
      <path d="M406.74,202.9c-11.33,0-20.52,9.15-20.52,20.45s9.19,20.45,20.52,20.45,20.52-9.15,20.52-20.45-9.19-20.45-20.52-20.45Z"/>
      <path d="M420.6,256.11c-11.33,0-20.52,9.15-20.52,20.45s9.19,20.45,20.52,20.45,20.52-9.15,20.52-20.45-9.19-20.45-20.52-20.45Z"/>
      <path d="M515.01,134.42c11.33,0,20.52-9.15,20.52-20.45s-9.19-20.45-20.52-20.45-20.52,9.15-20.52,20.45,9.19,20.45,20.52,20.45Z"/>
      <path d="M480.32,128.04c.04-11.29-9.12-20.47-20.45-20.51-11.33-.04-20.54,9.09-20.58,20.38-.04,11.29,9.12,20.47,20.45,20.51,11.33,.04,20.54-9.09,20.58-20.38Z"/>
      <path d="M569.68,149.09c11.33,0,20.52-9.15,20.52-20.45s-9.19-20.45-20.52-20.45-20.52,9.15-20.52,20.45,9.19,20.45,20.52,20.45Z"/>
      <path d="M419.05,187.87c11.33,0,20.52-9.15,20.52-20.45s-9.18-20.45-20.52-20.45-20.52,9.15-20.52,20.45,9.19,20.45,20.52,20.45Z"/>
      <path d="M607.88,187.87c11.33,0,20.52-9.15,20.52-20.45s-9.19-20.45-20.52-20.45-20.52,9.15-20.52,20.45,9.19,20.45,20.52,20.45Z"/>
    </g>
    <g>
      <path d="M1849.96,202.9c-11.33,0-20.52,9.15-20.52,20.45s9.18,20.45,20.52,20.45,20.52-9.15,20.52-20.45-9.19-20.45-20.52-20.45Z"/>
      <path d="M1640.36,202.9c-11.33,0-20.52,9.15-20.52,20.45s9.19,20.45,20.52,20.45,20.52-9.15,20.52-20.45-9.19-20.45-20.52-20.45Z"/>
      <path d="M1692.76,202.9c-11.33,0-20.52,9.15-20.52,20.45s9.19,20.45,20.52,20.45,20.52-9.15,20.52-20.45-9.19-20.45-20.52-20.45Z"/>
      <path d="M1745.16,202.9c-11.33,0-20.52,9.15-20.52,20.45s9.19,20.45,20.52,20.45,20.52-9.15,20.52-20.45-9.19-20.45-20.52-20.45Z"/>
      <path d="M1797.56,202.9c-11.33,0-20.52,9.15-20.52,20.45s9.19,20.45,20.52,20.45,20.52-9.15,20.52-20.45-9.19-20.45-20.52-20.45Z"/>
      <path d="M1748.63,134.42c11.33,0,20.52-9.15,20.52-20.45s-9.19-20.45-20.52-20.45-20.52,9.15-20.52,20.45,9.19,20.45,20.52,20.45Z"/>
      <path d="M1713.94,128.04c.04-11.29-9.12-20.47-20.45-20.51-11.33-.04-20.54,9.09-20.58,20.38-.04,11.29,9.12,20.47,20.45,20.51,11.33,.04,20.54-9.09,20.58-20.38Z"/>
      <path d="M1803.3,149.09c11.33,0,20.52-9.15,20.52-20.45s-9.19-20.45-20.52-20.45-20.52,9.15-20.52,20.45,9.19,20.45,20.52,20.45Z"/>
      <path d="M1652.67,187.87c11.33,0,20.52-9.15,20.52-20.45s-9.18-20.45-20.52-20.45-20.52,9.15-20.52,20.45,9.19,20.45,20.52,20.45Z"/>
      <path d="M1748.63,311.06c11.33,0,20.52,9.15,20.52,20.45s-9.19,20.45-20.52,20.45-20.52-9.15-20.52-20.45,9.19-20.45,20.52-20.45Z"/>
      <path d="M1713.94,317.45c.04,11.29-9.12,20.47-20.45,20.51-11.33,.04-20.54-9.09-20.58-20.38-.04-11.29,9.12-20.47,20.45-20.51,11.33-.04,20.54,9.09,20.58,20.38Z"/>
      <path d="M1803.3,296.39c11.33,0,20.52,9.15,20.52,20.45s-9.19,20.45-20.52,20.45-20.52-9.15-20.52-20.45,9.19-20.45,20.52-20.45Z"/>
      <path d="M1652.67,257.62c11.33,0,20.52,9.15,20.52,20.45s-9.18,20.45-20.52,20.45-20.52-9.15-20.52-20.45,9.19-20.45,20.52-20.45Z"/>
      <path d="M1841.78,188.98c11.33,0,20.52-9.15,20.52-20.45s-9.19-20.45-20.52-20.45-20.52,9.15-20.52,20.45,9.19,20.45,20.52,20.45Z"/>
    </g>
    <g>
      <g>
        <path d="M937.11,443.33c11.33,0,20.52-9.15,20.52-20.45s-9.19-20.45-20.52-20.45-20.52,9.15-20.52,20.45,9.18,20.45,20.52,20.45Z"/>
        <path d="M937.11,394.3c11.33,0,20.52-9.15,20.52-20.45s-9.19-20.45-20.52-20.45-20.52,9.15-20.52,20.45,9.18,20.45,20.52,20.45Z"/>
        <path d="M937.11,345.26c11.33,0,20.52-9.15,20.52-20.45s-9.19-20.45-20.52-20.45-20.52,9.15-20.52,20.45,9.18,20.45,20.52,20.45Z"/>
        <path d="M937.11,296.23c11.33,0,20.52-9.15,20.52-20.45s-9.19-20.45-20.52-20.45-20.52,9.15-20.52,20.45,9.18,20.45,20.52,20.45Z"/>
        <path d="M937.11,247.16c11.33,0,20.52-9.15,20.52-20.45s-9.19-20.45-20.52-20.45-20.52,9.15-20.52,20.45,9.18,20.45,20.52,20.45Z"/>
        <path d="M937.11,198.05c11.33,0,20.52-9.15,20.52-20.45s-9.19-20.45-20.52-20.45-20.52,9.15-20.52,20.45,9.18,20.45,20.52,20.45Z"/>
        <path d="M937.11,149.02c11.33,0,20.52-9.15,20.52-20.45s-9.19-20.45-20.52-20.45-20.52,9.15-20.52,20.45,9.18,20.45,20.52,20.45Z"/>
      </g>
      <path d="M783.56,108.12c11.33,0,20.51,9.15,20.51,20.45s-9.18,20.45-20.51,20.45-20.51-9.15-20.51-20.45,9.18-20.45,20.51-20.45Z"/>
      <path d="M833.83,108.12c11.33,0,20.51,9.15,20.51,20.45s-9.18,20.45-20.51,20.45-20.51-9.15-20.51-20.45,9.18-20.45,20.51-20.45Z"/>
      <path d="M885.22,108.12c11.33,0,20.51,9.15,20.51,20.45s-9.18,20.45-20.51,20.45-20.51-9.15-20.51-20.45,9.18-20.45,20.51-20.45Z"/>
      <path d="M740.47,138.15c11.33,0,20.51,9.15,20.51,20.45s-9.18,20.45-20.51,20.45-20.51-9.15-20.51-20.45,9.18-20.45,20.51-20.45Z"/>
      <path d="M719.44,187.97c11.33,0,20.51,9.15,20.51,20.45s-9.18,20.45-20.51,20.45-20.51-9.15-20.51-20.45,9.18-20.45,20.51-20.45Z"/>
      <path d="M740.47,236.87c11.33,0,20.51,9.15,20.51,20.45s-9.18,20.45-20.51,20.45-20.51-9.15-20.51-20.45,9.18-20.45,20.51-20.45Z"/>
      <path d="M885.22,273.63c11.33,0,20.51,9.15,20.51,20.45s-9.18,20.45-20.51,20.45-20.51-9.15-20.51-20.45,9.18-20.45,20.51-20.45Z"/>
      <path d="M833.83,273.63c11.32,0,20.51,9.15,20.51,20.45s-9.19,20.45-20.51,20.45-20.51-9.15-20.51-20.45,9.18-20.45,20.51-20.45Z"/>
      <path d="M783.56,267.78c11.33,0,20.51,9.15,20.51,20.45s-9.18,20.45-20.51,20.45-20.51-9.15-20.51-20.45,9.18-20.45,20.51-20.45Z"/>
    </g>
    <g>
      <g>
        <path d="M1543.55,15.24c11.33,0,20.52,9.15,20.52,20.45s-9.19,20.45-20.52,20.45-20.52-9.15-20.52-20.45,9.18-20.45,20.52-20.45Z"/>
        <path d="M1543.55,64.28c11.33,0,20.52,9.15,20.52,20.45s-9.19,20.45-20.52,20.45-20.52-9.15-20.52-20.45,9.18-20.45,20.52-20.45Z"/>
        <path d="M1543.55,113.31c11.33,0,20.52,9.15,20.52,20.45s-9.19,20.45-20.52,20.45-20.52-9.15-20.52-20.45,9.18-20.45,20.52-20.45Z"/>
        <path d="M1543.55,162.34c11.33,0,20.52,9.15,20.52,20.45s-9.19,20.45-20.52,20.45-20.52-9.15-20.52-20.45,9.18-20.45,20.52-20.45Z"/>
        <path d="M1543.55,211.41c11.33,0,20.52,9.15,20.52,20.45s-9.19,20.45-20.52,20.45-20.52-9.15-20.52-20.45,9.18-20.45,20.52-20.45Z"/>
        <path d="M1543.55,260.52c11.33,0,20.52,9.15,20.52,20.45s-9.19,20.45-20.52,20.45-20.52-9.15-20.52-20.45,9.18-20.45,20.52-20.45Z"/>
        <path d="M1543.55,309.56c11.33,0,20.52,9.15,20.52,20.45s-9.19,20.45-20.52,20.45-20.52-9.15-20.52-20.45,9.18-20.45,20.52-20.45Z"/>
      </g>
      <path d="M1390,350.45c11.33,0,20.51-9.15,20.51-20.45s-9.18-20.45-20.51-20.45-20.51,9.15-20.51,20.45,9.18,20.45,20.51,20.45Z"/>
      <path d="M1440.27,350.45c11.33,0,20.51-9.15,20.51-20.45s-9.18-20.45-20.51-20.45-20.51,9.15-20.51,20.45,9.18,20.45,20.51,20.45Z"/>
      <path d="M1491.67,350.45c11.33,0,20.51-9.15,20.51-20.45s-9.18-20.45-20.51-20.45-20.51,9.15-20.51,20.45,9.18,20.45,20.51,20.45Z"/>
      <path d="M1346.92,320.42c11.33,0,20.51-9.15,20.51-20.45s-9.18-20.45-20.51-20.45-20.51,9.15-20.51,20.45,9.18,20.45,20.51,20.45Z"/>
      <path d="M1325.88,270.6c11.33,0,20.51-9.15,20.51-20.45s-9.18-20.45-20.51-20.45-20.51,9.15-20.51,20.45,9.18,20.45,20.51,20.45Z"/>
      <path d="M1346.92,221.7c11.33,0,20.51-9.15,20.51-20.45s-9.18-20.45-20.51-20.45-20.51,9.15-20.51,20.45,9.18,20.45,20.51,20.45Z"/>
      <path d="M1491.67,184.94c11.33,0,20.51-9.15,20.51-20.45s-9.18-20.45-20.51-20.45-20.51,9.15-20.51,20.45,9.18,20.45,20.51,20.45Z"/>
      <path d="M1440.27,184.94c11.32,0,20.51-9.15,20.51-20.45s-9.19-20.45-20.51-20.45-20.51,9.15-20.51,20.45,9.18,20.45,20.51,20.45Z"/>
      <path d="M1390,190.79c11.33,0,20.51-9.15,20.51-20.45s-9.18-20.45-20.51-20.45-20.51,9.15-20.51,20.45,9.18,20.45,20.51,20.45Z"/>
    </g>
  </g>
  <g>
    <path d="M123.14,578.01H61.81l-16.26,45.53H18.37l61.09-163.77h27.88l61.33,163.77h-29.27l-16.26-45.53Zm-8.13-23l-22.53-63.19-22.53,63.19h45.07Z"/>
    <path d="M272.96,623.54v-74.1c0-16.03-8.6-25.09-22.77-25.09-15.1,0-25.32,10.92-25.32,27.64v71.55h-25.79v-117.31h25.32v11.85h.93c5.81-9.29,18.12-15.33,32.99-15.33,24.16,0,40.19,16.03,40.19,39.26v81.54h-25.55Z"/>
    <path d="M389.56,502.75c17.19,0,32.29,6.74,40.42,16.96h.7l.7-13.47h23.46v117.31h-23.46l-.7-13.47h-.7c-8.13,10.22-23.23,16.96-40.42,16.96-33.92,0-58.54-25.78-58.54-62.26s24.62-62.02,58.54-62.02Zm3.72,102.91c22.07,0,38.33-17.19,38.33-41.12s-16.26-40.42-38.33-40.42-38.56,16.96-38.56,40.42,16.26,41.12,38.56,41.12Z"/>
    <path d="M518.24,623.54h-25.79v-163.77h25.79v163.77Z"/>
    <path d="M613.94,502.75c36.7,0,62.02,25.78,62.02,62.02s-25.32,62.26-62.02,62.26-62.26-25.78-62.26-62.26,25.55-62.02,62.26-62.02Zm0,102.91c22.07,0,38.33-17.19,38.33-41.12s-16.26-40.42-38.33-40.42-38.56,16.96-38.56,40.42,16.26,41.12,38.56,41.12Z"/>
    <path d="M801.16,517.38h.7l.7-11.15h23.46v116.85c0,33.22-16.26,46.92-58.07,46.92-9.76,0-20.44-.7-29.27-2.32v-21.84c9.52,1.86,19.98,2.79,29.04,2.79,24.39,0,33.92-6.97,33.92-25.09v-16.03h-.93c-7.67,9.99-21.6,16.03-38.33,16.03-33.92,0-57.15-24.62-57.15-60.17s23.93-60.63,57.38-60.63c15.56,0,29.97,5.58,38.56,14.63Zm-72.24,46c0,22.53,15.8,38.79,37.17,38.79s36.7-16.26,36.7-38.79-15.56-39.26-36.7-39.26-37.17,16.49-37.17,39.26Z"/>
  </g>
</svg>
