<?xml version="1.0" encoding="UTF-8" standalone="no"?>
<!-- Created with Inkscape (http://www.inkscape.org/) -->

<svg
   xmlns:dc="http://purl.org/dc/elements/1.1/"
   xmlns:cc="http://creativecommons.org/ns#"
   xmlns:rdf="http://www.w3.org/1999/02/22-rdf-syntax-ns#"
   xmlns:svg="http://www.w3.org/2000/svg"
   xmlns="http://www.w3.org/2000/svg"
   xmlns:sodipodi="http://sodipodi.sourceforge.net/DTD/sodipodi-0.dtd"
   xmlns:inkscape="http://www.inkscape.org/namespaces/inkscape"
   width="6.6318984mm"
   height="6.625607mm"
   viewBox="0 0 23.498853 23.47656"
   id="svg6884"
   version="1.1"
   inkscape:version="0.91 r13725"
   sodipodi:docname="tool-default.svg">
  <defs
     id="defs6886" />
  <sodipodi:namedview
     id="base"
     pagecolor="#ffffff"
     bordercolor="#666666"
     borderopacity="1.0"
     inkscape:pageopacity="0.0"
     inkscape:pageshadow="2"
     inkscape:zoom="15.839192"
     inkscape:cx="0.76409177"
     inkscape:cy="6.4032377"
     inkscape:document-units="px"
     inkscape:current-layer="layer1"
     showgrid="false"
     fit-margin-top="0"
     fit-margin-left="0"
     fit-margin-right="0"
     fit-margin-bottom="0"
     inkscape:window-width="1920"
     inkscape:window-height="1017"
     inkscape:window-x="-8"
     inkscape:window-y="-8"
     inkscape:window-maximized="1" />
  <metadata
     id="metadata6889">
    <rdf:RDF>
      <cc:Work
         rdf:about="">
        <dc:format>image/svg+xml</dc:format>
        <dc:type
           rdf:resource="http://purl.org/dc/dcmitype/StillImage" />
        <dc:title></dc:title>
      </cc:Work>
    </rdf:RDF>
  </metadata>
  <g
     inkscape:label="Ebene 1"
     inkscape:groupmode="layer"
     id="layer1"
     transform="translate(-339.67914,-492.0525)">
    <path
       style="opacity:1;fill:none;fill-opacity:1;stroke:#ffffff;stroke-width:0.99999994;stroke-linecap:round;stroke-linejoin:round;stroke-miterlimit:4;stroke-dasharray:none;stroke-dashoffset:0;stroke-opacity:1"
       d="m 355.83439,492.86306 a 6.6356489,6.6356562 0 0 0 -6.63575,6.63575 6.6356489,6.6356562 0 0 0 0.68754,2.93482 l -8.80641,8.80839 c -0.80843,0.80843 -0.80843,2.1087 0,2.91714 0.80844,0.80843 2.11067,0.80843 2.9191,0 l 8.77695,-8.77696 a 6.6356489,6.6356562 0 0 0 3.05857,0.75237 6.6356489,6.6356562 0 0 0 6.63575,-6.63576 6.6356489,6.6356562 0 0 0 -0.31823,-2.0194 l -3.68915,3.68915 c -0.26119,0.26118 -0.7112,0.23171 -1.0097,-0.0668 l -3.18823,-3.18823 c -0.29849,-0.2985 -0.32993,-0.74852 -0.0688,-1.0097 l 3.7029,-3.70291 a 6.6356489,6.6356562 0 0 0 -2.06459,-0.33787 z"
       id="path4134"
       inkscape:connector-curvature="0" />
  </g>
</svg>
