<svg xmlns="http://www.w3.org/2000/svg" viewBox="0 0 24 24" fill="none">
  <path d="M4.459 4.208c.746.606 1.026.56 2.428.466l13.215-.793c.28 0 .047-.28-.046-.326L17.86 2.028c-.42-.326-.98-.7-2.055-.607L3.01 2.867c-.466.046-.56.28-.374.466l1.823 1.875zm.793 3.08v13.904c0 .747.373 1.027 1.214.98l14.523-.84c.84-.046.933-.56.933-1.167V6.354c0-.606-.233-.933-.746-.886l-15.177.887c-.56.047-.747.327-.747.933zm14.337.745c.093.42 0 .84-.42.888l-.7.14v10.264c-.608.327-1.168.514-1.635.514-.746 0-.933-.234-1.495-.933l-4.577-7.186v6.952l1.449.327s0 .84-1.168.84l-3.222.186c-.093-.186 0-.653.327-.746l.84-.233V9.854L7.822 9.76c-.094-.42.14-1.026.793-1.073l3.456-.233 4.764 7.279v-6.44l-1.215-.14c-.093-.514.28-.886.747-.933l3.222-.187zM2.64 1.098l13.355-1.027c1.635-.14 2.055-.046 3.082.7l4.25 2.987c.7.514.932.653.932 1.213v16.378c0 1.026-.373 1.634-1.68 1.727L6.028 24c-.978.046-1.448-.093-1.962-.746l-3.129-4.06c-.56-.747-.793-1.306-.793-1.96V2.78c0-.839.373-1.54 1.498-1.68z" fill="#000000"/>
</svg>
