/* XPM */
static char *ebrow_xpm32[] = {
"32 32 29 1 0 0",
"  c #AAAAAA",
"! c #999999",
"# c #777777",
"$ c #BBBBBB",
"% c #555555",
"& c #111111",
"' c #000000",
"( c #222222",
") c #333333",
"* c #444444",
"+ c #888888",
", c #666666",
"- c #000011",
". c #99CCFF",
"/ c #99CCCC",
"0 c #001100",
"1 c #CCCCFF",
"2 c #669999",
"3 c #CCCCCC",
"4 c #CCFFFF",
"5 c #DDDDDD",
"6 c #336666",
"7 c #EEEEEE",
"8 c #CC9933",
"9 c #CCCC66",
": c #99CC99",
"; c #110000",
"< c #FFFFFF",
"= c None",
"================================",
"================================",
"======== !###!$=================",
"======$%&&''&&&# ===============",
"===== (''''''''') ==============",
"==== ('''''''&*'') =============",
"===$)''&&(&%(+(''',!============",
"=== '''''''*,#''''- ============",
"==!%'''''''#.&''''-!============",
"== )''''&&(/#0&''''+!===========",
"==!&'''&&(/ &&&'''', ===========",
"==!(''''' 1,&(&&((&+!===========",
"==!*''''21/,&()(&))3+===========",
"==,+'''%456*''''''(7============",
"===3&')///(*&&&&''+ ============",
"===#!'#89%&(-&-&'(7,============",
"==== ,*::&0'''''&5+=============",
"===== !(&0''''')5 $$============",
"======+3+);'&%$5#%5 5===========",
"=======)#$353 #)== !,37=========",
"===================$++$7========",
"====================$+!$<=======",
"=====================$!  7======",
"======================$!$37=====",
"======================+$$537====",
"=======================+$$737===",
"========================#$3757==",
"=========================#$3<55=",
"===========================$37==",
"============================ ===",
"================================",
"================================"
};
