/* XPM */
static char *ebrow_xpm16[] = {
"16 16 22 1 0 0",
"  c #999999",
"! c #555555",
"# c #333333",
"$ c #777777",
"% c #888888",
"& c #000000",
"' c #111111",
"( c #444444",
") c #222222",
"* c #666666",
"+ c #000011",
", c #336666",
"- c #110000",
". c #AAAAAA",
"/ c #99CCCC",
"0 c #666699",
"1 c #336633",
"2 c #BBBBBB",
"3 c #CCCCCC",
"4 c #DDDDDD",
"5 c #EEEEEE",
"6 c None",
"6666666666666666",
"666 !#!$66666666",
"66%&&&&'(6666666",
"66'&')*+&$666666",
"6*&&&!,-&(666666",
"6!&&(.'''#666666",
"6$&)/0'''$666666",
"6%)% )'''.666666",
"66%*1&&' .666666",
"666%$*$ 6.266666",
"6666666666 26666",
"66666666666.3666",
"66666666666 2466",
"666666666666 356",
"6666666666666636",
"6666666666666666"
};
